<?xml version="1.0" encoding="UTF-8"?>
<svg id="Ebene_2" data-name="Ebene 2" xmlns="http://www.w3.org/2000/svg" viewBox="0 0 68.93 71.12">
  <defs>
    <style>
      .cls-1 {
        fill: #f2d0b4;
        stroke-width: 0px;
      }
    </style>
  </defs>
  <g id="Ebene_5" data-name="Ebene 5">
    <path class="cls-1" d="M38.37,46.31c-.15.14-.41.36-.66.6-2.61,2.54-5.53,4.58-9.14,5.41-1.15.26-2.35.4-3.53.36-2.07-.07-3.53-1.26-4.59-2.97-1.1-1.77-1.62-3.75-1.89-5.78-.61-4.65-.4-9.26,1.24-13.7,2.23-6.04,6.15-10.51,12.47-12.34,5.88-1.7,11.52-.83,16.78,2.35.45.27.58.58.54,1.1-.49,5.54-.96,11.08-1.41,16.62-.14,1.7-.19,3.41-.27,5.12-.01.26.02.52.07.78.36,2.15,1.53,2.96,3.69,2.55,2.16-.4,3.67-1.71,4.79-3.52,1.3-2.1,1.93-4.44,2.26-6.85.55-4.05.56-8.1-.35-12.12-2.12-9.35-8.72-15.47-18.24-16.75-6.61-.89-12.78.36-18.29,4.25-5.11,3.61-8.19,8.63-9.89,14.56-1.3,4.53-1.53,9.16-1.21,13.84.27,3.86.96,7.63,2.49,11.21,3.11,7.24,8.68,11.37,16.36,12.68,6.79,1.16,13.43.35,19.94-1.83.27-.09.54-.18.9-.29.54,1.89,1.08,3.77,1.67,5.8-1.72.62-3.38,1.31-5.1,1.81-8.84,2.54-17.69,2.66-26.43-.37-9.83-3.41-16.23-10.24-18.97-20.24C-1.01,39.09-.5,29.64,3.69,20.63,8.67,9.91,17.15,3.39,28.68.95c7.87-1.66,15.68-1.21,23.17,1.86,9.8,4.03,15.4,11.43,16.76,21.94.72,5.55.29,11.03-1.89,16.24-2.81,6.72-7.99,10.42-15.14,11.46-3.16.46-6.3.36-9.43-.28-.77-.16-1.38-.49-1.71-1.23-.69-1.52-1.36-3.05-2.07-4.63ZM36.82,22.45c-.65.18-1.54.3-2.32.67-2.22,1.04-3.34,3.02-4.14,5.21-1.02,2.78-1.3,5.68-1.39,8.61-.06,1.95-.06,3.9.51,5.79.63,2.11,1.95,2.79,3.98,1.92,2.37-1.01,3.83-2.87,4.31-5.38.31-1.63.38-3.3.52-4.95.32-3.6.61-7.19.92-10.79.04-.4-.1-.65-.48-.73-.56-.11-1.12-.2-1.9-.34Z"/>
  </g>
</svg>