<?xml version="1.0" encoding="UTF-8"?>
<svg id="Ebene_2" data-name="Ebene 2" xmlns="http://www.w3.org/2000/svg" viewBox="0 0 413.54 696.43">
  <defs>
    <style>
      .cls-1 {
        fill: #000;
      }

      .cls-1, .cls-2, .cls-3, .cls-4 {
        stroke-width: 0px;
      }

      .cls-2 {
        fill: #1d2f3b;
      }

      .cls-3 {
        fill: #f2d0b4;
      }

      .cls-4 {
        fill: #4dad6e;
      }
    </style>
  </defs>
  <g id="Ebene_4" data-name="Ebene 4">
    <g>
      <path class="cls-2" d="M59.31,411.39c.41-6.74.73-13.49,1.25-20.23.82-10.57,1.9-21.12,2.58-31.7.21-3.24-.68-6.53-.81-9.81-.28-6.97-1-14-.42-20.92.98-11.74,10.02-18.7,20.13-15.33,3.65,1.22,7.85,4.69,9.17,8.14,2.12,5.54,3.49,12.13,2.63,17.89-2.01,13.45-3.65,26.82-4.04,40.46-.5,17.62-2.25,35.2-3.58,52.79-.24,3.16.36,5.49,3.48,6.85,1.19.52,2.18,1.52,3.27,2.28,9.62,6.69,15.15,15.16,12.8,27.55-1.74,9.15-2.11,18.62-4.56,27.55-3.66,13.29-2.59,26.22,1.46,38.84,4.97,15.48,11.08,30.6,17.65,45.9,2.76-8.15,9.49-14.54,7.57-24.22-2.99-15.08-1.76-29.79,5.69-43.65,8.4-15.62,25.96-24.94,43.48-22.11,5.21.84,9.53-.28,14.39-1.51,9.91-2.52,16.42-8.54,22.86-16.19,5.35-6.36,6.72-12.29,5.31-19.86-2.07-11.12-3.55-22.35-5.82-33.43-1.58-7.74-5.17-14.4-11.59-19.7-22.2-18.31-37.41-41.72-48.79-67.91-1.99-4.58-4.94-9.04-8.42-12.61-14.63-15.03-26.36-31.81-32.36-52.07-3.44-11.59-2.96-23.33.3-35.01.52-1.88.4-4.31-.35-6.1-3.58-8.6-4.34-17.31-2.41-26.42.39-1.86-.31-4.21-1.15-6.04-9.11-19.79-14.52-40.39-13.82-62.31.86-26.69,10.49-50.21,28.05-69.98C157,24.55,199.76,3.75,250.34.25c26.49-1.83,51.31,6.45,75.1,17.53,24.33,11.34,45.81,26.59,62.55,47.82,27.67,35.11,31.95,73.88,17.3,115.41-.5,1.41-.96,2.85-1.62,4.19-3.72,7.64-6.62,15.13-4.41,24.17,1.03,4.18-.19,9.46-1.89,13.62-2.15,5.26-2.02,9.89-.68,15.24,3.31,13.17,1.69,26.11-3.5,38.61-7.19,17.34-17.97,32.18-31.27,45.35-2.39,2.37-4.45,5.4-5.75,8.5-11.99,28.57-28.74,53.52-52.95,73.39-4.23,3.48-7.15,9.9-8.35,15.47-3.07,14.29-4.85,28.86-7.04,43.33-.18,1.2.05,2.78.72,3.75,3.52,5.04,6.89,10.27,11.04,14.77,2.46,2.66,6.08,4.49,9.48,5.99,4.69,2.06,9.63,3.58,14.54,5.08,1.49.46,3.24.23,4.86.1,11.76-.93,22.94,1.04,33.16,7.06,12.49,7.35,18.56,18.9,19.72,32.92.6,7.25-.38,14.63-.31,21.94.1,10.27.26,20.55.84,30.8.92,16.24-.29,32.27-3.51,48.19-.35,1.72-.25,3.59-.03,5.35,1.99,16.13,2.18,32.23-.79,48.26-1.6,8.64-2.42,9.22-11.02,9.23-8.83.02-17.67-.27-26.49.08-4.64.18-6.37-1.77-7.48-5.94-3.7-13.93-3.01-28.06-2.61-42.22.22-7.62.04-15.26.04-22.89,0-11.46,0-22.92,0-34.94-1.65,7.25-3.25,14.26-4.8,21.27-.14.61.22,1.32.19,1.98-.35,10.55-.74,21.1-1.08,31.65-.05,1.45.07,2.91.24,4.36.15,1.32.72,2.62.7,3.93-.22,11.25-.44,22.51-.86,33.76-.19,4.97-2.58,7.02-8.06,6.88-41.14-1.06-82.29-1.76-123.44-2.63-8.29-.17-9.15-.58-9.18-8.76-.05-12.24.92-24.47,1.05-36.71.08-7.72-.52-15.45-.94-23.17-.14-2.65-.82-5.27-.97-7.93-.18-3.15.63-6.52-.21-9.44-2.11-7.3-4.91-14.39-7.81-22.64-1.32,2.84-2.84,4.9-3.23,7.15-5.83,33.29-18.98,63.99-33.22,94.3-.42.9-.74,1.85-1.13,2.77-4.16,9.76-11.28,11.49-19.83,5.3-10.2-7.38-19.45-15.61-26.71-26-7.83-11.22-9.16-24.5-11.93-37.26-6.55-30.24-12.68-60.56-19.04-90.84-.51-2.43-1.4-4.79-2.15-7.17-1.43-4.51-3.66-8.18-7.81-11.06-7.66-5.33-11.6-13.47-14.9-21.99-1.07-2.77-3.19-5.16-4.98-7.62-7.91-10.85-16.75-21.14-23.56-32.63-6.17-10.41,2.58-24.6,14.69-25.99,12.11-1.39,11.94-1.32,7.72-12.74-5.41-14.62-10.47-29.37-15.76-44.04-.61-1.68-1.6-3.26-2.6-4.76-5.08-7.56-8.93-15.65-10.07-24.74-.47-3.73-.47-7.71.32-11.36,2.25-10.35,12.03-14.67,20.57-8.45,4.43,3.23,8.73,8.34,10.31,13.45,4.74,15.36,9.3,30.69,15.98,45.39,3.95,8.68,6.74,17.88,10.06,26.84.59-.04,1.17-.09,1.76-.13ZM161.85,203.79c.03.35.07.7.1,1.04-.96.09-1.92.15-2.88.26-21.21,2.39-37.42,16.87-40.94,37.12-1.89,10.86-.68,21.57,3.68,31.83,8.5,20.03,21.29,36.76,38.33,50.32,7.95,6.33,15.19,13.39,21.03,22.52-6.68-5.26-12.8-10.09-18.93-14.91,2.99,15.09,25.56,48.47,35.18,54.65-6.69-10.82-13.89-22.46-21.08-34.09.3-.17.61-.35.91-.52,6.75,9.08,13.49,18.16,20.24,27.25.41-.28.82-.56,1.22-.85-2.01-3.49-4.02-6.98-6.02-10.47.23-.12.46-.25.68-.37,2.45,2.62,4.9,5.24,7.93,8.48v-5.6c8.47,20.66,13.91,41.59,28.92,57.7-3.35-7.39-6.7-14.78-10.05-22.17.38-.18.76-.37,1.15-.55,5.57,9.6,10.37,19.74,18.85,27.28-2.12-4.23-4.23-8.45-6.35-12.68,2.24,1.76,3.71,3.97,5.36,6.01,1.78,2.2,3.6,4.39,5.64,6.34,5.67,5.39,13.59,5.4,19.11-.14,3.3-3.31,6.16-7.06,9.22-10.61.25.15.5.29.74.44-1.75,3.44-3.5,6.88-5.25,10.33.53.31,1.06.62,1.6.93,6.4-10.35,12.79-20.7,19.19-31.05.15.06.3.12.45.18-3.7,8.38-7.4,16.75-11.1,25.13,14.75-16.05,20.18-36.71,28.68-57.5v5.87c3.25-3.51,5.85-6.31,8.44-9.12.2.16.41.32.61.48l-6.77,11.2c.4.28.79.56,1.19.83,6.46-8.54,12.91-17.08,19.37-25.62.34.22.68.43,1.02.65-6.74,10.77-13.48,21.54-20.22,32.31,15.96-15.33,27.56-33.51,36.3-53.6-.32-.34-.63-.68-.95-1.02l-18.32,14.13c-.33-.36-.67-.72-1-1.07,7.36-7.13,14.3-14.76,22.15-21.29,16.88-14.03,29.8-30.84,38.03-51.15,8.74-21.57,3.51-44.68-12.93-57.67-8.08-6.38-17.55-9.33-27.67-10.74,4.86-.02,9.67.21,14.43.82,13.71,1.77,16.6-.57,15.47-14.3-1.06-13.03,3.24-24.96,6.47-37.15,4.16-15.73,6.09-31.41-1.17-46.87-.03-.06.3-.29.56-.53,7.65,12.57,8.4,26.24,6.57,40.17-4.64,35.35-9.51,26.26.34,64.85.65,2.54.84,5.19,1.24,7.79.64-.08,1.28-.15,1.92-.23-.4-5.71.09-11.65-1.36-17.08-4.32-16.14.37-30.8,5.83-46.16-1.05,10.5-2.04,20.35-3.03,30.19.57.08,1.13.16,1.7.24.85-2.13,1.77-4.24,2.55-6.39,16.62-45.84,8.5-86.5-26-121.26-19.82-19.97-43.75-33.54-70.27-42.62-18.91-6.48-38.31-10.78-58.36-8.33-40.92,5-76.76,21.5-106.43,50.25-37.4,36.25-43.61,80.86-24.89,127,.18.44.67.77,1.34,1.5,0-5.26.25-9.92-.07-14.54-.32-4.44-1.23-8.84-1.89-13.25,5.61,11.51,10.2,30.54,5.53,44.11-1.8,5.22-1.89,10.88.39,16.84,1.85-8.4,3.37-16.16,5.3-23.82,2.37-9.41,1.99-18.68.34-28.19-1.99-11.44-3.58-23.01-4.31-34.59-.53-8.44,1.65-16.7,6.23-24.06-.68,3.89-1.85,7.66-2.57,11.53-2.27,12.14.23,23.88,3.47,35.47,3.55,12.68,7.38,25.19,5.59,38.71-1.13,8.52,3.27,12.21,11.93,11.2,6.07-.71,12.16-1.21,18.24-1.8ZM310.53,656.55c4.5-6.61,9.07-12.66,6.6-21.41-2.96,1.67-5.58,3.15-8.21,4.63,5.34-7.63,9.59-15.29,9.5-25.23-4.05,1.68-7.62,3.16-11.19,4.65,13.72-9.34,14.17-24.45,17.12-38.51-2.03,2.56-4.06,5.11-6.09,7.67,2.73-11.89,9.05-21.01,18.83-27.13,2.59,5.25,4.84,9.81,7.13,14.47-4.57,1.2-5.25,5.3-5.63,9.51-.63,6.96-1.37,13.93-1.7,20.91-.61,12.84-.8,25.67,4.9,37.72.41.86.45,1.9.84,3.66-1.94-1.68-3.15-2.72-5-4.33-1.41,14.36-1.99,27.89.9,41.35.38,1.76,2.19,4.72,3.03,4.62,3.73-.44,8.36,2.85,11.16-2.33,2.02-3.75,3.94-3.77,5.71.11,2.18,4.79,6.12,1.82,9.18,2.24.89.12,3.03-2.44,3.11-3.86.74-12.77,1.18-25.55,1.63-38.34.03-.9-.47-1.82-.84-3.14-1.93,1.44-3.54,2.64-6.08,4.54,11.2-24.47,10.37-49.11,8.81-74.75-1.96,1.42-3.06,2.22-4.69,3.4.24-1.42.4-2.21.5-3,1.61-11.82,4.47-23.63,4.56-35.46.2-26.85-21.65-43.94-48.02-38.45-4.07.85-7.86,3.05-12.51,4.92,1.76-2.68,3.08-4.7,4.76-7.24-9.14-2.88-17.85-5.62-26.73-8.42,1.04-.99,1.81-1.73,2.56-2.44-3.19-4.43-6.19-8.59-9.47-13.15-1.78,3.3-3.3,6.12-4.82,8.94-.28-.1-.57-.19-.85-.29,1.27-14.35,2.54-28.71,3.81-43.06l-.95-.26c-2.48,9.14-4.97,18.27-7.37,27.11-5.61-14.25-6.02-11.23-10.43-9.16-2.09-5.02-3.69-11.43-10.09-11.66-6.87-.25-8.24,6.65-10.59,11.24-9.68-3.21-7.09,6.85-10.44,9.4-2.49-9.01-5.01-18.14-7.54-27.27-.45.11-.9.22-1.34.34.86,7.08,1.87,14.14,2.55,21.24.68,7.16,1.02,14.36,1.5,21.54-.29.07-.59.13-.88.2-1.43-2.64-2.87-5.28-4.58-8.44-3.78,4.71-7.08,8.81-10.4,12.94,1.33,1.05,2.39,1.89,3.4,2.69-8.95,2.9-17.57,5.7-26.45,8.58,1.73,2.71,2.99,4.69,4.82,7.57-3.33-1.55-5.56-2.6-7.8-3.63-17.53-8.07-36.92-1.98-46.64,14.77-6.47,11.14-7.84,23.3-5.92,35.76,1.07,6.92,3.26,13.67,5.03,20.87-1.78-1.47-3.3-2.71-5.23-4.3-1.71,4.15-2.97,8.1-4.91,11.69-3.91,7.24-5.14,14.36-1.68,22.25,1.71,3.9,2.23,8.34,3.12,12.57.84,4.03,1.46,8.11,2.16,12.06-6.63-14.94-13.51-29.7-19.75-44.73-7.71-18.56-16.38-36.83-19.72-56.91-.67-4-1-8.06-1.5-12.22-1.52.55-2.45.89-3.82,1.39,7.17-14.45,8.2-29.67,10.93-44.53,2.03-11.03-2.81-17.84-11.06-24.04-6.57-4.94-13.1-3.66-19.94-2.04-3.87.92-7.63,2.83-11.51,3.02-7.11.35-14.27-.28-21.4-.4-4.87-.08-6.64,2.86-4.03,7.02,1.1,1.76,2.76,3.71,4.59,4.37,4.61,1.66,9.57,3.93,14.19,3.54,4.64-.39,9.03-3.7,13.5-5.72.98,6.96,7.73,7.36,12.87,8.45-2.96,5.03-5.82,9.91-8.71,14.82-.53-1.62-1.25-3.85-1.97-6.08l-1.54-.46c-1.7,3.96-4.07,7.78-4.94,11.91-1.24,5.91-4.35,9.57-9.91,11.3-2.02.63-4.16.87-6.59,1.36,4.22,12.4,12.31,20.4,25.76,23.69-2.57,1.14-4.12,1.83-4.96,2.2,3.22,13.38,6.62,26.23,9.39,39.21,6.17,28.96,11.75,58.05,18.11,86.97,2.92,13.27,12.47,22.2,22.64,30.87.42-1.36.66-2.14,1.03-3.36,2.52,3.34,4.61,6.35,6.95,9.14,3.74,4.45,7.04,3.97,9.35-1.35,7.07-16.32,14.24-32.6,21.03-49.04,2.89-6.99,4.95-14.32,7.39-21.49l-.94-.34c-8.85,20.1-17.7,40.19-26.55,60.29-.45-.2-.9-.41-1.35-.61,4.86-17.82,8.96-35.74,7.4-54.69,1.14,2.71,2.28,5.43,3.72,8.85,7.02-16.3,14.29-31.67,10.66-48.4,4.87-1.77,9.71-2.54,13.26-5.09,3.53-2.54,5.77-6.87,8.61-10.45,7.24,5.32,15.13,16.94,16.61,25.78-2.73-3.2-4.81-5.64-6.89-8.08,1.81,14.62,6.81,27.37,17.58,37.42-3.63-1.89-7.25-3.78-11.22-5.85-.27,10.4,3.9,18.64,9.57,26.54-2.73-1.49-5.46-2.99-8.19-4.48-.55.37-1.09.74-1.64,1.12,2.69,6.77,5.37,13.54,7.94,20.01-1.86-1.08-4.22-2.46-6.64-3.87-3.01,9.15,2.12,15.58,8.09,23.11-3.74-1.86-6.02-2.99-9.07-4.5.25,4.88.46,8.95.66,12.9,13.07,2.16,20.97,1.48,20.8-1.4,3.07.85,6.19,2.38,9.36,2.48,17.49.57,34.99.73,52.48,1.18,7.98.21,15.98.9,23.07-3.96.12-.08.5.2.88.36-1.34,1.13-2.62,2.2-4.81,4.04h25.26c.37-5.07.72-9.94,1.14-15.66-3.43,1.59-5.87,2.72-9.29,4.3,5.33-7.07,10.93-12.9,8.26-22.1-2.61,1.18-4.95,2.24-7.28,3.29ZM72.38,361.27c-1.68,2.54-3.44,4.04-3.72,5.79-2.03,12.91-2.33,25.81,1.42,38.71-1.12-.27-2.13-.51-3.35-.8-.59,5.42-.96,10.57-1.76,15.65-.5,3.17-1.79,6.98-5.59,6.36-2.18-.36-4.59-3.34-5.66-5.7-2.46-5.43-4-11.27-6.28-16.79-.62-1.51-2.52-2.49-4.5-4.33.99-9.11-3.43-17.96-7.76-26.78-.53-1.07-2.49-1.44-3.98-2.24-.22-11.07-2.63-22.09-7.34-32.49-2.76-6.09-8.51-9.52-12.34-8.26-3.78,1.25-5.57,6.64-4.46,13.64,1.86,11.71,7.06,21.69,15.7,29.82-3.97,3.76.44,14.62,12.73,31.63-1.32-.06-2.51-.11-5.22-.23,4.6,9.93,8.78,18.97,12.95,27.98-1.95.75-8.33-3.23-5.78,4.65-5.21.33-10.27.21-15.12,1.13-2.79.53-5.96,2.18-7.74,4.34-5.46,6.58-3.77,13.26,4.59,20.97.63-.74,1.26-1.47,1.22-1.43,3.66,6.32,6.84,12.94,11.11,18.74,2.43,3.3,6.37,5.84,10.14,7.69,4.32,2.13,9.42-.82,10.12-5.02.92-5.54-4.94-13.98-10.17-16-5.02-1.95-10.11-4.31-14.33-7.58-4.67-3.61-5.61-10.3-3.41-15.02,2.45-5.26,6.95-5.87,12.14-5.71,14.44.44,28.76-.62,43.05-5.32.41-8.83.93-18.11,1.17-27.4.03-.97-1.57-1.99-2.31-2.86,1.08-2.48,3.07-5.23,3.41-8.18,1.03-8.92,1.57-17.9,1.94-26.87.07-1.83-1.47-3.72-2.49-6.12,4.33-10.55,8.06-22.07,5.89-34.57-1.07-6.19-4.24-9.22-8.82-9.21-4.54,0-8.22,3.21-8.9,9.15-1.32,11.5-.7,22.91,3.44,32.63Z"/>
      <path class="cls-4" d="M161.85,203.79c-6.08.59-12.17,1.1-18.24,1.8-8.66,1.01-13.06-2.68-11.93-11.2,1.79-13.52-2.04-26.03-5.59-38.71-3.25-11.59-5.75-23.33-3.47-35.47.72-3.86,1.89-7.64,2.57-11.53-4.58,7.37-6.76,15.63-6.23,24.06.73,11.58,2.32,23.15,4.31,34.59,1.65,9.51,2.03,18.78-.34,28.19-1.93,7.66-3.45,15.43-5.3,23.82-2.28-5.96-2.19-11.62-.39-16.84,4.67-13.57.08-32.6-5.53-44.11.65,4.42,1.57,8.81,1.89,13.25.33,4.62.07,9.28.07,14.54-.67-.74-1.16-1.06-1.34-1.5-18.72-46.15-12.51-90.75,24.89-127,29.67-28.75,65.51-45.25,106.43-50.25,20.05-2.45,39.45,1.85,58.36,8.33,26.51,9.08,50.44,22.65,70.27,42.62,34.5,34.76,42.62,75.43,26,121.26-.78,2.16-1.7,4.26-2.55,6.39-.57-.08-1.13-.16-1.7-.24.99-9.84,1.97-19.69,3.03-30.19-5.46,15.35-10.15,30.02-5.83,46.16,1.45,5.43.96,11.37,1.36,17.08-.64.08-1.28.15-1.92.23-.4-2.6-.59-5.26-1.24-7.79-9.85-38.6-4.99-29.5-.34-64.85,1.83-13.92,1.07-27.6-6.57-40.17-.26.24-.59.47-.56.53,7.26,15.45,5.33,31.14,1.17,46.87-3.23,12.2-7.53,24.12-6.47,37.15,1.12,13.73-1.76,16.07-15.47,14.3-4.76-.61-9.57-.84-14.43-.82,10.11,1.41,19.59,4.36,27.67,10.74,16.44,12.99,21.67,36.1,12.93,57.67-8.23,20.32-21.16,37.12-38.03,51.15-7.85,6.53-14.8,14.16-22.15,21.29.33.36.67.72,1,1.07l18.32-14.13c.32.34.63.68.95,1.02-8.73,20.08-20.34,38.26-36.3,53.6,6.74-10.77,13.48-21.54,20.22-32.31-.34-.22-.68-.43-1.02-.65-6.46,8.54-12.91,17.08-19.37,25.62-.4-.28-.79-.56-1.19-.83l6.77-11.2c-.2-.16-.41-.32-.61-.48-2.59,2.8-5.19,5.6-8.44,9.12v-5.87c-8.5,20.79-13.93,41.45-28.68,57.5,3.7-8.38,7.4-16.75,11.1-25.13-.15-.06-.3-.12-.45-.18-6.4,10.35-12.79,20.7-19.19,31.05-.53-.31-1.06-.62-1.6-.93,1.75-3.44,3.5-6.88,5.25-10.33-.25-.15-.5-.29-.74-.44-3.06,3.55-5.93,7.29-9.22,10.61-5.51,5.54-13.44,5.53-19.11.14-2.04-1.94-3.86-4.14-5.64-6.34-1.66-2.05-3.12-4.25-5.36-6.01,2.12,4.23,4.23,8.45,6.35,12.68-8.48-7.54-13.29-17.68-18.85-27.28-.38.18-.76.37-1.15.55,3.35,7.39,6.7,14.78,10.05,22.17-15.01-16.11-20.45-37.05-28.92-57.7v5.6c-3.03-3.24-5.48-5.86-7.93-8.48-.23.12-.46.25-.68.37,2.01,3.49,4.02,6.98,6.02,10.47-.41.28-.82.56-1.22.85-6.75-9.08-13.49-18.16-20.24-27.25-.3.17-.61.35-.91.52,7.19,11.63,14.39,23.27,21.08,34.09-9.62-6.18-32.19-39.56-35.18-54.65,6.13,4.83,12.26,9.65,18.93,14.91-5.84-9.13-13.08-16.19-21.03-22.52-17.04-13.56-29.82-30.29-38.33-50.32-4.35-10.26-5.56-20.97-3.68-31.83,3.52-20.25,19.73-34.72,40.94-37.12.96-.11,1.92-.18,2.88-.26-.03-.35-.07-.7-.1-1.04ZM184.95,321.79c16.11,4.22,31.23,2.2,46.27-6.08-.37,3.12-.62,5.17-.86,7.21,1.94-2.53,3.44-5.28,4.36-8.21,6.46-20.62-2.25-49.9-19.64-64.01-23.81-19.33-50.66-20.76-78.75-11.69-2.94.95-6.19,3.9-7.37,6.73-2.87,6.88-1.69,13.91,2.24,21.7-1.54-11.76-.73-15.34,3.7-17.9-1.24,20.31,6.78,36.68,21.33,50.15,14.56,13.48,31.82,19.89,51.89,18.5-.02.55-.04,1.1-.07,1.65-7.59.64-15.19,1.28-23.11,1.95ZM323.03,321.17c-3.83,0-7.67.25-11.47-.07-3.73-.32-7.4-1.23-11.1-1.88,20,.33,37.18-5.95,51.76-19.39,14.67-13.54,22.76-29.98,22.17-50.64,1.69,2.29,3.08,4.64,3.52,7.16.49,2.81.11,5.78.11,8.92,7.52-13.36,3.12-25.21-11.19-27.99-10.69-2.08-21.86-3.7-32.62-2.9-32.73,2.43-63.21,24.4-62.17,69.9.15,6.54,1.46,13.04,6.2,19.01-.29-2.83-.49-4.89-.77-7.69,14.98,8.5,30.02,10.38,45.57,5.58ZM193.98,189.04c4.27.53,8.67.57,12.79,1.67,12.67,3.38,25.13,7.61,37.89,10.57,5.77,1.34,12.38,1.77,18.05.36,17.43-4.32,34.04-11.91,52.36-12.78-11.41-2.94-22.87-1.78-33.43,1.96-18.37,6.51-35.98,6.55-54.36.06-10.6-3.75-22.06-4.78-33.3-1.83ZM223.62,251.92c-.49-1.26-.55-1.58-.73-1.82-.48-.67-.99-1.34-1.53-1.97-14.94-17.29-34.11-24.76-56.65-24.31-10.26.21-20.23,1.81-29.16,7.31-2.15,1.33-3.97,3.2-6.55,5.32,34.9-12.68,66.18-10.57,94.61,15.47ZM378.8,236.27c-16.44-22.44-77.83-13.53-92.75,14.49,28.16-24.95,59.37-27.05,92.75-14.49ZM285.07,176.56c-4.81.67-9.74.88-14.41,2.09-10.89,2.84-21.6,2.83-32.5.04-4.75-1.21-9.74-1.43-14.63-2.1,31.19,11.14,30.64,11.46,61.54-.04ZM277.95,386.4c-.22-1.19-.58-3.12-1.03-5.52-4.29,4.1-5.44,3.57-10.46,2.96-7.57-.93-15.36-1.31-22.91-.54-4.46.45-8.52,2.2-12.51-2.64-.31,2.75-.51,4.48-.64,5.64,6.13.56,11.84,1.23,17.58,1.55,4.17.23,8.38.14,12.56-.09,5.67-.3,11.33-.87,17.41-1.36ZM270.09,55.77c2.45,8.02.21,12.46-6.04,13.27-7.01.91-14,1.94-21.01,2.84-1.64.21-3.34.26-4.97.05-4.58-.59-6.42-3.09-5.39-7.64.52-2.31,1.73-4.46,2.76-7.01-4.68,3.66-6.62,8.59-5.05,12.61,1.86,4.76,6.03,5.22,10.32,5.27,1.66.02,3.34-.05,4.98-.29,6.19-.91,12.49-1.44,18.49-3.07,3.02-.82,6.34-3.14,7.99-5.75,1.9-2.99,1.33-6.88-2.07-10.28ZM237.02,247.31c-2.91-19.91-19.62-36.21-38.66-36.65,19.71,6.28,31.12,19.48,38.66,36.65ZM124.06,267.23c4.46,20.75,16.71,36.34,33.17,49.09-13.33-14.8-25.61-30.31-33.17-49.09ZM309.29,210.34c-19.38,2.5-36.83,19.35-37.06,35.07q14.99-23.23,37.06-35.07ZM384.34,267.35c-7.89,18.48-20.08,34.06-33.21,48.99,16.11-12.92,28.36-28.46,33.21-48.99ZM322.18,41.06c-5.15.71-6.63,3.31-6.43,7.1.42,8.17,12.62,18.1,20.62,16.85,4.21-.66,5.1-2.74,2.94-6.92-.92,4.2-2.81,5.71-6.54,3.6-4.51-2.55-8.78-5.91-12.29-9.72-3.81-4.14-3.12-6.7,1.7-10.91ZM323.83,73.14c.21,7.19-7.36,14.54-16.5,16.22-2.31.43-5.25.35-7.16-.77-1.94-1.13-2.98-3.83-4.24-5.61-.65,7.04,4.85,12.1,12.31,9.5,5.6-1.95,10.67-5.83,15.46-9.52,2.85-2.2,2.89-5.8.14-9.82ZM258.13,100.33c-.39.19-.78.39-1.16.58,1.13,2.04,1.79,4.64,3.46,6.02,4.93,4.07,16.56,2.52,20.62-2.36,3.32-3.99,2.15-8.74-1.45-10.35,0,2.13.96,5.32-.18,7.31-3.81,6.64-17.92,5.63-21.29-1.21ZM247.87,339.54c-3.44,2-6.84,3.55-9.64,5.84-1.05.86-1.49,4.02-.73,5.11.79,1.14,3.53,1.74,5.11,1.35,3.71-.92,6.42-7.01,5.26-12.3ZM261.1,339.7c-.44.47-.87.93-1.31,1.4-.21,4.5,1.81,8.17,5.7,10.37,1.35.77,3.79-.38,5.73-.66-.33-1.94.02-4.67-1.13-5.67-2.6-2.26-5.95-3.68-8.99-5.43ZM186.4,61.15c.1,8.29-13.97,15.92-20.62,11.05,1.81,1.78,3.91,3.77,6.15,3.94,6.45.47,11.68-2.33,15.07-7.92,1.36-2.24,2.47-4.84-.6-7.06ZM268.61,396.7h-28.79c5.67,4.72,24.39,4.5,28.79,0ZM215.77,98.52c-4.64-.25-8.19.52-10.48-.85-2.23-1.33-3.16-4.84-5.18-8.27,0,3.01-1.07,6.62.25,8.09,2.01,2.24,5.57,3.64,8.68,4.15,1.84.3,4.07-1.8,6.73-3.12ZM357.94,89.15c-4.24-.26-7.26.3-9.48-.78-2.29-1.12-3.8-3.85-6.07-6.34,0,1.58-.84,4.55.17,5.46,2.56,2.3,5.78,4.32,9.07,5.16,1.6.41,3.93-2.09,6.32-3.5ZM271.34,335.19c-.44.31-.87.63-1.31.94,4.32,7.3,8.64,14.61,13.62,23.04-1.15-10.57-8.24-16.47-12.31-23.98ZM223.88,357.21c.5.41,1.01.82,1.51,1.23l12.94-21.82c-.57-.33-1.14-.65-1.71-.98-4.24,7.19-8.49,14.38-12.73,21.57ZM181.57,100.48c-.3-.3-.59-.61-.89-.91-5.46,3.52-8.99,2.1-11.45-4.26-.32,2.34-.72,5.48.62,6.69,1.75,1.59,4.91,2.24,7.41,2.14,1.49-.06,2.88-2.36,4.31-3.66ZM232.36,33.65c-4.48,6.63-14.59,9.04-18.37,4.38.12,3.99,1.28,5.05,5.31,4.89,8.66-.35,13.32-3.65,13.06-9.27ZM288.41,28.52c.96-1.68,1.53-2.67,2.3-4.03-4.47,2.08-5.14,4.28-1.92,6.33,3.01,1.92,6.47,3.27,9.9,4.32,1.42.44,3.27-.55,4.19-.74-4.72-1.92-9.39-3.82-14.47-5.88ZM178.9,40.83c3.91,2.5,7.98,1.8,11.74-2.02,2.58-2.62,2.67-3.42.75-6.38-1.17,5.18-5.03,7.77-12.49,8.4ZM261.06,20.14c-2.35,1.23-4.22,2.8-6.28,3.14-2.21.37-4.62-.42-7.08-.73,1.01,4.47,4.79,3.93,8.06,3.26,2.98-.61,6.21-1.76,5.31-5.67ZM267.81,139.56c-.51,4.24.28,6.93,4.36,6.73,3.57-.17,5.77-2.02,5.19-6.23-4.69,5.25-6.1,5.26-9.55-.49ZM297.27,57.96c-1.69,1.18-3.07,2.86-4.63,3.03-1.55.18-3.27-1.14-5.1-1.88.34,3.84,2.74,4.92,5.83,4.39,2.88-.5,4.59-2.27,3.9-5.54ZM303.71,115.08c-.07,3.83,1.97,5.57,5.17,5.47,3.2-.1,5.23-1.84,4.63-5.7-4.29,4.36-5.33,4.39-9.8.22ZM238.13,119.21c-.74,4.51,1.1,6.51,3.98,6.51,1.72,0,3.44-1.91,5.16-2.96-.27-.47-.54-.95-.82-1.42-3.32,3.17-5.93,2.32-8.33-2.14ZM283.38,389.93c2.11-5.79,1.27-8.16-3.16-10.19,1.02,3.27,2.03,6.54,3.16,10.19ZM248.35,409.58h12.31c-4.99-3.71-8.33-3.66-12.31,0ZM225.18,390.19c1.22-4.06,2.2-7.32,3.48-11.59-4.26,3.4-5.87,6.48-3.48,11.59ZM196.06,122c-.06-.72-.11-1.44-.17-2.16-3.67,2.56-5.54,1.06-7.05-2.38-.05,2.23.27,4.83,1.39,5.23,1.65.59,3.86-.38,5.83-.68Z"/>
      <path class="cls-4" d="M310.53,656.55c2.34-1.06,4.67-2.11,7.28-3.29,2.67,9.19-2.93,15.03-8.26,22.1,3.42-1.58,5.86-2.71,9.29-4.3-.42,5.72-.77,10.59-1.14,15.66h-25.26c2.2-1.84,3.47-2.91,4.81-4.04-.39-.17-.76-.45-.88-.36-7.09,4.86-15.09,4.17-23.07,3.96-17.49-.45-34.99-.6-52.48-1.18-3.17-.1-6.29-1.63-9.36-2.48.17,2.88-7.73,3.56-20.8,1.4-.2-3.95-.41-8.02-.66-12.9,3.05,1.51,5.32,2.64,9.07,4.5-5.98-7.53-11.11-13.97-8.09-23.11,2.42,1.41,4.78,2.78,6.64,3.87-2.57-6.47-5.26-13.24-7.94-20.01.55-.37,1.09-.74,1.64-1.12,2.73,1.49,5.46,2.99,8.19,4.48-5.67-7.9-9.84-16.14-9.57-26.54,3.97,2.07,7.59,3.96,11.22,5.85-10.77-10.05-15.77-22.8-17.58-37.42,2.08,2.44,4.16,4.88,6.89,8.08-1.48-8.84-9.37-20.47-16.61-25.78-2.83,3.58-5.08,7.91-8.61,10.45-3.56,2.55-8.39,3.32-13.26,5.09,3.63,16.73-3.64,32.1-10.66,48.4-1.44-3.42-2.58-6.13-3.72-8.85,1.56,18.95-2.54,36.86-7.4,54.69.45.2.9.41,1.35.61,8.85-20.1,17.7-40.19,26.55-60.29l.94.34c-2.44,7.18-4.5,14.51-7.39,21.49-6.8,16.44-13.96,32.72-21.03,49.04-2.31,5.32-5.61,5.81-9.35,1.35-2.34-2.79-4.43-5.8-6.95-9.14-.37,1.22-.61,2-1.03,3.36-10.17-8.67-19.72-17.61-22.64-30.87-6.36-28.92-11.95-58.01-18.11-86.97-2.76-12.99-6.16-25.84-9.39-39.21.84-.37,2.39-1.06,4.96-2.2-13.45-3.29-21.54-11.3-25.76-23.69,2.43-.49,4.58-.73,6.59-1.36,5.56-1.74,8.67-5.39,9.91-11.3.87-4.13,3.24-7.95,4.94-11.91l1.54.46c.72,2.23,1.44,4.46,1.97,6.08,2.89-4.91,5.75-9.79,8.71-14.82-5.14-1.09-11.89-1.49-12.87-8.45-4.47,2.02-8.86,5.33-13.5,5.72-4.62.39-9.58-1.88-14.19-3.54-1.84-.66-3.49-2.61-4.59-4.37-2.6-4.16-.84-7.11,4.03-7.02,7.14.12,14.29.76,21.4.4,3.88-.19,7.64-2.1,11.51-3.02,6.84-1.63,13.37-2.9,19.94,2.04,8.25,6.21,13.09,13.01,11.06,24.04-2.73,14.86-3.76,30.08-10.93,44.53,1.37-.5,2.3-.84,3.82-1.39.5,4.16.84,8.22,1.5,12.22,3.34,20.08,12.01,38.35,19.72,56.91,6.24,15.03,13.13,29.79,19.75,44.73-.7-3.94-1.32-8.02-2.16-12.06-.89-4.23-1.41-8.67-3.12-12.57-3.46-7.89-2.23-15.01,1.68-22.25,1.94-3.59,3.2-7.54,4.91-11.69,1.93,1.59,3.44,2.83,5.23,4.3-1.78-7.21-3.97-13.95-5.03-20.87-1.92-12.46-.54-24.62,5.92-35.76,9.72-16.75,29.11-22.84,46.64-14.77,2.24,1.03,4.47,2.08,7.8,3.63-1.83-2.88-3.09-4.86-4.82-7.57,8.88-2.88,17.5-5.68,26.45-8.58-1.01-.8-2.07-1.64-3.4-2.69,3.32-4.13,6.62-8.23,10.4-12.94,1.71,3.15,3.15,5.8,4.58,8.44.29-.07.59-.13.88-.2-.49-7.18-.83-14.38-1.5-21.54-.67-7.1-1.68-14.16-2.55-21.24.45-.11.9-.22,1.34-.34,2.52,9.13,5.05,18.26,7.54,27.27,3.35-2.55.75-12.61,10.44-9.4,2.35-4.6,3.72-11.49,10.59-11.24,6.4.23,8,6.64,10.09,11.66,4.41-2.07,4.81-5.09,10.43,9.16,2.4-8.83,4.89-17.97,7.37-27.11l.95.26c-1.27,14.35-2.54,28.71-3.81,43.06.28.1.57.19.85.29,1.52-2.82,3.04-5.64,4.82-8.94,3.28,4.55,6.28,8.72,9.47,13.15-.74.71-1.51,1.44-2.56,2.44,8.88,2.8,17.6,5.54,26.73,8.42-1.67,2.54-2.99,4.56-4.76,7.24,4.66-1.87,8.44-4.07,12.51-4.92,26.37-5.48,48.22,11.6,48.02,38.45-.09,11.83-2.95,23.64-4.56,35.46-.11.8-.26,1.58-.5,3,1.62-1.18,2.73-1.98,4.69-3.4,1.57,25.64,2.39,50.28-8.81,74.75,2.54-1.9,4.14-3.1,6.08-4.54.37,1.33.87,2.24.84,3.14-.46,12.78-.89,25.57-1.63,38.34-.08,1.42-2.22,3.98-3.11,3.86-3.06-.43-7,2.54-9.18-2.24-1.77-3.88-3.68-3.86-5.71-.11-2.8,5.18-7.43,1.89-11.16,2.33-.85.1-2.65-2.86-3.03-4.62-2.89-13.45-2.31-26.99-.9-41.35,1.86,1.61,3.06,2.65,5,4.33-.39-1.76-.43-2.79-.84-3.66-5.7-12.05-5.51-24.88-4.9-37.72.33-6.98,1.07-13.95,1.7-20.91.38-4.21,1.07-8.31,5.63-9.51-2.29-4.66-4.54-9.22-7.13-14.47-9.78,6.12-16.1,15.24-18.83,27.13,2.03-2.56,4.06-5.11,6.09-7.67-2.95,14.07-3.4,29.17-17.12,38.51,3.57-1.48,7.14-2.96,11.19-4.65.08,9.94-4.16,17.6-9.5,25.23,2.63-1.48,5.25-2.97,8.21-4.63,2.47,8.75-2.1,14.81-6.6,21.41ZM128.59,661.96c-7.99,4.52-10.58,4.23-16.91-1.17-8.01-6.82-12.13-16.08-15.98-25.49-2.19-5.34-4.19-10.76-6.28-16.14,1.18,8.83,3.45,17.3,5.75,25.75,2.96,10.89,9.84,19.09,18.21,26.18,6.19,5.24,10.82,3.92,13.66-3.66.56-1.5.89-3.1,1.55-5.47ZM239.26,467.83c-.48,12.01.64,23.73,6.82,34.21,4.67,7.92,11.53,7.93,16.3.06,6.2-10.22,7.21-21.69,7-33.35-1.49,3.84-2.38,7.84-3.69,11.69-1.97,5.8-3.8,11.72-6.51,17.18-3.3,6.64-6.48,6.56-9.87.07-1.98-3.8-3.56-7.87-4.89-11.95-1.93-5.9-3.47-11.93-5.17-17.91ZM264.74,613.57c.21-.32.43-.65.64-.97-.65-.69-1.21-1.49-1.95-2.06-5.35-4.21-7.78-9.37-7.03-16.46.68-6.49.15-13.1.15-19.66-.53-.02-1.07-.04-1.6-.06-3.32,13.12.66,28.27-11.52,38.94.46.3.91.61,1.37.91,3.21-2.41,6.41-4.81,9.44-7.08,3.37,2.07,6.93,4.25,10.5,6.43ZM359.99,513.48c2.13,7.11,5,14.39,6.39,21.95,1.38,7.53,1.27,15.34,1.81,22.85,5.57-13.56,1.38-36.6-8.19-44.8ZM150.08,512.36c-10.95,8.5-15.66,34.39-9.38,45.61-.41-15.65,1.3-30.58,9.38-45.61ZM305.91,510.32c-11.69-.55-19.04-5.91-23.75-16.15-1.15,8.04,1.25,13.6,6.83,16.71,5.21,2.9,10.5,3.37,16.92-.56ZM226.48,497.58c-2.58,1.96-6.06,5.13-10.01,7.47-3.9,2.31-8.3,3.8-12.45,5.63,11.08,5.21,22.62-2.68,22.46-13.1ZM244.94,532.61c-.19.31-.37.63-.56.94,3.55,4.14,7.1,8.29,10.8,12.6,3.8-4.02,7.32-7.76,10.84-11.49-.27-.35-.54-.69-.81-1.04-3.38,1.86-6.75,3.72-9.58,5.28-3.8-2.24-7.24-4.27-10.69-6.3ZM253.25,650.76c2.71,2.2.8,5.76,1.12,8.53.37,3.27.09,6.61.09,9.91.34,0,.69-.01,1.03-.02.32-2.54.63-5.09.97-7.79,1.31.45,2.1.73,1.63.56-.65-8.66-1.31-17.6-1.98-26.53-.25.05-.5.1-.75.14-.71,5.1-1.41,10.21-2.1,15.19ZM62.37,500.18c-.21,4.98,2.23,8.98,6.71,11.83,3.9,2.47,6.94,2.61,9.29,1.26-5.08-4.15-10.47-8.57-16.01-13.09ZM81.71,522.75c-.41.02-.82.04-1.23.07-.4,11.77,5.68,22.04,9.01,32.94-2.59-11-5.18-22.01-7.77-33.01ZM72.48,526.05c-.19.21-.38.42-.58.64,3.41,9.28,6.82,18.56,10.23,27.84-1.49-7.68-3.31-15.26-5.61-22.69-.66-2.14-2.67-3.87-4.05-5.78ZM335.46,530.98c-6.02,5.89-6.64,15.21-1.57,20.08.51-6.52,1.05-13.47,1.57-20.08ZM172.96,530.87c.54,6.6,1.11,13.63,1.65,20.31,5.03-5.6,4.3-14.55-1.65-20.31Z"/>
      <path class="cls-4" d="M72.38,361.27c-4.14-9.73-4.76-21.13-3.44-32.63.68-5.94,4.36-9.15,8.9-9.15,4.58,0,7.74,3.02,8.82,9.21,2.17,12.49-1.56,24.01-5.89,34.57,1.03,2.4,2.57,4.29,2.49,6.12-.36,8.97-.9,17.96-1.94,26.87-.34,2.94-2.33,5.7-3.41,8.18.74.87,2.33,1.89,2.31,2.86-.24,9.29-.76,18.57-1.17,27.4-14.3,4.7-28.61,5.76-43.05,5.32-5.19-.16-9.68.45-12.14,5.71-2.2,4.72-1.26,11.41,3.41,15.02,4.22,3.26,9.31,5.63,14.33,7.58,5.22,2.03,11.09,10.46,10.17,16-.7,4.19-5.79,7.15-10.12,5.02-3.77-1.86-7.71-4.39-10.14-7.69-4.27-5.8-7.45-12.42-11.11-18.74.04-.05-.59.69-1.22,1.43-8.36-7.72-10.05-14.39-4.59-20.98,1.79-2.15,4.95-3.81,7.74-4.34,4.86-.93,9.91-.8,15.12-1.13-2.55-7.88,3.83-3.9,5.78-4.65-4.17-9.01-8.35-18.05-12.95-27.98,2.71.12,3.9.17,5.22.23-12.29-17.01-16.7-27.87-12.73-31.63-8.64-8.13-13.84-18.11-15.7-29.82-1.11-7,.67-12.39,4.46-13.64,3.83-1.27,9.58,2.17,12.34,8.26,4.71,10.4,7.12,21.42,7.34,32.49,1.48.79,3.45,1.16,3.98,2.24,4.33,8.81,8.74,17.66,7.76,26.78,1.98,1.84,3.88,2.82,4.5,4.33,2.28,5.52,3.82,11.36,6.28,16.79,1.07,2.36,3.48,5.35,5.66,5.7,3.8.62,5.09-3.19,5.59-6.36.8-5.08,1.17-10.23,1.76-15.65,1.23.29,2.23.53,3.35.8-3.75-12.9-3.45-25.81-1.42-38.71.27-1.74,2.03-3.25,3.72-5.79Z"/>
      <path class="cls-2" d="M184.95,321.79c7.92-.67,15.51-1.31,23.11-1.95.02-.55.04-1.1.07-1.65-20.07,1.38-37.33-5.02-51.89-18.5-14.54-13.46-22.57-29.84-21.33-50.15-4.43,2.56-5.25,6.14-3.7,17.9-3.93-7.79-5.11-14.82-2.24-21.7,1.18-2.83,4.43-5.78,7.37-6.73,28.09-9.07,54.94-7.65,78.75,11.69,17.38,14.11,26.09,43.4,19.64,64.01-.92,2.93-2.41,5.68-4.36,8.21.24-2.04.49-4.09.86-7.21-15.03,8.28-30.15,10.29-46.27,6.08ZM169.69,264.36c4.34-1.01,7.37-1.3,10.06-2.42,6.74-2.8,7.6-9.3,1.67-13.49-6.98-4.92-14.72-5.9-22.61-2.34-6.13,2.76-7.23,8.71-1.91,12.52,3.98,2.85,9.08,4.13,12.8,5.73ZM201.3,309.65c-20.41-5.63-37.02-15.09-50.63-31.31,5.45,16.11,32.21,33.06,50.63,31.31ZM202.39,257.2c-2.46-1.94-3.89-3.94-5.24-3.89-1.45.05-2.83,2.04-4.25,3.18,1.28,1.46,2.34,3.66,3.93,4.14,1.09.33,2.91-1.7,5.56-3.43ZM220.26,308.23c-.05.26-.1.52-.15.78,2.58-.73,5.6-.86,7.59-2.36,1.7-1.28,2.22-4.14,3.67-7.16-4.44,3.49-7.78,6.11-11.11,8.73Z"/>
      <path class="cls-2" d="M323.03,321.17c-15.55,4.8-30.59,2.92-45.57-5.58.28,2.8.49,4.85.77,7.69-4.74-5.97-6.05-12.47-6.2-19.01-1.03-45.51,29.44-67.47,62.17-69.9,10.76-.8,21.94.83,32.62,2.9,14.31,2.78,18.7,14.63,11.19,27.99,0-3.14.38-6.1-.11-8.92-.44-2.52-1.82-4.87-3.52-7.16.59,20.65-7.49,37.1-22.17,50.64-14.57,13.44-31.76,19.72-51.76,19.39,3.7.65,7.38,1.56,11.1,1.88,3.8.33,7.65.07,11.47.07ZM305.89,272.48c9.07-.87,15.24-3.31,19.72-9.01,4.87-6.2,2.41-12.38-5.45-13.04-7.33-.62-13.67,2.14-18.72,7.48-2.56,2.71-5.13,6.24-2.63,9.71,1.85,2.58,5.52,3.85,7.08,4.86ZM358.09,279.04c-12.99,14.95-29.53,24.37-48.05,30.73,21.03-2.39,37.58-11.82,48.05-30.73ZM337.96,254.82c1.94-2.52,4.07-4.11,3.87-5.31-.27-1.59-2.35-2.88-3.65-4.31-1.24,1.29-3.31,2.49-3.49,3.91-.17,1.37,1.61,2.99,3.27,5.7ZM278.56,300.64c-.42,6.11,4.41,9.7,9.4,7.28-2.94-2.27-6.19-4.79-9.4-7.28Z"/>
      <path class="cls-2" d="M193.98,189.04c11.25-2.94,22.71-1.91,33.3,1.83,18.37,6.5,35.99,6.45,54.36-.06,10.56-3.74,22.02-4.9,33.43-1.96-18.32.88-34.93,8.46-52.36,12.78-5.67,1.41-12.28.98-18.05-.36-12.76-2.96-25.22-7.2-37.89-10.57-4.12-1.1-8.52-1.14-12.79-1.67Z"/>
      <path class="cls-2" d="M223.62,251.92c-28.44-26.03-59.71-28.14-94.61-15.47,2.58-2.12,4.4-3.99,6.55-5.32,8.92-5.5,18.9-7.1,29.16-7.31,22.53-.45,41.71,7.02,56.65,24.31.54.63,1.05,1.29,1.53,1.97.17.24.23.56.73,1.82Z"/>
      <path class="cls-2" d="M378.8,236.27c-33.39-12.56-64.6-10.47-92.75,14.49,14.93-28.01,76.31-36.93,92.75-14.49Z"/>
      <path class="cls-2" d="M285.07,176.56c-30.9,11.5-30.35,11.18-61.54.04,4.88.67,9.88.89,14.63,2.1,10.9,2.78,21.61,2.79,32.5-.04,4.67-1.22,9.6-1.43,14.41-2.09Z"/>
      <path class="cls-2" d="M277.95,386.4c-6.08.49-11.73,1.05-17.41,1.36-4.18.22-8.39.32-12.56.09-5.73-.32-11.45-.99-17.58-1.55.13-1.16.33-2.89.64-5.64,4,4.84,8.05,3.09,12.51,2.64,7.56-.77,15.35-.38,22.91.54,5.01.61,6.16,1.14,10.46-2.96.45,2.4.8,4.33,1.03,5.52Z"/>
      <path class="cls-2" d="M270.09,55.77c3.4,3.4,3.97,7.29,2.07,10.28-1.66,2.61-4.97,4.94-7.99,5.75-6,1.63-12.3,2.16-18.49,3.07-1.64.24-3.32.31-4.98.29-4.29-.05-8.46-.51-10.32-5.27-1.57-4.02.38-8.95,5.05-12.61-1.03,2.55-2.23,4.7-2.76,7.01-1.03,4.55.81,7.05,5.39,7.64,1.63.21,3.33.16,4.97-.05,7.01-.89,14-1.93,21.01-2.84,6.25-.81,8.49-5.25,6.04-13.27Z"/>
      <path class="cls-2" d="M237.02,247.31c-7.54-17.17-18.94-30.37-38.66-36.65,19.04.44,35.74,16.73,38.66,36.65Z"/>
      <path class="cls-1" d="M124.06,267.23c7.56,18.78,19.84,34.29,33.17,49.09-16.46-12.75-28.71-28.34-33.17-49.09Z"/>
      <path class="cls-2" d="M309.29,210.34q-22.06,11.84-37.06,35.07c.23-15.72,17.68-32.57,37.06-35.07Z"/>
      <path class="cls-1" d="M384.34,267.35c-4.85,20.54-17.1,36.07-33.21,48.99,13.13-14.94,25.32-30.51,33.21-48.99Z"/>
      <path class="cls-2" d="M322.18,41.06c-4.82,4.21-5.52,6.77-1.7,10.91,3.51,3.81,7.78,7.16,12.29,9.72,3.72,2.11,5.62.59,6.54-3.6,2.16,4.18,1.27,6.27-2.94,6.92-8,1.25-20.2-8.68-20.62-16.85-.2-3.79,1.28-6.39,6.43-7.1Z"/>
      <path class="cls-2" d="M323.83,73.14c2.75,4.02,2.71,7.62-.14,9.82-4.79,3.69-9.86,7.57-15.46,9.52-7.45,2.6-12.95-2.46-12.31-9.5,1.27,1.78,2.3,4.48,4.24,5.61,1.91,1.11,4.85,1.19,7.16.77,9.14-1.68,16.71-9.03,16.5-16.22Z"/>
      <path class="cls-2" d="M258.13,100.33c3.37,6.84,17.48,7.85,21.29,1.21,1.14-1.98.18-5.18.18-7.31,3.59,1.61,4.76,6.36,1.45,10.35-4.05,4.88-15.69,6.43-20.62,2.36-1.67-1.38-2.34-3.98-3.46-6.02.39-.19.78-.39,1.16-.58Z"/>
      <path class="cls-2" d="M247.87,339.54c1.16,5.29-1.55,11.38-5.26,12.3-1.58.39-4.31-.21-5.11-1.35-.76-1.09-.32-4.25.73-5.11,2.8-2.29,6.2-3.84,9.64-5.84Z"/>
      <path class="cls-2" d="M261.1,339.7c3.04,1.76,6.39,3.17,8.99,5.43,1.15,1,.8,3.73,1.13,5.67-1.94.27-4.38,1.43-5.73.66-3.89-2.2-5.9-5.87-5.7-10.37.44-.47.87-.93,1.31-1.4Z"/>
      <path class="cls-2" d="M186.4,61.15c3.07,2.22,1.96,4.82.6,7.06-3.4,5.59-8.62,8.39-15.07,7.92-2.24-.16-4.34-2.15-6.15-3.94,6.65,4.86,20.72-2.76,20.62-11.05Z"/>
      <path class="cls-2" d="M268.61,396.7c-4.4,4.5-23.12,4.72-28.79,0h28.79Z"/>
      <path class="cls-2" d="M215.77,98.52c-2.66,1.32-4.89,3.42-6.73,3.12-3.11-.51-6.67-1.91-8.68-4.15-1.32-1.47-.25-5.08-.25-8.09,2.02,3.44,2.95,6.95,5.18,8.27,2.29,1.36,5.84.59,10.48.85Z"/>
      <path class="cls-2" d="M357.94,89.15c-2.39,1.41-4.72,3.91-6.32,3.5-3.29-.84-6.51-2.86-9.07-5.16-1.01-.91-.17-3.88-.17-5.46,2.28,2.49,3.78,5.21,6.07,6.34,2.22,1.09,5.25.53,9.48.78Z"/>
      <path class="cls-2" d="M271.34,335.19c4.07,7.51,11.17,13.41,12.31,23.98-4.99-8.43-9.3-15.74-13.62-23.04.44-.31.87-.63,1.31-.94Z"/>
      <path class="cls-2" d="M223.88,357.21c4.24-7.19,8.49-14.38,12.73-21.57.57.33,1.14.65,1.71.98l-12.94,21.82c-.5-.41-1.01-.82-1.51-1.23Z"/>
      <path class="cls-2" d="M181.57,100.48c-1.43,1.3-2.82,3.6-4.31,3.66-2.5.11-5.66-.55-7.41-2.14-1.34-1.21-.94-4.35-.62-6.69,2.46,6.36,5.99,7.78,11.45,4.26.3.3.59.61.89.91Z"/>
      <path class="cls-1" d="M232.36,33.65c.25,5.62-4.4,8.92-13.06,9.27-4.03.16-5.19-.9-5.31-4.89,3.78,4.66,13.89,2.25,18.37-4.38Z"/>
      <path class="cls-1" d="M288.41,28.52c5.08,2.07,9.75,3.97,14.47,5.88-.92.19-2.77,1.17-4.19.74-3.43-1.05-6.89-2.4-9.9-4.32-3.22-2.05-2.55-4.25,1.92-6.33-.78,1.36-1.34,2.35-2.3,4.03Z"/>
      <path class="cls-1" d="M178.9,40.83c7.46-.63,11.31-3.23,12.49-8.4,1.92,2.96,1.83,3.76-.75,6.38-3.76,3.83-7.84,4.53-11.74,2.02Z"/>
      <path class="cls-1" d="M261.06,20.14c.9,3.91-2.33,5.07-5.31,5.67-3.27.67-7.05,1.21-8.06-3.26,2.47.3,4.87,1.09,7.08.73,2.07-.34,3.94-1.91,6.28-3.14Z"/>
      <path class="cls-2" d="M267.81,139.56c3.45,5.75,4.86,5.74,9.55.49.58,4.22-1.63,6.06-5.19,6.23-4.08.2-4.87-2.49-4.36-6.73Z"/>
      <path class="cls-2" d="M297.27,57.96c.69,3.27-1.02,5.05-3.9,5.54-3.09.54-5.48-.55-5.83-4.39,1.82.74,3.55,2.06,5.1,1.88,1.55-.18,2.94-1.85,4.63-3.03Z"/>
      <path class="cls-2" d="M303.71,115.08c4.47,4.17,5.51,4.14,9.8-.22.6,3.86-1.43,5.6-4.63,5.7-3.2.1-5.24-1.64-5.17-5.47Z"/>
      <path class="cls-2" d="M238.13,119.21c2.39,4.46,5.01,5.31,8.33,2.14.27.47.54.95.82,1.42-1.72,1.05-3.44,2.96-5.16,2.96-2.88,0-4.73-2-3.98-6.51Z"/>
      <path class="cls-2" d="M283.38,389.93c-1.13-3.65-2.15-6.92-3.16-10.18,4.44,2.02,5.27,4.4,3.16,10.18Z"/>
      <path class="cls-2" d="M248.35,409.58c3.98-3.66,7.32-3.71,12.31,0h-12.31Z"/>
      <path class="cls-2" d="M225.18,390.19c-2.39-5.1-.78-8.18,3.48-11.59-1.28,4.27-2.26,7.53-3.48,11.59Z"/>
      <path class="cls-2" d="M196.06,122c-1.97.31-4.18,1.28-5.83.68-1.11-.4-1.44-3-1.39-5.23,1.51,3.44,3.38,4.94,7.05,2.38.06.72.11,1.44.17,2.16Z"/>
      <path class="cls-2" d="M128.59,661.96c-.66,2.37-.98,3.97-1.55,5.47-2.84,7.58-7.47,8.9-13.66,3.66-8.37-7.09-15.25-15.29-18.21-26.18-2.3-8.46-4.58-16.92-5.75-25.75,2.09,5.38,4.1,10.8,6.28,16.14,3.85,9.41,7.97,18.67,15.98,25.49,6.33,5.4,8.92,5.69,16.91,1.17Z"/>
      <path class="cls-2" d="M239.26,467.83c1.7,5.98,3.25,12.01,5.17,17.91,1.33,4.09,2.91,8.15,4.89,11.95,3.39,6.49,6.57,6.58,9.87-.07,2.71-5.46,4.53-11.38,6.51-17.18,1.31-3.86,2.2-7.86,3.69-11.69.21,11.66-.81,23.13-7,33.35-4.77,7.88-11.63,7.86-16.3-.06-6.18-10.48-7.3-22.2-6.82-34.21Z"/>
      <path class="cls-2" d="M264.74,613.57c-3.56-2.18-7.12-4.37-10.5-6.43-3.03,2.27-6.24,4.68-9.44,7.08-.46-.3-.91-.61-1.37-.91,12.17-10.66,8.19-25.81,11.52-38.94.53.02,1.07.04,1.6.06,0,6.56.54,13.17-.15,19.66-.75,7.09,1.68,12.24,7.03,16.46.74.58,1.3,1.37,1.95,2.06-.21.32-.43.65-.64.97Z"/>
      <path class="cls-2" d="M359.99,513.48c9.57,8.21,13.76,31.25,8.19,44.8-.53-7.52-.43-15.32-1.81-22.85-1.39-7.56-4.26-14.85-6.39-21.95Z"/>
      <path class="cls-2" d="M150.08,512.36c-8.08,15.03-9.79,29.97-9.38,45.61-6.28-11.23-1.57-37.12,9.38-45.61Z"/>
      <path class="cls-2" d="M305.91,510.32c-6.42,3.94-11.71,3.47-16.92.56-5.59-3.12-7.98-8.67-6.83-16.71,4.71,10.24,12.07,15.61,23.75,16.15Z"/>
      <path class="cls-2" d="M226.48,497.58c.16,10.41-11.38,18.31-22.46,13.1,4.15-1.83,8.54-3.31,12.45-5.63,3.96-2.34,7.43-5.51,10.01-7.47Z"/>
      <path class="cls-2" d="M244.94,532.61c3.44,2.03,6.89,4.06,10.69,6.3,2.83-1.56,6.2-3.42,9.58-5.28.27.35.54.69.81,1.04-3.52,3.73-7.04,7.46-10.84,11.49-3.69-4.31-7.24-8.45-10.8-12.6.19-.31.37-.63.56-.94Z"/>
      <path class="cls-2" d="M253.25,650.76c.69-4.99,1.4-10.09,2.1-15.19.25-.05.5-.1.75-.14.67,8.94,1.33,17.87,1.98,26.53.47.16-.32-.11-1.63-.56-.34,2.7-.65,5.25-.97,7.79-.34,0-.69.01-1.03.02,0-3.31.28-6.65-.09-9.91-.31-2.77,1.59-6.33-1.12-8.53Z"/>
      <path class="cls-2" d="M62.37,500.18c5.53,4.52,10.93,8.94,16.01,13.09-2.35,1.34-5.39,1.21-9.29-1.26-4.49-2.85-6.92-6.85-6.71-11.83Z"/>
      <path class="cls-2" d="M81.71,522.75c2.59,11,5.18,22.01,7.77,33.01-3.33-10.91-9.41-21.18-9.01-32.94.41-.02.82-.04,1.23-.07Z"/>
      <path class="cls-2" d="M72.48,526.05c1.39,1.92,3.39,3.64,4.05,5.78,2.29,7.44,4.12,15.02,5.61,22.69-3.41-9.28-6.82-18.56-10.23-27.84.19-.21.38-.42.58-.64Z"/>
      <path class="cls-2" d="M335.46,530.98c-.52,6.61-1.06,13.56-1.57,20.08-5.08-4.88-4.46-14.2,1.57-20.08Z"/>
      <path class="cls-2" d="M172.96,530.87c5.95,5.76,6.68,14.71,1.65,20.31-.54-6.68-1.11-13.71-1.65-20.31Z"/>
      <path class="cls-3" d="M169.69,264.36c-3.71-1.6-8.82-2.88-12.8-5.73-5.32-3.81-4.21-9.76,1.91-12.52,7.89-3.56,15.64-2.58,22.61,2.34,5.94,4.18,5.08,10.69-1.67,13.49-2.69,1.12-5.73,1.41-10.06,2.42Z"/>
      <path class="cls-3" d="M201.3,309.65c-18.41,1.74-45.18-15.2-50.63-31.31,13.61,16.22,30.22,25.68,50.63,31.31Z"/>
      <path class="cls-3" d="M202.39,257.2c-2.65,1.73-4.46,3.76-5.56,3.43-1.58-.48-2.64-2.68-3.93-4.14,1.41-1.14,2.79-3.13,4.25-3.18,1.35-.05,2.78,1.95,5.24,3.89Z"/>
      <path class="cls-3" d="M220.26,308.23c3.33-2.62,6.67-5.24,11.11-8.73-1.46,3.02-1.97,5.88-3.67,7.16-1.99,1.5-5.02,1.63-7.59,2.36.05-.26.1-.52.15-.78Z"/>
      <path class="cls-3" d="M305.89,272.48c-1.56-1.01-5.22-2.29-7.08-4.86-2.49-3.47.07-7,2.63-9.71,5.05-5.34,11.39-8.11,18.72-7.48,7.85.67,10.31,6.84,5.45,13.04-4.48,5.71-10.65,8.15-19.72,9.01Z"/>
      <path class="cls-3" d="M358.09,279.04c-10.47,18.91-27.02,28.34-48.05,30.73,18.53-6.36,35.06-15.77,48.05-30.73Z"/>
      <path class="cls-3" d="M337.96,254.82c-1.66-2.71-3.45-4.33-3.27-5.7.18-1.43,2.25-2.62,3.49-3.91,1.3,1.42,3.38,2.71,3.65,4.31.2,1.2-1.93,2.79-3.87,5.31Z"/>
      <path class="cls-3" d="M278.56,300.64c3.21,2.48,6.46,5,9.4,7.28-4.99,2.43-9.81-1.17-9.4-7.28Z"/>
    </g>
  </g>
</svg>