<?xml version="1.0" encoding="UTF-8"?>
<svg id="Ebene_2" data-name="Ebene 2" xmlns="http://www.w3.org/2000/svg" viewBox="0 0 459.74 941.16">
  <defs>
    <style>
      .cls-1 {
        fill: #f3d0b4;
        stroke-width: 0px;
      }
    </style>
  </defs>
  <g id="Ebene_2-2" data-name="Ebene 2">
    <path class="cls-1" d="m425.63,725.92c11.45,15.6,22.66,30.87,34.12,46.48-76.84,56.39-153.33,112.53-229.95,168.77-76.63-56.27-153.02-112.35-229.79-168.73,11.25-15.42,22.48-30.81,33.96-46.54,55.59,40.8,110.83,81.34,166.78,122.4V92.87c-55.77,40.94-110.99,81.47-166.75,122.39C22.65,199.71,11.43,184.33.04,168.72,76.61,112.48,153.1,56.31,229.79,0c76.7,56.29,153.19,112.44,229.95,168.77-11.53,15.69-22.75,30.95-34.14,46.46-55.47-40.7-110.63-81.18-166.34-122.06v754.82c55.63-40.82,110.86-81.34,166.37-122.07Z"/>
  </g>
</svg>