<?xml version="1.0" encoding="UTF-8"?>
<svg id="Ebene_2" data-name="Ebene 2" xmlns="http://www.w3.org/2000/svg" xmlns:xlink="http://www.w3.org/1999/xlink" viewBox="0 0 127.12 112.08">
  <defs>
    <style>
      .cls-1 {
        fill: #ee7635;
      }

      .cls-1, .cls-2, .cls-3, .cls-4, .cls-5, .cls-6, .cls-7, .cls-8, .cls-9 {
        stroke-width: 0px;
      }

      .cls-2 {
        fill: #1d303c;
      }

      .cls-3 {
        fill: none;
      }

      .cls-10 {
        clip-path: url(#clippath);
      }

      .cls-4 {
        fill: #50a2ac;
      }

      .cls-5 {
        fill: #d6d7d8;
      }

      .cls-6 {
        fill: #edd3b9;
      }

      .cls-7 {
        fill: #4bad6e;
      }

      .cls-8 {
        fill: #fdfdfd;
      }

      .cls-9 {
        fill: #c83838;
      }
    </style>
    <clipPath id="clippath">
      <rect class="cls-3" width="127.12" height="112.08"/>
    </clipPath>
  </defs>
  <g id="Ebene_2-2" data-name="Ebene 2">
    <g class="cls-10">
      <path class="cls-2" d="m17.13,62.34h-.07v4.51h.07v-4.51Zm2.49-43.32c-1.95,1.03-2.36,1.67-1.81,2.78.59-.9,1.14-1.75,1.81-2.78m82.43,75.84c-1.51-1.05-1.67-1-2.42.28-.34.58.12.78.36,1.08.35.44.57,0,.78-.18.42-.35.81-.74,1.28-1.18m-56.92,13.42c-1.18-.38-2.07-.65-2.94-.96-.34-.12-.47.03-.61.26-.34.58-.67,1.17-1.11,1.93,1.58-.42,2.96-.78,4.66-1.23m-24.07-14.59c.56,2.02,1.07,3.85,1.64,5.9.54-.89.96-1.6,1.39-2.3.16-.26.06-.45-.14-.66-.92-.92-1.83-1.86-2.88-2.94m87.28-17.76c-.43,1.48-.77,2.73-1.15,3.98-.11.37-.09.61.29.79.73.35,1.45.73,2.16,1.11.37.2.49.1.59-.28.29-1.04.61-2.08.96-3.1.16-.46.12-.69-.44-.64-.3.02-.6-.03-.89.01-.9.14-1.4-.14-1.41-1.09,0-.18-.05-.35-.12-.77m2.1,8.69c-.3.13-.45.16-.55.24-2.61,2.28-4.1,5.16-4.72,8.49-.03.16,0,.41.1.49.21.17.4-.04.57-.17,1.2-.95,2.05-2.19,2.78-3.49.95-1.68,1.75-3.42,1.82-5.57M42.41,5.73c-1.35.01-1.62.8-1.75,1.77-.78,5.92-.49,11.78.86,17.6.15.64.31,1.03,1.13.83.87-.21.4-.73.32-1.09-.78-3.37-1.21-6.77-1.26-10.23-.04-2.98.24-5.93.7-8.89m65.89,77.71c-.67-.36-1.33-.68-1.94-1.07-.47-.3-.84-.2-1.19.12-2.52,2.3-4.07,5.11-4.62,8.45-.06.36-.04.72.39.93.71.34,1.4.7,2.15,1.08.8-3.72,2.5-6.84,5.21-9.5M20.23,43.89c1.73-4.37,3.86-8.46,6.45-12.46-1.87,0-3.51.05-5.14-.02-1.05-.04-1.34.37-1.32,1.34.05,3.19.01,6.38.01,9.56v1.58m80.15-12.46c2.73,4.08,4.78,8.28,6.42,12.68.09-3.94.08-7.84.1-11.75,0-.85-.52-.92-1.15-.92-1.71,0-3.41,0-5.38,0M19.55,15.34c-1.98,0-4.28.08-6.57-.03-1.55-.07-2.79.32-3.92,1.35-1.09.98-2.29,1.84-3.68,2.94,3.53,0,6.72,0,9.9,0,.23,0,.44,0,.6-.19,1.26-1.4,2.53-2.81,3.67-4.07m87.15,0c.88.91,1.75,1.74,2.53,2.64,1.07,1.22,2.26,1.92,4.01,1.61.97-.17,2-.03,3-.03,1.72,0,3.45,0,5.5,0-1.88-1.46-3.5-2.71-5.11-3.96-.38-.3-.83-.26-1.28-.26-2.86,0-5.72,0-8.65,0M39.72,106.63c-.01-.21-.09-.27-.78-.55-3.78-1.53-7.32-3.48-10.64-5.83-.83-.59-1.65-1.86-2.44-1.62-.72.21-1.02,1.65-1.61,2.47-.5.7-.2.93.41,1.27,3.97,2.18,7.91,4.41,11.86,6.62q1.37.77,2.16-.6c.35-.6.7-1.18,1.04-1.75m-23.88-28.79c0,.1-.02.21,0,.31.08.32.18.63.26.94,1.57,6.56,4.81,12.19,9.97,16.71.3.26.52.86,1.15.29.53-.47.38-.77.04-1.25-2.81-3.94-5-8.2-6.61-12.74-.68-1.91-1.22-3.86-1.82-5.79.01,2.45-1.95,1.12-3,1.53m109.09-42.99c0-3.95-.02-7.9.01-11.86,0-1.01-.34-1.44-1.42-1.43-3.6.04-7.21.03-10.81,0-.99,0-1.4.38-1.4,1.35.01,7.94.02,15.88,0,23.82,0,.96.39,1.4,1.38,1.4,3.6-.01,7.2-.02,10.81,0,1.03,0,1.45-.39,1.44-1.43-.04-3.95-.01-7.9-.01-11.86m-109.13.12c0-3.92.01-7.84,0-11.76,0-1.44-.23-1.64-1.67-1.64-3.38,0-6.76,0-10.15,0-1.71,0-1.88.15-1.88,1.87,0,7.69,0,15.38,0,23.08,0,1.33.28,1.6,1.61,1.61,3.38,0,6.76,0,10.15,0,1.74,0,1.93-.18,1.93-1.84,0-3.77,0-7.55,0-11.32m95.31,40.81c2.18,0,4.22-.02,6.26.01.58,0,.76-.21.84-.73,1.01-6.97,1-13.94,0-20.92-.08-.59-.33-.77-.93-.76-1.82.04-3.64.04-5.46,0-.65-.01-.7.18-.6.75.39,2.21.65,4.44.78,6.69.29,4.98.01,9.92-.89,14.95m-103.03-11.25c.09,3.56.28,7.07.83,10.55.09.56.27.72.83.71,1.71-.03,3.42-.08,5.12.01,1.07.06,1.1-.36.95-1.18-.53-2.86-.76-5.75-.83-8.65-.09-3.89.18-7.75.86-11.59.12-.69.06-1.05-.83-1.01-1.71.07-3.42.04-5.13.01-.6-.01-.87.08-.98.78-.55,3.45-.72,6.92-.83,10.36M38.59,7.12c-2.2.88-4.15,1.92-6.03,3.08-6.15,3.79-11.19,8.57-14.27,15.12-.29.61-.42,1.21-.42,1.88.01,6.2-.07,12.41.05,18.61.05,2.81-1.01,4.66-4.41,4.32-.07,0-.15,0-.22,0-.63-.09-.71.26-.74.77-.04.6.33.52.7.52,1.3,0,2.6-.06,3.9.02.84.05,1.04-.19,1.03-1.01-.04-5.95-.02-11.9-.02-17.85,0-2.14,1.02-3.15,3.18-3.16,2.01,0,4.01,0,6.02,0,.41,0,.8-.02,1.2-.15,3.43-1.05,6.9-1.96,10.42-2.65.66-.13.73-.31.58-.91-1.07-4.43-1.54-8.93-1.36-13.48.07-1.66.25-3.32.39-5.11m44.6,3.79c-.03-1.85-.4-3.66-.68-5.49-.09-.57-.47-.72-.97-.86-2.67-.75-5.38-1.34-8.13-1.75-9.34-1.39-18.55-.84-27.64,1.67-.81.22-1.24.55-1.21,1.37-.16.95-.36,1.9-.48,2.86-.68,5.46-.28,10.85,1.02,16.19.12.51.36.61.86.53,2.71-.42,5.45-.67,8.19-.88,9-.7,17.96-.39,26.89.87.72.1.89-.13,1.03-.7,1.06-4.55,1.56-9.14,1.14-13.81m18.34,72.28v.03c1.09-.94,1.87-2.21,3.23-2.88.16-.08.24-.36.3-.56,1.04-3.14,1.71-6.36,2.19-9.63.04-.25.21-.61-.3-.65-.42-.03-.3-.34-.3-.57,0-3.05,0-6.1,0-9.14,0-.22-.13-.6.28-.58.84.03.65-.54.6-.96-.2-1.76-.37-3.53-.68-5.28-1.34-7.67-4.21-14.74-8.71-21.17-.26-.38-.53-.71-1.06-.87-7.65-2.32-15.48-3.68-23.44-4.32-7.27-.58-14.54-.53-21.81.17-7.33.7-14.53,1.99-21.57,4.1-.43.13-.82.26-1.1.66-5.76,8.15-8.82,17.22-9.62,27.05-.02.3-.07.63.38.61.66-.03.58.4.58.8,0,2.9,0,5.81,0,8.71,0,.24-.02.68-.12.7-.84.19-.49.81-.43,1.22,1.14,7.81,3.74,15.1,8.11,21.76q1.07,1.63,2.54.29c.05-.05.12-.07.18-.11.46.44.92.89,1.38,1.33-.28.33-.53.69-.86.97-.55.46-.51.65.16,1.02,3.49,1.91,7.11,3.57,10.89,4.87,14.49,4.98,28.99,5.57,43.48.04,3.68-1.4,7.17-3.17,10.53-5.33-.52-.56-.97-1.04-1.41-1.52.37-.58.87-1.02,1.46-1.38.48.48.97.96,1.48,1.46.35-.48.99-.84.8-1.45-.32-1.04-.18-2.07-.16-3.1.88-1.97,1.6-4.01,2.83-5.82.14-.12.27-.24.19-.45m-5.61,14.95c-.26.14-.52.27-.78.42-12.39,7.07-25.7,9.5-39.86,7.45-9-1.31-17.46-4.2-25.32-8.69-.51-.29-.88-.43-1.27.14-.47.68.3.73.55.91,2.84,2.12,5.9,3.89,9.17,5.29,12.32,5.29,25.11,6.32,38.23,3.78,5.96-1.15,11.63-3.13,16.84-6.26.06-.05.13-.1.19-.14.09-.06.19-.11.28-.17,1.54-.7,2.86-1.74,4.22-2.71.21-.15.58-.33.19-.65-.25-.2-.39-.67-.88-.35-.51.34-1.04.66-1.56.99m-10.48-85.94c.05,4.39-.33,8.73-1.4,13-.08.32-.28.7.29.68.39,0,.94.48,1.14-.35.99-4.25,1.58-8.52,1.29-12.89.15-2.03-.25-4.02-.46-6.02-.08-.78-.83-.9-1.31-.87-.51.03-.21.65-.14.97.35,1.81.35,3.65.6,5.47m23.65,35.21c-.19,1.15-.03,2.31-.09,3.47-.02.46.23.53.62.52,1.45-.01,2.9-.02,4.35,0,.45,0,.59-.16.54-.57-.04-.36.03-.75-.56-.72-.44.03-.89,0-1.34,0-1.94-.03-2.98-.88-3.37-2.78,0-5.28,0-10.56-.01-15.84.07-2.81.19-5.53-1.39-8.17-4.48-7.5-11.08-12.51-18.99-16.09-.07-.03-.19.02-.34.04.24,2.37.46,4.71.43,7.06-.05.13-.14.26-.13.39.13,3.75-.4,7.42-1.31,11.06-.15.58.09.71.64.83,2.16.47,4.33.95,6.47,1.52,2.49.66,4.91,1.64,7.57,1.25,1.25,0,2.5.01,3.74.03,1.67.02,2.45.57,3.02,2.12,0,4.91.02,9.82.04,14.73,0,.39-.11.79.12,1.16m-.83-27.67c-.06,0-.13,0-.19-.01,0,0,0,.04,0,.06.07-.02.14-.05.21-.07-.14.23-.11.42.12.58.27.47.54.94.9,1.56.52-1.11-.38-1.27-.73-1.72-.1-.13-.2-.26-.3-.39m-88.62-1.02c.08.08.16.07.21-.03.01-.02,0-.06-.02-.09-.06.04-.11.09-.17.14-.06.06-.12.12-.19.18.06.01.11.03.17.04,0-.08,0-.16,0-.25m1.44,82.94c-.42-1.67-.82-3.35-1.41-4.97-.34-1.62-.75-3.23-1.35-4.79.45-1.85-.63-3.21-1.53-4.62,0-.07-.01-.12-.07-.16-.66-1.6-1.32-3.2-1.99-4.8-.03-1.54-.78-2.89-1.15-4.34.02-.14-.03-.2-.18-.15-.51,0-1.03,0-1.54,0-1.26-.02-2.52-.05-3.78-.04-.58,0-.9-.03-.96-.77-.12-1.44-.43-2.86-.67-4.28-.14-1.59-.28-3.19-.41-4.78-.01-1.6-.02-3.2-.03-4.8.08-1.59.16-3.18.24-4.78.22-1.67.44-3.35.65-5.02.09-.65.17-1.3.26-1.95.92,0,1.84-.03,2.76,0,.54.02.56-.27.59-.67.03-.45-.11-.65-.61-.63-.99.04-1.98.04-2.98.05-1.55-.03-3.09-.06-4.63-.09-.88-.35-1.57-.92-2.03-1.74-.45-1.42-.12-2.89-.27-4.33,0-1.67,0-3.35,0-5.02,0-1.52,0-3.04,0-4.56v-5.02c0-1.52,0-3.04,0-4.56.01-.62.04-1.23.03-1.85-.04-1.27.39-2.32,1.43-3.11.27-.05.47-.21.62-.43,2.15-1.65,4.32-3.29,6.45-4.97.99-.79,2.04-1.29,3.34-1.23,1.63,0,3.26,0,4.89,0,1.64,0,3.28,0,4.93,0,1.83.14,3.68.33,4.91-1.45.52-.41,1.05-.81,1.57-1.22l3.36-2.21c3.29-1.88,6.72-3.47,10.26-4.84,1.54-.46,3.08-.92,4.62-1.38,3.25-.74,6.52-1.36,9.83-1.76.14,0,.29-.02.43-.03.11-.02.23-.04.34-.06,1.37-.1,2.75-.21,4.12-.31,1.64,0,3.27.01,4.91.01,1.37.1,2.75.21,4.12.31.11.02.23.04.35.06.14,0,.29.01.43.02,3.31.42,6.58,1.04,9.83,1.77,1.63.5,3.26,1.01,4.89,1.51,3.39,1.3,6.65,2.87,9.82,4.62,1.01.66,2.03,1.33,3.04,1.99.63.47,1.26.95,1.88,1.43.76.56,1.24,1.55,2.36,1.57.84.01,1.68-.02,2.53-.03,1.71,0,3.43,0,5.14,0,1.56,0,3.11,0,4.67,0,1.38-.1,2.49.44,3.54,1.28,2.14,1.71,4.34,3.36,6.52,5.04.13.09.27.18.4.27,1.24.9,1.57,2.15,1.49,3.58-.03.46.03.93.05,1.39-.11,1.54-.13,3.07.01,4.61-.12,1.66-.12,3.32,0,4.98-.14,1.54-.12,3.07-.01,4.61-.09,1.66-.11,3.32.01,4.97-.28,1.52.21,3.1-.39,4.58-.43.56-.94,1.05-1.58,1.38-.54.16-1.09.17-1.65.17-2.01,0-4.01.02-6.02.02-.46,0-.86-.08-.84.64.03.7.44.61.88.6.11,0,.22,0,.33,0q1.93,0,2.3,1.78c.03.14.08.28.13.42.2,1.77.39,3.54.59,5.31.17,1.44-.14,2.89.2,4.32-.02,1.57-.04,3.13-.06,4.7-.11,1.62-.23,3.24-.34,4.85-.21,1.31-.46,2.62-.62,3.94-.1.8-.34,1.19-1.28,1.11-1.21-.09-2.44,0-3.66.01-.44,0-.88,0-1.32-.01-.16-.05-.23.01-.23.17-.51,1.43-1.03,2.86-1.32,4.35-.12.22-.29.43-.17.7.6,1.35.4,2.72.17,4.1-.55,1.4-1.05,2.84-1.85,4.13-1.27,2.07-2.61,4.09-5.1,4.97-.45.21-.88-.52-1.33-.03-1.34.79-2.4,1.9-3.55,2.92-1.05.76-2.1,1.53-3.16,2.29-.64.31-1.25.66-1.78,1.13-1.63.86-3.27,1.72-4.9,2.57-.89.39-1.77.78-2.65,1.18-.78.19-1.53.47-2.23.85-1.64.51-3.28,1.01-4.92,1.52-1.63.37-3.26.73-4.9,1.1-1.63.23-3.27.46-4.9.69-1.69.11-3.39.23-5.08.34-1.59,0-3.18.01-4.77.02-1.63-.12-3.26-.23-4.88-.35-1.63-.23-3.26-.46-4.9-.69-1.7-.79-3.31-.2-4.92.32-1.03.27-2.06.54-3.09.81-.67.19-1.34.38-2,.57-1.56.19-3.13,1.31-4.68-.04-.31-.18-.62-.36-.92-.53-1.4-.77-2.81-1.55-4.21-2.32-3.23-1.86-6.44-3.75-9.79-5.41-.42-.41-.44-.99-.63-1.49"/>
      <path class="cls-2" d="m32.15,93.88c-.46-.44-.92-.89-1.38-1.33-1.04-1.75-2.16-3.46-3.1-5.26-5.07-9.7-6.84-19.99-5.61-30.79.93-8.21,3.66-15.79,8.27-22.73.39-.58.83-.95,1.52-1.15,6.17-1.78,12.47-2.97,18.86-3.63,7.4-.76,14.82-.89,22.25-.3,7.57.59,15.01,1.83,22.3,3.91.68.2,1.17.51,1.55,1.11,8.13,12.42,10.27,25.9,7.51,40.25-.61,3.18-1.7,6.22-2.8,9.26v-.03c-.05.15-.12.3-.18.45-1.23,1.8-1.96,3.85-2.83,5.82-.95.87-1.46,2.03-2.12,3.1-.59.36-1.09.8-1.46,1.38-.36.18-.73.35-1.07.56-9.83,5.84-20.47,8.53-31.98,7.96-8.26-.41-16.12-2.37-23.64-5.67-2.06-.9-4.06-1.93-6.09-2.9"/>
      <path class="cls-1" d="m83.19,10.91c.42,4.67-.08,9.26-1.14,13.81-.13.58-.31.81-1.03.7-8.93-1.26-17.89-1.57-26.89-.87-2.74.21-5.47.46-8.19.88-.5.08-.73-.02-.86-.53-1.3-5.34-1.7-10.73-1.02-16.19.12-.96.32-1.91.48-2.87.33,0,.67.05,1-.01,2.8-.52,5.63-.77,8.48-.8,2.37-.03,4.73-.03,7.11.16,3.77.3,7.46.93,11.12,1.8,3.79.9,7.38,2.34,10.93,3.91"/>
      <path class="cls-4" d="m101.52,83.22c1.09-3.04,2.19-6.08,2.8-9.26,2.76-14.35.62-27.83-7.51-40.25-.39-.59-.87-.91-1.55-1.11-7.29-2.08-14.73-3.31-22.3-3.9-7.43-.58-14.85-.46-22.25.3-6.39.66-12.69,1.85-18.86,3.63-.69.2-1.14.56-1.52,1.14-4.61,6.94-7.33,14.52-8.26,22.73-1.23,10.8.55,21.09,5.61,30.79.94,1.8,2.06,3.51,3.1,5.26-.06.04-.13.07-.18.11q-1.47,1.34-2.54-.29c-4.37-6.66-6.97-13.95-8.11-21.76-.06-.41-.41-1.03.43-1.22.09-.02.11-.46.11-.7,0-2.9,0-5.81,0-8.71,0-.4.08-.83-.58-.8-.46.02-.41-.31-.38-.61.81-9.83,3.86-18.9,9.62-27.04.28-.4.67-.53,1.1-.66,7.04-2.1,14.24-3.4,21.57-4.1,7.27-.69,14.54-.75,21.81-.17,7.96.64,15.8,1.99,23.44,4.32.53.16.8.49,1.06.87,4.51,6.43,7.37,13.51,8.71,21.17.31,1.75.48,3.52.68,5.28.05.42.24.99-.6.96-.41-.02-.28.36-.28.58,0,3.05,0,6.09,0,9.14,0,.23-.11.54.31.57.51.03.33.39.3.65-.47,3.26-1.14,6.49-2.19,9.63-.07.2-.14.48-.3.56-1.36.67-2.14,1.94-3.24,2.88"/>
      <path class="cls-1" d="m38.59,7.12c-.14,1.79-.32,3.45-.39,5.11-.18,4.55.29,9.05,1.36,13.48.15.6.08.78-.58.91-3.52.69-6.99,1.6-10.42,2.65-.41.12-.8.15-1.2.15-2.01,0-4.01,0-6.02,0-2.16,0-3.18,1.02-3.18,3.16,0,5.95-.02,11.9.02,17.85,0,.81-.19,1.06-1.03,1.01-1.3-.08-2.6-.02-3.9-.02-.37,0-.74.08-.7-.52.04-.51.11-.86.74-.77.07.01.15,0,.22,0,3.4.35,4.47-1.51,4.41-4.31-.12-6.2-.03-12.41-.05-18.61,0-.67.13-1.27.42-1.88,3.08-6.55,8.12-11.34,14.27-15.12,1.88-1.16,3.83-2.19,6.03-3.08"/>
      <path class="cls-9" d="m108.94,31.53c-.57-1.56-1.35-2.11-3.02-2.12-1.25-.01-2.5-.02-3.74-.03.01-.49-.19-.91-.4-1.33-1.97-3.91-4.67-7.28-7.99-10.17-1.51-1.31-2.98-2.69-4.85-3.54.03-2.35-.19-4.69-.43-7.06.15-.02.27-.07.34-.04,7.91,3.58,14.5,8.6,18.99,16.09,1.58,2.65,1.46,5.37,1.39,8.17-.1,0-.19.02-.29.03"/>
      <path class="cls-7" d="m8.08,64.53c.11-3.44.28-6.91.83-10.36.11-.7.38-.79.98-.78,1.71.03,3.42.06,5.13-.01.89-.04.95.32.83,1.01-.69,3.83-.95,7.7-.86,11.58.06,2.9.3,5.79.83,8.65.15.82.12,1.24-.95,1.18-1.7-.09-3.42-.04-5.12-.01-.56.01-.74-.15-.83-.71-.55-3.48-.75-6.99-.83-10.55"/>
      <path class="cls-7" d="m111.12,75.78c.9-5.02,1.18-9.97.89-14.95-.13-2.25-.39-4.48-.78-6.69-.1-.57-.05-.76.6-.75,1.82.04,3.64.04,5.46,0,.6-.01.85.17.93.76,1,6.97,1.01,13.95,0,20.92-.08.52-.26.74-.84.73-2.04-.03-4.08-.01-6.26-.01"/>
      <path class="cls-4" d="m32.15,93.88c2.03.97,4.03,2,6.08,2.9,7.52,3.3,15.38,5.26,23.64,5.67,11.51.57,22.15-2.12,31.98-7.96.35-.2.71-.37,1.07-.56.45.48.89.96,1.41,1.52-3.36,2.16-6.85,3.93-10.53,5.33-14.5,5.52-29,4.94-43.48-.04-3.78-1.3-7.39-2.95-10.89-4.87-.67-.36-.71-.56-.16-1.02.33-.27.58-.64.86-.97"/>
      <path class="cls-1" d="m2.86,41.16c.1,3.3,2.95,5.97,6.19,5.83,3.29-.15,5.99-2.9,5.92-6.04-.07-3.29-2.97-5.98-6.31-5.87-3.27.11-5.9,2.87-5.8,6.08m6.07-18.49c-3.31-.01-5.96,2.61-6.06,5.82-.1,3.18,2.41,5.99,6,6.09,3.23.09,6.12-2.78,6.1-5.98-.01-3.16-2.83-5.92-6.04-5.93m6.87,12.29c0,3.77,0,7.55,0,11.32,0,1.66-.2,1.84-1.93,1.84-3.38,0-6.76,0-10.15,0-1.33,0-1.61-.28-1.61-1.61,0-7.69,0-15.38,0-23.07,0-1.72.16-1.87,1.88-1.87,3.38,0,6.76,0,10.14,0,1.44,0,1.66.19,1.67,1.64.02,3.92,0,7.84,0,11.75"/>
      <path class="cls-1" d="m93.48,101.18c-5.21,3.13-10.88,5.11-16.84,6.26-13.13,2.54-25.91,1.51-38.24-3.78-3.27-1.4-6.33-3.17-9.17-5.29-.24-.18-1.01-.23-.55-.91.39-.57.76-.43,1.27-.14,7.86,4.49,16.32,7.38,25.32,8.69,14.16,2.05,27.47-.38,39.86-7.45.26-.15.52-.28.78-.42.14.55-.3.82-.57,1.2-.41.57-1.31.7-1.41,1.54-.09.06-.19.11-.28.16-.06.05-.13.1-.19.14"/>
      <path class="cls-1" d="m112.21,28.63c0,3.25,2.65,5.92,5.93,5.96,3.28.05,6.11-2.69,6.12-5.91.02-3.3-2.77-6.04-6.12-6.01-3.27.03-5.93,2.71-5.93,5.96m-.03,12.41c0,3.23,2.71,5.92,5.98,5.94,3.29.02,6.09-2.7,6.1-5.92,0-3.26-2.71-5.97-6.02-5.99-3.32-.02-6.07,2.69-6.06,5.97m12.75-6.2c0,3.95-.02,7.91.02,11.86,0,1.04-.41,1.44-1.44,1.43-3.6-.02-7.21-.01-10.81,0-.99,0-1.38-.44-1.38-1.4.02-7.94.01-15.88,0-23.82,0-.97.41-1.36,1.4-1.35,3.6.03,7.2.03,10.81,0,1.07-.01,1.42.42,1.42,1.43-.04,3.95-.01,7.9-.01,11.86"/>
      <path class="cls-9" d="m83.19,10.91c-3.54-1.57-7.14-3-10.93-3.91-3.66-.87-7.36-1.5-11.12-1.8-2.37-.19-4.74-.18-7.11-.16-2.84.03-5.68.28-8.48.8-.32.06-.66.01-1,.01-.02-.82.41-1.15,1.21-1.37,9.09-2.51,18.3-3.06,27.64-1.67,2.75.41,5.46.99,8.13,1.75.5.14.89.29.97.86.27,1.82.65,3.64.68,5.49"/>
      <path class="cls-1" d="m88.94,14.34c1.87.85,3.35,2.23,4.85,3.55,3.32,2.89,6.02,6.25,7.99,10.17.21.42.41.84.4,1.33-2.67.39-5.09-.59-7.57-1.25-2.14-.57-4.3-1.05-6.47-1.52-.55-.12-.78-.24-.63-.83.91-3.63,1.43-7.31,1.31-11.06,0-.13.08-.26.13-.39"/>
      <path class="cls-1" d="m15.84,77.84c1.04-.41,3.01.92,3-1.53.6,1.93,1.15,3.89,1.82,5.8,1.61,4.53,3.8,8.79,6.61,12.74.34.48.48.77-.04,1.25-.63.57-.85-.03-1.15-.29-5.16-4.52-8.39-10.14-9.97-16.71-.08-.32-.18-.63-.26-.94-.03-.1,0-.21,0-.31"/>
      <path class="cls-4" d="m39.72,106.63c-.34.57-.7,1.15-1.04,1.75q-.79,1.36-2.16.6c-3.95-2.21-7.9-4.43-11.86-6.62-.62-.34-.91-.57-.41-1.27.59-.82.89-2.25,1.61-2.47.79-.23,1.61,1.04,2.44,1.62,3.31,2.35,6.85,4.3,10.64,5.83.69.28.77.34.78.55"/>
      <path class="cls-1" d="m106.7,15.34c2.93,0,5.79,0,8.65,0,.45,0,.9-.04,1.28.26,1.62,1.25,3.23,2.51,5.11,3.96h-5.5c-1,0-2.03-.14-3,.03-1.75.31-2.94-.39-4.01-1.61-.78-.9-1.65-1.72-2.53-2.64"/>
      <path class="cls-1" d="m19.55,15.34c-1.14,1.26-2.4,2.67-3.67,4.07-.16.18-.37.19-.6.19-3.19,0-6.38,0-9.9,0,1.39-1.1,2.59-1.96,3.68-2.94,1.13-1.02,2.37-1.42,3.92-1.35,2.29.11,4.6.03,6.57.03"/>
      <path class="cls-7" d="m100.39,31.43c1.96,0,3.67,0,5.38,0,.63,0,1.16.07,1.15.92-.03,3.91-.01,7.82-.1,11.75-1.65-4.4-3.69-8.6-6.43-12.68"/>
      <path class="cls-7" d="m20.23,43.89v-1.58c0-3.19.03-6.38-.01-9.57-.01-.97.27-1.38,1.32-1.34,1.63.07,3.27.02,5.14.02-2.58,4.01-4.72,8.09-6.45,12.46"/>
      <path class="cls-7" d="m108.3,83.45c-2.72,2.66-4.41,5.78-5.21,9.5-.75-.38-1.44-.74-2.15-1.08-.43-.2-.44-.56-.38-.93.55-3.33,2.1-6.15,4.62-8.44.35-.32.72-.42,1.19-.12.61.39,1.27.7,1.94,1.07"/>
      <path class="cls-4" d="m42.41,5.73c-.46,2.97-.74,5.92-.7,8.89.04,3.46.48,6.86,1.26,10.23.08.36.56.88-.32,1.09-.82.2-.98-.19-1.13-.83-1.35-5.82-1.64-11.68-.86-17.6.13-.97.39-1.76,1.75-1.78"/>
      <path class="cls-4" d="m86.76,12.65c.29,4.37-.3,8.65-1.29,12.89-.19.83-.75.34-1.14.35-.57.01-.37-.37-.29-.69,1.06-4.27,1.45-8.62,1.4-13,.44.15.88.3,1.32.45"/>
      <path class="cls-4" d="m110.44,84.62c-.08,2.15-.88,3.89-1.83,5.57-.73,1.3-1.58,2.53-2.78,3.49-.17.13-.36.34-.57.17-.1-.08-.13-.34-.1-.49.62-3.33,2.12-6.21,4.72-8.49.1-.09.25-.11.55-.24"/>
      <path class="cls-9" d="m108.34,75.93c.07.42.12.59.12.77,0,.95.51,1.23,1.41,1.09.29-.05.59.01.89-.01.56-.05.6.18.44.64-.35,1.03-.68,2.06-.96,3.1-.11.39-.23.48-.59.28-.71-.38-1.43-.76-2.16-1.11-.38-.19-.41-.42-.29-.79.38-1.24.73-2.5,1.15-3.98"/>
      <path class="cls-7" d="m86.76,12.65c-.44-.15-.88-.3-1.32-.45-.25-1.82-.26-3.66-.6-5.47-.06-.31-.37-.93.15-.97.49-.03,1.23.09,1.31.87.21,2,.61,3.99.46,6.02"/>
      <path class="cls-9" d="m109.24,47.35c.39,1.89,1.43,2.75,3.37,2.78.45,0,.89.02,1.34,0,.59-.04.51.36.56.72.05.42-.09.58-.54.57-1.45-.02-2.9-.02-4.35,0-.39,0-.64-.06-.62-.52.06-1.15-.1-2.31.09-3.46,0,0,.09,0,.09,0l.06-.08Z"/>
      <path class="cls-9" d="m109.24,47.35l-.06.08s-.09,0-.09,0c-.23-.37-.12-.78-.12-1.16-.02-4.91-.03-9.82-.04-14.72.1,0,.2-.02.29-.03,0,5.28,0,10.56.01,15.84"/>
      <path class="cls-7" d="m21.06,93.69c1.05,1.08,1.96,2.02,2.88,2.94.21.21.3.4.14.66-.42.7-.85,1.41-1.39,2.3-.57-2.04-1.08-3.88-1.64-5.9"/>
      <path class="cls-4" d="m96.39,92.55c.65-1.07,1.16-2.23,2.12-3.1-.02,1.04-.16,2.07.16,3.1.19.62-.45.97-.8,1.45-.51-.5-.99-.98-1.48-1.46"/>
      <path class="cls-7" d="m45.13,108.28c-1.7.45-3.08.81-4.66,1.23.44-.76.77-1.35,1.11-1.93.13-.23.27-.38.61-.26.87.31,1.76.58,2.94.96"/>
      <path class="cls-9" d="m93.95,100.88c.09-.83,1-.96,1.4-1.54.27-.38.7-.65.57-1.2.52-.33,1.05-.65,1.56-.99.49-.32.63.15.88.35.39.33.03.5-.19.65-1.36.97-2.68,2.01-4.22,2.71"/>
      <path class="cls-9" d="m102.05,94.86c-.47.44-.86.83-1.28,1.18-.21.18-.43.62-.78.18-.25-.3-.7-.5-.36-1.08.75-1.28.91-1.33,2.42-.28"/>
      <path class="cls-9" d="m19.62,19.02c-.67,1.03-1.23,1.88-1.82,2.78-.54-1.11-.14-1.75,1.82-2.78"/>
      <path class="cls-2" d="m17.13,62.34v4.51h-.07v-4.51h.07"/>
      <path class="cls-1" d="m108.56,20.14c.34.45,1.25.62.73,1.72-.36-.62-.63-1.09-.9-1.56.06-.05.11-.11.17-.16"/>
      <path class="cls-5" d="m108.27,19.74c.1.13.2.26.3.4-.06.05-.11.11-.17.16-.23-.15-.26-.35-.12-.58v.02Z"/>
      <path class="cls-8" d="m101.34,83.64c.06-.15.13-.3.19-.45.07.21-.05.33-.19.45"/>
      <path class="cls-5" d="m13.59,77.98c-.06-.05-.12-.1-.18-.15.15-.05.2.02.18.15"/>
      <path class="cls-9" d="m19.67,18.75c.06-.05.11-.09.17-.14,0,.03.03.07.02.09-.06.1-.13.11-.21.03l.03.02"/>
      <path class="cls-5" d="m93.48,101.18c.06-.05.13-.09.19-.14-.06.05-.13.1-.19.14"/>
      <path class="cls-9" d="m19.64,18.73c0,.08,0,.16,0,.25-.06-.01-.11-.03-.17-.04.06-.06.12-.12.19-.18,0,0-.03-.02-.03-.02"/>
      <path class="cls-5" d="m108.27,19.72c-.07.02-.14.05-.21.07,0-.02,0-.06,0-.06.06,0,.13,0,.19,0,0,0,0-.02,0-.02"/>
      <path class="cls-2" d="m8.93,22.68c3.21.01,6.03,2.78,6.04,5.93.02,3.19-2.87,6.07-6.1,5.98-3.6-.1-6.1-2.91-6.01-6.09.1-3.21,2.75-5.83,6.06-5.82"/>
      <path class="cls-2" d="m2.86,41.16c-.1-3.21,2.53-5.97,5.8-6.08,3.34-.12,6.24,2.58,6.31,5.87.07,3.14-2.63,5.89-5.92,6.04-3.24.15-6.09-2.53-6.19-5.83"/>
      <path class="cls-2" d="m112.18,41.05c0-3.28,2.74-5.98,6.06-5.96,3.31.02,6.03,2.72,6.02,5.99,0,3.22-2.81,5.94-6.1,5.92-3.27-.02-5.98-2.71-5.98-5.94"/>
      <path class="cls-2" d="m112.21,28.63c0-3.25,2.66-5.93,5.93-5.96,3.35-.03,6.13,2.71,6.12,6.01-.01,3.22-2.85,5.96-6.12,5.91-3.28-.05-5.93-2.71-5.93-5.96"/>
    </g>
    <path class="cls-6" d="m61.02,38.28c-4.09-.78-6.19-.61-17.17-.33-5.42.14-6.62.14-8.17,1.17-2.15,1.44-2.99,3.74-4.67,8.33-.48,1.32-1.89,5.35-2.67,11.5-.56,4.42-.99,7.79,0,8.17,1.26.47,3.47,3.53,9.83-2.83,5.17-5.17.5-15,6.5-15.33s11.77,1.36,17.67-.33c5.08-1.46,6.85-4.69,6-7.33-.54-1.67-3.02-2.17-7.33-3Z"/>
  </g>
</svg>