<?xml version="1.0" encoding="UTF-8"?>
<svg id="Ebene_2" data-name="Ebene 2" xmlns="http://www.w3.org/2000/svg" viewBox="0 0 59.46 30.26">
  <defs>
    <style>
      .cls-1 {
        fill: #c83837;
        stroke: #1d2f3b;
        stroke-miterlimit: 10;
        stroke-width: .46px;
      }
    </style>
  </defs>
  <g id="Ebene_10" data-name="Ebene 10">
    <path class="cls-1" d="M43.36,17.12c-.62,7.24-6.69,12.92-14.09,12.92s-13.47-5.68-14.09-12.92h7.26c1.26,2.49,3.84,4.2,6.83,4.2s5.57-1.71,6.83-4.2h7.26Z"/>
    <path class="cls-1" d="M51.56,14.37c-3.48-.93-6.62-2.78-9.18-5.29-.91-2.25-2.38-4.21-4.23-5.71-2.43-1.96-5.52-3.14-8.88-3.14s-6.69,1.27-9.16,3.37c-1.66,1.41-2.99,3.2-3.85,5.23-2.61,2.64-5.84,4.58-9.44,5.55H.23v1.22h59v-1.22h-7.67ZM36.59,14.37h-14.63c-.21-.7-.33-1.45-.33-2.22,0-4.22,3.42-7.64,7.64-7.64s7.64,3.42,7.64,7.64c0,.77-.11,1.51-.33,2.22Z"/>
  </g>
</svg>