<?xml version="1.0" encoding="UTF-8"?>
<svg id="Ebene_2" data-name="Ebene 2" xmlns="http://www.w3.org/2000/svg" viewBox="0 0 124.88 124.88">
  <defs>
    <style>
      .cls-1 {
        fill: #f3d0b4;
        stroke-width: 0px;
      }
    </style>
  </defs>
  <g id="Ebene_2-2" data-name="Ebene 2">
    <path class="cls-1" d="m62.44,15.61c-13.33.33-24.39,4.88-33.17,13.66h0c-8.78,8.78-13.33,19.84-13.66,33.17.33,13.33,4.88,24.39,13.66,33.17s19.84,13.33,33.17,13.66c2.28,0,4.15.73,5.61,2.2s2.2,3.33,2.2,5.61-.73,4.15-2.2,5.61-3.33,2.2-5.61,2.2c-11.71-.16-22.19-3.01-31.46-8.54-9.43-5.53-16.91-13.01-22.44-22.44C3.01,84.63.16,74.14,0,62.44c.16-11.71,3.01-22.19,8.54-31.46,5.53-9.43,13.01-16.91,22.44-22.44C40.24,3.01,50.73.16,62.44,0c11.71.16,22.19,3.01,31.46,8.54,9.43,5.53,16.91,13.01,22.44,22.44,5.53,9.27,8.37,19.76,8.54,31.46v7.8h0c-.16,6.67-2.44,12.19-6.83,16.58s-9.92,6.67-16.58,6.83c-7.32-.16-13.25-2.93-17.8-8.29-5.85,5.37-12.93,8.13-21.22,8.29-8.78-.16-16.18-3.17-22.19-9.02-5.85-6.02-8.86-13.41-9.02-22.19.16-8.78,3.17-16.18,9.02-22.19,6.02-5.85,13.41-8.86,22.19-9.02,6.99.16,13.09,2.11,18.29,5.85,1.3-1.3,3.01-1.95,5.12-1.95,2.28,0,4.15.73,5.61,2.2s2.2,3.33,2.2,5.61v19.51h0v7.8h0c0,2.28.73,4.15,2.2,5.61s3.33,2.2,5.61,2.2,4.15-.73,5.61-2.2,2.2-3.33,2.2-5.61v-7.8h0c-.33-13.33-4.88-24.39-13.66-33.17s-19.84-13.33-33.17-13.66h0Zm15.61,46.83c-.16-5.85-2.76-10.32-7.8-13.41-5.2-2.93-10.41-2.93-15.61,0-5.04,3.09-7.64,7.56-7.8,13.41.16,5.85,2.76,10.32,7.8,13.41,5.2,2.93,10.41,2.93,15.61,0,5.04-3.09,7.64-7.56,7.8-13.41h0Z"/>
  </g>
</svg>