<?xml version="1.0" encoding="UTF-8"?>
<svg id="Ebene_2" data-name="Ebene 2" xmlns="http://www.w3.org/2000/svg" viewBox="0 0 106.88 104.09">
  <defs>
    <style>
      .cls-1 {
        fill: #f3d0b4;
        stroke-width: 0px;
      }
    </style>
  </defs>
  <g id="Ebene_2-2" data-name="Ebene 2">
    <path class="cls-1" d="m35.77,83.82c-.14.57-.5.86-1.08.86-.86,0-1.29-.29-1.29-.86.14-.43.5-.65,1.08-.65.72,0,1.15.22,1.29.65h0Zm-6.68-.86c-.14.43.14.79.86,1.08.72.14,1.15,0,1.29-.43.14-.57-.14-.93-.86-1.08s-1.15,0-1.29.43h0Zm9.48-.43c-.72.14-1.08.5-1.08,1.08.14.43.57.65,1.29.65.72-.29,1.08-.65,1.08-1.08-.14-.43-.57-.65-1.29-.65h0ZM52.79,0c-15.37.29-27.94,5.32-37.71,15.08h0C5.32,24.85.29,37.35,0,52.58c.14,12.21,3.52,22.91,10.13,32.11,6.61,9.19,15.44,15.66,26.5,19.39,2.59.14,3.81-.72,3.66-2.59,0-.57,0-1.65,0-3.23,0-3.3,0-6.61,0-9.91-.29,0-1.65.14-4.09.43-2.59.14-5.32-.14-8.19-.86-2.87-.86-4.88-2.87-6.03-6.03,0-.29-.57-1.44-1.72-3.45-1.15-1.87-2.59-3.38-4.31-4.53-.29-.14-.86-.72-1.72-1.72-1.01-.86-.29-1.36,2.15-1.51.14-.14,1.15.14,3.02.86,1.87.57,3.59,2.15,5.17,4.74,2.59,3.88,5.39,5.82,8.4,5.82s5.6-.43,7.33-1.29c.57-3.45,1.72-5.89,3.45-7.33-6.32-.29-11.85-1.87-16.59-4.74-4.74-2.73-7.25-9.12-7.54-19.18,0-2.87.43-5.24,1.29-7.11.72-1.87,1.94-3.66,3.66-5.39-.29-.86-.57-2.59-.86-5.17-.29-2.59.22-5.75,1.51-9.48,2.59-.43,5.6.36,9.05,2.37,3.59,1.87,5.53,3.02,5.82,3.45h0c4.31-1.29,8.83-1.94,13.58-1.94s9.12.65,13.58,1.94c0-.14.93-.79,2.8-1.94,1.72-1.15,3.73-2.15,6.03-3.02,2.3-1.01,4.31-1.29,6.03-.86,1.29,3.73,1.8,6.9,1.51,9.48-.29,2.59-.65,4.31-1.08,5.17,1.72,1.72,3.09,3.52,4.09,5.39,1.01,1.87,1.51,4.24,1.51,7.11-.14,6.9-1.36,12-3.66,15.3-2.44,3.16-5.53,5.32-9.27,6.46s-7.69,1.87-11.85,2.15c2.3,1.58,3.52,4.88,3.66,9.91v18.1c-.14,1.87,1.08,2.73,3.66,2.59,10.92-3.73,19.68-10.2,26.29-19.39,6.46-9.19,9.77-19.9,9.91-32.11-.14-10.06-2.59-19.03-7.33-26.93-4.88-7.9-11.35-14.15-19.39-18.75C71.97,2.44,62.85.14,52.79,0h0Zm-31.89,74.34c-.29.29-.22.65.22,1.08.43.43.79.5,1.08.22.29-.29.22-.65-.22-1.08-.29-.43-.65-.5-1.08-.22h0Zm-2.37-1.72c0,.29.22.57.65.86.43.14.72.07.86-.22s0-.57-.43-.86c-.43-.14-.79-.07-1.08.22h0Zm7.11,7.54c-.29.43-.22.93.22,1.51.57.43,1.08.5,1.51.22.14-.43,0-.93-.43-1.51-.57-.43-1.01-.5-1.29-.22h0Zm-2.59-3.02c-.29.29-.29.72,0,1.29.43.43.86.57,1.29.43.29-.29.29-.72,0-1.29-.43-.57-.86-.72-1.29-.43h0Z"/>
  </g>
</svg>