<?xml version="1.0" encoding="UTF-8"?>
<svg id="Ebene_2" data-name="Ebene 2" xmlns="http://www.w3.org/2000/svg" viewBox="0 0 80.21 78.97">
  <defs>
    <style>
      .cls-1 {
        fill: #f2d0b4;
        stroke-width: 0px;
      }
    </style>
  </defs>
  <g id="Ebene_5" data-name="Ebene 5">
    <path class="cls-1" d="M47.5,58.33c.9-.14,1.55-.23,2.19-.34,10.73-1.85,15.75-7.72,16.05-18.76.11-4.04-.87-7.74-3.44-10.97-.34-.42-.44-1.24-.31-1.79.68-2.84.46-5.61-.31-8.4-.34-1.23-1.08-1.69-2.14-1.29-2.72,1.03-5.44,2.12-8.06,3.39-.94.45-1.69.7-2.73.46-5.76-1.35-11.53-1.29-17.32-.04-.78.17-1.75-.15-2.54-.46-2.71-1.06-5.36-2.28-8.08-3.32-1.15-.44-1.87.1-2.22,1.38-.71,2.64-1.01,5.29-.3,7.93.29,1.09.1,1.83-.58,2.65-5.44,6.49-3.9,21.99,4.75,26.42,2.65,1.36,5.7,1.95,8.58,2.87.43.14.9.15,1.24.21-.66,1.74-1.26,3.44-1.96,5.1-.15.35-.65.62-1.05.77-4.28,1.63-7.94.27-10.59-3.54-1.02-1.46-2.59-2.56-3.96-3.76-.32-.28-.87-.46-1.3-.44-.88.04-1.74.25-2.62.4.49.64.95,1.31,1.46,1.93,1.26,1.53,3.06,2.85,3.71,4.6,2.09,5.59,7.01,7.13,12.45,6.38.5-.07,1-.14,1.72-.25,0,2.7.1,5.26-.04,7.81-.08,1.45-1.48,2.15-3.1,1.37-3.56-1.71-7.36-3.18-10.45-5.55C3.27,62.9-2.32,49.23.88,32.8,4.14,16.04,14.6,5.25,31.22,1.13c22.55-5.59,45.34,10.25,48.58,33.39,2.67,19.1-7.85,37.13-25.59,43.84-.43.16-.86.35-1.31.45-1.75.43-2.83-.38-2.84-2.19-.02-3.19,0-6.39.05-9.58.05-3.09-.22-6.08-2.61-8.71Z"/>
  </g>
</svg>