<?xml version="1.0" encoding="UTF-8"?>
<svg id="Ebene_2" data-name="Ebene 2" xmlns="http://www.w3.org/2000/svg" viewBox="0 0 1920 1299.56">
  <defs>
    <style>
      .cls-1 {
        fill: #1d2f3b;
      }

      .cls-1, .cls-2, .cls-3, .cls-4, .cls-5 {
        stroke-width: 0px;
      }

      .cls-6 {
        stroke: #1d2f3b;
        stroke-miterlimit: 10;
      }

      .cls-6, .cls-2 {
        fill: none;
      }

      .cls-3 {
        opacity: .35;
      }

      .cls-3, .cls-5 {
        fill: #192830;
      }

      .cls-4 {
        fill: #f2d0b4;
      }
    </style>
  </defs>
  <g id="Ebene_8" data-name="Ebene 8">
    <path class="cls-1" d="M1539.49,720.96c.22.02.43.04.65.07,4.32.44,8.99.92,16.86,1.73-6.54,33.63-12.86,66.59-19.41,99.5-1.38,6.93-3.47,13.73-5.41,20.54-5.21,18.35-10.63,35.27-26.07,48.75-1.51,1.32-3.12,2.61-4.84,3.86-16.52,12.07-27.41,31.85-36.45,42.91,11.09-33.76,25.99-73.68,37.27-114.6,27.09-98.25,31.65-198.26,18.95-299.22-13.96-111.01-50.98-213.6-111.32-307.9-7.16-11.19-15.25-18.5-28.42-22.2-85.28-23.98-171.84-40.72-259.95-50.24-99.46-10.74-199.09-12.13-298.68-5.06-108.03,7.67-214.55,25.44-318.26,57.53-7.4,2.29-15.32,8.06-19.61,14.47-64.93,97.11-102.95,204.18-116.55,320.04-19.31,164.55,8.75,320.15,88.86,465.69,10.93,19.87,23.68,38.74,36.62,59.76-2.86,2.32-5.8,4.7-8.83,7.16-5.06,4.11-10.39,8.43-16.11,13.07-74.98-104.95-117.93-223.61-134.45-353.48,4.47-.8,8.33-1.49,12.31-2.2,1.11-.2,2.23-.4,3.37-.6v-143.74c-2.6-.23-5.09-.45-7.74-.68-3.42-.3-7.12-.62-11.73-1.02,1.65-18.78,2.52-37.21,5-55.43,16.54-121.72,57.23-234.4,127.52-335.65,4.64-6.68,13.14-12.42,21-14.88,48.94-15.31,98.44-27.55,148.44-37.15h625.03c47.18,9.13,94.15,20.43,140.9,33.98,14.92,4.33,25.18,11.79,33.93,24.94,75.44,113.37,115.59,238.53,126.88,373.58.25,2.99.04,6.02.04,10.74-7.32.54-13.2.98-19.8,1.47v144.26Z"/>
    <path class="cls-1" d="M117.51,131.99c.18-1.14.38-2.27.61-3.39-.24,1.12-.44,2.25-.61,3.39ZM122.59,114.15c.43-1.02.89-2.03,1.36-3.02-.48.99-.94,2-1.36,3.02Z"/>
    <path class="cls-5" d="M1257.54,131.99c47.18,9.13,94.15,20.43,140.9,33.98,14.92,4.33,25.18,11.79,33.93,24.94,75.44,113.37,115.59,238.53,126.88,373.58.25,2.99.04,6.02.04,10.74-7.32.54-13.2.98-19.8,1.47v144.26c.22.02.43.04.65.07,4.32.44,8.99.92,16.86,1.73-6.54,33.63-12.86,66.59-19.41,99.5-1.38,6.93-3.47,13.73-5.41,20.54-5.21,18.35-10.63,35.27-26.07,48.75-2.02,6.17-4.2,12.42-6.54,18.71,2.9-3.24,5.92-6.42,9.04-9.54,10.59-10.6,21.58-12.93,34.96-3.68,10.63,7.35,22.67,12.66,34.57,19.14-46.31,40.6-71.92,89.84-80.83,150.45-15.69-8.17-32.08-15.48-46.88-25.21-4.14-2.73-5.83-12.96-4.83-19.12.86-5.26,1.89-10.44,3.08-15.53-4.33,6-8.91,11.96-13.76,17.86-.27,3.19-.11,6.23.96,8.83,8.61,20.92-7.51,31-17.02,46.27-6.37-6.92-12.14-13.17-17.73-19.25-3.46,3.22-6.93,6.31-10.38,9.27,1.53,1.41,3.07,2.88,4.54,4.43,4.16,4.4,8.12,8.98,13.26,14.71-85.53,56.82-176.61,96.79-273.84,118.1h48.66c78.48-22.78,157.03-58.07,235.69-107.02,2.99,3.14,6.18,6.37,9.23,9.75.96,1.06,1.53,2.48,2.26,3.71-43.82,37.88-95.45,69.11-152.13,93.56h641.58V131.99h-662.46ZM1549.17,416.2c-24.34-84.5-59.38-163.92-110.45-239,35,0,66.69-.66,98.29.71,4.7.21,12.83,9.95,12.89,15.35.86,74.2.58,148.4-.73,222.94ZM1443.48,1105.26c-5.18-5.29-9.36-9.56-14.59-14.89,7.86-11.74,15.32-22.87,23.53-35.13,9.32,4.91,17.97,9.47,28.29,14.9-12.99,12.25-24.63,23.23-37.23,35.12ZM1553.61,1047.92c-8.21,10.48-19.31,18.9-29.9,27.22-7.28,5.73-12.77,1.81-13.59-6.61-.67-6.9-.53-14.22.99-20.96,10.12-44.93,30.47-84.34,65.36-115.12,4.64-4.09,12.48-6.04,18.77-5.9,2,.05,3.78,10.08,5.27,14.42-5.55,41.41-22.6,75.98-46.9,106.95ZM1581.29,905.42c-15.91-8.36-30.72-16.14-45.4-23.85,9.12-36.22,17.91-71.16,26.71-106.1.64.03,1.29.06,1.94.09,1.91,12.93,4.67,25.81,5.5,38.81.85,13.45,6.4,19.26,19.95,17.09,3.4-.55,6.95-.08,12.98-.08-7.29,24.89-14.11,48.19-21.68,74.04ZM496.18,1073.45c-3.8-3.12-7.55-6.35-11.28-9.7-5.06,4.11-10.39,8.43-16.11,13.07-74.98-104.95-117.93-223.61-134.45-353.48,4.47-.8,8.33-1.49,12.31-2.2,1.11-.2,2.23-.4,3.37-.6v-143.74c-2.6-.23-5.09-.45-7.74-.68-3.42-.3-7.12-.62-11.73-1.02,1.65-18.78,2.52-37.21,5-55.43,16.54-121.72,57.23-234.4,127.52-335.65,4.64-6.68,13.14-12.42,21-14.88,48.94-15.31,98.44-27.55,148.44-37.15H0v1075h611.92c-56.75-24.47-109.03-55.88-154.26-94.37,4.13-4.33,8.23-8.63,11.72-12.28,86.4,47.06,172.72,83.11,259.02,106.65h53.6c-104.48-21.57-204.84-61.81-302.12-117.87,6.34-6.1,11.67-11.22,16.3-15.67Z"/>
    <path class="cls-1" d="M1771.73,125.42c.27,1.07.53,2.16.76,3.25-.22-1.09-.48-2.18-.76-3.25ZM1771.28,123.79c-.45-1.61-.96-3.2-1.53-4.76.56,1.56,1.07,3.15,1.53,4.76Z"/>
    <path class="cls-2" d="M1278.42,1206.99c-199.68,86.15-462.08,88.14-666.5,0h116.48c151.6,41.35,303.15,44.1,454.97,0h95.05Z"/>
    <path class="cls-1" d="M1430.55,1113.43c-43.82,37.88-95.45,69.11-152.13,93.56h-95.05c78.48-22.78,157.03-58.07,235.69-107.02,2.99,3.14,6.18,6.37,9.23,9.75.96,1.06,1.53,2.48,2.26,3.71Z"/>
    <path class="cls-4" d="M517.9,781.7c-.04,21.71-15.38,39.51-35.82,42.39-17.76,2.5-38.91-10.79-43.27-30.82-5.69-26.11-9.32-52.78-12-79.4-2.52-25.13-2.65-50.49-3.83-75.76-.67-.08-1.34-.17-2.01-.26,4.98-48.24,9.47-96.54,15.15-144.7,2.95-25.02,22.93-40.88,45.94-38.73,22.37,2.08,37.37,20.28,35.68,46.32-2.58,39.82-9.17,79.54-9.36,119.32-.22,44.8,4.74,89.62,7.51,134.42.57,9.08,2.02,18.15,2.01,27.22Z"/>
    <path class="cls-2" d="M623.95,1247.78c-10.19,17.8-19.45,33.95-29.66,51.78-54.08-30.92-107.76-61.59-161.96-92.57h104.04c28.1,15.36,57.32,28.87,87.58,40.79Z"/>
    <path class="cls-2" d="M1550.24,0c12.81,12.06,25.62,24.12,38.19,35.95-2.1,6-3.75,10.72-6.09,17.39-11.72-17.91-22.78-34.79-33.84-51.68.58-.55,1.16-1.11,1.74-1.66Z"/>
    <path class="cls-2" d="M294.72,65.99c-.02-21.54-7.68-29.01-29.41-29.07-48.06-.13-96.12-.1-144.18-.01-23.69.05-29.85,6.1-29.9,29.57-.05,21.83-.06,43.67-.06,65.51h26.34c.17-1.14.37-2.27.61-3.39-.23,1.12-.43,2.25-.61,3.39h177.26c-.01-22-.03-44-.05-66ZM122.59,114.15c.42-1.02.88-2.03,1.36-3.02-.47.99-.93,2-1.36,3.02Z"/>
    <path class="cls-2" d="M1257.54,131.99h-625.03c61.41-11.8,123.57-19.64,186.35-24.34,148.24-11.09,294.46-3.56,438.68,24.34Z"/>
    <path class="cls-2" d="M1799.38,66.84c-.02-22.95-6.91-29.86-29.94-29.92-47.6-.12-95.2.02-142.8-.07-24.74-.04-30.6,5.74-30.6,30.93v64.21h203.36c0-21.72,0-43.43-.02-65.15ZM1769.75,119.03c.57,1.56,1.08,3.15,1.53,4.76-.46-1.61-.97-3.2-1.53-4.76ZM1771.73,125.42c.28,1.07.54,2.16.76,3.25-.23-1.09-.49-2.18-.76-3.25Z"/>
    <path class="cls-1" d="M1549.17,413.7c-24.34-84.5-59.38-163.92-110.45-239,35,0,66.69-.66,98.29.71,4.7.21,12.83,9.95,12.89,15.35.86,74.2.58,148.4-.73,222.94Z"/>
    <path class="cls-1" d="M1578.14,915.68c-46.31,40.6-71.92,89.84-80.83,150.45-15.69-8.17-32.08-15.48-46.88-25.21-4.14-2.73-5.83-12.96-4.83-19.12.86-5.26,1.89-10.44,3.08-15.53,8.59-36.44,25.76-68.58,50.89-96.51,2.9-3.24,5.92-6.42,9.04-9.54,10.59-10.6,21.58-12.93,34.96-3.68,10.63,7.35,22.67,12.66,34.57,19.14Z"/>
    <path class="cls-1" d="M1600.51,940.47c-5.55,41.41-22.6,75.98-46.9,106.95-8.21,10.48-19.31,18.9-29.9,27.22-7.28,5.73-12.77,1.81-13.59-6.61-.67-6.9-.53-14.22.99-20.96,10.12-44.93,30.47-84.34,65.36-115.12,4.64-4.09,12.48-6.04,18.77-5.9,2,.05,3.78,10.08,5.27,14.42Z"/>
    <path class="cls-1" d="M1602.97,831.38c-7.29,24.89-14.11,48.19-21.68,74.04-15.91-8.36-30.72-16.14-45.4-23.85,9.12-36.22,17.91-71.16,26.71-106.1.64.03,1.29.06,1.94.09,1.91,12.93,4.67,25.81,5.5,38.81.85,13.45,6.4,19.26,19.95,17.09,3.4-.55,6.95-.08,12.98-.08Z"/>
    <path class="cls-1" d="M1435.88,1033.46c8.61,20.92-7.51,31-17.02,46.27-6.37-6.92-12.14-13.17-17.73-19.25-1.44-1.55-2.86-3.09-4.27-4.62,15.5-25.26,30.48-49.66,45.45-74.06.54.12,1.08.25,1.62.37-2.28,9.64-5,19.2-6.69,28.94-.75,4.31-1.96,9.07-2.32,13.52-.27,3.19-.11,6.23.96,8.83Z"/>
    <path class="cls-2" d="M700.73,1273.83c-31.02,8.43-58.06,15.79-89.44,24.32,9.53-16.99,17.13-30.56,25.26-45.06,20.65,6.67,40.51,13.09,64.18,20.74Z"/>
    <path class="cls-1" d="M1480.71,1070.14c-12.99,12.25-24.63,23.23-37.23,35.12-5.18-5.29-9.36-9.56-14.59-14.89,7.86-11.74,15.32-22.87,23.53-35.13,9.32,4.91,17.97,9.47,28.29,14.9Z"/>
    <path class="cls-1" d="M117.51,131.99c.17-1.14.37-2.27.61-3.39-.23,1.12-.43,2.25-.61,3.39Z"/>
    <path class="cls-1" d="M123.95,111.13c-.47.99-.93,2-1.36,3.02.42-1.02.88-2.03,1.36-3.02Z"/>
    <path class="cls-1" d="M1769.75,119.03c.57,1.56,1.08,3.15,1.53,4.76-.46-1.61-.97-3.2-1.53-4.76Z"/>
    <path class="cls-1" d="M1772.49,128.67c-.23-1.09-.49-2.18-.76-3.25.28,1.07.54,2.16.76,3.25Z"/>
    <path class="cls-6" d="M517.9,781.7c-.04,21.71-15.38,39.51-35.82,42.39-17.76,2.5-38.91-10.79-43.27-30.82-5.69-26.11-9.32-52.78-12-79.4-2.52-25.13-2.65-50.49-3.83-75.76-.67-.08-1.34-.17-2.01-.26,4.98-48.24,9.47-96.54,15.15-144.7,2.95-25.02,22.93-40.88,45.94-38.73,22.37,2.08,37.37,20.28,35.68,46.32-2.58,39.82-9.17,79.54-9.36,119.32-.22,44.8,4.74,89.62,7.51,134.42.57,9.08,2.02,18.15,2.01,27.22Z"/>
    <path class="cls-1" d="M728.4,1206.99h-116.48c-56.75-24.47-109.03-55.88-154.26-94.37,4.13-4.33,8.23-8.63,11.72-12.28,86.4,47.06,172.72,83.11,259.02,106.65Z"/>
    <path class="cls-4" d="M1408.55,1088.89c-85.53,56.82-176.61,96.79-273.84,118.1h-352.71c-104.48-21.57-204.84-61.81-302.12-117.87,6.34-6.1,11.67-11.22,16.3-15.67,2.37-2.28,4.56-4.39,6.62-6.37,295.23,156.66,589.27,180.9,884.05-.95,1.25,1.18,2.57,2.38,3.9,3.62,1.53,1.41,3.07,2.88,4.54,4.43,4.16,4.4,8.12,8.98,13.26,14.71Z"/>
    <path class="cls-4" d="M1435.88,1033.46c8.61,20.92-7.51,31-17.02,46.27-6.37-6.92-12.14-13.17-17.73-19.25-1.44-1.55-2.86-3.09-4.27-4.62,15.5-25.26,30.48-49.66,45.45-74.06.54.12,1.08.25,1.62.37-2.28,9.64-5,19.2-6.69,28.94-.75,4.31-1.96,9.07-2.32,13.52-.27,3.19-.11,6.23.96,8.83Z"/>
    <path class="cls-6" d="M1549.17,416.2c-24.34-84.5-59.38-163.92-110.45-239,35,0,66.69-.66,98.29.71,4.7.21,12.83,9.95,12.89,15.35.86,74.2.58,148.4-.73,222.94Z"/>
    <path class="cls-4" d="M1539.49,720.96c.22.02.43.04.65.07,4.32.44,8.99.92,16.86,1.73-6.54,33.63-12.86,66.59-19.41,99.5-1.38,6.93-3.47,13.73-5.41,20.54-5.21,18.35-10.63,35.27-26.07,48.75-1.51,1.32-3.12,2.61-4.84,3.86-16.52,12.07-27.41,31.85-36.45,42.91,11.09-33.76,25.99-73.68,37.27-114.6,27.09-98.25,31.65-198.26,18.95-299.22-13.96-111.01-50.98-213.6-111.32-307.9-7.16-11.19-15.25-18.5-28.42-22.2-85.28-23.98-171.84-40.72-259.95-50.24-99.46-10.74-199.09-12.13-298.68-5.06-108.03,7.67-214.55,25.44-318.26,57.53-7.4,2.29-15.32,8.06-19.61,14.47-64.93,97.11-102.95,204.18-116.55,320.04-19.31,164.55,8.75,320.15,88.86,465.69,10.93,19.87,23.68,38.74,36.62,59.76-2.86,2.32-5.8,4.7-8.83,7.16-5.06,4.11-10.39,8.43-16.11,13.07-74.98-104.95-117.93-223.61-134.45-353.48,4.47-.8,8.33-1.49,12.31-2.2,1.11-.2,2.23-.4,3.37-.6v-143.74c-2.6-.23-5.09-.45-7.74-.68-3.42-.3-7.12-.62-11.73-1.02,1.65-18.78,2.52-37.21,5-55.43,16.54-121.72,57.23-234.4,127.52-335.65,4.64-6.68,13.14-12.42,21-14.88,48.94-15.31,98.44-27.55,148.44-37.15h625.03c47.18,9.13,94.15,20.43,140.9,33.98,14.92,4.33,25.18,11.79,33.93,24.94,75.44,113.37,115.59,238.53,126.88,373.58.25,2.99.04,6.02.04,10.74-7.32.54-13.2.98-19.8,1.47v144.26Z"/>
    <path class="cls-6" d="M1578.14,916.18c-46.31,40.6-71.92,89.84-80.83,150.45-15.69-8.17-32.08-15.48-46.88-25.21-4.14-2.73-5.83-12.96-4.83-19.12.86-5.26,1.89-10.44,3.08-15.53,8.59-36.44,25.76-68.58,50.89-96.51,2.9-3.24,5.92-6.42,9.04-9.54,10.59-10.6,21.58-12.93,34.96-3.68,10.63,7.35,22.67,12.66,34.57,19.14Z"/>
    <path class="cls-6" d="M1600.51,940.97c-5.55,41.41-22.6,75.98-46.9,106.95-8.21,10.48-19.31,18.9-29.9,27.22-7.28,5.73-12.77,1.81-13.59-6.61-.67-6.9-.53-14.22.99-20.96,10.12-44.93,30.47-84.34,65.36-115.12,4.64-4.09,12.48-6.04,18.77-5.9,2,.05,3.78,10.08,5.27,14.42Z"/>
    <path class="cls-3" d="M1464.82,938.32c11.09-33.76,25.99-73.68,37.27-114.6,27.09-98.25,31.65-198.26,18.95-299.22-13.96-111.01-50.98-213.6-111.32-307.9-7.16-11.19-15.25-18.5-28.42-22.2-85.28-23.98-171.84-40.72-259.95-50.24-99.46-10.74-199.09-12.13-298.68-5.06-108.03,7.67-214.55,25.44-318.26,57.53-7.4,2.29-15.32,8.06-19.61,14.47-64.93,97.11-102.95,204.18-116.55,320.04-19.31,164.55,8.75,320.15,88.86,465.69,10.93,19.87,23.68,38.74,36.62,59.76-2.86,2.32-5.8,4.7-8.83,7.16,3.73,3.35,7.48,6.58,11.28,9.7,2.37-2.28,4.56-4.39,6.62-6.37,295.23,156.66,589.27,180.9,884.05-.95,1.25,1.18,2.57,2.38,3.9,3.62,3.45-2.96,6.92-6.05,10.38-9.27-1.44-1.55-2.86-3.09-4.27-4.62,15.5-25.26,30.48-49.66,45.45-74.06.54.12,1.08.25,1.62.37-2.28,9.64-5,19.2-6.69,28.94-.75,4.31-1.96,9.07-2.32,13.52,4.85-5.9,9.43-11.86,13.76-17.86,8.59-36.44,25.76-68.58,50.89-96.51,2.34-6.29,4.52-12.54,6.54-18.71-1.51,1.32-3.12,2.61-4.84,3.86-16.52,12.07-27.41,31.85-36.45,42.91ZM482.08,824.09c-17.76,2.5-38.91-10.79-43.27-30.82-5.69-26.11-9.32-52.78-12-79.4-2.52-25.13-2.65-50.49-3.83-75.76-.67-.08-1.34-.17-2.01-.26,4.98-48.24,9.47-96.54,15.15-144.7,2.95-25.02,22.93-40.88,45.94-38.73,22.37,2.08,37.37,20.28,35.68,46.32-2.58,39.82-9.17,79.54-9.36,119.32-.22,44.8,4.74,89.62,7.51,134.42.57,9.08,2.02,18.15,2.01,27.22-.04,21.71-15.38,39.51-35.82,42.39Z"/>
    <path class="cls-4" d="M517.74,500.74c-2.58,39.82-9.17,79.54-9.36,119.32-.22,44.8,4.74,89.62,7.51,134.42.57,9.08,2.02,18.15,2.01,27.22-.04,21.71-15.38,39.51-35.82,42.39-17.76,2.5-38.91-10.79-43.27-30.82-5.69-26.11-9.32-52.78-12-79.4-2.52-25.13-2.65-50.49-3.83-75.76-.67-.08-1.34-.17-2.01-.26,4.98-48.24,9.47-96.54,15.15-144.7,2.95-25.02,22.93-40.88,45.94-38.73,22.37,2.08,37.37,20.28,35.68,46.32Z"/>
  </g>
</svg>