<?xml version="1.0" encoding="UTF-8"?>
<svg id="Ebene_2" data-name="Ebene 2" xmlns="http://www.w3.org/2000/svg" xmlns:xlink="http://www.w3.org/1999/xlink" viewBox="0 0 1279 728.88">
  <defs>
    <style>
      .cls-1 {
        fill: url(#Unbenannter_Verlauf_10);
      }

      .cls-1, .cls-2, .cls-3, .cls-4, .cls-5, .cls-6 {
        stroke-width: 0px;
      }

      .cls-1, .cls-4 {
        opacity: .25;
      }

      .cls-2 {
        fill: #1d2f3b;
      }

      .cls-3 {
        fill: #4ea2ac;
      }

      .cls-4 {
        fill: url(#Unbenannter_Verlauf_11);
      }

      .cls-5 {
        fill: #f2d0b4;
      }

      .cls-7 {
        fill: none;
        stroke: #fff;
        stroke-miterlimit: 10;
        stroke-width: .76px;
      }

      .cls-6 {
        fill: #4dad6e;
      }
    </style>
    <linearGradient id="Unbenannter_Verlauf_11" data-name="Unbenannter Verlauf 11" x1="0" y1="364.88" x2="344.9" y2="364.88" gradientUnits="userSpaceOnUse">
      <stop offset="0" stop-color="#000" stop-opacity="0"/>
      <stop offset=".06" stop-color="rgba(26, 23, 20, .11)" stop-opacity=".11"/>
      <stop offset=".2" stop-color="rgba(83, 71, 61, .34)" stop-opacity=".34"/>
      <stop offset=".35" stop-color="rgba(131, 113, 98, .54)" stop-opacity=".54"/>
      <stop offset=".49" stop-color="rgba(171, 147, 127, .71)" stop-opacity=".71"/>
      <stop offset=".62" stop-color="rgba(202, 173, 150, .84)" stop-opacity=".84"/>
      <stop offset=".76" stop-color="rgba(224, 192, 166, .93)" stop-opacity=".93"/>
      <stop offset=".88" stop-color="rgba(237, 204, 176, .98)" stop-opacity=".98"/>
      <stop offset="1" stop-color="#f2d0b4"/>
    </linearGradient>
    <linearGradient id="Unbenannter_Verlauf_10" data-name="Unbenannter Verlauf 10" x1="953.17" y1="364.88" x2="1278" y2="364.88" gradientUnits="userSpaceOnUse">
      <stop offset="0" stop-color="#f2d0b4"/>
      <stop offset=".12" stop-color="rgba(237, 204, 176, .98)" stop-opacity=".98"/>
      <stop offset=".24" stop-color="rgba(224, 192, 166, .93)" stop-opacity=".93"/>
      <stop offset=".38" stop-color="rgba(202, 173, 150, .84)" stop-opacity=".84"/>
      <stop offset=".51" stop-color="rgba(171, 147, 127, .71)" stop-opacity=".71"/>
      <stop offset=".65" stop-color="rgba(131, 113, 98, .54)" stop-opacity=".54"/>
      <stop offset=".8" stop-color="rgba(83, 71, 61, .34)" stop-opacity=".34"/>
      <stop offset=".94" stop-color="rgba(26, 23, 20, .11)" stop-opacity=".11"/>
      <stop offset="1" stop-color="#000" stop-opacity="0"/>
    </linearGradient>
  </defs>
  <g id="Ebene_3" data-name="Ebene 3">
    <path class="cls-2" d="M1279,302.83c0,23.98-1.05,56.93-10.04,97.55-12.27,55.44-32.51,94.38-45,118-28.97,54.79-60.45,90.87-80,113-24.31,27.52-47.19,48.76-65,64h-3c.36-.31.72-.62,1.09-.94l-11.59-12.56,7-6,11.54,12.5c16.42-14.52,36.17-33.46,56.96-57,19.55-22.13,51.03-58.21,80-113,12.49-23.62,32.73-62.56,45-118,10.24-46.25,10.18-82.56,10-107-.28-37.77-.56-74.96-16-121-13.9-41.45-33.22-69.57-40-79-30.18-42.03-65.5-67.14-89-81h3c23.5,13.86,58.82,38.97,89,81,6.78,9.43,26.1,37.55,40,79,15.44,46.04,15.72,83.23,16,121,.02,2.97.04,6.12.04,9.45Z"/>
    <path class="cls-4" d="M344.9,728.88H0V.88h262.61c-8.95,8.76-21.21,20.69-36.61,38,0,0-20.23,22.75-37.75,46.63-36.92,50.32-54.33,97.32-58.58,109.23-19.65,55.08-22.21,100.48-22.67,110.14-4.75,100.22,35.66,175.87,55,211,25.45,46.23,48.91,88.87,98,123,37.45,26.04,67.71,31.76,80,63,3.39,8.61,4.87,17.79,4.9,27Z"/>
    <path class="cls-1" d="M1278,.88v728h-324.83c.3-8.24,1.8-16.41,4.84-24.13,12.29-31.24,42.55-36.97,80-63,49.09-34.13,72.55-76.77,98-123,19.34-35.14,59.75-110.78,55-211-.46-9.66-3.02-55.06-22.67-110.14-4.25-11.91-21.66-58.91-58.58-109.23-17.52-23.89-37.75-46.63-37.75-46.63-17.15-19.29-30.42-31.89-39.54-40.87h245.53Z"/>
  </g>
  <g id="Ebene_10" data-name="Ebene 10">
    <path class="cls-6" d="M94.67.38c-23.15,21.14-37.92,37.87-43.67,44.5-12.96,14.95-31.42,36.54-50,65.39v-48.64C22.09,38.92,44.45,18.92,65.93.38h28.74Z"/>
    <path class="cls-3" d="M65.93.38C44.45,18.92,22.09,38.92,1,61.63V28.45C9.52,19.59,18.89,10.19,29.2.38h36.73Z"/>
    <path class="cls-2" d="M29.2.38C18.89,10.19,9.52,19.59,1,28.45V.38h28.2Z"/>
    <path class="cls-3" d="M75.54,728.88h-35.43c-14.43-15.77-27.4-31.44-39.11-46.75v-39.01c23.29,33.21,48.84,61.59,74.54,85.76Z"/>
    <path class="cls-2" d="M40.11,728.88H1v-46.75c11.71,15.31,24.68,30.98,39.11,46.75Z"/>
    <path class="cls-7" d="M1107,1.88c-.05.38-.17.81-.58,1.32-.48-.92-1.22-1.86-2.18-2.82h2.65c.14.51.18,1.01.11,1.5Z"/>
    <path class="cls-6" d="M1279,57.98v47.46c-33.07-49.02-72.43-81.85-105.33-105.06h37.43c28.22,20.48,50.38,39.86,67.9,57.6Z"/>
    <path class="cls-2" d="M1279,.38v19.59c-6.46-6.81-12.98-13.33-19.53-19.59h19.53Z"/>
    <path class="cls-3" d="M1279,19.97v38.01c-17.52-17.74-39.68-37.12-67.9-57.6h48.37c6.55,6.26,13.07,12.78,19.53,19.59Z"/>
    <path class="cls-6" d="M1279,562.33v72.21c-10.52,13.83-21.11,26.98-31.37,39.73-16.91,21.01-33.49,39.1-49.18,54.61h-71.51c52-39.66,82.68-74.78,93.06-87,15.65-18.43,37.74-44.85,59-79.55Z"/>
    <path class="cls-3" d="M1279,634.54v53.45c-9.45,13.26-19.81,26.98-31.18,40.89h-49.37c15.69-15.51,32.27-33.6,49.18-54.61,10.26-12.75,20.85-25.9,31.37-39.73Z"/>
    <path class="cls-2" d="M1279,687.99v40.89h-31.18c11.37-13.91,21.73-27.63,31.18-40.89Z"/>
    <path class="cls-6" d="M137.8,728.88h-62.26c-25.7-24.17-51.25-52.55-74.54-85.76v-68.75c11.88,20.11,26.08,41.22,43,62.51,10.14,12.76,41.09,50.54,93.8,92Z"/>
    <path class="cls-2" d="M1107,5.96c-.21,1.64-1.61,4.02-19,10.41-20.77,7.64-37.43,11.11-44,12.5-33.51,7.08-27.31,7.08-50,11.45-17.83,3.44-15.13,2.18-54,8.34-22.32,3.53-37.61,6.22-61,9.37-14.39,1.93-1.79,0-30,3.12-15.66,1.74-17.76,2.14-22,1.04-10.42-2.69-17.81-10.3-26-18.74-5.51-5.68-7.13-8.6-14-14.58-6.73-5.86-10.95-8.08-14-9.37-5.78-2.44-10.68-2.92-13-3.13-71.31-6.36-101-6.24-101-6.24,0,0-34.02.13-86,2.08,0,0-9.68.36-40,3.12-19.83,1.81-22.47,2.43-26,4.17-12.46,6.11-12.16,14.24-30,30.2-9,8.05-14,12.42-22,14.58-10.26,2.76-17.87-.18-30-3.13-10.59-2.57.5.95-44-6.25-32.61-5.27-35.86-6.73-80-14.58-22.5-4-34.87-5.97-56-10.41-30.5-6.41-15.33-4.53-38-9.37-10.85-2.32-16.36-3.18-23-7.29-5.54-3.43-10.57-8.31-14.06-12.87h3.4c3.05,3.13,6.72,6.17,10.66,8.5,6.64,3.94,12.15,4.77,23,7,22.67,4.65,7.5,2.84,38,9,21.13,4.26,33.5,6.16,56,10,44.14,7.54,47.39,8.93,80,14,44.5,6.91,33.41,3.53,44,6,12.13,2.83,19.74,5.65,30,3,8-2.07,13-6.26,22-14,17.84-15.33,17.54-23.13,30-29,3.53-1.66,6.17-2.27,26-4,30.32-2.65,40-3,40-3,51.98-1.88,86-2,86-2,0,0,29.69-.11,101,6,2.32.2,7.22.66,13,3,3.05,1.24,7.27,3.37,14,9,6.87,5.74,8.49,8.55,14,14,8.19,8.11,15.58,15.42,26,18,4.24,1.05,6.34.67,22-1,28.21-3,15.61-1.14,30-3,23.39-3.02,38.68-5.61,61-9,38.87-5.91,36.17-4.7,54-8,22.69-4.2,16.49-4.2,50-11,6.57-1.33,23.23-4.67,44-12,13.18-4.65,17.17-7.09,18.42-8.68.49.94.69,1.86.58,2.76Z"/>
    <path class="cls-5" d="M213.62,728.88h-75.82c-52.71-41.46-83.66-79.24-93.8-92-16.92-21.29-31.12-42.4-43-62.51v-99.32c5.52,14.65,10.19,25.14,12.5,30.33,51.14,114.88,136.82,183.67,200.12,223.5Z"/>
    <path class="cls-5" d="M135.15.38c-2.39,1.94-3.65,3-3.65,3C86.87,41.06,35.44,84.48,2.5,148.38c-.51.98-1.01,1.97-1.5,2.95v-41.06c18.58-28.85,37.04-50.44,50-65.39,5.75-6.63,20.52-23.36,43.67-44.5h40.48Z"/>
    <path class="cls-5" d="M1279,105.44v54.42c-3.46-7.82-7.29-15.65-11.5-23.48-14.2-26.38-45.9-76.96-135.35-136h41.52c32.9,23.21,72.26,56.04,105.33,105.06Z"/>
    <path class="cls-5" d="M1279,470.78v91.55c-21.26,34.7-43.35,61.12-59,79.55-10.38,12.22-41.06,47.34-93.06,87h-70.62c24.11-14.07,74.76-47.84,129.18-114.5,32.56-39.89,68.66-84.11,93.5-143.6Z"/>
    <rect class="cls-2" x="1261.96" y="289.88" width="11.5" height="1.48"/>
    <polygon class="cls-2" points="1157.98 34.7 1150.57 43.49 1149.43 42.54 1156.85 33.75 1157.98 34.7"/>
    <polygon class="cls-2" points="1200.44 74.27 1191.98 82.06 1190.98 80.97 1199.44 73.18 1200.44 74.27"/>
    <polygon class="cls-2" points="1233.84 120.92 1224.43 127.54 1223.58 126.32 1232.98 119.71 1233.84 120.92"/>
    <polygon class="cls-2" points="1256.32 174.18 1245.64 178.44 1245.09 177.06 1255.78 172.81 1256.32 174.18"/>
    <polygon class="cls-2" points="1270.5 245.71 1259.08 247 1258.91 245.53 1270.34 244.24 1270.5 245.71"/>
    <polygon class="cls-2" points="1209.04 528.84 1208.29 530.12 1198.38 524.29 1199.13 523.01 1209.04 528.84"/>
    <polygon class="cls-2" points="1186.78 565.37 1185.9 566.57 1176.64 559.76 1177.51 558.56 1186.78 565.37"/>
    <polygon class="cls-2" points="1152.78 610.37 1151.9 611.57 1142.64 604.76 1143.51 603.56 1152.78 610.37"/>
    <polygon class="cls-2" points="1114.34 653.05 1113.31 654.11 1105.07 646.08 1106.11 645.02 1114.34 653.05"/>
    <polygon class="cls-2" points="1234.25 480.28 1233.63 481.62 1223.17 476.85 1223.78 475.51 1234.25 480.28"/>
    <polygon class="cls-2" points="1253.32 427 1252.78 428.38 1242.09 424.13 1242.64 422.75 1253.32 427"/>
    <polygon class="cls-2" points="1267.5 355.48 1267.34 356.95 1255.91 355.65 1256.08 354.18 1267.5 355.48"/>
    <path class="cls-2" d="M206.41,694.44c.37.32.73.63,1.09.94h-3c-17.81-15.24-40.69-36.48-65-64-19.55-22.13-51.03-58.21-80-113-12.49-23.62-32.73-62.56-45-118-10.24-46.25-10.18-82.56-10-107,.28-37.77.56-74.96,16-121,13.9-41.45,33.22-69.57,40-79C90.68,51.35,126,26.24,149.5,12.38h3c-23.5,13.86-58.82,38.97-89,81-6.78,9.43-26.1,37.55-40,79-15.44,46.04-15.72,83.23-16,121-.18,24.44-.24,60.75,10,107,12.27,55.44,32.51,94.38,45,118,28.97,54.79,60.45,90.87,80,113,20.79,23.54,40.54,42.48,56.96,57l11.54-12.5,7,6-11.59,12.56Z"/>
    <rect class="cls-2" x="10" y="289.88" width="11.5" height="1.48"/>
    <polygon class="cls-2" points="134.02 42.54 132.89 43.49 125.48 34.7 126.61 33.75 134.02 42.54"/>
    <polygon class="cls-2" points="92.48 80.97 91.48 82.06 83.02 74.27 84.02 73.18 92.48 80.97"/>
    <polygon class="cls-2" points="59.88 126.32 59.03 127.54 49.62 120.92 50.47 119.71 59.88 126.32"/>
    <polygon class="cls-2" points="38.37 177.06 37.82 178.44 27.13 174.18 27.68 172.81 38.37 177.06"/>
    <polygon class="cls-2" points="24.55 245.53 24.38 247 12.95 245.71 13.12 244.24 24.55 245.53"/>
    <polygon class="cls-2" points="85.08 524.29 75.17 530.12 74.42 528.84 84.33 523.01 85.08 524.29"/>
    <polygon class="cls-2" points="106.82 559.76 97.56 566.57 96.68 565.37 105.94 558.56 106.82 559.76"/>
    <polygon class="cls-2" points="140.82 604.76 131.56 611.57 130.68 610.37 139.94 603.56 140.82 604.76"/>
    <polygon class="cls-2" points="178.38 646.08 170.15 654.11 169.12 653.05 177.35 645.02 178.38 646.08"/>
    <polygon class="cls-2" points="60.29 476.85 49.83 481.62 49.21 480.28 59.67 475.51 60.29 476.85"/>
    <rect class="cls-2" x="30" y="424.82" width="11.5" height="1.49" transform="translate(-154.69 43.31) rotate(-21.68)"/>
    <polygon class="cls-2" points="27.55 355.65 16.12 356.95 15.95 355.48 27.38 354.18 27.55 355.65"/>
  </g>
</svg>