<?xml version="1.0" encoding="UTF-8"?>
<svg id="Ebene_2" data-name="Ebene 2" xmlns="http://www.w3.org/2000/svg" viewBox="0 0 456.15 956">
  <defs>
    <style>
      .cls-1 {
        stroke-width: .65px;
      }

      .cls-1, .cls-2, .cls-3, .cls-4 {
        fill: none;
      }

      .cls-1, .cls-3, .cls-4 {
        stroke: #1d2f3b;
        stroke-miterlimit: 10;
      }

      .cls-5 {
        fill: #1d2f3b;
      }

      .cls-5, .cls-2, .cls-6, .cls-7, .cls-8 {
        stroke-width: 0px;
      }

      .cls-3 {
        stroke-width: .64px;
      }

      .cls-6 {
        opacity: .35;
      }

      .cls-6, .cls-8 {
        fill: #192830;
      }

      .cls-7 {
        fill: #f2d0b4;
      }

      .cls-4 {
        stroke-width: .54px;
      }
    </style>
  </defs>
  <g id="Ebene_8" data-name="Ebene 8">
    <path class="cls-5" d="M241,95.5c-.34.02-.67.05-1.01.07-.53.04-1.06.08-1.59.12-.38.03-.76.06-1.15.1-1.25.11-2.5.23-3.75.36-1.25.13-2.5.28-3.75.44s-2.5.33-3.75.51c-.6.08-1.19.17-1.78.27-1,.15-1.99.31-2.98.48-1,.17-2,.35-2.99.53-31.28,5.8-62.13,19.24-92.16,43.51-2.14,1.73-4.44,6.09-5.68,10.94-18.8,73.44-29.81,154.42-33.75,242.04-5.59,124.44,2.53,242.12,25.73,352.19,3.17,15.03,6.86,29.3,10.61,45.2-.83,1.75-1.68,3.55-2.56,5.41-1.47,3.11-3.01,6.38-4.67,9.89-21.71-79.38-34.15-169.12-38.93-267.33,1.29-.61,2.41-1.13,3.56-1.67.33-.15.65-.3.98-.45v-108.71c-.75-.17-1.47-.34-2.24-.51-.99-.23-2.06-.47-3.4-.78.48-14.2.73-28.14,1.45-41.92,4.79-92.05,16.57-177.27,36.93-253.84,1.34-5.05,3.8-9.39,6.08-11.25,11.63-9.51,23.38-17.45,35.22-24,.98-.55,1.96-1.08,2.94-1.6h82.64Z"/>
    <path class="cls-5" d="M425.83,429.32v109.11c.06.01.13.03.19.05,1.18.31,2.45.65,4.5,1.21.13.03.25.06.38.1-.13,1.7-.25,3.4-.38,5.09-1.75,23.67-3.47,46.93-5.24,70.16-.4,5.24-1,10.38-1.57,15.53-1.51,13.88-3.07,26.67-7.55,36.87-.15.34-.3.69-.46,1.02-.04.1-.09.2-.14.3-.09.19-.18.38-.28.57-.17.35-.34.69-.52,1.03-4.78,9.13-7.93,24.09-10.55,32.45.11-.86.22-1.73.33-2.6.55-4.36,1.14-8.85,1.74-13.46.12-.92.24-1.84.36-2.77s.25-1.86.37-2.8c.15-1.15.31-2.31.46-3.48,0-.02,0-.05,0-.07.23-1.75.46-3.52.69-5.3.22-1.63.43-3.26.65-4.91.01-.14.03-.27.05-.39.14-1.14.29-2.27.44-3.41.3-2.28.59-4.57.89-6.88.73-5.78,1.47-11.65,2.18-17.59.24-1.89.46-3.79.68-5.7.13-1.12.26-2.23.39-3.35.13-1.11.25-2.22.38-3.34.41-3.53.79-7.07,1.17-10.62,7.85-74.3,9.17-149.94,5.49-226.29-.14-2.81-.28-5.62-.43-8.41-.13-2.43-.26-4.85-.41-7.26-.12-2.07-.24-4.14-.37-6.2,0-.13-.02-.27-.03-.4-.06-1-.13-2.01-.19-3.01-.28-4.21-.57-8.4-.88-12.58-.1-1.33-.2-2.65-.3-3.97-.27-3.57-.56-7.12-.86-10.66-.12-1.44-.24-2.87-.37-4.3-.17-1.94-.35-3.88-.52-5.82-.38-4.09-.77-8.17-1.19-12.23-.2-2.03-.41-4.05-.63-6.07-.17-1.67-.35-3.34-.54-5.01-.4-3.71-.82-7.41-1.27-11.09-.13-1.16-.27-2.32-.41-3.47-.18-1.5-.36-3-.55-4.5-.25-1.99-.5-3.97-.76-5.95-.26-1.98-.52-3.96-.79-5.93-.26-1.98-.53-3.95-.81-5.91-.38-2.66-.76-5.32-1.14-7.97-.39-2.65-.78-5.29-1.19-7.92-.18-1.25-.38-2.5-.58-3.75-.19-1.25-.39-2.5-.59-3.74-.31-1.93-.62-3.86-.94-5.79-.68-4.12-1.38-8.21-2.09-12.29-.83-4.68-1.68-9.33-2.56-13.96-.43-2.33-.88-4.64-1.34-6.96-.43-2.19-.87-4.37-1.3-6.55-.01-.02-.01-.03-.01-.05-.27-1.32-.54-2.63-.82-3.94h0c-.69-3.4-1.41-6.77-2.14-10.13-.48-2.28-.99-4.55-1.5-6.82-.38-1.69-.76-3.39-1.15-5.08-.17-.79-.35-1.58-.54-2.36-.18-.79-.36-1.58-.55-2.36-.37-1.6-.75-3.19-1.13-4.78-.45-1.88-.9-3.76-1.36-5.64-2.07-8.46-4.41-13.99-8.23-16.79-1.42-1.04-2.83-2.06-4.25-3.06-.31-.23-.63-.45-.94-.67-1.05-.74-2.1-1.47-3.15-2.18-.42-.29-.83-.57-1.24-.84-.52-.35-1.04-.7-1.55-1.04h-.01c-.48-.32-.95-.64-1.43-.95h-.01c-.8-.53-1.6-1.05-2.4-1.56-.6-.39-1.21-.78-1.82-1.16-.91-.57-1.82-1.13-2.73-1.69-.91-.55-1.82-1.11-2.73-1.65-2.67-1.6-5.35-3.13-8.02-4.59-.78-.43-1.57-.85-2.35-1.27-.54-.29-1.09-.58-1.63-.86-.54-.29-1.08-.57-1.63-.84-.99-.52-1.99-1.02-2.99-1.51-.63-.32-1.27-.63-1.9-.93-.05-.03-.11-.06-.16-.08-.71-.35-1.41-.69-2.13-1.02-1.06-.5-2.12-.99-3.19-1.47-.95-.43-1.9-.85-2.86-1.27-.07-.03-.15-.06-.22-.09-.99-.43-1.98-.85-2.97-1.26-.14-.06-.28-.12-.41-.17-.93-.38-1.85-.76-2.78-1.13-.49-.2-.99-.39-1.48-.58-1.14-.44-2.27-.87-3.41-1.29-.99-.36-1.97-.72-2.96-1.07-.02,0-.05-.01-.07-.02-1.01-.35-2.02-.69-3.04-1.03-1.03-.35-2.05-.68-3.08-1-.59-.19-1.18-.37-1.77-.55-1.32-.41-2.65-.8-3.97-1.17-.7-.2-1.39-.39-2.09-.57-.5-.14-1-.27-1.5-.4-.06-.02-.12-.04-.18-.05-.51-.14-1.02-.27-1.53-.39-.09-.03-.17-.05-.26-.06-.54-.14-1.08-.27-1.62-.4-1.57-.39-3.14-.75-4.71-1.08-.36-.08-.73-.16-1.09-.23-.65-.14-1.29-.27-1.93-.39-.49-.09-.97-.19-1.45-.28-.49-.1-.97-.19-1.46-.27-.96-.18-1.93-.35-2.89-.5-.07-.02-.14-.03-.22-.04-.94-.15-1.89-.3-2.84-.44-.87-.13-1.74-.25-2.61-.37-.92-.13-1.84-.24-2.75-.36-.46-.05-.92-.1-1.38-.15-.59-.07-1.19-.14-1.78-.2-2.06-.2-4.13-.38-6.19-.52h82.74c.99.53,1.97,1.06,2.95,1.6,11.06,6.1,22.07,13.29,33.03,21.6,2.77,2.09,4.99,5.16,6.89,9.71.24.59.48,1.2.72,1.84.78,2.13,1.52,4.56,2.22,7.31,9.95,39.03,17.77,79.9,23.65,122.49.18,1.22.34,2.44.51,3.66v.02c5.65,41.82,9.45,85.28,11.55,130.25.41,8.65.75,17.35,1.03,26.11.08,2.26,0,4.55,0,8.12-.36.07-.7.14-1.04.2-1.66.32-3.1.6-4.69.91Z"/>
    <path class="cls-8" d="M192.37,897.33c-.69-.48-1.38-.97-2.06-1.46-3.13-2.23-6.26-4.62-9.37-7.17-.81-.66-1.62-1.33-2.42-2.01-.81-.68-1.61-1.37-2.42-2.07-.8-.7-1.61-1.41-2.41-2.13-.59-.53-1.19-1.07-1.78-1.62-.58-.53-1.16-1.06-1.74-1.6-1.2-1.13-2.41-2.27-3.61-3.45-.63-.61-1.26-1.23-1.88-1.85-.77-.77-1.55-1.55-2.32-2.35-.78-.79-1.55-1.59-2.32-2.4-.44-.46-.89-.93-1.33-1.4-1.48-1.56-2.94-3.15-4.4-4.78-.55-.61-1.1-1.23-1.65-1.85-.58-.65-1.15-1.3-1.73-1.96-.58-.67-1.17-1.35-1.76-2.04-.11-.13-.23-.27-.33-.4-.4-.46-.8-.93-1.19-1.4-.67-.78-1.32-1.56-1.98-2.36-.79-.95-1.57-1.91-2.35-2.88-.75-.91-1.49-1.83-2.22-2.76-.61-.77-1.22-1.54-1.83-2.32-1.33-1.69-2.66-3.41-3.97-5.16-.52-.68-1.03-1.36-1.54-2.05-1-1.35-2.01-2.71-3.01-4.09-1.12-1.53-2.23-3.07-3.34-4.64-.57-.8-1.13-1.6-1.69-2.41-.71-1.01-1.42-2.03-2.13-3.06-1.54-2.23-3.07-4.5-4.6-6.8,1.83-4.62,3.37-8.49,4.72-11.85-1.1-2.36-2.19-4.81-3.27-7.34-1.47,3.11-3.01,6.38-4.67,9.89-21.71-79.38-34.15-169.12-38.93-267.33,1.29-.61,2.41-1.13,3.56-1.67.33-.15.65-.3.98-.45v-108.71c-.75-.17-1.47-.34-2.24-.51-.99-.23-2.06-.47-3.4-.78.48-14.2.73-28.14,1.45-41.92,4.79-92.05,16.57-177.27,36.93-253.84,1.34-5.05,3.8-9.39,6.08-11.25,11.63-9.51,23.38-17.45,35.22-24,.98-.55,1.96-1.08,2.94-1.6h-86.84v802h78.54c-2.46-3.07-4.88-6.27-7.27-9.6-10.91-15.16-21.07-32.9-30.24-53.27,1.2-3.27,2.38-6.53,3.39-9.29,17.68,25.14,35.34,46.14,53.01,62.56,3.65,3.4,7.29,6.6,10.94,9.6h12.73c-.08-.06-.16-.12-.25-.17ZM349,95.5c.99.53,1.97,1.06,2.95,1.6,11.06,6.1,22.07,13.29,33.03,21.6,2.77,2.09,4.99,5.16,6.89,9.71.24.59.48,1.2.72,1.84.78,2.13,1.52,4.56,2.22,7.31,9.95,39.03,17.77,79.9,23.65,122.49.18,1.22.34,2.44.51,3.66v.02c5.65,41.82,9.45,85.28,11.55,130.25V95.5h-81.52ZM428.63,307.94c-.43-3.87-.86-7.72-1.32-11.56v-.04c-.14-1.21-.28-2.41-.42-3.62-.01-.02-.01-.04-.01-.06-6.81-57.09-16.25-111.09-29.44-162.41-.16-.61-.31-1.23-.48-1.84-.1-.41-.2-.81-.31-1.22,10.13,0,19.31-.5,28.46.54.93.11,2.33,3.6,3.12,7.1,0,.02.01.03.01.04.23.96.4,1.94.5,2.83v.02c.07.57.11,1.12.11,1.62.23,53.62.17,107.26-.17,161.11h0c0,.59-.01,1.18-.02,1.77,0,.01,0,.01,0,.02,0,1.9-.02,3.8-.03,5.7ZM453.03,93c1.04.18,2.08.36,3.12.55v-.55h-3.12ZM427.98,710.64c-.07.23-.14.47-.21.71-7.68,25.34-12.24,54.56-14.15,88.5-3.93-5.34-8.01-10.2-11.81-16.17-.02-.02-.03-.05-.05-.07-.58-.91-1.15-1.86-1.72-2.83-.87-1.49-1.37-5.97-1.47-10.09v-.36c-.03-1.44,0-2.83.07-4.01.25-3.98.55-7.89.89-11.74-1.25,4.54-2.58,9.04-3.98,13.5-.08,2.42-.03,4.72.28,6.68.37,2.31.58,4.44.66,6.44,0,.1,0,.21.02.31.24,6.67-.9,11.82-2.36,16.87l-.06.24c-.08.25-.15.51-.23.76-.03.1-.06.21-.09.31-.96,3.22-2.01,6.45-2.87,10.07-1.85-5.24-3.52-9.96-5.14-14.56-.85,2.07-1.71,4.08-2.56,6.02-.15.33-.29.66-.44.99.28.67.56,1.36.83,2.07.16.42.32.85.48,1.28,1.21,3.33,2.35,6.79,3.84,11.12-1.27,2.21-2.55,4.39-3.84,6.53-.51.86-1.02,1.71-1.54,2.55-.62,1.04-1.26,2.07-1.89,3.09-.69,1.13-1.39,2.24-2.1,3.35-.58.92-1.16,1.84-1.75,2.74-.3.48-.61.95-.92,1.42-.69,1.06-1.38,2.1-2.07,3.14-.86,1.3-1.73,2.59-2.6,3.86-.54.8-1.08,1.58-1.63,2.36-1,1.44-2.01,2.87-3.02,4.27-.78,1.08-1.56,2.15-2.34,3.2-.69.94-1.39,1.87-2.09,2.79-.84,1.12-1.69,2.23-2.55,3.32-.28.36-.56.72-.84,1.07-.05.07-.11.15-.17.22-.51.65-1.02,1.29-1.53,1.92-.94,1.17-1.88,2.32-2.82,3.44-.51.63-1.03,1.24-1.56,1.85-2.47,2.92-4.96,5.71-7.47,8.39-.62.67-1.25,1.33-1.87,1.98-.63.65-1.25,1.3-1.89,1.93-.2.21-.4.42-.62.63-.84.84-1.68,1.67-2.52,2.49-.42.41-.84.81-1.26,1.21-1.26,1.21-2.53,2.38-3.8,3.52-1.35,1.22-2.71,2.4-4.07,3.54-.54.46-1.09.92-1.63,1.36-.65.54-1.31,1.07-1.97,1.59-.6.48-1.2.95-1.8,1.41-.72.56-1.45,1.11-2.18,1.65h11.46c19.3-17.06,38.6-41.03,57.93-72.44.86,2.38,1.79,4.82,2.67,7.38.28.8.44,1.87.65,2.8-10.82,24.43-23.29,45.21-36.89,62.26h73.13v-113.83c-.2.68-.4,1.35-.6,2.03-2.38,7.92-5.59,14.29-8.66,20.58-2.11,4.34-3.7,1.37-3.93-4.99-.06-1.63-.1-3.29-.11-4.95-.01-.12-.01-.24,0-.36-.02-3.56.1-7.15.39-10.55,2.29-26.57,6.4-50.59,12.91-70.93v-11.67c-.88,2.56-1.73,5.16-2.54,7.81ZM393.8,817.8c2.28-8.88,4.44-17.29,6.82-26.57.08.11.16.22.24.33.01.01.01.02.01.02,2.61,3.59,5.04,6.95,7.94,10.92-.65,1.61-1.29,3.18-1.92,4.74-.07.16-.13.32-.2.49-2.94,7.24-5.71,14.06-8.66,21.33-1.5-4-2.71-7.23-4.23-11.26ZM429.7,608.94c.27-2.88.55-5.75.82-8.62v-55.44c-1.75,23.67-3.47,46.93-5.24,70.16-.4,5.24-1,10.38-1.57,15.53-1.51,13.88-3.07,26.67-7.55,36.87-.05.4-.1.8-.16,1.21,0,.11-.02.23-.04.35-.24,1.92-.49,3.85-.75,5.78-.3,2.26-.61,4.53-.94,6.81.84-2.45,1.71-4.86,2.62-7.22.51-1.34,1.03-2.5,1.56-3.48.04-.09.09-.17.14-.26,2.55-4.62,5.26-4.76,8.42.96,1.12,2.03,2.3,3.85,3.51,5.58v-9.42c-1.94-2.66-3.84-5.26-5.73-7.86.29-2.98.57-5.95.85-8.91,1.38-14.2,2.72-28.17,4.06-42.04ZM425.83,429.32v109.11c.06.01.13.03.19.05,1.18.31,2.45.65,4.5,1.21v-111.28c-1.66.32-3.1.6-4.69.91Z"/>
    <path class="cls-2" d="M430.52,887.9v9.6h-47.18c12.5-2.77,25-5.97,37.5-9.6h9.68Z"/>
    <path class="cls-2" d="M125.8,897.5h-54.28v-9.6h14.63c13.22,3.6,26.43,6.81,39.65,9.6Z"/>
    <path class="cls-2" d="M179.75,932.8c-44.92-4.38-89.14-13.28-131.03-26.8h106.11c8.31,8.94,16.61,17.87,24.92,26.8Z"/>
    <path class="cls-5" d="M357.61,835.24c-20.36,24.43-43.82,45.2-69.45,62.26h-45.81c1.58-.74,3.16-1.49,4.74-2.26,34.72-16.9,69.47-40.14,104.26-70.18,1.63,2.38,3.37,4.82,5.03,7.38.38.59.65,1.33.93,2.05.1.26.2.51.3.75Z"/>
    <path class="cls-7" d="M171.45,575.04c-.02,15.97-6.01,29.06-14,31.18-6.94,1.84-15.21-7.94-16.91-22.67-2.22-19.21-3.64-38.83-4.69-58.41-.98-18.49-1.04-37.14-1.5-55.73-.26-.06-.52-.13-.79-.19,1.95-35.49,3.7-71.02,5.92-106.45,1.15-18.41,8.96-30.07,17.96-28.49,8.74,1.53,14.61,14.92,13.95,34.07-1.01,29.29-3.58,58.51-3.66,87.78-.09,32.96,1.85,65.93,2.94,98.88.22,6.68.79,13.35.79,20.02Z"/>
    <path class="cls-2" d="M188.45,897.5h-41.52c-2.98-3.2-5.95-6.4-8.93-9.6h40.67c3.22,3.32,6.48,6.51,9.78,9.6Z"/>
    <path class="cls-2" d="M207.72,934.93c-2.11,6.92-4.2,13.81-6.41,21.07-7.2-7.75-14.38-15.48-21.56-23.2,9.3.9,18.63,1.62,27.97,2.13Z"/>
    <path class="cls-2" d="M430.16,0c7.27,8.87,14.54,17.74,21.67,26.45-1.19,4.41-2.13,7.89-3.46,12.79-6.65-13.18-12.93-25.59-19.21-38.02.33-.4.66-.82.99-1.22Z"/>
    <path class="cls-2" d="M71.52,95.5v1.6h12.72v-1.6h-12.72Z"/>
    <path class="cls-5" d="M429.56,304.33c-13.81-62.16-33.7-120.59-62.69-175.82,19.86,0,37.85-.49,55.79.52,2.67.15,7.28,7.32,7.32,11.29.49,54.58.33,109.17-.41,164Z"/>
    <path class="cls-5" d="M430.52,680.25v15.28c-15.47,21.64-25.89,46.37-31.95,74.8-.76,3.56-1.46,7.18-2.08,10.87-.96,5.66-1.76,11.46-2.4,17.42-.04.28-.07.56-.1.85-.04-.03-.09-.06-.13-.09-2.9-2.1-5.86-4.13-8.8-6.18-5.68-3.94-11.33-7.98-16.62-12.8-1.72-1.58-2.66-6.45-2.77-10.74,0-.42,0-.83,0-1.23,0-.88.05-1.73.14-2.49.47-3.97,1.03-7.89,1.68-11.74,4.68-27.56,14.04-51.87,27.74-72.99,1.58-2.45,3.22-4.85,4.92-7.21,2.81-3.91,5.68-6.33,8.72-6.97,2.17-.47,4.43-.03,6.83,1.43.1.05.2.11.3.19.84.53,1.71,1.19,2.59,1.98.21.19.41.38.62.58,3.55,3.41,7.38,6.23,11.31,9.04Z"/>
    <path class="cls-5" d="M430.52,706.81v67.46c-1.85,3.76-3.8,7.44-5.84,11.05-2.18,3.86-4.74,7.36-7.46,10.66-2.85,3.46-5.88,6.7-8.84,9.93-.52.56-1.01,1-1.49,1.33-3.21,2.17-5.53-.79-5.91-6.33-.1-1.43-.17-2.89-.2-4.36,0-.79,0-1.57,0-2.36.01-.88.03-1.76.08-2.63.1-2.21.31-4.39.66-6.5.08-.49.16-.97.24-1.45,4.61-27.53,12.93-52.27,26.22-72.97.82-1.29,1.67-2.57,2.54-3.83Z"/>
    <path class="cls-5" d="M430.52,604.71v49.59c-1.64-1.12-3.26-2.22-4.88-3.32-1.21-.83-2.42-1.65-3.62-2.47,2.6-13.39,5.15-26.54,7.68-39.57.27-1.41.55-2.82.82-4.23Z"/>
    <path class="cls-5" d="M360.52,774.76c4.69,15.82-4.09,23.44-9.28,34.99-3.47-5.23-6.62-9.96-9.66-14.56-.78-1.17-1.56-2.34-2.33-3.49,8.45-19.1,16.61-37.56,24.77-56.01.29.09.59.19.88.28-1.24,7.29-2.73,14.52-3.65,21.89-.41,3.26-1.07,6.86-1.26,10.22-.15,2.41-.06,4.71.52,6.68Z"/>
    <path class="cls-2" d="M65.8,937.07c-22.82,6.2-42.71,11.62-65.8,17.89,7.01-12.5,12.6-22.48,18.58-33.15,15.19,4.91,29.8,9.63,47.21,15.26Z"/>
    <path class="cls-5" d="M384.95,802.5c-7.08,9.26-13.42,17.57-20.29,26.56-2.82-4-5.1-7.23-7.95-11.26,4.28-8.88,8.35-17.3,12.82-26.57,5.08,3.71,9.79,7.16,15.42,11.27Z"/>
    <path class="cls-4" d="M171.45,575.04c-.02,15.97-6.01,29.06-14,31.18-6.94,1.84-15.21-7.94-16.91-22.67-2.22-19.21-3.64-38.83-4.69-58.41-.98-18.49-1.04-37.14-1.5-55.73-.26-.06-.52-.13-.79-.19,1.95-35.49,3.7-71.02,5.92-106.45,1.15-18.41,8.96-30.07,17.96-28.49,8.74,1.53,14.61,14.92,13.95,34.07-1.01,29.29-3.58,58.51-3.66,87.78-.09,32.96,1.85,65.93,2.94,98.88.22,6.68.79,13.35.79,20.02Z"/>
    <path class="cls-5" d="M239.07,897.5h-38.65c-17.73-17.11-34.14-38.04-48.62-62.87.14-.29.28-.58.41-.87,1.41-2.98,2.8-5.91,3.99-8.42,24.5,26.89,48.97,49.01,73.44,65.91,0,0,.02.01.02.01,3.14,2.17,6.28,4.25,9.41,6.24Z"/>
    <path class="cls-7" d="M387.91,816.68c-1.27,2.21-2.55,4.39-3.84,6.53-.51.86-1.02,1.71-1.54,2.55-.62,1.04-1.26,2.07-1.89,3.09-.7,1.13-1.4,2.24-2.1,3.35-.58.92-1.17,1.84-1.75,2.74-.3.48-.61.95-.92,1.42-.69,1.06-1.38,2.1-2.07,3.14-.86,1.3-1.73,2.59-2.6,3.86-.54.79-1.08,1.58-1.63,2.36-1,1.44-2.01,2.87-3.02,4.27-.78,1.08-1.56,2.15-2.34,3.2-.69.94-1.39,1.87-2.09,2.79-.84,1.12-1.69,2.23-2.55,3.32-.28.36-.56.72-.84,1.07-.05.07-.11.15-.17.22-.51.65-1.02,1.29-1.53,1.92-.94,1.17-1.88,2.32-2.82,3.44-.52.62-1.03,1.24-1.56,1.85-2.47,2.92-4.96,5.71-7.47,8.39-.62.67-1.25,1.33-1.87,1.98-.63.65-1.25,1.3-1.89,1.93-.2.21-.4.42-.62.63-.84.84-1.68,1.67-2.52,2.49-.42.41-.84.81-1.26,1.21-1.26,1.21-2.53,2.38-3.8,3.52-1.35,1.22-2.71,2.4-4.07,3.54-.54.46-1.09.92-1.63,1.36-.65.54-1.31,1.07-1.97,1.59-.6.48-1.2.95-1.8,1.41-.72.56-1.45,1.11-2.18,1.65h-79.22c-.63.3-1.25.59-1.88.88-.46-.29-.93-.58-1.4-.88h-46.45c-.08-.06-.16-.12-.25-.17-.69-.48-1.38-.97-2.06-1.46-3.13-2.23-6.26-4.62-9.37-7.17-.81-.66-1.62-1.33-2.42-2.01-.81-.68-1.61-1.37-2.42-2.07-.8-.7-1.61-1.41-2.41-2.13-.59-.53-1.19-1.07-1.78-1.62-.58-.53-1.16-1.06-1.74-1.6-1.2-1.13-2.41-2.27-3.61-3.45-.63-.61-1.26-1.23-1.88-1.85-.77-.77-1.55-1.55-2.32-2.35-.78-.79-1.55-1.59-2.32-2.4-.44-.46-.89-.93-1.33-1.4-1.48-1.56-2.94-3.15-4.4-4.78-.55-.61-1.1-1.23-1.65-1.85-.58-.65-1.15-1.3-1.73-1.96-.58-.67-1.17-1.35-1.76-2.04-.11-.13-.23-.27-.33-.4-.4-.46-.8-.93-1.19-1.4-.67-.78-1.32-1.56-1.98-2.36-.79-.95-1.57-1.91-2.35-2.88-.75-.91-1.49-1.83-2.22-2.76-.61-.77-1.22-1.54-1.83-2.32-1.33-1.69-2.66-3.41-3.97-5.16-.52-.68-1.03-1.36-1.54-2.05-1-1.35-2.01-2.71-3.01-4.09-1.12-1.53-2.23-3.07-3.34-4.64-.57-.8-1.13-1.6-1.69-2.41-.71-1.01-1.42-2.03-2.13-3.06-1.54-2.23-3.07-4.5-4.6-6.8,1.83-4.62,3.37-8.49,4.72-11.85.68-1.73,1.32-3.32,1.91-4.82,1.11,1.54,2.22,3.06,3.33,4.56.55.75,1.11,1.5,1.66,2.24,1.8,2.41,3.6,4.78,5.4,7.1.9,1.17,1.8,2.32,2.7,3.45,4.5,5.7,9,11.1,13.5,16.22,1.83,2.08,3.66,4.1,5.48,6.08.6.65,1.19,1.29,1.79,1.92.8.86,1.61,1.71,2.42,2.55.8.84,1.61,1.68,2.42,2.5.81.82,1.61,1.63,2.42,2.44,1.49,1.47,2.97,2.91,4.45,4.32.69.66,1.38,1.31,2.07,1.94,1.97,1.84,3.94,3.61,5.91,5.32.7.61,1.4,1.21,2.1,1.8.19.17.39.33.58.49.8.68,1.6,1.34,2.4,1.99,1.11.9,2.21,1.79,3.32,2.65,1.14.9,2.27,1.76,3.4,2.61.46.34.92.68,1.37,1.01.54.4,1.07.79,1.61,1.17,1.38.98,2.76,1.94,4.14,2.87.69.47,1.38.93,2.07,1.37.69.45,1.38.89,2.07,1.32.52.33,1.05.66,1.57.98.69.42,1.38.83,2.06,1.23.68.4,1.36.8,2.05,1.19.55.31,1.11.62,1.66.92.74.41,1.49.81,2.23,1.2.31.16.61.32.92.48,1,.52,2,1.01,3,1.49.7.34,1.4.67,2.1.99.91.42,1.81.83,2.72,1.22.79.33,1.58.66,2.37.98,1.38.56,2.76,1.09,4.14,1.58.86.3,1.73.6,2.59.88,0,0,.02.01.02.01.15.05.3.09.44.14.5.16.99.32,1.49.47,1.08.33,2.16.64,3.24.93.29.07.57.15.86.22.06.03.13.04.2.05.4.12.81.22,1.22.31.42.11.84.21,1.27.3.47.11.93.21,1.4.32,1.27.26,2.54.51,3.81.72.6.1,1.2.2,1.8.29.56.08,1.13.16,1.7.23.76.1,1.53.19,2.29.26.54.06,1.09.11,1.64.15l1.56.12c.51.03,1.03.06,1.55.09.62.03,1.24.05,1.86.06.69.02,1.38.03,2.07.03.58,0,1.16-.01,1.74-.02.42-.01.84-.02,1.26-.04.39-.01.78-.03,1.17-.05.78-.03,1.56-.08,2.33-.15.75-.05,1.51-.12,2.26-.2.4-.04.8-.08,1.19-.13,1.69-.2,3.38-.45,5.07-.76.56-.1,1.12-.21,1.68-.32.62-.12,1.24-.25,1.85-.39,1.4-.31,2.79-.65,4.18-1.04.7-.19,1.39-.39,2.08-.59.56-.17,1.11-.34,1.66-.52.37-.11.73-.23,1.1-.36.48-.15.95-.32,1.42-.48.63-.22,1.26-.45,1.89-.69.43-.16.85-.32,1.26-.48.37-.14.73-.29,1.1-.44.04-.01.08-.03.12-.05.46-.18.92-.37,1.38-.57,1.86-.78,3.72-1.63,5.58-2.55.51-.25,1.03-.51,1.55-.78.51-.26,1.03-.53,1.55-.81.52-.27,1.03-.55,1.55-.84,1.4-.77,2.81-1.58,4.21-2.44.49-.29.96-.58,1.44-.88.93-.58,1.85-1.17,2.78-1.79.48-.31.95-.62,1.42-.95,2.81-1.9,5.63-3.96,8.44-6.18.5-.39,1-.79,1.49-1.19.71-.57,1.42-1.15,2.12-1.74.3-.24.59-.49.89-.75.13-.1.26-.21.38-.32.45-.38.9-.77,1.35-1.16.54-.46,1.07-.93,1.6-1.41.63-.55,1.25-1.12,1.87-1.68.28-.26.56-.53.84-.79.09-.07.17-.15.25-.22.41-.38.82-.77,1.23-1.16,4.89-4.62,9.78-9.72,14.66-15.31.52-.59,1.04-1.19,1.55-1.79,1.04-1.2,2.07-2.43,3.1-3.67.78-.94,1.56-1.89,2.33-2.85.78-.96,1.56-1.94,2.33-2.92,1.94-2.46,3.88-5,5.8-7.62.76-1.03,1.52-2.06,2.28-3.12.69-.93,1.36-1.86,2.02-2.81.43-.6.85-1.2,1.27-1.8,1.59-2.27,3.18-4.58,4.76-6.96.34-.51.68-1.02,1.02-1.54,2.31-3.47,4.61-7.05,6.91-10.75.08-.14.17-.28.26-.42.12.29.23.58.36.87h0c.25.62.51,1.24.77,1.87.28.67.56,1.36.83,2.07.16.42.32.85.48,1.28,1.21,3.33,2.35,6.79,3.84,11.12Z"/>
    <path class="cls-7" d="M360.52,774.76c4.69,15.82-4.09,23.44-9.28,34.99-3.47-5.23-6.62-9.96-9.66-14.56-.78-1.17-1.56-2.34-2.33-3.49,8.45-19.1,16.61-37.56,24.77-56.01.29.09.59.19.88.28-1.24,7.29-2.73,14.52-3.65,21.89-.41,3.26-1.07,6.86-1.26,10.22-.15,2.41-.06,4.71.52,6.68Z"/>
    <path class="cls-1" d="M429.56,306.17c-13.81-62.16-33.7-120.59-62.69-175.82,19.86,0,37.85-.49,55.79.52,2.67.15,7.28,7.32,7.32,11.29.49,54.58.33,109.17-.41,164Z"/>
    <path class="cls-7" d="M241,95.5c-.34.02-.67.05-1.01.07-.53.04-1.06.08-1.59.12-.38.03-.76.06-1.15.1-1.25.11-2.5.23-3.75.36-1.25.13-2.5.28-3.75.44s-2.5.33-3.75.51c-.6.08-1.19.17-1.78.27-1,.15-1.99.31-2.98.48-1,.17-2,.35-2.99.53-31.28,5.8-62.13,19.24-92.16,43.51-2.14,1.73-4.44,6.09-5.68,10.94-18.8,73.44-29.81,154.42-33.75,242.04-5.59,124.44,2.53,242.12,25.73,352.19,3.17,15.03,6.86,29.3,10.61,45.2-.83,1.75-1.68,3.55-2.56,5.41-1.47,3.11-3.01,6.38-4.67,9.89-21.71-79.38-34.15-169.12-38.93-267.33,1.29-.61,2.41-1.13,3.56-1.67.33-.15.65-.3.98-.45v-108.71c-.75-.17-1.47-.34-2.24-.51-.99-.23-2.06-.47-3.4-.78.48-14.2.73-28.14,1.45-41.92,4.79-92.05,16.57-177.27,36.93-253.84,1.34-5.05,3.8-9.39,6.08-11.25,11.63-9.51,23.38-17.45,35.22-24,.98-.55,1.96-1.08,2.94-1.6h82.64Z"/>
    <path class="cls-7" d="M425.83,429.32v109.11c.06.01.13.03.19.05,1.18.31,2.45.65,4.5,1.21.13.03.25.06.38.1-.13,1.7-.25,3.4-.38,5.09-1.75,23.67-3.47,46.93-5.24,70.16-.4,5.24-1,10.38-1.57,15.53-1.51,13.88-3.07,26.67-7.55,36.87-.15.34-.3.69-.46,1.02-.04.1-.09.2-.14.3-.09.19-.18.38-.28.57-.17.35-.34.69-.52,1.03-4.78,9.13-7.93,24.09-10.55,32.45.11-.86.22-1.73.33-2.6.55-4.36,1.14-8.85,1.74-13.46.12-.92.24-1.84.36-2.77s.25-1.86.37-2.8c.15-1.15.31-2.31.46-3.48,0-.02,0-.05,0-.07.23-1.75.46-3.52.69-5.3.22-1.63.43-3.26.65-4.91.01-.14.03-.27.05-.39.14-1.14.29-2.27.44-3.41.3-2.28.59-4.57.89-6.88.73-5.78,1.47-11.65,2.18-17.59.24-1.89.46-3.79.68-5.7.13-1.12.26-2.23.39-3.35.13-1.11.25-2.22.38-3.34.41-3.53.79-7.07,1.17-10.62,7.85-74.3,9.17-149.94,5.49-226.29-.14-2.81-.28-5.62-.43-8.41-.13-2.43-.26-4.85-.41-7.26-.12-2.07-.24-4.14-.37-6.2,0-.13-.02-.27-.03-.4-.06-1-.13-2.01-.19-3.01-.28-4.21-.57-8.4-.88-12.58-.1-1.33-.2-2.65-.3-3.97-.27-3.57-.56-7.12-.86-10.66-.12-1.44-.24-2.87-.37-4.3-.17-1.94-.35-3.88-.52-5.82-.38-4.09-.77-8.17-1.19-12.23-.2-2.03-.41-4.05-.63-6.07-.17-1.67-.35-3.34-.54-5.01-.4-3.71-.82-7.41-1.27-11.09-.13-1.16-.27-2.32-.41-3.47-.18-1.5-.36-3-.55-4.5-.25-1.99-.5-3.97-.76-5.95-.26-1.98-.52-3.96-.79-5.93-.26-1.98-.53-3.95-.81-5.91-.38-2.66-.76-5.32-1.14-7.97-.39-2.65-.78-5.29-1.19-7.92-.18-1.25-.38-2.5-.58-3.75-.19-1.25-.39-2.5-.59-3.74-.31-1.93-.62-3.86-.94-5.79-.68-4.12-1.38-8.21-2.09-12.29-.83-4.68-1.68-9.33-2.56-13.96-.43-2.33-.88-4.64-1.34-6.96-.43-2.19-.87-4.37-1.3-6.55-.01-.02-.01-.03-.01-.05-.27-1.32-.54-2.63-.82-3.94h0c-.69-3.4-1.41-6.77-2.14-10.13-.48-2.28-.99-4.55-1.5-6.82-.38-1.69-.76-3.39-1.15-5.08-.17-.79-.35-1.58-.54-2.36-.18-.79-.36-1.58-.55-2.36-.37-1.6-.75-3.19-1.13-4.78-.45-1.88-.9-3.76-1.36-5.64-2.07-8.46-4.41-13.99-8.23-16.79-1.42-1.04-2.83-2.06-4.25-3.06-.31-.23-.63-.45-.94-.67-1.05-.74-2.1-1.47-3.15-2.18-.42-.29-.83-.57-1.24-.84-.52-.35-1.04-.7-1.55-1.04h-.01c-.48-.32-.95-.64-1.43-.95h-.01c-.8-.53-1.6-1.05-2.4-1.56-.6-.39-1.21-.78-1.82-1.16-.91-.57-1.82-1.13-2.73-1.69-.91-.55-1.82-1.11-2.73-1.65-2.67-1.6-5.35-3.13-8.02-4.59-.78-.43-1.57-.85-2.35-1.27-.54-.29-1.09-.58-1.63-.86-.54-.29-1.08-.57-1.63-.84-.99-.52-1.99-1.02-2.99-1.51-.63-.32-1.27-.63-1.9-.93-.05-.03-.11-.06-.16-.08-.71-.35-1.41-.69-2.13-1.02-1.06-.5-2.12-.99-3.19-1.47-.95-.43-1.9-.85-2.86-1.27-.07-.03-.15-.06-.22-.09-.99-.43-1.98-.85-2.97-1.26-.14-.06-.28-.12-.41-.17-.93-.38-1.85-.76-2.78-1.13-.49-.2-.99-.39-1.48-.58-1.14-.44-2.27-.87-3.41-1.29-.99-.36-1.97-.72-2.96-1.07-.02,0-.05-.01-.07-.02-1.01-.35-2.02-.69-3.04-1.03-1.03-.35-2.05-.68-3.08-1-.59-.19-1.18-.37-1.77-.55-1.32-.41-2.65-.8-3.97-1.17-.7-.2-1.39-.39-2.09-.57-.5-.14-1-.27-1.5-.4-.06-.02-.12-.04-.18-.05-.51-.14-1.02-.27-1.53-.39-.09-.03-.17-.05-.26-.06-.54-.14-1.08-.27-1.62-.4-1.57-.39-3.14-.75-4.71-1.08-.36-.08-.73-.16-1.09-.23-.65-.14-1.29-.27-1.93-.39-.49-.09-.97-.19-1.45-.28-.49-.1-.97-.19-1.46-.27-.96-.18-1.93-.35-2.89-.5-.07-.02-.14-.03-.22-.04-.94-.15-1.89-.3-2.84-.44-.87-.13-1.74-.25-2.61-.37-.92-.13-1.84-.24-2.75-.36-.46-.05-.92-.1-1.38-.15-.59-.07-1.19-.14-1.78-.2-2.06-.2-4.13-.38-6.19-.52h82.74c.99.53,1.97,1.06,2.95,1.6,11.06,6.1,22.07,13.29,33.03,21.6,2.77,2.09,4.99,5.16,6.89,9.71.24.59.48,1.2.72,1.84.78,2.13,1.52,4.56,2.22,7.31,9.95,39.03,17.77,79.9,23.65,122.49.18,1.22.34,2.44.51,3.66v.02c5.65,41.82,9.45,85.28,11.55,130.25.41,8.65.75,17.35,1.03,26.11.08,2.26,0,4.55,0,8.12-.36.07-.7.14-1.04.2-1.66.32-3.1.6-4.69.91Z"/>
    <path class="cls-3" d="M430.52,680.63v15.28c-15.46,21.64-25.89,46.36-31.95,74.78-.76,3.55-1.45,7.15-2.06,10.82-.94,5.49-1.72,11.11-2.36,16.87-.05.49-.11.98-.16,1.47-.07-.05-.15-.11-.22-.16-2.82-2.03-5.69-4-8.54-5.99-5.74-3.98-11.45-8.05-16.79-12.92-1.77-1.62-2.71-6.74-2.77-11.12,0-.42,0-.83,0-1.23.02-.74.07-1.46.14-2.11.47-3.98,1.03-7.89,1.68-11.74,4.68-27.56,14.04-51.87,27.74-72.99,1.58-2.45,3.22-4.86,4.92-7.22,2.8-3.88,5.65-6.29,8.67-6.95,2.14-.48,4.37-.07,6.74,1.34.13.07.26.15.4.24.81.51,1.64,1.14,2.49,1.89.25.22.51.46.76.7,3.55,3.41,7.38,6.23,11.31,9.04Z"/>
    <path class="cls-3" d="M430.52,707.19v67.46c-1.85,3.76-3.8,7.44-5.84,11.05-2.18,3.86-4.74,7.35-7.46,10.64-2.85,3.47-5.88,6.71-8.84,9.94-.59.64-1.15,1.12-1.69,1.45-3.1,1.94-5.34-1.02-5.71-6.44-.11-1.56-.18-3.15-.2-4.74,0-.79,0-1.57,0-2.36.01-.87.04-1.74.09-2.61.11-2.09.32-4.15.65-6.15.1-.59.19-1.17.29-1.75,4.59-27.26,12.84-51.78,25.96-72.33.89-1.41,1.81-2.79,2.75-4.16Z"/>
    <path class="cls-6" d="M415.56,668.76c-.09.19-.18.38-.28.57-.17.35-.34.69-.52,1.03-4.78,9.13-7.93,24.09-10.55,32.45.11-.86.22-1.73.33-2.6.55-4.36,1.14-8.85,1.74-13.46.12-.92.24-1.84.36-2.77s.25-1.86.37-2.8c.15-1.15.31-2.31.46-3.48,0-.02,0-.05,0-.07.23-1.75.46-3.52.69-5.3.22-1.63.43-3.26.65-4.91.01-.14.03-.27.05-.39.14-1.14.29-2.27.44-3.41.29-2.28.59-4.57.89-6.88.73-5.78,1.47-11.65,2.18-17.59.23-1.89.46-3.8.68-5.7.13-1.12.26-2.23.39-3.35.13-1.11.25-2.22.38-3.34.41-3.53.79-7.07,1.17-10.62,7.85-74.3,9.17-149.94,5.49-226.29-.14-2.81-.28-5.62-.43-8.41-.13-2.43-.26-4.85-.41-7.26-.12-2.07-.24-4.14-.37-6.2,0-.13-.02-.27-.03-.4-.06-1-.13-2.01-.19-3.01-.28-4.21-.57-8.4-.88-12.58-.1-1.33-.2-2.65-.3-3.97-.27-3.57-.56-7.12-.86-10.66-.12-1.44-.24-2.87-.37-4.3-.17-1.94-.35-3.88-.52-5.82-.38-4.09-.77-8.17-1.19-12.23-.2-2.03-.41-4.05-.63-6.07-.17-1.67-.35-3.34-.54-5.01-.4-3.71-.82-7.41-1.27-11.09-.13-1.16-.27-2.32-.41-3.47-.18-1.5-.36-3-.55-4.5-.25-1.99-.5-3.97-.76-5.95-.26-1.98-.52-3.96-.79-5.93-.26-1.98-.53-3.95-.81-5.91-.38-2.66-.76-5.32-1.14-7.97-.39-2.65-.78-5.29-1.19-7.92-.18-1.25-.38-2.5-.58-3.75-.19-1.25-.39-2.5-.59-3.74-.31-1.93-.62-3.86-.94-5.79-.68-4.12-1.38-8.21-2.09-12.29-.83-4.68-1.68-9.33-2.56-13.96-.44-2.33-.89-4.65-1.34-6.96-.43-2.19-.87-4.37-1.3-6.55-.01-.02-.01-.03-.01-.05-.27-1.32-.54-2.63-.82-3.94h0c-.69-3.4-1.41-6.77-2.14-10.13-.49-2.28-.99-4.55-1.5-6.82-.38-1.69-.76-3.39-1.15-5.08-.17-.79-.35-1.58-.54-2.36-.18-.79-.36-1.58-.55-2.36-.37-1.6-.75-3.19-1.13-4.78-.45-1.88-.9-3.76-1.36-5.64-2.07-8.46-4.41-13.99-8.23-16.79-1.42-1.04-2.83-2.06-4.25-3.06-.31-.23-.63-.45-.94-.67-1.05-.74-2.1-1.47-3.15-2.18-.42-.29-.83-.57-1.24-.84-.52-.35-1.04-.7-1.55-1.04h-.01c-.48-.32-.95-.64-1.43-.95h-.01c-.8-.53-1.6-1.05-2.4-1.56-.6-.39-1.21-.78-1.82-1.16-.91-.57-1.82-1.13-2.73-1.69-.91-.55-1.82-1.11-2.73-1.65-2.67-1.6-5.35-3.13-8.02-4.59-.78-.43-1.57-.85-2.35-1.27-.54-.29-1.09-.58-1.63-.86-.54-.29-1.08-.57-1.63-.84-.99-.52-1.99-1.02-2.99-1.51-.63-.32-1.27-.63-1.9-.93-.05-.03-.11-.06-.16-.08-.71-.35-1.42-.69-2.13-1.02-1.06-.5-2.12-.99-3.19-1.47-.95-.43-1.9-.85-2.86-1.27-.07-.03-.15-.06-.22-.09-.99-.43-1.98-.85-2.97-1.26-.14-.06-.28-.12-.41-.17-.93-.38-1.85-.76-2.78-1.13-.49-.2-.99-.39-1.48-.58-1.14-.44-2.27-.87-3.41-1.29-.99-.36-1.97-.72-2.96-1.07-.02,0-.05-.01-.07-.02-1.01-.35-2.02-.69-3.04-1.03-1.03-.35-2.05-.68-3.08-1-.59-.19-1.18-.37-1.77-.55-1.32-.41-2.65-.8-3.97-1.17-.7-.2-1.39-.39-2.09-.57-.5-.14-1-.27-1.5-.4-.06-.02-.12-.04-.18-.05-.51-.14-1.02-.27-1.53-.39-.09-.03-.17-.05-.26-.06-.54-.14-1.08-.27-1.62-.4-1.57-.39-3.14-.75-4.71-1.08-.36-.08-.73-.16-1.09-.23-.65-.14-1.29-.27-1.93-.39-.49-.09-.97-.19-1.45-.28-.49-.1-.97-.19-1.46-.27-.96-.18-1.93-.35-2.89-.5-.07-.02-.14-.03-.22-.04-.94-.15-1.89-.3-2.84-.44-.87-.13-1.74-.25-2.61-.37-.92-.13-1.84-.24-2.75-.36-.46-.05-.92-.1-1.38-.15-.59-.07-1.19-.14-1.78-.2-2.06-.2-4.13-.38-6.19-.52h-.03c-.85-.06-1.71-.11-2.57-.15-.84-.05-1.68-.09-2.52-.12-.54-.03-1.07-.05-1.61-.06-2.51-.08-5.01-.11-7.5-.09-.51,0-1.03.01-1.55.02-.62.01-1.25.02-1.88.04-2.52.07-5.04.19-7.56.36h-.04c-.34.02-.67.05-1.01.07-.53.04-1.06.08-1.59.12-.38.03-.76.06-1.15.1-1.25.11-2.5.23-3.75.36-1.25.13-2.5.28-3.75.44s-2.5.33-3.75.51c-.6.08-1.19.17-1.78.27-1,.15-1.99.31-2.98.48-1,.17-2,.35-2.99.53-31.28,5.8-62.13,19.24-92.16,43.51-2.14,1.73-4.44,6.09-5.68,10.94-18.8,73.44-29.81,154.42-33.75,242.04-5.59,124.44,2.53,242.12,25.73,352.19,3.17,15.03,6.86,29.3,10.61,45.2-.83,1.75-1.68,3.55-2.56,5.41,1.08,2.53,2.17,4.98,3.27,7.34.68-1.73,1.32-3.32,1.91-4.82,1.11,1.54,2.22,3.06,3.33,4.56.55.75,1.11,1.5,1.66,2.24,1.8,2.41,3.6,4.78,5.4,7.1.9,1.17,1.8,2.32,2.7,3.45,4.5,5.7,9,11.1,13.5,16.22,1.83,2.08,3.66,4.1,5.48,6.08.6.65,1.19,1.29,1.79,1.92.8.86,1.61,1.71,2.42,2.55.8.84,1.61,1.68,2.42,2.5.81.82,1.61,1.63,2.42,2.44,1.49,1.47,2.97,2.91,4.45,4.32.69.65,1.38,1.3,2.07,1.94,1.97,1.84,3.94,3.61,5.91,5.32.7.61,1.4,1.21,2.1,1.8.19.17.39.33.58.49.8.68,1.6,1.34,2.4,1.99,1.11.91,2.22,1.8,3.32,2.65,1.14.9,2.27,1.76,3.4,2.61.46.34.92.68,1.37,1.01.54.4,1.07.79,1.61,1.17,1.38.99,2.76,1.95,4.14,2.87.69.47,1.38.92,2.07,1.37.69.45,1.38.89,2.07,1.32.52.33,1.05.66,1.57.98.69.42,1.38.83,2.06,1.23.68.4,1.36.8,2.05,1.19.55.31,1.11.62,1.66.92.74.41,1.49.81,2.23,1.2.31.16.61.32.92.48,1,.52,2,1.01,3,1.49.7.34,1.4.67,2.1.99.91.42,1.81.83,2.72,1.22.79.33,1.58.66,2.37.98,1.38.56,2.76,1.08,4.14,1.58.86.3,1.73.6,2.59.88,0,0,.02.01.02.01.15.05.3.09.44.14.5.16.99.32,1.49.47,1.08.33,2.16.64,3.24.93.29.07.57.15.86.22.06.03.13.04.2.05.4.12.81.22,1.22.31.42.11.84.21,1.27.3.47.11.93.21,1.4.32,1.27.26,2.54.51,3.81.72.6.1,1.2.2,1.8.29.56.08,1.13.16,1.7.23.76.1,1.53.19,2.29.26.54.06,1.09.11,1.64.15l1.56.12c.51.03,1.03.06,1.55.09.62.03,1.24.05,1.86.06.69.02,1.38.03,2.07.03.58,0,1.16-.01,1.74-.02.42-.01.84-.02,1.26-.04.39-.01.78-.03,1.17-.05.78-.03,1.56-.08,2.33-.15.75-.05,1.51-.12,2.26-.2.4-.04.8-.08,1.19-.13,1.69-.2,3.38-.45,5.07-.76.56-.1,1.12-.21,1.68-.32.62-.12,1.24-.25,1.85-.39,1.4-.31,2.79-.65,4.18-1.04.7-.19,1.39-.39,2.08-.59.56-.17,1.11-.34,1.66-.52.37-.11.73-.23,1.1-.36.48-.15.95-.32,1.42-.48.63-.22,1.26-.45,1.89-.69.43-.16.85-.32,1.26-.48.37-.14.73-.29,1.1-.44.04-.01.08-.03.12-.05.46-.18.92-.37,1.38-.57,1.86-.78,3.72-1.63,5.58-2.55.51-.25,1.03-.51,1.55-.78.51-.26,1.03-.53,1.55-.81.52-.27,1.03-.55,1.55-.84,1.4-.77,2.81-1.58,4.21-2.44.49-.29.96-.58,1.44-.88.93-.58,1.85-1.17,2.78-1.79.48-.31.95-.62,1.42-.95,2.81-1.9,5.63-3.96,8.44-6.18.5-.39,1-.79,1.49-1.19.71-.57,1.42-1.15,2.12-1.74.3-.24.59-.49.89-.75.13-.1.26-.21.38-.32.45-.38.9-.77,1.35-1.16.54-.46,1.07-.93,1.6-1.41.63-.55,1.25-1.12,1.87-1.68.28-.26.56-.53.84-.79.09-.07.17-.15.25-.22.41-.38.82-.77,1.23-1.16,4.89-4.62,9.78-9.72,14.66-15.31.52-.59,1.04-1.19,1.55-1.79,1.04-1.2,2.07-2.43,3.1-3.67.78-.94,1.56-1.89,2.33-2.85.78-.96,1.56-1.94,2.33-2.92,1.94-2.46,3.88-5,5.8-7.62.76-1.03,1.52-2.06,2.28-3.12.69-.93,1.36-1.86,2.02-2.81.43-.6.85-1.2,1.27-1.8,1.59-2.27,3.18-4.58,4.76-6.96.34-.51.68-1.02,1.02-1.54,2.31-3.47,4.61-7.05,6.91-10.75.08-.14.17-.28.26-.42.12.29.23.58.36.87h0c.25.62.51,1.24.77,1.87.15-.33.29-.66.44-.99.85-1.94,1.71-3.95,2.56-6.02-.18-.5-.35-1-.53-1.5-.06-.17-.11-.34-.17-.5-.18-.5-.35-1-.53-1.5,4.49-19.1,8.82-37.55,13.16-56.01.16.09.31.19.47.28-.66,7.29-1.45,14.52-1.94,21.89-.22,3.26-.57,6.86-.67,10.22,1.4-4.46,2.73-8.96,3.98-13.5,2.49-27.56,7.46-51.87,14.74-72.99.33-2.28.64-4.55.94-6.81.26-1.93.51-3.86.75-5.78.02-.12.03-.24.04-.35.06-.41.11-.81.16-1.21-.15.34-.3.69-.46,1.02-.04.1-.09.2-.14.3ZM119.62,616.42c-5.14,1.89-11.27-8.16-12.53-23.31-1.65-19.74-2.7-39.91-3.47-60.05-.73-19-.77-38.18-1.11-57.29-.2-.06-.39-.13-.58-.2,1.44-36.48,2.74-73.01,4.38-109.43.86-18.92,6.64-30.92,13.31-29.29,6.47,1.57,10.82,15.33,10.33,35.03-.75,30.11-2.66,60.15-2.71,90.24-.07,33.88,1.37,67.77,2.17,101.66.17,6.86.59,13.72.59,20.58-.02,16.42-4.46,29.88-10.38,32.06Z"/>
    <path class="cls-7" d="M171.39,368.36c-1.01,29.29-3.58,58.51-3.66,87.78-.09,32.96,1.85,65.93,2.94,98.88.22,6.68.79,13.35.79,20.02-.02,15.97-6.01,29.06-14,31.18-6.94,1.84-15.21-7.94-16.91-22.67-2.22-19.21-3.64-38.83-4.69-58.41-.98-18.49-1.04-37.14-1.5-55.73-.26-.06-.52-.13-.79-.19,1.95-35.49,3.7-71.02,5.92-106.45,1.15-18.41,8.96-30.07,17.96-28.49,8.74,1.53,14.61,14.92,13.95,34.07Z"/>
    <rect class="cls-2" x="71.52" y="95.5" width="359" height="802"/>
  </g>
</svg>