<?xml version="1.0" encoding="UTF-8"?>
<svg id="Ebene_2" data-name="Ebene 2" xmlns="http://www.w3.org/2000/svg" viewBox="0 0 79.18 79.19">
  <defs>
    <style>
      .cls-1 {
        fill: #f2d0b4;
        stroke-width: 0px;
      }
    </style>
  </defs>
  <g id="Ebene_5" data-name="Ebene 5">
    <g>
      <path class="cls-1" d="M.09,39.56c0-5.94-.23-11.9.05-17.83C.71,9.37,10.59.09,23,.04c11.09-.05,22.18-.06,33.28,0,12.89.07,22.9,10.2,22.9,23.07,0,10.95,0,21.89,0,32.84.01,12.98-9.99,23.14-22.96,23.21-11.06.05-22.13.05-33.19,0-11.79-.05-21.25-8.42-22.82-20.1-.13-.96-.16-1.94-.16-2.91-.01-5.53,0-11.06,0-16.59.01,0,.03,0,.04,0ZM39.6,72.02c5.71,0,11.42.02,17.13,0,8.43-.03,15.12-6.75,15.12-15.18,0-11.36,0-22.72,0-34.08,0-8.29-6.48-15.1-14.75-15.18-11.65-.12-23.31-.12-34.96,0-8.28.09-14.77,6.88-14.77,15.17,0,11.3,0,22.6,0,33.9,0,8.73,6.64,15.37,15.37,15.38,5.62,0,11.24,0,16.86,0Z"/>
      <path class="cls-1" d="M39.61,60.32c-11.36,0-20.56-9.22-20.54-20.55.02-11.39,9.2-20.5,20.68-20.5,11.21,0,20.41,9.24,20.42,20.5,0,11.35-9.21,20.56-20.55,20.55ZM39.55,53.06c7.37.01,13.36-5.93,13.37-13.25.01-7.28-5.94-13.26-13.24-13.31-7.32-.05-13.36,5.95-13.37,13.27-.01,7.29,5.96,13.29,13.24,13.3Z"/>
      <path class="cls-1" d="M60.83,23.28c-2.66,0-4.83-2.17-4.8-4.83.03-2.63,2.17-4.75,4.8-4.75,2.62,0,4.78,2.13,4.81,4.75.03,2.66-2.13,4.83-4.8,4.84Z"/>
    </g>
  </g>
</svg>