<?xml version="1.0" encoding="UTF-8"?>
<svg id="Ebene_2" data-name="Ebene 2" xmlns="http://www.w3.org/2000/svg" viewBox="0 0 60.29 59.14">
  <defs>
    <style>
      .cls-1 {
        fill: #f37633;
        stroke: #1d2f3b;
        stroke-miterlimit: 10;
        stroke-width: .67px;
      }
    </style>
  </defs>
  <g id="Ebene_4" data-name="Ebene 4">
    <g>
      <path class="cls-1" d="M9.09,29.39c6.61-.78,13.22-1.56,19.95-2.35.78-6.63,1.57-13.23,2.35-19.82.07,0,.14,0,.21,0,.4,3.35.79,6.7,1.19,10.04.34,2.9.71,5.8,1.01,8.7.08.79.3,1.12,1.18,1.22,6.32.7,12.64,1.47,18.97,2.38-2.5.3-5,.6-7.51.89-3.9.46-7.81.94-11.71,1.35-.71.08-.83.42-.89,1.01-.71,6.1-1.43,12.19-2.16,18.29-.02.21-.05.42-.27.64-.19-1.5-.39-3.01-.56-4.51-.55-4.72-1.12-9.44-1.63-14.17-.09-.86-.37-1.19-1.27-1.29-5.92-.65-11.83-1.36-17.74-2.06-.37-.04-.73-.11-1.1-.17,0-.05,0-.1,0-.15Z"/>
      <path class="cls-1" d="M13.74,28.26c.06-7.73,6.94-16.09,16.51-16.58.2.66.04.96-.73,1.06-8.41,1.02-14.09,7.82-14.8,14.82-.03.34-.44.63-.68.95-.1-.08-.2-.16-.3-.25Z"/>
      <path class="cls-1" d="M49.21,28.33c-1.22.18-.96-.76-1.06-1.33-1.15-6.47-4.79-10.91-10.87-13.33-1.23-.49-2.61-.62-3.9-.98-.34-.1-.62-.43-.84-.77,7.83-.34,16.52,7.12,16.68,16.4Z"/>
      <path class="cls-1" d="M49.2,30.68c-.02,8.08-7.53,16.39-16.54,16.52-.17-.65.05-.9.75-1,7.99-1.14,13.48-6.56,14.78-14.55.1-.6.08-1.26,1.01-.97Z"/>
      <path class="cls-1" d="M30.27,47.21c-7.75-.06-16.13-7-16.58-16.52.64-.16.96-.02,1.07.74,1.19,8.11,6.68,13.6,14.79,14.78.69.1.91.36.72,1.01Z"/>
      <path class="cls-1" d="M5.28,29.39c.74-.9-.15-2.82,2.06-2.33-.32,1.5-.61,2.98-.99,4.44-.06.22-.55.48-.83.45-.32-.03-.76-.27-.88-.54-.31-.71-.47-1.48-.77-2.5-.24.79-.47,1.31-.54,1.85-.15,1.11-.71,1.48-1.87,1.09-.34-1.53-.7-3.12-1.06-4.71q1.25-.31,2,2.42c.21-.75.38-1.26.5-1.79.12-.52.31-.84.96-.84.65,0,.84.31.96.83.12.5.27.98.45,1.62Z"/>
      <path class="cls-1" d="M32.44,2.82V.41h1.37v4.84c-2.06.62-2.06-1.53-3.22-2.31v2.31h-1.44V.44c2.02-.59,2.01,1.57,3.29,2.38Z"/>
      <path class="cls-1" d="M55.64,31.99v-5.03c1.21,0,2.36-.04,3.51.03.25.02.48.45.72.69-.06.11-.13.21-.19.32-.44,0-.89-.05-1.31.01-.42.06-.82.25-1.23.38.39.15.77.32,1.17.44.17.05.4-.05.55.03.28.15.53.38.79.57-.06.13-.12.26-.18.39-.55,0-1.1-.05-1.64.02-.25.03-.47.3-.71.46.25.18.48.49.75.53.58.08,1.18.03,1.8.03.27.81.11,1.16-.75,1.13-1.04-.04-2.09-.01-3.27-.01Z"/>
      <path class="cls-1" d="M33.4,55.19c-.46-.11-.92-.23-1.38-.34-.36-.09-.72-.17-1.08-.26-.04.15-.07.31-.11.46.51.16,1.01.33,1.52.49.81.25,1.45.66,1.37,1.64-.08,1-.76,1.4-1.64,1.55-1.59.27-2.49-.25-2.87-1.96.7.29,1.19.53,1.7.71.33.11.68.18,1.02.19.09,0,.3-.37.27-.4-.22-.22-.45-.46-.73-.59-.47-.22-1.02-.3-1.45-.57-.72-.45-.86-1.14-.36-1.83.63-.85,1.6-.81,2.47-.61.55.12,1.02.62,1.53.95-.09.19-.18.38-.27.56Z"/>
      <path class="cls-1" d="M22.51,20.38c1.9,1.5,3.84,2.97,5.69,4.54.38.32.45,1.01.65,1.5-1.08.51-1.63.29-2.17-.43-1.38-1.86-2.85-3.65-4.29-5.47.04-.05.08-.09.12-.14Z"/>
      <path class="cls-1" d="M34.47,26.7c-.46-1.02-.18-1.5.45-1.97,1.8-1.35,3.55-2.78,5.49-4-1.53,1.94-3.04,3.91-4.64,5.79-.23.27-.92.13-1.31.18Z"/>
      <path class="cls-1" d="M22.61,38.17c1.51-1.91,3-3.86,4.58-5.71.2-.23.92-.02,1.41-.02-.04.48.1,1.18-.16,1.41-1.83,1.55-3.75,3.01-5.64,4.5-.06-.06-.12-.12-.18-.18Z"/>
      <path class="cls-1" d="M40.37,38.51c-1.88-1.48-3.79-2.93-5.62-4.47-.38-.32-.44-1-.64-1.5,1.16-.53,1.7-.2,2.25.53,1.34,1.8,2.76,3.53,4.15,5.3-.05.05-.09.1-.14.15Z"/>
    </g>
  </g>
</svg>