<?xml version="1.0" encoding="UTF-8"?>
<svg id="Ebene_2" data-name="Ebene 2" xmlns="http://www.w3.org/2000/svg" viewBox="0 0 564.54 555">
  <defs>
    <style>
      .cls-1 {
        fill: #f3d0b4;
        stroke-width: 0px;
      }
    </style>
  </defs>
  <g id="Ebene_2-2" data-name="Ebene 2">
    <path class="cls-1" d="m465.12,56.42l.34-6.25-6.5.33-1.67-4.42-3.67.67-5.5-3.5,1.25-5.17-6.75,2.34-8.91-12.34c5.69,1.73,12.2,4.31,19,8.17,9.11,5.18,15.06,10.6,16.83,12.25,5.4,5.04,9.3,10,12,13.92l-16.42-6Z"/>
    <path class="cls-1" d="m15.47,354.29l-1.36,15.15c-3.16-5.03-6.39-11.25-8.98-18.62-3.48-9.89-4.42-17.88-4.67-20.29-.77-7.35-.46-13.65.07-18.38l8.45,15.3-4.35,4.5,5.13,4.01-1.64,4.43,3.2,1.9,1.86,6.25-4.33,3.08,6.62,2.67Z"/>
    <path class="cls-1" d="m481.13,79.17l.24-13.75c-4.28-1.22-9.91-3.14-16.16-6.25-5.45-2.71-9.58-5.64-17.84-11.5-8.49-6.03-11.26-8.71-13.58-12.42-1.76-2.8-2.76-5.39-3.33-7.17l-11.63,5.15C379.63,12.03,334.74,0,287.04,0,133.78,0,9.54,124.24,9.54,277.5c0,7.98.34,15.89,1,23.7l-7.92,8.8c2.44,3.73,5.42,8.87,8.1,15.32,2.34,5.61,3.53,10.54,5.92,20.38,2.46,10.12,2.79,13.96,2.11,18.28-.51,3.27-1.45,5.88-2.18,7.6l10.52,3.23c39.41,105.26,140.93,180.19,259.95,180.19,153.26,0,277.5-124.24,277.5-277.5,0-77.71-31.94-147.95-83.41-198.33Zm-128.42,119.66l5.66-9.83,4.5,14.67,8.34.66-.34,10.67-23.5-15.67c.67,0,5.34-.5,5.34-.5Zm-58.84,3.34l15.67-3.67-17.5,8-6.17-8.5,8,4.17Zm-13.41,278.27l-9.89,13.95,6.33-14.95s-7.62-5.47-8.66-6.15l12.22,7.15Zm-12.92-241.61v37.17l-4.5-25.67-5.33-.5,9.83-11Zm-35.5,218.29l-12.5,1.3,9.75,23.66-13.5-25.12,16.25.16Zm-27.61,37.93c1.77-6.41,17.49-7.66,35.11-2.79,11.31,3.13,20.65,8.02,25.42,12.82l-5.59,8.25-5.08-6.91s-.25,8.91-.17,9.25c-.25-.41-5.66-12.34-5.66-12.34l-7.17,8.42-3.83-10.67-5.67,11.59-3.17-15.67s-7.5,8.67-7.58,8.92c-.15-.26-1.33-8.67-1.33-8.67l-6.34,6.33-3.25-9.66s-2.5,1.92-5.5,4.24c-.39-1.08-.46-2.13-.19-3.11Zm-15.6-31.01l10.75,15.38-12.58-14,1.83-1.38ZM118.62,184.08l-9.91-23.91,12.16,21.91,11.34-1.66-13.59,3.66Zm8.54-55.36c-12.57,11.99-28.37,15.85-35.29,8.6-1.59-1.66-2.57-3.76-2.99-6.16-.34-1.93-.31-4.04.06-6.27-.59,1.64-1.1,3.3-1.53,4.97-4.46,17.25-.89,36.37,10.88,51.22l-2-2c-11.72-14.8-15.32-33.82-10.93-51.02,2-7.87,5.68-15.36,11.01-21.89,10.02-12.26,24.58-19.53,39.92-20.8,9.21-.77,18.7.62,27.67,4.38l4.37,2.67-2.37-.67c-9.49-3.98-19.58-5.31-29.29-4.23-4.61.51-9.13,1.57-13.47,3.14,5.84-1.13,10.97-.16,14.19,3.2.17.18.33.36.49.55,6.2,7.46,1.54,22.6-10.72,34.31Zm38.71,34.28l5.34-9.75-29.92-18.08,33.08,15.5s-8.25,12-8.5,12.33Zm13.84-43.58l-20.75-8.75,21.41,5.16-.66,3.59Zm110.91,383.66c-4.38,6.09-9.38,9.48-11.91,11-1.64.99-3.21,1.77-4.69,2.4-2.86,1.22-5.38,1.89-7.48,2.44-2.44.63-11.02,2.68-22.5,1.33-9.48-1.11-16.09-3.97-22.33-6.67-8.93-3.86-15.23-8.07-21.05-12.37-1.33-.98-2.64-1.97-3.95-2.96-4.51-3.4-8.05-6.5-11.42-11-1.85-2.47-3.14-4.69-3.97-6.25,4.38,5.75,10.85,13.03,19.86,19.81,3.73,2.81,7.89,5.53,12.53,8.02,8.33,4.48,20.94,11.06,37.91,10.67,5.12-.12,13.13-.3,21.6-4.42.62-.3,1.25-.62,1.88-.97,13.38-7.4,19.49-20.79,20.33-20.22.52.35-2.02,5.33-4.81,9.19Zm-8.08-246c0-25.63,19.96-46.41,44.58-46.41s44.59,20.78,44.59,46.41-19.96,46.42-44.59,46.42-44.58-20.78-44.58-46.42Zm105.79,24.13c-3,8.36-4.5,12.54-6.08,15.25-1.66,2.84-5.65,9.08-12.82,14.98-10,8.24-20.02,10.73-23.78,11.62,0,0-7.6,1.79-16.78.94-.39-.04-2.21-.22-4.39-1.06-1.13-.43-2.69-1.17-2.61-1.44.07-.23,1.31-.01,3,.22,2.11.29,4.23.41,6.34.67,2.12.26,22.36.99,39.16-14.22,14.13-12.8,17.67-29.46,17.77-34.31.01-.64.02-4,.4-4.03.31,0,.85,2.22.96,4.29.18,3.27-.71,5.81-1.17,7.09Zm101.88,7.62l6.5-3.33-6.5,6.83,14.16,12-18.16-10.66,4-4.84Zm14.83,27.67c1.2-1.08,8.49-7.66,15.17-5.33,6.63,2.31,8.21,11.88,9,16.66.44,2.72,1.87,13.39-4.67,24-1.71,2.77-8.69,14.11-16.17,12.84-8.27-1.41-10.79-17.17-11.16-19.5-.72-4.46-2.3-19.53,7.83-28.67Zm-26.5-18.5l-.67,2.67,17,8.83-20-7.83,3.67-3.67Zm-13.17,51.83l1.5-10v10l3.78,14.56,14.22-1.06-15,2.67-4.5-16.17Zm21.3,31.49c-2.69.06-5.4-.11-8.13-.49,0,0-7.15-2.36-8.63-2.83,1.68.46,10.63,2.83,10.63,2.83,2.05.29,4.1.45,6.13.49,21.01-.36,40.21-13.56,47.7-33.65,8.39-22.48.08-48.04-20-61.34l-2.66-2.25,4.66,2.25c20.08,13.3,28.39,38.86,20,61.34-7.73,20.73-27.91,34.11-49.7,33.65Z"/>
    <path class="cls-1" d="m131.65,110.11l-9.44-8.67,3.55,15-15.66-12.33,8.33,17.67-12.22-9.78,4.55,16.11s-14.22-9.11-14.55-9.11,8.33,11.78,8.33,11.78l-9.67-4.56,2.56,12.45-8.55-7.51c-.34-1.93-.31-4.04.06-6.27,2.13-5.97,5.28-11.64,9.43-16.72,6.64-8.13,15.27-14.06,24.81-17.51h.02c5.84-1.13,10.97-.16,14.19,3.2.17.18.33.36.49.55l1.66,9.48-11-6.45,3.11,12.67Z"/>
    <path class="cls-1" d="m327.12,212.95c-23.41,0-42.39,19.76-42.39,44.13s18.98,44.14,42.39,44.14,42.4-19.76,42.4-44.14-18.98-44.13-42.4-44.13Zm22.58,59.91l-5.71,2.53-.31,5.08-3.49-3.18,2.38,9.67-7.13-8.4.64,11.56-7.45-7.76-4.92,9.35-3.97-10.77-10.61,7.28,3.48-9.66-11.25,1.26,6.18-4.75-9.2.64,4.75-6.5-6.02-3.48,4.28-3.8-5.07-3.97,3-.31-1.58-2.06,2.05-.64-3.48-5.23,5.71-2.69-4.44-10.46,7.45,5.07-2.38-9.66,8.41,6.97-2.23-13.15,7.13,9.35,3.97-11.72,5.54,9.98,6.82-14.59-3.33,14.43,13.15-8.08-4.12,13,15.53-4.13-7.13,11.26,15.38,3.96-4.44,2.85,5.23,6.82-13.94,5.07-1.59,6.34,2.69,2.54Z"/>
    <path class="cls-1" d="m526.82,340.22c-.65,2.73-1.81,7.37-5.11,12.45-2.26,3.46-4.62,7.08-9.06,8.44-1.23.38-3.92,1.16-6.78-.11-3.54-1.57-4.73-5.12-4.94-5.78l10.44.22-7.22-7.55,10.11,1.5-10.16-9.11,17.77,1.94-13.27-9.11,12.33,1.5-9.28-9.28,12.83.06-10.5-5.39,9.23-.28-8.06-6.94c1.77-.17,4.75-.14,7.39,1.61,4.25,2.81,4.87,8.27,5.39,12.83.63,5.56-.36,9.87-1.11,13Z"/>
  </g>
</svg>