<?xml version="1.0" encoding="UTF-8"?>
<svg id="Ebene_2" data-name="Ebene 2" xmlns="http://www.w3.org/2000/svg" viewBox="0 0 1877 1086.98">
  <defs>
    <style>
      .cls-1 {
        fill: #000;
      }

      .cls-1, .cls-2, .cls-3, .cls-4, .cls-5, .cls-6, .cls-7, .cls-8 {
        stroke-width: 0px;
      }

      .cls-2 {
        fill: #1d2f3b;
      }

      .cls-3 {
        fill: #c83837;
      }

      .cls-4 {
        fill: #4ea2ac;
      }

      .cls-5 {
        fill: #f2d0b4;
      }

      .cls-6 {
        fill: #192a33;
      }

      .cls-7 {
        fill: #fff;
      }

      .cls-8 {
        fill: #f37633;
      }
    </style>
  </defs>
  <g id="Ebene_6" data-name="Ebene 6">
    <rect class="cls-2" y="10" width="1865" height="1075"/>
    <path class="cls-5" d="M1796.26,6s-.28.56-.83,1.64c-5.65-4.77-12.95-7.64-20.93-7.64-17.95,0-32.5,14.55-32.5,32.5,0,3.32.5,6.53,1.43,9.55-1.55.91-2.94,2.1-4.08,3.52-2.34,2.86-3.75,6.59-3.75,10.68,0,5.42,2.46,10.19,6.21,13.12.35.27.7.53,1.07.75.7.47,1.44.86,2.21,1.19-.95.12-1.84.36-2.69.71-.2.08-.4.17-.59.26-3.68,1.79-6.21,5.79-6.21,10.43,0,3.04,1.09,5.77,2.85,7.81h-.12c-12.5,0-22.61,10.95-22.61,24.49,0,5.42,1.62,10.41,4.37,14.49-8.37,3.55-14.31,12.42-14.31,22.78,0,5.81,1.89,11.15,5,15.38-15.53,1.27-27.98,14.46-29.64,31.13-3.23,4.22-5.17,9.66-5.17,15.6,0,2.49.35,4.87.99,7.13-.32-.02-.64-.05-.99-.05-6.86,0-12.42,5.57-12.42,12.42,0,1.79.37,3.51,1.07,5.05-.35-.05-.7-.08-1.07-.08-6.86,0-12.42,5.57-12.42,12.43,0,1.31.19,2.6.59,3.8-4.25-2.14-9.56-1.69-13.46,1.51-1.94,1.59-3.26,3.65-3.95,5.89-2.74-1.62-5.89-2.51-9.27-2.51-10.29,0-18.64,8.35-18.64,18.63,0,2.76.6,5.37,1.69,7.71-.94-.18-1.93-.25-2.93-.25-4.57,0-8.74,1.64-12,4.4-1.91-1.22-4.2-1.92-6.63-1.92-6.86,0-12.42,5.57-12.42,12.42,0,.35.02.68.05,1-3.06,1.34-5.49,3.87-6.69,7-.05-.05-.1-.12-.15-.17-6.46-7.88-18.11-8.99-25.96-2.51-2.71,2.24-4.62,5.07-5.69,8.17-.52-.79-1.09-1.58-1.71-2.33-10.06-12.2-28.13-13.94-40.33-3.88-3.3,2.71-5.83,6.02-7.57,9.62-2.49-2.76-6.09-4.47-10.09-4.47-3.78,0-7.2,1.54-9.66,4-.25-.4-.55-.77-.85-1.15-6.46-7.87-18.11-8.99-25.96-2.51-.92.75-1.72,1.57-2.46,2.44-2.49-3.21-6.39-5.27-10.76-5.27-3.78,0-7.2,1.54-9.66,4-.25-.4-.55-.77-.85-1.14-6.46-7.88-18.11-8.99-25.96-2.51-.77.62-1.47,1.32-2.11,2.04-2.29-2.96-5.84-4.87-9.87-4.87s-7.85,2.06-10.11,5.19c-.74-.15-1.51-.22-2.31-.22-3.4,0-6.46,1.36-8.72,3.57-.17-.24-.35-.49-.54-.72-6.46-7.87-18.12-8.99-25.97-2.51-7.87,6.49-8.99,18.12-2.51,25.99.23.25.43.52.67.75-1.26.74-2.48,1.59-3.65,2.56-12.22,10.06-13.96,28.12-3.9,40.32,4.92,5.91,11.68,9.39,18.76,10.21-2.24,5.96-1.32,12.92,3.03,18.21,6.48,7.85,18.11,8.97,25.99,2.49,1.49-1.22,2.73-2.64,3.72-4.18.65,1.47,1.52,2.88,2.59,4.18,6.48,7.85,18.11,8.96,25.99,2.48.91-.74,1.73-1.59,2.45-2.46,1.67,4.9,6.31,8.42,11.78,8.42,2.29,0,4.42-.62,6.26-1.69.72,2.02,1.79,3.93,3.21,5.67,6.48,7.85,18.11,8.97,25.98,2.48,2.49-2.06,4.3-4.64,5.42-7.45,1.57.64,3.28.99,5.09.99,1.47,0,2.89-.22,4.23-.67.44.75.94,1.47,1.51,2.16,5.67,6.86,15.26,8.58,22.84,4.57v.15c0,5.05,2.73,9.45,6.78,11.78-1.29,5.79.02,12.1,4.1,17.04,4.89,5.94,12.52,8.35,19.57,6.84.9,3.75,2.64,7.38,5.27,10.56,9.12,11.05,25.34,12.82,36.57,4.02.2.32.45.65.7.94,6.11,7.43,15.45,10.66,24.35,9.3-2.81,6.63-1.94,14.55,2.98,20.52,1.51,1.82,3.26,3.31,5.18,4.45-.75,1.59-1.16,3.37-1.16,5.24s.38,3.5,1.07,5.04c-.35-.05-.69-.07-1.07-.07-6.85,0-12.42,5.56-12.42,12.42,0,1.32.2,2.61.6,3.8-4.25-2.14-9.57-1.69-13.47,1.52-1.94,1.59-3.25,3.65-3.95,5.88-2.73-1.61-5.89-2.51-9.27-2.51-10.28,0-18.63,8.35-18.63,18.64,0,2.75.6,5.36,1.69,7.7-.95-.17-1.94-.25-2.93-.25-4.57,0-8.75,1.64-12,4.4-1.92-1.22-4.2-1.91-6.64-1.91-6.85,0-12.42,5.56-12.42,12.42,0,.35.03.67.05.99-3.05,1.34-5.49,3.88-6.68,7.01-.05-.05-.1-.13-.15-.18-6.46-7.87-18.11-8.99-25.96-2.51-2.71,2.24-4.62,5.07-5.69,8.18-.52-.8-1.1-1.59-1.72-2.34-10.06-12.2-28.12-13.94-40.32-3.87-3.3,2.71-5.84,6.01-7.58,9.61-2.48-2.76-6.08-4.47-10.08-4.47-3.78,0-7.21,1.54-9.67,4-.25-.4-.55-.77-.84-1.14-6.46-7.88-18.12-9-25.97-2.51-.92.74-1.71,1.56-2.46,2.43-2.48-3.2-6.38-5.26-10.75-5.26-3.78,0-7.21,1.54-9.67,4-.25-.4-.54-.77-.84-1.15-6.46-7.87-18.11-8.99-25.97-2.51-.77.62-1.46,1.32-2.11,2.04-2.28-2.96-5.84-4.87-9.86-4.87s-7.85,2.06-10.11,5.19c-.75-.15-1.52-.22-2.31-.22-3.41,0-6.46,1.37-8.72,3.58-.18-.25-.35-.5-.55-.72-6.46-7.88-18.11-9-25.96-2.51-7.88,6.48-9,18.11-2.51,25.99.22.24.42.52.67.74-1.27.75-2.49,1.59-3.65,2.56-12.23,10.06-13.97,28.12-3.9,40.32,4.92,5.92,11.67,9.39,18.75,10.21-2.23,5.97-1.31,12.92,3.03,18.21,6.49,7.86,18.12,8.97,25.99,2.49,1.49-1.22,2.74-2.63,3.73-4.17.65,1.46,1.51,2.88,2.58,4.17,6.49,7.85,18.11,8.97,25.99,2.48.92-.74,1.74-1.59,2.46-2.46,1.66,4.9,6.31,8.43,11.78,8.43,2.28,0,4.42-.62,6.26-1.69.72,2.01,1.79,3.92,3.2,5.66,6.49,7.85,18.11,8.97,25.99,2.49,2.48-2.07,4.3-4.65,5.42-7.46,1.56.65,3.28,1,5.09,1,1.46,0,2.88-.23,4.22-.67.45.74.95,1.46,1.52,2.16,5.66,6.85,15.25,8.57,22.83,4.57v.15c0,5.04,2.73,9.44,6.78,11.77-1.29,5.79.03,12.1,4.1,17.05,4.9,5.94,12.52,8.34,19.58,6.83.89,3.75,2.63,7.38,5.27,10.56,9.11,11.05,25.34,12.82,36.57,4.02.2.33.45.65.69.95,6.12,7.43,15.46,10.66,24.35,9.29-2.81,6.63-1.94,14.56,2.98,20.52,6.81,8.25,18.79,9.64,27.28,3.35,1.94,5.17,6.93,8.82,12.77,8.82,1.15,0,2.24-.14,3.31-.42-1.67,6.06-.48,12.82,3.85,18.06,3.95,4.77,9.66,7.26,15.4,7.28-3.95,6.98-3.43,15.98,1.99,22.54,2.41,2.93,5.49,4.99,8.84,6.16-1.59,9.54.8,19.7,7.43,27.75,4.47,5.42,10.26,9.14,16.52,11.06-.49,5.09.95,10.38,4.48,14.66,1.83,2.21,4.02,3.95,6.46,5.14-5.25,11.63-3.81,25.71,4.84,36.22,6.16,7.45,14.76,11.68,23.68,12.45-5,5.86-6.14,14.09-3.08,21.04-.65.4-1.27.85-1.87,1.34-8.52,7.03-9.74,19.63-2.71,28.15,3.73,4.5,9.02,6.98,14.44,7.26-7.88,7.1-8.85,19.25-2.01,27.53,1.14,1.39,2.43,2.58,3.85,3.57-1.64,1-3.11,2.31-4.35,3.93-5.32,6.98-3.95,16.94,3.06,22.23,2.31,1.77,4.97,2.79,7.67,3.11,1.66.21,3.34.14,4.98-.18l.03.3h199.75V6h-80.74ZM1753.3,91.11c1.1-2.16,2.18-4.31,3.25-6.42-.4,2.53-1.58,4.77-3.25,6.42Z"/>
  </g>
  <g id="Ebene_7" data-name="Ebene 7">
    <g>
      <g>
        <path class="cls-3" d="M1342,326l201,22s-109.1,2.02-107.9.01,72.9,14.99,72.9,14.99l-74.56,2.29,70.56,19.71-76.29,2.31,100.29,40.69-194-57,8-45Z"/>
        <path class="cls-8" d="M1329,320l110,10s-60.1,10.02-58.9,8.01,53.9,15.99,53.9,15.99l-55.56,1.29,50.56,16.71-56.29,5.31,56.29,34.69-111-38,11-54Z"/>
      </g>
      <path class="cls-5" d="M1336.93,330.59l25.74-3.13s-18.35,12.45-17.57,11.13,15.76,7.68,15.76,7.68l-16.85,3.63,12.36,7.55-16.11,6.86,11.51,16.49-23.1-14.58,8.25-35.64Z"/>
    </g>
    <g>
      <g>
        <path class="cls-3" d="M1286,616l201,22s-109.1,2.02-107.9.01,72.9,14.99,72.9,14.99l-74.56,2.29,70.56,19.71-76.29,2.31,100.29,40.69-194-57,8-45Z"/>
        <path class="cls-8" d="M1273,610l110,10s-60.1,10.02-58.9,8.01,53.9,15.99,53.9,15.99l-55.56,1.29,50.56,16.71-56.29,5.31,56.29,34.69-111-38,11-54Z"/>
      </g>
      <path class="cls-5" d="M1280.93,620.59l25.74-3.13s-18.35,12.45-17.57,11.13,15.76,7.68,15.76,7.68l-16.85,3.63,12.36,7.55-16.11,6.86,11.51,16.49-23.1-14.58,8.25-35.64Z"/>
    </g>
    <g>
      <path class="cls-2" d="M871.88,381.99c.22.18.43.31.66.47l.33-.31-.22-.04c-.25-.04-.52-.09-.77-.11ZM877.91,365.11c.11-.21.23-.4.36-.58l-.18-.03c-.04.2-.1.4-.18.61Z"/>
      <path class="cls-7" d="M375.74,399.3l.47.08c.06-.06.09-.22.09-.22-.19.03-.36.07-.56.13Z"/>
      <path class="cls-5" d="M965.82,503c-6.13-7.72-12.03-12.8-21.57-14.5-50.84-9.06-101.67-18.22-152.5-27.37-21.94-3.96-43.89-7.9-65.84-11.85-3.43-.59-6.98-.65-10.48-.96-.29,1.22-.57,2.44-.86,3.68,2.41,1.41,4.7,3.18,7.3,4.13,13.1,4.91,26.31,9.67,39.5,14.36,21.92,7.81,38.62,22.9,50.78,41.64,33.4,51.53,66.7,103.22,97.37,156.38,14.26,24.73,38.3,32.57,59.73,47.32l5-27.73,27.07-150.22c-13.46-12.95-25.9-22.8-35.51-34.89ZM953.15,605.27c5.63,1.02,10.7,1.93,16.7,3.02l-.78,4.36c-1.05,5.82-2.1,11.68-3.18,17.65l-2.48,13.73c-3.23-.58-6.54-1.18-10.07-1.81-.7-.13-1.42-.26-2.13-.39-1.46-.26-2.95-.53-4.5-.81l.41-2.32c.14-.78.27-1.54.41-2.31l.82-4.53c.13-.76.27-1.51.41-2.25l.8-4.45c.4-2.23.79-4.43,1.19-6.63l2.4-13.26ZM952.25,646.25c.64-.67,1.3-1.35,1.95-2.08h.01c.24.46.48.9.72,1.33.24.43.49.85.73,1.26.03.06.07.12.1.17.21.35.41.69.62,1.03,0,0,.01,0,.01,0,.21.34.41.67.61.99.61.97,1.2,1.88,1.73,2.73.19.28.35.56.52.83.42.68.79,1.31,1.12,1.91.07.12.12.23.18.35.54,1.04.87,1.95.91,2.74,0,.14,0,.27,0,.4-.01.12-.03.25-.06.37-.03.08-.05.16-.08.24-.08.2-.16.4-.26.6-.3.58-.7,1.11-1.16,1.63-.36.39-.76.76-1.2,1.13-.22.18-.45.37-.69.54-.23.17-.46.35-.7.52-.38.25-.75.5-1.15.76-.25.16-.51.33-.78.49-1.11.7-2.27,1.39-3.33,2.1-.16.11-.34.23-.49.34-.28.19-.54.38-.8.58-.01,0,0,.01-.02.01-.51-.74-1.11-1.47-1.74-2.21-.21-.25-.42-.49-.63-.74,0,0,0,0,0,0-.19-.22-.38-.44-.57-.65-.1-.1-.18-.21-.29-.31t0,0c-.65-.76-1.3-1.53-1.87-2.29-.12-.15-.23-.32-.35-.48-.03-.06-.08-.11-.11-.16-.14-.21-.28-.43-.42-.65-.13-.21-.24-.43-.36-.64-.1-.21-.19-.43-.29-.65-.06-.16-.12-.31-.17-.48-.05-.16-.09-.32-.12-.47-.01-.03-.01-.06-.01-.08-.04-.19-.06-.37-.07-.56,0-.13,0-.25,0-.37,0-.21.04-.42.08-.63.02-.1.05-.2.08-.3.02-.07.04-.14.07-.2.02-.09.06-.18.1-.27.03-.1.08-.19.13-.29.03-.06.05-.12.09-.18.05-.11.12-.22.18-.32.13-.21.27-.43.43-.63.16-.21.33-.43.51-.65,1.57-1.88,4.09-3.98,6.82-6.76ZM997.26,543.55c0,.24-.01.48-.04.73-.06.99-.23,2.02-.48,3.1-.13.54-.28,1.1-.45,1.67-.17.56-.36,1.15-.57,1.74-.1.3-.2.59-.28.89-.09.3-.19.6-.27.91-.39,1.36-.73,2.83-1.16,4.5-.14.56-.29,1.14-.45,1.75-3.83-4.28-7.83-8.26-11.96-11.95-1.02-.92-2.06-1.83-3.12-2.72-1.25-1.06-2.52-2.1-3.8-3.12-.71-.57-1.44-1.13-2.16-1.69-.49-.38-.99-.78-1.51-1.15-.73-.56-1.46-1.1-2.2-1.64t-.01,0c-1.1-.8-2.19-1.58-3.31-2.35-1.11-.77-2.23-1.53-3.35-2.27-.6-.4-1.21-.79-1.81-1.18-.53-.34-1.06-.68-1.59-1.01-4.13-2.6-8.34-5.04-12.62-7.35-.73-.4-1.48-.79-2.22-1.18-.73-.39-1.48-.78-2.23-1.16-.48-.25-.97-.5-1.46-.74-.86-.44-1.71-.87-2.58-1.29-2.41-1.18-4.83-2.33-7.26-3.44-2.44-1.12-4.89-2.2-7.35-3.27-1.24-.52-2.47-1.05-3.72-1.57-.95-.41-1.91-.81-2.87-1.19-1.21-.5-2.42-1-3.64-1.48-1.56-.62-3.11-1.25-4.68-1.85-.22-.09-.44-.18-.67-.26-1.66-.65-3.31-1.29-4.97-1.92-6.9-2.64-13.84-5.2-20.76-7.77-3.54-1.31-7.09-2.59-10.65-3.85-1.78-.63-3.57-1.26-5.36-1.88-3.57-1.23-7.16-2.45-10.76-3.66-14.7-4.91-29.6-9.59-44.73-14.45h-.01c-2.61-.85-5.22-1.68-7.85-2.54-.78-.25-1.57-.5-2.35-.76-1.85-.6-3.69-1.21-5.54-1.81-.01,0-.01,0-.02,0-.02,0-.04,0-.05-.02,2.91.53,5.83,1.05,8.72,1.57,0,0,.01,0,.02,0,1.65.3,3.3.6,4.95.9,1.66.31,3.31.61,4.96.9,12.37,2.23,24.65,4.45,36.85,6.66,9.16,1.66,18.27,3.31,27.36,4.94,12.12,2.18,24.18,4.34,36.23,6.5,9.04,1.6,18.07,3.2,27.1,4.78.53.09,1.04.19,1.55.29.51.11,1.01.22,1.5.34,1.44.35,2.81.77,4.13,1.24.26.1.51.19.76.29.04.02.08.04.12.05.26.1.5.19.75.31.44.19.87.38,1.3.59.35.16.69.33,1.03.51.51.27.99.56,1.48.85.31.18.61.37.9.57.33.21.66.43.97.67.1.07.21.15.31.22.33.24.66.49.97.75.26.22.54.43.79.66.07.07.15.12.21.19.12.09.23.2.35.31.26.24.53.47.78.73.36.34.71.7,1.05,1.07.34.35.66.7.98,1.08.41.47.8.96,1.2,1.46.4.51.79,1.03,1.17,1.57s.76,1.1,1.14,1.68c1.39,2.14,2.94,4.25,4.64,6.3.4.49.81.98,1.22,1.45.03.04.06.08.1.11.43.49.86.97,1.3,1.45.32.36.66.71,1,1.07.26.28.52.55.81.83.15.16.31.31.48.47.37.39.76.77,1.18,1.15.78.75,1.59,1.47,2.42,2.18.21.18.41.35.62.52.4.34.81.67,1.23.99.26.22.52.41.79.61,1.41,1.07,2.85,2.06,4.32,2.96.37.23.76.45,1.14.67.45.26.9.51,1.35.75,7.03,3.7,10.35,7.62,10.64,12.9.02.28.02.55.02.84,0,.11,0,.23,0,.34Z"/>
      <path class="cls-5" d="M867.49,414.59c-1.61,6.62-3.03,12.47-4.46,18.3-.26-.05-.54-.1-.81-.13.62-6.2,1.22-12.41,1.86-18.76l-95.22-17.16c-1.31,4.39-2.34,7.97-4.02,13.68.44-6.32.7-10.38,1-14.28l-192.71-34.73c-.35,3.14-.67,6.25-.98,9.32-1.07,10.58-2.05,20.76-3.6,30.83-1.58,10.23,1.66,15.29,12.21,16.96,25.08,3.99,50.05,8.76,75.07,13.09,2.06.38,4.32-.33,6.48-.52.06-1.03.13-2.03.2-3.04l-79.71-14.36.51-2.84,81.17,14.62c2.15,4.37,5.38,8.46,9.29,9.24,12.49,2.48,25.01,4.82,37.55,7.07,14.33,2.6,28.68,5.09,43.02,7.61,2.04.37,4.26-.37,6.38-.59.09-1.12.17-2.21.26-3.33l-73.78-13.3h-.02s-16.65-3.01-16.65-3.01c.18-.88.34-1.77.51-2.66.05-.25.1-.5.15-.75l89.51,16.13,3.39-18.81c.37,6.93-1.01,13.79-.24,20.39.36,3.25,4.25,8.15,7.26,8.75,27.14,5.47,54.41,10.27,81.7,14.84,2.17.37,4.88-2.45,7.34-3.76l-92.04-16.59c.15-1.01.32-2.02.49-3.03l89.99,16.22,2.66-14.78c.83.12,1.67.23,2.5.33l-3.16,17.54c3.68,2.56,7.04,6.63,11.07,7.45,23.05,4.69,46.22,8.61,69.36,12.73,3.55.61,7.16.85,10.51,1.23l9.56-53.03-93.61-16.87ZM948.51,476.72c-.15.72-.31,1.44-.47,2.17-27.47-4.95-54.94-9.9-82.4-14.85h-.01s.4-2.18.4-2.18h0s82.48,14.86,82.48,14.86h0Z"/>
      <path class="cls-5" d="M1042.04,168.81c-16.71,2.54-31.39,8.19-45.11,19.11-35.94,28.55-72.15,56.78-108.73,84.51-7.06,5.34-14.14,10.67-21.22,15.98-5.91,4.44-11.84,8.85-17.77,13.26-16.9,12.54-36.84,20.53-58.93,20.34-11.4-.09-22.83.19-34.23.28.01,1.11.04,2.2.07,3.3,18.33-.84,38.66,3.08,54.53-3.59,29.05-12.24,56.79-15.18,86.49-6.48,4.69,1.38,9.78,1.4,14.52,2.67,37.7,10.08,72.77,1.93,106.59-15.08,7.53-3.79,15.03-7.7,23.71-12.14l-8.63,47.92c-15.8,6.63-30.23,10.53-42.09,18.33-9.5,6.27-17.78,8.22-28.42,6.26-55.55-10.24-111.14-20.14-166.73-30.17l-36.26-6.53c-.22,1.11-.47,2.23-.7,3.34,1.2.42,2.38,1.05,3.64,1.28,55.28,9.96,110.54,20.11,165.87,29.77h.02c10.11,1.77,20.23,3.52,30.34,5.24,3.63.63,7.25,1.25,10.87,1.86,6.77,1.16,14.74-3.42,21.89-6.07,12.22-4.56,23.92-10.86,36.45-14.04,6.38-1.63,8.77-3.34,9.8-9.45,3.65-21.14,7.49-42.23,11.34-63.33,1.32-7.24,2.64-14.49,3.95-21.73l6.23-34.57,10.02-55.61c-10.54,2.05-18.97,4.02-27.51,5.33ZM1024.1,213.12l2.42-13.42.83-4.56h0s16.53,2.97,16.53,2.97l-.79,4.37c-.79,4.37-1.58,8.75-2.37,13.17l-.06.26-.75,4.18c-.4,2.23-.8,4.46-1.21,6.72-.41,2.26-.82,4.53-1.23,6.82-3.42-.61-6.69-1.2-10.13-1.82-1.23-.22-2.5-.44-3.79-.68-.85-.15-1.72-.31-2.6-.48l.78-4.36c.52-2.91,1.05-5.83,1.58-8.76l.65-3.58c.04-.27.09-.55.14-.83ZM1024.85,256.17c-.09-.01-.19-.04-.28-.07-1.4-.41-3.02-1.86-4.33-3.6-.08-.1-.14-.18-.21-.28-.97-1.34-1.74-2.84-2.11-4.17-.08-.27-.14-.52-.17-.76-.06-.41-.08-.8-.04-1.15.01-.13.03-.27.07-.4.01-.09.04-.18.06-.27.16-.61.45-1.21.84-1.8.1-.17.21-.32.33-.48,0,0,0,0,0,0,.24-.31.51-.63.78-.93.08-.1.18-.21.28-.32.09-.11.2-.21.29-.32.3-.31.62-.62.95-.92.32-.31.67-.62,1.01-.93.68-.61,1.38-1.22,2.05-1.84.23-.2.45-.42.67-.62.44-.41.86-.82,1.23-1.24.76.14,1.52.28,2.28.42.3.05.61.11.9.17.46.07.91.16,1.36.25h0s0,0,0,0c.14.35.29.71.44,1.09.15.32.3.64.45.98.16.34.33.69.51,1.04.87,1.75,1.8,3.52,2.38,5.2.17.45.29.89.38,1.32.24,1.02.28,1.99.04,2.87-.03.09-.05.17-.1.27-.12.37-.32.74-.59,1.12-.05.09-.12.2-.2.29-.2.29-.44.58-.7.86,0,0-.01,0-.01,0-.17.2-.36.38-.55.56-.1.09-.2.18-.3.28-.09.1-.2.18-.31.27-.32.28-.65.54-.99.78-.23.17-.46.34-.7.48-.12.08-.23.15-.35.22-.36.23-.73.44-1.09.61-.49.25-.97.46-1.44.63-.12.05-.24.09-.35.12-.93.3-1.81.42-2.51.28Z"/>
      <path class="cls-7" d="M872.65,382.1l.22.04-.33.31c-.23-.16-.43-.29-.66-.47.25.02.52.07.77.11Z"/>
      <path class="cls-7" d="M878.09,364.49l.18.03h.04s-.4.58-.4.58c.09-.22.14-.41.18-.61Z"/>
      <path class="cls-5" d="M878.6,360.82s.02-.06,0-.09c.01-.16,0-.33-.05-.5,0-.02-.02-.02-.01-.05-.09-.41-.2-.79-.37-1.13-.07-.14-.15-.27-.23-.4-.02-.06-.07-.11-.11-.16-.1-.18-.26-.35-.39-.51-.32-.31-.65-.6-1.05-.84-.39-.26-.82-.47-1.29-.67-.47-.2-.99-.39-1.55-.53-.99-.3-2.08-.52-3.26-.71-25.29-4.3-50.57-8.71-75.76-13.72-1.38-.27-2.71-.46-3.95-.52-.16-.01-.32-.01-.48-.02-.23-.02-.46-.01-.69,0-.28,0-.53-.01-.79.01-.28.02-.59.03-.87.08-.22.03-.43.05-.65.09-.53.09-1.03.21-1.52.38-.18.06-.34.12-.5.19-.02,0-.04,0-.05.01-.27.12-.55.23-.83.39-.15.06-.3.13-.46.24-.16.07-.3.16-.45.28-.17.1-.37.23-.53.36-.04.03-.09.06-.12.1-.83.62-1.58,1.41-2.3,2.38-.18.22-.34.45-.5.7.11-.47.21-.89.24-1.31.03-.15.05-.29.05-.45.05-.28.06-.56.06-.84.01-.31-.01-.61-.05-.9,0-.04-.01-.09-.02-.13-.03-.21-.07-.41-.12-.59-.07-.25-.15-.49-.27-.73-.01-.05-.03-.1-.08-.16-.1-.22-.24-.44-.42-.65-.05-.08-.1-.13-.15-.19-.1-.12-.21-.24-.33-.33-.17-.15-.33-.29-.5-.41-.3-.24-.69-.45-1.12-.64-.24-.12-.48-.23-.77-.33-.31-.1-.63-.21-.99-.3-.24-.07-.51-.13-.78-.19-.26-.07-.55-.12-.86-.18-16.69-2.81-33.34-5.88-50-8.82-10.23-1.81-20.46-3.58-30.72-5.21-3.01-.47-8.55,2.65-9.77,5.47-3.68,8.43-5.8,17.55-7.77,23.88l-92.56-16.68.99-5.09,90.84,16.37c.27-1.52.51-3.02.77-4.55l-89.96-16.21c1.68-5.85,2.79-9.7,4.19-14.51l13.88,2.5c22.78,4.08,45.54,8.27,68.34,12.11,3.23.53,6.8-.75,10.18-1.18-.08-1.31-.19-2.64-.3-3.96-29.36-5.3-58.73-10.7-88.15-15.65-2.08-.35-6.3,2-6.87,3.92-3.23,10.59-6.16,21.25-9.24,32.56-1.48,5.44-2.99,11.02-4.59,16.83,34.58,4.68,66.29,7.85,97.58,13.49,32.02,5.78,63.61,13.99,95.58,21.16,1.7-6.19,2.79-10.18,4.52-16.58-.37,6.53-.6,10.56-.88,15.15l95.42,17.2,2.88-16.02,1.02-5.65-91.25-16.44c.2-1.4.41-2.78.59-4.18,4.17.3,8.42.25,12.55.92,16.11,2.61,32.19,5.25,48.28,7.92,10.85,1.79,21.71,3.61,32.58,5.41-2.86-2.01-5.52-4.81-8.64-5.42-23.01-4.52-46.1-8.52-69.16-12.68l-12.23-2.2,2.54-14.08,93.72,16.89c.31-.94.48-1.78.53-2.53,0-.19.02-.37.03-.55,0-.04-.01-.07-.02-.09.01-.16.01-.32-.03-.5ZM778.85,349.91c-.31,1.69-.6,3.38-.91,5.06-1.01,5.61-2.01,11.17-2.98,16.51-33.24-5.99-64.01-11.54-94.78-17.08.05-.61.09-1.22.13-1.82.05-.6.09-1.21.13-1.81h0c.53-.09,1.06-.17,1.59-.23h.02c.54-.06,1.08-.1,1.62-.13.41-.02.81-.04,1.21-.05.81,0,1.61.01,2.42.05.4.03.8.06,1.21.08.39.03.77.07,1.16.12.39.04.78.09,1.16.14,2.47.32,4.93.83,7.4,1.37.47.1.93.21,1.39.31,1.47.33,2.95.67,4.42.99.48.1.95.2,1.44.29.27.05.54.11.81.16.8.16,1.61.3,2.41.43.27.04.54.09.81.13,2.72.38,5.43.81,8.14,1.26,2.7.45,5.41.92,8.11,1.41,2.7.49,5.4.99,8.12,1.49,2.69.5,5.39,1,8.09,1.48,10.25,1.82,20.46,3.68,30.68,5.52h0c.28-1.36.55-2.68.82-4.03l-11.18-2.02c-18.62-3.36-37.22-6.71-55.69-10.04l-22.1-3.98c-.06-1.71-.1-3.24-.11-4.61-.01-.55,0-1.07,0-1.56,0-.06,0-.12,0-.18,0-.91.04-1.74.11-2.48.02-.19.04-.38.06-.57.03-.34.07-.66.13-.96.04-.19.08-.38.11-.56.06-.3.15-.59.23-.85.09-.25.17-.47.27-.69.05-.11.1-.22.16-.31l.11-.19c.23-.36.5-.66.82-.91.08-.06.15-.12.24-.16.08-.05.15-.1.23-.13.34-.18.72-.32,1.16-.41.1-.03.21-.04.32-.06,1.91-.3,4.65.11,8.62.83,15.02,2.75,30.02,5.53,45.03,8.33,12.45,2.31,24.91,4.64,37.36,6.96h0s-.53,2.9-.53,2.9Z"/>
      <path class="cls-2" d="M666.62,448.6l-.07.38c-29.45-10.1-51.01-16.48-55.83-17.92-18.98-5.64-32.11-9.67-41.58-12.68,11.99,3.51,23.99,7.01,35.93,10.69,20.57,6.37,41.04,13.01,61.55,19.53Z"/>
      <path class="cls-2" d="M413.47,320.2c-3.71,5.02-5.65,10.01-5.72,14.9-.18-2.09-.02-4.26.6-6.41.95-3.34,2.81-6.13,5.12-8.49Z"/>
      <path class="cls-5" d="M1069.76,550.88l-38.87-7-27.77,154.07-5.42,30.11c3.54.17,6.24-.08,8.74.48,13.43,3,18.12-3.78,21.18-15.9,4.12-16.19,8.55-32.31,13.07-48.4,4.51-16.02,9.08-32.02,13.52-48.07,5.71-20.61,11.26-41.29,17.29-63.34.14-.52.28-1.04.42-1.57l-2.16-.39ZM1064.61,560.35c-.16.66-.32,1.31-.48,1.96-.77,3.08-1.53,6.13-2.35,9.44-3.3-1.79-5.86-3.3-8.29-4.57-.95-.5-1.88-.96-2.82-1.39-.74-.34-1.44-.64-2.12-.93-.68-.28-1.33-.55-1.96-.78-1.26-.46-2.41-.82-3.45-1.05-.21-.05-.42-.1-.62-.13-.21-.04-.4-.08-.61-.11-.19-.03-.38-.05-.57-.07-.13-.02-.26-.03-.39-.04-.12-.01-.24-.02-.36-.02-.3-.01-.58,0-.85,0-.22.01-.44.03-.65.07-.01,0-.02,0-.02,0-.21.03-.42.06-.61.11-.18.04-.35.09-.51.14-.06.02-.12.05-.18.06-.17.06-.32.13-.47.2-.19.08-.36.17-.54.28-.13.07-.25.15-.37.24-.1.07-.19.13-.29.22-.11.08-.21.16-.32.26-.48.42-.91.93-1.31,1.54-.09.14-.18.27-.26.4-.09.15-.17.29-.26.44-.16.3-.33.61-.48.95-.23.5-.45,1.05-.66,1.63,0,0,0,0,0,0-.14.39-.27.8-.4,1.22-.53,1.71-.98,3.73-1.41,6.07-1.74,9.6-3.48,19.21-5.21,28.82-1.74,9.61-3.47,19.22-5.2,28.83-3.47,19.22-6.93,38.44-10.43,57.65-.24,1.36-.53,2.7-.91,4.04-.23.81-.49,1.62-.79,2.41-.46,1.23-1.03,2.43-1.73,3.61-.11.19-.23.37-.35.56-.12.19-.24.37-.36.55-.29.43-.6.85-.95,1.28.37-2.02.73-4.04,1.09-6.06,6.68-37.1,13.37-74.2,20.09-111.45l7.09-39.34h0s32.96,5.93,32.96,5.93h0c-.1.42-.2.81-.29,1.21-.49,2-.96,3.9-1.44,5.79Z"/>
      <path class="cls-5" d="M555.46,331.5c5.55,1.06,11.11,2.03,19.19,3.48l-1.21,6.72-11.62,64.42-1.4,7.79c-20.55-7.47-42.33-14.94-63.64-23.56-3.84-1.55-7.63-7.58-8.21-11.98-1.74-13.23-1.19-26.21,1.64-38.75,1.63-7.24,4.02-14.33,7.17-21.23.92-2.01,1.9-4.01,2.95-5.99,2.28-4.28,9.12-8.53,13.98-8.67,22.5-.66,45.04.14,67.58.41.2,1.72.4,3.44.6,5.16-3.88.6-7.79,1.77-11.63,1.65-18.54-.56-37.05-1.65-55.58-2.08-4.12-.09-8.28,1.81-12.44,2.8.23,1.06.45,2.14.68,3.2,5.68.71,11.34,1.4,17.01,2.1.01,1.46.01,2.89.02,4.36-4.36.13-8.7.27-13.47.45-1.06.03-2.15.07-3.26.11,4.13,1.09,7.68,2.04,12.99,3.45-9.25,17.11-10.98,34.78-7.1,53.5,1.69,8.2,4.92,12.55,12.77,14.74,6.78,1.92,13.25,5,20.82,7.96,1.08-10.47,2.53-19.38-10.06-23.09-2.61-.77-5.39-5.11-5.9-8.16-.97-5.89-1.07-12.14-.28-18.06,1.63-12.14,4.07-18.45,9.79-20.88,4.16-1.75,10.04-1.45,18.59.17Z"/>
      <path class="cls-5" d="M1050.74,352.86c-10.23-.84-20.35-.98-29.99.88-6.26,1.2-12.34,3.25-18.12,6.51t-.02.01c-3.03,1.71-5.97,3.75-8.82,6.16-1.87,1.59-3.45,3.38-4.7,5.3-2.71,4.11-4.01,8.82-3.94,13.46.1,7.65,3.88,15.12,11.15,19.41,29.34,17.34,62.38,19.17,92.35,23.34l5.23-29.05,5.61-31.07,1.72-9.57c-16.81-1.83-33.62-3.98-50.48-5.38ZM1085.84,419.18c-.09.41-.16.82-.25,1.23-.05.29-.12.6-.18.9h-.01s-71.9-12.95-71.9-12.95c.15-.72.28-1.43.43-2.14h0s71.91,12.95,71.91,12.95h0ZM1090.43,380.35c-.22.77-.43,1.55-.65,2.32-.41,1.45-.82,2.9-1.23,4.35-.31,1.11-.63,2.22-.94,3.33h0c-.89-.31-1.77-.63-2.65-.96-.88-.31-1.76-.64-2.64-.97-2.64-.98-5.27-1.99-7.9-3-.87-.34-1.75-.67-2.63-1.01-1.75-.67-3.51-1.34-5.27-1.99-.88-.33-1.76-.65-2.64-.97-.88-.32-1.76-.64-2.64-.95-.81-.3-1.61-.58-2.43-.86-.74-.26-1.47-.51-2.22-.76-1.1-.38-2.22-.75-3.33-1.11-.67-.21-1.34-.43-2.01-.63-.66-.2-1.33-.41-2.01-.61s-1.34-.4-2.02-.59c-.67-.19-1.35-.38-2.02-.56-.72-.2-1.45-.39-2.17-.57-.63-.17-1.25-.31-1.87-.47-.16-.05-.34-.09-.51-.12-.68-.15-1.35-.32-2.03-.47l-2.22-.48c-6.5-1.39-13.19-2.48-20.24-3.62-5.26-.85-10.71-1.72-16.43-2.75.75-.37,1.51-.75,2.26-1.09.75-.35,1.5-.69,2.26-1.02,1.5-.64,3-1.25,4.5-1.79.37-.14.75-.27,1.12-.4.37-.13.75-.26,1.12-.38,1.49-.5,2.99-.96,4.48-1.37.74-.2,1.49-.4,2.23-.58.38-.09.74-.17,1.12-.26s.75-.17,1.12-.25c1.85-.41,3.7-.76,5.56-1.04,1.47-.23,2.94-.42,4.41-.59.37-.04.75-.08,1.13-.11,2.72-.27,5.43-.43,8.15-.48h.13c.6-.03,1.2-.03,1.8-.03.63,0,1.26-.01,1.88,0,.57,0,1.14,0,1.71.02.08,0,.16,0,.24,0,2.49.04,4.97.15,7.45.34.62.04,1.25.08,1.87.14.62.05,1.26.09,1.88.15,1.25.1,2.5.22,3.75.35.62.07,1.25.13,1.87.2,1.25.13,2.49.28,3.73.43,6.87.82,13.72,1.82,20.57,2.66,1.23.15,2.46.3,3.7.43,1.32.15,2.63.29,3.95.42.55.06,1.1.12,1.65.17h.01c-.62,2.21-1.23,4.34-1.81,6.44-1.09,3.82-2.13,7.49-3.16,11.1Z"/>
      <path class="cls-5" d="M1022.28,465.21c-14.43-1.39-29.25.91-43.86,2.13-2.84.24-7.26,2.7-7.86,4.97-.41,1.51-.83,3.05-1.24,4.59-2.79,10.57-4.8,21.44,5.1,30.3,7.78,6.98,15.56,15.39,24.95,18.88,21.86,8.15,44.67,13.7,67.91,20.54l6.2-34.38,6.67-37.04c-17.79-3.21-37.7-8.07-57.88-10ZM1058.72,535.98c-2.5-.28-4.99-.58-7.47-.94-1.24-.18-2.47-.36-3.72-.56-1.23-.19-2.47-.4-3.7-.62-1.64-.29-3.28-.6-4.91-.94-1.23-.24-2.44-.51-3.66-.78-1.22-.27-2.44-.56-3.64-.86-1.2-.29-2.4-.6-3.59-.93-.76-.2-1.52-.41-2.27-.62-.12-.03-.24-.07-.37-.1-.74-.21-1.49-.43-2.23-.66-1.2-.36-2.4-.74-3.6-1.13-1-.32-2-.66-2.99-1.02-.93-.32-1.85-.66-2.78-1.01-.14-.04-.28-.09-.41-.15-.64-.24-1.29-.49-1.93-.74-.42-.16-.83-.32-1.25-.49-2.15-.86-4.28-1.77-6.41-2.76-.66-.29-1.31-.6-1.96-.91-.38-.17-.75-.35-1.13-.54-2.53-1.22-5.05-2.53-7.56-3.95-.58-.32-1.16-.65-1.74-.98-1.56-.89-3.13-1.84-4.68-2.81,9.27,2.89,18.32,5.71,27.2,8.48,5.66,1.77,11.25,3.51,16.81,5.23.4.13.8.25,1.19.37,3.97,1.24,7.91,2.46,11.84,3.69,6.69,2.08,13.34,4.15,19.99,6.23-1.68-.16-3.35-.32-5.03-.51ZM1073.39,485.98c-.33.9-.65,1.79-.96,2.67-1.2,3.27-2.34,6.39-3.41,9.33-.18.49-.36.97-.53,1.45-.7,1.91-1.35,3.74-1.99,5.47h0c-3.49-1.34-6.97-2.7-10.44-4.05-5.47-2.12-10.9-4.23-16.32-6.32-13.52-5.26-26.88-10.44-39.99-15.53-5.01-1.93-9.97-3.86-14.89-5.78.16-.18.34-.35.54-.51.1-.09.2-.16.31-.24.29-.23.61-.43.96-.63.08-.05.15-.09.23-.13.17-.11.36-.21.55-.29.17-.1.36-.19.56-.27,1.63-.74,3.67-1.35,6.06-1.81.44-.09.88-.17,1.34-.24.44-.08.89-.15,1.35-.21.04-.01.08-.01.11-.02.46-.08.93-.13,1.41-.18.88-.11,1.79-.2,2.73-.27,1.77-.14,3.63-.23,5.6-.27.61-.01,1.23-.03,1.86-.02h.01c1.25-.01,2.53,0,3.85.05,2.66.06,5.45.2,8.34.43.61.05,1.24.09,1.86.16.42.03.85.06,1.29.11.64.06,1.3.13,1.95.2,3.5.36,7.12.83,10.81,1.41.64.09,1.28.2,1.92.31,3.37.55,6.78,1.21,10.22,1.94,1.59.33,3.18.69,4.79,1.08,5.72,1.35,11.49,2.96,17.14,4.81.82.26,1.62.52,2.43.81.81.27,1.6.54,2.4.83h0c-.7,1.95-1.4,3.86-2.09,5.72Z"/>
      <path class="cls-5" d="M1289.38,296.3c.01.21.01.41.02.62.05,1.47.12,2.95.18,4.42-9.86.67-19.69,1.4-29.56,2-4.53.27-9.1.59-13.61.37-6.64-.28-8.69,2.42-7.43,8.14h0c.19.84.45,1.74.76,2.69,1.17-.04,2.34-.08,3.52-.12,14.63-.48,29.55-.97,44.63-1.47,2.89,8.06.47,10.83-7.48,10.19-8.96-.71-17.94-1.22-26.92-1.73-5.2-.29-10.42-.57-15.62-.88-.14,1.43-.26,2.85-.4,4.28,7.58.54,15.17,1.08,22.99,1.64,9.32.67,18.97,1.37,29.31,2.11-.77,2.89-1.53,5.74-2.3,8.57-4,14.92-7.78,29.12-11.95,44.7-16.54-9.99-31.07-18.76-45.63-27.54-.76,1.11-1.54,2.25-2.3,3.36,14.59,9.42,29.18,18.88,43.76,28.3-.46,1.14-.94,2.26-1.4,3.4-2.72-.79-5.85-.97-8.09-2.45-10.03-6.78-19.69-14.12-29.77-20.82-2.41-1.61-5.94-1.53-8.97-2.22-.49,1.32-.98,2.67-1.51,4.01,13.57,9.79,27.1,19.61,41.3,29.87-7.91,2.2-30.25-12.21-46.27-28.73,8.95-19.49,14.4-39.69,15.29-60.79.24-5.72.16-11.51-.29-17.36-.15-1.99,1.37-5.51,2.85-5.96,15.24-4.74,30.63-9.03,45.96-13.41.29.98.55,1.94.81,2.92-15.4,4.5-30.81,9.02-46.79,13.69,1.5,4.03,2.84,7.72,4.26,11.54,16.98-.13,33.63-4.71,50.31-3.38.11,0,.22,0,.33.02Z"/>
      <path class="cls-5" d="M1237.6,584.75c.06,1.48.1,2.94.16,4.42,0,.11,0,.22,0,.33-16.33,1.06-32.65,2.11-50.07,3.25-.37,2.8-.76,5.92-1.31,10.11,16.84-.58,32.95-1.16,50.12-1.77.17,3.34.3,6.43.46,10.35-13.84-.66-27.09-1.3-40.24-1.93-3.53-.16-7.06-.34-10.59-.51-.07,1.29-.16,2.56-.25,3.84,5.79.47,11.59.94,17.5,1.42,10.89.88,22.11,1.78,34.29,2.76-1.02,3.86-2.03,7.66-3.02,11.44-3.63,13.73-7.18,27.1-11.04,41.67-16.52-9.94-31.02-18.68-45.53-27.4-.77,1.2-1.56,2.38-2.34,3.58,14.48,9.18,28.97,18.38,43.47,27.57-.29,1.1-.58,2.21-.87,3.3-2.62-.47-5.75-.2-7.77-1.56-10.41-6.91-20.4-14.45-30.82-21.3-2.34-1.53-5.86-1.22-8.82-1.75-.38,1.25-.79,2.5-1.17,3.72,13.53,9.79,27.05,19.56,41.46,29.99-8.56,2-21.88-6.5-46.79-28.52,8.78-18.79,13.97-37.92,15.24-58.28.53-8.31.4-16.82-.4-25.6,16.17-4.65,32.74-9.45,49.31-14.23.32,1.05.63,2.08.92,3.12-15.29,4.39-30.6,8.79-45.87,13.19.11,9.89,4.09,13.06,13.5,11.41,10.39-1.85,21.06-2.26,31.64-3.08,2.3-.19,4.64.1,6.98.33.61.06,1.24.11,1.85.15Z"/>
      <path class="cls-5" d="M1099.94,161.95l-9.27,51.4-11.79,65.45-12.68,70.35c14.19,1.72,27.25,3.29,41.45,5.02,2.27-26.53,4.51-52.88,6.75-79.19,2.38-27.83,4.75-55.6,7.12-83.46.6-7,1.2-14.02,1.8-21.03-8-2.92-15.34-5.61-23.39-8.54ZM1108.01,297.58c-.33,3.73-.66,7.44-.97,11.13-.21,2.47-.43,4.91-.64,7.36-.11,1.23-.21,2.45-.32,3.67-.43,4.88-.85,9.76-1.28,14.66-.21,2.45-.43,4.9-.64,7.36-.21,2.47-.43,4.93-.64,7.41h-.01c-4.41-.42-8.69-.85-12.91-1.25-2.6-.26-5.18-.5-7.76-.76-.4-.04-.81-.09-1.21-.12-2.62-.24-5.24-.5-7.88-.76-1.42-.13-2.85-.27-4.29-.41l12.05-66.87,12.07-66.97,4.32-23.93c.77.11,1.51.2,2.26.31-1.34,7.45-2.69,14.88-4.02,22.34-4.09,22.72-8.19,45.49-12.33,68.37-.18,1.05-.37,2.09-.57,3.15.96.3,1.89.59,2.79.87,3.94,1.2,7.48,2.29,10.81,3.32,4.12,1.26,7.93,2.43,11.83,3.63-.22,2.52-.43,5.02-.65,7.51Z"/>
      <path class="cls-2" d="M815.1,565.87c-3.26-6.42-5.98-12.02-9.68-18.78,4.26,2.71,7.2,11.72,9.68,18.78Z"/>
      <path class="cls-5" d="M931.33,366.46c-12.94-2.32-25.77-4.68-38.55-7.26l-.66-.11c-.47-.08-.92-.14-1.37-.2-.11-.01-.2-.03-.29-.02-.47-.08-.95-.13-1.39-.13-.11-.02-.2-.02-.32-.01-.34-.02-.69-.01-1.04,0-.32-.01-.62.02-.93.06-.31.02-.59.05-.88.12-.26.02-.5.07-.74.14-.54.12-1.07.28-1.55.5-.47.19-.91.42-1.33.7l-.32.22c-.13.07-.23.14-.32.22-.26.16-.51.37-.73.58-.25.21-.5.45-.7.69-.25.23-.46.5-.68.78-.21.26-.42.54-.63.86-.22.3-.42.61-.62.96-.12.18-.25.36-.36.58l.41-.57c-1.89,5.85-3.8,11.68-5.66,17.56-.04.11-.07.24-.11.36l.33-.31-2.22,12.3-2.88,15.98,94.12,16.96,2.82-15.6,6.88-38.17c-13.59-2.45-26.99-4.78-40.26-7.16ZM882.21,367.46c.14-.55.27-1.1.41-1.66l83.21,15-2.36,13.08c-28.37-5.12-55.82-10.06-83.95-15.14.27-1.13.53-2.22.78-3.3.64-2.69,1.26-5.26,1.91-7.99ZM963.26,401.29c-.84.7-1.62,1.41-2.33,2.04-.55.49-1.07.94-1.53,1.28-.12.09-.22.16-.33.23-.1.07-.19.12-.29.18-.1.05-.19.1-.29.15-.11.05-.22.08-.31.11-.19.05-.37.07-.54.05-.04,0-.07,0-.1,0-10.11-1.92-20.22-3.88-30.31-5.88-16.82-3.32-33.64-6.74-50.44-10.13-.11-.03-.14-.52-.19-.88,0-.05-.01-.09-.02-.13.05-.04.1-.09.15-.12.16-.11.37-.2.6-.3h0c.24-.09.51-.18.82-.26h0c.21-.05.43-.09.66-.14s.49-.09.75-.12c1.05-.15,2.33-.24,3.8-.26.27,0,.55-.01.83-.02,3.38-.04,7.68.17,12.56.61.37.03.75.07,1.13.1,2.1.19,4.31.42,6.6.69.9.1,1.8.21,2.72.33h0c1.84.24,3.71.48,5.62.75h0c.95.14,1.91.27,2.88.42,1.45.21,2.93.43,4.41.68,1.23.19,2.47.4,3.7.61,1.23.21,2.47.42,3.71.64t0,0c2.61.47,5.21.95,7.79,1.46.86.16,1.72.33,2.57.52.97.2,1.94.4,2.9.61h0c1.44.31,2.87.63,4.28.94.47.1.93.21,1.4.32.93.23,1.86.44,2.76.66.91.22,1.81.44,2.69.67,1.67.43,3.27.86,4.84,1.29,1.56.43,3.06.88,4.51,1.32.48.15.95.31,1.42.45.47.15.93.3,1.38.45-.3.23-.59.45-.87.69Z"/>
      <path class="cls-5" d="M1009.17,536.87l-27.88,154.71-5.87,32.59,17.04,3.07,2.52-13.93c.97-5.39,1.94-10.79,2.91-16.19,8.57-47.55,17.11-95.09,25.71-142.64q2.74-15.23-14.43-17.61ZM1017.89,560.66s-.01,0-.02,0c-.35-.11-.67-.21-1-.31-.42-.14-.81-.27-1.17-.39-.74-.25-1.4-.48-1.99-.72-1.52-.61-2.55-1.22-3.19-2.08-.1-.1-.16-.22-.23-.34-.09-.15-.17-.29-.23-.45-.07-.18-.13-.37-.18-.57-.04-.13-.06-.26-.08-.4-.04-.22-.06-.45-.08-.69,0-.17,0-.35,0-.53,0-.23.01-.46.03-.71.01-.16.02-.32.04-.49.02-.21.05-.43.08-.67.03-.2.06-.41.1-.63.13-.77.3-1.64.53-2.61.13-.55.27-1.13.41-1.75.1-.39.2-.79.3-1.21.11-.42.21-.84.33-1.29.23-.89.48-1.85.75-2.87,2.7.28,5.5.58,8.79.91h.01s-3.2,17.78-3.2,17.78Z"/>
      <path class="cls-5" d="M486.8,314.41c1.95.24,3.88.47,6.01.71l-.27,1.49-5.26,29.24-.3,1.65-5.6,31.06-.69,3.82c-20.21-3.3-47.36-21.76-47.62-34.58,5.88,1.95,9.47,1.42,11.75-.57,3.25-2.81,3.81-8.59,4.48-14.3.91-7.88.97-7.88-13.26-12.24,3.59-4.14,5.82-9.22,8.8-9.72,8.89-1.55,17.82-2.79,26.76-3.95,8.41-1.09,16.84-2.11,25.26-3.2.24,1.46.51,2.9.76,4.32-5.12,1.15-10.26,2.29-16.9,3.76-1.65.37-3.4.75-5.26,1.16,4.57.55,7.98.96,11.33,1.35Z"/>
      <path class="cls-5" d="M1043.32,347.71c5.82.15,10.68.26,16.62.41l33.73-187.16-16.17-2.91-34.19,189.66ZM1058.32,337.21c-.56,2.74-4.43,4.8-6.77,7.15-1.22-.78-2.45-1.55-3.67-2.33,3.41-18.9,6.61-37.84,10.53-56.6.36-1.74,5.21-2.51,10.37-4.79-3.9,21.63-6.81,39.17-10.45,56.57Z"/>
      <path class="cls-5" d="M1190.27,472.75c-5.99-.21-12.08.08-18.03-.64-46.2-5.74-92.46-11.17-138.54-17.76-17.92-2.56-35.2-8.48-53.07-22.21,9.52-1.34,19.91-4.78,21.23-2.65,5.3,8.68,13.37,5.52,19.91,6.78,46.48,8.98,93.08,17.26,139.58,26.11,9.87,1.86,19.48,5.13,28.93,10.37Z"/>
      <path class="cls-2" d="M724,469.64l-.06.33c-1.66-.65-3.33-1.3-4.97-1.92,1.69.54,3.34,1.07,5.04,1.58Z"/>
      <path class="cls-5" d="M1068.19,159.19c-13.01,1-26.07,2.88-39.07,2.81-19.34-.08-35.26,7.26-49.84,19.04-36.22,29.24-72.74,58.12-108.75,87.61-2.71,2.2-5.41,4.42-8.11,6.64-32.47,26.75-66.96,46.43-111.33,42.59-19.93-1.72-40.12.01-60.17-.35-6.09-.12-12.14-2.05-18.04-4.43,23.22,0,46.53-1.46,69.59.29,47.55,3.62,85.84-14.52,120.98-44.76,1.59-1.37,3.17-2.73,4.77-4.08h0c35-29.89,71.46-58.1,107.38-86.9,15.67-12.58,32.63-21.59,53.94-20.13,12.68.85,25.52-.61,38.28-1.01.12.9.26,1.78.38,2.68Z"/>
      <path class="cls-5" d="M1328.52,319.29c.23,3.68.3,7.32.2,10.91-.45,16.91-4.53,32.7-12.38,47.55-2.2,4.16-7.24,6.83-10.96,10.18-3.66-4.47-9.03-8.42-10.63-13.55-5.12-16.36,1.35-31.08,9.27-45.1,1.58-2.79,2.87-4.99,4.08-6.68,4.3-6.01,7.73-5.71,20.42-3.31Z"/>
      <path class="cls-5" d="M1276.58,607.78c.26,4.51.29,8.97.07,13.38-.81,16.3-5,31.86-13.28,46.42-2.01,3.55-7.64,8.8-9.32,8.05-4.29-1.92-8.95-6.12-10.57-10.48-5.64-15.31-.71-29.52,6.26-43.43,1.39-2.76,2.78-5.43,4.36-7.77,4.59-6.84,10.67-10.88,22.47-6.16Z"/>
      <path class="cls-5" d="M966.68,722.24c-6.87-2.67-13.59-5.94-20.66-7.88-30.26-8.37-50.88-27.04-65.92-54.68-20.83-38.25-44.12-75.17-66.38-112.64-18.88-31.73-37.32-63.9-75.64-76.94,23.6,4.43,42.21,17.02,55.02,36.77,19.78,30.52,38.48,61.73,57.48,92.77,14.62,23.92,29.64,47.66,43.28,72.15,11.14,19.95,28.28,30.77,48.91,37.93,8.42,2.93,16.56,6.66,23.91,12.54Z"/>
      <path class="cls-5" d="M1195.45,300.74c3.36,5.11,5.99,9.08,8.84,13.41-1.93.32-4.55.75-7.05,1.15-3.1,21.76-5.24,30.11-9.54,30.7,3.2,2.14,5.31,3.53,8.68,5.76-3.57.03-6.1-.47-8.23.23-1.89.61-3.35,2.54-5.34,4.17,2.83,1.76,5.07,3.15,7.32,4.55-.2.47-.42.92-.64,1.39l-10.19-1.84,11.05-61.32,3.06-16.98,9.63,1.74c-.01.46-.04.94-.05,1.43-2.3.28-4.59.59-9.94,1.28,5.19,5.21,8.87,8.93,13.02,13.1-1.17.12-2.33.27-3.7.43-1.79.21-3.94.46-6.93.81Z"/>
      <path class="cls-5" d="M1220.54,303.85c-1.17.2-2.53.43-4.14.71,2.73,4.69,5.09,8.71,7.76,13.26-1.39.29-4.13.83-9.55,1.91,15.2,5.58,8.6,15.06,6.45,22.62-1,3.47-6.59,5.61-10.68,8.85.8.57,3.02,2.1,5.16,3.59-3.81,1-7.67,2.02-13.98,3.65,4.58,3.07,6.71,4.47,8.83,5.9-.17.45-.37.9-.56,1.33l-10.11-1.82,11.27-62.47,2.85-15.8,12.86,2.32c-5.53,1.13-7.78,1.61-12.78,2.64,4.79,4.89,8.27,8.4,12.14,12.34-1.42.24-3.06.53-5.51.97Z"/>
      <path class="cls-5" d="M1151.74,602.48c-1.5.3-4.29.85-10.65,2.15,15.35,4.73,10.52,13.44,8.07,20.49-1.36,3.98-5.97,6.83-9.81,10.97,0,.02,1.21.95,2.69,2.12.35.27.71.54,1.08.84.16.12.32.24.48.36-4.55,1.14-8.66,2.16-12.77,3.17.03.93.05,1.86.09,2.77,2.41,1.18,4.84,2.33,7.24,3.5-.08.47-.2.96-.29,1.45l-10.52-1.9,10.51-58.33,3.55-19.71,8,1.44c-7.84,4.85-6.84,8.2,6.03,15.54-3.77.73-6.42,1.23-11.57,2.22l.56.93c2.59,4.23,4.85,7.93,7.31,11.98Z"/>
      <path class="cls-5" d="M1158.43,652.47c-.17.55-.31,1.08-.45,1.63l-10.24-1.84.81-4.5c.3.14.58.29.83.4.25.14.48.25.7.33.54.26,1.04.51,1.51.74.53.26,1.02.48,1.49.71,2.32,1.09,3.83,1.82,5.34,2.54Z"/>
      <path class="cls-7" d="M1148.65,647.22l-.1.54c-.22-.09-.45-.2-.68-.31.27-.06.53-.15.78-.22Z"/>
      <path class="cls-5" d="M1173.1,605.94c-2.4.39-5.24.86-11.47,1.86,15.73,5.63,9.98,15.03,7.55,22.64-1.15,3.56-6.57,5.77-10.41,8.9.76.5,2.94,1.89,5.42,3.49-1.99.56-3.94,1.11-6.09,1.72-.98.28-1.99.56-3.07.88-1.22.34-2.52.7-3.93,1.1-.38.11-.8.22-1.19.34-.41.11-.83.25-1.26.35l9.85-54.7,3.37-18.69,8.8,1.58c-2.05,1.74-5.74,4.54-5.55,4.81,2.36,3.68,5.3,7.04,8.08,10.45-1.21,1.06-3.93,2.45-5.48,4.22-.58.64-.99,1.34-1.12,2.09-.41,2.38,3.84,5.52,6.5,8.96Z"/>
      <path class="cls-5" d="M1138.23,496.78l-4.19,23.28-2.2,12.24c-5.01-5.67-8.02-9.89-11.89-13.1-3.38-2.81-7.53-5.47-11.73-6.37-5.75-1.2-11.86-.68-18.44-.95-.07-.52-.14-1.03-.21-1.53-1.03-8.13-.53-13.87,11.41-11.73,5.74,1.03,11.83,1.09,18.18-1.58,5.36-2.27,12.48-.33,19.08-.26Z"/>
      <path class="cls-5" d="M1132.31,598.53c-2.38.5-5.14,1.07-7.9,1.63,11.2,4.33,7.3,12.46,4.95,18.99-1.7,4.69-5.86,8.5-9.67,13.73.15.1.41.31.8.59.14.09.32.24.53.37.67.49,1.51,1.11,2.41,1.76-4.59,1.34-8.84,2.59-13.07,3.84.16.83.3,1.67.46,2.48,2.34,1,4.7,2.01,7.04,3-.07.54-.16,1.06-.25,1.58l-10.68-1.93,9.79-54.37,3.62-20.07c4.55,4.77,8.61,9.07,12.42,13.08-2.02,1.62-6.74,3.67-7.15,6.33-.02.14-.02.28-.02.42.14,2.37,4.13,5.34,6.72,8.57Z"/>
      <path class="cls-5" d="M1183.13,310.41c-1.14.29-3.81,1.02-9.42,2.51,13.92,3.66,10.03,11.68,7.56,18.22-1.74,4.63-5.88,8.37-9.8,13.68.45.34,1.88,1.39,3.16,2.33-4.84,1.86-9.89,3.78-15.1,5.77l9.7-53.83,3.8-21.1c2.02.25,5.78.7,9.54,1.14.05.73.11,1.44.16,2.15-2.18.3-4.36.6-9.65,1.36,4.56,5.1,7.94,8.9,12.06,13.51-2.09.13-4.49.3-9.71.63.4.72.8,1.41,1.18,2.09,2.31,4.12,4.28,7.61,6.51,11.56Z"/>
      <path class="cls-5" d="M1111.03,595.07c-1.76.33-4.32.79-6.54,1.19,10.59,13.58,6.64,22.98-6.05,32.16.28.23,2.18,1.76,4.24,3.42-5.13,1.69-9.92,3.28-16.19,5.32,1.48-5.03,3.35-9.99,4.41-15.12,2.2-10.58,4.34-21.16,6.05-31.82.21-1.26.41-2.54.6-3.8,2.01-13.18,2.43-13.58,16.02-7.19-3.49,2.2-8.72,4.56-8.48,5.5.5,2,1.59,3.85,2.86,5.76.97,1.47,2.07,2.96,3.08,4.59Z"/>
      <path class="cls-5" d="M1163.67,306.55c-2.16.56-4.63,1.18-9.38,2.41,12.2,4.61,9.19,12.5,6.28,19.4-1.85,4.36-5.99,7.72-10.06,12.73,0,0,2.08,1.19,6.48,3.72-4.64-.19-7.59.52-8.53-.53-2.41-2.67-5.81-6.39-5.43-9.25,1.53-12.05,4.1-23.97,6.19-35.96.25-1.44.49-2.87.72-4.31.87-5.3.75-10.75,1.19-17.49,4.94,5.65,8.71,9.92,12.47,14.2-1.46,1.15-6.42,3.28-6.51,5.6-.03.76.24,1.53.69,2.33,1.23,2.17,3.9,4.5,5.9,7.16Z"/>
      <path class="cls-5" d="M1157.26,391.51l-5.06,28.07-1.09,6.01c-5.17-1.63-10.08-3.25-15.01-4.69-6.43-1.86-7.54-6.52-6.1-10.83.27-.85.66-1.67,1.11-2.47,2.6-4.52,7.71-7.9,12.32-10.84,3.71-2.34,8.28-3.23,13.83-5.26Z"/>
      <path class="cls-2" d="M802.08,537.16c-.16.76-.34,1.49-.5,2.25l-.58-.11c-.5-.85-1.02-1.71-1.57-2.62l2.64.47Z"/>
      <path class="cls-5" d="M1119.67,481.22c-.97,1.05-1.92,2.08-2.89,3.11-10.81-4.29-21.62-8.56-32.45-12.86.28-.98.53-1.96.81-2.94.1-.39.21-.77.32-1.16.3.03.6.06.91.09,9.15.89,18.46,1.21,27.35,3.32,2.66.62,4.01,6.81,5.97,10.44Z"/>
      <path class="cls-5" d="M1126.43,437.49c-10.53,15.65-23.54-2.98-34.91.67-.13-1.43-.24-2.89-.35-4.32,11.38-.75,22.74-1.5,34.14-2.24.37,1.96.73,3.92,1.12,5.89Z"/>
      <path class="cls-2" d="M791.16,521.53l-.24,1.32c-.32-.51-.64-1.04-.95-1.53l1.18.21Z"/>
      <polygon class="cls-5" points="447.19 326.8 443.74 345.95 443.73 345.95 432.54 343.93 434.14 335.04 435.99 324.79 447.19 326.8"/>
      <path class="cls-5" d="M1130.63,403.4l-1.18,6.53-1.06,5.84c-4.38-2.16-8.16-4.36-12.2-5.93-.18-.07-.37-.14-.54-.21-9.1-3.53-9.06-3.61-5.17-14.04,6.65,2.59,13.33,5.18,20.15,7.82Z"/>
      <path class="cls-5" d="M1101.82,519.23l-3.31,18.38c-5.93-4.01-10.89-7.31-15.81-10.62.21-1.19.4-2.38.61-3.57,5.79-1.31,11.57-2.61,18.52-4.2Z"/>
      <path class="cls-5" d="M1148.41,490.65l-4.64,25.78-4.68,25.92c-.63-.12-1.28-.21-1.91-.32l4.37-24.24,4.95-27.47,1.91.33Z"/>
      <polygon class="cls-5" points="1167.33 385.65 1161.67 417.09 1158.01 437.37 1156.08 437.03 1159.49 418.15 1165.41 385.29 1167.33 385.65"/>
      <path class="cls-5" d="M1094.23,545.06c.12,1.25-1.56,3.42-2.91,3.96-6.09,2.49-15.58-3.27-17.74-12.26,6.72,1.22,12.28,1.92,17.63,3.39,1.43.4,2.84,3.13,3.03,4.92Z"/>
      <path class="cls-5" d="M1126.19,378.35c-.31,6.6-.37,8.84-.56,11.04-.14,1.43-.49,2.85-1.31,7.39-6.1-4.8-10.81-8.52-15.53-12.23,5.09-1.81,10.21-3.64,17.4-6.21Z"/>
      <path class="cls-5" d="M1126.24,367.44c0,.56-.12,1.05-.33,1.37-1.03,1.46-3.37,2.26-5.28,2.73-1.35.33-2.96-.36-4.47-.62l-10.89-1.96-.45-.09-.94-.17c.61-.89,1.34-1.69,2.15-2.41,5.75-5.19,15.74-6.33,19.12-2.57.7.78,1.15,2.43,1.09,3.72Z"/>
      <path class="cls-5" d="M1090.41,602.02c-1.2,6.83-3.08,13.54-4.72,20.3-1.69-.22-3.39-.45-5.08-.66.58-7.2.93-14.42,1.97-21.54.18-1.26,3.39-3.07,4.92-2.82,1.25.2,3.19,3.26,2.92,4.72Z"/>
      <path class="cls-5" d="M968.13,445.81l-5.46,30.3c-.81-.1-1.62-.2-2.46-.3l5.46-30.28c.84.1,1.65.19,2.47.28Z"/>
      <path class="cls-5" d="M575.68,324.79c-.15,1.73-.3,3.46-.47,5.19-6.68-.81-13.35-1.6-20.05-2.41.14-1.69.28-3.37.41-5.08,6.71.77,13.41,1.54,20.12,2.31Z"/>
      <path class="cls-5" d="M1142.54,312.82c-.79,5.64-2.36,11.19-3.64,16.76-1.15-.03-2.3-.07-3.45-.09-.35-5.89-.96-11.77-.8-17.63.03-1.21,3.03-3.49,4.31-3.28,1.46.26,3.78,2.92,3.58,4.25Z"/>
      <path class="cls-1" d="M376.29,399.17s-.03.16-.09.22l-.47-.08c.2-.06.36-.1.56-.13Z"/>
      <path class="cls-8" d="M1070.64,579.86c-2.36,22.59-8.33,30.48-28.37,80.44-.55,1.37-1.07,2.69-1.57,3.94-8.82,22.09-10.05,26.21-16.08,29.87-4.77,2.89-10.28,4.12-16.1,4.14-.76.01-1.52,0-2.3-.05-1.01-.04-2.05-.13-3.08-.25-1.73-.19-3.48-.48-5.23-.84-5.59-1.16-11.23-3.12-16.6-5.54-2.4-1.08-4.76-2.25-7.02-3.47-4.38-2.37-8.43-4.96-11.96-7.54-19.85-14.48-23.33-28.85-47.96-80.32-24.47-51.14-37.02-77.02-52.66-92.74-17.74-17.83-37.48-28.93-51.48-36.07h-.01c-2.56-1.32-4.92-2.49-7.05-3.55h0s-.01,0-.01,0c0,0-.02,0-.02,0-6.23-3.09-10.41-5.19-11.35-6.74-.22-.33-.27-.65-.15-.93.84-2.07,9.08.11,37.16,5.54,40.87,7.92,61.32,11.88,76.14,13.72,10.12,1.26,17.2,2.73,31.35,5.66,12.7,2.62,16.02,3.74,19.76,5.87,5.5,3.15,6.47,5.43,19.57,19.71,12.83,13.99,15.58,15.84,17.74,17.07,5.73,3.3,7.32,2.41,21.99,6.28,17.68,4.66,16.34,6.21,32.79,10.53,13.87,3.64,18.45,3.51,21.67,6.31.43.37.84.79,1.23,1.29.17.22.34.44.5.66,4.5,6.56.28,16.06-.86,27.02Z"/>
      <path class="cls-3" d="M975.61,395.09c-1,6.25-1.65,9.95-4.66,13.04-1.88,1.91-4.08,3.01-6.24,3.67-2.29.7-4.51.89-6.17,1.02-10.89.87-19.58-3.92-20.7-4.53-4.58-2.48-26.07-6.6-67.18-13.85-.84-.15-1.7-.31-2.56-.45-11.51-2.03-24.51-4.29-39.05-6.83-130.92-22.81-217.63-36.91-217.63-36.91,0,0-11.9-1.94-33.84-7.5-1.34-.34-2.72-.69-4.14-1.06-10.28-2.67-22.53-6.08-36.57-10.36-8.32-2.54-17.3-5.4-26.86-8.6-.99-.34-1.97-.66-2.92-.98-3.52-1.2-6.75-2.32-9.7-3.38-1.71-.62-3.32-1.2-4.85-1.77-2.08-.77-3.98-1.49-5.74-2.19-2.27-.89-4.29-1.73-6.07-2.52-4.38-1.94-7.35-3.54-9.13-4.89-1.64-1.24-2.29-2.27-2.13-3.14.71-3.92,17.53-3.88,30.72-3.71,90.29,1.16,132.72,7.73,132.72,7.73,48.6,7.53,48.2,9.3,93.9,16.99,1.5.25,3.04.51,4.64.77,65.85,10.91,130.44,31.59,197.08,35.52.02,0,.06,0,.1,0h.02c1.72.1,17.4,1.12,30.34,5.24,3.45,1.09,6.7,2.41,9.45,4,3.96,2.27,6.86,5.1,7.75,8.59,1.21,4.82-.41,14.96-.59,16.08Z"/>
      <path class="cls-3" d="M1081.89,491.71c-.79,3.65-1.24,6.43-1.52,8.6-.81,6.2-.17,7.38-1.7,9.32-.84,1.07-2.19,2.18-5.18,2.62-7.2,1.1-23.93-1.61-66.07-17.78-24.96-9.58-34.51-14.54-38.09-17.57-1.86-1.58-2.1-2.64-2.05-3.54.46-8.13,24.9-14.91,44.35-15.13,18.06-.2,16.92,5.4,47.03,8.48,11.42,1.17,20.1,1.22,24.33,4.45.93.71,1.65,1.57,2.13,2.63,1.54,3.35-.59,5.76-3.23,17.92Z"/>
      <path class="cls-3" d="M1106.24,365.41c-.06.28-.13.58-.21.88-.14.57-.31,1.18-.51,1.83-.09.27-.17.55-.25.84-.71,2.26-1.66,5.03-2.78,8.54-1.84,5.77-2.9,9.68-3.55,12.39-1.34,5.57-.98,6.1-2.32,7.36-.82.78-1.73,1.31-2.73,1.63-11.51,3.8-34.91-19.65-70.37-19.43-17.38.1-31.52,5.85-38.36,5.72-1.93-.03-3.3-.55-3.97-1.79-1.6-2.95,1.62-8.13,4.64-11.86.96-1.2,1.91-2.24,2.67-3.01,3.19-3.25,6.67-5.32,14.12-8.26t.02-.01c.42-.16.86-.33,1.31-.5,6.66-2.56,11.78-4.53,16.8-6,3.98-1.16,7.91-2.01,12.5-2.6,2.38-.29,1.82-.13,29.92.77,0,0,9.2.3,29.51,3.01,7.53,1,11.22,1.68,13.04,4.66.98,1.61,1.07,3.34.52,5.83Z"/>
      <path class="cls-3" d="M1119.66,295.04c-4.28,27.79-8.64,35.27-6.64,49.68,1.22,8.78,3.23,8.83,2.46,12-.87,3.58-4.17,6.44-9.24,8.7-1.98.89-4.25,1.68-6.75,2.4-1.84.52-3.82,1-5.91,1.44h-.02c-15.23,3.19-36.36,4.11-57.09,4.02h0s-.05,0-.05,0c-17.29-.08-34.3-.84-47.33-1.56-1.13-.07-2.21-.13-3.27-.19-3.49-.2-6.62-.39-9.34-.55-2.63-.16-5.31-.35-8.04-.55-11.23-.87-23.33-2.17-37.12-3.95-13.92-1.8-29.55-4.09-47.74-6.93-1.86-.29-3.74-.58-5.65-.89h-.01c-24.42-3.85-53.32-8.63-88.54-14.46-2.21-.37-4.47-.74-6.75-1.13-.83-.13-1.66-.28-2.5-.42-24.74-4.17-51.69-9.17-56.41-13.65-.5-.47-.74-.94-.72-1.4.06-1.03,1.53-1.93,3.8-2.72,5.46-1.9,15.68-3.16,22.85-4.04,22.46-2.77,32.34-.43,44.16-1.29,26.16-1.91,30.07-17.18,55.73-26.96,6.54-2.5,12.2-3.75,17.41-4.18,22.78-1.89,37,11.99,79.07,7.71,45.73-4.67,42.28-22.43,82.6-22.12,6.94.05,13.89.64,20.7,1.39,2.31.25,4.6.54,6.87.82,5.59.69,11.06,1.42,16.34,1.99,2.15.23,4.26.43,6.34.6.89.07,1.76.13,2.62.18h.01c.76.06,1.53.09,2.28.12,8.48.39,16.28-.14,23.01-2.57,1.22-.45,4.49-1.69,7.6-1.54,1.45.06,2.86.43,4,1.33,3.28,2.55,2.88,8.18,1.25,18.72Z"/>
      <path class="cls-8" d="M713.62,443.83c-.11.43-1.25,1.14-20.56-1.4-27.05-3.56-48.94-8.15-64.94-11.71-12.76-2.84-22.55-5.18-42.15-9.9-20.39-4.91-30.6-7.36-35.43-8.7-33.36-9.2-60.01-20.54-67.41-23.71-23.9-10.26-25.91-13.47-38.69-16.22-2.44-.53-6.5-1.29-10.79-4.26-8.33-5.75-14.26-17.47-11.24-27.46.48-1.59,2.24-7.4,6.1-8.15,1.77-.35,3.36.49,5.64,2.72,2.25,2.21,5.16,5.78,9.58,10.91.21.26.44.53.68.79.14.16.28.32.42.48,9.48,10.97,14.39,16.54,19.16,19.23,5.51,3.12,8,2.84,12.62,6.9,1.98,1.73,3.53,3.55,4.78,5.19,2.62,3.44,3.88,6.13,4.81,5.78,1.03-.39.23-3.99-.22-11.6,0,0-.28-4.87-.22-11.61.04-4.81.55-9.68,1.23-13.64l.3-1.65c.83-4.27,1.83-7.14,2.5-7.1.22,0,.35.31.44.87.43,2.62-.12,10.91,2.65,20.49,3.84,13.27,11.98,21.8,16.11,26.02,0,0,19.34,19.83,49.5,20.49,1.13.02,2.3-.08,3.35-.51.56-.2,1.07-.51,1.53-.93,2.17-1.98,1.66-5.26,1.61-8.96-.06-5.8,1.12-3.67,3.64-20.15,1.2-7.85,1.37-11.18,2.02-11.2.61-.01,1.08,2.84,1.52,5.95.31,2.21.61,4.53.94,6.05,3.84,18.32,33.24,27.65,71.3,40.6,9.46,3.22,18.46,6.29,26.65,9.12,5.83,2.02,11.25,3.91,16.14,5.66h.02c11.64,4.18,20.24,7.51,24.13,9.61,1.6.87,2.41,1.54,2.3,1.97Z"/>
      <path class="cls-4" d="M1147.67,512.82c-1.23,1.49-2.57,2.68-3.9,3.61-.75.53-1.5.98-2.22,1.36-2.99,1.6-5.51,2.03-5.96,2.1-.54.09-1.05.14-1.54.17-7.98.47-11.56-5.84-22.75-9.17-11.3-3.38-16.75.32-21.71-.53-1.26-.23-2.51-.74-3.79-1.75-2.39-1.86-4.19-4.8-5.41-8.29-3.14-8.99-2.35-21.65,2.62-29.14.64-.97,1.36-1.86,2.14-2.63.39-.38.8-.75,1.22-1.07.13-.11.27-.22.41-.31,1.82-1.3,5.19-2.99,27.6,2.66,21.47,5.42,32.29,8.29,36.05,15.75,3.93,7.81,3.43,19.74-2.75,27.25Z"/>
      <path class="cls-4" d="M1167.36,412.31c-1.79,2.19-3.82,3.72-5.69,4.78-.76.42-1.49.77-2.18,1.06-2.12.9-3.75,1.19-4.1,1.25-1.15.18-2.2.23-3.19.18-6.8-.41-10.6-6.05-20.87-9.13-.46-.13-.9-.26-1.33-.38-.18-.05-.37-.09-.55-.14-6.08-1.48-10.34-.85-13.8-.3-3.7.57-6.48,1.02-9.58-1.43-4.42-3.48-6.83-10.71-7.13-18.31-.33-7.87,1.6-16.13,5.88-21.01.23-.26.46-.51.7-.75.5-.5,1.04-.96,1.6-1.36,1.56-1.12,4.25-2.53,19.12.68,2.4.52,5.13,1.16,8.22,1.94,21.26,5.39,31.97,8.23,35.68,15.68,3.88,7.81,3.37,19.73-2.77,27.25Z"/>
      <path class="cls-8" d="M1121.53,191.52c-6.26,7.78-16.55,14.62-25.4,19.21-.86.44-1.7.87-2.53,1.26,0,.01-.02.01-.02.01-1,.49-1.97.93-2.9,1.34-.09.04-.17.08-.24.11-2.32,1.02-4.55,1.89-6.7,2.61-6.37,2.15-12.02,3.06-17.27,3.21-2.39.07-4.7,0-6.95-.19-6.48-.53-12.53-1.96-18.85-3.17h-.01c-5.24-1.02-10.68-1.88-16.7-1.97h-.01c-5.85-.08-12.27.55-19.61,2.49-40.71,10.78-41.26,43.46-88.25,53.46-9.41,2.01-19.44,2.84-27.88,2.52-7.86-.28-14.34-1.56-17.67-3.78-1.2-.78-1.98-1.7-2.29-2.74-.12-.39-.17-.82-.04-1.36h0c.57-2.34,4.41-6.81,20.15-20.45,14.07-12.2,25.56-21.25,29.89-24.67,8.04-6.36,17.09-13.68,35.17-28.35,32.85-26.63,31.08-26.13,35.17-28.34,14.19-7.7,30.08-8.35,61.86-9.66,54.51-2.25,66.37,6.74,71.67,12.92,4.47,5.2,5,9.26,5.1,10.17.58,5.27-1.76,10.49-5.68,15.36Z"/>
      <path class="cls-4" d="M1164.04,660.34c8.56-1.85,3.48-1.78,14.68-4.17,10.58-2.25,21.86-3.76,27.32-4.76,5.44-1,31.46-5.79,48.55-24.75,7.89-8.75,10.53-16.82,16.02-16.26,4.98.51,8.67,7.78,9.8,13.15,1.09,5.2-.34,7.95-5.28,22.41-6.19,18.1-6.63,21.69-11.45,25.86-1.86,1.61-8.07,6.99-13.99,5.4-4.48-1.2-5.01-5.37-12.12-8.61-2.86-1.31-6.2-2.83-8.93-1.48-2.87,1.41-2.22,4.58-5.18,11.01-1.87,4.05-4.44,9.6-9.58,11.84-3.88,1.69-7.62.8-11.4-.1-1.74-.41-6.37-1.67-16.24-8.74-8.93-6.4-7.94-7.38-14.46-11.35-7.02-4.28-12.72-5.92-12.39-7.65.18-.93,1.98-1.22,4.66-1.8Z"/>
      <path class="cls-4" d="M1216.4,371.71c8.56-1.85,3.48-1.78,14.68-4.17,10.58-2.25,21.86-3.76,27.32-4.76,5.44-1,31.46-5.79,48.55-24.75,7.89-8.75,10.53-16.82,16.02-16.26,4.98.51,8.67,7.78,9.8,13.15,1.09,5.2-.34,7.95-5.28,22.41-6.19,18.1-6.63,21.69-11.45,25.86-1.86,1.61-8.07,6.99-13.99,5.4-4.48-1.2-5.01-5.37-12.12-8.61-2.86-1.31-6.2-2.83-8.93-1.48-2.87,1.41-2.22,4.58-5.18,11.01-1.87,4.05-4.44,9.6-9.58,11.84-3.88,1.69-7.62.8-11.4-.1-1.74-.41-6.37-1.67-16.24-8.74-8.93-6.4-7.94-7.38-14.46-11.35-7.02-4.28-12.72-5.92-12.39-7.65.18-.93,1.98-1.22,4.66-1.8Z"/>
      <path class="cls-3" d="M1276.65,621.15c-.25.15-.52.26-.78.32-2.8.69-3.8-3.92-10.4-6.5-4.04-1.58-8.08-1.56-11.37-1.04-4.12.66-7.05,2.14-7.35,2.29-7.23,3.75-7.18,9.18-11.38,11.82-.24.15-.47.29-.73.4-7.26,3.55-18.6-5.01-31.27-14.19-2.18-1.58-4.4-3.18-6.65-4.75-3.3-2.28-6.66-4.49-10.03-6.42-2.34-1.34-4.68-2.54-7.02-3.63-3.99-1.85-7.98-3.36-11.94-4.57-3.09-.96-6.17-1.73-9.22-2.37-4.77-.99-9.48-1.63-14.07-2.02-2.22-.2-4.41-.33-6.57-.42-4.23-.18-8.33-.19-12.27-.12-3.06.05-6.03.15-8.87.24-3.07.11-6,.22-8.77.28-4.03.08-7.73.05-11.01-.27-7.38-.7-12.69-2.84-15.11-8.34-2.77-6.29-1.17-15.63,3.63-20.15,4.35-4.09,10.84-3.76,21.37-3.08,9.54.61,16.6,2.38,24.63,4.44,28.91,7.39,26.5,7.24,28.71,7.49,21.98,2.52,44.14-6.2,47.61-7.6,9.86-3.98,17.02-8.64,21.78-5.33,2.65,1.85,3.33,5.37,4.7,12.41,1.4,7.23,1.04,11.44,1.48,14.56.27,1.75.78,3.15,2.01,4.57,3.46,3.97,9.27,4.2,10.79,4.26,9.37.37,12.5-7.02,19.53-5.72,5.64,1.03,8.85,6.72,9.99,8.74,5.28,9.34,2.75,22.3-1.42,24.72Z"/>
      <path class="cls-3" d="M1328.72,330.2c-.13.06-.25.1-.38.13-2.8.69-3.79-3.92-10.39-6.49-3.44-1.35-6.88-1.54-9.84-1.23-4.9.48-8.55,2.31-8.88,2.49-7.23,3.75-7.18,9.18-11.38,11.82-.13.08-.25.15-.38.22-6.37,3.53-16.02-2.77-27.02-10.68-2.26-1.64-4.59-3.34-6.96-5.04-3.35-2.4-6.78-4.8-10.23-6.99-1.36-.86-2.73-1.68-4.09-2.47-.06-.04-.12-.07-.19-.1h0c-2.35-1.34-4.69-2.54-7.04-3.61-3.8-1.77-7.62-3.21-11.4-4.38-3.2-1-6.39-1.82-9.55-2.47-2.9-.61-5.78-1.08-8.61-1.44-4.1-.53-8.11-.84-12.01-.99-4.76-.21-9.36-.19-13.74-.09-2.53.05-4.99.14-7.38.22-4.08.14-7.93.29-11.47.31-3.09.02-5.95-.06-8.56-.32-7.27-.73-12.51-2.88-14.91-8.32-2.77-6.29-1.17-15.63,3.64-20.15,4.35-4.09,10.43-1.52,20.97-.85,9.53.61,16.6,2.38,24.63,4.44,28.91,7.39,26.9,5,29.11,5.25,21.98,2.52,44.15-6.2,47.62-7.6,9.86-3.98,17.02-8.64,21.77-5.33,2.66,1.85,3.34,5.36,4.71,12.41,1.86,9.63.59,13.89,2.31,17.38.1.21.22.43.36.64.23.37.5.74.82,1.11,3.46,3.97,9.27,4.2,10.79,4.26,9.35.36,12.5-7.02,19.53-5.72,5.63,1.03,8.85,6.72,9.98,8.74,5.44,9.63,2.59,23.12-1.82,24.9Z"/>
      <g>
        <path class="cls-6" d="M671.03,426.59c-.17.89-.33,1.78-.51,2.66l16.65,3c-4.88-1.75-10.31-3.64-16.14-5.66ZM872.54,382.46c-.23-.16-.44-.29-.66-.46h-.02c-10.87-1.81-21.73-3.63-32.58-5.42-16.09-2.67-32.17-5.31-48.28-7.92-4.13-.67-8.38-.63-12.55-.92-.18,1.4-.39,2.78-.59,4.18l91.25,16.44-1.02,5.65c.86.14,1.72.29,2.56.45l2.22-12.3-.33.31ZM1170.13,385.06c-3.71-7.46-14.41-10.29-35.68-15.68-3.09-.78-5.82-1.42-8.22-1.94,0,.56-.12,1.05-.33,1.37-1.03,1.46-3.37,2.26-5.28,2.73-1.35.33-2.96-.36-4.47-.62l-10.89-1.96-.45-.09-.94-.17c.61-.89,1.34-1.69,2.15-2.41.08-.31.15-.6.21-.88,5.07-2.26,8.37-5.11,9.24-8.7.77-3.17-1.24-3.23-2.46-12-2-14.4,2.36-21.88,6.64-49.68,1.63-10.54,2.02-16.17-1.25-18.72-1.14-.9-2.55-1.27-4-1.33-2.24,26.31-4.48,52.66-6.75,79.19-14.21-1.73-27.27-3.3-41.45-5.02l12.68-70.35,11.79-65.45,9.27-51.4c8.06,2.94,15.39,5.62,23.39,8.54-.6,7.01-1.2,14.03-1.8,21.03,3.93-4.87,6.27-10.09,5.68-15.36-.1-.92-.64-4.97-5.1-10.17-5.3-6.17-17.16-15.17-71.67-12.92-31.78,1.31-47.66,1.96-61.86,9.66-4.09,2.21-2.32,1.71-35.17,28.34-18.08,14.67-27.13,21.99-35.17,28.35-4.33,3.42-15.81,12.47-29.89,24.67-15.75,13.65-19.58,18.12-20.15,20.44,35-29.88,71.46-58.09,107.38-86.89,15.67-12.58,32.63-21.59,53.94-20.13,12.68.85,25.52-.61,38.28-1.01.12.9.26,1.78.38,2.68-13.01,1-26.07,2.88-39.07,2.81-19.34-.08-35.26,7.26-49.84,19.04-36.22,29.24-72.74,58.12-108.75,87.61,3.33,2.23,9.81,3.5,17.67,3.78,36.59-27.74,72.79-55.96,108.73-84.51,13.71-10.92,28.39-16.56,45.11-19.11,8.54-1.31,16.96-3.28,27.51-5.33l-10.02,55.61-6.23,34.57c-1.31,7.24-2.63,14.49-3.95,21.73-3.84,21.1-7.69,42.19-11.34,63.33-1.03,6.11-3.42,7.82-9.8,9.45-12.52,3.18-24.23,9.48-36.45,14.04-7.14,2.64-15.11,7.22-21.89,6.07-3.62-.61-7.24-1.23-10.87-1.86-10.11-1.72-20.22-3.47-30.34-5.24h-.02c-55.33-9.66-110.59-19.8-165.87-29.77-1.25-.23-2.44-.86-3.64-1.28.23-1.11.48-2.23.7-3.34l36.26,6.53c55.59,10.03,111.19,19.93,166.73,30.17,10.64,1.96,18.92,0,28.42-6.26,11.85-7.8,26.29-11.7,42.09-18.33l8.63-47.92c-8.69,4.44-16.18,8.34-23.71,12.14-33.82,17.01-68.89,25.16-106.59,15.08-4.74-1.27-9.83-1.29-14.52-2.67-29.7-8.7-57.44-5.77-86.49,6.48-15.86,6.66-36.19,2.75-54.53,3.59-.03-1.1-.06-2.19-.07-3.3,11.39-.09,22.82-.37,34.23-.28,22.09.19,42.03-7.8,58.93-20.34,5.93-4.41,11.86-8.82,17.77-13.26-5.21.43-10.87,1.69-17.41,4.18-25.66,9.78-29.56,25.05-55.73,26.96-11.82.86-21.7-1.49-44.16,1.29-7.17.88-17.39,2.14-22.85,4.04-45.7-7.69-45.3-9.46-93.9-16.99,0,0-42.43-6.57-132.72-7.73-13.19-.17-30.01-.2-30.72,3.71-.16.87.49,1.9,2.13,3.14,8.41-1.09,16.84-2.11,25.26-3.2.24,1.46.51,2.9.76,4.32-5.12,1.15-10.26,2.29-16.9,3.76-1.65.37-3.4.75-5.26,1.16,4.57.55,7.98.96,11.33,1.35,1.95.24,3.88.47,6.01.71l-.27,1.49-5.26,29.24-.3,1.65-5.6,31.06-.69,3.82c-20.21-3.3-47.36-21.76-47.62-34.58,5.88,1.95,9.47,1.42,11.75-.57-.14-.15-.28-.32-.42-.48-.24-.27-.46-.54-.68-.79l-11.19-2.02,1.61-8.89c-2.28-2.23-3.87-3.07-5.64-2.72-3.85.76-5.61,6.56-6.1,8.15-3.02,9.98,2.91,21.71,11.24,27.46,4.29,2.97,8.35,3.73,10.79,4.26,12.78,2.75,14.79,5.97,38.69,16.22,7.4,3.17,34.05,14.51,67.41,23.71,4.83,1.34,15.03,3.79,35.43,8.7,19.59,4.72,29.39,7.07,42.15,9.9,16,3.56,37.89,8.15,64.94,11.71,19.31,2.54,20.45,1.83,20.56,1.4.11-.43-.7-1.09-2.3-1.97-12.54-2.26-25.06-4.59-37.55-7.07-3.91-.77-7.14-4.87-9.29-9.24l-81.17-14.62-.51,2.84,79.71,14.36c-.07,1.01-.14,2.01-.2,3.04-2.16.19-4.42.9-6.48.52-25.02-4.33-49.99-9.1-75.07-13.09-10.55-1.67-13.79-6.72-12.21-16.96,1.55-10.07,2.53-20.25,3.6-30.83-.44-3.11-.91-5.97-1.52-5.95-.65.02-.83,3.35-2.02,11.2-2.52,16.49-3.7,14.36-3.64,20.15.05,3.7.56,6.98-1.61,8.96-.46.42-.97.73-1.53.93l-1.4,7.79c-20.55-7.47-42.33-14.94-63.64-23.56-3.84-1.55-7.63-7.58-8.21-11.98-1.74-13.23-1.19-26.21,1.64-38.75,1.63-7.24,4.02-14.33,7.17-21.23.92-2.01,1.9-4.01,2.95-5.99,2.28-4.28,9.12-8.53,13.98-8.67,22.5-.66,45.04.14,67.58.41.2,1.72.4,3.44.6,5.16-3.88.6-7.79,1.77-11.63,1.65-18.54-.56-37.05-1.65-55.58-2.08-4.12-.09-8.28,1.81-12.44,2.8.23,1.06.45,2.14.68,3.2,5.68.71,11.34,1.4,17.01,2.1.01,1.46.01,2.89.02,4.36-4.36.13-8.7.27-13.47.45-1.06.03-2.15.07-3.26.11,4.13,1.09,7.68,2.04,12.99,3.45-9.25,17.11-10.98,34.78-7.1,53.5,1.69,8.2,4.92,12.55,12.77,14.74,6.78,1.92,13.25,5,20.82,7.96,1.08-10.47,2.53-19.38-10.06-23.09-2.61-.77-5.39-5.11-5.9-8.16-.97-5.89-1.07-12.14-.28-18.06,1.63-12.14,4.07-18.45,9.79-20.88,4.16-1.75,10.04-1.45,18.59.17,5.55,1.06,11.11,2.03,19.19,3.48l-1.21,6.72c1.41.37,2.79.73,4.14,1.06,3.09-11.32,6.02-21.98,9.24-32.56.57-1.91,4.79-4.27,6.87-3.92,29.42,4.95,58.79,10.36,88.15,15.65.11,1.32.22,2.65.3,3.96-3.38.43-6.95,1.71-10.18,1.18-22.8-3.84-45.56-8.03-68.34-12.11l-13.88-2.5c-1.4,4.81-2.51,8.65-4.19,14.51l89.96,16.21c-.26,1.53-.5,3.03-.77,4.55l-90.84-16.37-.99,5.09,92.56,16.68c1.97-6.33,4.1-15.45,7.77-23.88,1.23-2.82,6.76-5.94,9.77-5.47,10.26,1.63,20.49,3.4,30.72,5.21,16.66,2.95,33.31,6.02,50,8.82.31.06.6.12.86.18.27.05.54.12.78.19.36.09.68.19.99.3.29.09.53.21.77.33.43.19.81.4,1.12.64.18.12.34.24.5.41.12.09.23.21.33.33.05.06.1.11.15.19.17.21.31.42.42.65.05.06.07.11.08.16.12.23.2.48.27.73.05.19.11.38.12.59,0,.04.01.09.02.13.04.29.06.59.05.9,0,.28,0,.56-.06.84,0,.16-.02.3-.05.45-.03.41-.12.84-.24,1.31.17-.25.32-.48.5-.7.72-.97,1.47-1.76,2.3-2.38.04-.03.09-.06.12-.1.16-.13.36-.26.53-.36.14-.12.29-.21.45-.28.15-.11.31-.18.46-.24.28-.16.56-.27.83-.39,0-.02.03-.01.05-.01.16-.07.32-.13.5-.19.49-.17,1-.29,1.52-.38.22-.03.43-.05.65-.09.28-.05.59-.06.87-.08.26-.02.51-.02.79-.01.23-.01.46-.02.69,0,.16.01.32.01.48.02,1.24.06,2.57.25,3.95.52,25.19,5.01,50.47,9.42,75.76,13.72,1.18.19,2.28.41,3.26.71.56.15,1.08.33,1.55.53.47.2.89.41,1.29.67.39.24.73.53,1.05.84.13.16.29.32.39.51.04.06.09.11.11.16h.01c.1.12.16.26.22.4.17.34.28.73.37,1.13,0,.03.02.03.01.05.04.17.06.34.05.5.02.03.04.06,0,.09.04.18.04.34.03.5,0,.02.02.05.02.09-.01.18-.02.36-.03.55-.05.75-.22,1.59-.53,2.53l.17.04c.18-.34.4-.67.62-.96.21-.31.43-.59.63-.86.21-.28.43-.54.68-.78.21-.24.45-.48.7-.69.22-.21.47-.42.73-.58.09-.07.19-.15.32-.22l.32-.22c.43-.27.86-.51,1.33-.7.49-.22,1.01-.38,1.55-.5.25-.07.48-.12.74-.14.3-.07.58-.1.88-.12.31-.04.61-.07.93-.06.35,0,.7-.02,1.04,0,.12,0,.21-.01.32.01.44,0,.92.05,1.39.13.09,0,.18,0,.29.02.45.06.91.12,1.37.2l.66.11c12.78,2.57,25.61,4.93,38.55,7.26,13.27,2.39,26.67,4.71,40.26,7.16l-6.88,38.17c2.16-.66,4.36-1.76,6.24-3.67,3.01-3.09,3.66-6.79,4.66-13.04.18-1.12,1.8-11.26.59-16.08-.89-3.5-3.79-6.32-7.75-8.59,2.74.21,5.41.39,8.04.55,2.71.16,5.85.36,9.34.55-3.02,3.72-6.23,8.91-4.64,11.86.67,1.24,2.03,1.76,3.97,1.79-.07-4.64,1.23-9.35,3.94-13.46,1.25-1.92,2.83-3.71,4.7-5.3,2.85-2.41,5.79-4.45,8.82-6.16t.02-.01c5.78-3.26,11.85-5.31,18.12-6.51,9.64-1.86,19.76-1.72,29.99-.88,16.85,1.41,33.67,3.55,50.48,5.38l-1.72,9.57-5.61,31.07c1-.33,1.92-.86,2.73-1.63,1.34-1.26.98-1.79,2.32-7.36.3,7.6,2.71,14.83,7.13,18.31,3.1,2.45,5.88,2,9.58,1.43-9.1-3.53-9.06-3.61-5.17-14.04,6.65,2.59,13.33,5.18,20.15,7.82l-1.18,6.53c.18.05.37.09.55.14.27-.85.66-1.67,1.11-2.47,2.6-4.52,7.71-7.9,12.32-10.84,3.71-2.34,8.28-3.23,13.83-5.26l-5.06,28.07c.98.06,2.03,0,3.19-.18.35-.06,1.97-.35,4.1-1.25l5.92-32.86,1.92.35-5.66,31.44c1.87-1.07,3.9-2.59,5.69-4.78,6.14-7.51,6.65-19.44,2.77-27.25ZM575.2,329.97c-6.68-.81-13.35-1.6-20.06-2.41.15-1.69.29-3.37.41-5.08,6.71.77,13.42,1.54,20.12,2.31-.14,1.73-.3,3.46-.47,5.18ZM1056.21,276.21l10.26-56.93,11.03-61.24,16.17,2.91-9.93,55.12-11.19,62.13-12.6,69.92c-5.94-.15-10.8-.26-16.62-.41l12.89-71.5ZM1125.63,389.39c-.14,1.43-.49,2.85-1.31,7.39-6.1-4.8-10.81-8.51-15.52-12.24,5.09-1.81,10.2-3.63,17.39-6.21-.31,6.61-.37,8.84-.56,11.05ZM1048.09,544.58c-16.45-4.32-15.11-5.87-32.79-10.53-14.68-3.87-16.26-2.98-21.99-6.28-2.15-1.23-4.91-3.08-17.74-17.07-13.09-14.28-14.06-16.56-19.57-19.71-3.73-2.14-7.06-3.25-19.76-5.87-14.15-2.93-21.24-4.4-31.35-5.66-14.83-1.84-35.27-5.8-76.14-13.72-28.08-5.44-36.32-7.61-37.16-5.54-.11.29-.07.6.15.93,50.83,9.15,101.65,18.31,152.5,27.37,9.54,1.7,15.44,6.78,21.57,14.5,9.62,12.09,22.05,21.94,35.51,34.89l-27.07,150.22c2.26,1.23,4.62,2.4,7.02,3.47l27.88-154.71q17.2,2.38,14.43,17.61c-8.6,47.55-17.14,95.09-25.71,142.64,1.75.36,3.5.65,5.23.84l27.77-154.07,38.87,7c-3.22-2.8-7.8-2.66-21.67-6.31ZM1071.5,552.84c-6.02,22.05-11.57,42.73-17.29,63.34-4.44,16.04-9.01,32.05-13.52,48.07.5-1.25,1.02-2.57,1.57-3.94,20.04-49.96,26.01-57.86,28.37-80.44,1.14-10.96,5.36-20.46.86-27.02ZM1150.42,485.56c-3.76-7.46-14.58-10.33-36.05-15.75-22.41-5.65-25.78-3.96-27.6-2.66-.15.1-.28.21-.41.31,9.15.89,18.46,1.21,27.35,3.32,2.66.62,4.01,6.81,5.97,10.44-.97,1.05-1.92,2.08-2.89,3.11-10.81-4.29-21.62-8.56-32.45-12.86.28-.98.53-1.96.81-2.94-.78.77-1.5,1.67-2.14,2.63-4.24-3.23-12.91-3.29-24.33-4.45-30.12-3.08-28.98-8.68-47.03-8.48-19.45.22-43.89,7-44.35,15.13-.05.9.19,1.96,2.05,3.54.41-1.53.83-3.07,1.24-4.59.59-2.28,5.01-4.74,7.86-4.97,14.6-1.22,29.43-3.52,43.86-2.13,20.18,1.93,40.09,6.79,57.88,10l-6.67,37.04c2.99-.45,4.34-1.55,5.18-2.62,1.53-1.94.9-3.11,1.7-9.32,1.22,3.49,3.02,6.43,5.41,8.29,1.29,1.01,2.53,1.52,3.79,1.75-1.03-8.13-.53-13.87,11.41-11.73,5.74,1.03,11.83,1.09,18.18-1.58,5.36-2.27,12.48-.33,19.08-.26l-4.19,23.28c.49-.03,1.01-.08,1.54-.17.46-.08,2.98-.51,5.96-2.1l4.95-27.47,1.91.33-4.64,25.78c1.33-.94,2.68-2.12,3.9-3.61,6.18-7.52,6.68-19.44,2.75-27.25ZM1234.26,570.04c-1.36-7.04-2.05-10.56-4.7-12.41-4.76-3.31-11.91,1.34-21.78,5.33-3.47,1.39-25.63,10.12-47.61,7.6-2.21-.25.2-.09-28.71-7.49-8.04-2.06-15.1-3.83-24.63-4.44-10.53-.68-17.02-1.01-21.37,3.08-4.8,4.52-6.4,13.87-3.63,20.15,2.42,5.5,7.73,7.64,15.11,8.34.21-1.26.41-2.54.6-3.8,2.01-13.18,2.43-13.58,16.02-7.19-3.49,2.2-8.72,4.56-8.48,5.5.5,2,1.59,3.85,2.86,5.76,2.77-.05,5.7-.17,8.77-.28l3.62-20.07c4.55,4.77,8.61,9.07,12.42,13.08-2.02,1.62-6.74,3.67-7.15,6.33-.02.14-.02.28-.02.42,3.93-.07,8.04-.06,12.27.12l3.55-19.71,8,1.44c-7.84,4.85-6.84,8.2,6.03,15.54-3.77.73-6.42,1.23-11.57,2.22l.56.93c4.59.4,9.3,1.03,14.07,2.02l3.37-18.69,8.8,1.58c-2.05,1.74-5.74,4.54-5.55,4.81,2.36,3.68,5.3,7.04,8.08,10.45-1.21,1.06-3.93,2.45-5.48,4.22,3.96,1.21,7.95,2.72,11.94,4.57.53-8.31.4-16.82-.4-25.6,16.17-4.65,32.74-9.45,49.31-14.23.32,1.05.63,2.08.92,3.12-15.29,4.39-30.6,8.79-45.87,13.19.11,9.89,4.09,13.06,13.5,11.41,10.39-1.85,21.06-2.26,31.64-3.08,2.3-.19,4.64.1,6.98.33-.44-3.12-.08-7.33-1.48-14.56ZM1278.07,596.44c-1.14-2.02-4.36-7.71-9.99-8.74-7.03-1.29-10.17,6.09-19.53,5.72-1.53-.06-7.34-.28-10.79-4.26,0,.11,0,.22,0,.33-16.33,1.06-32.65,2.11-50.07,3.25-.37,2.8-.76,5.92-1.31,10.11,16.84-.58,32.95-1.16,50.12-1.77.17,3.34.3,6.43.46,10.35-13.84-.66-27.09-1.3-40.24-1.93-3.53-.16-7.06-.34-10.59-.51-.07,1.29-.16,2.56-.25,3.84,5.79.47,11.59.94,17.5,1.42,10.89.88,22.11,1.78,34.29,2.76-1.02,3.86-2.03,7.66-3.02,11.44.25-.11.49-.25.73-.4,4.2-2.64,4.15-8.07,11.38-11.82.3-.16,3.23-1.63,7.35-2.29,4.59-6.84,10.67-10.88,22.47-6.16.26,4.51.29,8.97.07,13.38,4.17-2.42,6.7-15.38,1.42-24.72ZM1286.74,278.9c-1.36-7.05-2.05-10.56-4.71-12.41-4.75-3.31-11.9,1.34-21.77,5.33-3.47,1.39-25.64,10.12-47.62,7.6-2.21-.25-.2,2.14-29.11-5.25-8.04-2.06-15.11-3.83-24.63-4.44-10.53-.68-16.62-3.24-20.97.85-4.81,4.52-6.41,13.87-3.64,20.15,2.4,5.45,7.63,7.6,14.91,8.32.25-1.44.49-2.87.72-4.31.87-5.3.75-10.75,1.19-17.49,4.94,5.65,8.71,9.92,12.47,14.2-1.46,1.15-6.42,3.28-6.51,5.6-.03.76.24,1.53.69,2.33,3.54-.02,7.39-.17,11.47-.31l3.8-21.1c2.02.25,5.78.7,9.54,1.14.05.73.11,1.44.16,2.15-2.18.3-4.36.6-9.65,1.36,4.56,5.1,7.94,8.9,12.06,13.51-2.09.13-4.49.3-9.71.63.4.72.8,1.41,1.18,2.09,4.38-.1,8.98-.12,13.74.09l3.06-16.98,9.63,1.74c-.01.46-.04.94-.05,1.43-2.3.28-4.59.59-9.94,1.28,5.19,5.21,8.87,8.93,13.02,13.1-1.17.12-2.33.27-3.7.43,2.83.36,5.72.83,8.61,1.44l2.85-15.8,12.86,2.32c-5.53,1.13-7.78,1.61-12.78,2.64,4.79,4.89,8.27,8.4,12.14,12.34-1.42.24-3.06.53-5.51.97,3.78,1.17,7.6,2.61,11.4,4.38.24-5.72.16-11.51-.29-17.36-.15-1.99,1.37-5.51,2.85-5.96,15.24-4.74,30.63-9.03,45.96-13.41.29.98.55,1.94.81,2.92-15.4,4.5-30.81,9.02-46.79,13.69,1.5,4.03,2.84,7.72,4.26,11.54,16.98-.13,33.63-4.71,50.31-3.38-1.72-3.49-.45-7.75-2.31-17.38ZM1330.54,305.3c-1.13-2.02-4.36-7.71-9.98-8.74-7.03-1.29-10.18,6.09-19.53,5.72-1.53-.06-7.34-.28-10.79-4.26-.32-.36-.59-.74-.82-1.11.05,1.47.12,2.95.18,4.42-9.86.67-19.69,1.4-29.56,2-4.53.27-9.1.59-13.61.37-6.64-.28-8.69,2.42-7.43,8.14h0c.19.84.45,1.74.76,2.69,1.17-.04,2.34-.08,3.52-.12,14.63-.48,29.55-.97,44.63-1.47,2.89,8.06.47,10.83-7.48,10.19-8.96-.71-17.94-1.22-26.92-1.73-5.2-.29-10.42-.57-15.62-.88-.14,1.43-.26,2.85-.4,4.28,7.58.54,15.17,1.08,22.99,1.64,9.32.67,18.97,1.37,29.31,2.11-.77,2.89-1.53,5.74-2.3,8.57.13-.07.25-.14.38-.22,4.2-2.64,4.15-8.07,11.38-11.82.33-.18,3.97-2,8.88-2.49,4.3-6.01,7.73-5.71,20.42-3.31.23,3.68.3,7.32.2,10.91,4.41-1.78,7.26-15.27,1.82-24.9Z"/>
        <path class="cls-6" d="M1333.69,303.83c-2.54-11.19-8.58-13.52-19.73-10.52-5.03,1.38-10.02,2.89-15.46,4.46-.74-3.21-1.32-5.39-1.71-7.6-5.16-29-12.1-29.71-34.53-22.13-12.51,4.22-25.92,11.27-38.16,9.9-33.38-3.68-66.34-11.15-100.43-17.29,2.64-32.18,5.21-63.42,7.83-95.15-4.17-1.79-7.96-3.3-11.67-5.06-5.17-2.44-10.43-4.36-15.71-5.84-15.22-4.34-30.83-5.25-46.55-5.36-9.38-.08-18.78.15-28.18.08-22.28-.18-40.57,7.49-57.3,20.89-8.29,6.64-16.6,13.24-24.9,19.88-.1.1-.19.17-.3.25-17.77,15.34-21.85,19.11-33.15,28.29-12.21,9.89-11.46,8.71-21.54,16.93-8.21,6.68-14.02,11.81-18.6,16.03-1.13,1.06-2.19,2.04-3.22,2.99-5.16,4.85-8.83,8.56-13.52,12.57-2.47,2.1-5.19,4.27-8.57,6.74-.64.47-1.28.92-1.92,1.39-5.76,4.1-11.3,7.54-16.35,10.37-.46.29-.92.52-1.39.79-4.81,2.67-9.14,4.78-12.74,6.42-1.08.5-2.12.96-3.05,1.37-2.38,1.02-4.3,1.79-5.64,2.32-8.55,3.31-24.72,8.77-52.91,11.27-16.91,1.51-35.38,1.72-89.35-4.54-57.74-6.68-54.82-9.03-83.67-10.46-4.38-.22-29.23.52-78.97,1.95,0,0-14.39.41-36.38,4.15-3.75.64-7.72,1.36-11.9,2.2-2.81.58-5.71,1.19-8.71,1.88-1.76.4-5.78,1.33-10.82,3.44-.42.17-.87.37-1.33.56-3.22,1.43-6.79,3.31-10.42,5.8-3.09,2.1-6.49,4.45-9.31,7.39v.02c-3.71,5.02-5.65,10.01-5.72,14.9-.1,4.54,1.43,8.97,4.65,13.19,1.12,1.91,2.23,3.54,3.11,4.81,16.66,24.18,57.03,36.25,88.65,44.94,21.34,7.56,43.13,13.93,64.92,20.33h.06c11.99,3.52,23.99,7.01,35.93,10.7,20.57,6.37,41.04,13.01,61.55,19.53l-.07.38c15.67,5.37,33.6,11.79,52.42,19.07,1.69.54,3.34,1.07,5.04,1.58l-.06.33c15.1,5.91,34.68,13.9,51.96,32.48,5.22,5.64,9.13,11.06,14.08,18.87l1.18.21-.24,1.32c2.09,3.29,4.36,7.01,7,11.33.52.85,1.04,1.69,1.51,2.51l2.64.47c-.16.76-.34,1.49-.5,2.25l-.58-.11c1.64,2.81,3.1,5.37,4.42,7.79,4.26,2.71,7.2,11.72,9.68,18.78,2.8,5.5,6,11.6,10.58,19.55,8.17,14.17,9.1,14.04,16.03,24.88.87,1.05,1.69,2.27,2.46,3.66.63,1.13,1.28,2.26,1.93,3.4.01.05.06.1.09.16,4.53,8.1,9.16,16.15,13.93,24.15.01.07.05.15.1.2,4.56,7.73,9.2,15.41,13.9,23.06,5.34,8.64,10.47,17.5,16.64,25.33,1.46,1.9,2.98,3.71,4.59,5.45,6.22,6.74,13.64,12.42,23.21,16.04,14.16,5.35,28,11.59,42.18,16.87,3.41,1.26,6.84,2.37,10.3,3.31,18.79,5.19,38.06,5.89,57.6,3.95.07-.28.18-.57.25-.86,8.65-30.7,17.11-60.54,25.71-90.93,17.07,3.08,32.6,6.96,48.34,8.51,35.27,3.41,66.82,14.24,92.96,39.36,8.59,8.26,15.55,6.83,23.21-2.54,4.65-5.68,8.22-12.28,12.57-18.94,3.7,2.7,6.72,4.91,9.74,7.14,13.58,10.08,21,9.34,28.49-6.03,6.06-12.44,10.84-26.04,12.93-39.63,1.98-12.8,1-26.47-1.12-39.35-1.85-11.27-8.22-13.78-19.39-11.06-5.3,1.27-10.56,2.72-15.89,4.12-1.62-7.46-2.45-13.88-4.44-19.94-4.01-12.4-9.71-15.25-22.48-11.92-8.42,2.21-16.71,4.84-25.13,7.02-8.35,2.19-17.05,6.52-25.13,5.62-21.05-2.36-41.86-6.98-62.74-10.98-2.09-.4-3.81-2.61-5.69-3.99.6-1.67,1.23-3.31,1.83-4.99,8.06,1.45,16.27,2.38,24.17,4.47,15.8,4.21,19.5,3.17,22.98-13.06,4.16-19.28,6.38-39,9.53-59.19.41.03,3.35.35,6.35.48,12.48.52,24.96,1.32,37.43,1.15,3.03-.04,6.02-3.4,9.04-5.24-2.12-3.14-3.6-7.35-6.54-9.18-4.74-2.91-10.41-4.49-15.8-6.22-9.53-3.07-19.15-5.83-28.85-8.74,11.58-21.27,15.01-43.1,14.88-65.67-.01-7.98-2.84-12.33-12.3-11.83-10.13.55-20.75.05-31.23-10.58,5.5-.35,8.39-.98,11.12-.65,38.26,4.67,75.61,11.73,103.87,41.47.25.26.7.36.98.6,8.51,7.52,16.1,5.16,22.42-2.78,4.64-5.9,8.4-12.48,12.97-19.37,4.26,3.15,8.45,6.31,12.68,9.38,9.35,6.8,15.71,6.63,22.07-2.98,17.16-25.9,22.09-54.54,15.22-84.73ZM946.02,714.36c-30.26-8.37-50.88-27.04-65.92-54.68-20.83-38.25-44.12-75.17-66.38-112.64-18.88-31.73-37.32-63.9-75.64-76.94,23.6,4.43,42.21,17.02,55.02,36.77,19.78,30.52,38.48,61.73,57.48,92.77,14.62,23.92,29.64,47.66,43.28,72.15,11.14,19.95,28.28,30.77,48.91,37.93,8.42,2.93,16.56,6.66,23.91,12.54-6.87-2.67-13.59-5.94-20.66-7.88ZM1070.64,579.86c-2.36,22.59-8.33,30.48-28.37,80.44-.55,1.37-1.07,2.69-1.57,3.94-4.52,16.1-8.95,32.21-13.07,48.4-3.06,12.12-7.75,18.9-21.18,15.9-2.5-.56-5.2-.31-8.74-.48l5.42-30.11c-1.73-.19-3.48-.48-5.23-.84-.97,5.39-1.94,10.79-2.91,16.19l-2.52,13.93-17.04-3.07,5.87-32.59c-2.4-1.08-4.76-2.25-7.02-3.47l-5,27.73c-21.43-14.75-45.48-22.6-59.73-47.32-30.67-53.16-63.98-104.85-97.37-156.38-12.16-18.74-28.86-33.83-50.78-41.64-13.19-4.68-26.4-9.45-39.5-14.36-2.6-.95-4.89-2.72-7.3-4.13.29-1.25.56-2.47.86-3.68,3.5.31,7.05.37,10.48.96,21.95,3.95,43.9,7.89,65.84,11.85-.22-.33-.27-.65-.15-.93.84-2.07,9.08.11,37.16,5.54,40.87,7.92,61.32,11.88,76.14,13.72,10.12,1.26,17.2,2.73,31.35,5.66,12.7,2.62,16.02,3.74,19.76,5.87,5.5,3.15,6.47,5.43,19.57,19.71,12.83,13.99,15.58,15.84,17.74,17.07,5.73,3.3,7.32,2.41,21.99,6.28,17.68,4.66,16.34,6.21,32.79,10.53,13.87,3.64,18.45,3.51,21.67,6.31l2.16.39c-.14.53-.28,1.05-.42,1.57,4.5,6.56.28,16.06-.86,27.02ZM960.2,475.81l5.46-30.28c.84.1,1.65.19,2.47.28l-5.46,30.3c-.81-.1-1.62-.2-2.46-.3ZM1073.58,536.75c6.72,1.22,12.28,1.92,17.63,3.39,1.43.4,2.84,3.13,3.03,4.92.12,1.25-1.56,3.42-2.91,3.96-6.09,2.49-15.58-3.27-17.74-12.26ZM1082.57,600.12c.18-1.26,3.39-3.07,4.92-2.82,1.25.2,3.19,3.26,2.92,4.72-1.2,6.83-3.08,13.54-4.72,20.3-1.69-.22-3.39-.45-5.08-.66.58-7.2.93-14.42,1.97-21.54ZM1106.83,558.64c9.54.61,16.6,2.38,24.63,4.44,28.91,7.39,26.5,7.24,28.71,7.49,21.98,2.52,44.14-6.2,47.61-7.6,9.86-3.98,17.02-8.64,21.78-5.33,2.65,1.85,3.33,5.37,4.7,12.41,1.4,7.23,1.04,11.44,1.48,14.56.61.06,1.24.11,1.85.15.06,1.48.1,2.94.16,4.42,3.46,3.97,9.27,4.2,10.79,4.26,9.37.37,12.5-7.02,19.53-5.72,5.64,1.03,8.85,6.72,9.99,8.74,5.28,9.34,2.75,22.3-1.42,24.72-.81,16.3-5,31.86-13.28,46.42-2.01,3.55-7.64,8.8-9.32,8.05-4.29-1.92-8.95-6.12-10.57-10.48-5.64-15.31-.71-29.52,6.26-43.43,1.39-2.76,2.78-5.43,4.36-7.77-4.12.66-7.05,2.14-7.35,2.29-7.23,3.75-7.18,9.18-11.38,11.82-.24.15-.47.29-.73.4-3.63,13.73-7.18,27.1-11.04,41.67-16.52-9.94-31.02-18.68-45.53-27.4-.77,1.2-1.56,2.38-2.34,3.58,14.48,9.18,28.97,18.38,43.47,27.57-.29,1.1-.58,2.21-.87,3.3-2.62-.47-5.75-.2-7.77-1.56-10.41-6.91-20.4-14.45-30.82-21.3-2.34-1.53-5.86-1.22-8.82-1.75-.38,1.25-.79,2.5-1.17,3.72,13.53,9.79,27.05,19.56,41.46,29.99-8.56,2-21.88-6.5-46.79-28.52,8.78-18.79,13.97-37.92,15.24-58.28-3.99-1.85-7.98-3.36-11.94-4.57-.58.64-.99,1.34-1.12,2.09-.41,2.38,3.84,5.52,6.5,8.96-2.4.39-5.24.86-11.47,1.86,15.73,5.63,9.98,15.03,7.55,22.64-1.15,3.56-6.57,5.77-10.41,8.9.76.5,2.94,1.89,5.42,3.49-1.99.56-3.94,1.11-6.09,1.72-.98.28-1.99.56-3.07.88-1.22.34-2.52.7-3.93,1.1-.38.11-.8.22-1.19.34-.41.11-.83.25-1.26.35l-.1.54c.3.14.58.29.83.4.25.14.48.25.7.33.54.26,1.04.51,1.51.74.53.23,1.03.46,1.49.71,2.32,1.09,3.83,1.82,5.34,2.54-.17.55-.31,1.08-.45,1.63l-10.24-1.84.81-4.5c-.22-.09-.45-.2-.68-.31.27-.06.53-.15.78-.22l9.85-54.7c-4.77-.99-9.48-1.63-14.07-2.02,2.59,4.23,4.85,7.93,7.31,11.98-1.5.3-4.29.85-10.65,2.15,15.35,4.73,10.52,13.44,8.07,20.49-1.36,3.98-5.97,6.83-9.81,10.97,0,.02,1.21.95,2.69,2.12.35.27.71.54,1.08.84.16.12.32.24.48.36-4.55,1.14-8.66,2.16-12.77,3.17.03.93.05,1.86.09,2.77,2.41,1.18,4.84,2.33,7.24,3.5-.08.47-.2.96-.29,1.45l-10.52-1.9,10.51-58.33c-4.23-.18-8.33-.19-12.27-.12.14,2.37,4.13,5.34,6.72,8.57-2.38.5-5.14,1.07-7.9,1.63,11.2,4.33,7.3,12.46,4.95,18.99-1.7,4.69-5.86,8.5-9.67,13.73.15.1.41.31.8.59.14.09.32.24.53.37.67.49,1.51,1.11,2.41,1.76-4.59,1.34-8.84,2.59-13.07,3.84.16.83.3,1.67.46,2.48,2.34,1,4.7,2.01,7.04,3-.07.54-.16,1.06-.25,1.58l-10.68-1.93,9.79-54.37c-3.07.11-6,.22-8.77.28.97,1.47,2.07,2.96,3.08,4.59-1.76.33-4.32.79-6.54,1.19,10.59,13.58,6.64,22.98-6.05,32.16.28.23,2.18,1.76,4.24,3.42-5.13,1.69-9.92,3.28-16.19,5.32,1.48-5.03,3.35-9.99,4.41-15.12,2.2-10.58,4.34-21.16,6.05-31.82-7.38-.7-12.69-2.84-15.11-8.34-2.77-6.29-1.17-15.63,3.63-20.15,4.35-4.09,10.84-3.76,21.37-3.08ZM1098.5,537.62c-5.93-4.01-10.89-7.31-15.81-10.62.21-1.19.4-2.38.61-3.57,5.79-1.31,11.57-2.61,18.52-4.2l-3.31,18.38ZM1147.67,512.82c-1.23,1.49-2.57,2.68-3.9,3.61l-4.68,25.92c-.63-.12-1.28-.21-1.91-.32l4.37-24.24c-2.99,1.6-5.51,2.03-5.96,2.1-.54.09-1.05.14-1.54.17l-2.2,12.24c-5.01-5.67-8.02-9.89-11.89-13.1-3.38-2.81-7.53-5.47-11.73-6.37-5.75-1.2-11.86-.68-18.44-.95-.07-.52-.14-1.03-.21-1.53-1.26-.23-2.51-.74-3.79-1.75-2.39-1.86-4.19-4.8-5.41-8.29-.81,6.2-.17,7.38-1.7,9.32-.84,1.07-2.19,2.18-5.18,2.62l-6.2,34.38c-23.24-6.84-46.05-12.39-67.91-20.54-9.39-3.49-17.17-11.9-24.95-18.88-9.9-8.86-7.89-19.73-5.1-30.3-1.86-1.58-2.1-2.64-2.05-3.54.46-8.13,24.9-14.91,44.35-15.13,18.06-.2,16.92,5.4,47.03,8.48,11.42,1.17,20.1,1.22,24.33,4.45.64-.97,1.36-1.86,2.14-2.63.1-.39.21-.77.32-1.16.3.03.6.06.91.09.13-.11.27-.22.41-.31,1.82-1.3,5.19-2.99,27.6,2.66,21.47,5.42,32.29,8.29,36.05,15.75,3.93,7.81,3.43,19.74-2.75,27.25ZM1190.27,472.75c-5.99-.21-12.08.08-18.03-.64-46.2-5.74-92.46-11.17-138.54-17.76-17.92-2.56-35.2-8.48-53.07-22.21,9.52-1.34,19.91-4.78,21.23-2.65,5.3,8.68,13.37,5.52,19.91,6.78,46.48,8.98,93.08,17.26,139.58,26.11,9.87,1.86,19.48,5.13,28.93,10.37ZM1091.17,433.84c11.38-.75,22.74-1.5,34.14-2.24.37,1.96.73,3.92,1.12,5.89-10.53,15.65-23.54-2.98-34.91.67-.13-1.43-.24-2.89-.35-4.32ZM1134.46,369.38c21.26,5.39,31.97,8.23,35.68,15.68,3.88,7.81,3.37,19.73-2.77,27.25-1.79,2.19-3.82,3.72-5.69,4.78l-3.66,20.28-1.93-.34,3.41-18.88c-2.12.9-3.75,1.19-4.1,1.25-1.15.18-2.2.23-3.19.18l-1.09,6.01c-5.17-1.63-10.08-3.25-15.01-4.69-6.43-1.86-7.54-6.52-6.1-10.83-.18-.05-.37-.09-.55-.14l-1.06,5.84c-4.38-2.16-8.16-4.36-12.2-5.93-.18-.07-.37-.14-.54-.21-3.7.57-6.48,1.02-9.58-1.43-4.42-3.48-6.83-10.71-7.13-18.31-1.34,5.57-.98,6.1-2.32,7.36-.82.78-1.73,1.31-2.73,1.63l-5.23,29.05c-29.97-4.17-63.01-6.01-92.35-23.34-7.27-4.29-11.05-11.76-11.15-19.41-1.93-.03-3.3-.55-3.97-1.79-1.6-2.95,1.62-8.13,4.64-11.86-3.49-.2-6.62-.39-9.34-.55-2.63-.16-5.31-.35-8.04-.55,3.96,2.27,6.86,5.1,7.75,8.59,1.21,4.82-.41,14.96-.59,16.08-1,6.25-1.65,9.95-4.66,13.04-1.88,1.91-4.08,3.01-6.24,3.67l-2.82,15.6-94.12-16.96,2.88-15.98c-.84-.15-1.7-.31-2.56-.45l-2.88,16.02-95.42-17.2c.28-4.59.51-8.62.88-15.15-1.73,6.4-2.82,10.38-4.52,16.58-31.98-7.17-63.56-15.38-95.58-21.16-31.29-5.64-63-8.81-97.58-13.49,1.6-5.81,3.11-11.39,4.59-16.83-1.34-.34-2.72-.69-4.14-1.06l-11.62,64.42c.56-.2,1.07-.51,1.53-.93,2.17-1.98,1.66-5.26,1.61-8.96-.06-5.8,1.12-3.67,3.64-20.15,1.2-7.85,1.37-11.18,2.02-11.2.61-.01,1.08,2.84,1.52,5.95.31-3.07.64-6.17.98-9.32l192.71,34.73c-.29,3.9-.56,7.95-1,14.28,1.68-5.71,2.71-9.29,4.02-13.68l95.22,17.16c-.64,6.36-1.24,12.56-1.86,18.76.27.02.55.08.81.13,1.43-5.83,2.85-11.68,4.46-18.3l93.61,16.87-9.56,53.03c-3.36-.37-6.96-.61-10.51-1.23-23.14-4.12-46.32-8.05-69.36-12.73-4.03-.82-7.39-4.89-11.07-7.45l-.44.31c-2.46,1.32-5.17,4.13-7.34,3.76-27.3-4.57-54.57-9.37-81.7-14.84-3.01-.6-6.9-5.5-7.26-8.75-.77-6.61.6-13.46.24-20.39l-3.39,18.81-89.51-16.13c-.05.25-.1.5-.15.75,5.83,2.02,11.25,3.91,16.14,5.66h.02s73.78,13.31,73.78,13.31c-.09,1.12-.17,2.21-.26,3.33-2.12.22-4.33.95-6.38.59-14.34-2.52-28.69-5.01-43.02-7.61,1.6.87,2.41,1.54,2.3,1.97-.11.43-1.25,1.14-20.56-1.4-27.05-3.56-48.94-8.15-64.94-11.71-12.76-2.84-22.55-5.18-42.15-9.9-20.39-4.91-30.6-7.36-35.43-8.7-33.36-9.2-60.01-20.54-67.41-23.71-23.9-10.26-25.91-13.47-38.69-16.22-2.44-.53-6.5-1.29-10.79-4.26-8.33-5.75-14.26-17.47-11.24-27.46.48-1.59,2.24-7.4,6.1-8.15,1.77-.35,3.36.49,5.64,2.72l1.84-10.25,11.2,2.01-3.45,19.15h0c.21.26.44.53.68.79.14.16.28.32.42.48,3.25-2.81,3.81-8.59,4.48-14.3.91-7.88.97-7.88-13.26-12.24,3.59-4.14,5.82-9.22,8.8-9.72,8.89-1.55,17.82-2.79,26.76-3.95-1.64-1.24-2.29-2.27-2.13-3.14.71-3.92,17.53-3.88,30.72-3.71,90.29,1.16,132.72,7.73,132.72,7.73,48.6,7.53,48.2,9.3,93.9,16.99,5.46-1.9,15.68-3.16,22.85-4.04,22.46-2.77,32.34-.43,44.16-1.29,26.16-1.91,30.07-17.18,55.73-26.96,6.54-2.5,12.2-3.75,17.41-4.18,7.09-5.31,14.16-10.64,21.22-15.98-7.86-.28-14.34-1.56-17.67-3.78-2.71,2.2-5.41,4.42-8.11,6.64-32.47,26.75-66.96,46.43-111.33,42.59-19.93-1.72-40.12.01-60.17-.35-6.09-.12-12.14-2.05-18.04-4.43,23.22,0,46.53-1.46,69.59.29,47.55,3.62,85.84-14.52,120.98-44.76,1.59-1.37,3.17-2.73,4.77-4.08h0c.57-2.34,4.41-6.81,20.15-20.45,14.07-12.2,25.56-21.25,29.89-24.67,8.04-6.36,17.09-13.68,35.17-28.35,32.85-26.63,31.08-26.13,35.17-28.34,14.19-7.7,30.08-8.35,61.86-9.66,54.51-2.25,66.37,6.74,71.67,12.92,4.47,5.2,5,9.26,5.1,10.17.58,5.27-1.76,10.49-5.68,15.36-2.37,27.87-4.74,55.64-7.12,83.46,1.45.06,2.86.43,4,1.33,3.28,2.55,2.88,8.18,1.25,18.72-4.28,27.79-8.64,35.27-6.64,49.68,1.22,8.78,3.23,8.83,2.46,12-.87,3.58-4.17,6.44-9.24,8.7-.06.28-.13.58-.21.88,5.75-5.19,15.74-6.33,19.12-2.57.7.78,1.15,2.43,1.09,3.72,2.4.52,5.13,1.16,8.22,1.94ZM1138.89,329.58c-1.15-.03-2.3-.07-3.45-.09-.35-5.89-.96-11.77-.8-17.63.03-1.21,3.03-3.49,4.31-3.28,1.46.26,3.78,2.92,3.58,4.25-.79,5.64-2.36,11.19-3.64,16.76ZM1328.72,330.2c-.45,16.91-4.53,32.7-12.38,47.55-2.2,4.16-7.24,6.83-10.96,10.18-3.66-4.47-9.03-8.42-10.63-13.55-5.12-16.36,1.35-31.08,9.27-45.1,1.58-2.79,2.87-4.99,4.08-6.68-4.9.48-8.55,2.31-8.88,2.49-7.23,3.75-7.18,9.18-11.38,11.82-.13.08-.25.15-.38.22-4,14.92-7.78,29.12-11.95,44.7-16.54-9.99-31.07-18.76-45.63-27.54-.76,1.11-1.54,2.25-2.3,3.36,14.59,9.42,29.18,18.88,43.76,28.3-.46,1.14-.94,2.26-1.4,3.4-2.72-.79-5.85-.97-8.09-2.45-10.03-6.78-19.69-14.12-29.77-20.82-2.41-1.61-5.94-1.53-8.97-2.22-.49,1.32-.98,2.67-1.51,4.01,13.57,9.79,27.1,19.61,41.3,29.87-7.91,2.2-30.25-12.21-46.27-28.73,8.95-19.49,14.4-39.69,15.29-60.79-3.8-1.77-7.62-3.21-11.4-4.38-1.17.2-2.53.43-4.14.71,2.73,4.69,5.09,8.71,7.76,13.26-1.39.29-4.13.83-9.55,1.91,15.2,5.58,8.6,15.06,6.45,22.62-1,3.47-6.59,5.61-10.68,8.85.8.57,3.02,2.1,5.16,3.59-3.81,1-7.67,2.02-13.98,3.65,4.58,3.07,6.71,4.47,8.83,5.9-.17.45-.37.9-.56,1.33l-10.11-1.82,11.27-62.47c-2.9-.61-5.78-1.08-8.61-1.44-1.79.21-3.94.46-6.93.81,3.36,5.11,5.99,9.08,8.84,13.41-1.93.32-4.55.75-7.05,1.15-3.1,21.76-5.24,30.11-9.54,30.7,3.2,2.14,5.31,3.53,8.68,5.76-3.57.03-6.1-.47-8.23.23-1.89.61-3.35,2.54-5.34,4.17,2.83,1.76,5.07,3.15,7.32,4.55-.2.47-.42.92-.64,1.39l-10.19-1.84,11.05-61.32c-4.76-.21-9.36-.19-13.74-.09,2.31,4.12,4.28,7.61,6.51,11.56-1.14.29-3.81,1.02-9.42,2.51,13.92,3.66,10.03,11.68,7.56,18.22-1.74,4.63-5.88,8.37-9.8,13.68.45.34,1.88,1.39,3.16,2.33-4.84,1.86-9.89,3.78-15.1,5.77l9.7-53.83c-4.08.14-7.93.29-11.47.31,1.23,2.17,3.9,4.5,5.9,7.16-2.16.56-4.63,1.18-9.38,2.41,12.2,4.61,9.19,12.5,6.28,19.4-1.85,4.36-5.99,7.72-10.06,12.73,0,0,2.08,1.19,6.48,3.72-4.64-.19-7.59.52-8.53-.53-2.41-2.67-5.81-6.39-5.43-9.25,1.53-12.05,4.1-23.97,6.19-35.96-7.27-.73-12.51-2.88-14.91-8.32-2.77-6.29-1.17-15.63,3.64-20.15,4.35-4.09,10.43-1.52,20.97-.85,9.53.61,16.6,2.38,24.63,4.44,28.91,7.39,26.9,5,29.11,5.25,21.98,2.52,44.15-6.2,47.62-7.6,9.86-3.98,17.02-8.64,21.77-5.33,2.66,1.85,3.34,5.36,4.71,12.41,1.86,9.63.59,13.89,2.31,17.38.11,0,.22,0,.33.02.01.21.01.41.02.62.23.37.5.74.82,1.11,3.46,3.97,9.27,4.2,10.79,4.26,9.35.36,12.5-7.02,19.53-5.72,5.63,1.03,8.85,6.72,9.98,8.74,5.44,9.63,2.59,23.12-1.82,24.9Z"/>
        <path class="cls-6" d="M794.39,466.31c49.91,9,98.01,17.8,146.17,26.24,10.32,1.81,17.44,6.18,23.45,15.41,5.58,8.56,13.66,16.82,22.59,21.51,10.32,5.43,12.66,11.35,9.13,21.34-.82,2.34-1.3,4.79-2.17,8.04-30.68-34.28-71.58-48.61-111.85-63.57-28.33-10.52-57.37-19.12-87.33-28.98Z"/>
        <path class="cls-6" d="M946.69,641.02c2.24-12.45,4.3-23.84,6.44-35.75,5.64,1.02,10.71,1.93,16.72,3.01-2.09,11.62-4.2,23.28-6.44,35.75-5.17-.93-10.53-1.9-16.72-3.01Z"/>
        <path class="cls-6" d="M954.21,644.18c3.68,6.96,8.11,11.67,7.11,14.37-1.36,3.69-6.85,5.85-10.57,8.67-2.53-3.59-7.12-7.25-7-10.75.12-3.31,5.18-6.44,10.46-12.3Z"/>
        <path class="cls-6" d="M863.75,445.54l-3.16,17.54-.44.31-92.04-16.59c.15-1.01.32-2.02.49-3.03l89.99,16.22,2.66-14.78c.83.12,1.67.23,2.5.33Z"/>
        <path class="cls-6" d="M948.04,478.89c-27.47-4.95-54.94-9.9-82.41-14.85.13-.73.26-1.46.39-2.18,27.49,4.96,54.99,9.91,82.48,14.87-.16.72-.31,1.45-.47,2.17Z"/>
        <path class="cls-6" d="M1037.47,233.63c-5.46-.98-10.57-1.9-16.53-2.98,2.1-11.62,4.2-23.29,6.4-35.51,5.47.99,10.57,1.91,16.53,2.98-2.09,11.62-4.2,23.29-6.4,35.51Z"/>
        <path class="cls-6" d="M1030.84,236.9c1.6,4.22,5.16,8.97,4.2,12.49-.87,3.18-7.17,7.38-10.19,6.77-3.14-.64-7.49-6.76-7.13-10.03.4-3.63,5.51-6.75,8.57-10.09,1.52.28,3.03.57,4.55.85Z"/>
        <path class="cls-6" d="M779.42,346.77c-1.51,8.39-3.02,16.78-4.45,24.72-33.24-5.99-64.01-11.54-94.78-17.08.09-1.21.18-2.43.27-3.64,9.77-1.66,19.41,2.28,29.05,3.65,10.87,1.55,21.65,3.71,32.47,5.64,10.23,1.82,20.45,3.68,30.67,5.52.27-1.34.55-2.69.82-4.03-29.81-5.37-59.61-10.74-88.96-16.03-.51-15.25.22-16.03,12.46-13.79,27.56,5.04,55.1,10.2,82.65,15.32,0,0-.2-.27-.2-.27Z"/>
        <path class="cls-6" d="M784.36,347.6l93.9,16.93h.04c-1.89,5.86-3.79,11.69-5.66,17.58-.04.11-.07.24-.11.35-.23-.16-.43-.29-.66-.47h-.02c-2.85-2.02-5.52-4.81-8.64-5.42-23-4.52-46.1-8.52-69.16-12.67l-12.23-2.2,2.54-14.09Z"/>
        <path class="cls-6" d="M1033.38,547.42c10.83,1.95,21.18,3.82,32.97,5.94-1.61,6.5-2.98,11.97-4.57,18.37-4.6-2.49-7.76-4.43-11.1-5.96-13.1-5.98-17-3.87-19.64,10.73-6.97,38.43-13.85,76.88-20.83,115.31-.79,4.34-2.02,8.59-5.1,12.45,9.4-52.15,18.8-104.31,28.27-156.85Z"/>
        <path class="cls-6" d="M999.75,366.9c32.74-16.38,64.1-7.02,95.64-4.1-2.81,9.96-5.27,18.65-7.78,27.54-14.11-5.08-27.97-11.07-42.39-14.97-14.01-3.79-28.59-5.43-45.47-8.47Z"/>
        <path class="cls-6" d="M1085.4,421.32c-23.97-4.32-47.94-8.64-71.9-12.96.14-.71.29-1.43.43-2.14,23.97,4.32,47.94,8.64,71.91,12.96-.15.71-.29,1.43-.44,2.14Z"/>
        <path class="cls-6" d="M1075.48,480.27c-3.37,9.24-6.45,17.7-8.98,24.64-27.9-10.82-55.39-21.49-81.65-31.68,8.25-8.53,52.65-6.5,90.63,7.04Z"/>
        <path class="cls-6" d="M986.69,512.48c26.98,8.41,52.02,16.21,77.06,24.01-26.87-2.47-52.47-8.61-77.06-24.01Z"/>
        <path class="cls-6" d="M1083.24,282.26c10.16,3.12,17.63,5.42,25.43,7.82-1.76,20.14-3.42,39.26-5.15,59.1-11.77-1.15-22.54-2.2-34.04-3.33,9.53-52.87,18.98-105.31,28.43-157.76.75.1,1.5.2,2.25.3-5.62,31.21-11.25,62.41-16.92,93.87Z"/>
        <path class="cls-6" d="M963.49,393.88c-28.38-5.12-55.83-10.06-83.98-15.14,1.08-4.52,2.02-8.45,3.1-12.96,27.84,5.02,55.28,9.96,83.24,15-.77,4.25-1.48,8.22-2.36,13.09Z"/>
        <path class="cls-6" d="M964.14,400.6c-2.94,2.18-5.07,5-6.61,4.71-26.96-5.1-53.85-10.57-80.75-16.01-.13-.03-.15-.66-.21-1.01,5.11-4.26,60.47,3.24,87.57,12.3Z"/>
        <path class="cls-6" d="M1017.87,560.67q-9.66-3.13-5.6-18.71c2.7.28,5.5.57,8.8.92-1.13,6.29-2.17,12.03-3.21,17.79Z"/>
        <path class="cls-6" d="M1068.77,280.63c-3.9,21.63-6.81,39.18-10.45,56.58-.57,2.74-4.43,4.79-6.76,7.15-1.23-.78-2.45-1.56-3.68-2.34,3.4-18.89,6.62-37.82,10.53-56.6.36-1.72,5.2-2.5,10.36-4.78Z"/>
      </g>
    </g>
  </g>
  <g id="Ebene_8" data-name="Ebene 8">
    <path class="cls-5" d="M665.18,659.37h0c9.09-.1,16.44-7.45,16.53-16.54h.01c.09,9.09,7.44,16.44,16.53,16.53h0c-9.09.1-16.44,7.45-16.53,16.54h-.01c-.09-9.09-7.44-16.44-16.53-16.53Z"/>
    <path class="cls-5" d="M457.18,936.37h0c9.09-.1,16.44-7.45,16.53-16.54h.01c.09,9.09,7.44,16.44,16.53,16.53h0c-9.09.1-16.44,7.45-16.53,16.54h-.01c-.09-9.09-7.44-16.44-16.53-16.53Z"/>
    <path class="cls-5" d="M1274.77,464.95h0c6.02-.07,10.88-4.94,10.94-10.95h0c.06,6.02,4.93,10.88,10.94,10.94h0c-6.02.07-10.88,4.94-10.94,10.95h0c-.06-6.02-4.93-10.88-10.94-10.94Z"/>
    <path class="cls-5" d="M600.89,675.9h0c5.05-.06,9.13-4.14,9.18-9.19h0c.05,5.05,4.13,9.13,9.18,9.18h0c-5.05.06-9.13,4.14-9.18,9.19h0c-.05-5.05-4.13-9.13-9.18-9.18Z"/>
    <circle class="cls-5" cx="610.07" cy="637.32" r="5.51"/>
    <circle class="cls-5" cx="583.43" cy="590.47" r="4.59"/>
    <circle class="cls-5" cx="731.31" cy="567.51" r="5.51"/>
    <circle class="cls-5" cx="773.56" cy="697.94" r="5.51"/>
    <circle class="cls-5" cx="414.56" cy="879.94" r="5.51"/>
    <circle class="cls-5" cx="481.48" cy="776.93" r="7.35"/>
    <circle class="cls-5" cx="72.48" cy="711.93" r="7.35"/>
    <circle class="cls-5" cx="965.48" cy="867.93" r="7.35"/>
    <circle class="cls-5" cx="421.48" cy="527.93" r="7.35"/>
    <circle class="cls-5" cx="705.59" cy="729.17" r="3.67"/>
    <circle class="cls-5" cx="751.52" cy="650.18" r="3.67"/>
    <circle class="cls-5" cx="620.56" cy="987.94" r="5.51"/>
    <circle class="cls-5" cx="598.52" cy="940.18" r="3.67"/>
    <circle class="cls-5" cx="821.33" cy="773.26" r="3.67"/>
    <circle class="cls-5" cx="932.33" cy="784.26" r="3.67"/>
    <circle class="cls-5" cx="665.18" cy="843.06" r="3.67"/>
    <circle class="cls-5" cx="692.74" cy="773.26" r="3.67"/>
    <circle class="cls-5" cx="534.74" cy="868.26" r="3.67"/>
    <circle class="cls-5" cx="426.74" cy="1026.26" r="3.67"/>
    <circle class="cls-5" cx="562.31" cy="712.63" r="3.67"/>
    <circle class="cls-5" cx="615.31" cy="793.63" r="3.67"/>
    <circle class="cls-5" cx="488.83" cy="719.98" r="5.51"/>
    <circle class="cls-5" cx="543.94" cy="776.93" r="3.67"/>
    <circle class="cls-5" cx="409.84" cy="723.66" r="1.84"/>
    <circle class="cls-5" cx="417.19" cy="679.57" r="3.67"/>
    <circle class="cls-5" cx="494.19" cy="524.57" r="3.67"/>
    <circle class="cls-5" cx="514.55" cy="617.11" r="3.67"/>
    <ellipse class="cls-5" cx="477.81" cy="609.76" rx="5.51" ry="3.67"/>
    <circle class="cls-5" cx="455.76" cy="650.18" r="7.35"/>
    <circle class="cls-5" cx="742.39" cy="996.98" r="5.51"/>
    <circle class="cls-5" cx="821.38" cy="1000.66" r="1.84"/>
    <circle class="cls-5" cx="510.38" cy="1027.66" r="1.84"/>
    <circle class="cls-5" cx="1015.38" cy="1036.66" r="1.84"/>
    <circle class="cls-5" cx="500.38" cy="460.66" r="1.84"/>
    <circle class="cls-5" cx="814.04" cy="956.57" r="3.67"/>
    <circle class="cls-5" cx="716.67" cy="894.11" r="3.67"/>
    <ellipse class="cls-5" cx="753.41" cy="886.76" rx="5.51" ry="3.67"/>
    <circle class="cls-5" cx="775.46" cy="927.18" r="7.35"/>
    <ellipse class="cls-5" cx="1512.04" cy="924.07" rx="5.79" ry="6.02" transform="translate(-255.11 1055.83) rotate(-35.69)"/>
    <circle class="cls-5" cx="1580.38" cy="1049.66" r="1.84"/>
    <ellipse class="cls-5" cx="1476.68" cy="1003.86" rx="3.86" ry="4.02" transform="translate(-308.3 1050.19) rotate(-35.69)"/>
    <ellipse class="cls-5" cx="1599.57" cy="999.61" rx="3.86" ry="4.02" transform="translate(-282.74 1121.09) rotate(-35.69)"/>
    <ellipse class="cls-5" cx="1572.91" cy="1028.66" rx="5.79" ry="4.02" transform="translate(-304.69 1110.99) rotate(-35.69)"/>
    <ellipse class="cls-5" cx="1528.34" cy="1006.3" rx="7.72" ry="8.03" transform="translate(-300.02 1080.79) rotate(-35.69)"/>
    <path class="cls-5" d="M1164.82,847.37h0c-9.09-.1-16.44-7.45-16.53-16.54h-.01c-.09,9.09-7.44,16.44-16.53,16.53h0c9.09.1,16.44,7.45,16.53,16.54h.01c.09-9.09,7.44-16.44,16.53-16.53Z"/>
    <path class="cls-5" d="M1229.11,863.9h0c-5.05-.06-9.13-4.14-9.18-9.19h0c-.05,5.05-4.13,9.13-9.18,9.18h0c5.05.06,9.13,4.14,9.18,9.19h0c.05-5.05,4.13-9.13,9.18-9.18Z"/>
    <circle class="cls-5" cx="1219.93" cy="825.32" r="5.51"/>
    <circle class="cls-5" cx="1246.57" cy="778.47" r="4.59"/>
    <circle class="cls-5" cx="1098.69" cy="755.51" r="5.51"/>
    <circle class="cls-5" cx="1056.44" cy="885.94" r="5.51"/>
    <circle class="cls-5" cx="810.44" cy="854.94" r="5.51"/>
    <circle class="cls-5" cx="1348.52" cy="964.93" r="7.35"/>
    <circle class="cls-5" cx="1124.41" cy="917.17" r="3.67"/>
    <circle class="cls-5" cx="909.41" cy="1031.17" r="3.67"/>
    <circle class="cls-5" cx="1078.48" cy="838.18" r="3.67"/>
    <circle class="cls-5" cx="1008.67" cy="961.26" r="3.67"/>
    <circle class="cls-5" cx="1164.82" cy="1031.06" r="3.67"/>
    <circle class="cls-5" cx="1137.26" cy="961.26" r="3.67"/>
    <circle class="cls-5" cx="1267.69" cy="900.63" r="3.67"/>
    <circle class="cls-5" cx="1341.17" cy="907.98" r="5.51"/>
    <circle class="cls-5" cx="1286.06" cy="964.93" r="3.67"/>
    <circle class="cls-5" cx="1420.16" cy="911.66" r="1.84"/>
    <circle class="cls-5" cx="1412.81" cy="867.57" r="3.67"/>
    <circle class="cls-5" cx="1315.45" cy="805.11" r="3.67"/>
    <ellipse class="cls-5" cx="1352.19" cy="797.76" rx="5.51" ry="3.67"/>
    <circle class="cls-5" cx="1374.24" cy="838.18" r="7.35"/>
    <path class="cls-5" d="M602.82,117.37h0c-9.09.1-16.44,7.45-16.53,16.54h-.01c-.09-9.09-7.44-16.44-16.53-16.53h0c9.09-.1,16.44-7.45,16.53-16.54h.01c.09,9.09,7.44,16.44,16.53,16.53Z"/>
    <path class="cls-5" d="M667.11,100.84h0c-5.05.06-9.13,4.14-9.18,9.19h0c-.05-5.05-4.13-9.13-9.18-9.18h0c5.05-.06,9.13-4.14,9.18-9.19h0c.05,5.05,4.13,9.13,9.18,9.18Z"/>
    <path class="cls-5" d="M932.11,135.84h0c-5.05.06-9.13,4.14-9.18,9.19h0c-.05-5.05-4.13-9.13-9.18-9.18h0c5.05-.06,9.13-4.14,9.18-9.19h0c.05,5.05,4.13,9.13,9.18,9.18Z"/>
    <path class="cls-5" d="M905.11,943.84h0c-5.05.06-9.13,4.14-9.18,9.19h0c-.05-5.05-4.13-9.13-9.18-9.18h0c5.05-.06,9.13-4.14,9.18-9.19h0c.05,5.05,4.13,9.13,9.18,9.18Z"/>
    <circle class="cls-5" cx="657.93" cy="139.42" r="5.51"/>
    <circle class="cls-5" cx="684.57" cy="186.26" r="4.59"/>
    <circle class="cls-5" cx="536.69" cy="209.22" r="5.51"/>
    <circle class="cls-5" cx="461.69" cy="244.22" r="5.51"/>
    <circle class="cls-5" cx="494.44" cy="78.8" r="5.51"/>
    <circle class="cls-5" cx="1115.52" cy="41.81" r="7.35"/>
    <circle class="cls-5" cx="562.41" cy="47.57" r="3.67"/>
    <circle class="cls-5" cx="516.48" cy="126.56" r="3.67"/>
    <circle class="cls-5" cx="1148.67" cy="116.48" r="3.67"/>
    <circle class="cls-5" cx="417.67" cy="100.48" r="3.67"/>
    <circle class="cls-5" cx="422.82" cy="43.67" r="3.67"/>
    <circle class="cls-5" cx="465.82" cy="150.67" r="3.67"/>
    <circle class="cls-5" cx="631.26" cy="240.48" r="3.67"/>
    <circle class="cls-5" cx="705.69" cy="64.1" r="3.67"/>
    <circle class="cls-5" cx="779.17" cy="56.75" r="5.51"/>
    <circle class="cls-5" cx="913.06" cy="48.81" r="3.67"/>
    <circle class="cls-5" cx="858.16" cy="53.08" r="1.84"/>
    <circle class="cls-5" cx="850.81" cy="97.17" r="3.67"/>
    <circle class="cls-5" cx="753.45" cy="159.63" r="3.67"/>
    <ellipse class="cls-5" cx="790.19" cy="166.97" rx="5.51" ry="3.67"/>
    <path class="cls-5" d="M282.56,853.04h-.01c-.09-9.09-7.44-16.44-16.53-16.53h0c9.09-.1,16.44-7.45,16.53-16.54h.01c.09,9.09,7.44,16.44,16.53,16.53h0c-9.09.1-16.44,7.45-16.53,16.54Z"/>
    <path class="cls-5" d="M299.09,917.34h0c-.05-5.05-4.13-9.13-9.18-9.18h0c5.05-.06,9.13-4.14,9.18-9.19h0c.05,5.05,4.13,9.13,9.18,9.18h0c-5.05.06-9.13,4.14-9.18,9.19Z"/>
    <circle class="cls-5" cx="260.51" cy="908.15" r="5.51"/>
    <circle class="cls-5" cx="213.67" cy="934.79" r="4.59"/>
    <circle class="cls-5" cx="190.7" cy="786.91" r="5.51"/>
    <circle class="cls-5" cx="321.13" cy="744.66" r="5.51"/>
    <circle class="cls-5" cx="352.36" cy="812.63" r="3.67"/>
    <circle class="cls-5" cx="273.37" cy="766.7" r="3.67"/>
    <circle class="cls-5" cx="299.45" cy="667.9" r="3.67"/>
    <circle class="cls-5" cx="356.26" cy="673.04" r="3.67"/>
    <circle class="cls-5" cx="249.26" cy="716.04" r="3.67"/>
    <circle class="cls-5" cx="104.26" cy="813.04" r="3.67"/>
    <circle class="cls-5" cx="159.45" cy="881.49" r="3.67"/>
    <circle class="cls-5" cx="335.83" cy="955.92" r="3.67"/>
    <circle class="cls-5" cx="343.18" cy="1029.4" r="5.51"/>
    <circle class="cls-5" cx="240.3" cy="1003.68" r="3.67"/>
    <ellipse class="cls-5" cx="232.96" cy="1040.42" rx="3.67" ry="5.51"/>
    <path class="cls-5" d="M117.14,228.11h.01c.09,9.09,7.44,16.44,16.53,16.53h0c-9.09.1-16.44,7.45-16.53,16.54h-.01c-.09-9.09-7.44-16.44-16.53-16.53h0c9.09-.1,16.44-7.45,16.53-16.54Z"/>
    <path class="cls-5" d="M100.61,163.81h0c.05,5.05,4.13,9.13,9.18,9.18h0c-5.05.06-9.13,4.14-9.18,9.19h0c-.05-5.05-4.13-9.13-9.18-9.18h0c5.05-.06,9.13-4.14,9.18-9.19Z"/>
    <circle class="cls-5" cx="139.19" cy="173" r="5.51"/>
    <circle class="cls-5" cx="186.04" cy="146.36" r="4.59"/>
    <circle class="cls-5" cx="209" cy="294.24" r="5.51"/>
    <circle class="cls-5" cx="78.57" cy="336.49" r="5.51"/>
    <circle class="cls-5" cx="47.34" cy="268.52" r="3.67"/>
    <circle class="cls-5" cx="126.33" cy="314.45" r="3.67"/>
    <circle class="cls-5" cx="100.26" cy="413.26" r="3.67"/>
    <circle class="cls-5" cx="43.45" cy="408.11" r="3.67"/>
    <circle class="cls-5" cx="150.45" cy="365.11" r="3.67"/>
    <circle class="cls-5" cx="240.26" cy="199.67" r="3.67"/>
    <circle class="cls-5" cx="63.88" cy="125.24" r="3.67"/>
    <circle class="cls-5" cx="56.53" cy="51.76" r="5.51"/>
    <circle class="cls-5" cx="159.4" cy="77.48" r="3.67"/>
    <ellipse class="cls-5" cx="166.75" cy="40.74" rx="3.67" ry="5.51"/>
    <path class="cls-5" d="M213.71,490.32h0c-6.27,6.59-6.12,16.98.34,23.38h0c-6.58-6.26-16.97-6.11-23.37.35h0c6.27-6.59,6.12-16.98-.34-23.38h0c6.58,6.26,16.97,6.11,23.37-.35Z"/>
    <path class="cls-5" d="M246.67,432.68h0c-3.48,3.66-3.4,9.43.19,12.99h0c-3.65-3.48-9.43-3.39-12.98.19h0c3.48-3.66,3.4-9.43-.19-12.99h0c3.65,3.48,9.43,3.39,12.98-.19Z"/>
    <circle class="cls-5" cx="267.93" cy="466.16" r="5.51"/>
    <circle class="cls-5" cx="320.09" cy="479.7" r="4.59"/>
    <circle class="cls-5" cx="233.51" cy="601.76" r="5.51"/>
    <circle class="cls-5" cx="166.51" cy="703.76" r="5.51"/>
    <circle class="cls-5" cx="110.52" cy="541.17" r="5.51"/>
    <circle class="cls-5" cx="135.49" cy="470.66" r="3.67"/>
    <circle class="cls-5" cx="160.14" cy="558.64" r="3.67"/>
    <circle class="cls-5" cx="72.58" cy="611.33" r="3.67"/>
    <circle class="cls-5" cx="35.42" cy="568.05" r="3.67"/>
    <circle class="cls-5" cx="332.52" cy="62.17" r="5.51"/>
    <circle class="cls-5" cx="294.58" cy="132.33" r="3.67"/>
    <circle class="cls-5" cx="257.42" cy="89.05" r="3.67"/>
    <circle class="cls-5" cx="142.13" cy="611.78" r="3.67"/>
    <circle class="cls-5" cx="321.83" cy="555.71" r="3.67"/>
    <circle class="cls-5" cx="171.48" cy="992.93" r="7.35"/>
    <circle class="cls-5" cx="70.09" cy="944.7" r="4.59"/>
    <circle class="cls-5" cx="71.83" cy="1020.71" r="3.67"/>
    <circle class="cls-5" cx="247.2" cy="379.42" r="3.67"/>
    <path class="cls-5" d="M347.72,413.05l2.63,2.56-2.63-2.56-2.63-2.56,2.63,2.56Z"/>
    <circle class="cls-5" cx="293.14" cy="321.6" r="5.51"/>
    <circle class="cls-5" cx="349" cy="411.73" r="3.67"/>
    <ellipse class="cls-5" cx="379.87" cy="390.5" rx="5.51" ry="3.67" transform="translate(-164.92 390.8) rotate(-45.82)"/>
    <ellipse class="cls-5" cx="352.87" cy="226.5" rx="5.51" ry="3.67" transform="translate(-55.49 321.73) rotate(-45.82)"/>
    <circle class="cls-5" cx="812.24" cy="126.56" r="7.35"/>
    <circle class="cls-5" cx="1041.81" cy="67.17" r="3.67"/>
    <circle class="cls-5" cx="1003.24" cy="96.56" r="7.35"/>
    <path class="cls-5" d="M1350.82,53.37h0c-9.09-.1-16.44-7.45-16.53-16.54h-.01c-.09,9.09-7.44,16.44-16.53,16.53h0c9.09.1,16.44,7.45,16.53,16.54h.01c.09-9.09,7.44-16.44,16.53-16.53Z"/>
    <path class="cls-5" d="M1415.11,69.9h0c-5.05-.06-9.13-4.14-9.18-9.19h0c-.05,5.05-4.13,9.13-9.18,9.18h0c5.05.06,9.13,4.14,9.18,9.19h0c.05-5.05,4.13-9.13,9.18-9.18Z"/>
    <circle class="cls-5" cx="1405.93" cy="31.32" r="5.51"/>
    <circle class="cls-5" cx="1182.57" cy="54.47" r="4.59"/>
    <circle class="cls-5" cx="1034.69" cy="31.51" r="5.51"/>
    <circle class="cls-5" cx="1242.44" cy="91.94" r="5.51"/>
    <circle class="cls-5" cx="1534.52" cy="170.93" r="7.35"/>
    <circle class="cls-5" cx="1310.41" cy="123.17" r="3.67"/>
    <circle class="cls-5" cx="1264.48" cy="44.18" r="3.67"/>
    <circle class="cls-5" cx="1194.67" cy="167.26" r="3.67"/>
    <circle class="cls-5" cx="1350.82" cy="237.06" r="3.67"/>
    <circle class="cls-5" cx="1323.26" cy="167.26" r="3.67"/>
    <circle class="cls-5" cx="1453.69" cy="106.63" r="3.67"/>
    <circle class="cls-5" cx="1527.17" cy="113.98" r="5.51"/>
    <circle class="cls-5" cx="1472.06" cy="170.93" r="3.67"/>
    <circle class="cls-5" cx="1606.16" cy="117.66" r="1.84"/>
    <circle class="cls-5" cx="1598.81" cy="73.57" r="3.67"/>
    <circle class="cls-5" cx="1501.45" cy="11.11" r="3.67"/>
    <ellipse class="cls-5" cx="1538.19" cy="3.76" rx="5.51" ry="3.67"/>
    <circle class="cls-5" cx="1560.24" cy="44.18" r="7.35"/>
  </g>
</svg>