<?xml version="1.0" encoding="UTF-8"?>
<svg id="Ebene_2" data-name="Ebene 2" xmlns="http://www.w3.org/2000/svg" viewBox="0 0 2312.5 1080">
  <defs>
    <style>
      .cls-1 {
        fill: #000;
      }

      .cls-1, .cls-2, .cls-3, .cls-4, .cls-5, .cls-6, .cls-7, .cls-8, .cls-9, .cls-10 {
        stroke-width: 0px;
      }

      .cls-2 {
        fill: #1d2f3b;
      }

      .cls-3 {
        fill: #c83837;
      }

      .cls-4 {
        fill: none;
        stroke: #1d2f3b;
        stroke-miterlimit: 0;
      }

      .cls-5 {
        fill: #4ea2ac;
      }

      .cls-6 {
        fill: #f2d0b4;
      }

      .cls-7 {
        fill: #192a33;
      }

      .cls-8 {
        fill: #fff;
      }

      .cls-9 {
        fill: #f37633;
      }

      .cls-10 {
        fill: #192830;
      }
    </style>
  </defs>
  <g id="Ebene_8" data-name="Ebene 8">
    <path class="cls-10" d="M1759.02,0c-.19.19-.38.38-.56.57h-158.59c-.55,2.41-.84,4.91-.84,7.49,0,3.39.51,6.67,1.44,9.76-1.56.93-2.96,2.15-4.11,3.6-2.35,2.92-3.78,6.72-3.78,10.91,0,5.53,2.48,10.4,6.26,13.39.35.27.71.55,1.08.77.7.48,1.45.87,2.22,1.22-.95.12-1.85.36-2.71.72-.2.08-.4.17-.59.26-3.71,1.83-6.26,5.92-6.26,10.66,0,3.1,1.1,5.89,2.88,7.97h-.12c-12.6,0-22.78,11.19-22.78,25.02,0,5.53,1.63,10.63,4.4,14.8-8.43,3.62-14.41,12.68-14.41,23.26,0,5.94,1.9,11.39,5.03,15.71-15.64,1.3-28.18,14.77-29.86,31.8-3.25,4.31-5.21,9.86-5.21,15.93,0,2.54.36,4.98,1,7.28-.32-.02-.64-.05-1-.05-6.91,0-12.51,5.69-12.51,12.69,0,1.83.38,3.58,1.08,5.15-.35-.05-.7-.08-1.08-.08-6.91,0-12.51,5.69-12.51,12.69,0,1.34.19,2.66.6,3.89-4.29-2.18-9.63-1.73-13.56,1.54-1.96,1.62-3.29,3.73-3.98,6.02-2.76-1.66-5.94-2.56-9.34-2.56-10.37,0-18.78,8.52-18.78,19.03,0,2.81.61,5.48,1.7,7.86-.94-.18-1.94-.25-2.95-.25-4.6,0-8.8,1.67-12.09,4.49-1.92-1.25-4.23-1.95-6.67-1.95-6.92,0-12.52,5.68-12.52,12.68,0,.35.02.7.05,1.02-3.08,1.37-5.53,3.96-6.74,7.15-.05-.05-.1-.12-.15-.17-4.06-5.03-10.18-7.36-16.12-6.78-3.56.34-7.06,1.74-10.03,4.21-2.73,2.29-4.65,5.18-5.73,8.35-.52-.81-1.1-1.61-1.72-2.38-10.14-12.47-28.34-14.24-40.63-3.97-3.32,2.77-5.87,6.15-7.63,9.84-1.44-1.64-3.25-2.9-5.3-3.69-20.14,14.95-33.21,39.08-33.21,66.32,0,16.38,4.73,31.63,12.87,44.43.15,0,.31,0,.46,0,1.48,0,2.91-.22,4.26-.69.44.77.95,1.5,1.52,2.21,5.71,7.01,15.37,8.76,23.01,4.67v.15c0,5.16,2.75,9.65,6.83,12.03-.97,4.39-.49,9.09,1.52,13.28.68,1.45,1.55,2.83,2.61,4.13,4.93,6.07,12.61,8.53,19.71,6.99.91,3.83,2.66,7.53,5.31,10.79,9.19,11.28,25.53,13.09,36.84,4.1.2.33.46.66.71.96,6.15,7.59,15.56,10.88,24.53,9.5-2.83,6.77-1.96,14.86,3,20.95,1.52,1.87,3.28,3.39,5.22,4.55-.76,1.63-1.17,3.44-1.17,5.35s.38,3.58,1.08,5.15c-.35-.05-.7-.07-1.08-.07-6.9,0-12.51,5.68-12.51,12.68,0,1.35.2,2.67.6,3.88-4.28-2.19-9.64-1.72-13.57,1.56-1.95,1.62-3.27,3.73-3.98,6-2.75-1.64-5.93-2.56-9.33-2.56-10.36,0-18.77,8.53-18.77,19.03,0,2.81.6,5.48,1.7,7.87-.96-.17-1.95-.25-2.95-.25-4.6,0-8.82,1.67-12.09,4.49-1.93-1.25-4.23-1.95-6.69-1.95-6.9,0-12.51,5.68-12.51,12.69,0,.35.03.68.05,1.01-3.07,1.37-5.53,3.95-6.73,7.16-.05-.05-.1-.13-.15-.18-4.36-5.39-11.06-7.68-17.39-6.61-3.12.52-6.15,1.86-8.76,4.04-2.73,2.28-4.66,5.18-5.73,8.36-.53-.83-1.11-1.63-1.74-2.4-10.13-12.46-28.32-14.23-40.61-3.95-3.15,2.62-5.61,5.78-7.35,9.23-.1.19-.2.38-.29.58-.12-.13-.24-.27-.36-.39-1.28-1.33-2.82-2.39-4.52-3.1-15.59,14.48-25.55,36.55-25.55,61.25,0,22.55,8.29,42.89,21.59,57.3,4.15.87,8.56.3,12.45-1.78v.16c0,5.15,2.75,9.64,6.83,12.02-.3,1.36-.46,2.74-.47,4.14-.07,4.66,1.44,9.39,4.6,13.28,4.93,6.06,12.61,8.52,19.72,6.98.9,3.82,2.65,7.53,5.31,10.77,9.18,11.3,25.53,13.1,36.84,4.11.2.34.45.67.7.97,6.16,7.6,15.57,10.89,24.53,9.49-2.84,6.78-1.96,14.88,3,20.96,6.86,8.43,18.93,9.84,27.48,3.43,1.95,5.27,6.98,9,12.86,9,1.16,0,2.26-.14,3.34-.43-1.69,6.19-.49,13.09,3.88,18.45,3.97,4.87,9.73,7.41,15.51,7.43-3.98,7.14-3.46,16.32,2,23.02,2.43,3,5.53,5.1,8.91,6.3-1.6,9.74.8,20.12,7.48,28.34,4.51,5.53,10.34,9.34,16.65,11.29-.5,5.2.95,10.61,4.51,14.98,1.84,2.26,4.05,4.03,6.51,5.25-5.29,11.87-3.84,26.26,4.87,37,6.21,7.6,14.87,11.92,23.86,12.71-5.04,5.98-6.19,14.39-3.11,21.49-.65.41-1.28.87-1.88,1.36-8.58,7.18-9.81,20.06-2.73,28.76,3.76,4.59,9.09,7.13,14.55,7.41-7.94,7.26-8.92,19.67-2.03,28.13,1.15,1.41,2.45,2.63,3.88,3.64-1.65,1.02-3.13,2.36-4.38,4.01-4.68,6.22-4.22,14.76.67,20.43h643.57V0h-403.17ZM1613.69,61.36c-.4,2.59-1.59,4.88-3.27,6.56,1.1-2.2,2.19-4.4,3.27-6.56Z"/>
    <path class="cls-6" d="M1760.73,82.28c1.68-1.66,2.87-3.92,3.27-6.47-1.08,2.13-2.17,4.3-3.27,6.47ZM1759.02,0c-.19.19-.38.38-.56.57-5.65,5.89-9.12,13.87-9.12,22.67,0,3.34.51,6.58,1.44,9.62-1.56.92-2.96,2.12-4.11,3.55-2.35,2.88-3.78,6.63-3.78,10.76,0,5.46,2.48,10.26,6.26,13.21.35.27.71.54,1.08.76.7.47,1.45.86,2.22,1.2-.95.12-1.85.36-2.71.71-.2.08-.4.17-.59.26-3.71,1.81-6.26,5.84-6.26,10.51,0,3.06,1.1,5.81,2.88,7.87h-.12c-12.6,0-22.78,11.03-22.78,24.67,0,5.46,1.63,10.49,4.4,14.6-8.43,3.57-14.41,12.51-14.41,22.94,0,5.86,1.9,11.24,5.03,15.5-15.64,1.28-28.18,14.56-29.86,31.36-3.25,4.25-5.21,9.73-5.21,15.71,0,2.51.36,4.91,1,7.18-.32-.02-.64-.05-1-.05-6.91,0-12.51,5.62-12.51,12.52,0,1.8.38,3.53,1.08,5.08-.35-.05-.7-.08-1.08-.08-6.91,0-12.51,5.61-12.51,12.52,0,1.32.19,2.62.6,3.83-4.29-2.15-9.63-1.7-13.56,1.52-1.96,1.6-3.29,3.68-3.98,5.94-2.76-1.64-5.94-2.53-9.34-2.53-10.37,0-18.78,8.41-18.78,18.77,0,2.78.61,5.41,1.7,7.76-.94-.18-1.94-.25-2.95-.25-4.6,0-8.8,1.65-12.09,4.43-1.92-1.23-4.23-1.93-6.67-1.93-6.92,0-12.52,5.61-12.52,12.51,0,.35.02.69.05,1.01-3.08,1.35-5.53,3.9-6.74,7.05-.05-.05-.1-.12-.15-.17-6.5-7.94-18.24-9.06-26.15-2.53-2.73,2.26-4.65,5.11-5.73,8.23-.52-.8-1.1-1.59-1.72-2.35-10.14-12.29-28.34-14.04-40.63-3.91-3.32,2.73-5.87,6.07-7.63,9.7-2.5-2.79-6.13-4.51-10.16-4.51-3.81,0-7.25,1.55-9.73,4.03-.25-.4-.56-.77-.86-1.16-6.51-7.92-18.24-9.05-26.15-2.53-.93.76-1.73,1.59-2.48,2.46-2.51-3.23-6.44-5.31-10.84-5.31-3.81,0-7.25,1.56-9.73,4.03-.25-.4-.55-.77-.85-1.14-6.51-7.94-18.25-9.06-26.16-2.53-.77.62-1.48,1.33-2.12,2.05-2.31-2.98-5.89-4.9-9.94-4.9s-7.91,2.07-10.19,5.22c-.74-.15-1.52-.22-2.33-.22-3.42,0-6.5,1.37-8.78,3.6-.17-.24-.35-.49-.54-.73-5.26-6.39-13.93-8.36-21.24-5.45-.72.29-1.44.62-2.13,1.02-.97.53-1.91,1.17-2.8,1.9-1.79,1.47-3.23,3.21-4.31,5.11-.61,1.07-1.11,2.19-1.49,3.34-.57,1.68-.89,3.43-.95,5.2-.13,3.22.58,6.47,2.14,9.43h0c.58,1.09,1.27,2.13,2.08,3.11.13.13.24.27.35.4.11.12.22.24.33.35-.14.08-.27.16-.4.25-1.13.68-2.23,1.45-3.28,2.33-.16.13-.32.26-.47.39-9.9,8.52-12.65,22.34-7.5,33.73h0c.54,1.21,1.17,2.38,1.89,3.52.64,1.02,1.36,2.02,2.15,2.98.18.22.37.43.56.64,4.9,5.56,11.47,8.85,18.34,9.64-2.25,6.01-1.33,13.02,3.06,18.35,6.52,7.91,18.24,9.03,26.18,2.51,1.5-1.23,2.75-2.66,3.74-4.21.66,1.48,1.54,2.9,2.61,4.21,6.53,7.9,18.25,9.02,26.19,2.49.91-.74,1.74-1.6,2.46-2.47,1.69,4.93,6.36,8.48,11.87,8.48,2.31,0,4.45-.63,6.31-1.7.72,2.03,1.8,3.96,3.23,5.71,6.53,7.91,18.24,9.03,26.17,2.5,2.51-2.08,4.33-4.68,5.46-7.51,1.58.65,3.31,1,5.13,1,1.48,0,2.91-.22,4.26-.68.44.76.95,1.48,1.52,2.18,5.71,6.91,15.37,8.64,23.01,4.6v.15c0,5.09,2.75,9.52,6.83,11.87-1.3,5.83.02,12.19,4.13,17.17,4.93,5.98,12.61,8.41,19.71,6.89.91,3.78,2.66,7.43,5.31,10.64,9.19,11.13,25.53,12.91,36.84,4.05.2.32.46.65.71.94,6.15,7.49,15.56,10.74,24.53,9.37-2.83,6.68-1.96,14.66,3,20.67,1.52,1.84,3.28,3.34,5.22,4.49-.76,1.6-1.17,3.39-1.17,5.27s.38,3.53,1.08,5.08c-.35-.05-.7-.07-1.08-.07-6.9,0-12.51,5.6-12.51,12.51,0,1.33.2,2.63.6,3.83-4.28-2.16-9.64-1.7-13.57,1.53-1.95,1.6-3.27,3.68-3.98,5.92-2.75-1.62-5.93-2.52-9.33-2.52-10.36,0-18.77,8.41-18.77,18.77,0,2.77.6,5.4,1.7,7.76-.96-.17-1.95-.25-2.95-.25-4.6,0-8.82,1.65-12.09,4.43-1.93-1.23-4.23-1.92-6.69-1.92-6.9,0-12.51,5.6-12.51,12.51,0,.35.03.67.05,1-3.07,1.35-5.53,3.9-6.73,7.06-.05-.05-.1-.13-.15-.18-6.51-7.93-18.24-9.06-26.15-2.53-2.73,2.25-4.66,5.11-5.73,8.24-.53-.81-1.11-1.6-1.74-2.36-10.13-12.29-28.32-14.04-40.61-3.9-3.33,2.73-5.89,6.06-7.64,9.68-2.5-2.78-6.12-4.5-10.15-4.5-3.81,0-7.27,1.55-9.75,4.03-.25-.4-.55-.78-.84-1.15-6.51-7.94-18.25-9.06-26.16-2.53-.93.75-1.73,1.57-2.48,2.45-2.5-3.22-6.43-5.3-10.83-5.3-3.81,0-7.26,1.55-9.74,4.03-.25-.4-.55-.77-.85-1.16-6.51-7.92-18.24-9.05-26.16-2.53-.78.63-1.47,1.33-2.13,2.06-2.29-2.98-5.88-4.91-9.93-4.91s-7.91,2.08-10.18,5.23c-.76-.15-1.53-.22-2.33-.22-3.43,0-6.51,1.38-8.78,3.61-.19-.26-.36-.51-.56-.73-1.19-1.45-2.55-2.67-4.03-3.65-1.48-1-3.08-1.76-4.74-2.27-3.35-1.05-6.96-1.14-10.38-.23-.22.06-.44.12-.65.19-2.26.7-4.42,1.84-6.35,3.43-4.54,3.74-6.86,9.18-6.77,14.63-.01.09,0,.18,0,.27h0c.1,3.38,1.11,6.74,3.08,9.71.35.54.74,1.06,1.16,1.57.22.25.43.53.68.75-1.28.76-2.51,1.6-3.68,2.58-12.32,10.13-14.07,28.33-3.93,40.62,1.76,2.11,3.75,3.92,5.9,5.39.53.38,1.06.72,1.61,1.04,2.28,1.36,4.71,2.38,7.23,3.06,1.36.36,2.75.63,4.15.79-2.25,6.02-1.32,13.02,3.05,18.35,6.54,7.91,18.26,9.03,26.18,2.5,1.5-1.22,2.76-2.64,3.76-4.2.66,1.47,1.52,2.91,2.6,4.2,6.54,7.91,18.24,9.04,26.18,2.5.93-.74,1.75-1.6,2.48-2.48,1.67,4.94,6.36,8.5,11.87,8.5,2.29,0,4.45-.63,6.3-1.71.73,2.03,1.81,3.95,3.23,5.71,6.53,7.9,18.24,9.03,26.18,2.5,2.5-2.08,4.33-4.68,5.46-7.51,1.57.65,3.3,1.01,5.13,1.01,1.47,0,2.9-.23,4.25-.68.45.75.95,1.47,1.53,2.18,5.7,6.9,15.36,8.63,23,4.6v.15c0,5.08,2.75,9.51,6.83,11.86-1.3,5.83.03,12.19,4.13,17.18,4.93,5.98,12.61,8.4,19.72,6.88.9,3.77,2.65,7.43,5.31,10.63,9.18,11.14,25.53,12.92,36.84,4.05.2.34.45.66.7.96,6.16,7.49,15.57,10.74,24.53,9.36-2.84,6.68-1.96,14.67,3,20.67,6.86,8.31,18.93,9.71,27.48,3.38,1.95,5.2,6.98,8.88,12.86,8.88,1.16,0,2.26-.14,3.34-.42-1.69,6.1-.49,12.91,3.88,18.19,3.97,4.81,9.73,7.31,15.51,7.33-3.98,7.04-3.46,16.1,2,22.71,2.43,2.95,5.53,5.03,8.91,6.21-1.6,9.61.8,19.84,7.48,27.95,4.51,5.46,10.34,9.21,16.65,11.14-.5,5.13.95,10.46,4.51,14.77,1.84,2.23,4.05,3.98,6.51,5.18-5.29,11.71-3.84,25.9,4.87,36.49,6.21,7.5,14.87,11.76,23.86,12.54-5.04,5.9-6.19,14.19-3.11,21.19-.65.41-1.28.86-1.88,1.35-8.58,7.08-9.81,19.78-2.73,28.36,3.76,4.53,9.09,7.03,14.55,7.31-7.94,7.16-8.92,19.4-2.03,27.74,1.15,1.4,2.45,2.6,3.88,3.59-1.65,1.01-3.13,2.33-4.38,3.96-4.54,5.95-4.24,14.06.25,19.65.13.17.28.33.42.5h643.57V0h-553.48Z"/>
    <g>
      <g>
        <path class="cls-3" d="M1346.39,318.91l202.48,22.16s-109.9,2.04-108.7.01,73.44,15.1,73.44,15.1l-75.11,2.31,71.08,19.85-76.85,2.33,101.03,40.99-195.43-57.42,8.06-45.33Z"/>
        <path class="cls-9" d="M1333.29,312.86l110.81,10.07s-60.54,10.1-59.34,8.07c1.21-2.02,54.3,16.1,54.3,16.1l-55.97,1.3,50.93,16.83-56.7,5.35,56.7,34.94-111.82-38.28,11.08-54.4Z"/>
      </g>
      <path class="cls-6" d="M1341.28,323.53l25.93-3.15s-18.49,12.54-17.7,11.22,15.88,7.74,15.88,7.74l-16.97,3.66,12.45,7.61-16.23,6.92,11.6,16.61-23.27-14.69,8.31-35.91Z"/>
    </g>
    <g>
      <g>
        <path class="cls-3" d="M1289.98,611.05l202.48,22.16s-109.9,2.04-108.7.01c1.21-2.02,73.44,15.1,73.44,15.1l-75.11,2.31,71.08,19.85-76.85,2.33,101.03,40.99-195.43-57.42,8.06-45.33Z"/>
        <path class="cls-9" d="M1276.88,605l110.81,10.07s-60.54,10.1-59.34,8.07c1.21-2.02,54.3,16.1,54.3,16.1l-55.97,1.3,50.93,16.83-56.7,5.35,56.7,34.94-111.82-38.28,11.08-54.4Z"/>
      </g>
      <path class="cls-6" d="M1284.87,615.67l25.93-3.15s-18.49,12.54-17.7,11.22,15.88,7.74,15.88,7.74l-16.97,3.66,12.45,7.61-16.23,6.92,11.6,16.61-23.27-14.69,8.31-35.91Z"/>
    </g>
    <g>
      <path class="cls-2" d="M872.8,375.31c.22.18.43.31.66.47l.34-.31-.23-.04c-.25-.04-.52-.09-.77-.12ZM878.87,358.3c.11-.21.24-.4.36-.59l-.18-.03c-.04.2-.1.4-.18.62Z"/>
      <path class="cls-8" d="M373,392.74l.47.09c.06-.06.09-.22.09-.22-.19.03-.36.07-.56.13Z"/>
      <path class="cls-6" d="M967.44,497.21c-6.17-7.78-12.12-12.9-21.73-14.61-51.22-9.12-102.42-18.35-153.62-27.57-22.11-3.99-44.21-7.96-66.33-11.94-3.45-.59-7.03-.66-10.56-.97-.3,1.23-.57,2.45-.86,3.71,2.43,1.42,4.74,3.21,7.35,4.16,13.2,4.95,26.5,9.74,39.79,14.46,22.08,7.87,38.91,23.07,51.16,41.95,33.64,51.91,67.19,103.98,98.09,157.53,14.36,24.91,38.58,32.81,60.17,47.67l5.03-27.94,27.27-151.33c-13.56-13.05-26.09-22.96-35.78-35.15ZM954.67,600.24c5.67,1.03,10.78,1.94,16.83,3.04l-.78,4.39c-1.06,5.86-2.12,11.76-3.21,17.78l-2.5,13.83c-3.25-.59-6.58-1.19-10.14-1.83-.7-.13-1.43-.26-2.15-.39-1.47-.26-2.98-.53-4.54-.82l.41-2.33c.14-.78.28-1.55.42-2.32l.83-4.57c.13-.76.27-1.52.41-2.26l.81-4.48c.4-2.24.79-4.46,1.2-6.68l2.41-13.36ZM953.77,641.52c.65-.67,1.31-1.36,1.96-2.1h.01c.24.46.48.91.73,1.34.25.43.49.86.74,1.27.03.06.07.12.1.18.21.35.41.69.62,1.03,0,.01.01,0,.01,0,.21.34.41.67.61,1,.62.97,1.2,1.89,1.75,2.75.19.28.35.57.52.84.42.68.8,1.32,1.13,1.92.07.12.12.24.18.35.54,1.05.88,1.97.92,2.76,0,.14,0,.27,0,.4-.01.12-.03.25-.06.38-.03.08-.05.16-.08.25-.08.21-.16.4-.26.6-.3.58-.7,1.12-1.17,1.64-.36.39-.76.77-1.21,1.14-.22.18-.45.37-.7.54-.23.17-.46.35-.71.52-.38.25-.76.51-1.16.76-.25.17-.52.33-.79.5-1.12.71-2.28,1.4-3.35,2.11-.17.11-.34.23-.5.34-.28.19-.54.38-.8.58-.01,0,0,.01-.02.01-.52-.75-1.12-1.48-1.75-2.22-.22-.25-.42-.49-.64-.74,0,0,0,0,0-.01-.19-.22-.39-.44-.57-.65-.1-.11-.18-.21-.29-.32t0-.01c-.66-.77-1.31-1.54-1.88-2.31-.12-.15-.23-.32-.35-.49-.03-.06-.08-.11-.11-.17-.14-.21-.29-.44-.42-.65-.13-.21-.25-.43-.36-.65-.1-.22-.2-.43-.29-.65-.06-.16-.12-.32-.17-.48-.05-.16-.09-.32-.12-.48-.01-.03-.01-.06-.01-.08-.04-.19-.06-.37-.07-.56,0-.13,0-.25,0-.37,0-.21.04-.43.08-.63.02-.1.05-.2.08-.3.02-.07.04-.14.07-.21.02-.09.06-.18.11-.27.03-.1.08-.2.14-.29.03-.06.05-.12.09-.18.05-.11.12-.22.18-.32.13-.21.27-.43.43-.64.16-.21.33-.43.52-.65,1.58-1.89,4.12-4.01,6.87-6.81ZM999.11,538.06c0,.24-.01.49-.04.74-.07.99-.23,2.03-.48,3.12-.13.54-.28,1.11-.45,1.68-.17.56-.36,1.16-.58,1.76-.1.3-.2.6-.28.89-.09.3-.19.61-.27.91-.4,1.37-.74,2.85-1.17,4.53-.14.56-.29,1.15-.46,1.76-3.86-4.32-7.89-8.32-12.05-12.04-1.03-.93-2.08-1.84-3.14-2.74-1.26-1.07-2.54-2.12-3.83-3.15-.72-.58-1.45-1.14-2.17-1.71-.5-.39-1-.78-1.52-1.16-.74-.56-1.47-1.11-2.22-1.65t-.01,0c-1.1-.81-2.21-1.59-3.33-2.37-1.12-.77-2.24-1.54-3.38-2.28-.61-.4-1.22-.8-1.82-1.19-.53-.34-1.07-.69-1.6-1.02-4.16-2.62-8.4-5.08-12.71-7.4-.74-.4-1.49-.8-2.24-1.19-.74-.39-1.49-.78-2.24-1.17-.49-.26-.98-.5-1.47-.75-.86-.45-1.72-.87-2.59-1.3-2.43-1.19-4.86-2.34-7.32-3.47-2.45-1.12-4.93-2.22-7.41-3.29-1.25-.53-2.49-1.06-3.75-1.58-.96-.41-1.92-.81-2.89-1.2-1.22-.51-2.44-1-3.66-1.49-1.57-.63-3.14-1.26-4.72-1.87-.22-.09-.44-.18-.67-.27-1.67-.65-3.33-1.3-5.01-1.93-6.95-2.66-13.94-5.24-20.92-7.83-3.56-1.32-7.15-2.61-10.73-3.88-1.79-.64-3.59-1.27-5.4-1.9-3.6-1.24-7.21-2.46-10.84-3.68-14.8-4.95-29.82-9.66-45.06-14.55h-.01c-2.63-.85-5.26-1.69-7.91-2.56-.79-.25-1.58-.51-2.36-.77-1.86-.6-3.72-1.22-5.58-1.83-.01,0-.01,0-.02,0-.02,0-.04,0-.05-.02,2.94.53,5.87,1.06,8.78,1.58,0,.01.01,0,.02,0,1.66.3,3.32.6,4.98.9,1.67.31,3.33.61,4.99.9,12.46,2.24,24.83,4.48,37.12,6.71,9.22,1.68,18.41,3.33,27.56,4.97,12.21,2.2,24.36,4.37,36.49,6.54,9.11,1.61,18.2,3.22,27.3,4.82.53.09,1.05.19,1.56.3.51.11,1.02.23,1.51.34,1.45.35,2.83.77,4.16,1.25.26.1.52.19.76.29.04.02.08.04.12.05.26.1.5.19.75.31.44.19.88.38,1.31.59.35.16.69.33,1.04.52.51.27,1,.56,1.49.86.31.18.62.37.91.57.33.21.66.44.98.67.11.07.21.15.31.22.34.24.66.5.98.75.26.22.54.43.79.66.07.07.15.12.21.19.12.09.23.2.35.31.27.24.53.47.79.73.36.34.72.71,1.06,1.08.34.35.66.71.99,1.09.41.47.81.96,1.21,1.47.4.51.79,1.04,1.18,1.58s.77,1.11,1.14,1.69c1.4,2.15,2.96,4.28,4.67,6.35.4.49.81.98,1.23,1.47.03.04.06.08.1.12.43.49.86.98,1.31,1.46.32.37.67.72,1.01,1.07.26.28.53.56.81.83.15.16.31.32.48.48.37.39.77.77,1.18,1.15.79.75,1.61,1.48,2.44,2.19.21.18.41.35.62.52.4.34.81.67,1.24,1,.26.22.53.41.8.61,1.42,1.08,2.87,2.08,4.35,2.99.38.23.76.45,1.15.67.45.26.91.51,1.36.75,7.08,3.72,10.43,7.67,10.72,12.99.02.28.02.55.02.85,0,.11,0,.23,0,.34Z"/>
      <path class="cls-6" d="M868.38,408.15c-1.63,6.67-3.05,12.56-4.49,18.43-.26-.05-.54-.1-.81-.13.62-6.25,1.23-12.5,1.87-18.9l-95.92-17.29c-1.32,4.42-2.36,8.03-4.05,13.79.44-6.37.71-10.45,1.01-14.38l-194.13-34.99c-.35,3.17-.68,6.29-.99,9.39-1.08,10.65-2.06,20.91-3.63,31.06-1.6,10.31,1.67,15.4,12.3,17.08,25.27,4.02,50.42,8.83,75.63,13.18,2.08.38,4.35-.33,6.53-.52.06-1.03.13-2.05.2-3.06l-80.3-14.47.52-2.86,81.77,14.73c2.16,4.4,5.42,8.53,9.36,9.31,12.58,2.5,25.19,4.85,37.83,7.13,14.43,2.62,28.89,5.13,43.34,7.67,2.06.37,4.29-.37,6.42-.59.09-1.12.17-2.23.26-3.35l-74.33-13.4h-.02s-16.78-3.03-16.78-3.03c.18-.89.34-1.78.52-2.68.05-.25.1-.5.15-.75l90.18,16.25,3.41-18.95c.37,6.98-1.01,13.89-.24,20.55.36,3.28,4.28,8.21,7.31,8.81,27.34,5.51,54.81,10.35,82.3,14.95,2.19.37,4.92-2.46,7.4-3.79l-92.72-16.71c.16-1.02.32-2.04.5-3.05l90.65,16.34,2.68-14.89c.83.13,1.68.23,2.52.33l-3.18,17.67c3.7,2.58,7.09,6.68,11.15,7.5,23.22,4.72,46.56,8.68,69.88,12.83,3.58.62,7.21.86,10.59,1.24l9.63-53.42-94.3-17ZM949.99,470.74c-.15.72-.31,1.45-.47,2.19-27.67-4.99-55.34-9.97-83.01-14.96h-.01s.4-2.2.4-2.2h0s83.09,14.97,83.09,14.97h0Z"/>
      <path class="cls-6" d="M1044.21,160.55c-16.84,2.56-31.63,8.25-45.44,19.25-36.2,28.76-72.68,57.2-109.53,85.14-7.12,5.38-14.24,10.75-21.38,16.1-5.96,4.47-11.92,8.92-17.9,13.36-17.02,12.63-37.11,20.68-59.37,20.49-11.49-.09-23,.19-34.48.28.01,1.12.04,2.22.07,3.33,18.47-.85,38.95,3.1,54.93-3.61,29.27-12.33,57.21-15.29,87.13-6.53,4.73,1.39,9.85,1.41,14.63,2.69,37.98,10.15,73.31,1.94,107.37-15.19,7.59-3.82,15.14-7.75,23.89-12.23l-8.69,48.28c-15.91,6.68-30.45,10.6-42.4,18.46-9.57,6.31-17.91,8.28-28.63,6.31-55.95-10.31-111.96-20.29-167.96-30.39l-36.53-6.58c-.22,1.12-.47,2.25-.7,3.37,1.2.43,2.4,1.06,3.66,1.29,55.69,10.04,111.35,20.26,167.09,29.99h.02c10.19,1.78,20.38,3.55,30.56,5.28,3.66.63,7.3,1.26,10.95,1.87,6.82,1.16,14.85-3.45,22.05-6.11,12.31-4.59,24.1-10.94,36.71-14.14,6.43-1.64,8.83-3.37,9.87-9.52,3.68-21.29,7.55-42.54,11.42-63.8,1.33-7.3,2.66-14.6,3.98-21.89l6.27-34.82,10.1-56.02c-10.62,2.06-19.11,4.05-27.71,5.37ZM1026.15,205.19l2.44-13.51.83-4.6h0s16.65,2.99,16.65,2.99l-.79,4.4c-.79,4.4-1.59,8.82-2.39,13.27l-.06.27-.75,4.21c-.4,2.24-.81,4.49-1.22,6.77-.41,2.27-.83,4.57-1.24,6.87-3.44-.62-6.74-1.21-10.2-1.83-1.24-.22-2.52-.45-3.82-.69-.86-.15-1.73-.32-2.62-.48l.78-4.39c.52-2.93,1.06-5.87,1.59-8.83l.66-3.61c.05-.27.09-.55.15-.84ZM1026.9,248.56c-.09-.02-.19-.04-.29-.07-1.42-.42-3.04-1.87-4.36-3.62-.08-.1-.14-.18-.21-.28-.97-1.35-1.75-2.86-2.12-4.2-.09-.27-.14-.53-.17-.77-.06-.41-.09-.8-.04-1.16.01-.13.03-.27.07-.41.02-.09.04-.18.07-.28.16-.61.46-1.22.85-1.81.1-.17.21-.32.34-.48,0,0,0,0,0-.01.24-.32.51-.63.79-.94.09-.11.18-.21.29-.32.1-.11.2-.21.3-.32.31-.31.62-.62.96-.93.33-.31.67-.62,1.02-.93.68-.61,1.39-1.23,2.07-1.85.23-.2.45-.42.67-.62.44-.42.86-.82,1.24-1.25.76.14,1.53.28,2.29.43.31.05.61.11.91.17.46.08.92.16,1.37.25h0s0,0,0,0c.14.36.29.72.44,1.1.15.32.3.65.46.98.16.34.33.7.51,1.05.88,1.77,1.81,3.54,2.4,5.23.17.45.29.89.39,1.33.24,1.03.28,2,.04,2.89-.03.09-.05.17-.1.27-.12.37-.32.74-.59,1.13-.06.09-.12.2-.21.29-.21.29-.44.58-.71.87,0,0-.01,0-.01,0-.17.2-.36.38-.55.57-.1.09-.2.18-.31.28-.1.1-.2.18-.31.27-.32.28-.66.54-1,.78-.23.17-.47.34-.71.48-.12.08-.23.15-.35.22-.36.23-.73.44-1.1.62-.49.25-.97.47-1.45.64-.12.05-.24.09-.36.12-.94.3-1.82.42-2.53.28Z"/>
      <path class="cls-8" d="M873.57,375.42l.23.04-.34.31c-.23-.16-.44-.29-.66-.47.25.02.52.07.77.12Z"/>
      <path class="cls-8" d="M879.05,357.68l.18.03h.05s-.41.59-.41.59c.09-.22.14-.42.18-.62Z"/>
      <path class="cls-6" d="M879.58,353.98s.02-.06,0-.09c.01-.16,0-.33-.05-.5,0-.02-.02-.02-.01-.05-.09-.41-.21-.8-.38-1.14-.07-.14-.15-.27-.23-.4-.02-.06-.07-.11-.11-.17-.1-.19-.26-.35-.39-.51-.32-.32-.66-.61-1.06-.85-.4-.26-.82-.47-1.3-.67-.48-.21-1-.39-1.56-.54-1-.3-2.1-.52-3.29-.71-25.47-4.33-50.95-8.78-76.32-13.82-1.39-.28-2.73-.46-3.97-.53-.16-.01-.32-.01-.49-.02-.23-.02-.46-.01-.7,0-.28,0-.54-.01-.8.01-.28.02-.59.03-.87.08-.22.03-.43.05-.65.09-.53.09-1.04.21-1.53.38-.18.06-.35.12-.5.19-.02,0-.04,0-.05.01-.28.12-.55.23-.84.39-.15.06-.31.13-.46.24-.16.07-.3.16-.45.28-.18.1-.37.23-.53.36-.04.03-.09.07-.13.1-.83.62-1.6,1.42-2.32,2.4-.18.22-.34.45-.51.7.11-.47.21-.9.24-1.31.03-.15.05-.3.06-.46.05-.29.06-.57.06-.85.01-.31-.01-.61-.05-.91,0-.04-.02-.09-.02-.13-.03-.21-.07-.41-.12-.6-.07-.25-.15-.5-.27-.73-.01-.05-.03-.1-.08-.16-.1-.23-.25-.44-.42-.65-.05-.08-.1-.14-.15-.19-.1-.13-.22-.24-.33-.33-.17-.15-.33-.29-.51-.42-.31-.25-.69-.46-1.13-.64-.24-.12-.49-.24-.78-.33-.31-.1-.64-.21-1-.3-.25-.07-.51-.13-.79-.19-.27-.07-.55-.12-.87-.18-16.81-2.83-33.58-5.92-50.37-8.89-10.3-1.83-20.61-3.6-30.94-5.25-3.03-.48-8.61,2.67-9.84,5.51-3.7,8.49-5.85,17.68-7.83,24.06l-93.24-16.8,1-5.13,91.51,16.49c.27-1.53.52-3.05.77-4.58l-90.62-16.33c1.69-5.9,2.81-9.77,4.22-14.61l13.98,2.52c22.95,4.11,45.88,8.33,68.84,12.2,3.26.53,6.85-.75,10.26-1.19-.08-1.32-.19-2.66-.3-3.99-29.58-5.34-59.16-10.78-88.8-15.77-2.1-.36-6.35,2.02-6.92,3.95-3.25,10.66-6.2,21.4-9.31,32.8-1.49,5.48-3.01,11.1-4.63,16.96,34.84,4.71,66.78,7.91,98.3,13.59,32.26,5.82,64.07,14.09,96.29,21.32,1.71-6.24,2.81-10.26,4.55-16.7-.37,6.58-.61,10.64-.89,15.26l96.13,17.33,2.91-16.13,1.02-5.69-91.93-16.56c.2-1.41.41-2.8.59-4.21,4.2.3,8.48.25,12.64.93,16.23,2.63,32.43,5.29,48.64,7.98,10.93,1.8,21.87,3.64,32.82,5.45-2.88-2.03-5.56-4.85-8.71-5.46-23.18-4.55-46.44-8.58-69.67-12.77l-12.32-2.22,2.56-14.19,94.41,17.01c.31-.95.49-1.79.53-2.55,0-.19.02-.37.03-.56,0-.04-.01-.07-.02-.09.01-.16.01-.32-.03-.5ZM779.09,342.99c-.31,1.7-.61,3.4-.92,5.1-1.02,5.66-2.03,11.25-3,16.63-33.49-6.04-64.48-11.63-95.47-17.2.05-.62.09-1.23.13-1.83.05-.61.09-1.22.13-1.82h.01c.53-.09,1.07-.17,1.6-.23h.02c.54-.06,1.08-.1,1.63-.13.41-.02.82-.04,1.22-.05.82,0,1.63.01,2.43.05.41.03.81.06,1.22.08.39.03.78.07,1.17.12.4.04.78.09,1.17.14,2.49.33,4.97.83,7.45,1.38.47.1.94.21,1.4.32,1.48.33,2.97.67,4.45.99.48.1.96.2,1.45.29.28.06.54.11.82.16.81.16,1.62.3,2.43.43.27.05.54.09.81.13,2.74.38,5.47.82,8.2,1.27,2.72.45,5.45.93,8.17,1.42,2.72.49,5.44,1,8.18,1.5,2.71.5,5.43,1.01,8.15,1.49,10.32,1.84,20.61,3.71,30.91,5.56h0c.28-1.37.56-2.7.82-4.06l-11.26-2.04c-18.75-3.39-37.5-6.76-56.11-10.11l-22.26-4.01c-.06-1.72-.1-3.26-.11-4.65-.01-.55,0-1.08,0-1.57,0-.06,0-.12,0-.18,0-.92.04-1.75.11-2.5.02-.19.04-.39.06-.58.03-.34.07-.66.13-.97.04-.19.08-.39.11-.56.06-.31.15-.59.23-.86.09-.25.18-.47.27-.69.05-.11.1-.22.16-.31l.11-.19c.23-.37.51-.66.83-.91.08-.06.15-.12.24-.16.08-.05.16-.1.23-.13.34-.18.73-.32,1.17-.41.1-.03.21-.04.32-.06,1.92-.3,4.69.11,8.68.84,15.13,2.77,30.25,5.57,45.36,8.39,12.54,2.33,25.09,4.68,37.64,7.02h.01s-.53,2.92-.53,2.92Z"/>
      <path class="cls-2" d="M666.02,442.41l-.07.39c-29.66-10.17-51.38-16.6-56.24-18.06-19.12-5.69-32.34-9.74-41.89-12.77,12.08,3.53,24.16,7.06,36.19,10.77,20.72,6.41,41.34,13.11,62,19.67Z"/>
      <path class="cls-2" d="M411.01,313.06c-3.73,5.06-5.69,10.08-5.76,15.01-.18-2.11-.02-4.29.61-6.46.95-3.36,2.83-6.17,5.15-8.55Z"/>
      <path class="cls-6" d="M1072.15,545.45l-39.16-7.05-27.97,155.21-5.46,30.33c3.57.17,6.28-.08,8.8.49,13.53,3.02,18.25-3.81,21.34-16.02,4.15-16.31,8.61-32.54,13.17-48.76,4.54-16.13,9.15-32.26,13.62-48.42,5.76-20.76,11.35-41.59,17.41-63.81.14-.52.29-1.04.43-1.58l-2.17-.39ZM1066.96,554.98c-.16.66-.32,1.32-.49,1.97-.78,3.1-1.54,6.18-2.37,9.5-3.33-1.8-5.91-3.32-8.35-4.6-.96-.5-1.89-.96-2.84-1.4-.75-.34-1.45-.65-2.13-.94-.68-.28-1.34-.55-1.97-.79-1.27-.46-2.43-.82-3.48-1.06-.21-.05-.42-.1-.62-.13-.21-.04-.41-.08-.61-.11-.19-.03-.39-.05-.58-.07-.13-.02-.26-.03-.4-.04-.12-.01-.24-.02-.36-.02-.3-.01-.59,0-.86,0-.22.01-.44.03-.65.07-.01,0-.02,0-.02,0-.21.03-.42.06-.62.12-.18.04-.35.09-.52.14-.06.02-.12.05-.18.06-.17.06-.33.13-.47.2-.19.08-.36.17-.54.28-.13.07-.25.16-.37.24-.1.07-.19.13-.29.22-.11.08-.21.16-.32.26-.48.42-.92.94-1.32,1.55-.09.14-.18.27-.26.41-.09.15-.18.29-.26.45-.16.3-.33.61-.48.96-.23.51-.46,1.05-.67,1.64,0,0,0,0,0,.01-.14.39-.27.8-.41,1.23-.53,1.72-.99,3.76-1.42,6.11-1.75,9.67-3.5,19.35-5.24,29.04-1.75,9.68-3.49,19.36-5.23,29.05-3.49,19.36-6.99,38.73-10.51,58.07-.25,1.37-.53,2.72-.91,4.07-.23.82-.49,1.63-.79,2.43-.47,1.24-1.03,2.45-1.74,3.64-.11.19-.23.38-.35.56-.12.19-.24.38-.36.55-.29.43-.61.86-.96,1.29.37-2.04.73-4.07,1.1-6.1,6.73-37.37,13.47-74.75,20.23-112.27l7.15-39.63h0s33.2,5.97,33.2,5.97h0c-.1.42-.2.82-.3,1.22-.49,2.02-.97,3.93-1.45,5.83Z"/>
      <path class="cls-6" d="M554.04,324.45c5.59,1.07,11.19,2.04,19.33,3.5l-1.22,6.77-11.7,64.89-1.41,7.85c-20.7-7.52-42.64-15.05-64.11-23.73-3.87-1.56-7.69-7.63-8.27-12.07-1.75-13.33-1.2-26.41,1.65-39.04,1.64-7.3,4.05-14.43,7.22-21.39.93-2.03,1.91-4.04,2.97-6.04,2.29-4.31,9.19-8.59,14.08-8.73,22.66-.67,45.37.14,68.08.42.2,1.73.4,3.47.6,5.2-3.91.6-7.85,1.78-11.71,1.66-18.68-.56-37.32-1.67-55.99-2.1-4.15-.09-8.34,1.83-12.54,2.82.23,1.07.45,2.15.68,3.22,5.72.71,11.42,1.41,17.14,2.11.01,1.47.01,2.92.02,4.39-4.39.13-8.76.28-13.57.45-1.07.03-2.17.07-3.28.11,4.16,1.1,7.73,2.05,13.09,3.48-9.32,17.24-11.06,35.04-7.15,53.89,1.7,8.26,4.96,12.64,12.86,14.85,6.83,1.93,13.35,5.04,20.98,8.02,1.09-10.54,2.55-19.52-10.13-23.26-2.63-.77-5.43-5.15-5.95-8.22-.98-5.93-1.07-12.23-.29-18.2,1.64-12.23,4.1-18.59,9.87-21.03,4.19-1.77,10.11-1.46,18.73.17Z"/>
      <path class="cls-6" d="M1052.98,345.96c-10.31-.85-20.5-.99-30.21.88-6.31,1.21-12.43,3.27-18.25,6.56t-.02.01c-3.05,1.72-6.01,3.78-8.89,6.21-1.89,1.6-3.47,3.4-4.74,5.34-2.73,4.14-4.04,8.88-3.97,13.56.1,7.7,3.91,15.23,11.23,19.55,29.56,17.46,62.84,19.31,93.03,23.52l5.27-29.26,5.65-31.3,1.73-9.64c-16.93-1.84-33.87-4.01-50.85-5.42ZM1088.34,412.77c-.09.41-.17.83-.25,1.23-.05.3-.12.6-.18.91h-.01s-72.43-13.05-72.43-13.05c.15-.72.28-1.44.43-2.15h0s72.44,13.05,72.44,13.05h0ZM1092.96,373.66c-.22.78-.44,1.56-.66,2.34-.41,1.46-.83,2.92-1.24,4.38-.31,1.12-.63,2.23-.94,3.35h0c-.9-.31-1.78-.64-2.67-.97-.89-.31-1.77-.65-2.66-.98-2.66-.99-5.31-2-7.96-3.02-.88-.34-1.76-.68-2.65-1.01-1.76-.68-3.54-1.35-5.31-2-.89-.33-1.77-.66-2.66-.98-.89-.32-1.77-.65-2.66-.96-.81-.3-1.63-.59-2.45-.86-.74-.26-1.48-.51-2.23-.76-1.11-.38-2.23-.75-3.35-1.11-.68-.21-1.35-.43-2.02-.63-.67-.2-1.34-.41-2.02-.61s-1.35-.4-2.03-.59c-.68-.19-1.36-.38-2.04-.56-.73-.2-1.46-.39-2.19-.57-.63-.17-1.26-.31-1.88-.47-.16-.05-.34-.09-.51-.12-.68-.15-1.36-.32-2.04-.47l-2.24-.48c-6.54-1.4-13.29-2.5-20.39-3.65-5.29-.86-10.79-1.73-16.55-2.77.76-.38,1.52-.75,2.28-1.1.76-.35,1.51-.7,2.27-1.02,1.51-.65,3.02-1.26,4.53-1.81.38-.14.75-.27,1.13-.41.38-.13.75-.26,1.13-.39,1.51-.51,3.01-.96,4.51-1.38.75-.2,1.5-.41,2.25-.59.38-.09.75-.17,1.13-.26s.76-.17,1.13-.25c1.86-.42,3.73-.76,5.6-1.05,1.48-.23,2.96-.43,4.45-.59.37-.04.75-.08,1.13-.11,2.74-.27,5.47-.44,8.21-.49h.13c.6-.03,1.21-.03,1.81-.03.64,0,1.27-.01,1.9,0,.58,0,1.15,0,1.73.02.08,0,.16,0,.24,0,2.5.04,5,.16,7.51.34.63.04,1.26.08,1.88.14.63.05,1.27.09,1.9.15,1.26.1,2.51.22,3.77.36.63.07,1.26.13,1.89.2,1.26.13,2.51.28,3.76.44,6.92.83,13.82,1.83,20.72,2.68,1.24.15,2.48.31,3.73.44,1.33.15,2.65.3,3.98.42.56.06,1.11.12,1.66.17h.01c-.62,2.22-1.24,4.38-1.83,6.49-1.1,3.84-2.14,7.55-3.18,11.18Z"/>
      <path class="cls-6" d="M1024.31,459.14c-14.54-1.4-29.47.91-44.18,2.15-2.86.24-7.31,2.72-7.91,5.01-.41,1.53-.84,3.07-1.25,4.62-2.81,10.65-4.83,21.6,5.14,30.53,7.84,7.03,15.67,15.5,25.13,19.02,22.02,8.21,45,13.8,68.41,20.69l6.24-34.63,6.72-37.31c-17.92-3.23-37.97-8.13-58.3-10.07ZM1061.02,530.43c-2.52-.28-5.03-.59-7.53-.94-1.25-.18-2.49-.37-3.74-.57-1.24-.19-2.48-.41-3.73-.62-1.65-.29-3.3-.6-4.95-.95-1.23-.24-2.46-.51-3.69-.78-1.23-.27-2.45-.56-3.67-.87-1.21-.3-2.41-.6-3.61-.94-.77-.2-1.53-.41-2.28-.63-.12-.03-.25-.07-.37-.1-.75-.21-1.5-.43-2.25-.66-1.21-.37-2.42-.74-3.62-1.14-1.01-.33-2.01-.66-3.01-1.02-.94-.32-1.86-.66-2.8-1.01-.14-.04-.28-.1-.41-.15-.65-.25-1.3-.49-1.95-.75-.42-.16-.84-.33-1.26-.49-2.17-.87-4.32-1.79-6.46-2.78-.66-.3-1.31-.6-1.98-.92-.38-.17-.76-.35-1.14-.54-2.55-1.23-5.09-2.55-7.62-3.97-.58-.32-1.17-.65-1.75-.99-1.57-.9-3.15-1.85-4.72-2.83,9.34,2.91,18.45,5.75,27.4,8.54,5.7,1.78,11.34,3.54,16.93,5.27.4.13.8.25,1.2.38,3.99,1.25,7.97,2.48,11.93,3.71,6.74,2.1,13.44,4.19,20.13,6.27-1.69-.16-3.38-.33-5.06-.52ZM1075.8,480.07c-.33.91-.66,1.8-.97,2.69-1.21,3.3-2.36,6.44-3.43,9.4-.18.49-.36.98-.53,1.46-.7,1.93-1.36,3.77-2,5.51h0c-3.52-1.35-7.02-2.72-10.52-4.08-5.51-2.14-10.98-4.26-16.44-6.37-13.62-5.3-27.08-10.52-40.29-15.65-5.04-1.95-10.04-3.89-15-5.82.16-.18.34-.35.55-.51.1-.09.2-.16.31-.24.29-.23.61-.44.96-.64.08-.05.16-.09.23-.13.18-.11.36-.21.56-.29.18-.1.36-.19.56-.27,1.64-.75,3.7-1.36,6.1-1.82.44-.1.89-.17,1.35-.25.44-.08.9-.15,1.36-.21.04-.01.08-.01.11-.02.46-.08.94-.13,1.42-.18.88-.11,1.81-.2,2.75-.27,1.78-.14,3.66-.23,5.64-.27.61-.01,1.24-.03,1.88-.02h.01c1.26-.01,2.55,0,3.88.05,2.68.06,5.49.2,8.4.43.62.05,1.25.09,1.87.16.43.03.86.06,1.3.11.65.06,1.31.13,1.97.2,3.52.36,7.17.83,10.88,1.42.64.1,1.29.2,1.93.32,3.39.56,6.83,1.21,10.3,1.96,1.6.33,3.21.7,4.82,1.08,5.77,1.36,11.58,2.98,17.27,4.85.82.26,1.63.52,2.45.81.81.27,1.61.55,2.42.83h0c-.71,1.97-1.41,3.89-2.1,5.77Z"/>
      <path class="cls-6" d="M1293.39,288.99c.01.21.01.41.02.62.05,1.48.12,2.97.18,4.45-9.93.67-19.84,1.41-29.78,2.01-4.57.27-9.17.59-13.71.37-6.69-.28-8.75,2.43-7.48,8.2h0c.19.85.45,1.75.77,2.71,1.18-.04,2.36-.08,3.54-.12,14.73-.49,29.77-.98,44.96-1.48,2.91,8.12.48,10.91-7.53,10.27-9.03-.72-18.07-1.23-27.12-1.74-5.24-.29-10.49-.58-15.74-.89-.14,1.44-.26,2.87-.41,4.31,7.64.54,15.29,1.09,23.16,1.66,9.39.68,19.11,1.38,29.53,2.13-.78,2.91-1.54,5.79-2.31,8.63-4.03,15.03-7.84,29.33-12.04,45.03-16.66-10.06-31.3-18.9-45.97-27.74-.77,1.12-1.55,2.27-2.31,3.39,14.69,9.49,29.4,19.02,44.08,28.51-.46,1.15-.94,2.27-1.41,3.43-2.74-.8-5.9-.97-8.15-2.47-10.11-6.83-19.84-14.22-29.99-20.97-2.43-1.62-5.99-1.54-9.03-2.23-.49,1.33-.99,2.69-1.52,4.04,13.67,9.86,27.3,19.76,41.61,30.09-7.97,2.22-30.47-12.3-46.61-28.94,9.02-19.63,14.5-39.98,15.41-61.24.24-5.76.16-11.59-.29-17.49-.15-2.01,1.38-5.56,2.87-6,15.35-4.78,30.85-9.09,46.29-13.5.29.98.55,1.96.82,2.94-15.52,4.54-31.03,9.08-47.14,13.79,1.51,4.06,2.86,7.78,4.29,11.63,17.1-.13,33.88-4.74,50.68-3.41.11,0,.22,0,.33.02Z"/>
      <path class="cls-6" d="M1241.22,579.56c.06,1.49.1,2.96.16,4.45,0,.11,0,.22,0,.33-16.45,1.07-32.89,2.12-50.44,3.27-.37,2.83-.77,5.97-1.32,10.18,16.97-.58,33.19-1.17,50.49-1.78.17,3.36.3,6.48.46,10.43-13.94-.67-27.29-1.31-40.54-1.94-3.56-.16-7.11-.34-10.67-.52-.07,1.3-.16,2.58-.25,3.87,5.84.47,11.68.94,17.63,1.43,10.97.88,22.28,1.8,34.54,2.78-1.02,3.89-2.04,7.72-3.04,11.52-3.66,13.83-7.24,27.3-11.12,41.98-16.64-10.01-31.25-18.82-45.87-27.6-.78,1.21-1.57,2.4-2.35,3.6,14.59,9.25,29.18,18.51,43.79,27.77-.29,1.11-.58,2.22-.87,3.33-2.64-.47-5.79-.2-7.83-1.57-10.49-6.96-20.55-14.55-31.05-21.46-2.36-1.54-5.9-1.23-8.89-1.77-.38,1.26-.8,2.52-1.18,3.75,13.62,9.87,27.25,19.7,41.77,30.21-8.63,2.01-22.04-6.55-47.13-28.73,8.84-18.93,14.08-38.2,15.36-58.71.53-8.37.4-16.94-.41-25.79,16.29-4.68,32.98-9.52,49.68-14.34.32,1.06.63,2.09.92,3.15-15.4,4.42-30.82,8.86-46.21,13.29.11,9.96,4.12,13.16,13.6,11.49,10.47-1.86,21.21-2.28,31.87-3.11,2.32-.19,4.68.1,7.03.34.62.06,1.25.11,1.86.15Z"/>
      <path class="cls-6" d="M1102.55,153.64l-9.34,51.78-11.88,65.93-12.77,70.87c14.29,1.74,27.45,3.32,41.76,5.06,2.29-26.72,4.54-53.27,6.8-79.77,2.39-28.03,4.78-56.01,7.17-84.08.61-7.06,1.21-14.12,1.82-21.19-8.06-2.94-15.45-5.65-23.56-8.61ZM1110.68,290.27c-.34,3.76-.66,7.49-.98,11.21-.21,2.48-.43,4.95-.65,7.41-.11,1.24-.22,2.46-.32,3.7-.43,4.92-.86,9.83-1.29,14.77-.22,2.46-.43,4.94-.65,7.41-.21,2.48-.43,4.97-.64,7.46h-.01c-4.44-.43-8.75-.85-13-1.26-2.62-.26-5.21-.51-7.82-.77-.41-.04-.81-.09-1.22-.12-2.64-.25-5.27-.5-7.94-.77-1.43-.13-2.87-.27-4.32-.42l12.14-67.37,12.16-67.47,4.35-24.1c.77.11,1.52.2,2.28.32-1.35,7.5-2.71,14.99-4.05,22.5-4.12,22.89-8.25,45.82-12.42,68.88-.18,1.06-.38,2.11-.57,3.17.97.3,1.9.59,2.81.87,3.97,1.21,7.53,2.3,10.89,3.35,4.15,1.27,7.99,2.45,11.92,3.65-.22,2.53-.43,5.06-.66,7.56Z"/>
      <path class="cls-2" d="M815.61,560.55c-3.29-6.47-6.02-12.1-9.75-18.92,4.29,2.73,7.26,11.8,9.75,18.92Z"/>
      <path class="cls-6" d="M932.69,359.67c-13.03-2.34-25.96-4.72-38.84-7.31l-.66-.11c-.47-.08-.93-.14-1.38-.21-.11-.01-.2-.03-.29-.02-.47-.08-.96-.13-1.4-.13-.11-.02-.2-.02-.32-.01-.34-.02-.7-.01-1.05,0-.32-.01-.62.02-.93.06-.31.02-.59.05-.89.12-.26.02-.5.07-.75.14-.55.12-1.07.28-1.57.5-.47.19-.91.42-1.34.7l-.32.22c-.13.07-.23.14-.32.22-.26.17-.51.37-.73.59-.25.22-.5.45-.71.7-.25.24-.47.5-.68.78-.21.26-.42.55-.64.86-.23.31-.42.62-.62.96-.12.18-.25.37-.36.59l.41-.58c-1.9,5.9-3.82,11.77-5.7,17.69-.04.11-.07.25-.11.36l.34-.31-2.24,12.39-2.9,16.1,94.81,17.09,2.84-15.72,6.93-38.45c-13.69-2.47-27.19-4.81-40.56-7.22ZM883.21,360.67c.14-.55.27-1.1.41-1.67l83.83,15.11-2.37,13.18c-28.58-5.16-56.23-10.14-84.57-15.25.27-1.13.53-2.24.78-3.32.65-2.71,1.27-5.3,1.92-8.05ZM964.85,394.75c-.85.7-1.64,1.42-2.35,2.06-.56.5-1.08.95-1.54,1.29-.12.09-.22.16-.33.23-.1.07-.2.12-.29.18-.1.05-.2.1-.29.15-.11.05-.22.08-.32.11-.19.05-.37.07-.54.05-.04,0-.07,0-.1,0-10.19-1.94-20.37-3.91-30.54-5.93-16.95-3.34-33.88-6.79-50.81-10.21-.11-.03-.14-.53-.19-.89,0-.05-.01-.09-.02-.13.05-.04.1-.09.15-.12.17-.11.37-.2.61-.31h0c.24-.09.51-.18.82-.26h0c.21-.05.43-.1.67-.14s.49-.09.76-.12c1.06-.15,2.35-.24,3.83-.26.27,0,.55-.01.84-.02,3.41-.04,7.74.17,12.66.62.38.03.75.07,1.14.1,2.12.19,4.34.42,6.65.7.9.1,1.82.21,2.74.33h0c1.85.24,3.74.49,5.66.75h0c.96.14,1.92.28,2.9.42,1.46.21,2.95.43,4.45.68,1.24.19,2.48.41,3.73.61,1.24.21,2.49.43,3.74.65t0,0c2.63.47,5.25.96,7.85,1.47.87.16,1.73.34,2.59.52.98.2,1.95.41,2.92.61h0c1.45.31,2.89.64,4.31.95.47.1.94.21,1.41.33.94.23,1.87.44,2.78.66.92.22,1.82.44,2.71.68,1.68.43,3.3.87,4.88,1.3,1.57.44,3.09.89,4.54,1.33.48.15.96.31,1.43.46.47.16.93.3,1.39.46-.3.23-.59.46-.88.69Z"/>
      <path class="cls-6" d="M1011.11,531.33l-28.09,155.85-5.91,32.83,17.16,3.09,2.54-14.03c.98-5.43,1.96-10.87,2.94-16.31,8.63-47.9,17.24-95.79,25.9-143.69q2.76-15.34-14.54-17.74ZM1019.89,555.3s-.01,0-.02,0c-.35-.11-.68-.21-1.01-.32-.42-.14-.81-.27-1.18-.39-.74-.25-1.41-.49-2.01-.73-1.53-.61-2.57-1.23-3.21-2.09-.1-.11-.16-.22-.23-.34-.09-.15-.17-.29-.23-.45-.07-.18-.13-.38-.18-.58-.04-.13-.06-.26-.08-.4-.04-.22-.07-.45-.08-.69,0-.17,0-.35,0-.53,0-.23.01-.46.03-.72.01-.16.02-.32.04-.5.02-.21.05-.44.08-.67.03-.2.06-.42.1-.63.13-.77.3-1.65.53-2.63.13-.55.27-1.13.42-1.76.1-.39.2-.8.31-1.22.11-.42.22-.85.33-1.3.23-.9.48-1.86.76-2.89,2.72.28,5.54.58,8.86.92h.01s-3.22,17.92-3.22,17.92Z"/>
      <path class="cls-6" d="M484.88,307.23c1.96.24,3.91.47,6.05.71l-.27,1.5-5.3,29.45-.3,1.66-5.64,31.29-.69,3.85c-20.36-3.33-47.71-21.92-47.97-34.83,5.92,1.96,9.54,1.43,11.83-.58,3.27-2.84,3.84-8.65,4.52-14.41.92-7.94.98-7.93-13.36-12.33,3.61-4.17,5.86-9.29,8.87-9.8,8.95-1.56,17.95-2.82,26.96-3.98,8.47-1.1,16.96-2.12,25.45-3.22.24,1.47.52,2.92.77,4.36-5.16,1.16-10.33,2.31-17.02,3.79-1.66.38-3.43.76-5.3,1.17,4.6.55,8.03.97,11.42,1.36Z"/>
      <path class="cls-6" d="M1045.5,340.77c5.87.15,10.76.26,16.74.41l33.98-188.54-16.29-2.94-34.44,191.06ZM1060.62,330.2c-.57,2.76-4.46,4.83-6.82,7.2-1.23-.78-2.47-1.56-3.7-2.34,3.43-19.04,6.66-38.12,10.6-57.02.36-1.75,5.25-2.52,10.44-4.83-3.93,21.79-6.86,39.46-10.53,56.99Z"/>
      <path class="cls-6" d="M1193.54,466.73c-6.04-.21-12.17.08-18.17-.64-46.54-5.78-93.15-11.25-139.56-17.89-18.05-2.58-35.46-8.54-53.46-22.38,9.59-1.35,20.06-4.82,21.38-2.67,5.34,8.74,13.47,5.56,20.05,6.83,46.82,9.05,93.77,17.39,140.61,26.31,9.94,1.88,19.62,5.16,29.14,10.44Z"/>
      <path class="cls-2" d="M723.84,463.6l-.06.34c-1.67-.65-3.35-1.31-5.01-1.93,1.71.54,3.37,1.07,5.07,1.59Z"/>
      <path class="cls-6" d="M1070.56,150.86c-13.11,1.01-26.26,2.9-39.36,2.83-19.49-.09-35.52,7.31-50.21,19.18-36.49,29.45-73.28,58.55-109.55,88.26-2.73,2.22-5.45,4.45-8.17,6.69-32.71,26.94-67.46,46.78-112.16,42.91-20.07-1.73-40.42.01-60.62-.35-6.13-.12-12.23-2.06-18.18-4.47,23.39,0,46.87-1.47,70.11.29,47.91,3.65,86.47-14.63,121.87-45.09,1.6-1.38,3.2-2.75,4.81-4.11h0c35.26-30.11,71.99-58.53,108.17-87.54,15.79-12.67,32.87-21.75,54.34-20.28,12.77.85,25.7-.61,38.57-1.02.12.91.26,1.79.38,2.7Z"/>
      <path class="cls-6" d="M1332.81,312.15c.23,3.71.3,7.38.2,10.99-.45,17.04-4.56,32.94-12.47,47.9-2.22,4.19-7.29,6.88-11.04,10.26-3.69-4.51-9.1-8.48-10.71-13.65-5.16-16.48,1.36-31.31,9.34-45.44,1.59-2.81,2.89-5.02,4.12-6.73,4.33-6.05,7.79-5.75,20.57-3.33Z"/>
      <path class="cls-6" d="M1280.48,602.76c.26,4.55.29,9.03.07,13.48-.81,16.42-5.03,32.09-13.38,46.76-2.02,3.57-7.7,8.86-9.39,8.11-4.33-1.94-9.02-6.17-10.65-10.56-5.68-15.42-.72-29.73,6.3-43.76,1.4-2.78,2.8-5.47,4.4-7.83,4.62-6.89,10.75-10.96,22.64-6.2Z"/>
      <path class="cls-6" d="M968.3,718.07c-6.92-2.69-13.69-5.99-20.81-7.94-30.49-8.43-51.26-27.24-66.41-55.08-20.98-38.53-44.44-75.73-66.87-113.48-19.02-31.96-37.59-64.38-76.2-77.51,23.78,4.47,42.52,17.15,55.42,37.04,19.92,30.74,38.76,62.18,57.91,93.45,14.73,24.1,29.85,48.01,43.6,72.68,11.22,20.1,28.49,30.99,49.27,38.21,8.48,2.95,16.68,6.71,24.09,12.63Z"/>
      <path class="cls-6" d="M1198.76,293.46c3.38,5.15,6.04,9.15,8.9,13.51-1.94.32-4.58.76-7.1,1.16-3.12,21.92-5.28,30.33-9.61,30.92,3.23,2.15,5.35,3.56,8.75,5.8-3.6.03-6.14-.48-8.29.23-1.9.61-3.38,2.56-5.38,4.2,2.85,1.77,5.11,3.18,7.38,4.58-.21.48-.42.93-.65,1.4l-10.26-1.85,11.13-61.77,3.08-17.1,9.7,1.75c-.01.46-.04.95-.05,1.44-2.32.28-4.63.59-10.02,1.29,5.23,5.25,8.94,9,13.11,13.19-1.17.13-2.35.27-3.73.43-1.8.21-3.97.46-6.98.81Z"/>
      <path class="cls-6" d="M1224.03,296.59c-1.18.2-2.55.43-4.17.72,2.76,4.72,5.13,8.77,7.82,13.36-1.4.29-4.16.84-9.62,1.93,15.32,5.62,8.66,15.17,6.49,22.78-1.01,3.5-6.64,5.66-10.76,8.91.81.57,3.04,2.11,5.2,3.62-3.84,1.01-7.73,2.03-14.08,3.68,4.61,3.09,6.76,4.51,8.9,5.94-.17.45-.37.91-.56,1.34l-10.18-1.83,11.35-62.93,2.87-15.92,12.95,2.34c-5.57,1.14-7.84,1.62-12.88,2.66,4.82,4.93,8.33,8.47,12.22,12.44-1.43.24-3.08.53-5.55.97Z"/>
      <path class="cls-6" d="M1154.73,597.42c-1.52.31-4.32.86-10.73,2.16,15.46,4.77,10.6,13.54,8.13,20.64-1.37,4.01-6.01,6.88-9.89,11.05,0,.02,1.22.96,2.71,2.14.35.27.72.55,1.09.85.16.12.33.24.48.37-4.59,1.15-8.73,2.18-12.87,3.2.03.94.05,1.87.09,2.79,2.43,1.19,4.87,2.35,7.29,3.53-.09.47-.2.97-.29,1.46l-10.6-1.91,10.59-58.76,3.58-19.85,8.06,1.45c-7.9,4.89-6.9,8.26,6.08,15.65-3.79.74-6.47,1.24-11.66,2.23l.57.94c2.61,4.26,4.88,7.99,7.36,12.07Z"/>
      <path class="cls-6" d="M1161.46,647.79c-.17.55-.31,1.09-.45,1.64l-10.31-1.86.82-4.54c.3.14.58.29.84.41.25.14.49.26.7.33.54.26,1.05.52,1.52.74.53.26,1.03.49,1.5.71,2.34,1.1,3.86,1.83,5.38,2.56Z"/>
      <path class="cls-8" d="M1151.62,642.49l-.1.54c-.22-.09-.45-.2-.68-.32.27-.07.54-.15.78-.23Z"/>
      <path class="cls-6" d="M1176.25,600.91c-2.42.4-5.28.87-11.56,1.87,15.84,5.68,10.05,15.14,7.61,22.8-1.16,3.59-6.62,5.82-10.49,8.97.76.5,2.96,1.9,5.46,3.52-2.01.57-3.97,1.12-6.14,1.73-.98.29-2.01.57-3.09.89-1.23.34-2.53.71-3.95,1.11-.39.11-.8.23-1.2.34-.42.11-.83.25-1.27.35l9.93-55.11,3.39-18.82,8.87,1.59c-2.06,1.75-5.78,4.57-5.59,4.84,2.38,3.71,5.34,7.09,8.14,10.52-1.22,1.07-3.96,2.47-5.52,4.25-.58.65-.99,1.35-1.12,2.1-.41,2.39,3.87,5.57,6.55,9.03Z"/>
      <path class="cls-6" d="M1141.12,490.94l-4.22,23.45-2.22,12.33c-5.05-5.71-8.08-9.96-11.97-13.2-3.41-2.83-7.58-5.51-11.82-6.41-5.79-1.21-11.94-.69-18.58-.95-.07-.52-.14-1.04-.21-1.54-1.04-8.19-.54-13.97,11.49-11.82,5.78,1.04,11.92,1.1,18.31-1.59,5.4-2.29,12.57-.34,19.22-.26Z"/>
      <path class="cls-6" d="M1135.15,593.45c-2.39.51-5.18,1.08-7.96,1.64,11.28,4.37,7.36,12.56,4.99,19.13-1.71,4.73-5.9,8.56-9.74,13.83.15.1.41.31.81.59.14.09.33.24.54.37.67.5,1.52,1.12,2.43,1.77-4.63,1.35-8.91,2.6-13.16,3.87.16.84.31,1.68.46,2.5,2.36,1.01,4.73,2.03,7.09,3.03-.07.55-.16,1.07-.25,1.59l-10.76-1.94,9.87-54.77,3.65-20.22c4.59,4.81,8.67,9.13,12.51,13.18-2.04,1.64-6.79,3.7-7.2,6.37-.02.14-.02.28-.02.42.14,2.38,4.16,5.38,6.77,8.63Z"/>
      <path class="cls-6" d="M1186.35,303.2c-1.14.3-3.84,1.03-9.49,2.53,14.02,3.69,10.11,11.77,7.62,18.35-1.75,4.67-5.93,8.43-9.87,13.78.45.34,1.89,1.4,3.19,2.34-4.88,1.88-9.96,3.8-15.21,5.81l9.77-54.23,3.83-21.26c2.03.25,5.82.71,9.61,1.15.05.73.11,1.45.16,2.17-2.19.3-4.4.61-9.72,1.37,4.59,5.14,8,8.97,12.15,13.61-2.1.13-4.52.3-9.78.64.4.72.81,1.42,1.19,2.1,2.33,4.15,4.31,7.67,6.56,11.64Z"/>
      <path class="cls-6" d="M1113.72,589.96c-1.78.33-4.35.8-6.59,1.19,10.67,13.68,6.69,23.15-6.1,32.39.29.24,2.2,1.77,4.27,3.45-5.17,1.7-10,3.3-16.31,5.36,1.49-5.07,3.37-10.07,4.44-15.23,2.21-10.66,4.37-21.32,6.1-32.05.21-1.27.41-2.56.6-3.83,2.03-13.28,2.45-13.68,16.14-7.24-3.52,2.21-8.78,4.6-8.54,5.54.51,2.01,1.6,3.88,2.89,5.8.98,1.48,2.08,2.98,3.1,4.62Z"/>
      <path class="cls-6" d="M1166.74,299.31c-2.18.57-4.67,1.19-9.45,2.42,12.29,4.64,9.26,12.59,6.32,19.54-1.86,4.39-6.03,7.78-10.13,12.82,0,0,2.09,1.2,6.52,3.74-4.67-.19-7.65.53-8.6-.53-2.43-2.69-5.86-6.43-5.47-9.32,1.54-12.14,4.13-24.14,6.24-36.23.25-1.45.49-2.89.73-4.34.87-5.34.76-10.83,1.2-17.62,4.98,5.7,8.77,9.99,12.56,14.3-1.47,1.16-6.46,3.31-6.56,5.64-.03.77.24,1.54.7,2.34,1.24,2.19,3.93,4.53,5.94,7.22Z"/>
      <path class="cls-6" d="M1160.29,384.89l-5.09,28.28-1.1,6.05c-5.21-1.64-10.15-3.27-15.12-4.73-6.48-1.87-7.6-6.57-6.15-10.91.28-.85.66-1.68,1.12-2.48,2.62-4.56,7.77-7.96,12.41-10.92,3.73-2.36,8.34-3.25,13.93-5.3Z"/>
      <path class="cls-2" d="M802.49,531.63c-.16.77-.34,1.5-.5,2.27l-.58-.11c-.5-.86-1.02-1.72-1.58-2.64l2.66.48Z"/>
      <path class="cls-6" d="M1122.42,475.27c-.98,1.05-1.93,2.1-2.91,3.13-10.89-4.32-21.78-8.62-32.69-12.95.28-.98.54-1.98.81-2.96.1-.39.21-.78.32-1.17.3.03.61.06.91.09,9.22.9,18.59,1.22,27.55,3.34,2.68.63,4.04,6.86,6.01,10.52Z"/>
      <path class="cls-6" d="M1129.23,431.22c-10.6,15.76-23.72-3-35.16.68-.13-1.45-.24-2.91-.35-4.35,11.46-.76,22.91-1.51,34.39-2.26.37,1.98.73,3.94,1.13,5.93Z"/>
      <path class="cls-2" d="M791.49,515.88l-.24,1.32c-.32-.52-.64-1.04-.95-1.54l1.19.22Z"/>
      <polygon class="cls-6" points="444.98 319.71 441.5 339.01 441.49 339.01 430.22 336.97 431.84 328.01 433.69 317.69 444.98 319.71"/>
      <path class="cls-6" d="M1133.46,396.88l-1.19,6.57-1.06,5.88c-4.41-2.18-8.22-4.4-12.29-5.97-.19-.07-.37-.14-.55-.21-9.17-3.56-9.13-3.64-5.21-14.15,6.7,2.61,13.43,5.22,20.29,7.88Z"/>
      <path class="cls-6" d="M1104.43,513.57l-3.34,18.52c-5.98-4.04-10.97-7.36-15.93-10.7.22-1.2.4-2.39.62-3.6,5.83-1.32,11.66-2.63,18.65-4.23Z"/>
      <path class="cls-6" d="M1151.37,484.77l-4.68,25.97-4.71,26.11c-.63-.12-1.29-.21-1.92-.33l4.4-24.42,4.99-27.67,1.93.34Z"/>
      <polygon class="cls-6" points="1170.43 378.99 1164.73 410.67 1161.05 431.1 1159.1 430.76 1162.53 411.74 1168.5 378.64 1170.43 378.99"/>
      <path class="cls-6" d="M1096.79,539.58c.12,1.25-1.57,3.45-2.94,3.99-6.14,2.51-15.69-3.29-17.87-12.35,6.77,1.23,12.37,1.93,17.76,3.41,1.45.4,2.86,3.15,3.05,4.96Z"/>
      <path class="cls-6" d="M1128.99,371.64c-.31,6.65-.37,8.9-.56,11.13-.14,1.44-.49,2.87-1.32,7.45-6.14-4.83-10.89-8.58-15.64-12.32,5.13-1.82,10.28-3.67,17.53-6.25Z"/>
      <path class="cls-6" d="M1129.03,360.65c0,.57-.12,1.06-.34,1.38-1.04,1.47-3.39,2.28-5.32,2.75-1.36.33-2.99-.36-4.5-.63l-10.97-1.97-.45-.09-.95-.17c.62-.89,1.35-1.7,2.17-2.43,5.79-5.23,15.86-6.38,19.26-2.59.71.79,1.16,2.45,1.1,3.74Z"/>
      <path class="cls-6" d="M1092.94,596.96c-1.21,6.88-3.1,13.64-4.75,20.45-1.71-.22-3.42-.46-5.12-.66.58-7.26.94-14.53,1.98-21.7.18-1.27,3.42-3.1,4.96-2.84,1.26.2,3.21,3.28,2.94,4.75Z"/>
      <path class="cls-6" d="M969.76,439.6l-5.5,30.52c-.81-.1-1.64-.2-2.48-.31l5.5-30.5c.84.1,1.67.19,2.49.29Z"/>
      <path class="cls-6" d="M574.41,317.68c-.15,1.74-.3,3.49-.48,5.23-6.72-.82-13.45-1.61-20.2-2.43.14-1.7.29-3.4.41-5.12,6.76.77,13.51,1.55,20.27,2.32Z"/>
      <path class="cls-6" d="M1145.45,305.63c-.79,5.68-2.38,11.27-3.67,16.88-1.16-.03-2.31-.07-3.48-.09-.35-5.93-.96-11.85-.81-17.76.03-1.22,3.05-3.52,4.35-3.31,1.47.26,3.81,2.95,3.61,4.28Z"/>
      <path class="cls-1" d="M373.56,392.61s-.03.16-.09.22l-.47-.09c.2-.06.37-.1.56-.13Z"/>
      <path class="cls-9" d="M1073.03,574.64c-2.38,22.75-8.39,30.7-28.58,81.03-.56,1.38-1.08,2.71-1.58,3.97-8.88,22.26-10.12,26.4-16.2,30.09-4.8,2.91-10.35,4.15-16.22,4.17-.77.01-1.53,0-2.31-.05-1.02-.04-2.07-.13-3.1-.25-1.75-.2-3.51-.48-5.27-.85-5.63-1.17-11.31-3.14-16.73-5.58-2.42-1.09-4.8-2.27-7.08-3.5-4.41-2.39-8.49-5-12.05-7.59-19.99-14.59-23.5-29.06-48.31-80.91-24.65-51.52-37.29-77.59-53.04-93.42-17.87-17.96-37.75-29.15-51.86-36.34h-.01c-2.58-1.33-4.95-2.51-7.1-3.58h-.01s-.01,0-.01,0c-.01,0-.02,0-.02,0-6.28-3.11-10.49-5.23-11.44-6.79-.22-.33-.27-.65-.15-.94.84-2.08,9.15.11,37.43,5.58,41.18,7.98,61.77,11.97,76.7,13.82,10.19,1.27,17.33,2.75,31.58,5.7,12.79,2.64,16.14,3.76,19.9,5.91,5.54,3.17,6.52,5.47,19.71,19.86,12.92,14.09,15.7,15.96,17.87,17.2,5.77,3.32,7.37,2.42,22.16,6.32,17.81,4.7,16.46,6.26,33.03,10.61,13.98,3.67,18.59,3.54,21.83,6.35.43.37.84.8,1.24,1.3.17.22.35.44.5.67,4.53,6.61.29,16.18-.87,27.22Z"/>
      <path class="cls-3" d="M977.3,388.5c-1.01,6.29-1.66,10.02-4.7,13.14-1.89,1.92-4.11,3.03-6.28,3.7-2.31.7-4.54.9-6.22,1.03-10.97.87-19.72-3.95-20.86-4.56-4.62-2.5-26.26-6.65-67.68-13.95-.85-.15-1.71-.31-2.58-.45-11.6-2.05-24.69-4.33-39.34-6.88-131.89-22.98-219.23-37.18-219.23-37.18,0,0-11.98-1.96-34.09-7.56-1.35-.34-2.74-.69-4.17-1.07-10.36-2.69-22.7-6.12-36.84-10.44-8.39-2.56-17.42-5.44-27.06-8.66-1-.34-1.98-.67-2.94-.99-3.55-1.2-6.8-2.34-9.77-3.4-1.72-.62-3.35-1.21-4.88-1.79-2.09-.77-4.01-1.5-5.78-2.21-2.29-.9-4.32-1.75-6.11-2.54-4.42-1.95-7.4-3.56-9.19-4.93-1.65-1.25-2.31-2.28-2.14-3.16.72-3.94,17.66-3.91,30.95-3.74,90.96,1.17,133.7,7.79,133.7,7.79,48.96,7.59,48.56,9.36,94.59,17.11,1.51.25,3.07.52,4.67.78,66.33,10.99,131.4,31.82,198.53,35.78.02,0,.06,0,.1,0h.02c1.73.1,17.53,1.13,30.56,5.28,3.47,1.1,6.75,2.43,9.52,4.03,3.99,2.29,6.91,5.13,7.81,8.66,1.22,4.86-.41,15.07-.59,16.2Z"/>
      <path class="cls-3" d="M1084.37,485.84c-.79,3.68-1.25,6.48-1.54,8.66-.81,6.25-.17,7.44-1.72,9.39-.85,1.08-2.21,2.19-5.22,2.64-7.25,1.11-24.1-1.62-66.56-17.91-25.15-9.65-34.77-14.65-38.37-17.7-1.87-1.59-2.12-2.66-2.07-3.57.46-8.19,25.08-15.02,44.68-15.24,18.19-.21,17.04,5.44,47.38,8.54,11.51,1.18,20.25,1.23,24.51,4.49.94.71,1.66,1.58,2.14,2.65,1.55,3.37-.59,5.8-3.25,18.05Z"/>
      <path class="cls-3" d="M1108.89,358.61c-.06.29-.13.58-.21.89-.14.57-.32,1.19-.51,1.84-.09.27-.17.55-.26.84-.71,2.28-1.68,5.07-2.8,8.6-1.86,5.81-2.92,9.75-3.57,12.48-1.35,5.61-.99,6.15-2.34,7.41-.82.78-1.74,1.32-2.75,1.65-11.59,3.82-35.16-19.8-70.89-19.57-17.51.1-31.76,5.89-38.64,5.76-1.95-.03-3.32-.55-3.99-1.81-1.61-2.97,1.63-8.19,4.67-11.94.97-1.2,1.92-2.26,2.69-3.04,3.22-3.28,6.72-5.36,14.23-8.32t.02-.01c.42-.16.87-.33,1.32-.51,6.71-2.58,11.86-4.56,16.93-6.05,4.01-1.17,7.97-2.03,12.59-2.62,2.4-.29,1.83-.13,30.14.77,0,0,9.27.3,29.73,3.04,7.58,1.01,11.3,1.69,13.14,4.7.99,1.62,1.07,3.36.53,5.87Z"/>
      <path class="cls-3" d="M1122.41,287.71c-4.31,28-8.71,35.54-6.69,50.04,1.23,8.84,3.25,8.9,2.48,12.09-.88,3.61-4.2,6.49-9.31,8.76-2,.9-4.28,1.69-6.8,2.42-1.86.53-3.85,1.01-5.95,1.45h-.02c-15.34,3.22-36.63,4.14-57.51,4.05h0s-.05,0-.05,0c-17.42-.08-34.55-.85-47.68-1.57-1.13-.07-2.23-.13-3.29-.19-3.51-.2-6.67-.4-9.4-.56-2.65-.17-5.35-.35-8.1-.56-11.31-.87-23.5-2.18-37.39-3.98-14.02-1.81-29.77-4.12-48.09-6.98-1.87-.29-3.77-.59-5.69-.89h-.01c-24.6-3.88-53.72-8.69-89.19-14.57-2.23-.37-4.5-.75-6.8-1.13-.83-.14-1.67-.28-2.52-.42-24.92-4.2-52.07-9.24-56.82-13.75-.5-.48-.75-.95-.72-1.41.06-1.03,1.54-1.94,3.83-2.74,5.5-1.91,15.79-3.18,23.02-4.07,22.63-2.79,32.57-.43,44.48-1.3,26.36-1.92,30.29-17.3,56.14-27.16,6.59-2.52,12.29-3.78,17.54-4.22,22.95-1.9,37.28,12.08,79.65,7.76,46.07-4.7,42.59-22.6,83.21-22.28,7,.05,13.99.64,20.85,1.4,2.32.25,4.63.54,6.92.83,5.63.7,11.14,1.43,16.46,2,2.16.23,4.29.44,6.39.6.89.07,1.77.13,2.64.19h.01c.77.06,1.54.1,2.3.12,8.55.39,16.4-.14,23.18-2.59,1.23-.45,4.53-1.7,7.65-1.56,1.46.06,2.88.44,4.03,1.34,3.3,2.57,2.9,8.24,1.26,18.86Z"/>
      <path class="cls-9" d="M713.38,437.61c-.11.43-1.26,1.15-20.71-1.41-27.25-3.59-49.3-8.21-65.42-11.79-12.85-2.86-22.72-5.22-42.46-9.98-20.55-4.95-30.82-7.42-35.69-8.77-33.61-9.27-60.46-20.69-67.91-23.88-24.07-10.33-26.1-13.57-38.98-16.34-2.46-.53-6.55-1.3-10.87-4.29-8.39-5.79-14.37-17.6-11.33-27.66.49-1.6,2.26-7.45,6.14-8.21,1.79-.35,3.39.5,5.68,2.74,2.26,2.22,5.2,5.82,9.65,10.99.22.26.44.53.68.8.14.16.28.33.42.48,9.55,11.05,14.5,16.66,19.3,19.38,5.55,3.14,8.06,2.86,12.72,6.95,1.99,1.75,3.56,3.58,4.81,5.23,2.63,3.47,3.91,6.18,4.84,5.82,1.04-.39.23-4.02-.23-11.68,0,0-.28-4.91-.22-11.69.04-4.85.56-9.75,1.24-13.74l.3-1.66c.84-4.3,1.84-7.2,2.52-7.15.22,0,.35.31.44.87.43,2.64-.12,10.99,2.67,20.65,3.87,13.36,12.07,21.96,16.23,26.22,0,0,19.48,19.97,49.86,20.64,1.14.02,2.32-.08,3.37-.51.56-.2,1.08-.51,1.54-.93,2.19-2,1.67-5.3,1.63-9.03-.06-5.84,1.13-3.69,3.66-20.3,1.2-7.91,1.38-11.27,2.04-11.28.61-.01,1.09,2.87,1.53,6,.32,2.22.62,4.57.94,6.09,3.87,18.46,33.48,27.85,71.82,40.9,9.53,3.24,18.59,6.34,26.84,9.19,5.87,2.03,11.34,3.94,16.26,5.7h.02c11.73,4.21,20.39,7.56,24.31,9.68,1.61.88,2.43,1.55,2.32,1.98Z"/>
      <path class="cls-5" d="M1150.63,507.1c-1.24,1.5-2.59,2.7-3.93,3.64-.76.54-1.51.99-2.23,1.37-3.01,1.61-5.55,2.04-6.01,2.12-.54.09-1.06.14-1.55.17-8.04.48-11.65-5.88-22.92-9.24-11.38-3.4-16.87.32-21.87-.54-1.27-.23-2.52-.75-3.82-1.76-2.4-1.87-4.22-4.84-5.45-8.35-3.17-9.06-2.36-21.81,2.64-29.36.64-.97,1.37-1.87,2.15-2.65.39-.39.81-.75,1.23-1.08.14-.11.27-.22.42-.32,1.83-1.31,5.23-3.02,27.8,2.68,21.63,5.46,32.53,8.35,36.32,15.87,3.96,7.87,3.46,19.89-2.77,27.46Z"/>
      <path class="cls-5" d="M1170.47,405.85c-1.8,2.21-3.85,3.75-5.73,4.82-.76.43-1.5.78-2.2,1.07-2.14.91-3.78,1.2-4.13,1.26-1.16.19-2.22.23-3.21.18-6.85-.42-10.68-6.09-21.02-9.2-.46-.14-.9-.26-1.34-.38-.18-.05-.37-.09-.55-.14-6.13-1.5-10.42-.85-13.9-.31-3.73.57-6.53,1.03-9.66-1.44-4.45-3.51-6.88-10.79-7.18-18.45-.33-7.93,1.61-16.25,5.92-21.16.23-.26.47-.51.7-.76.51-.5,1.05-.97,1.61-1.37,1.57-1.13,4.28-2.55,19.26.68,2.42.52,5.17,1.17,8.28,1.95,21.42,5.43,32.2,8.29,35.94,15.8,3.91,7.86,3.4,19.88-2.79,27.45Z"/>
      <path class="cls-9" d="M1124.29,183.43c-6.3,7.84-16.67,14.73-25.59,19.35-.86.44-1.72.87-2.55,1.27,0,.01-.02.01-.02.01-1.01.49-1.99.94-2.92,1.35-.09.05-.17.08-.25.11-2.33,1.03-4.59,1.9-6.74,2.63-6.42,2.16-12.11,3.09-17.4,3.24-2.41.07-4.73,0-7-.2-6.53-.53-12.62-1.97-18.98-3.19h-.01c-5.28-1.03-10.76-1.89-16.83-1.99h-.01c-5.9-.08-12.36.56-19.76,2.51-41.01,10.86-41.56,43.78-88.91,53.85-9.48,2.02-19.59,2.86-28.09,2.54-7.92-.29-14.44-1.57-17.8-3.81-1.2-.79-1.99-1.72-2.3-2.76-.12-.4-.17-.83-.04-1.37h0c.58-2.35,4.44-6.86,20.3-20.6,14.18-12.29,25.75-21.41,30.11-24.85,8.1-6.4,17.21-13.78,35.43-28.56,33.09-26.82,31.31-26.32,35.43-28.55,14.3-7.76,30.3-8.42,62.32-9.73,54.91-2.27,66.86,6.79,72.2,13.01,4.5,5.24,5.04,9.32,5.14,10.25.59,5.3-1.77,10.57-5.73,15.47Z"/>
      <path class="cls-5" d="M1167.12,655.71c8.62-1.86,3.5-1.79,14.79-4.2,10.66-2.27,22.03-3.78,27.52-4.79,5.48-1.01,31.69-5.83,48.9-24.93,7.95-8.82,10.61-16.95,16.14-16.38,5.02.52,8.73,7.84,9.87,13.25,1.1,5.24-.35,8.01-5.32,22.57-6.23,18.23-6.68,21.85-11.54,26.05-1.87,1.62-8.13,7.04-14.1,5.44-4.52-1.21-5.04-5.41-12.21-8.68-2.89-1.32-6.25-2.85-9-1.49-2.89,1.42-2.23,4.62-5.22,11.09-1.88,4.08-4.47,9.68-9.65,11.93-3.9,1.7-7.68.8-11.49-.1-1.75-.42-6.42-1.68-16.36-8.8-8.99-6.44-8-7.43-14.57-11.44-7.08-4.31-12.81-5.96-12.48-7.71.18-.94,1.99-1.23,4.7-1.81Z"/>
      <path class="cls-5" d="M1219.86,364.95c8.62-1.86,3.5-1.79,14.79-4.2,10.66-2.27,22.03-3.78,27.52-4.79,5.48-1.01,31.69-5.83,48.9-24.93,7.95-8.82,10.61-16.95,16.14-16.38,5.02.52,8.73,7.84,9.87,13.25,1.1,5.24-.35,8.01-5.32,22.57-6.23,18.23-6.68,21.85-11.54,26.05-1.87,1.62-8.13,7.04-14.1,5.44-4.52-1.21-5.04-5.41-12.21-8.68-2.89-1.32-6.25-2.85-9-1.49-2.89,1.42-2.23,4.62-5.22,11.09-1.88,4.08-4.47,9.68-9.65,11.93-3.9,1.7-7.68.8-11.49-.1-1.75-.42-6.42-1.68-16.36-8.8-8.99-6.44-8-7.43-14.57-11.44-7.08-4.31-12.81-5.96-12.48-7.71.18-.94,1.99-1.23,4.7-1.81Z"/>
      <path class="cls-3" d="M1280.56,616.24c-.25.16-.52.26-.79.33-2.82.69-3.83-3.95-10.47-6.55-4.07-1.59-8.14-1.57-11.45-1.05-4.15.66-7.1,2.15-7.41,2.31-7.29,3.78-7.23,9.25-11.46,11.91-.24.15-.48.29-.73.4-7.32,3.58-18.73-5.05-31.5-14.3-2.2-1.59-4.44-3.2-6.7-4.78-3.33-2.3-6.71-4.52-10.11-6.47-2.36-1.35-4.71-2.56-7.07-3.65-4.02-1.86-8.04-3.39-12.03-4.61-3.11-.97-6.21-1.74-9.28-2.39-4.81-.99-9.55-1.64-14.18-2.04-2.24-.2-4.45-.33-6.62-.42-4.26-.18-8.39-.19-12.36-.12-3.08.05-6.08.15-8.94.25-3.09.11-6.04.23-8.83.28-4.06.08-7.79.05-11.09-.27-7.43-.71-12.78-2.86-15.22-8.4-2.79-6.33-1.18-15.74,3.65-20.3,4.38-4.12,10.92-3.79,21.53-3.11,9.61.62,16.72,2.4,24.82,4.47,29.12,7.45,26.7,7.29,28.92,7.54,22.15,2.54,44.47-6.25,47.96-7.65,9.94-4.01,17.14-8.7,21.94-5.37,2.67,1.86,3.36,5.41,4.73,12.5,1.41,7.29,1.05,11.52,1.49,14.67.27,1.76.78,3.17,2.02,4.6,3.48,4,9.34,4.23,10.87,4.29,9.43.37,12.59-7.07,19.68-5.77,5.68,1.04,8.91,6.77,10.06,8.8,5.32,9.41,2.77,22.47-1.43,24.9Z"/>
      <path class="cls-3" d="M1333.01,323.14c-.13.06-.26.11-.39.13-2.82.69-3.82-3.94-10.46-6.54-3.47-1.36-6.93-1.55-9.92-1.24-4.94.49-8.61,2.33-8.94,2.51-7.29,3.78-7.23,9.25-11.46,11.91-.13.08-.25.16-.38.22-6.42,3.56-16.14-2.79-27.21-10.76-2.28-1.65-4.63-3.36-7.01-5.08-3.37-2.42-6.83-4.84-10.31-7.04-1.37-.86-2.75-1.69-4.12-2.48-.06-.04-.13-.07-.19-.1h0c-2.36-1.35-4.72-2.56-7.09-3.64-3.83-1.78-7.68-3.24-11.49-4.42-3.22-1.01-6.44-1.83-9.62-2.49-2.92-.61-5.82-1.09-8.68-1.45-4.13-.54-8.17-.85-12.1-1-4.79-.21-9.42-.19-13.84-.09-2.55.05-5.03.14-7.43.22-4.11.14-7.98.29-11.56.31-3.12.02-6-.06-8.62-.33-7.33-.73-12.6-2.9-15.02-8.39-2.79-6.33-1.18-15.74,3.66-20.3,4.38-4.12,10.51-1.53,21.12-.85,9.6.62,16.72,2.4,24.82,4.47,29.12,7.45,27.1,5.04,29.32,5.29,22.15,2.54,44.48-6.25,47.97-7.65,9.94-4.01,17.14-8.7,21.93-5.37,2.68,1.86,3.37,5.4,4.74,12.5,1.87,9.7.6,13.99,2.33,17.51.1.22.23.43.36.65.23.37.51.75.83,1.11,3.48,4,9.34,4.23,10.87,4.29,9.42.36,12.59-7.07,19.68-5.77,5.67,1.04,8.91,6.77,10.05,8.8,5.48,9.7,2.61,23.29-1.83,25.08Z"/>
      <g>
        <path class="cls-7" d="M670.47,420.24c-.17.9-.33,1.79-.52,2.68l16.78,3.02c-4.92-1.76-10.38-3.67-16.26-5.7ZM873.46,375.78c-.23-.16-.44-.29-.66-.47h-.02c-10.95-1.82-21.9-3.65-32.82-5.46-16.21-2.69-32.41-5.35-48.64-7.98-4.16-.68-8.44-.63-12.64-.93-.18,1.41-.39,2.8-.59,4.21l91.93,16.56-1.02,5.69c.87.14,1.73.3,2.58.45l2.24-12.39-.34.31ZM1173.26,378.4c-3.74-7.51-14.52-10.37-35.94-15.8-3.11-.79-5.86-1.43-8.28-1.95,0,.57-.12,1.06-.34,1.38-1.04,1.47-3.39,2.28-5.32,2.75-1.36.33-2.99-.36-4.5-.63l-10.97-1.97-.45-.09-.95-.17c.62-.89,1.35-1.7,2.17-2.43.08-.31.15-.6.21-.89,5.11-2.27,8.43-5.15,9.31-8.76.77-3.19-1.25-3.25-2.48-12.09-2.02-14.51,2.37-22.05,6.69-50.04,1.64-10.61,2.04-16.29-1.26-18.86-1.15-.9-2.57-1.28-4.03-1.34-2.26,26.5-4.51,53.05-6.8,79.77-14.31-1.75-27.47-3.32-41.76-5.06l12.77-70.87,11.88-65.93,9.34-51.78c8.12,2.96,15.5,5.66,23.56,8.61-.61,7.07-1.21,14.13-1.82,21.19,3.95-4.9,6.31-10.17,5.73-15.47-.1-.92-.64-5.01-5.14-10.25-5.34-6.22-17.29-15.28-72.2-13.01-32.01,1.32-48.02,1.98-62.32,9.73-4.12,2.23-2.34,1.72-35.43,28.55-18.22,14.78-27.33,22.15-35.43,28.56-4.36,3.44-15.93,12.56-30.11,24.85-15.86,13.75-19.73,18.25-20.3,20.59,35.26-30.1,71.99-58.52,108.17-87.53,15.79-12.67,32.87-21.75,54.34-20.28,12.77.85,25.7-.61,38.57-1.02.12.91.26,1.79.38,2.7-13.11,1.01-26.26,2.9-39.36,2.83-19.49-.09-35.52,7.31-50.21,19.18-36.49,29.45-73.28,58.55-109.55,88.26,3.35,2.24,9.88,3.53,17.8,3.81,36.86-27.94,73.33-56.38,109.53-85.14,13.82-11,28.6-16.69,45.44-19.25,8.6-1.32,17.09-3.3,27.71-5.37l-10.1,56.02-6.27,34.82c-1.32,7.3-2.65,14.6-3.98,21.89-3.87,21.25-7.74,42.5-11.42,63.8-1.04,6.15-3.45,7.88-9.87,9.52-12.61,3.2-24.41,9.55-36.71,14.14-7.2,2.66-15.22,7.27-22.05,6.11-3.65-.61-7.29-1.24-10.95-1.87-10.19-1.73-20.37-3.5-30.56-5.28h-.02c-55.74-9.73-111.41-19.95-167.09-29.99-1.26-.23-2.46-.86-3.66-1.29.23-1.12.48-2.25.7-3.37l36.53,6.58c56,10.1,112.01,20.08,167.96,30.39,10.71,1.98,19.06,0,28.63-6.31,11.94-7.86,26.48-11.79,42.4-18.46l8.69-48.28c-8.75,4.47-16.3,8.4-23.89,12.23-34.07,17.13-69.4,25.34-107.37,15.19-4.77-1.28-9.9-1.3-14.63-2.69-29.92-8.77-57.86-5.81-87.13,6.53-15.98,6.71-36.46,2.77-54.93,3.61-.03-1.11-.06-2.21-.07-3.33,11.48-.09,22.99-.37,34.48-.28,22.26.19,42.34-7.86,59.37-20.49,5.98-4.44,11.95-8.89,17.9-13.36-5.25.43-10.95,1.7-17.54,4.22-25.85,9.85-29.78,25.24-56.14,27.16-11.91.86-21.86-1.5-44.48,1.3-7.23.89-17.52,2.16-23.02,4.07-46.04-7.75-45.63-9.53-94.59-17.11,0,0-42.74-6.62-133.7-7.79-13.29-.17-30.23-.2-30.95,3.74-.16.88.49,1.91,2.14,3.16,8.47-1.1,16.96-2.12,25.45-3.22.24,1.47.52,2.92.77,4.36-5.16,1.16-10.33,2.31-17.02,3.79-1.66.38-3.43.76-5.3,1.17,4.6.55,8.03.97,11.42,1.36,1.96.24,3.91.47,6.05.71l-.27,1.5-5.3,29.45-.3,1.66-5.64,31.29-.69,3.85c-20.36-3.33-47.71-21.92-47.97-34.83,5.92,1.96,9.54,1.43,11.83-.58-.14-.15-.28-.32-.42-.48-.24-.27-.46-.54-.68-.8l-11.27-2.04,1.62-8.96c-2.29-2.24-3.9-3.09-5.68-2.74-3.88.76-5.66,6.61-6.14,8.21-3.04,10.06,2.93,21.87,11.33,27.66,4.32,2.99,8.41,3.76,10.87,4.29,12.88,2.77,14.9,6.01,38.98,16.34,7.45,3.2,34.3,14.62,67.91,23.88,4.87,1.35,15.14,3.82,35.69,8.77,19.74,4.75,29.61,7.12,42.46,9.98,16.12,3.58,38.17,8.21,65.42,11.79,19.45,2.56,20.6,1.84,20.71,1.41.11-.43-.71-1.1-2.32-1.98-12.64-2.27-25.25-4.63-37.83-7.13-3.94-.78-7.19-4.91-9.36-9.31l-81.77-14.73-.52,2.86,80.3,14.47c-.07,1.01-.14,2.03-.2,3.06-2.18.19-4.45.9-6.53.52-25.2-4.36-50.36-9.16-75.63-13.18-10.63-1.68-13.9-6.77-12.3-17.08,1.56-10.15,2.55-20.4,3.63-31.06-.45-3.13-.92-6.01-1.53-6-.65.02-.83,3.38-2.04,11.28-2.54,16.61-3.72,14.46-3.66,20.3.05,3.73.56,7.03-1.63,9.03-.46.42-.98.73-1.54.93l-1.41,7.85c-20.7-7.52-42.64-15.05-64.11-23.73-3.87-1.56-7.69-7.63-8.27-12.07-1.75-13.33-1.2-26.41,1.65-39.04,1.64-7.3,4.05-14.43,7.22-21.39.93-2.03,1.91-4.04,2.97-6.04,2.29-4.31,9.19-8.59,14.08-8.73,22.66-.67,45.37.14,68.08.42.2,1.73.4,3.47.6,5.2-3.91.6-7.85,1.78-11.71,1.66-18.68-.56-37.32-1.67-55.99-2.1-4.15-.09-8.34,1.83-12.54,2.82.23,1.07.45,2.15.68,3.22,5.72.71,11.42,1.41,17.14,2.11.01,1.47.01,2.92.02,4.39-4.39.13-8.76.28-13.57.45-1.07.03-2.17.07-3.28.11,4.16,1.1,7.73,2.05,13.09,3.48-9.32,17.24-11.06,35.04-7.15,53.89,1.7,8.26,4.96,12.64,12.86,14.85,6.83,1.93,13.35,5.04,20.98,8.02,1.09-10.54,2.55-19.52-10.13-23.26-2.63-.77-5.43-5.15-5.95-8.22-.98-5.93-1.07-12.23-.29-18.2,1.64-12.23,4.1-18.59,9.87-21.03,4.19-1.77,10.11-1.46,18.73.17,5.59,1.07,11.19,2.04,19.33,3.5l-1.22,6.77c1.42.37,2.82.73,4.17,1.07,3.11-11.4,6.06-22.14,9.31-32.8.58-1.93,4.83-4.3,6.92-3.95,29.64,4.99,59.22,10.44,88.8,15.77.11,1.33.22,2.67.3,3.99-3.41.43-7,1.72-10.26,1.19-22.97-3.87-45.89-8.09-68.84-12.2l-13.98-2.52c-1.42,4.84-2.53,8.72-4.22,14.61l90.62,16.33c-.26,1.54-.51,3.05-.77,4.58l-91.51-16.49-1,5.13,93.24,16.8c1.99-6.38,4.13-15.57,7.83-24.06,1.23-2.84,6.81-5.99,9.84-5.51,10.33,1.64,20.64,3.42,30.94,5.25,16.78,2.97,33.55,6.06,50.37,8.89.32.06.6.12.87.18.28.06.54.12.79.19.36.09.69.19,1,.3.29.1.54.21.78.33.43.19.82.4,1.13.64.18.12.35.24.51.42.12.09.23.21.33.33.05.06.1.12.15.19.17.21.32.43.42.65.05.06.07.11.08.16.12.24.2.48.27.73.05.19.11.39.12.6,0,.04.02.09.02.13.04.29.06.59.05.91,0,.28,0,.57-.06.85,0,.16-.02.3-.06.46-.03.42-.12.84-.24,1.31.17-.25.33-.48.51-.7.72-.98,1.49-1.78,2.32-2.4.04-.03.09-.07.13-.1.16-.13.36-.26.53-.36.14-.12.29-.21.45-.28.16-.11.31-.18.46-.24.28-.16.56-.27.84-.39,0-.02.03-.01.05-.01.16-.07.33-.13.5-.19.5-.17,1-.29,1.53-.38.22-.03.43-.05.65-.09.28-.05.59-.06.87-.08.26-.02.51-.02.8-.01.23-.01.46-.02.7,0,.16.01.32.01.49.02,1.24.06,2.59.25,3.97.53,25.37,5.04,50.84,9.49,76.32,13.82,1.19.2,2.29.42,3.29.71.56.15,1.09.33,1.56.54.48.21.9.41,1.3.67.4.24.74.53,1.06.85.13.16.29.33.39.51.04.06.09.11.11.17h.01c.1.13.17.26.22.4.17.34.28.73.38,1.14,0,.03.02.03.01.05.04.17.06.34.05.5.02.03.04.06,0,.09.04.18.04.34.03.5,0,.02.02.05.02.09-.01.18-.02.36-.03.56-.05.76-.22,1.61-.53,2.55l.17.04c.18-.34.41-.68.62-.96.21-.31.43-.6.64-.86.22-.28.43-.55.68-.78.21-.24.46-.48.71-.7.22-.21.47-.42.73-.59.09-.08.19-.15.32-.22l.32-.22c.43-.28.87-.51,1.34-.7.49-.22,1.02-.38,1.57-.5.25-.07.49-.12.75-.14.3-.07.58-.1.89-.12.31-.04.61-.07.93-.06.35,0,.71-.02,1.05,0,.12,0,.21-.01.32.01.44,0,.93.05,1.4.13.09,0,.18.01.29.02.46.07.91.12,1.38.21l.66.11c12.88,2.59,25.8,4.97,38.84,7.31,13.37,2.4,26.87,4.75,40.56,7.22l-6.93,38.45c2.17-.67,4.39-1.78,6.28-3.7,3.04-3.12,3.69-6.84,4.7-13.14.18-1.13,1.81-11.34.59-16.2-.89-3.52-3.82-6.37-7.81-8.66,2.76.21,5.45.39,8.1.56,2.73.16,5.89.36,9.4.56-3.04,3.75-6.28,8.98-4.67,11.94.68,1.25,2.05,1.77,3.99,1.81-.07-4.68,1.24-9.42,3.97-13.56,1.26-1.94,2.85-3.74,4.74-5.34,2.87-2.43,5.83-4.48,8.89-6.21t.02-.01c5.82-3.28,11.94-5.35,18.25-6.56,9.71-1.87,19.9-1.73,30.21-.88,16.98,1.42,33.92,3.58,50.85,5.42l-1.73,9.64-5.65,31.3c1.01-.33,1.93-.86,2.75-1.65,1.35-1.27.99-1.8,2.34-7.41.31,7.66,2.73,14.94,7.18,18.45,3.12,2.47,5.92,2.01,9.66,1.44-9.17-3.56-9.13-3.64-5.21-14.15,6.7,2.61,13.43,5.22,20.29,7.88l-1.19,6.57c.18.05.37.09.55.14.28-.85.66-1.68,1.12-2.48,2.62-4.56,7.77-7.96,12.41-10.92,3.73-2.36,8.34-3.25,13.93-5.3l-5.09,28.28c.99.06,2.05,0,3.21-.18.35-.06,1.99-.35,4.13-1.26l5.97-33.1,1.94.36-5.7,31.68c1.89-1.07,3.93-2.61,5.73-4.82,6.19-7.57,6.7-19.58,2.79-27.45ZM573.93,322.91c-6.72-.82-13.45-1.61-20.2-2.43.15-1.7.3-3.4.41-5.12,6.76.77,13.51,1.55,20.27,2.32-.15,1.74-.3,3.49-.48,5.22ZM1058.49,268.75l10.34-57.35,11.11-61.69,16.29,2.93-10.01,55.52-11.28,62.59-12.7,70.43c-5.98-.15-10.88-.26-16.74-.41l12.98-72.02ZM1128.43,382.76c-.14,1.44-.5,2.87-1.32,7.45-6.14-4.83-10.89-8.58-15.64-12.33,5.12-1.82,10.28-3.66,17.52-6.25-.32,6.66-.37,8.91-.56,11.13ZM1050.31,539.1c-16.57-4.35-15.22-5.91-33.03-10.61-14.79-3.9-16.38-3-22.16-6.32-2.17-1.24-4.95-3.1-17.87-17.2-13.19-14.39-14.17-16.69-19.71-19.86-3.76-2.15-7.11-3.28-19.9-5.91-14.26-2.95-21.39-4.43-31.58-5.7-14.93-1.85-35.53-5.84-76.7-13.82-28.28-5.48-36.59-7.67-37.43-5.58-.11.29-.07.61.15.94,51.2,9.22,102.4,18.44,153.62,27.57,9.61,1.71,15.55,6.83,21.73,14.61,9.69,12.18,22.22,22.1,35.78,35.15l-27.27,151.33c2.28,1.24,4.65,2.41,7.08,3.5l28.09-155.85q17.33,2.4,14.54,17.74c-8.66,47.9-17.27,95.79-25.9,143.69,1.77.37,3.53.65,5.27.85l27.97-155.21,39.16,7.05c-3.24-2.82-7.86-2.68-21.83-6.35ZM1073.89,547.42c-6.07,22.21-11.66,43.04-17.41,63.81-4.47,16.16-9.08,32.29-13.62,48.42.5-1.26,1.03-2.59,1.58-3.97,20.19-50.33,26.21-58.28,28.58-81.03,1.15-11.04,5.4-20.61.87-27.22ZM1153.4,479.64c-3.79-7.52-14.68-10.4-36.32-15.87-22.57-5.69-25.97-3.99-27.8-2.68-.15.1-.28.21-.42.32,9.22.9,18.59,1.22,27.55,3.34,2.68.63,4.04,6.86,6.01,10.52-.98,1.05-1.93,2.1-2.91,3.13-10.89-4.32-21.78-8.62-32.69-12.95.28-.98.54-1.98.81-2.96-.78.78-1.51,1.68-2.15,2.65-4.27-3.25-13.01-3.31-24.51-4.49-30.34-3.1-29.19-8.75-47.38-8.54-19.59.22-44.21,7.05-44.68,15.24-.05.91.19,1.98,2.07,3.57.41-1.55.84-3.09,1.25-4.62.6-2.29,5.05-4.77,7.91-5.01,14.71-1.23,29.65-3.55,44.18-2.15,20.33,1.95,40.39,6.84,58.3,10.07l-6.72,37.31c3.01-.45,4.37-1.57,5.22-2.64,1.55-1.95.9-3.14,1.72-9.39,1.23,3.51,3.04,6.48,5.45,8.35,1.3,1.02,2.55,1.53,3.82,1.76-1.04-8.19-.54-13.97,11.49-11.82,5.78,1.04,11.92,1.1,18.31-1.59,5.4-2.29,12.57-.34,19.22-.26l-4.22,23.45c.49-.03,1.01-.08,1.55-.17.46-.08,3-.51,6.01-2.12l4.99-27.67,1.93.34-4.68,25.97c1.34-.94,2.7-2.14,3.93-3.64,6.23-7.57,6.73-19.58,2.77-27.46ZM1237.86,564.75c-1.37-7.09-2.07-10.64-4.73-12.5-4.8-3.33-12,1.35-21.94,5.37-3.49,1.41-25.82,10.19-47.96,7.65-2.22-.25.2-.09-28.92-7.54-8.1-2.07-15.21-3.86-24.82-4.47-10.61-.68-17.15-1.01-21.53,3.11-4.83,4.56-6.45,13.97-3.65,20.3,2.44,5.54,7.78,7.7,15.22,8.4.21-1.27.41-2.56.6-3.83,2.03-13.28,2.45-13.68,16.14-7.24-3.52,2.21-8.78,4.6-8.54,5.54.51,2.01,1.6,3.88,2.89,5.8,2.79-.05,5.74-.17,8.83-.28l3.65-20.22c4.59,4.81,8.67,9.13,12.51,13.18-2.04,1.64-6.79,3.7-7.2,6.37-.02.14-.02.28-.02.42,3.96-.07,8.1-.06,12.36.12l3.58-19.85,8.06,1.45c-7.9,4.89-6.9,8.26,6.08,15.65-3.79.74-6.47,1.24-11.66,2.23l.57.94c4.62.4,9.37,1.04,14.18,2.04l3.39-18.82,8.87,1.59c-2.06,1.75-5.78,4.57-5.59,4.84,2.38,3.71,5.34,7.09,8.14,10.52-1.22,1.07-3.96,2.47-5.52,4.25,3.99,1.22,8.01,2.74,12.03,4.61.53-8.37.4-16.94-.41-25.79,16.29-4.68,32.98-9.52,49.68-14.34.32,1.06.63,2.09.92,3.15-15.4,4.42-30.82,8.86-46.21,13.29.11,9.96,4.12,13.16,13.6,11.49,10.47-1.86,21.21-2.28,31.87-3.11,2.32-.19,4.68.1,7.03.34-.45-3.14-.08-7.38-1.49-14.67ZM1281.99,591.34c-1.15-2.03-4.39-7.77-10.06-8.8-7.08-1.3-10.24,6.14-19.68,5.77-1.54-.06-7.39-.28-10.87-4.29,0,.11,0,.22,0,.33-16.45,1.07-32.89,2.12-50.44,3.27-.37,2.83-.77,5.97-1.32,10.18,16.97-.58,33.19-1.17,50.49-1.78.17,3.36.3,6.48.46,10.43-13.94-.67-27.29-1.31-40.54-1.94-3.56-.16-7.11-.34-10.67-.52-.07,1.3-.16,2.58-.25,3.87,5.84.47,11.68.94,17.63,1.43,10.97.88,22.28,1.8,34.54,2.78-1.02,3.89-2.04,7.72-3.04,11.52.26-.12.49-.25.73-.4,4.23-2.66,4.18-8.13,11.46-11.91.3-.16,3.26-1.64,7.41-2.31,4.62-6.89,10.75-10.96,22.64-6.2.26,4.55.29,9.03.07,13.48,4.2-2.43,6.75-15.49,1.43-24.9ZM1290.73,271.46c-1.37-7.1-2.07-10.64-4.74-12.5-4.79-3.34-11.99,1.35-21.93,5.37-3.49,1.41-25.83,10.2-47.97,7.65-2.22-.25-.2,2.16-29.32-5.29-8.1-2.07-15.22-3.85-24.82-4.47-10.61-.68-16.74-3.27-21.12.85-4.84,4.56-6.46,13.97-3.66,20.3,2.41,5.49,7.69,7.65,15.02,8.39.25-1.45.49-2.89.73-4.34.87-5.34.76-10.83,1.2-17.62,4.98,5.7,8.77,9.99,12.56,14.3-1.47,1.16-6.46,3.31-6.56,5.64-.03.77.24,1.54.7,2.34,3.57-.02,7.45-.17,11.56-.31l3.83-21.26c2.03.25,5.82.71,9.61,1.15.05.73.11,1.45.16,2.17-2.19.3-4.4.61-9.72,1.37,4.59,5.14,8,8.97,12.15,13.61-2.1.13-4.52.3-9.78.64.4.72.81,1.42,1.19,2.1,4.41-.1,9.04-.12,13.84.09l3.08-17.1,9.7,1.75c-.01.46-.04.95-.05,1.44-2.32.28-4.63.59-10.02,1.29,5.23,5.25,8.94,9,13.11,13.19-1.17.13-2.35.27-3.73.43,2.86.37,5.76.84,8.68,1.45l2.87-15.92,12.95,2.34c-5.57,1.14-7.84,1.62-12.88,2.66,4.82,4.93,8.33,8.47,12.22,12.44-1.43.24-3.08.53-5.55.97,3.81,1.18,7.65,2.63,11.49,4.42.24-5.76.16-11.59-.29-17.49-.15-2.01,1.38-5.56,2.87-6,15.35-4.78,30.85-9.09,46.29-13.5.29.98.55,1.96.82,2.94-15.52,4.54-31.03,9.08-47.14,13.79,1.51,4.06,2.86,7.78,4.29,11.63,17.1-.13,33.88-4.74,50.68-3.41-1.73-3.52-.45-7.8-2.33-17.51ZM1334.84,298.05c-1.14-2.04-4.39-7.77-10.05-8.8-7.08-1.3-10.25,6.13-19.68,5.77-1.54-.06-7.39-.28-10.87-4.29-.32-.37-.6-.74-.83-1.11.05,1.48.12,2.97.18,4.45-9.93.67-19.84,1.41-29.78,2.01-4.57.27-9.17.59-13.71.37-6.69-.28-8.75,2.43-7.48,8.2h0c.19.85.45,1.75.77,2.71,1.18-.04,2.36-.08,3.54-.12,14.73-.49,29.77-.98,44.96-1.48,2.91,8.12.48,10.91-7.53,10.27-9.03-.72-18.07-1.23-27.12-1.74-5.24-.29-10.49-.58-15.74-.89-.14,1.44-.26,2.87-.41,4.31,7.64.54,15.29,1.09,23.16,1.66,9.39.68,19.11,1.38,29.53,2.13-.78,2.91-1.54,5.79-2.31,8.63.13-.07.25-.15.38-.22,4.23-2.66,4.18-8.13,11.46-11.91.33-.18,4-2.02,8.94-2.51,4.33-6.05,7.79-5.75,20.57-3.33.23,3.71.3,7.38.2,10.99,4.44-1.79,7.32-15.38,1.83-25.08Z"/>
        <path class="cls-7" d="M1338.02,296.57c-2.55-11.27-8.65-13.62-19.87-10.6-5.07,1.39-10.1,2.91-15.57,4.49-.75-3.24-1.33-5.43-1.72-7.65-5.2-29.21-12.19-29.93-34.79-22.3-12.61,4.25-26.11,11.35-38.44,9.97-33.62-3.71-66.83-11.23-101.17-17.42,2.66-32.41,5.25-63.89,7.89-95.85-4.2-1.8-8.01-3.33-11.75-5.1-5.21-2.45-10.51-4.39-15.82-5.88-15.34-4.37-31.06-5.29-46.89-5.4-9.45-.08-18.92.16-28.39.08-22.45-.18-40.87,7.54-57.72,21.04-8.35,6.69-16.72,13.34-25.09,20.03-.11.1-.19.17-.3.25-17.91,15.45-22.01,19.26-33.39,28.49-12.3,9.97-11.55,8.77-21.7,17.06-8.27,6.73-14.12,11.89-18.74,16.15-1.14,1.07-2.21,2.06-3.24,3.02-5.2,4.89-8.89,8.63-13.62,12.66-2.49,2.12-5.23,4.3-8.63,6.79-.65.47-1.29.93-1.93,1.4-5.8,4.13-11.38,7.6-16.47,10.45-.47.29-.93.53-1.4.79-4.84,2.69-9.21,4.81-12.84,6.47-1.09.5-2.14.97-3.07,1.38-2.39,1.03-4.33,1.8-5.68,2.33-8.61,3.33-24.9,8.83-53.3,11.35-17.04,1.52-35.64,1.73-90.01-4.57-58.17-6.73-55.22-9.09-84.29-10.53-4.41-.22-29.44.52-79.56,1.97,0,0-14.5.41-36.64,4.18-3.78.64-7.77,1.37-11.98,2.22-2.83.58-5.75,1.2-8.77,1.89-1.77.4-5.83,1.34-10.9,3.46-.42.17-.88.37-1.34.57-3.24,1.44-6.84,3.34-10.5,5.84-3.11,2.12-6.54,4.48-9.38,7.44v.02c-3.73,5.06-5.69,10.08-5.76,15.01-.1,4.58,1.44,9.04,4.68,13.29,1.13,1.92,2.25,3.57,3.14,4.85,16.78,24.36,57.45,36.51,89.3,45.27,21.5,7.61,43.45,14.04,65.4,20.48h.06c12.08,3.54,24.16,7.07,36.19,10.78,20.72,6.41,41.34,13.11,62,19.67l-.07.39c15.79,5.41,33.85,11.88,52.81,19.21,1.71.54,3.37,1.07,5.07,1.59l-.06.34c15.21,5.95,34.93,14.01,52.34,32.72,5.26,5.68,9.2,11.14,14.18,19.01l1.19.22-.24,1.32c2.1,3.31,4.39,7.06,7.05,11.41.52.86,1.04,1.7,1.52,2.53l2.66.48c-.16.77-.34,1.5-.5,2.27l-.58-.11c1.65,2.83,3.13,5.41,4.45,7.84,4.29,2.73,7.26,11.8,9.75,18.92,2.82,5.54,6.05,11.69,10.66,19.7,8.23,14.27,9.17,14.14,16.15,25.06.88,1.06,1.7,2.29,2.48,3.69.64,1.13,1.29,2.28,1.95,3.42.01.05.06.1.09.16,4.56,8.16,9.23,16.26,14.04,24.33.01.07.05.15.1.21,4.59,7.79,9.27,15.53,14.01,23.23,5.38,8.7,10.55,17.62,16.77,25.52,1.47,1.92,3,3.74,4.62,5.49,6.27,6.79,13.74,12.51,23.38,16.16,14.26,5.39,28.2,11.68,42.49,17,3.43,1.27,6.89,2.39,10.38,3.34,18.93,5.23,38.34,5.94,58.02,3.98.07-.29.18-.58.25-.86,8.71-30.92,17.24-60.99,25.9-91.6,17.19,3.1,32.84,7.01,48.69,8.57,35.53,3.44,67.32,14.34,93.65,39.65,8.66,8.32,15.67,6.88,23.39-2.56,4.69-5.72,8.28-12.37,12.66-19.08,3.72,2.72,6.77,4.95,9.81,7.19,13.68,10.16,21.16,9.41,28.7-6.08,6.1-12.53,10.92-26.23,13.02-39.92,2-12.89,1.01-26.66-1.13-39.64-1.86-11.36-8.28-13.89-19.54-11.14-5.34,1.28-10.63,2.74-16,4.15-1.63-7.52-2.47-13.98-4.47-20.09-4.03-12.49-9.78-15.37-22.64-12.01-8.48,2.23-16.83,4.87-25.31,7.07-8.41,2.2-17.18,6.57-25.31,5.66-21.21-2.38-42.17-7.04-63.2-11.06-2.1-.41-3.84-2.63-5.73-4.02.6-1.68,1.24-3.34,1.84-5.03,8.12,1.46,16.39,2.4,24.34,4.51,15.91,4.24,19.64,3.19,23.15-13.15,4.2-19.42,6.43-39.28,9.61-59.63.42.03,3.38.36,6.39.48,12.57.52,25.15,1.33,37.71,1.16,3.05-.04,6.06-3.42,9.11-5.28-2.13-3.16-3.63-7.41-6.59-9.25-4.77-2.93-10.48-4.52-15.92-6.27-9.6-3.09-19.3-5.88-29.06-8.8,11.66-21.42,15.12-43.42,14.99-66.15-.01-8.04-2.86-12.42-12.39-11.92-10.21.56-20.9.05-31.46-10.66,5.54-.35,8.45-.98,11.2-.65,38.54,4.71,76.17,11.81,104.63,41.78.26.26.71.36.99.6,8.57,7.57,16.22,5.2,22.59-2.8,4.67-5.94,8.46-12.57,13.07-19.51,4.29,3.17,8.52,6.36,12.77,9.45,9.42,6.85,15.83,6.68,22.23-3,17.28-26.09,22.26-54.94,15.34-85.35ZM947.49,710.13c-30.49-8.43-51.26-27.24-66.41-55.08-20.98-38.53-44.44-75.73-66.87-113.48-19.02-31.96-37.59-64.38-76.2-77.51,23.78,4.47,42.52,17.15,55.42,37.04,19.92,30.74,38.76,62.18,57.91,93.45,14.73,24.1,29.85,48.01,43.6,72.68,11.22,20.1,28.49,30.99,49.27,38.21,8.48,2.95,16.68,6.71,24.09,12.63-6.92-2.69-13.69-5.99-20.81-7.94ZM1073.03,574.64c-2.38,22.75-8.39,30.7-28.58,81.03-.56,1.38-1.08,2.71-1.58,3.97-4.56,16.22-9.02,32.45-13.17,48.76-3.08,12.21-7.81,19.04-21.34,16.02-2.52-.57-5.23-.31-8.8-.49l5.46-30.33c-1.75-.2-3.51-.48-5.27-.85-.98,5.43-1.96,10.87-2.94,16.31l-2.54,14.03-17.16-3.09,5.91-32.83c-2.42-1.09-4.8-2.27-7.08-3.5l-5.03,27.94c-21.59-14.86-45.81-22.76-60.17-47.67-30.9-53.55-64.45-105.62-98.09-157.53-12.25-18.88-29.08-34.08-51.16-41.95-13.29-4.72-26.59-9.52-39.79-14.46-2.62-.95-4.92-2.74-7.35-4.16.29-1.26.57-2.48.86-3.71,3.53.31,7.1.37,10.56.97,22.12,3.98,44.22,7.95,66.33,11.94-.22-.33-.27-.65-.15-.94.84-2.08,9.15.11,37.43,5.58,41.18,7.98,61.77,11.97,76.7,13.82,10.19,1.27,17.33,2.75,31.58,5.7,12.79,2.64,16.14,3.76,19.9,5.91,5.54,3.17,6.52,5.47,19.71,19.86,12.92,14.09,15.7,15.96,17.87,17.2,5.77,3.32,7.37,2.42,22.16,6.32,17.81,4.7,16.46,6.26,33.03,10.61,13.98,3.67,18.59,3.54,21.83,6.35l2.17.39c-.14.53-.28,1.06-.43,1.58,4.53,6.61.29,16.18-.87,27.22ZM961.78,469.82l5.5-30.5c.84.1,1.67.19,2.49.29l-5.5,30.52c-.81-.1-1.64-.2-2.48-.31ZM1075.99,531.21c6.77,1.23,12.37,1.93,17.76,3.41,1.45.4,2.86,3.15,3.05,4.96.12,1.25-1.57,3.45-2.94,3.99-6.14,2.51-15.69-3.29-17.87-12.35ZM1085.05,595.05c.18-1.27,3.42-3.1,4.96-2.84,1.26.2,3.21,3.28,2.94,4.75-1.21,6.88-3.1,13.64-4.75,20.45-1.71-.22-3.42-.46-5.12-.66.58-7.26.94-14.53,1.98-21.7ZM1109.49,553.26c9.61.62,16.72,2.4,24.82,4.47,29.12,7.45,26.7,7.29,28.92,7.54,22.15,2.54,44.47-6.25,47.96-7.65,9.94-4.01,17.14-8.7,21.94-5.37,2.67,1.86,3.36,5.41,4.73,12.5,1.41,7.29,1.05,11.52,1.49,14.67.62.06,1.25.11,1.86.15.06,1.49.1,2.96.16,4.45,3.48,4,9.34,4.23,10.87,4.29,9.43.37,12.59-7.07,19.68-5.77,5.68,1.04,8.91,6.77,10.06,8.8,5.32,9.41,2.77,22.47-1.43,24.9-.81,16.42-5.03,32.09-13.38,46.76-2.02,3.57-7.7,8.86-9.39,8.11-4.33-1.94-9.02-6.17-10.65-10.56-5.68-15.42-.72-29.73,6.3-43.76,1.4-2.78,2.8-5.47,4.4-7.83-4.15.66-7.1,2.15-7.41,2.31-7.29,3.78-7.23,9.25-11.46,11.91-.24.15-.48.29-.73.4-3.66,13.83-7.24,27.3-11.12,41.98-16.64-10.01-31.25-18.82-45.87-27.6-.78,1.21-1.57,2.4-2.35,3.6,14.59,9.25,29.18,18.51,43.79,27.77-.29,1.11-.58,2.22-.87,3.33-2.64-.47-5.79-.2-7.83-1.57-10.49-6.96-20.55-14.55-31.05-21.46-2.36-1.54-5.9-1.23-8.89-1.77-.38,1.26-.8,2.52-1.18,3.75,13.62,9.87,27.25,19.7,41.77,30.21-8.63,2.01-22.04-6.55-47.13-28.73,8.84-18.93,14.08-38.2,15.36-58.71-4.02-1.86-8.04-3.39-12.03-4.61-.58.65-.99,1.35-1.12,2.1-.41,2.39,3.87,5.57,6.55,9.03-2.42.4-5.28.87-11.56,1.87,15.84,5.68,10.05,15.14,7.61,22.8-1.16,3.59-6.62,5.82-10.49,8.97.76.5,2.96,1.9,5.46,3.52-2.01.57-3.97,1.12-6.14,1.73-.98.29-2.01.57-3.09.89-1.23.34-2.53.71-3.95,1.11-.39.11-.8.23-1.2.34-.42.11-.83.25-1.27.35l-.1.54c.3.14.58.29.84.41.25.14.49.26.7.33.54.26,1.05.52,1.52.74.54.23,1.03.47,1.5.71,2.34,1.1,3.86,1.83,5.38,2.56-.17.55-.31,1.09-.45,1.64l-10.31-1.86.82-4.54c-.22-.09-.45-.2-.68-.32.27-.07.54-.15.78-.23l9.93-55.11c-4.81-.99-9.55-1.64-14.18-2.04,2.61,4.26,4.88,7.99,7.36,12.07-1.52.31-4.32.86-10.73,2.16,15.46,4.77,10.6,13.54,8.13,20.64-1.37,4.01-6.01,6.88-9.89,11.05,0,.02,1.22.96,2.71,2.14.35.27.72.55,1.09.85.16.12.33.24.48.37-4.59,1.15-8.73,2.18-12.87,3.2.03.94.05,1.87.09,2.79,2.43,1.19,4.87,2.35,7.29,3.53-.09.47-.2.97-.29,1.46l-10.6-1.91,10.59-58.76c-4.26-.18-8.39-.19-12.36-.12.14,2.38,4.16,5.38,6.77,8.63-2.39.51-5.18,1.08-7.96,1.64,11.28,4.37,7.36,12.56,4.99,19.13-1.71,4.73-5.9,8.56-9.74,13.83.15.1.41.31.81.59.14.09.33.24.54.37.67.5,1.52,1.12,2.43,1.77-4.63,1.35-8.91,2.6-13.16,3.87.16.84.31,1.68.46,2.5,2.36,1.01,4.73,2.03,7.09,3.03-.07.55-.16,1.07-.25,1.59l-10.76-1.94,9.87-54.77c-3.09.11-6.04.23-8.83.28.98,1.48,2.08,2.98,3.1,4.62-1.78.33-4.35.8-6.59,1.19,10.67,13.68,6.69,23.15-6.1,32.39.29.24,2.2,1.77,4.27,3.45-5.17,1.7-10,3.3-16.31,5.36,1.49-5.07,3.37-10.07,4.44-15.23,2.21-10.66,4.37-21.32,6.1-32.05-7.43-.71-12.78-2.86-15.22-8.4-2.79-6.33-1.18-15.74,3.65-20.3,4.38-4.12,10.92-3.79,21.53-3.11ZM1101.1,532.08c-5.98-4.04-10.97-7.36-15.93-10.7.22-1.2.4-2.39.62-3.6,5.83-1.32,11.66-2.63,18.65-4.23l-3.34,18.52ZM1150.63,507.1c-1.24,1.5-2.59,2.7-3.93,3.64l-4.71,26.11c-.63-.12-1.29-.21-1.92-.33l4.4-24.42c-3.01,1.61-5.55,2.04-6.01,2.12-.54.09-1.06.14-1.55.17l-2.22,12.33c-5.05-5.71-8.08-9.96-11.97-13.2-3.41-2.83-7.58-5.51-11.82-6.41-5.79-1.21-11.94-.69-18.58-.95-.07-.52-.14-1.04-.21-1.54-1.27-.23-2.52-.75-3.82-1.76-2.4-1.87-4.22-4.84-5.45-8.35-.81,6.25-.17,7.44-1.72,9.39-.85,1.08-2.21,2.19-5.22,2.64l-6.24,34.63c-23.41-6.89-46.39-12.48-68.41-20.69-9.46-3.52-17.29-11.99-25.13-19.02-9.97-8.93-7.95-19.88-5.14-30.53-1.87-1.59-2.12-2.66-2.07-3.57.46-8.19,25.08-15.02,44.68-15.24,18.19-.21,17.04,5.44,47.38,8.54,11.51,1.18,20.25,1.23,24.51,4.49.64-.97,1.37-1.87,2.15-2.65.1-.39.21-.78.32-1.17.3.03.61.06.91.09.14-.11.27-.22.42-.32,1.83-1.31,5.23-3.02,27.8,2.68,21.63,5.46,32.53,8.35,36.32,15.87,3.96,7.87,3.46,19.89-2.77,27.46ZM1193.54,466.73c-6.04-.21-12.17.08-18.17-.64-46.54-5.78-93.15-11.25-139.56-17.89-18.05-2.58-35.46-8.54-53.46-22.38,9.59-1.35,20.06-4.82,21.38-2.67,5.34,8.74,13.47,5.56,20.05,6.83,46.82,9.05,93.77,17.39,140.61,26.31,9.94,1.88,19.62,5.16,29.14,10.44ZM1093.71,427.54c11.46-.76,22.91-1.51,34.39-2.26.37,1.98.73,3.94,1.13,5.93-10.6,15.76-23.72-3-35.16.68-.13-1.45-.24-2.91-.35-4.35ZM1137.32,362.6c21.42,5.43,32.2,8.29,35.94,15.8,3.91,7.86,3.4,19.88-2.79,27.45-1.8,2.21-3.85,3.75-5.73,4.82l-3.68,20.43-1.95-.35,3.43-19.02c-2.14.91-3.78,1.2-4.13,1.26-1.16.19-2.22.23-3.21.18l-1.1,6.05c-5.21-1.64-10.15-3.27-15.12-4.73-6.48-1.87-7.6-6.57-6.15-10.91-.18-.05-.37-.09-.55-.14l-1.06,5.88c-4.41-2.18-8.22-4.4-12.29-5.97-.19-.07-.37-.14-.55-.21-3.73.57-6.53,1.03-9.66-1.44-4.45-3.51-6.88-10.79-7.18-18.45-1.35,5.61-.99,6.15-2.34,7.41-.82.78-1.74,1.32-2.75,1.65l-5.27,29.26c-30.19-4.2-63.48-6.05-93.03-23.52-7.32-4.32-11.13-11.85-11.23-19.55-1.95-.03-3.32-.55-3.99-1.81-1.61-2.97,1.63-8.19,4.67-11.94-3.51-.2-6.67-.4-9.4-.56-2.65-.17-5.35-.35-8.1-.56,3.99,2.29,6.91,5.13,7.81,8.66,1.22,4.86-.41,15.07-.59,16.2-1.01,6.29-1.66,10.02-4.7,13.14-1.89,1.92-4.11,3.03-6.28,3.7l-2.84,15.72-94.81-17.09,2.9-16.1c-.85-.15-1.71-.31-2.58-.45l-2.91,16.13-96.13-17.33c.28-4.63.52-8.69.89-15.26-1.74,6.44-2.84,10.46-4.55,16.7-32.21-7.23-64.03-15.49-96.29-21.32-31.52-5.68-63.46-8.88-98.3-13.59,1.61-5.85,3.13-11.47,4.63-16.96-1.35-.34-2.74-.69-4.17-1.07l-11.7,64.89c.56-.2,1.08-.51,1.54-.93,2.19-2,1.67-5.3,1.63-9.03-.06-5.84,1.13-3.69,3.66-20.3,1.2-7.91,1.38-11.27,2.04-11.28.61-.01,1.09,2.87,1.53,6,.31-3.09.64-6.22.99-9.39l194.13,34.99c-.3,3.93-.56,8.01-1.01,14.38,1.69-5.75,2.73-9.36,4.05-13.79l95.92,17.29c-.64,6.4-1.25,12.65-1.87,18.9.27.03.55.08.81.13,1.44-5.87,2.87-11.76,4.49-18.43l94.3,17-9.63,53.42c-3.38-.38-7.02-.62-10.59-1.24-23.32-4.15-46.66-8.11-69.88-12.83-4.06-.82-7.45-4.92-11.15-7.5l-.45.31c-2.48,1.33-5.21,4.16-7.4,3.79-27.5-4.6-54.97-9.44-82.3-14.95-3.03-.61-6.95-5.54-7.31-8.81-.77-6.66.61-13.56.24-20.55l-3.41,18.95-90.18-16.25c-.05.25-.1.5-.15.75,5.87,2.03,11.34,3.94,16.26,5.7h.02s74.33,13.41,74.33,13.41c-.09,1.12-.17,2.23-.26,3.35-2.14.22-4.37.96-6.42.59-14.45-2.54-28.9-5.05-43.34-7.67,1.61.88,2.43,1.55,2.32,1.98-.11.43-1.26,1.15-20.71-1.41-27.25-3.59-49.3-8.21-65.42-11.79-12.85-2.86-22.72-5.22-42.46-9.98-20.55-4.95-30.82-7.42-35.69-8.77-33.61-9.27-60.46-20.69-67.91-23.88-24.07-10.33-26.1-13.57-38.98-16.34-2.46-.53-6.55-1.3-10.87-4.29-8.39-5.79-14.37-17.6-11.33-27.66.49-1.6,2.26-7.45,6.14-8.21,1.79-.35,3.39.5,5.68,2.74l1.86-10.32,11.28,2.03-3.48,19.29h0c.22.26.44.53.68.8.14.16.28.33.42.48,3.27-2.84,3.84-8.65,4.52-14.41.92-7.94.98-7.93-13.36-12.33,3.61-4.17,5.86-9.29,8.87-9.8,8.95-1.56,17.95-2.82,26.96-3.98-1.65-1.25-2.31-2.28-2.14-3.16.72-3.94,17.66-3.91,30.95-3.74,90.96,1.17,133.7,7.79,133.7,7.79,48.96,7.59,48.56,9.36,94.59,17.11,5.5-1.91,15.79-3.18,23.02-4.07,22.63-2.79,32.57-.43,44.48-1.3,26.36-1.92,30.29-17.3,56.14-27.16,6.59-2.52,12.29-3.78,17.54-4.22,7.14-5.35,14.26-10.72,21.38-16.1-7.92-.29-14.44-1.57-17.8-3.81-2.73,2.22-5.45,4.45-8.17,6.69-32.71,26.94-67.46,46.78-112.16,42.91-20.07-1.73-40.42.01-60.62-.35-6.13-.12-12.23-2.06-18.18-4.47,23.39,0,46.87-1.47,70.11.29,47.91,3.65,86.47-14.63,121.87-45.09,1.6-1.38,3.2-2.75,4.81-4.11h0c.58-2.35,4.44-6.86,20.3-20.6,14.18-12.29,25.75-21.41,30.11-24.85,8.1-6.4,17.21-13.78,35.43-28.56,33.09-26.82,31.31-26.32,35.43-28.55,14.3-7.76,30.3-8.42,62.32-9.73,54.91-2.27,66.86,6.79,72.2,13.01,4.5,5.24,5.04,9.32,5.14,10.25.59,5.3-1.77,10.57-5.73,15.47-2.39,28.07-4.78,56.05-7.17,84.08,1.46.06,2.88.44,4.03,1.34,3.3,2.57,2.9,8.24,1.26,18.86-4.31,28-8.71,35.54-6.69,50.04,1.23,8.84,3.25,8.9,2.48,12.09-.88,3.61-4.2,6.49-9.31,8.76-.06.29-.13.58-.21.89,5.79-5.23,15.86-6.38,19.26-2.59.71.79,1.16,2.45,1.1,3.74,2.42.52,5.17,1.17,8.28,1.95ZM1141.78,322.51c-1.16-.03-2.31-.07-3.48-.09-.35-5.93-.96-11.85-.81-17.76.03-1.22,3.05-3.52,4.35-3.31,1.47.26,3.81,2.95,3.61,4.28-.79,5.68-2.38,11.27-3.67,16.88ZM1333.01,323.14c-.45,17.04-4.56,32.94-12.47,47.9-2.22,4.19-7.29,6.88-11.04,10.26-3.69-4.51-9.1-8.48-10.71-13.65-5.16-16.48,1.36-31.31,9.34-45.44,1.59-2.81,2.89-5.02,4.12-6.73-4.94.49-8.61,2.33-8.94,2.51-7.29,3.78-7.23,9.25-11.46,11.91-.13.08-.25.16-.38.22-4.03,15.03-7.84,29.33-12.04,45.03-16.66-10.06-31.3-18.9-45.97-27.74-.77,1.12-1.55,2.27-2.31,3.39,14.69,9.49,29.4,19.02,44.08,28.51-.46,1.15-.94,2.27-1.41,3.43-2.74-.8-5.9-.97-8.15-2.47-10.11-6.83-19.84-14.22-29.99-20.97-2.43-1.62-5.99-1.54-9.03-2.23-.49,1.33-.99,2.69-1.52,4.04,13.67,9.86,27.3,19.76,41.61,30.09-7.97,2.22-30.47-12.3-46.61-28.94,9.02-19.63,14.5-39.98,15.41-61.24-3.83-1.78-7.68-3.24-11.49-4.42-1.18.2-2.55.43-4.17.72,2.76,4.72,5.13,8.77,7.82,13.36-1.4.29-4.16.84-9.62,1.93,15.32,5.62,8.66,15.17,6.49,22.78-1.01,3.5-6.64,5.66-10.76,8.91.81.57,3.04,2.11,5.2,3.62-3.84,1.01-7.73,2.03-14.08,3.68,4.61,3.09,6.76,4.51,8.9,5.94-.17.45-.37.91-.56,1.34l-10.18-1.83,11.35-62.93c-2.92-.61-5.82-1.09-8.68-1.45-1.8.21-3.97.46-6.98.81,3.38,5.15,6.04,9.15,8.9,13.51-1.94.32-4.58.76-7.1,1.16-3.12,21.92-5.28,30.33-9.61,30.92,3.23,2.15,5.35,3.56,8.75,5.8-3.6.03-6.14-.48-8.29.23-1.9.61-3.38,2.56-5.38,4.2,2.85,1.77,5.11,3.18,7.38,4.58-.21.48-.42.93-.65,1.4l-10.26-1.85,11.13-61.77c-4.79-.21-9.42-.19-13.84-.09,2.33,4.15,4.31,7.67,6.56,11.64-1.14.3-3.84,1.03-9.49,2.53,14.02,3.69,10.11,11.77,7.62,18.35-1.75,4.67-5.93,8.43-9.87,13.78.45.34,1.89,1.4,3.19,2.34-4.88,1.88-9.96,3.8-15.21,5.81l9.77-54.23c-4.11.14-7.98.29-11.56.31,1.24,2.19,3.93,4.53,5.94,7.22-2.18.57-4.67,1.19-9.45,2.42,12.29,4.64,9.26,12.59,6.32,19.54-1.86,4.39-6.03,7.78-10.13,12.82,0,0,2.09,1.2,6.52,3.74-4.67-.19-7.65.53-8.6-.53-2.43-2.69-5.86-6.43-5.47-9.32,1.54-12.14,4.13-24.14,6.24-36.23-7.33-.73-12.6-2.9-15.02-8.39-2.79-6.33-1.18-15.74,3.66-20.3,4.38-4.12,10.51-1.53,21.12-.85,9.6.62,16.72,2.4,24.82,4.47,29.12,7.45,27.1,5.04,29.32,5.29,22.15,2.54,44.48-6.25,47.97-7.65,9.94-4.01,17.14-8.7,21.93-5.37,2.68,1.86,3.37,5.4,4.74,12.5,1.87,9.7.6,13.99,2.33,17.51.11,0,.22,0,.33.02.01.21.01.41.02.62.23.37.51.75.83,1.11,3.48,4,9.34,4.23,10.87,4.29,9.42.36,12.59-7.07,19.68-5.77,5.67,1.04,8.91,6.77,10.05,8.8,5.48,9.7,2.61,23.29-1.83,25.08Z"/>
        <path class="cls-7" d="M794.74,460.25c50.28,9.06,98.74,17.93,147.25,26.43,10.4,1.82,17.56,6.23,23.62,15.52,5.62,8.62,13.77,16.94,22.76,21.67,10.4,5.47,12.75,11.43,9.2,21.49-.83,2.35-1.31,4.83-2.19,8.1-30.9-34.53-72.1-48.96-112.67-64.03-28.54-10.6-57.8-19.26-87.97-29.19Z"/>
        <path class="cls-7" d="M948.17,636.25c2.26-12.54,4.33-24.01,6.49-36.01,5.68,1.02,10.79,1.95,16.85,3.04-2.11,11.7-4.23,23.45-6.49,36.01-5.2-.94-10.61-1.91-16.85-3.04Z"/>
        <path class="cls-7" d="M955.74,639.43c3.7,7.01,8.17,11.75,7.17,14.48-1.37,3.71-6.9,5.89-10.65,8.73-2.55-3.62-7.17-7.3-7.05-10.82.12-3.33,5.22-6.48,10.54-12.39Z"/>
        <path class="cls-7" d="M864.61,439.33l-3.18,17.67-.45.31-92.72-16.71c.16-1.02.32-2.04.5-3.05l90.65,16.34,2.68-14.89c.83.13,1.68.23,2.52.33Z"/>
        <path class="cls-7" d="M949.52,472.92c-27.67-4.99-55.34-9.98-83.01-14.96.13-.73.26-1.47.4-2.2,27.7,4.99,55.39,9.98,83.09,14.98-.16.73-.32,1.46-.47,2.18Z"/>
        <path class="cls-7" d="M1039.61,225.86c-5.5-.99-10.65-1.92-16.65-3,2.11-11.71,4.23-23.46,6.45-35.77,5.51.99,10.65,1.92,16.65,3-2.11,11.71-4.23,23.46-6.45,35.77Z"/>
        <path class="cls-7" d="M1032.93,229.15c1.61,4.25,5.2,9.04,4.23,12.59-.87,3.2-7.22,7.44-10.26,6.82-3.16-.64-7.55-6.81-7.19-10.1.4-3.66,5.55-6.8,8.63-10.16,1.53.29,3.05.57,4.58.86Z"/>
        <path class="cls-7" d="M779.66,339.83c-1.52,8.45-3.05,16.9-4.49,24.9-33.48-6.04-64.48-11.62-95.48-17.21.09-1.22.18-2.45.27-3.67,9.85-1.68,19.56,2.29,29.27,3.67,10.95,1.56,21.81,3.74,32.71,5.68,10.3,1.84,20.6,3.71,30.9,5.56.28-1.35.55-2.71.83-4.06-30.03-5.41-60.05-10.82-89.62-16.15-.52-15.36.22-16.14,12.55-13.89,27.76,5.08,55.51,10.28,83.26,15.43,0,0-.2-.27-.2-.27Z"/>
        <path class="cls-7" d="M784.64,340.67l94.6,17.05h.05c-1.9,5.91-3.82,11.78-5.71,17.71-.04.11-.07.24-.11.35-.23-.16-.44-.29-.66-.47h-.02c-2.87-2.04-5.56-4.85-8.71-5.46-23.17-4.55-46.44-8.58-69.68-12.77l-12.32-2.22,2.56-14.19Z"/>
        <path class="cls-7" d="M1035.49,541.96c10.91,1.97,21.34,3.85,33.22,5.99-1.63,6.54-3,12.06-4.6,18.51-4.64-2.51-7.82-4.46-11.18-6-13.2-6.02-17.12-3.89-19.79,10.81-7.02,38.71-13.95,77.45-20.99,116.16-.79,4.37-2.03,8.65-5.13,12.55,9.47-52.54,18.94-105.08,28.48-158.01Z"/>
        <path class="cls-7" d="M1001.61,360.11c32.98-16.5,64.58-7.07,96.35-4.13-2.83,10.04-5.31,18.79-7.84,27.74-14.22-5.12-28.17-11.15-42.7-15.08-14.11-3.82-28.8-5.47-45.81-8.53Z"/>
        <path class="cls-7" d="M1087.9,414.93c-24.15-4.35-48.29-8.7-72.43-13.06.14-.72.29-1.44.43-2.16,24.15,4.35,48.29,8.7,72.44,13.06-.15.72-.29,1.44-.44,2.16Z"/>
        <path class="cls-7" d="M1077.9,474.32c-3.39,9.31-6.5,17.84-9.04,24.82-28.1-10.9-55.8-21.65-82.25-31.91,8.31-8.59,53.03-6.55,91.3,7.1Z"/>
        <path class="cls-7" d="M988.46,506.76c27.18,8.47,52.4,16.33,77.62,24.19-27.07-2.49-52.86-8.67-77.62-24.19Z"/>
        <path class="cls-7" d="M1085.72,274.84c10.24,3.15,17.76,5.46,25.62,7.87-1.77,20.29-3.45,39.55-5.19,59.53-11.86-1.16-22.71-2.22-34.29-3.35,9.6-53.26,19.12-106.09,28.64-158.92.76.1,1.51.2,2.27.31-5.67,31.44-11.33,62.87-17.04,94.56Z"/>
        <path class="cls-7" d="M965.09,387.28c-28.59-5.15-56.24-10.14-84.6-15.25,1.09-4.56,2.04-8.51,3.12-13.05,28.05,5.06,55.69,10.04,83.85,15.11-.77,4.28-1.49,8.28-2.38,13.19Z"/>
        <path class="cls-7" d="M965.74,394.05c-2.96,2.19-5.11,5.04-6.66,4.75-27.16-5.13-54.25-10.65-81.35-16.13-.13-.03-.15-.66-.22-1.01,5.14-4.29,60.91,3.26,88.22,12.39Z"/>
        <path class="cls-7" d="M1019.87,555.3q-9.73-3.15-5.64-18.84c2.72.28,5.54.58,8.87.93-1.14,6.34-2.18,12.12-3.23,17.92Z"/>
        <path class="cls-7" d="M1071.15,273.21c-3.93,21.79-6.86,39.47-10.53,57-.58,2.76-4.46,4.82-6.81,7.21-1.24-.79-2.47-1.57-3.71-2.36,3.43-19.03,6.67-38.1,10.61-57.02.36-1.73,5.24-2.52,10.44-4.82Z"/>
      </g>
    </g>
    <rect class="cls-4" y=".57" width="2306.42" height="1079.43"/>
  </g>
</svg>