<?xml version="1.0" encoding="UTF-8"?>
<svg id="Ebene_2" data-name="Ebene 2" xmlns="http://www.w3.org/2000/svg" viewBox="0 0 60.24 60.24">
  <defs>
    <style>
      .cls-1 {
        fill: #721c46;
      }

      .cls-1, .cls-2, .cls-3, .cls-4, .cls-5, .cls-6, .cls-7, .cls-8, .cls-9 {
        stroke-width: 0px;
      }

      .cls-2 {
        fill: #1d2f3b;
      }

      .cls-3 {
        fill: #d29420;
      }

      .cls-4, .cls-10 {
        fill: #c83837;
      }

      .cls-10 {
        stroke: #1d2f3b;
        stroke-miterlimit: 10;
        stroke-width: .24px;
      }

      .cls-5 {
        fill: #4ea2ac;
      }

      .cls-6 {
        fill: #f2d0b4;
      }

      .cls-7 {
        fill: #fed584;
      }

      .cls-8 {
        fill: #4dad6e;
      }

      .cls-9 {
        fill: #f37633;
      }
    </style>
  </defs>
  <g id="Ebene_4" data-name="Ebene 4">
    <g>
      <path class="cls-2" d="M50.1,37.5c-.82,2.07-1.98,3.94-3.38,5.67-.32.4-.73.57-1.21.63-1.09.12-2.07-.16-2.89-.86-.76-.65-1.65-1.02-2.52-1.41-2.03-.92-4.16-1.57-6.3-2.18-.25-.07-.49-.08-.73,0-.83.3-1.54.08-2.15-.51-.41-.4-.95-.46-1.48-.55-.72-.13-1.45-.25-2.17-.4-.32-.07-.47.04-.56.32-.18.51-.27,1.01-.13,1.56.29,1.15-.23,2-1.33,2.21-1.19.23-2.27-.48-2.42-1.59-.1-.74.12-1.42.44-2.08.07-.14.16-.27.23-.41.22-.43.16-.54-.32-.6-1.17-.13-2.34-.22-3.51-.3-.87-.06-1.73,0-2.6-.04-.41-.01-.6.17-.74.5-.44,1.01-.46,2.06-.39,3.14.03.44.13.87-.02,1.34-.22.72-.76,1.18-1.57,1.16-.78-.02-1.32-.48-1.44-1.22-.09-.55.08-1.05.31-1.54.18-.38.39-.75.49-1.17.23-.94-.3-1.64-1.27-1.61-.66.02-1.31.09-1.96.18-.44.06-.84-.06-1.21-.22-.41-.17-.45-.57-.38-.96.17-.93.66-1.72,1.19-2.48.73-1.06,1.53-2.06,2.4-3,.25-.27.33-.44-.02-.72-.61-.49-.97-1.18-1.28-1.89-.14-.32-.01-.44.29-.46.8-.06,1.6-.21,2.37.22.33.18.66.19.77-.33.08-.38.3-.72.5-1.06.2-.33.34-.25.5.01.34.55.34.55.82.13,2.55-2.2,5.51-3.68,8.61-4.92,3.63-1.45,7.39-2.46,11.23-3.19.52-.1.53-.14.29-.59-.44-.83.03-2.05.86-2.47.94-.47,1.85-.36,2.81-.11,5.03,1.3,7.97,4.8,9.87,9.38.94,2.27,1.34,4.66,1.18,7.12-.12,1.83-.49,3.6-1.18,5.3ZM36.64,19.36h.01c-.5.05-.99.11-1.46.31h0c-.16-.08-.31,0-.45.04-3.32.72-6.58,1.65-9.73,2.93-3.03,1.23-5.9,2.71-8.4,4.86-.42.36-.57.69-.31,1.19-.08.49-.05,1.01-.46,1.39-.11.1-.04.2.05.28.12.11.24.2.35.31.22.23.3.53.04.74-.23.19-.53.22-.75-.1-.15-.22-.28-.21-.43.06-.3.53-.78.84-1.38.94-.26.04-.53.05-.79.07h0s-.06.02-.09.03c-.32.13-.73-.13-.99.2-.86,1.08-1.75,2.13-2.27,3.43-.06.15-.22.32-.06.47.15.14.37.12.55,0,.36.03.72-.03,1.07-.09,1.79-.32,3.51-.87,5.22-1.48,2.67-.95,5.41-.83,8.16-.39-.36,0-.71-.03-1.07-.07-3.16-.37-6.16.3-9.08,1.44-1.46.57-2.96,1-4.55,1.03-.08,0-.21-.07-.23.08-.02.14.11.13.2.13.23,0,.47,0,.7,0,.75.05,1.47-.26,2.23-.17,1.15.14,1.85,1.16,1.51,2.27-.15.48-.37.93-.57,1.39-.12.29-.23.58-.22.91.01.64.48,1.04,1.12.95.67-.09,1.01-.57.91-1.33-.13-1.05-.16-2.09.09-3.13.34-1.42,1.25-2.4,2.75-2.62,1.04-.16,2.07-.11,3.08.08.69.13,1.37.33,1.97.73.8.54.95,1.05.56,1.92-.15.34-.31.69-.44,1.04-.15.4-.2.82-.08,1.25.2.73.99,1.14,1.8.95.77-.18,1.04-.66.84-1.54-.17-.77-.07-1.5.3-2.19.61-1.14,1.79-1.54,2.96-1.02.6.27,1.05.73,1.46,1.22.93,1.12,1.28,1.25,2.63.76,1.37-.49,2.75-.43,4.09-.02,1,.3,2.04.47,3.01.89.17.07.3.06.37-.15.06-.17.07-.31-.12-.39-.09-.04-.17-.08-.26-.11-1.16-.47-2.35-.87-3.53-1.28-.52-.18-1.08-.25-1.56-.56.08-.03.15-.03.21-.02,1.66.35,3.26.92,4.89,1.39.73.21.94.2,1.34-.45,1.24-1.99,2.18-4.11,2.44-6.48.27-2.51-.24-4.84-1.58-6.99-1.33-2.13-3.12-3.78-5.25-5.09-.19-.12-.39-.21-.61-.07-.07,0-.14,0-.21.01ZM12.75,32.04c.36.03.71-.02,1.05-.14.39-.13.76-.28.95-.68.2-.41.13-.53-.33-.57-.29-.32-.59-.09-.79.07-.47.39-.94.79-1.24,1.36.13.01.25.04.36-.04ZM14.76,29.34c.19.18.48.3.37.68.5-.14.68-.47.73-.88.06-.54-.03-1.05-.37-1.5.01-.15,0-.3-.17-.41-.37.67-.64,1.34-.55,2.11ZM14.32,28.98c.04-.38-.29-.4-.5-.48-.72-.25-1.47-.25-2.21-.14,0,.16.07.26.19.32.09.41.36.72.62,1.04.65.78.78.81,1.72.36-.25-.32-.69-.43-.94-.88.25.1.4.17.56.23.19.07.42.27.55.17.18-.13.02-.4,0-.61ZM46.93,40.95c.06.23.13.46.2.74.91-1.15,1.6-2.33,2.16-3.59.83-1.85,1.38-3.79,1.46-5.83.2-4.88-1.39-9.09-4.74-12.65-1.08-1.15-2.36-2.05-3.78-2.73-1.19-.57-2.44-.99-3.8-.87-1.18.1-1.77,1.02-1.39,2.13.12.32.34.54.63.73,1.84,1.13,3.48,2.5,4.78,4.25,1.93,2.58,2.8,5.46,2.36,8.69-.27,2-.99,3.84-1.96,5.59-.13.23-.28.4.14.46.35.06.69.19,1.01.36,1.22.64,2.19,1.55,2.91,2.72ZM43.81,43.01c.63.27,1.27.36,1.93.18.46-.13.79-.54.83-1.03.03-.46-.12-.86-.36-1.24-.67-1.05-1.61-1.78-2.72-2.3-1.08-.5-1.82-.11-2.09,1.05-.09.36-.03.72.11,1.06.44,1.09,1.3,1.77,2.32,2.27ZM41.08,41.36c-.09-.27-.19-.44-.2-.62-.03-.43-.27-.62-.66-.73-.49-.14-.97-.34-1.47-.48-1.2-.33-2.4-.73-3.67-.64-.16.01-.44-.05-.45.12-.01.27.26.1.4.13.06.01.12.03.18.05.88.29,1.77.54,2.63.87,1.05.39,2.09.84,3.23,1.31ZM22.86,36.65c-1.4-.72-2.87-.87-4.39-.67-.19.03-.37.07-.55.11-.07.02-.17.05-.17.14,0,.12.12.12.21.13.44.02.87.02,1.31.05,1.2.07,2.39.16,3.59.24ZM29.96,37.84c-.33-.37-.62-.54-.93-.68-.45-.2-.9-.23-1.36-.01-.06.03-.11.1-.16.15.05.03.09.09.14.1.73.14,1.46.28,2.31.44Z"/>
      <path class="cls-5" d="M36.85,19.35c.22-.14.42-.05.61.07,2.12,1.31,3.91,2.96,5.25,5.09,1.35,2.15,1.86,4.48,1.58,6.99-.26,2.37-1.2,4.48-2.44,6.48-.4.65-.62.66-1.34.45-1.63-.47-3.23-1.04-4.89-1.39-.07-.01-.14-.01-.21.02.48.3,1.04.38,1.56.56,1.18.41,2.37.8,3.53,1.28.09.04.17.07.26.11.19.08.18.22.12.39-.07.21-.2.22-.37.15-.96-.42-2.01-.59-3.01-.89-1.35-.4-2.72-.47-4.09.02-1.35.48-1.7.36-2.63-.76-.41-.5-.86-.95-1.46-1.22-1.17-.53-2.35-.12-2.96,1.02-.37.69-.47,1.42-.3,2.19.19.87-.08,1.36-.84,1.54-.81.19-1.6-.23-1.8-.95-.12-.42-.07-.84.08-1.25.13-.35.29-.69.44-1.04.39-.87.24-1.38-.56-1.92-.6-.41-1.28-.6-1.97-.73-1.02-.19-2.05-.24-3.08-.08-1.51.23-2.42,1.2-2.75,2.62-.24,1.04-.22,2.08-.09,3.13.1.76-.24,1.24-.91,1.33-.64.09-1.11-.31-1.12-.95,0-.32.1-.61.22-.91.2-.46.42-.91.57-1.39.35-1.11-.35-2.13-1.51-2.27-.76-.09-1.48.22-2.23.17-.23-.01-.47,0-.7,0-.08,0-.22.01-.2-.13.02-.14.14-.07.23-.08,1.59-.02,3.09-.45,4.55-1.03,2.92-1.15,5.91-1.81,9.08-1.44.35.04.71.06,1.07.07-2.74-.45-5.48-.56-8.16.39-1.71.61-3.43,1.16-5.22,1.48-.35.06-.71.12-1.07.09,0-.43.22-.78.43-1.12.69-1.06,1.46-2.06,2.33-2.98.03-.01.06-.02.09-.03,0,0,0,0,0,0,.26-.02.53-.03.79-.07.6-.1,1.09-.4,1.38-.94.15-.27.28-.28.43-.06.22.32.53.29.75.1.26-.21.18-.51-.04-.74-.11-.11-.23-.21-.35-.31-.09-.08-.16-.18-.05-.28.4-.38.38-.9.46-1.39.05-.06.09-.13.14-.19,1.8-1.78,3.96-3.05,6.19-4.19.16-.08.28-.09.4.09.3.44.75.54,1.24.47.84-.11,1.6-.82,1.51-1.47-.05-.38.09-.48.39-.6,2.81-1.12,5.68-2.03,8.59-2.86.17-.05.39-.03.45-.26,0,0,0,0,0,0,.53.12,1.01-.05,1.46-.32,0,0-.01,0-.01,0,.07,0,.14,0,.21-.01ZM40.61,25.57c.81-1.63-.06-3.1-1.33-3.75-2.05-1.05-4.68-.45-6,1.31-.98,1.3-.84,2.92.38,4.01.68.61,1.5.84,2.4.95,1.7.22,4.16-.94,4.56-2.51ZM27.78,26.59c-.46-.19-.93-.26-1.45-.27-1.23,0-2.33.33-3.24,1.15-1.6,1.43-1.39,3.6.44,4.68.59.35,1.24.51,1.96.46.78-.05,1.54-.07,2.26-.44,1.01-.53,1.73-1.29,2-2.42.31-1.3-.49-2.58-1.97-3.17ZM30.03,25.8c.16.06.32.14.48.19.22.07.37-.02.41-.25.11-.7.25-1.41.08-2.13-.13-.57-.45-.97-.99-1.16-.49-.18-1.01-.19-1.53-.13-.19.02-.31.12-.36.31-.15.58-.14,1.14.15,1.69.38.73,1.02,1.16,1.76,1.47ZM18.71,27.73c-.25.65-.31,1.24-.37,1.83-.03.34.13.43.44.44.41,0,.8-.14,1.18-.25.84-.24,1.46-.77,1.74-1.62.28-.85.15-1.09-.71-1.33-.81-.23-2.01.02-2.28.93ZM32.01,34.32c.89.35,1.73.34,2.49-.33.11-.1.25-.2.26-.37.03-.38-.98-1.51-1.38-1.59-1.13-.23-1.86.49-2.62,1.12-.15.13-.1.27.05.39.37.32.75.61,1.2.79ZM40.55,33.33c.76.32.82.3.91-.38.05-.34.09-.68.07-1.02-.04-.63-.22-1.2-.9-1.45-.44-.16-.88-.17-1.34-.11-.13.02-.22.04-.26.2-.1.43-.14.84.03,1.27.3.76.89,1.21,1.48,1.49Z"/>
      <path class="cls-9" d="M46.93,40.95c-.72-1.17-1.69-2.08-2.91-2.72-.32-.17-.66-.3-1.01-.36-.42-.07-.27-.24-.14-.46.98-1.75,1.7-3.59,1.96-5.59.43-3.23-.43-6.11-2.36-8.69-1.3-1.74-2.94-3.11-4.78-4.25-.29-.18-.51-.41-.63-.73.32-.82.76-1.48,1.77-1.48.24,0,.51-.1.44.34-.03.21.21.34.39.43.32.17.65.3,1.02.32.43.02.89.15,1.12-.4.04-.11.12-.05.19-.01.57.26,1.13.53,1.65.88,2.22,1.45,3.85,3.39,5.03,5.75,1.24,2.49,1.88,5.1,1.73,7.88-.14,2.61-.95,5.02-2.25,7.27-.36.63-.64,1.33-1.22,1.82ZM45.76,35.56c.8.23,1.46.61,2.04,1.14-.26-.73-1.13-1.21-2.04-1.14ZM46.62,34.47c.58.12,1.04.48,1.56.73-.34-.61-.87-.83-1.56-.73ZM41.4,19.71c.38-.43.85-.73,1.39-1.03-.72-.01-1.19.34-1.39,1.03ZM40.92,18.98c.25-.25.5-.51.82-.84-.58.09-.81.37-.82.84Z"/>
      <path class="cls-9" d="M43.81,43.01c-1.02-.5-1.88-1.18-2.32-2.27-.14-.34-.2-.69-.11-1.06.28-1.16,1.01-1.55,2.09-1.05,1.11.51,2.05,1.25,2.72,2.3.24.38.39.78.36,1.24-.03.48-.36.9-.83,1.03-.66.18-1.3.09-1.93-.18Z"/>
      <path class="cls-6" d="M46.93,40.95c.58-.49.85-1.19,1.22-1.82,1.3-2.25,2.11-4.67,2.25-7.27.15-2.78-.48-5.39-1.73-7.88-1.18-2.36-2.82-4.31-5.03-5.75-.52-.34-1.09-.61-1.65-.88-.07-.03-.15-.09-.19.01-.22.55-.69.42-1.12.4-.37-.02-.7-.15-1.02-.32-.18-.09-.42-.22-.39-.43.06-.44-.2-.34-.44-.34-1.01,0-1.45.66-1.77,1.48-.38-1.1.2-2.03,1.39-2.13,1.35-.11,2.6.3,3.8.87,1.42.67,2.7,1.58,3.78,2.73,3.35,3.55,4.94,7.77,4.74,12.65-.09,2.04-.63,3.97-1.46,5.83-.56,1.26-1.25,2.44-2.16,3.59-.08-.28-.14-.51-.2-.74Z"/>
      <path class="cls-6" d="M35.19,19.68c-.06.24-.28.22-.45.26-2.9.83-5.78,1.74-8.59,2.86-.29.12-.44.22-.39.6.09.65-.67,1.36-1.51,1.47-.49.07-.94-.02-1.24-.47-.12-.18-.24-.17-.4-.09-2.24,1.15-4.39,2.41-6.19,4.19-.06.05-.1.12-.14.19-.26-.49-.1-.83.31-1.19,2.5-2.15,5.38-3.63,8.4-4.86,3.15-1.28,6.41-2.21,9.73-2.93.15-.03.29-.12.45-.04Z"/>
      <path class="cls-9" d="M41.08,41.36c-1.14-.47-2.18-.91-3.23-1.31-.86-.32-1.75-.58-2.63-.87-.06-.02-.12-.04-.18-.05-.15-.03-.41.14-.4-.13,0-.17.29-.11.45-.12,1.27-.09,2.47.31,3.67.64.5.14.97.34,1.47.48.38.11.63.29.66.73.01.18.11.35.2.62Z"/>
      <path class="cls-8" d="M14.32,28.98c.01.21.17.48,0,.61-.14.1-.37-.11-.55-.17-.16-.06-.32-.13-.56-.23.25.46.69.57.94.88-.94.45-1.07.42-1.72-.36-.26-.31-.52-.62-.62-1.04.88-.2,1.72-.17,2.52.29Z"/>
      <path class="cls-6" d="M12.83,32.41c-.87.92-1.64,1.92-2.33,2.98-.22.34-.44.69-.43,1.12-.19.12-.4.14-.55,0-.16-.14,0-.32.06-.47.52-1.3,1.41-2.36,2.27-3.43.26-.32.67-.06.99-.2Z"/>
      <path class="cls-9" d="M22.86,36.65c-1.2-.08-2.39-.16-3.59-.24-.44-.03-.87-.03-1.31-.05-.09,0-.2,0-.21-.13,0-.09.09-.12.17-.14.18-.04.37-.09.55-.11,1.52-.21,2.99-.05,4.39.67Z"/>
      <path class="cls-8" d="M15.49,27.64c.34.45.43.96.37,1.5-.05.41-.23.74-.73.88.11-.38-.18-.49-.37-.68.15-.06.12-.2.14-.32.09-.5.21-1,.59-1.39Z"/>
      <path class="cls-8" d="M14.42,30.65c.46.05.52.16.33.57-.19.4-.56.55-.95.68-.34.12-.69.17-1.05.14.36-.7.9-1.18,1.67-1.39Z"/>
      <path class="cls-9" d="M29.96,37.84c-.85-.16-1.58-.3-2.31-.44-.05-.01-.1-.06-.14-.1.05-.05.1-.12.16-.15.45-.22.9-.19,1.36.01.32.14.61.31.93.68Z"/>
      <path class="cls-6" d="M14.32,28.98c-.8-.47-1.65-.5-2.52-.29-.12-.06-.19-.16-.19-.32.75-.11,1.49-.11,2.21.14.21.07.54.1.5.48Z"/>
      <path class="cls-6" d="M14.42,30.65c-.77.21-1.31.69-1.67,1.39-.11.07-.23.05-.36.04.3-.56.78-.97,1.24-1.36.19-.16.5-.39.79-.07Z"/>
      <path class="cls-6" d="M15.49,27.64c-.38.38-.49.88-.59,1.39-.02.12.01.26-.14.32-.09-.77.18-1.45.55-2.11.18.11.19.26.17.41Z"/>
      <path class="cls-6" d="M36.65,19.36c-.45.27-.92.43-1.46.32.46-.21.96-.27,1.46-.32Z"/>
      <path class="cls-7" d="M36.85,19.35c-.07,0-.14,0-.21.01.07,0,.14,0,.21-.01Z"/>
      <path class="cls-7" d="M12.92,32.38s0,0,0,0,0,0,0,0Z"/>
      <path class="cls-4" d="M40.61,25.57c-.4,1.57-2.86,2.73-4.56,2.51-.89-.11-1.71-.34-2.4-.95-1.22-1.08-1.36-2.7-.38-4.01,1.32-1.75,3.95-2.36,6-1.31,1.27.65,2.14,2.13,1.33,3.75ZM37.62,21.8c-1.52-.28-3.28.48-4.14,1.8-.57.87-.53,1.92.1,2.75.06-.07.05-.14.01-.22-.65-1.28.1-2.69.98-3.36.89-.69,1.91-.93,3.01-.93.34.15.7.13,1.05.2-.32-.16-.64-.31-1.02-.26ZM35.04,25.63c-.21.08-.39.13-.35.36.01.09.09.13.17.1.21-.07.19-.25.18-.46ZM38.08,23.55c.18-.15.39-.15.36-.39,0-.09-.08-.14-.17-.12-.22.06-.21.24-.2.51ZM36.29,22.78c-.12-.02-.23.01-.25.14-.03.14.03.28.15.36.13.08.19-.04.22-.14.03-.13.04-.27-.12-.35ZM37.99,26.4c.04-.13-.02-.24-.11-.32-.09-.08-.14,0-.17.07-.05.11-.09.24.03.33.09.06.17,0,.24-.08ZM38.68,25.46c-.09-.03-.2-.08-.23.05-.03.14.03.28.16.35.1.06.22.03.26-.09.06-.17-.06-.25-.2-.31ZM39.12,23.88c.03-.11,0-.2-.1-.22-.14-.04-.23.06-.3.16-.06.08-.02.14.07.16.13.03.24,0,.33-.1ZM34.72,24.98c-.22-.04-.39-.08-.48.12-.03.07,0,.16.09.18.21.05.28-.11.39-.3ZM35.31,23.2c-.11-.03-.2-.01-.22.1-.03.13.06.2.17.24.07.03.18.06.2-.03.03-.12-.03-.24-.14-.31ZM34.9,24.18c-.18-.11-.28-.27-.47-.11-.03.03-.04.13-.01.17.15.18.29.06.48-.05ZM39.01,24.9c.11.04.22.04.28-.08.05-.12,0-.22-.12-.25-.12-.03-.27-.02-.33.11-.06.13.07.18.17.23ZM39.25,22.41s.02-.03.01-.03c-.02-.02-.04-.03-.06-.05,0,.01-.01.03-.01.03.02.02.03.03.05.05Z"/>
      <path class="cls-4" d="M27.78,26.59c1.48.59,2.28,1.87,1.97,3.17-.27,1.12-.98,1.89-2,2.42-.72.37-1.48.39-2.26.44-.73.05-1.37-.11-1.96-.46-1.83-1.08-2.04-3.25-.44-4.68.91-.82,2.01-1.16,3.24-1.15.51,0,.98.08,1.45.27ZM24.7,27.15s.08-.04.12-.05c.04-.02.09-.04.13-.06.43-.08.86-.15,1.29-.23.26.04.53.08.79.11-.25-.18-.52-.21-.8-.17-.45,0-.89.03-1.31.22-.04.01-.09.03-.13.04-.04.02-.08.03-.12.05-.04.02-.08.03-.12.05-1.79.64-2.64,2.58-1.65,3.81,0-.03.03-.06.02-.09-.01-.06-.03-.12-.05-.18-.25-.63-.2-1.25.08-1.86.34-.75.98-1.19,1.64-1.61.04-.02.07-.03.11-.05Z"/>
      <path class="cls-2" d="M30.03,25.8c-.74-.31-1.37-.74-1.76-1.47-.28-.54-.29-1.11-.15-1.69.05-.2.16-.29.36-.31.52-.06,1.04-.05,1.53.13.53.19.86.59.99,1.16.17.72.03,1.42-.08,2.13-.04.23-.19.32-.41.25-.16-.05-.32-.13-.48-.19ZM29.94,24.06c-.34-.29-.56-.71-.95-.96-.13-.08-.27-.22-.43-.13-.16.09-.11.28-.09.43.07.82,1.07,1.9,1.84,1.99.19.02.2-.09.22-.22.08-.47.1-.94.01-1.4-.12-.62-.44-.89-1.04-.89.18.38.53.67.51,1.13-.02.01-.05.03-.07.04Z"/>
      <path class="cls-2" d="M18.71,27.73c.27-.91,1.47-1.16,2.28-.93.85.24.99.48.71,1.33-.28.85-.91,1.37-1.74,1.62-.38.11-.76.26-1.18.25-.31,0-.47-.09-.44-.44.06-.59.12-1.18.37-1.83ZM19.65,28.29c-.03-.3.23-.42.27-.61.04-.15.35-.23.16-.4-.14-.12-.36-.01-.52.09-.13.09-.23.2-.31.35-.24.48-.36.99-.41,1.53-.01.13-.04.24.16.26.69.05,1.89-.68,2.16-1.35.08-.2.26-.46.09-.6-.15-.13-.41.04-.6.14-.33.18-.66.39-1.01.6Z"/>
      <path class="cls-2" d="M32.01,34.32c-.46-.18-.84-.47-1.2-.79-.15-.13-.2-.26-.05-.39.76-.63,1.48-1.35,2.62-1.12.4.08,1.41,1.21,1.38,1.59-.01.17-.15.27-.26.37-.75.67-1.6.68-2.49.33ZM33.81,32.85c-.52-.57-.98-.62-1.76-.14-.27.16-.73.25-.72.58,0,.32.46.42.74.57.62.34,1.26.39,1.89-.03.2-.14.21-.23,0-.37-.3-.19-.65-.2-.97-.32-.08-.03-.21,0-.21-.13,0-.17.16-.1.25-.13.25-.09.51.17.79-.03Z"/>
      <path class="cls-2" d="M40.55,33.33c-.6-.28-1.18-.72-1.48-1.49-.17-.43-.13-.84-.03-1.27.04-.17.13-.19.26-.2.45-.06.9-.05,1.34.11.67.25.86.82.9,1.45.02.34-.02.68-.07,1.02-.09.67-.16.7-.91.38ZM40.18,30.8c.14.25.26.45.36.65.04.08.1.18-.02.24-.08.04-.15-.03-.2-.09-.18-.22-.38-.41-.62-.57-.09-.06-.18-.16-.29-.1-.11.06-.09.19-.09.3.02.66.38,1.1.91,1.44.23.15.48.44.74.31.24-.12.13-.49.15-.74.05-.68-.13-1.31-.95-1.43Z"/>
      <path class="cls-2" d="M45.76,35.56c.92-.07,1.78.41,2.04,1.14-.58-.52-1.24-.9-2.04-1.14Z"/>
      <path class="cls-2" d="M46.62,34.47c.68-.11,1.21.12,1.56.73-.52-.24-.98-.6-1.56-.73Z"/>
      <path class="cls-2" d="M41.4,19.71c.2-.7.68-1.05,1.39-1.03-.54.3-1.02.6-1.39,1.03Z"/>
      <path class="cls-2" d="M40.92,18.98c.01-.47.24-.75.82-.84-.33.33-.57.59-.82.84Z"/>
      <path class="cls-6" d="M37.58,21.85c-1.1,0-2.12.24-3.01.93-.88.68-1.63,2.08-.98,3.36.04.07.05.15-.01.22-.63-.83-.67-1.88-.1-2.75.87-1.32,2.62-2.09,4.14-1.8-.02.01-.03.03-.04.05Z"/>
      <path class="cls-6" d="M35.04,25.63c0,.21.03.38-.18.46-.09.03-.16-.02-.17-.1-.04-.23.14-.27.35-.36Z"/>
      <path class="cls-6" d="M38.08,23.55c0-.27-.02-.45.2-.51.09-.02.16.03.17.12.03.24-.18.24-.36.39Z"/>
      <path class="cls-6" d="M37.58,21.85s.02-.04.04-.05c.37-.05.7.09,1.02.26-.35-.08-.72-.06-1.05-.2Z"/>
      <path class="cls-6" d="M36.29,22.78c.16.07.15.22.12.35-.02.1-.08.23-.22.14-.12-.07-.18-.21-.15-.36.02-.13.13-.15.25-.14Z"/>
      <path class="cls-6" d="M37.99,26.4c-.06.09-.15.14-.24.08-.12-.09-.09-.22-.03-.33.03-.06.08-.16.17-.07.09.09.14.2.11.32Z"/>
      <path class="cls-6" d="M38.68,25.46c.13.06.25.14.2.31-.04.12-.16.15-.26.09-.13-.07-.19-.21-.16-.35.02-.12.14-.07.23-.05Z"/>
      <path class="cls-6" d="M39.12,23.88c-.09.11-.2.13-.33.1-.1-.02-.13-.08-.07-.16.07-.1.17-.2.3-.16.1.03.13.12.1.22Z"/>
      <path class="cls-6" d="M34.72,24.98c-.1.19-.18.35-.39.3-.08-.02-.12-.11-.09-.18.09-.2.26-.16.48-.12Z"/>
      <path class="cls-6" d="M35.31,23.2c.11.07.18.18.14.31-.02.09-.13.06-.2.03-.11-.04-.2-.11-.17-.24.03-.11.12-.13.22-.1Z"/>
      <path class="cls-6" d="M34.9,24.18c-.19.11-.32.23-.48.05-.03-.03-.02-.14.01-.17.18-.16.29,0,.47.11Z"/>
      <path class="cls-6" d="M39.01,24.9c-.1-.05-.23-.1-.17-.23.06-.13.2-.14.33-.11.12.03.17.13.12.25-.06.12-.17.12-.28.08Z"/>
      <path class="cls-3" d="M39.25,22.41s-.04-.03-.05-.05c0,0,0-.02.01-.03.02.02.04.03.06.05,0,0,0,.02-.01.03Z"/>
      <path class="cls-6" d="M24.59,27.19c-.67.41-1.3.86-1.64,1.61-.28.61-.34,1.23-.08,1.86.02.06.04.12.05.18,0,.03-.01.06-.02.09-.98-1.23-.14-3.18,1.65-3.81.02.03.03.06.05.09Z"/>
      <path class="cls-6" d="M26.24,26.8c-.43.08-.86.15-1.29.23,0-.02-.02-.04-.03-.06.41-.2.86-.23,1.31-.22,0,0-.01.03-.01.03l.02.02Z"/>
      <path class="cls-6" d="M26.24,26.8l-.02-.02s.01-.03.01-.03c.28-.04.55-.01.8.17-.26-.04-.53-.08-.79-.11Z"/>
      <path class="cls-6" d="M24.79,27.01s.09-.03.13-.04c.01.02.02.04.03.06-.04.02-.09.04-.13.06,0-.03-.01-.06-.03-.08Z"/>
      <path class="cls-6" d="M24.82,27.09s-.08.04-.12.05c0-.03-.01-.06-.03-.09.04-.02.08-.03.12-.05.01.03.02.05.03.08Z"/>
      <path class="cls-6" d="M24.55,27.11l.12-.05s.02.06.03.09c-.04.02-.07.03-.11.05-.02-.03-.03-.06-.05-.09Z"/>
      <path class="cls-8" d="M30.01,24.03c.02-.46-.32-.76-.51-1.13.61,0,.93.27,1.04.89.09.46.07.93-.01,1.4-.02.13-.03.24-.22.22-.77-.1-1.78-1.18-1.84-1.99-.01-.15-.07-.34.09-.43.15-.09.3.05.43.13.39.24.6.67.95.96.01.07.05.14.11.09.07-.04,0-.1-.04-.13Z"/>
      <path class="cls-8" d="M19.65,28.29c.36-.21.68-.42,1.01-.6.19-.1.45-.27.6-.14.17.14-.01.41-.09.6-.28.67-1.47,1.4-2.16,1.35-.2-.02-.17-.13-.16-.26.04-.53.17-1.04.41-1.53.07-.14.18-.26.31-.35.16-.11.38-.21.52-.09.2.17-.12.25-.16.4-.05.2-.3.31-.27.61ZM19.51,28.37v.02s.03-.02.03-.02h-.03Z"/>
      <path class="cls-8" d="M33.81,32.85c-.28.21-.54-.06-.79.03-.09.03-.25-.04-.25.13,0,.12.13.1.21.13.32.12.68.13.97.32.21.14.21.23,0,.37-.63.42-1.27.36-1.89.03-.28-.15-.73-.25-.74-.57,0-.32.45-.41.72-.58.78-.48,1.24-.44,1.76.14Z"/>
      <path class="cls-8" d="M40.18,30.8c.82.12.99.75.95,1.43-.02.26.09.62-.15.74-.26.13-.51-.16-.74-.31-.52-.34-.89-.78-.91-1.44,0-.11-.02-.24.09-.3.11-.06.2.04.29.1.24.16.43.36.62.57.05.06.12.13.2.09.11-.06.06-.16.02-.24-.11-.2-.22-.4-.36-.65Z"/>
      <path class="cls-1" d="M30.01,24.03c.05.03.11.09.04.13-.06.04-.1-.03-.11-.09.02-.01.05-.02.07-.04Z"/>
      <polygon class="cls-1" points="19.51 28.37 19.54 28.37 19.53 28.39 19.51 28.37"/>
    </g>
    <path class="cls-10" d="M15.06,48.78l-4.08-1.5,1.17-1.29c.89,1.01,1.86,1.94,2.91,2.78Z"/>
    <path class="cls-10" d="M30.12.12C13.55.12.12,13.55.12,30.12s13.43,30,30,30,30-13.43,30-30S46.69.12,30.12.12ZM6.14,30.12c0-13.24,10.74-23.98,23.98-23.98,5.15,0,9.93,1.63,13.84,4.39l-.35.38L11.82,45.62c-3.54-4.18-5.68-9.59-5.68-15.5ZM30.12,54.1c-5.47,0-10.52-1.83-14.56-4.92L47.48,14.34l.35-.39c3.89,4.26,6.27,9.94,6.27,16.16,0,13.24-10.74,23.98-23.98,23.98Z"/>
  </g>
</svg>