<?xml version="1.0" encoding="UTF-8"?>
<svg id="Ebene_2" data-name="Ebene 2" xmlns="http://www.w3.org/2000/svg" viewBox="0 0 653.55 1030.6">
  <defs>
    <style>
      .cls-1 {
        fill: #000;
      }

      .cls-1, .cls-2, .cls-3, .cls-4, .cls-5, .cls-6, .cls-7 {
        stroke-width: 0px;
      }

      .cls-2 {
        fill: #1d2f3b;
      }

      .cls-3 {
        fill: #c83837;
      }

      .cls-4 {
        fill: #4ea2ac;
      }

      .cls-5 {
        fill: #f2d0b4;
      }

      .cls-6 {
        fill: #fff;
      }

      .cls-7 {
        fill: #f37633;
      }
    </style>
  </defs>
  <g id="Ebene_5" data-name="Ebene 5">
    <path class="cls-2" d="M360.83,534.81c-.15.28-.25.53-.38.8l.4.3v-.25c0-.28,0-.58-.03-.85ZM380.32,538.05c.25.08.48.18.7.28v-.2c-.23,0-.45-.03-.7-.08Z"/>
    <path class="cls-6" d="M245.05,0v.53c.08.05.25.05.25.05-.07-.2-.15-.38-.25-.58Z"/>
    <path class="cls-5" d="M259.3,389.64c-.02-3.84-.65-7.7-1-11.56-1.38-.08-2.76-.13-4.16-.2-1.05,2.88-2.53,5.72-3.06,8.73-2.76,15.18-5.34,30.43-7.85,45.65-4.19,25.31-17.28,46.38-35.24,63.23-49.36,46.3-98.93,92.53-150.6,136.2-24.03,20.29-27.84,47.91-39.66,74.04h199.31c11.41-17.13,19.67-32.56,30.9-45.35,7.17-8.15,11.54-15.55,11.51-26.24-.15-81.49-.1-162.99-.15-244.51ZM78.33,685.91c-4.26-.75-7.7-6.3-11.49-9.78,3.41-3.44,6.47-9.13,10.31-9.68,3.59-.53,7.98,4.36,15.38,8.93-6.85,5.37-11.06,11.09-14.2,10.53ZM134.51,685.34h-40.03v-18.71h40.03v18.71ZM242.19,659.38c-8.18,7.73-15.55,18.11-18.91,28.72-3.86,12.27-9.83,15.95-21.35,14.07-2.71-.43-5.47-.48-9.15-.78,31.18-39.98,38.73-87.14,47.08-133.74,5.87-32.81,9.53-65.99,14.37-100.41,0,55.91-.15,109.81.1,163.69.05,11.56-3.29,20.14-12.14,28.44Z"/>
    <path class="cls-5" d="M324.64,206.73c-15.45,1.05-29.95,2.51-44.45,2.88-11.41.28-16.25,4.79-16,16.55.58,27.99.28,56.01.48,84,0,2.31,1.2,4.62,1.83,6.92,1.13-.13,2.23-.25,3.34-.38v-89.27h3.19v90.9c-4.31,3.19-8.13,7.5-8.2,11.89-.53,30.07-.33,60.17-.18,90.27,0,2.28,1.23,4.54,1.88,6.8,1.23-.13,2.43-.25,3.66-.38v-101.31c1.28.03,2.56.03,3.84.05v100.26h21.07c-7.45,1.76-15.15,1.61-22.17,3.74-3.46,1.03-8,6.2-8.08,9.58-.63,30.5-.5,61.03-.13,91.53.03,2.43,3.61,4.82,5.52,7.22v-103.09c1.13-.03,2.26-.05,3.39-.05v100.78h16.55c.03.93.08,1.86.13,2.78h-19.64c-2.06,4.49-5.82,8.93-5.92,13.47-.58,25.91-.3,51.82-.25,77.73.03,3.96.48,7.93.73,11.64h59.4v-104.85c-7.5-.45-14.12-.85-20.72-1.25,0-.3,0-.6-.02-.9,6.85-.55,13.7-1.1,20.72-1.66v-106.65c-5.02-.55-9.1-.98-15.63-1.68,6.95-.75,11.39-1.25,15.68-1.71v-215.84ZM273.07,636.45c-.83-.03-1.63-.05-2.46-.08v-92.3h2.46v92.38Z"/>
    <path class="cls-5" d="M625.36,677.71c-6.02-17.63-15.02-32.46-29.55-45.2-51.44-45.22-102.34-91.1-152.28-138.01-16.91-15.88-29.47-35.94-33.59-59.95-2.13-12.39-4.67-24.73-7-37.07-1.2.23-2.38.48-3.56.73,4.49,19.71,4.21,42.54,14.55,58.44,18.96,29.12,27.57,58.64,23.93,92.56-.58,5.37.4,10.89-.05,16.28-3.56,42.87,12.14,79.31,37.2,112.67,5.59,7.42,11.29,14.8,17.81,23.35h-53.68c-10.28-15.83-17.33-30.73-28.12-42.06-8.65-9.08-12.39-17.68-12.34-29.6.25-62.26.13-124.51.13-186.77v-40.61c-1.25-.03-2.51-.08-3.76-.1-.23,1.38-.68,2.78-.68,4.19,0,77.28-.3,154.58.5,231.86.08,7.58,6.6,15.33,10.86,22.55,7.32,12.37,16.45,23.83,22.35,36.8,3.01,6.6,5.34,8.85,12.16,8.78,31.75-.23,63.51-.08,95.26-.05h101.01c-4.29-11.04-8.08-19.79-11.16-28.8ZM549.3,678.86c-4.26,2.56-8.73,7.37-12.74,7.02-3.61-.33-9.41-6.35-9.33-9.73.08-3.54,5.87-9.46,9.48-9.71,4.01-.28,8.4,4.67,12.62,7.32,0,1.71-.03,3.41-.03,5.09ZM593.93,685.44h-39.78v-18.51h39.78v18.51Z"/>
    <path class="cls-6" d="M360.86,535.67v.25l-.4-.3c.13-.28.23-.53.38-.8.03.28.03.58.03.85Z"/>
    <path class="cls-6" d="M381.02,538.13v.25l-.7-.33c.25.05.48.08.7.08Z"/>
    <path class="cls-5" d="M389.63,442.99c.03-1.56-.03-3.04-.2-4.39l-.08-.53c-.03-.25-.08-.5-.13-.75-.05-.3-.1-.58-.18-.85-.08-.3-.15-.63-.25-.93-.08-.23-.15-.45-.23-.68-.2-.55-.43-1.08-.7-1.58-.1-.18-.2-.35-.3-.5,0-.03,0-.05-.03-.05-.18-.28-.35-.55-.58-.83-.1-.15-.23-.3-.35-.45-.1-.15-.23-.3-.38-.43-.15-.18-.33-.35-.5-.5-.85-.83-1.91-1.53-3.16-2.16-.28-.15-.55-.28-.85-.4.53.03,1,.05,1.45,0,.18,0,.33,0,.5-.02.33-.03.63-.05.93-.1.4-.05.75-.15,1.1-.28.23-.08.43-.15.63-.25.25-.13.5-.25.73-.43.05-.03.1-.05.15-.13.23-.15.43-.35.63-.58.07-.08.12-.13.18-.2.13-.13.23-.28.3-.43.13-.2.25-.4.35-.63.2-.38.35-.83.48-1.33.07-.28.15-.58.2-.9.05-.35.1-.73.13-1.13.03-.28.05-.58.05-.88.03-.3.03-.63.03-.98-.35-30.1.08-60.2-.55-90.3-.08-3.36-4.54-8.75-7.85-9.53-9.86-2.33-20.17-2.86-27.42-3.76v-103.67l5.72.08v101.74c1.71,0,3.39-.03,5.09-.05v-100.76c6.67.68,11.06,1.13,16.55,1.71v15.55c.03,25.51-.08,51.02.23,76.5.05,3.61,2.13,7.22,3.26,10.81,1.4-.35,2.83-.73,4.24-1.1,0-32.88.13-65.79-.25-98.68-.03-2.33-3.41-6.45-5.59-6.7-17.93-2.11-35.94-3.51-56.29-5.34,1.68,38.43,4.44,73.44,4.44,108.48s-2.73,71.74-4.26,107.83c7.05.63,11.59,1.03,18.86,1.66-7.15.88-11.56,1.4-16.61,2.01v106.88h24.25v-102.21c1.56-.05,3.09-.1,4.64-.18.5,4.59,1.38,9.18,1.45,13.8.33,17.98.6,35.94.85,53.93.18,12.12.33,24.25.5,36.4,1.63-3.49,4.14-6.92,4.19-10.43.4-25.84.23-51.67.23-77.51v-13.7h15.78v104.97c1.08.15,2.03.18,2.86.08.2-.03.4-.05.6-.08.05,0,.08-.03.1-.03.18-.03.35-.05.53-.13.05.03.08,0,.1-.03.18-.03.35-.08.53-.15.03,0,.03-.03.05-.03.43-.18.83-.38,1.15-.63.2-.15.38-.3.55-.48.18-.15.33-.35.48-.53.28-.4.53-.83.7-1.3.2-.48.35-.98.48-1.53.12-.55.23-1.15.28-1.78.13-1.13.15-2.36.13-3.69-.28-28.27-.43-56.56.08-84.85ZM380.7,427.64h-27.42v-106.15c1.33-.15,2.66-.28,3.99-.43,3.74,10.28,1.33,21.5,1.73,32.23.45,12.09.2,24.2.23,36.32.03,11.46,0,22.9,0,34.36,1.53.03,3.03.05,4.54.1v-99.65c16.45-3.54,17.43-2.88,17.41,10.84-.1,30.8-.3,61.58-.48,92.38Z"/>
    <path class="cls-2" d="M262.16,213.53c-1.45,13.7-2.91,27.39-4.57,41.06-2.88,23.55-6.09,47.06-9.15,70.58h-.43c5.19-33.91,7.9-58.54,8.53-64.06,2.41-21.7,4.21-36.72,5.62-47.58Z"/>
    <path class="cls-2" d="M338.23,25.46c-6.17-3.04-11.96-4.16-17.28-3.29,2.23-.6,4.62-.85,7.07-.6,3.81.38,7.2,1.86,10.21,3.89Z"/>
    <path class="cls-5" d="M10.03,738.96c.5,3.89,1.3,6.75,1.18,9.58-.63,15.15,7.65,18.91,21.4,19.87,36.65,2.58,73.22,6.62,109.84,9.98,24.03,2.21,48.11,4.24,73.87,6.52v-45.95H10.03ZM212.97,779.27c-7.37-.48-13.57-.88-20.84-1.35,1.81-5.47,3.29-9.28,4.29-13.22,3.94-15.38.88-19.19-15.48-19.21-43.04-.03-86.11.03-129.15-.05-4.87,0-9.71-.5-14.5-3.09h175.68v36.92Z"/>
    <path class="cls-5" d="M388.6,205.03c-1.83.55-3.66,1.1-5.49,1.66-1.4-4.09-3.44-8.1-4.06-12.29-3.01-20.22-5.44-40.51-8.6-60.7-.7-4.49-3.59-8.63-5.47-12.94-1.1.45-2.23.9-3.34,1.35.35,6.3.7,12.57,1.05,18.86-1.58.3-3.14.58-4.72.88-1.23-5.74-2.46-11.46-3.89-18.03-.38,4.69-.7,8.73-1.2,14.77-20.37-6.7-39.88-5.12-59.42,2.76-8.55,3.44-12.64,7.8-13.49,16.73-.75,7.73-2.83,15.35-4.57,24.15,11.56-.88,21.52-1.05,23.08-15.43.33-2.98,4.49-6.85,7.7-8,6.2-2.21,12.97-3.54,19.54-3.84,23.28-1.05,28.22,3.94,28.02,26.74-.08,6.22-.03,12.44-.03,21.5h-88.39c4.09-23.75,7.93-48.84,13.12-73.64.93-4.46,6.72-9.76,11.39-11.24,24.46-7.8,49.44-7.93,73.87-.15,5.09,1.63,11.04,8.23,12.14,13.47,5.12,24.28,8.65,48.89,12.77,73.39Z"/>
    <path class="cls-5" d="M427.4,723.14c-2.16-22.42-7.25-43.79-25.84-59.12-13.92-11.51-34.79-6.32-40.91,10.18-13.07,35.22-8.6,71.41-7.27,104.75h78.06c-1.3-18.59-2.26-37.25-4.04-55.81ZM362.34,774.18c-.8-.03-1.61-.03-2.41-.05v-80.54c.8.03,1.61.03,2.41.05v80.54ZM393.94,770.47c2.76-16.3,6.55-32.51,7.95-48.91,1.38-15.93.3-32.08.3-50.99,24.18,32.31,20.17,68.17,23.15,102.96-11.36-1.1-21.27-2.08-31.4-3.06Z"/>
    <path class="cls-5" d="M299.96,714.23c-1.3-15.93-6.7-31.55-10.89-47.16-.8-3.03-4.34-7.35-6.92-7.55-13.59-1.13-28.29-3.26-37.1,11.01-6.04,9.81-13.64,19.89-15.6,30.75-4.56,25.31-6.12,51.14-9,77.68h79.99c0-19.92,1.38-42.47-.48-64.74ZM230.75,773.15c-2.56-29.62-.93-58.59,10.99-88.27-3.86,30.9-7.42,59.6-10.99,88.27ZM294.04,774.88c-10.69-1.83-20.47-3.54-28.49-4.92,6.3-32.38,12.49-64.29,18.41-94.76,10.86,7.27,17.33,55.83,10.08,99.68Z"/>
    <path class="cls-5" d="M533.55,909.8c-4.09,2.41-7.83,4.59-11.69,6.87,3.49,18.51,11.79,35.79,13.54,54.28-1.81.4-3.61.8-5.42,1.2-2.66-10.56-5.37-21.09-7.95-31.68-1.18-4.87-2.41-9.76-3.06-14.7-1.13-8.3-5.34-9.33-13.04-5.12,3.64,16.98,7.37,34.36,11.14,51.92-8.18,4.72-11.66,2.63-12.52-6.12-1.55-15.58-3.64-31.1-5.49-46.65-1.58.13-3.14.28-4.72.4,1.96,18.26,3.91,36.55,6.15,57.46-20.64-1.73-39.51-3.29-60.58-5.04,7.6-19.89,14.27-37.37,20.94-54.88-1.35-.6-2.73-1.23-4.09-1.83-7.37,17.66-14.77,35.34-22.15,53-1.33-.28-2.63-.58-3.96-.85.33-3.11-.1-6.55,1.08-9.26,5.39-12.22,11.46-24.13,16.76-36.37,1.28-2.93.5-6.75.65-10.16-1.53-.28-3.09-.55-4.64-.85-7.98,16.63-15.98,33.23-24.33,50.64-3.94-8.15,7.32-35.19,22.12-55.81,29.1,7.5,58.34,8.63,87.71,1,2.13-.55,6.25.4,7.02,1.93,8.13,15.6,15.78,31.45,23.53,47.23-1,.5-2.01.98-3.01,1.45-7.9-15.83-15.8-31.65-24-48.08Z"/>
    <path class="cls-5" d="M201.66,927.79c4.04,10.91,6.57,22.4,9.53,33.71.83,3.11.83,6.45,1.2,9.68-1.71.38-3.41.73-5.12,1.1-4.34-17.51-8.68-35.02-13.32-53.68-3.11.15-6.57.33-11.21.55,3.91,18.16,7.7,35.52,11.71,54.03-3.59.83-6.92,1.58-11.14,2.51-2.53-19.21-4.92-37.4-7.3-55.61-1.4.18-2.81.33-4.21.48,1.78,18.16,3.56,36.34,5.59,56.99-20.37-1.63-39.25-3.16-60.35-4.87,7.55-19.87,14.2-37.3,20.82-54.76-1.45-.6-2.88-1.23-4.34-1.83-7.12,17.51-14.27,35.02-21.4,52.55-1.25-.1-2.51-.2-3.76-.3,0-2.93-.9-6.27.18-8.73,5.47-12.64,11.69-24.96,17.08-37.6,1.2-2.83.18-6.6.18-9.91-1.43-.18-2.86-.38-4.26-.55-7.98,16.58-15.93,33.16-24.43,50.84-3.84-8.9,2.78-25.01,21.8-56.34,31.1,8.25,61.58,8.63,93.88-.3,8.2,16.63,16.65,33.66,25.08,50.72-1.08.55-2.13,1.08-3.21,1.61-7.75-15.73-15.53-31.48-23.28-47.18-10.71,2.06-13.37,7-9.73,16.88Z"/>
    <path class="cls-5" d="M434.45,739.19c.9,15.73,1.76,30.2,2.66,45.95,67.9-6.35,134.77-12.62,202.32-18.91,1.61-9.26,3.09-17.73,4.69-27.04h-209.67ZM510.35,744.58c-1.4,11.64-2.43,20.19-3.51,29.12-22.2,2.03-43.27,3.96-65.11,5.97-1.05-12.99-2.03-24.88-3.06-37.6h176.71c.03.85.08,1.68.1,2.51h-105.12Z"/>
    <path class="cls-2" d="M168.75,495.01c-2.11,5.14-11.31,10.11-18.49,14.17,6.32-4.79,11.86-8.83,18.49-14.17Z"/>
    <path class="cls-5" d="M389.63,552.3c0-.53-.03-1.03-.05-1.53,0-.13,0-.23-.03-.33,0-.53-.05-1.05-.13-1.53,0-.13-.03-.23-.05-.35-.05-.38-.13-.75-.2-1.13-.05-.35-.15-.68-.25-1-.08-.33-.18-.63-.3-.93-.08-.28-.18-.53-.3-.78-.45-1.1-1.08-2.06-1.86-2.91l-.3-.3c-.1-.13-.2-.23-.3-.3-.25-.25-.5-.48-.78-.68-.28-.23-.58-.43-.88-.63-.3-.23-.63-.4-.98-.58-.33-.18-.68-.35-1.05-.53-.38-.18-.75-.33-1.15-.48-.23-.1-.45-.2-.7-.28l.7.33c-6.72-.9-13.42-1.83-20.17-2.71-.13-.02-.28-.02-.4-.05l.4.3h-31.68v105.42h60.22c0-30.05-.35-59.2.23-88.32v-.73ZM358.68,638.53c-2.93-2.76-6.4-4.51-6.4-6.25.25-30.25.95-60.5,1.58-90.72,0-.15.68-.3,1.05-.43,5.62,4.69,8.3,66.22,3.76,97.4ZM380.5,636.5h-14.65v-94.04c5.12.28,9.56.53,14.65.83v93.21Z"/>
    <path class="cls-5" d="M219.67,714.03H9.9v19.09h15.6c59.3,0,118.59-.03,177.89,0q17.06,0,16.28-19.09ZM195.56,728.13q1.48-11.11,19.19-9.73c.23,2.98.45,6.07.73,9.73h-19.92Z"/>
    <path class="cls-5" d="M367.78,114.4c-2.81-6.67-5.62-13.34-9.68-23.08.48,8,.75,12.79,1.15,19.21h-75.32c-.38-22.57,14.35-55.63,28.19-58.42-2.33,16.4,8.55,15.38,19.31,14.7,8.73-.55,8.73-.48,10.69-16.78,5.19,3.09,11.14,4.51,12.27,7.65,6.62,18.13,12.09,36.65,17.93,55.03-1.53.55-3.03,1.13-4.54,1.68Z"/>
    <path class="cls-5" d="M431.54,714.08c.98,6.35,1.81,11.64,2.81,18.11h209.62v-18.11h-212.43ZM445.86,728.3c-3.09-.08-6.07-3.86-9.08-5.94.6-1.48,1.2-2.96,1.81-4.44,21.17,0,42.34-.23,63.46.35,1.96.05,3.74,5.17,7.22,10.31-24.23,0-43.82.28-63.41-.28Z"/>
    <path class="cls-5" d="M334.72,685.09c-8.38,7.45-3.36,15.58-3.46,22.93-.65,52.17-.53,104.34-1.03,156.52-.1,11.06-1.76,22.12-5.59,33.41-.95-6.55-2.46-13.09-2.83-19.69-2.81-51.24-5.97-102.49-7.83-153.76-.73-19.94,2.31-39.83,13.72-61.9,3.31,10.06,9.08,20.67,7.02,22.5Z"/>
    <path class="cls-2" d="M237.58,385.77c-.25,1.93-.5,3.84-.73,5.77h-.38c.38-1.93.75-3.86,1.1-5.77Z"/>
    <path class="cls-6" d="M482.48,496.09c-4.39-2.78-8-6.02-10.86-9.78.63.6,1.25,1.2,1.88,1.81,3.34,3.19,6.22,5.72,8.98,7.98Z"/>
    <path class="cls-5" d="M643.74,703.27c-.95.3-1.88.63-2.83.93-3.64-13.92-8.23-27.72-10.69-41.84-3.69-20.99-14.77-36.82-30.4-50.34-41.71-36.09-83.05-72.64-125.09-108.33-35.37-30-63.46-63.56-67.97-112.45-2.03-21.95-7.85-43.52-11.39-65.34-1.05-6.62-.15-13.57,1.28-20.44,4.54,25.18,10.69,50.19,13.29,75.55,5.37,52.3,32.53,90.27,72.21,122.48,41.19,33.41,80.62,69.03,120.62,103.87,16.7,14.55,29.8,31.18,32.38,54.58,1.56,13.92,5.64,27.57,8.58,41.34Z"/>
    <path class="cls-5" d="M518.13,1017.91c-22.6,5.54-44.4,5.02-65.79-1.78-4.94-1.58-8.83-6.52-13.19-9.91,4.14-4.84,7.37-11.44,12.62-14.17,16.76-8.75,33.99-4.62,50.74,1.23,15.17,5.32,15.78,6.4,15.63,24.63Z"/>
    <path class="cls-5" d="M195.04,1017.96c-22.75,5.49-45.32,5.17-67.45-2.63-4.24-1.48-11.04-6.57-10.56-8.53,1.25-5.04,4.89-10.91,9.31-13.52,15.5-9.11,31.88-6.55,48.33-1.71,12.77,3.79,24.15,7.95,20.37,26.39Z"/>
    <path class="cls-5" d="M239.11,406.89c-.2,26.46-10.21,49.11-29.12,66.87-29.25,27.42-59.45,53.8-89.39,80.49-23.1,20.54-45.9,41.46-69.81,61.05-19.46,15.98-27.84,36.7-31.58,60.47-1.53,9.71-3.99,19.26-8.93,28.39,1.55-7.98,3.79-15.9,4.51-23.95,3.16-34.46,19.39-60.47,46.43-82.2,37.42-30.07,72.92-62.56,109.21-94.04,30.73-26.69,62.03-52.97,68.68-97.1Z"/>
    <path class="cls-6" d="M502.65,511.21c-1.86-.38-3.09-1.3-3.89-2.91,1.23.93,2.51,1.88,3.89,2.91Z"/>
    <path class="cls-5" d="M532.2,864.05v10.79c-.5.08-1.03.15-1.55.23-.75-2.43-1.53-4.87-3.34-10.53-4.64,6.65-7.95,11.36-11.66,16.68-.85-2.86-1.73-5.69-3.41-11.29-4.89,4.64-8.68,8.28-12.82,12.22-.73-2.03-1.71-4.79-2.63-7.42-24.21.9-33.69.2-35.17-4.34-1.68,3.89-2.78,6.45-4.54,10.53-.73-3.86-.68-6.7-1.86-8.88-1.03-1.93-3.41-3.14-5.57-4.97-1.35,3.41-2.43,6.12-3.51,8.83-.55-.13-1.08-.28-1.63-.43v-11.41h87.69Z"/>
    <path class="cls-5" d="M532.27,886.9v14.4c-2.31-5.77-3.26-8.13-5.37-13.34-4.36,6.15-7.5,10.61-11.01,15.58-.8-2.21-1.81-4.92-3.71-10.13-4.54,3.89-8.45,7.22-12.87,11.01-.58-1.45-1.71-4.31-3.94-9.98-3.09,17.58-14.65,12.27-23.28,11.41-3.96-.4-7.37-6.04-11.69-9.86-.45.98-1.68,3.69-2.88,6.3-1.83-3.94-3.69-7.93-6.7-14.45-2.43,5.57-3.54,8.15-4.67,10.74-.53-.1-1.05-.23-1.56-.35v-11.31h87.66Z"/>
    <path class="cls-5" d="M209.18,864.03v8.95c-6.8-7.55-10.23-5.82-15.68,9.58-1.53-3.94-2.58-6.72-4.67-12.12-4.46,3.96-8.28,7.35-12.47,11.06-.63-1.58-1.76-4.49-4.41-11.14-2.13,17.58-12.52,14.05-20.64,12.77-4.59-.7-8.58-5.14-13.82-8.5-.03,0-.8,1.51-1.78,3.34-.23.43-.45.88-.7,1.33l-.3.6c-2.13-4.72-4.04-8.98-5.94-13.24-1,.23-2.01.43-2.99.65-.8,2.83-1.58,5.69-2.38,8.53-.53,0-1.08-.02-1.63-.02v-11.79h87.41Z"/>
    <path class="cls-5" d="M126.64,886.9c-.1.35-.2.68-.28.98-.1.3-.18.58-.23.83-.18.63-.35,1.23-.5,1.78-.18.63-.33,1.2-.48,1.76-.73,2.73-1.23,4.51-1.71,6.3-.63-.08-1.23-.13-1.86-.18v-11.46h5.04Z"/>
    <path class="cls-6" d="M127.24,886.9h-.6c.05-.25.13-.53.2-.8.13.28.28.55.4.8Z"/>
    <path class="cls-5" d="M209.43,886.9v9.86c-2.28-1.88-6.04-5.34-6.3-5.09-3.54,3.29-6.6,7.12-9.76,10.81-1.88-1.51-5.02-5.94-8.13-5.92-2.66.03-5.24,5.24-8.45,8.8-.9-2.53-1.96-5.52-4.26-12.09-3.03,18.16-14.35,13.77-23.08,12.62-4.09-.55-7.55-5.99-11.69-9.56-.4.93-1.48,3.56-2.73,6.57-1-2.06-1.98-4.06-3.06-6.27-.5-1-1-2.06-1.56-3.16-.6-1.25-1.25-2.58-1.96-4.04-.2-.4-.4-.83-.6-1.23-.2-.43-.43-.85-.63-1.3h82.2Z"/>
    <path class="cls-5" d="M288.39,846.19h-39.78c5.17-6.55,9.15-10.64,11.89-15.45,2.38-4.21,4.46-9.23,4.61-13.97.18-6.47-1.58-12.99-2.58-20.19,9.43-3.11,16.55-4.64,16.58,9.56,0,6.42,1.13,13.04,5.27,19.41,3.51,5.37,2.81,13.47,4.01,20.64Z"/>
    <path class="cls-5" d="M205.32,841.12c-4.29,5.87-8.15,11.11-11.76,16.03-2.16-1.88-5.29-6.6-8.25-6.52-2.71.08-5.27,5.39-8.45,9.03-1-2.48-2.16-5.37-3.31-8.25-2.51,12.99-12.09,10.36-19.64,9.08-5.42-.93-10.36-4.69-16.78-7.8-.08.18-.25.5-.48.98-.08.18-.2.4-.3.65-.4.83-.9,1.86-1.43,2.96-2.36-4.72-4.54-9.08-6.72-13.42-.88.33-1.76.65-2.61.98-.63,2.73-1.25,5.49-1.88,8.23-.6.03-1.18.03-1.76.03v-11.96h83.37Z"/>
    <path class="cls-5" d="M533.18,851.73c-.78.2-1.53.4-2.31.6-.75-2.31-1.51-4.62-3.36-10.21-4.64,5.94-8.1,10.36-12.29,15.73-.55-2.23-1.2-4.82-2.58-10.41-4.94,4.09-8.83,7.3-13.29,11.01-.55-1.18-1.86-3.94-4.57-9.73-1.25,15.8-10.71,13.17-18.29,11.76-5.37-.98-10.23-4.74-16.76-7.95-.28.55-1.13,2.31-1.91,3.89-2.96-4.89-6.02-9.98-9.21-15.25h83.93c.13,2.23.38,6.4.63,10.56Z"/>
    <path class="cls-5" d="M194.13,835.56c-3.06-3.36-6.65-8.58-7.62-8.13-3.66,1.66-6.47,5.22-10.06,8.48-.7-1.86-1.71-4.54-2.56-6.87-12.67,14.15-23.63,11.69-36.07-.28-.2.35-1.48,2.71-2.88,5.27-2.83-5.24-5.49-10.13-8.93-16.53,5.74.63,11.49,1.68,17.26,1.83,13.32.35,26.64.63,39.93.25,14.7-.4,15.2-.02,10.94,15.98Z"/>
    <path class="cls-5" d="M529.04,817.25c-5.17,6.47-9.06,11.39-12.97,16.3-1.53-1.35-4.82-6.32-7.35-5.97-3.11.45-5.59,5.34-9,9-1.03-2.23-2.18-4.79-4.44-9.71-2.61,14.15-11.76,12.42-19.82,10.61-5.09-1.15-9.56-4.99-15.78-8.43,0,0-.88,2.48-2.76,7.75-.7-5.07-2.06-8.13-1.1-9.36,2.43-3.14,5.79-7.55,8.98-7.7,14.97-.78,30-.1,45.02-.38,5.92-.1,11.81-1.28,19.21-2.13Z"/>
    <path class="cls-5" d="M406.31,846.24h-38.18c.75-5.92,1.55-11.56,2.16-17.21.9-8.78,7.65-10.08,13.44-8,5.42,1.93,10.08,6.82,14.17,11.24,3.26,3.56,5.12,8.35,8.4,13.97Z"/>
    <path class="cls-2" d="M178.86,486.48v2.96c-.85-.03-1.68-.08-2.53-.1v-.65c.83-.7,1.66-1.43,2.53-2.21Z"/>
    <path class="cls-5" d="M311.8,814.49c-.15,3.01-6.6,5.69-10.16,8.53-1.33-.85-2.63-1.68-3.94-2.53,2.53-12.57,5.07-25.13,7.6-37.72,1.56.15,3.11.28,4.67.43.8,10.43,2.41,20.92,1.83,31.3Z"/>
    <path class="cls-5" d="M356.57,819.43c-2.06.78-4.11,1.56-6.17,2.36-19.04-8.35-1.38-26.11-7.55-37.72,1.53-.43,3.09-.83,4.62-1.23,3.03,12.19,6.07,24.38,9.1,36.6Z"/>
    <path class="cls-2" d="M193.68,473.21v1.33h-1.48c.5-.45,1-.9,1.48-1.33Z"/>
    <rect class="cls-5" x="316.21" y="50.79" width="21.45" height="12.54"/>
    <path class="cls-5" d="M392.74,796.3c-1.51,7.73-3.01,15.48-4.54,23.38h-13.85c1.48-5.17,3.14-9.71,4.04-14.4,2.18-11.19,2.03-11.21,14.35-8.98Z"/>
    <path class="cls-5" d="M256.92,811.08h-20.59c3.19-7.22,5.79-13.24,8.43-19.24,1.33,0,2.66-.03,3.99-.03,2.56,6.02,5.09,12.04,8.18,19.26Z"/>
    <path class="cls-5" d="M297.02,853.89v2.13h-57.89c0-.7-.03-1.43-.03-2.13h57.92Z"/>
    <rect class="cls-5" x="356.69" y="853.87" width="57.94" height="2.16"/>
    <path class="cls-5" d="M232.16,803.65c-.15,1.63-2.83,3.69-4.74,4.24-1.33.38-4.01-1.03-4.87-2.38-3.89-6.12.5-17.53,9.83-21.65,0,7.52.33,13.7-.23,19.79Z"/>
    <path class="cls-5" d="M414.51,809.97c-7.22.95-9.66,1.33-12.09,1.56-1.58.13-3.18.03-8.28.03,4.01-7.55,7.12-13.39,10.23-19.24,2.96,5.17,5.94,10.36,10.13,17.66Z"/>
    <path class="cls-5" d="M430.16,805.98c-1.03,1.3-4.06,2.38-5.37,1.81-1.78-.83-3.11-3.21-3.99-5.19-.63-1.4-.2-3.29-.2-4.97v-13.75c8.75,3.99,13.47,17.08,9.56,22.1Z"/>
    <path class="cls-5" d="M169.43,810.8c.03,1.4-2.91,4.09-4.54,4.09-7.65.03-15.3-.7-22.95-1.15-.1-1.88-.18-3.76-.28-5.64,7.93-.78,15.83-1.81,23.75-2.08,1.4-.05,3.99,3.09,4.01,4.79Z"/>
    <path class="cls-5" d="M310.42,651.7h-33.94c-.05-.9-.1-1.81-.15-2.73h33.91c.05.93.13,1.83.18,2.73Z"/>
    <path class="cls-5" d="M364.97,202.32c-1.91.18-3.81.35-5.72.5-.43-7.4-.88-14.8-1.3-22.22,1.86-.18,3.71-.35,5.59-.55.48,7.42.95,14.85,1.43,22.27Z"/>
    <path class="cls-5" d="M492.69,810.17c0,1.63-2.43,4.67-3.91,4.72-6.27.25-12.59-.38-18.89-.68-.2-1.25-.38-2.51-.58-3.76,6.32-1.53,12.57-3.34,18.96-4.31,1.33-.2,4.39,2.61,4.41,4.04Z"/>
    <path class="cls-1" d="M245.3.58s-.18,0-.25-.05v-.53c.1.2.18.38.25.58Z"/>
  </g>
  <g id="Ebene_6" data-name="Ebene 6">
    <path class="cls-7" d="M260.3,463.03c-5.26-1.08-8.48,43.54-37.62,85.28-13.99,20.03-39.62,38.71-90.3,75.25-51.02,36.78-65.93,43.37-77.76,67.72-9.81,20.2-17.69,53.03-2.51,70.23,5.44,6.16,10.38,6.41,40.13,12.54,58.11,11.98,67.84,16.91,92.81,15.05,12.53-.93,24.01,2.01,30.1-5.02,3.9-4.49,2.35-8.46,3.76-26.34,1.47-18.68,3.41-17.54,5.02-37.62,1.33-16.68.05-18.22,2.51-25.08.92-2.57,2.38-5.93,15.05-22.57,12.94-17,15.22-18.5,17.56-25.08,1.59-4.47,2.14-8.3,2.51-22.57.41-15.93.61-23.9,0-35.12-.9-16.45-.6-39.39,0-85.28.41-31.52,1.16-40.89-1.25-41.39Z"/>
    <path class="cls-3" d="M366.9,83.02c-3.59-.01-7.38,12.2-12.54,47.66-10.74,73.81-10.03,115.38-10.03,115.38s1.66,96.82,2.51,243.3c.45,76.71.67,115.07-1.64,122.14-.44,1.34-3.93,11.7-.87,23.34.91,3.44,2.49,9.13,7.52,12.54,3.94,2.67,8.08,2.65,15.05,2.51,1.26-.02,12.56-.25,17.56-2.51,15.8-7.15,10.23-53.56,10.03-55.18-8.76-73.05,1.04-147.16,0-220.73-.79-56.32,1.38-54.4,0-110.36,0,0-1.17-47.31-17.56-145.48-2.39-14.34-5.65-32.59-10.03-32.61Z"/>
    <path class="cls-3" d="M280.37,656.16c-2.9.36-6.68,3.65-15.05,47.66-13.16,69.17-7.03,77.86-2.51,80.26,3.25,1.73,4.2-.56,20.07,0,13.71.48,16.73,2.32,20.07,0,5.85-4.07,3.69-14.71,2.51-30.1-2.55-33.27,3.75-33.13,0-52.67-4.04-21.06-16.17-46.24-25.08-45.15Z"/>
    <path class="cls-3" d="M380.7,653.66c-5.52,4.42,8.03,20.98,12.54,45.15,7.79,41.75-17.52,73.52-5.02,82.77,2.42,1.79,2.36-.15,22.57,2.51,12.18,1.6,16.78,2.91,20.07,0,2.88-2.55,2.89-6.69,2.51-15.05-1.03-22.57-2.51-32.61-2.51-32.61-4.51-30.66-4.23-30.09-5.02-32.61-3.45-10.99-7.74-18.05-15.05-30.1-5.13-8.45-8.14-12.05-12.54-15.05-4.07-2.78-13.75-8.06-17.56-5.02Z"/>
    <path class="cls-3" d="M185.05,801.64c-20.43,13.78,17.42,61.85-2.51,117.89-8.27,23.26-26.5,47.88-17.56,57.69,3.68,4.04,9.56,2.92,15.05,10.03.41.53,7.1,9.47,5.02,20.07-1.5,7.66-6.31,9.64-5.02,12.54,2.13,4.78,17.93,5.51,27.59-2.51,1.96-1.63,7.51-6.23,7.52-12.54.02-7.88-8.59-9.84-10.03-20.07-.23-1.67-1.13-8.02,2.51-12.54,3.6-4.48,8.25-2.95,20.07-7.52,7.37-2.86,11.06-4.28,12.54-7.52,2.66-5.8-3.78-12.65-10.03-22.57-2.2-3.49-15.99-25.83-17.56-50.17-.16-2.45.14.19,2.51-32.61.66-9.12,1.2-17.13,0-27.59-1.32-11.56-2.24-18.66-7.52-22.57-5.84-4.33-16.29-4.24-22.57,0Z"/>
    <path class="cls-3" d="M511.13,801.64c-20.43,13.78,17.42,61.85-2.51,117.89-8.27,23.26-26.5,47.88-17.56,57.69,3.68,4.04,9.56,2.92,15.05,10.03.41.53,7.1,9.47,5.02,20.07-1.5,7.66-6.31,9.64-5.02,12.54,2.13,4.78,17.93,5.51,27.59-2.51,1.96-1.63,7.51-6.23,7.52-12.54.02-7.88-8.59-9.84-10.03-20.07-.23-1.67-1.13-8.02,2.51-12.54,3.6-4.48,8.25-2.95,20.07-7.52,7.37-2.86,11.06-4.28,12.54-7.52,2.66-5.8-3.78-12.65-10.03-22.57-2.2-3.49-15.99-25.83-17.56-50.17-.16-2.45-2.37.19,0-32.61.66-9.12,1.2-17.13,0-27.59-1.32-11.56.27-18.66-5.02-22.57-5.84-4.33-16.29-4.24-22.57,0Z"/>
    <path class="cls-3" d="M403.27,390.29c7.4,23.83,6.79,35,10.03,47.66,7.18,28,24.51,29.26,40.13,55.18,21.39,35.5-.77,50.3,15.05,105.35,14,48.69,32.59,41.47,40.13,85.28,5.45,31.65.84,65.07,12.54,85.28,1.05,1.82,4.86,8.06,2.51,12.54-2.14,4.06-8.31,4.72-20.07,5.02-30.99.79-39.95-2.47-55.18,2.51-9.28,3.04-8.96,5.23-12.54,5.02-25.3-1.53-38.25-110.87-42.64-147.99-5.17-43.66-5.95-98.5-7.52-208.19-.47-32.75-.85-74.56,5.02-75.25,3.84-.45,9.2,16.81,12.54,27.59Z"/>
    <path class="cls-7" d="M328.02,44.15c1.47,3.78-2.58,7.74-12.54,20.07-10.33,12.79-15.54,19.3-17.56,25.08-2.3,6.6-1.52,9.23-5.02,15.05-4.63,7.69-10.86,11.15-10.03,12.54.63,1.04,4.38-.54,12.54-2.51,0,0,5.23-1.26,12.54-2.51,12.03-2.05,24.91-1.48,25.08,0,.16,1.36-10.66,1.61-22.57,7.52-13.63,6.76-21.3,17.26-25.08,22.57,0,0-17.71,24.86-12.54,57.69.3,1.88.93,3.81,2.51,5.02,2.57,1.96,6.03.77,10.03,0,6.27-1.2,4.2.5,22.57,0,8.74-.24,12.4-.71,12.54,0,.23,1.12-8.71,3.46-12.54,5.02-19.12,7.75-23.49,41.47-30.1,85.28-6.76,44.79-12.2,80.45-15.05,80.26-.48-.03-1.49-1.13-2.51-22.57-1.43-30.05-.73-54.68,0-72.74.58-14.39,1.22-25.48,2.51-47.66,1.34-23.08,2.01-34.62,2.51-40.13,3.46-37.99,10.55-69.12,12.54-77.76,6.46-27.93,9.55-30.74,10.03-45.15.09-2.74.14-7.3,2.51-12.54,4.6-10.16,16.17-18.89,27.59-17.56,1.81.21,8.46.99,10.03,5.02Z"/>
    <path class="cls-4" d="M265.32,791.59c-4.15,7.86,4.33,11.91,2.51,28.12-1.53,13.59-8.36,18.52-5.02,28.12.28.79,2.79,7.66,10.03,11.72,9.36,5.25,22.39,3.45,30.1-2.34,7.36-5.54,8.35-17.83,10.03-42.18,1.75-25.42-.74-28.75-2.51-30.46-10.56-10.25-38.72-5.16-45.15,7.03Z"/>
    <path class="cls-4" d="M378.19,793.98c-4.15,7.79,4.33,11.8,2.51,27.84-1.53,13.46-8.36,18.34-5.02,27.84.28.78,2.79,7.58,10.03,11.6,9.36,5.19,22.39,3.42,30.1-2.32,7.36-5.49,8.35-17.65,10.03-41.77,1.75-25.17-.74-28.46-2.51-30.16-10.56-10.15-38.72-5.1-45.15,6.96Z"/>
    <path class="cls-7" d="M513.64,525.73c15.99,12.88,28.05,23.57,32.61,27.59,8.46,7.48,18.18,15.85,37.62,32.61,35.31,30.43,34.42,28.6,37.62,32.61,11.12,13.9,14.94,31,22.57,65.22,13.1,58.68,5.67,73.3,0,80.26-4.77,5.86-9.06,7.24-10.03,7.52-16.57,4.92-37.77-17.97-47.66-32.61-24.29-35.97-2.44-55.08-20.07-92.81-19.66-42.06-55.21-36.26-75.25-85.28-9.08-22.21-12.26-49.03-5.02-52.67,2.14-1.08,5.47-.26,27.59,17.56Z"/>
  </g>
  <g id="Ebene_7" data-name="Ebene 7">
    <g>
      <path class="cls-2" d="M649.64,690.75c-1.76-10.18-3.84-20.34-5.59-30.55-4.16-24.2-16.05-42.54-33.86-58.07-8.83-7.7-17.61-15.43-26.44-23.13-.13-.1-.23-.18-.33-.28-20.12-16.28-25.01-19.97-37.17-30.43-13.12-11.31-11.69-10.74-22.57-20.07-8.85-7.6-15.55-12.89-21.02-17.03-1.86-.38-3.09-1.3-3.89-2.91-6.27-4.64-11.01-7.9-16.28-12.22-4.39-2.78-8-6.02-10.86-9.78-5.57-5.44-10.38-10.79-14.45-15.7-.4-.45-.75-.9-1.13-1.35-3.84-4.69-6.97-8.98-9.46-12.57-.75-1.08-1.45-2.11-2.08-3.03-1.58-2.38-2.78-4.31-3.61-5.67-5.27-8.63-14.35-25.11-22.57-55.18-4.94-18.06-8.78-38.05-12.54-97.82-4.04-63.94-.93-61.23-5.02-92.81-.63-4.79-6.27-31.6-17.56-85.28,0,0-3.26-15.53-11.61-38.65-1.43-3.94-2.99-8.1-4.72-12.47-1.18-2.93-2.41-5.97-3.74-9.08-.78-1.83-2.58-6.02-5.84-11.06-.28-.43-.58-.88-.88-1.33-2.18-3.21-4.92-6.72-8.33-10.18-2.88-2.93-6.09-6.17-9.83-8.65h-.03c-6.17-3.04-11.96-4.16-17.28-3.29-4.94.78-9.46,3.31-13.39,7.63-1.86,1.58-3.41,3.11-4.62,4.31-22.98,22.8-28.17,68.95-31.43,104.95-4.01,24.63-6.67,49.51-9.36,74.4v.08c-1.45,13.7-2.91,27.39-4.57,41.06-2.88,23.55-6.09,47.06-9.15,70.58h-.43c-2.76,18.06-6.22,38.75-10.43,60.6-.25,1.93-.5,3.84-.73,5.77h-.38c-3.46,17.53-8.3,40.33-25.08,62.71-5.09,6.77-10.21,12.06-17.71,18.96v1.33h-1.48c-3.16,2.91-6.75,6.1-10.91,9.81-.83.73-1.63,1.45-2.43,2.13v2.96c-.85-.03-1.68-.08-2.53-.1v-.65c-2.73,2.33-5.22,4.41-7.58,6.32-2.11,5.14-11.31,10.11-18.49,14.17-5.42,4.11-11.41,8.78-19.14,15.3-13.77,11.64-13.44,12.62-23.85,22.25-.98,1.15-2.13,2.28-3.49,3.39-1.1.9-2.21,1.83-3.31,2.76-.05.02-.1.08-.15.13-7.9,6.5-15.73,13.09-23.48,19.84-.08.03-.15.08-.2.15-7.5,6.45-14.92,12.99-22.3,19.59-8.33,7.47-16.93,14.77-24.23,23-1.78,1.96-3.44,3.96-5.02,6.04-6.09,8.08-10.81,17.23-12.87,28.32-3.03,16.4-7.1,32.63-10.06,49.06-.7,3.94-1.23,7.88-1.58,11.81-1.96,21.4,1.05,42.44,6.97,63.26.33.02.65.08.98.1,34.99,3.39,69.03,6.72,103.67,10.11,0,19.11-1.18,36.72.23,54.1,3.19,38.93-2.38,75.27-24.53,108.53-7.27,10.94-4.36,18.21,7.3,24.68,7.07,3.94,14.92,6.52,23,9.93-2.21,4.54-4.01,8.25-5.84,11.96-8.28,16.71-6.02,24.61,12.11,29.72,14.67,4.14,30.38,6.67,45.53,6.27,14.27-.35,28.9-4.09,42.46-8.9,11.86-4.21,13.34-11.61,8.2-23.2-2.41-5.49-5.02-10.91-7.58-16.43,7.78-3.21,14.57-5.37,20.77-8.7,12.67-6.77,14.65-13.52,8.53-26.71-4.04-8.7-8.5-17.18-12.52-25.89-4.01-8.63-10.41-17.23-11.01-26.16-1.56-23.3-.6-46.78-.35-70.21.02-2.33,2.08-4.64,3.21-6.95,1.93.33,3.84.68,5.77,1,0,9.03.6,18.11-.13,27.09-1.48,17.96.38,21.77,18.66,22.37,21.72.75,43.54-.7,66.07-1.23.05.45.28,3.71.73,6.97,1.88,13.65,3.44,27.34,6.07,40.83.63,3.29,4.87,5.87,7.45,8.78,2.98-2.91,7.27-5.34,8.68-8.88,2.23-5.72,2.83-12.17,3.66-18.36,1.45-10.94,2.58-21.92,3.84-33.01,25.33,8.4,49.69,7.85,74.14,3.31,8.65-1.58,12.82-5.49,10.43-15.65-2.58-10.89-4.11-22.5,5.37-35.94,1.45,5.89,2.71,8.9,2.88,11.94,2.41,42.41,2.06,84.3-24.68,120.77-.23.33-.25.83-.45,1.18-6.5,10.71-2.46,18.49,7.4,23.78,7.3,3.89,15.18,6.67,23.55,10.28-2.58,5.24-5.19,10.41-7.7,15.6-5.54,11.46-4.11,18.34,7.55,23.35,31.45,13.54,63.48,13.29,94.89-.05,11.64-4.94,12.99-11.96,7.55-23.45-2.48-5.19-5.09-10.31-7.85-15.9,3.34-1.43,5.59-2.48,7.9-3.34,30.45-11.26,29.87-18.94,17.26-41.79-7.02-12.74-17.28-25.91-18.18-39.46-2.53-36.92-.88-74.14-.88-112.32,35.42-3.44,69.81-6.75,104.75-10.11,1.13-4.87,2.03-9.28,3.21-13.65,1.63-6.1,2.68-12.17,3.26-18.18,1.73-17.36-.33-34.46-3.29-51.54ZM396.65,305.46c4.54,25.18,10.69,50.19,13.29,75.55,5.37,52.3,32.53,90.27,72.21,122.48,41.19,33.41,80.62,69.03,120.62,103.87,16.7,14.55,29.8,31.18,32.38,54.58,1.56,13.92,5.64,27.57,8.58,41.34-.95.3-1.88.63-2.83.93-3.64-13.92-8.23-27.72-10.69-41.84-3.69-20.99-14.77-36.82-30.4-50.34-41.71-36.09-83.05-72.64-125.09-108.33-35.37-30-63.46-63.56-67.97-112.45-2.03-21.95-7.85-43.52-11.39-65.34-1.05-6.62-.15-13.57,1.28-20.44ZM394.37,406.57c0-1.4.45-2.81.68-4.19,1.25.02,2.51.08,3.76.1v40.61c0,62.26.13,124.51-.13,186.77-.05,11.91,3.69,20.52,12.34,29.6,10.79,11.34,17.83,26.24,28.12,42.06h53.68c-6.52-8.55-12.21-15.93-17.81-23.35-25.06-33.36-40.76-69.81-37.2-112.67.45-5.39-.53-10.91.05-16.28,3.64-33.91-4.97-63.43-23.93-92.56-10.33-15.9-10.06-38.73-14.55-58.44,1.18-.25,2.36-.5,3.56-.73,2.33,12.34,4.87,24.68,7,37.07,4.11,24,16.68,44.07,33.59,59.95,49.94,46.9,100.83,92.78,152.28,138.01,14.52,12.74,23.53,27.57,29.55,45.2,3.09,9,6.87,17.76,11.16,28.8h-101.01c-31.75-.03-63.51-.18-95.26.05-6.82.08-9.15-2.18-12.16-8.78-5.89-12.97-15.03-24.43-22.35-36.8-4.26-7.22-10.79-14.97-10.86-22.55-.8-77.28-.5-154.58-.5-231.86ZM316.21,50.79h21.45v12.54h-21.45v-12.54ZM312.12,52.12c-2.33,16.4,8.55,15.38,19.31,14.7,8.73-.55,8.73-.48,10.69-16.78,5.19,3.09,11.14,4.51,12.27,7.65,6.62,18.13,12.09,36.65,17.93,55.03-1.53.55-3.03,1.13-4.54,1.68-2.81-6.67-5.62-13.34-9.68-23.08.48,8,.75,12.79,1.15,19.21h-75.32c-.38-22.57,14.35-55.63,28.19-58.42ZM278.44,129.55c.93-4.46,6.72-9.76,11.39-11.24,24.46-7.8,49.44-7.93,73.87-.15,5.09,1.63,11.04,8.23,12.14,13.47,5.12,24.28,8.65,48.89,12.77,73.39-1.83.55-3.66,1.1-5.49,1.66-1.4-4.09-3.44-8.1-4.06-12.29-3.01-20.22-5.44-40.51-8.6-60.7-.7-4.49-3.59-8.63-5.47-12.94-1.1.45-2.23.9-3.34,1.35.35,6.3.7,12.57,1.05,18.86-1.58.3-3.14.58-4.72.88-1.23-5.74-2.46-11.46-3.89-18.03-.38,4.69-.7,8.73-1.2,14.77-20.37-6.7-39.88-5.12-59.42,2.76-8.55,3.44-12.64,7.8-13.49,16.73-.75,7.73-2.83,15.35-4.57,24.15,11.56-.88,21.52-1.05,23.08-15.43.33-2.98,4.49-6.85,7.7-8,6.2-2.21,12.97-3.54,19.54-3.84,23.28-1.05,28.22,3.94,28.02,26.74-.08,6.22-.03,12.44-.03,21.5h-88.39c4.09-23.75,7.93-48.84,13.12-73.64ZM364.97,202.32c-1.91.18-3.81.35-5.72.5-.43-7.4-.88-14.8-1.3-22.22,1.86-.18,3.71-.35,5.59-.55.48,7.42.95,14.85,1.43,22.27ZM251.07,386.6c.53-3.01,2.01-5.84,3.06-8.73,1.4.08,2.78.13,4.16.2.35,3.86.98,7.73,1,11.56.05,81.52,0,163.01.15,244.51.03,10.69-4.34,18.08-11.51,26.24-11.24,12.79-19.49,28.22-30.9,45.35H17.73c11.81-26.14,15.63-53.75,39.66-74.04,51.67-43.67,101.23-89.9,150.6-136.2,17.96-16.86,31.05-37.93,35.24-63.23,2.51-15.23,5.09-30.48,7.85-45.65ZM14.79,680.22c3.16-34.46,19.39-60.47,46.43-82.2,37.42-30.07,72.92-62.56,109.21-94.04,30.73-26.69,62.03-52.97,68.68-97.1-.2,26.46-10.21,49.11-29.12,66.87-29.25,27.42-59.45,53.8-89.39,80.49-23.1,20.54-45.9,41.46-69.81,61.05-19.46,15.98-27.84,36.7-31.58,60.47-1.53,9.71-3.99,19.26-8.93,28.39,1.55-7.98,3.79-15.9,4.51-23.95ZM32.6,768.41c-13.75-.95-22.02-4.72-21.4-19.87.13-2.83-.68-5.69-1.18-9.58h206.28v45.95c-25.76-2.28-49.84-4.31-73.87-6.52-36.62-3.36-73.19-7.4-109.84-9.98ZM143.27,819.33c13.32.35,26.64.63,39.93.25,14.7-.4,15.2-.02,10.94,15.98-3.06-3.36-6.65-8.58-7.62-8.13-3.66,1.66-6.47,5.22-10.06,8.48-.7-1.86-1.71-4.54-2.56-6.87-12.67,14.15-23.63,11.69-36.07-.28-.2.35-1.48,2.71-2.88,5.27-2.83-5.24-5.49-10.13-8.93-16.53,5.74.63,11.49,1.68,17.26,1.83ZM141.66,808.09c7.93-.78,15.83-1.81,23.75-2.08,1.4-.05,3.99,3.09,4.01,4.79.03,1.4-2.91,4.09-4.54,4.09-7.65.03-15.3-.7-22.95-1.15-.1-1.88-.18-3.76-.28-5.64ZM205.32,841.12c-4.29,5.87-8.15,11.11-11.76,16.03-2.16-1.88-5.29-6.6-8.25-6.52-2.71.08-5.27,5.39-8.45,9.03-1-2.48-2.16-5.37-3.31-8.25-2.51,12.99-12.09,10.36-19.64,9.08-5.42-.93-10.36-4.69-16.78-7.8-.08.18-.25.5-.48.98-.08.18-.2.4-.3.65-.4.83-.9,1.86-1.43,2.96-2.36-4.72-4.54-9.08-6.72-13.42-.88.33-1.76.65-2.61.98-.63,2.73-1.25,5.49-1.88,8.23-.6.03-1.18.03-1.76.03v-11.96h83.37ZM209.18,864.03v8.95c-6.8-7.55-10.23-5.82-15.68,9.58-1.53-3.94-2.58-6.72-4.67-12.12-4.46,3.96-8.28,7.35-12.47,11.06-.63-1.58-1.76-4.49-4.41-11.14-2.13,17.58-12.52,14.05-20.64,12.77-4.59-.7-8.58-5.14-13.82-8.5-.03,0-.8,1.51-1.78,3.34-.23.43-.45.88-.7,1.33l-.3.6c-2.13-4.72-4.04-8.98-5.94-13.24-1,.23-2.01.43-2.99.65-.8,2.83-1.58,5.69-2.38,8.53-.53,0-1.08-.02-1.63-.02v-11.79h87.41ZM126.64,886.9c.05-.25.13-.53.2-.8.13.28.28.55.4.8h82.2v9.86c-2.28-1.88-6.04-5.34-6.3-5.09-3.54,3.29-6.6,7.12-9.76,10.81-1.88-1.51-5.02-5.94-8.13-5.92-2.66.03-5.24,5.24-8.45,8.8-.9-2.53-1.96-5.52-4.26-12.09-3.03,18.16-14.35,13.77-23.08,12.62-4.09-.55-7.55-5.99-11.69-9.56-.4.93-1.48,3.56-2.73,6.57-1-2.06-1.98-4.06-3.06-6.27-.5-1-1-2.06-1.56-3.16-.6-1.25-1.25-2.58-1.96-4.04-.2-.4-.4-.83-.6-1.23-.2-.43-.43-.85-.63-1.3h-.6c-.1.35-.2.68-.28.98-.1.3-.18.58-.23.83-.18.63-.35,1.23-.5,1.78-.15.63-.3,1.2-.48,1.76-.73,2.73-1.23,4.51-1.71,6.3-.63-.08-1.23-.13-1.86-.18v-11.46h5.04ZM195.04,1017.96c-22.75,5.49-45.32,5.17-67.45-2.63-4.24-1.48-11.04-6.57-10.56-8.53,1.25-5.04,4.89-10.91,9.31-13.52,15.5-9.11,31.88-6.55,48.33-1.71,12.77,3.79,24.15,7.95,20.37,26.39ZM237.88,956.48c-1.08.55-2.13,1.08-3.21,1.61-7.75-15.73-15.53-31.48-23.28-47.18-10.71,2.06-13.37,7-9.73,16.88,4.04,10.91,6.57,22.4,9.53,33.71.83,3.11.83,6.45,1.2,9.68-1.71.38-3.41.73-5.12,1.1-4.34-17.51-8.68-35.02-13.32-53.68-3.11.15-6.57.33-11.21.55,3.91,18.16,7.7,35.52,11.71,54.03-3.59.83-6.92,1.58-11.14,2.51-2.53-19.21-4.92-37.4-7.3-55.61-1.4.18-2.81.33-4.21.48,1.78,18.16,3.56,36.34,5.59,56.99-20.37-1.63-39.25-3.16-60.35-4.87,7.55-19.87,14.2-37.3,20.82-54.76-1.45-.6-2.88-1.23-4.34-1.83-7.12,17.51-14.27,35.02-21.4,52.55-1.25-.1-2.51-.2-3.76-.3,0-2.93-.9-6.27.18-8.73,5.47-12.64,11.69-24.96,17.08-37.6,1.2-2.83.18-6.6.18-9.91-1.43-.18-2.86-.38-4.26-.55-7.98,16.58-15.93,33.16-24.43,50.84-3.84-8.9,2.78-25.01,21.8-56.34,31.1,8.25,61.58,8.63,93.88-.3,8.2,16.63,16.65,33.66,25.08,50.72ZM203.39,733.12c-59.3-.03-118.59,0-177.89,0h-15.6v-19.09h209.77q.78,19.11-16.28,19.09ZM229.45,701.29c1.96-10.86,9.56-20.94,15.6-30.75,8.8-14.27,23.5-12.14,37.1-11.01,2.58.2,6.12,4.52,6.92,7.55,4.19,15.6,9.58,31.23,10.89,47.16,1.86,22.27.48,44.82.48,64.74h-79.99c2.88-26.54,4.44-52.37,9-77.68ZM276.33,648.97h33.91c.05.93.13,1.83.18,2.73h-33.94c-.05-.9-.1-1.81-.15-2.73ZM262.53,796.58c9.43-3.11,16.55-4.64,16.58,9.56,0,6.42,1.13,13.04,5.27,19.41,3.51,5.37,2.81,13.47,4.01,20.64h-39.78c5.17-6.55,9.15-10.64,11.89-15.45,2.38-4.21,4.46-9.23,4.61-13.97.18-6.47-1.58-12.99-2.58-20.19ZM232.16,803.65c-.15,1.63-2.83,3.69-4.74,4.24-1.33.38-4.01-1.03-4.87-2.38-3.89-6.12.5-17.53,9.83-21.65,0,7.52.33,13.7-.23,19.79ZM244.75,791.84c1.33,0,2.66-.03,3.99-.03,2.56,6.02,5.09,12.04,8.18,19.26h-20.59c3.19-7.22,5.79-13.24,8.43-19.24ZM297.02,856.02h-57.89c0-.7-.03-1.43-.03-2.13h57.92v2.13ZM311.8,814.49c-.15,3.01-6.6,5.69-10.16,8.53-1.33-.85-2.63-1.68-3.94-2.53,2.53-12.57,5.07-25.13,7.6-37.72,1.56.15,3.11.28,4.67.43.8,10.43,2.41,20.92,1.83,31.3ZM265.22,641.27c-.25-3.71-.7-7.68-.73-11.64-.05-25.91-.33-51.82.25-77.73.1-4.54,3.86-8.98,5.92-13.47l-.43-.43c-1.91-2.41-5.49-4.79-5.52-7.22-.38-30.5-.5-61.03.13-91.53.08-3.39,4.61-8.55,8.08-9.58,7.02-2.13,14.72-1.98,22.17-3.74h-21.07v-100.26c-1.28-.03-2.56-.03-3.84-.05v101.31c-1.23.13-2.43.25-3.66.38-.65-2.26-1.88-4.52-1.88-6.8-.15-30.1-.35-60.2.18-90.27.08-4.39,3.89-8.7,8.2-11.89v-90.9h-3.19v89.27c-1.1.13-2.21.25-3.34.38-.63-2.31-1.83-4.62-1.83-6.92-.2-27.99.1-56.01-.48-84-.25-11.76,4.59-16.28,16-16.55,14.5-.38,29-1.83,44.45-2.88v215.84c-4.29.45-8.73.95-15.68,1.71,6.52.7,10.61,1.13,15.63,1.68v106.65c-7.02.55-13.87,1.1-20.72,1.66.02.3.02.6.02.9,6.6.4,13.22.8,20.72,1.25v104.85h-59.4ZM334.72,685.09c-8.38,7.45-3.36,15.58-3.46,22.93-.65,52.17-.53,104.34-1.03,156.52-.1,11.06-1.76,22.12-5.59,33.41-.95-6.55-2.46-13.09-2.83-19.69-2.81-51.24-5.97-102.49-7.83-153.76-.73-19.94,2.31-39.83,13.72-61.9,3.31,10.06,9.08,20.67,7.02,22.5ZM329.18,641.34v-105.42h31.68l-.4-.3c.13-.28.23-.53.38-.8v-.03c-.18-12.14-.33-24.28-.5-36.4-.25-17.98-.53-35.94-.85-53.93-.08-4.62-.95-9.21-1.45-13.8-1.55.08-3.09.13-4.64.18v102.21h-24.25v-106.88c5.04-.6,9.46-1.13,16.61-2.01-7.27-.63-11.81-1.03-18.86-1.66,1.53-36.09,4.26-71.96,4.26-107.83s-2.76-70.06-4.44-108.48c20.34,1.83,38.35,3.24,56.29,5.34,2.18.25,5.57,4.36,5.59,6.7.38,32.88.25,65.79.25,98.68-1.4.38-2.83.75-4.24,1.1-1.13-3.59-3.21-7.2-3.26-10.81-.3-25.48-.2-50.99-.23-76.5v-15.55c-5.49-.58-9.88-1.03-16.55-1.71v100.76c-1.71.03-3.39.05-5.09.05v-101.74l-5.72-.08v103.67c7.25.9,17.56,1.43,27.42,3.76,3.31.78,7.78,6.17,7.85,9.53.63,30.1.2,60.2.55,90.3,0,.35,0,.68-.03.98,0,.3-.03.6-.05.88-.03.4-.08.78-.13,1.13-.05.33-.13.63-.2.9-.13.5-.28.95-.48,1.33-.1.23-.2.43-.35.63-.08.15-.18.3-.3.43-.05.08-.1.13-.18.2-.2.23-.4.43-.63.58-.05.08-.1.1-.15.13-.23.18-.48.3-.73.43-.2.1-.4.2-.63.25-.35.13-.7.23-1.1.28-.3.05-.6.1-.93.1-.18.02-.33.02-.5.02-.45.05-.93.03-1.45,0,.3.13.58.25.85.4,1.25.63,2.31,1.33,3.16,2.16.18.15.35.33.5.5.15.13.28.28.38.43.15.15.25.3.35.45.23.28.4.55.58.83.03,0,.03.03.03.05.1.15.2.33.3.5.28.5.5,1.03.7,1.58.07.23.15.45.23.68.1.3.18.63.25.93.07.28.12.55.18.85.05.25.1.5.13.75l.08.53c.18,1.35.23,2.83.2,4.39-.5,28.29-.35,56.59-.08,84.85.03,1.33,0,2.56-.13,3.69-.05.63-.15,1.23-.28,1.78-.13.55-.28,1.05-.48,1.53-.18.48-.43.9-.7,1.3-.15.18-.3.38-.48.53-.18.2-.35.35-.55.48-.33.25-.73.45-1.15.63-.03,0-.03.03-.05.03-.18.08-.35.13-.53.15-.03.03-.05.05-.1.03-.18.08-.35.1-.53.13-.03,0-.05.03-.1.03-.2.03-.4.05-.6.08-.83.1-1.78.08-2.86-.08v.2c.4.13.8.3,1.15.48.38.18.73.35,1.05.53.35.18.68.35.98.58.3.18.6.4.88.63.28.2.55.43.78.68.1.08.2.18.3.3l.3.3c.78.85,1.4,1.81,1.86,2.91.13.25.23.5.3.78.13.3.23.6.3.93.1.33.2.65.25,1,.08.38.15.75.2,1.13.03.13.05.23.05.35.08.48.13,1,.13,1.53.03.1.03.2.03.33.03.5.05,1,.05,1.53v.73c-.58,29.12-.23,58.27-.23,88.32h-60.22ZM350.4,821.79c-19.04-8.35-1.38-26.11-7.55-37.72,1.53-.43,3.09-.83,4.62-1.23,3.03,12.19,6.07,24.38,9.1,36.6-2.06.78-4.11,1.56-6.17,2.36ZM414.64,856.02h-57.94v-2.16h57.94v2.16ZM383.73,821.03c5.42,1.93,10.08,6.82,14.17,11.24,3.26,3.56,5.12,8.35,8.4,13.97h-38.18c.75-5.92,1.55-11.56,2.16-17.21.9-8.78,7.65-10.08,13.44-8ZM374.35,819.68c1.48-5.17,3.14-9.71,4.04-14.4,2.18-11.19,2.03-11.21,14.35-8.98-1.51,7.73-3.01,15.48-4.54,23.38h-13.85ZM394.14,811.55c4.01-7.55,7.12-13.39,10.23-19.24,2.96,5.17,5.94,10.36,10.13,17.66-7.22.95-9.66,1.33-12.09,1.56-1.58.13-3.18.03-8.28.03ZM353.38,778.94c-1.33-33.34-5.79-69.53,7.27-104.75,6.12-16.5,26.99-21.7,40.91-10.18,18.59,15.33,23.68,36.7,25.84,59.12,1.78,18.56,2.73,37.22,4.04,55.81h-78.06ZM430.16,805.98c-1.03,1.3-4.06,2.38-5.37,1.81-1.78-.83-3.11-3.21-3.99-5.19-.63-1.4-.2-3.29-.2-4.97v-13.75c8.75,3.99,13.47,17.08,9.56,22.1ZM431.54,714.08h212.43v18.11h-209.62c-1-6.47-1.83-11.76-2.81-18.11ZM518.13,1017.91c-22.6,5.54-44.4,5.02-65.79-1.78-4.94-1.58-8.83-6.52-13.19-9.91,4.14-4.84,7.37-11.44,12.62-14.17,16.76-8.75,33.99-4.62,50.74,1.23,15.17,5.32,15.78,6.4,15.63,24.63ZM560.57,956.43c-1,.5-2.01.98-3.01,1.45-7.9-15.83-15.8-31.65-24-48.08-4.09,2.41-7.83,4.59-11.69,6.87,3.49,18.51,11.79,35.79,13.54,54.28-1.81.4-3.61.8-5.42,1.2-2.66-10.56-5.37-21.09-7.95-31.68-1.18-4.87-2.41-9.76-3.06-14.7-1.13-8.3-5.34-9.33-13.04-5.12,3.64,16.98,7.37,34.36,11.14,51.92-8.18,4.72-11.66,2.63-12.52-6.12-1.55-15.58-3.64-31.1-5.49-46.65-1.58.13-3.14.28-4.72.4,1.96,18.26,3.91,36.55,6.15,57.46-20.64-1.73-39.51-3.29-60.58-5.04,7.6-19.89,14.27-37.37,20.94-54.88-1.35-.6-2.73-1.23-4.09-1.83-7.37,17.66-14.77,35.34-22.15,53-1.33-.28-2.63-.58-3.96-.85.33-3.11-.1-6.55,1.08-9.26,5.39-12.22,11.46-24.13,16.76-36.37,1.28-2.93.5-6.75.65-10.16-1.53-.28-3.09-.55-4.64-.85-7.98,16.63-15.98,33.23-24.33,50.64-3.94-8.15,7.32-35.19,22.12-55.81,29.1,7.5,58.34,8.63,87.71,1,2.13-.55,6.25.4,7.02,1.93,8.13,15.6,15.78,31.45,23.53,47.23ZM509.82,819.38c5.92-.1,11.81-1.28,19.21-2.13-5.17,6.47-9.06,11.39-12.97,16.3-1.53-1.35-4.82-6.32-7.35-5.97-3.11.45-5.59,5.34-9,9-1.03-2.23-2.18-4.79-4.44-9.71-2.61,14.15-11.76,12.42-19.82,10.61-5.09-1.15-9.56-4.99-15.78-8.43,0,0-.88,2.48-2.76,7.75-.7-5.07-2.06-8.13-1.1-9.36,2.43-3.14,5.79-7.55,8.98-7.7,14.97-.78,30-.1,45.02-.38ZM469.32,810.45c6.32-1.53,12.57-3.34,18.96-4.31,1.33-.2,4.39,2.61,4.41,4.04,0,1.63-2.43,4.67-3.91,4.72-6.27.25-12.59-.38-18.89-.68-.2-1.25-.38-2.51-.58-3.76ZM532.55,841.17c.13,2.23.38,6.4.63,10.56-.78.2-1.53.4-2.31.6-.75-2.31-1.51-4.62-3.36-10.21-4.64,5.94-8.1,10.36-12.29,15.73-.55-2.23-1.2-4.82-2.58-10.41-4.94,4.09-8.83,7.3-13.29,11.01-.55-1.18-1.86-3.94-4.57-9.73-1.25,15.8-10.71,13.17-18.29,11.76-5.37-.98-10.23-4.74-16.76-7.95-.28.55-1.13,2.31-1.91,3.89-2.96-4.89-6.02-9.98-9.21-15.25h83.93ZM532.2,864.05v10.79c-.5.08-1.03.15-1.55.23-.75-2.43-1.53-4.87-3.34-10.53-4.64,6.65-7.95,11.36-11.66,16.68-.85-2.86-1.73-5.69-3.41-11.29-4.89,4.64-8.68,8.28-12.82,12.22-.73-2.03-1.71-4.79-2.63-7.42-24.21.9-33.69.2-35.17-4.34-1.68,3.89-2.78,6.45-4.54,10.53-.73-3.86-.68-6.7-1.86-8.88-1.03-1.93-3.41-3.14-5.57-4.97-1.35,3.41-2.43,6.12-3.51,8.83-.55-.13-1.08-.28-1.63-.43v-11.41h87.69ZM532.27,886.9v14.4c-2.31-5.77-3.26-8.13-5.37-13.34-4.36,6.15-7.5,10.61-11.01,15.58-.8-2.21-1.81-4.92-3.71-10.13-4.54,3.89-8.45,7.22-12.87,11.01-.58-1.45-1.71-4.31-3.94-9.98-3.09,17.58-14.65,12.27-23.28,11.41-3.96-.4-7.37-6.04-11.69-9.86-.45.98-1.68,3.69-2.88,6.3-1.83-3.94-3.69-7.93-6.7-14.45-2.43,5.57-3.54,8.15-4.67,10.74-.53-.1-1.05-.23-1.56-.35v-11.31h87.66ZM639.43,766.23c-67.55,6.3-134.42,12.57-202.32,18.91-.9-15.75-1.76-30.22-2.66-45.95h209.67c-1.61,9.31-3.09,17.78-4.69,27.04Z"/>
      <path class="cls-2" d="M254.22,467.24c0,55.9-.14,109.8.11,163.69.06,11.55-3.3,20.12-12.13,28.45-8.2,7.72-15.57,18.11-18.92,28.71-3.87,12.26-9.84,15.95-21.36,14.08-2.69-.44-5.45-.48-9.15-.78,31.18-39.98,38.73-87.15,47.09-133.76,5.88-32.79,9.52-65.98,14.36-100.39Z"/>
      <path class="cls-2" d="M94.48,666.61h40.04v18.73h-40.04v-18.73Z"/>
      <path class="cls-2" d="M92.52,675.39c-6.84,5.35-11.07,11.08-14.2,10.53-4.26-.75-7.69-6.29-11.47-9.77,3.4-3.45,6.47-9.14,10.29-9.69,3.61-.52,8,4.36,15.38,8.94Z"/>
      <path class="cls-2" d="M290.3,538.43h-19.64l-.43-.43v-103.09c1.13-.03,2.26-.05,3.39-.05v100.78h16.55c.03.93.08,1.86.13,2.78Z"/>
      <path class="cls-2" d="M270.61,636.37v-92.29c.81,0,1.63,0,2.44,0v92.38c-.81-.03-1.63-.06-2.44-.09Z"/>
      <path class="cls-2" d="M554.14,685.43v-18.52h39.77v18.52h-39.77Z"/>
      <path class="cls-2" d="M549.3,678.87c-4.26,2.56-8.72,7.35-12.73,7-3.62-.32-9.41-6.33-9.33-9.73.08-3.53,5.87-9.45,9.48-9.7,4.02-.28,8.4,4.66,12.62,7.32-.01,1.7-.02,3.4-.04,5.1Z"/>
      <path class="cls-2" d="M380.96,427.63h-27.68v-106.15c1.33-.14,2.67-.28,4-.42,3.72,10.28,1.33,21.5,1.72,32.23.45,12.09.2,24.22.23,36.33.02,11.45,0,22.9,0,34.35,1.51.03,3.02.07,4.54.1v-99.64c16.44-3.54,17.43-2.9,17.39,10.82-.08,30.88-.3,61.76-.46,92.65,0,0,.25-.27.25-.27Z"/>
      <path class="cls-2" d="M381.02,433.15v105.22c-6.72-.9-13.42-1.83-20.17-2.71-.13-.02-.28-.02-.4-.05.13-.28.23-.53.38-.8v-.03c1.63-3.49,4.14-6.92,4.19-10.43.4-25.84.23-51.67.23-77.51v-13.7h15.78Z"/>
      <path class="cls-2" d="M212.96,742.35v36.93c-7.36-.48-13.57-.89-20.82-1.36,1.8-5.48,3.29-9.28,4.29-13.21,3.93-15.38.87-19.19-15.48-19.21-43.05-.05-86.1,0-129.16-.05-4.86,0-9.71-.51-14.51-3.09h175.68Z"/>
      <path class="cls-2" d="M402.2,670.57c24.16,32.31,20.15,68.17,23.14,102.95-11.36-1.1-21.26-2.07-31.39-3.05,2.75-16.3,6.54-32.5,7.95-48.91,1.37-15.93.3-32.08.3-50.99Z"/>
      <path class="cls-2" d="M359.92,774.12v-80.53c.8.02,1.6.03,2.41.05v80.54c-.8-.02-1.6-.04-2.41-.05Z"/>
      <path class="cls-2" d="M294.03,774.88c-10.69-1.85-20.47-3.54-28.48-4.92,6.29-32.38,12.48-64.29,18.4-94.77,10.86,7.28,17.34,55.84,10.08,99.69Z"/>
      <path class="cls-2" d="M241.73,684.87c-3.85,30.92-7.41,59.6-10.98,88.28-2.57-29.63-.92-58.61,10.98-88.28Z"/>
      <path class="cls-2" d="M510.34,744.59c-1.4,11.64-2.43,20.18-3.51,29.11-22.19,2.03-43.25,3.96-65.12,5.97-1.05-12.99-2.02-24.89-3.05-37.58h176.69c.04.83.07,1.67.11,2.5h-105.13Z"/>
      <path class="cls-2" d="M365.85,636.51v-94.05c5.12.29,9.56.54,14.66.83v93.22h-14.66Z"/>
      <path class="cls-2" d="M358.69,638.53c-2.94-2.76-6.42-4.52-6.4-6.25.26-30.24.94-60.48,1.58-90.72,0-.15.69-.29,1.05-.43,5.62,4.71,8.31,66.23,3.78,97.4Z"/>
      <path class="cls-2" d="M195.55,728.11q1.5-11.09,19.2-9.73c.22,2.98.45,6.08.72,9.73h-19.92Z"/>
      <path class="cls-2" d="M509.28,728.58c-24.22,0-43.83.27-63.42-.28-3.08-.09-6.06-3.86-9.08-5.94.61-1.48,1.21-2.97,1.82-4.45,21.16,0,42.32-.21,63.46.36,1.94.05,3.73,5.15,7.22,10.31Z"/>
    </g>
  </g>
</svg>