<?xml version="1.0" encoding="UTF-8"?>
<svg id="Ebene_2" data-name="Ebene 2" xmlns="http://www.w3.org/2000/svg" viewBox="0 0 659.76 586.17">
  <defs>
    <style>
      .cls-1 {
        fill: #1d2f3b;
      }

      .cls-1, .cls-2 {
        stroke-width: 0px;
      }

      .cls-2 {
        fill: #f2d0b4;
      }
    </style>
  </defs>
  <g id="Ebene_10" data-name="Ebene 10">
    <path class="cls-1" d="M565.68,329.23c-9.32,0-18.67.45-27.96-.08-27.44-1.58-53.63,3.55-79.21,13.2-14.64,5.52-29.61,10.16-42.87,18.81-16.56,10.8-23.56,26.91-18.33,46.07,3.31,12.14,8.68,23.71,12.91,35.62,1.55,4.37,2.79,8.9,3.68,13.45,2.76,14.02-1.36,26.07-11.41,36-12.38,12.23-27.28,19.61-44.62,21.44-14.65,1.55-27.42-2.73-37.16-14.16-4.96-5.82-9.37-12.11-14.07-18.16-11.18-14.4-32.57-15.16-44.94-1.53-6.15,6.77-6.28,14.92-4.13,23.08,2.29,8.68,5.35,17.16,8.04,25.73,5.36,17.05,1.71,30.46-12.16,41.44-12.25,9.69-25.93,16.54-42.09,16-16.3-.54-29.95-7.31-40.85-19.29-6.46-7.09-7.2-15.97-5.58-24.95,1.21-6.7,3.22-13.26,4.78-19.9.83-3.56,1.68-7.14,2.14-10.76,1.36-10.69-3.46-18.65-14.04-20.83-7.38-1.52-15.22-1.72-22.79-1.27-20.74,1.23-38.98-4.89-54.41-18.37-19.47-17.01-27.36-38.88-24.29-64.52,1.38-11.54,7.62-20.62,16.61-27.53,8.84-6.79,18.3-12.76,27.32-19.31,4.03-2.92,7.95-6.11,11.4-9.68,12.93-13.36,15.84-31.72,6.61-47.83-5.09-8.89-11.6-17.06-18.17-24.98-12.73-15.33-23.22-31.68-27.24-51.55-5.07-25.1,4.06-48.14,25.62-61.91,18.89-12.06,39.93-15.75,61.87-11.76,19.03,3.47,32.38,14.66,39.86,32.76,4.51,10.93,8.96,22.08,17.64,30.5,4.72,4.57,9.96,9.04,15.76,11.96,12.89,6.48,24.9,1.71,30.88-11.5,5.46-12.04,4.51-24.36.81-36.64-4.65-15.44-14.61-27.12-26.79-37.12-12.61-10.36-25.86-20-37.85-31.03-30.51-28.07-22.96-84.68,13.5-104.46,19.26-10.46,42.79-7.43,61.15,7.63,14.96,12.27,22.07,28.81,26.26,47.05,6.07,26.41,4.59,52.9,1.61,79.53-1.86,16.69-3.13,33.51-3.46,50.29-.14,7.43,2.1,15.12,4.38,22.34,2.28,7.22,7.38,13,14.81,15.23,7.58,2.27,15.46,4.09,23.32,4.69,9.3.71,14.25-4.13,15.18-13.49.64-6.45.68-12.97.82-19.46.21-9.9,1.31-19.62,5.33-28.8,6.74-15.39,23.31-22.63,39.3-17.21,23.14,7.85,36.22,39.67,25.53,61.68-3.18,6.55-8.24,10.85-14.68,13.58-6.89,2.92-14.02,5.26-20.96,8.09-4.77,1.94-9.56,3.95-14.01,6.51-10.86,6.25-16.03,17.22-12.84,29.27,1.07,4.05,4.66,8.36,8.3,10.63,9.13,5.69,18.69,10.89,28.55,15.2,22.54,9.84,46.68,13.29,70.86,16.1,9.91,1.15,19.93,1.44,29.9,2.08,12.23.79,23.19-3,32.56-10.49,9.6-7.69,18.48-16.28,27.79-24.34,7.8-6.75,15.29-14,23.76-19.8,13.62-9.33,28.87-13.82,45.51-10.22,9.4,2.03,16.72,7.31,20.88,16.3,4.65,10.04,6.96,20.57,5.14,31.59-2.83,17.12-18.87,30.45-38.01,30.97-18.47.51-36.97.11-55.45.11,0-.66,0-1.33,0-1.99ZM238.17,309.61c-5.74,5.44-11.04,10.39-16.26,15.43-12.71,12.28-14.62,23.55-6.08,39.08,4.32,7.86,7.28,15.99,7.94,24.91.28,3.77,2.13,5.37,5.89,4.77,1.64-.26,3.3-.62,4.95-.61,3.69.01,4.84-1.83,4.81-5.32-.11-14.31.09-28.62-.11-42.92-.16-11.49-.72-22.97-1.14-35.35ZM138.73,169.23c-25.05-2.64-54.26,20.19-50.83,41.96,2.8-5.22,5.46-10.17,8.12-15.12.43,4.7-.26,8.99-.09,13.24.42,10.75,1.32,11.17,10.8,6.24,1.47-.77,3.21-1.25,4.36-2.34,1.02-.97,1.98-2.63,1.95-3.95-.18-7.17-1.07-14.33-.88-21.48.08-2.93,1.45-7.3,3.6-8.45,7.78-4.14,16.13-7.19,22.97-10.09ZM377.58,428.68c.02-.19.04-.38.06-.57-8.77,1.94-17.87,2.97-26.22,6.05-12.58,4.64-22.49,13-26.79,26.34-2.22,6.88-2.23,13.83,3.15,19.63.88.95,2.33,1.37,3.52,2.03.66-1.24,1.81-2.45,1.9-3.73.39-5.94.9-11.92.53-17.84-.22-3.56.57-6.5,2.81-8.78,4.28-4.33,8.36-9.41,13.59-12.13,8.71-4.52,18.25-7.42,27.45-11ZM90.93,429.41c4.58-5.89,8.42-10.97,12.44-15.91,2.07-2.55,2.6-4.99,1.51-8.2-.52-1.53-.19-4.64.75-5.14,2.6-1.37,3.94-3.04,2.2-5.35-1.7-2.26-4.39-4.05-7.03-.89-3.28,3.93-6.96,7.69-9.42,12.1-3.88,6.97-3.87,14.49-.45,23.39ZM196.98,57.73c9.27-24.56,26.85-38.17,52.86-40.95-24.93-1.93-55.04,14.25-52.86,40.95ZM171.74,306.49c4.31-11.19,10.14-21.29,19.99-28.41,9.83-7.11,21.31-10.15,32.96-12.66-16.6.22-31.96,4.17-44.3,15.93-7.05,6.71-10.01,15.22-8.65,25.14ZM219.93,517.84c-10.52-8.38-33.63,2.02-34.88,17.7,2-1.38,3.79-2.62,5.61-3.89,1.28,2.97,2.37,5.48,3.44,7.97,3.96-1,6.66-2.59,5.57-6.64-1.66-6.16.49-11.6,6.58-13.36,4.48-1.3,9.34-1.26,13.68-1.78ZM101.14,375.49c-14.34,5.5-24.34,14.67-27.51,30.11-1.9,9.26.08,19.84,5.08,23.83-2.06-22.09-.29-42.39,22.44-53.94ZM578.91,285.76c14.23-12.39,27.52-25.03,47.42-24.82-16.68-3.95-43.91,5.86-47.42,24.82ZM206.65,54.7c8.75-.66,13.36-5.12,13.81-12.49.13-2.14.65-4.25.74-6.39.04-.83-.4-1.9-1-2.46-.33-.32-1.63-.08-2.15.33-6.67,5.25-10.32,12.12-11.4,21.01ZM402.52,161.99c-6.86-4.17-13.76-4.09-20.74-.92-7.75,3.51-13.16,9.01-15.4,18.73,11.66-8.33,19.05-23.08,36.14-17.8ZM255.12,362.3c.79-.03,1.58-.05,2.37-.08,1.34-2.05,3.54-3.98,3.81-6.16.39-3.05-1.82-5.34-5.18-5.26-3.46.08-5.99,2.14-5.3,5.61.43,2.16,2.8,3.94,4.3,5.89ZM109.69,453.23c2.25-1.89,4.59-3.85,6.76-5.67-1.71-2.25-3.41-4.5-5.16-6.82-2.1,2.25-4.18,4.5-6.08,6.54,1.66,2.2,3.22,4.27,4.49,5.95ZM249.4,43.28c-2,1.85-4.29,3.95-6.51,6,.98,1.22,2.66,3.29,4.13,5.11,2.37-2.04,4.67-4,6.53-5.6-1.72-2.28-3.34-4.43-4.15-5.51ZM168.07,337.91c1.02,1.39,2.5,3.43,3.76,5.15,2.34-2.02,4.55-3.93,6.58-5.69-1.63-2.12-3.26-4.24-4.43-5.76-1.78,1.9-3.78,4.02-5.91,6.3ZM609.3,288.67c-1.66-2.14-3.32-4.28-4.96-6.39-2.09,1.99-4.2,3.98-6.29,5.97,1.61,2.18,3.23,4.39,4.69,6.36,2.12-1.92,4.39-3.97,6.56-5.94ZM318.86,434.48c.84,1.1,2.49,3.28,3.88,5.11,2.15-1.9,4.45-3.93,6.39-5.65-1.58-2.07-3.19-4.18-4.52-5.92-1.83,2.06-3.76,4.24-5.75,6.47ZM388.1,172.81c-5.53,3.58-6.41,5.87-4.72,12.19,6.51-2.22,3.48-7.9,4.72-12.19ZM102.63,442.09c.71-.37,1.43-.74,2.14-1.11-.78-1.92-1.07-4.51-2.49-5.57-1.26-.94-3.79-.2-5.76-.2-.12.49-.23.98-.35,1.47,2.15,1.8,4.31,3.61,6.46,5.41ZM117.83,197.29c1.67-2.13,3.45-3.47,3.25-4.38-.29-1.37-1.79-3.02-3.12-3.44-.74-.23-3.05,1.76-3.1,2.82-.06,1.3,1.49,2.68,2.96,5ZM589.4,293.81c1.6-1.43,3.17-2.83,4.67-4.17-1.3-1.6-2.39-2.94-3.51-4.32-1.48,1.55-2.89,3.03-4.3,4.5.92,1.17,1.93,2.45,3.14,4ZM248.64,300.78c1.6-1.83,3.5-3.14,3.31-3.99-.3-1.35-2-2.38-3.1-3.55-1.04,1.08-2.72,2.06-2.93,3.28-.17,1.02,1.4,2.32,2.72,4.26ZM123.06,438.89c-1.22-1.55-2.36-2.99-3.55-4.5-1.61,1.54-3.02,2.88-4.46,4.25,1.21,1.47,2.33,2.84,3.45,4.21,1.63-1.42,3.1-2.69,4.56-3.96ZM234.44,61.73c-1.23-1.52-2.4-2.97-3.6-4.46-1.61,1.53-3.02,2.88-4.42,4.23,1.24,1.56,2.34,2.94,3.46,4.36,1.58-1.43,3.04-2.75,4.56-4.12ZM179.84,350.14c1.48-1.32,2.89-2.57,4.3-3.82-1.17-1.53-2.2-2.87-2.82-3.68-1.63,1.16-3.09,2.19-4.64,3.29,1.16,1.54,2.13,2.83,3.16,4.21ZM327.93,423.51c1.15,1.33,2.18,2.53,3.27,3.8,1.43-1.23,2.77-2.37,4.24-3.64-.56-.6-1.14-1.14-1.61-1.76-.57-.75-1.05-1.57-1.61-2.43-1.46,1.37-2.75,2.58-4.29,4.03Z"/>
    <path class="cls-1" d="M557.05,369.59c7.04,1.58,14.89,2.15,21.72,5.11,14.72,6.38,17,20.32,6.1,32.01-12.46,13.36-33.79,18.47-49.46,11.87-11.61-4.89-18.44-16.72-16.07-27.96,1.74-8.22,7.01-13.85,14.63-16.32,7.17-2.33,14.84-3.1,23.07-4.71ZM522.41,394.33c11.3-8.39,18.88-22.69,35.98-17.46-13.68-8.32-32.88.81-35.98,17.46Z"/>
    <path class="cls-1" d="M346.16,62.51c2.38-4.63,3.82-10.19,7.32-13.7,9.44-9.47,28.96-9.4,38.11-.72,10.8,10.24,12.02,28.2,2.51,39.53-7.1,8.45-16.61,10.27-26.78,8.16-11.4-2.36-18.24-10.03-20.73-21.2-.87-3.9-.25-8.14-.3-12.23.85.14,2.04.71,2.49.36,2.35-1.84,4.68-3.76,6.72-5.93,7.35-7.86,15.59-13.18,27.15-10.08-6.22-4.08-12.55-3.98-19.14-1.64-8.62,3.06-13.68,9.54-17.35,17.46Z"/>
    <path class="cls-1" d="M27.57,348.35c-14.61-.09-27.72-12.86-27.57-26.84.16-14.13,12.17-27.46,24.64-27.33,14.11.15,27.55,14.72,27.47,29.78-.07,13.53-11.09,24.47-24.54,24.39ZM7.36,312.53c4.66-2.87,8.34-5.92,12.58-7.53,4.25-1.62,9.05-1.8,13.27-2.56-9.57-6.21-24.24-1.32-25.85,10.09Z"/>
    <path class="cls-2" d="M238.17,309.61c.42,12.38.98,23.86,1.14,35.35.2,14.31,0,28.62.11,42.92.03,3.49-1.12,5.34-4.81,5.32-1.65,0-3.3.35-4.95.61-3.76.6-5.61-1-5.89-4.77-.66-8.93-3.62-17.06-7.94-24.91-8.54-15.53-6.63-26.8,6.08-39.08,5.22-5.04,10.52-9.99,16.26-15.43Z"/>
    <path class="cls-2" d="M138.73,169.23c-6.83,2.9-15.19,5.95-22.97,10.09-2.15,1.14-3.52,5.51-3.6,8.45-.19,7.14.7,14.31.88,21.48.03,1.33-.93,2.99-1.95,3.95-1.15,1.1-2.89,1.58-4.36,2.34-9.48,4.93-10.38,4.51-10.8-6.24-.17-4.25.52-8.53.09-13.24-2.66,4.95-5.32,9.9-8.12,15.12-3.43-21.77,25.78-44.6,50.83-41.96Z"/>
    <path class="cls-2" d="M377.58,428.68c-9.19,3.58-18.74,6.48-27.45,11-5.23,2.72-9.32,7.79-13.59,12.13-2.25,2.28-3.03,5.22-2.81,8.78.36,5.92-.14,11.9-.53,17.84-.08,1.28-1.24,2.49-1.9,3.73-1.19-.66-2.64-1.08-3.52-2.03-5.38-5.8-5.37-12.74-3.15-19.63,4.29-13.34,14.21-21.7,26.79-26.34,8.35-3.08,17.45-4.1,26.22-6.05-.02.19-.04.38-.06.57Z"/>
    <path class="cls-2" d="M90.93,429.41c-3.42-8.9-3.43-16.42.45-23.39,2.46-4.42,6.13-8.18,9.42-12.1,2.65-3.17,5.34-1.37,7.03.89,1.74,2.32.4,3.98-2.2,5.35-.94.5-1.27,3.61-.75,5.14,1.09,3.21.56,5.66-1.51,8.2-4.02,4.94-7.85,10.02-12.44,15.91Z"/>
    <path class="cls-2" d="M196.98,57.73c-2.18-26.7,27.93-42.88,52.86-40.95-26.01,2.78-43.59,16.39-52.86,40.95Z"/>
    <path class="cls-2" d="M171.74,306.49c-1.36-9.92,1.6-18.43,8.65-25.14,12.34-11.76,27.7-15.7,44.3-15.93-11.65,2.51-23.13,5.55-32.96,12.66-9.85,7.12-15.68,17.22-19.99,28.41Z"/>
    <path class="cls-2" d="M219.93,517.84c-4.34.52-9.2.49-13.68,1.78-6.09,1.76-8.24,7.2-6.58,13.36,1.09,4.05-1.61,5.64-5.57,6.64-1.07-2.49-2.16-5-3.44-7.97-1.82,1.26-3.61,2.5-5.61,3.89,1.25-15.69,24.36-26.08,34.88-17.7Z"/>
    <path class="cls-2" d="M101.14,375.49c-22.72,11.56-24.5,31.85-22.44,53.94-4.99-4-6.98-14.57-5.08-23.83,3.18-15.44,13.18-24.61,27.51-30.11Z"/>
    <path class="cls-2" d="M578.91,285.76c3.51-18.96,30.74-28.77,47.42-24.82-19.9-.21-33.2,12.43-47.42,24.82Z"/>
    <path class="cls-2" d="M206.65,54.7c1.08-8.89,4.73-15.76,11.4-21.01.53-.41,1.82-.65,2.15-.33.6.57,1.04,1.63,1,2.46-.1,2.14-.61,4.25-.74,6.39-.45,7.37-5.05,11.83-13.81,12.49Z"/>
    <path class="cls-2" d="M402.52,161.99c-17.09-5.28-24.48,9.47-36.14,17.8,2.24-9.72,7.66-15.22,15.4-18.73,6.98-3.17,13.88-3.24,20.74.92Z"/>
    <path class="cls-2" d="M255.12,362.3c-1.5-1.95-3.87-3.73-4.3-5.89-.69-3.47,1.84-5.54,5.3-5.61,3.36-.07,5.57,2.21,5.18,5.26-.28,2.18-2.47,4.12-3.81,6.16-.79.03-1.58.05-2.37.08Z"/>
    <path class="cls-2" d="M109.69,453.23c-1.27-1.68-2.83-3.75-4.49-5.95,1.9-2.05,3.99-4.29,6.08-6.54,1.75,2.31,3.46,4.56,5.16,6.82-2.17,1.82-4.5,3.78-6.76,5.67Z"/>
    <path class="cls-2" d="M249.4,43.28c.81,1.07,2.43,3.23,4.15,5.51-1.86,1.6-4.16,3.57-6.53,5.6-1.47-1.82-3.15-3.89-4.13-5.11,2.22-2.05,4.51-4.16,6.51-6Z"/>
    <path class="cls-2" d="M168.07,337.91c2.13-2.27,4.12-4.4,5.91-6.3,1.17,1.52,2.8,3.64,4.43,5.76-2.03,1.75-4.24,3.67-6.58,5.69-1.26-1.72-2.74-3.75-3.76-5.15Z"/>
    <path class="cls-2" d="M609.3,288.67c-2.17,1.97-4.44,4.02-6.56,5.94-1.45-1.97-3.08-4.18-4.69-6.36,2.1-1.99,4.2-3.99,6.29-5.97,1.64,2.11,3.29,4.25,4.96,6.39Z"/>
    <path class="cls-2" d="M318.86,434.48c1.98-2.23,3.91-4.41,5.75-6.47,1.33,1.74,2.94,3.85,4.52,5.92-1.95,1.72-4.25,3.75-6.39,5.65-1.39-1.83-3.04-4-3.88-5.11Z"/>
    <path class="cls-2" d="M388.1,172.81c-1.24,4.29,1.79,9.97-4.72,12.19-1.7-6.32-.82-8.61,4.72-12.19Z"/>
    <path class="cls-2" d="M102.63,442.09c-2.15-1.8-4.31-3.61-6.46-5.41.12-.49.23-.98.35-1.47,1.97,0,4.49-.75,5.76.2,1.42,1.06,1.71,3.65,2.49,5.57-.71.37-1.43.74-2.14,1.11Z"/>
    <path class="cls-2" d="M117.83,197.29c-1.47-2.31-3.02-3.69-2.96-5,.05-1.06,2.36-3.05,3.1-2.82,1.33.42,2.83,2.06,3.12,3.44.19.91-1.58,2.24-3.25,4.38Z"/>
    <path class="cls-2" d="M589.4,293.81c-1.22-1.54-2.22-2.82-3.14-4,1.41-1.48,2.82-2.96,4.3-4.5,1.13,1.39,2.22,2.73,3.51,4.32-1.51,1.35-3.07,2.74-4.67,4.17Z"/>
    <path class="cls-2" d="M248.64,300.78c-1.32-1.94-2.89-3.24-2.72-4.26.2-1.22,1.88-2.2,2.93-3.28,1.11,1.17,2.8,2.2,3.1,3.55.19.84-1.71,2.16-3.31,3.99Z"/>
    <path class="cls-2" d="M123.06,438.89c-1.46,1.27-2.93,2.54-4.56,3.96-1.12-1.37-2.24-2.73-3.45-4.21,1.44-1.37,2.85-2.71,4.46-4.25,1.19,1.51,2.33,2.96,3.55,4.5Z"/>
    <path class="cls-2" d="M234.44,61.73c-1.52,1.37-2.98,2.69-4.56,4.12-1.12-1.41-2.22-2.8-3.46-4.36,1.41-1.34,2.82-2.69,4.42-4.23,1.2,1.49,2.37,2.94,3.6,4.46Z"/>
    <path class="cls-2" d="M179.84,350.14c-1.04-1.38-2-2.67-3.16-4.21,1.55-1.1,3.01-2.13,4.64-3.29.62.81,1.65,2.15,2.82,3.68-1.4,1.25-2.81,2.5-4.3,3.82Z"/>
    <path class="cls-2" d="M327.93,423.51c1.54-1.45,2.83-2.65,4.29-4.03.56.86,1.04,1.68,1.61,2.43.47.62,1.05,1.16,1.61,1.76-1.47,1.26-2.81,2.41-4.24,3.64-1.1-1.27-2.12-2.47-3.27-3.8Z"/>
    <path class="cls-2" d="M522.41,394.33c3.1-16.65,22.3-25.78,35.98-17.46-17.1-5.23-24.68,9.07-35.98,17.46Z"/>
    <path class="cls-2" d="M346.16,62.51c3.67-7.92,8.73-14.4,17.35-17.46,6.59-2.34,12.91-2.44,19.14,1.64-11.56-3.1-19.8,2.22-27.15,10.08-2.03,2.18-4.37,4.1-6.72,5.93-.45.36-1.64-.22-2.49-.36,0,0-.12.16-.12.16Z"/>
    <path class="cls-2" d="M7.36,312.53c1.61-11.41,16.28-16.3,25.85-10.09-4.22.75-9.02.94-13.27,2.56-4.23,1.61-7.92,4.66-12.58,7.53Z"/>
  </g>
</svg>