<?xml version="1.0" encoding="UTF-8"?>
<svg id="Ebene_2" data-name="Ebene 2" xmlns="http://www.w3.org/2000/svg" xmlns:xlink="http://www.w3.org/1999/xlink" viewBox="0 0 1248.27 1068.17">
  <defs>
    <style>
      .cls-1 {
        fill: url(#Unbenannter_Verlauf_16-4);
      }

      .cls-1, .cls-2, .cls-3, .cls-4, .cls-5, .cls-6, .cls-7, .cls-8, .cls-9, .cls-10, .cls-11 {
        stroke-width: 0px;
      }

      .cls-2 {
        fill: url(#Unbenannter_Verlauf_16-6);
      }

      .cls-3 {
        fill: url(#Unbenannter_Verlauf_16-5);
      }

      .cls-4 {
        fill: url(#Unbenannter_Verlauf_16-2);
      }

      .cls-5 {
        fill: #f2d0b4;
      }

      .cls-6 {
        fill: url(#Unbenannter_Verlauf_20);
      }

      .cls-7 {
        fill: url(#Unbenannter_Verlauf_16-7);
      }

      .cls-8 {
        fill: url(#Unbenannter_Verlauf_16-8);
      }

      .cls-9 {
        fill: url(#Unbenannter_Verlauf_16-9);
      }

      .cls-10 {
        fill: url(#Unbenannter_Verlauf_16);
      }

      .cls-11 {
        fill: url(#Unbenannter_Verlauf_16-3);
      }
    </style>
    <linearGradient id="Unbenannter_Verlauf_16" data-name="Unbenannter Verlauf 16" x1="605.27" y1="891.67" x2="959.27" y2="891.67" gradientUnits="userSpaceOnUse">
      <stop offset="0" stop-color="#f2d0b4"/>
      <stop offset=".08" stop-color="#f2ccae"/>
      <stop offset=".18" stop-color="#f2c19e"/>
      <stop offset=".29" stop-color="#f2af84"/>
      <stop offset=".42" stop-color="#f29560"/>
      <stop offset=".54" stop-color="#f37633"/>
      <stop offset=".8" stop-color="#4ea2ac"/>
      <stop offset="1" stop-color="#1d2f3b"/>
    </linearGradient>
    <linearGradient id="Unbenannter_Verlauf_16-2" data-name="Unbenannter Verlauf 16" x1="156.27" y1="130.67" x2="510.27" y2="130.67" xlink:href="#Unbenannter_Verlauf_16"/>
    <linearGradient id="Unbenannter_Verlauf_16-3" data-name="Unbenannter Verlauf 16" x1="480.27" y1="292.67" x2="701.27" y2="292.67" xlink:href="#Unbenannter_Verlauf_16"/>
    <linearGradient id="Unbenannter_Verlauf_16-4" data-name="Unbenannter Verlauf 16" x1="901.27" y1="540.67" x2="1122.27" y2="540.67" xlink:href="#Unbenannter_Verlauf_16"/>
    <linearGradient id="Unbenannter_Verlauf_16-5" data-name="Unbenannter Verlauf 16" x1="56.27" y1="567.67" x2="277.27" y2="567.67" xlink:href="#Unbenannter_Verlauf_16"/>
    <linearGradient id="Unbenannter_Verlauf_16-6" data-name="Unbenannter Verlauf 16" x1="86" y1="396.02" x2="537.55" y2="396.02" xlink:href="#Unbenannter_Verlauf_16"/>
    <linearGradient id="Unbenannter_Verlauf_16-7" data-name="Unbenannter Verlauf 16" x1="0" y1="975.02" x2="650.27" y2="975.02" xlink:href="#Unbenannter_Verlauf_16"/>
    <linearGradient id="Unbenannter_Verlauf_16-8" data-name="Unbenannter Verlauf 16" x1="732" y1="26.02" x2="1181.27" y2="26.02" xlink:href="#Unbenannter_Verlauf_16"/>
    <linearGradient id="Unbenannter_Verlauf_16-9" data-name="Unbenannter Verlauf 16" x1="359" y1="697.02" x2="691.27" y2="697.02" xlink:href="#Unbenannter_Verlauf_16"/>
    <linearGradient id="Unbenannter_Verlauf_20" data-name="Unbenannter Verlauf 20" x1="916" y1="1002.02" x2="1248.27" y2="1002.02" gradientUnits="userSpaceOnUse">
      <stop offset="0" stop-color="#f2d0b4"/>
      <stop offset=".4" stop-color="#f37633"/>
      <stop offset=".8" stop-color="#4ea2ac"/>
      <stop offset="1" stop-color="#1d2f3b"/>
    </linearGradient>
  </defs>
  <g id="Ebene_2-2" data-name="Ebene 2">
    <path class="cls-10" d="M959.27,903.17c-.4,0-.8.02-1.19.03l-3.47.08-5.56.14-7.49.18c-3.08.08-6.16.15-9.24.23-3.61.09-7.22.18-10.82.27-4.08.1-8.16.2-12.23.3l-13.47.33c-4.84.12-9.69.24-14.53.36l-15.43.38c-5.38.13-10.76.26-16.14.4l-16.69.41c-5.69.14-11.38.28-17.07.42l-17.27.42c-5.77.14-11.53.28-17.3.42-5.72.14-11.44.28-17.16.42s-11.23.28-16.84.41-10.9.27-16.35.4-10.46.26-15.69.38c-4.95.12-9.91.24-14.86.36l-13.86.34-12.68.31c-3.78.09-7.56.19-11.33.28l-9.81.24c-4.54.11-9.08.09-13.61.26-2.32.09-4.64.21-6.95.46-2.15.24-4.26.77-6.43.77-1.83,0-3.6-.24-5.29-.7-8.76-2.33-15.21-10.31-15.21-19.8s6.7-17.78,15.71-19.93c1.53-.37,3.14-.57,4.79-.57,1.65,0,3.25.23,4.86.58,3.06.66,6.19,1.48,9.34,1.86,3.31.4,6.66.51,9.98.82,2.91.27,5.81.54,8.72.81,3.43.32,6.87.64,10.3.96,3.9.36,7.81.73,11.71,1.09l12.96,1.2c4.68.43,9.36.87,14.04,1.3l14.96,1.39c5.23.49,10.47.97,15.7,1.46l16.29,1.51,16.7,1.55c5.65.52,11.3,1.05,16.95,1.57s11.36,1.05,17.03,1.58,11.3,1.05,16.95,1.57c5.57.52,11.13,1.03,16.7,1.55s10.85,1.01,16.28,1.51,10.47.97,15.7,1.46,9.97.93,14.95,1.39c4.68.43,9.35.87,14.03,1.3l12.95,1.2,11.7,1.09c3.43.32,6.86.64,10.29.96l8.7.81,6.96.65,5.04.47,2.96.27c.25.02.51.08.76.07Z"/>
    <circle class="cls-5" cx="485.27" cy="526.17" r="15"/>
    <path class="cls-4" d="M510.27,142.17c-.4,0-.8.02-1.19.03l-3.47.08-5.56.14-7.49.18-9.24.23-10.82.27-12.23.3-13.47.33-14.53.36c-5.14.13-10.28.25-15.43.38l-16.14.4-16.69.41c-5.69.14-11.38.28-17.07.42-5.76.14-11.51.28-17.27.42l-17.3.42c-5.72.14-11.44.28-17.16.42-5.61.14-11.23.28-16.84.41l-16.35.4-15.69.38-14.86.36-13.86.34-12.68.31-11.33.28c-3.27.08-6.54.16-9.81.24-4.54.11-9.08.09-13.61.26-2.32.09-4.64.21-6.95.46-2.15.24-4.26.77-6.43.77-1.83,0-3.6-.24-5.29-.7-8.76-2.33-15.21-10.31-15.21-19.8s6.7-17.78,15.71-19.93c1.53-.37,3.14-.57,4.79-.57,1.65,0,3.25.23,4.86.58,3.06.66,6.19,1.48,9.34,1.86,3.31.4,6.66.51,9.98.82l8.72.81,10.3.96,11.71,1.09,12.96,1.2,14.04,1.3c4.99.46,9.97.93,14.96,1.39l15.7,1.46,16.29,1.51c5.57.52,11.13,1.03,16.7,1.55s11.3,1.05,16.95,1.57,11.36,1.05,17.03,1.58l16.95,1.57,16.7,1.55c5.43.5,10.85,1.01,16.28,1.51s10.47.97,15.7,1.46l14.95,1.39,14.03,1.3c4.32.4,8.63.8,12.95,1.2l11.7,1.09c3.43.32,6.86.64,10.29.96l8.7.81,6.96.65,5.04.47,2.96.27c.25.02.51.08.76.07Z"/>
    <path class="cls-11" d="M701.27,299.85l-.75.02-2.16.05-3.47.09-4.68.11-5.77.14-6.76.17-7.64.19-8.41.21-9.07.22-9.63.24-10.08.25-10.42.26-10.65.26-10.78.26c-3.6.09-7.2.18-10.8.26l-10.71.26-10.51.26-10.21.25-9.8.24-9.28.23-8.65.21-7.92.19-7.08.17-6.13.15c-2.83.07-5.67.05-8.5.16-1.45.05-2.9.13-4.34.29-1.34.15-2.66.48-4.01.48-1.14,0-2.25-.15-3.3-.44-5.47-1.45-9.5-6.44-9.5-12.36s4.18-11.1,9.81-12.44c.96-.23,1.96-.36,2.99-.36,1.03,0,2.03.15,3.04.36,1.91.41,3.86.93,5.83,1.16,2.07.25,4.16.32,6.23.51l5.44.51,6.43.6,7.31.68,8.09.75,8.77.81,9.34.87,9.8.91c3.39.31,6.78.63,10.17.94l10.43.97,10.58.98,10.63.99,10.58.98,10.42.97,10.16.94,9.8.91,9.33.87,8.76.81,8.08.75,7.3.68,6.42.6,5.43.5,4.34.4,3.15.29,1.85.17c.15.01.32.05.47.04Z"/>
    <path class="cls-1" d="M1122.27,547.85l-.75.02-2.16.05-3.47.09-4.68.11-5.77.14-6.76.17-7.64.19-8.41.21-9.07.22-9.63.24-10.08.25-10.42.26-10.65.26-10.78.26-10.8.26-10.71.26-10.51.26-10.21.25-9.8.24-9.28.23-8.65.21-7.92.19-7.08.17-6.13.15c-2.83.07-5.67.05-8.5.16-1.45.05-2.9.13-4.34.29-1.34.15-2.66.48-4.01.48-1.14,0-2.25-.15-3.3-.44-5.47-1.45-9.5-6.44-9.5-12.36s4.18-11.1,9.81-12.44c.96-.23,1.96-.36,2.99-.36,1.03,0,2.03.15,3.04.36,1.91.41,3.86.93,5.83,1.16,2.07.25,4.16.32,6.23.51l5.44.51,6.43.6,7.31.68,8.09.75,8.77.81,9.34.87,9.8.91c3.39.31,6.78.63,10.17.94l10.43.97,10.58.98,10.63.99,10.58.98,10.42.97c3.39.31,6.78.63,10.16.94l9.8.91,9.33.87,8.76.81,8.08.75,7.3.68,6.42.6,5.43.5,4.34.4,3.15.29,1.85.17c.15.01.32.05.47.04Z"/>
    <path class="cls-3" d="M277.27,574.85l-.75.02-2.16.05-3.47.09-4.68.11-5.77.14-6.76.17c-2.55.06-5.09.12-7.64.19-2.8.07-5.61.14-8.41.21l-9.07.22c-3.21.08-6.42.16-9.63.24l-10.08.25-10.42.26c-3.55.09-7.1.17-10.65.26s-7.19.18-10.78.26c-3.6.09-7.2.18-10.8.26s-7.14.17-10.71.26l-10.51.26c-3.4.08-6.81.17-10.21.25-3.27.08-6.53.16-9.8.24l-9.28.23-8.65.21c-2.64.06-5.28.13-7.92.19l-7.08.17-6.13.15c-2.83.07-5.67.05-8.5.16-1.45.05-2.9.13-4.34.29-1.34.15-2.66.48-4.01.48-1.14,0-2.25-.15-3.3-.44-5.47-1.45-9.5-6.44-9.5-12.36s4.18-11.1,9.81-12.44c.96-.23,1.96-.36,2.99-.36,1.03,0,2.03.15,3.04.36,1.91.41,3.86.93,5.83,1.16,2.07.25,4.16.32,6.23.51l5.44.51,6.43.6,7.31.68,8.09.75,8.77.81c3.11.29,6.22.58,9.34.87l9.8.91c3.39.31,6.78.63,10.17.94l10.43.97c3.53.33,7.05.66,10.58.98,3.54.33,7.09.66,10.63.99l10.58.98,10.42.97,10.16.94c3.27.3,6.53.61,9.8.91l9.33.87,8.76.81,8.08.75,7.3.68c2.14.2,4.28.4,6.42.6l5.43.5,4.34.4,3.15.29,1.85.17c.15.01.32.05.47.04Z"/>
    <path class="cls-2" d="M537.55,410.69c-.51.01-1.02.02-1.52.04l-4.42.11-7.1.17c-3.18.08-6.37.16-9.55.23-3.93.1-7.86.19-11.79.29-4.6.11-9.2.23-13.81.34-5.2.13-10.4.25-15.6.38-5.73.14-11.45.28-17.18.42-6.18.15-12.36.3-18.54.45l-19.68.48c-6.86.17-13.73.34-20.59.5s-14.19.35-21.29.52c-7.26.18-14.51.36-21.77.53-7.34.18-14.69.36-22.03.54-7.36.18-14.71.36-22.07.54-7.29.18-14.59.36-21.88.54-7.16.18-14.32.35-21.48.53l-20.86.51c-6.67.16-13.35.33-20.02.49-6.32.15-12.64.31-18.96.46-5.89.14-11.79.29-17.68.43-5.39.13-10.78.26-16.18.4-4.82.12-9.64.24-14.46.35-4.17.1-8.34.2-12.52.31-5.79.14-11.58.11-17.36.33-2.96.11-5.92.26-8.87.59-2.74.3-5.43.98-8.2.98-2.33,0-4.59-.31-6.75-.89-11.17-2.97-19.4-13.15-19.4-25.26s8.55-22.68,20.04-25.42c1.95-.47,4.01-.73,6.11-.73,2.11,0,4.15.3,6.2.74,3.9.84,7.9,1.89,11.91,2.38,4.23.51,8.49.65,12.73,1.05,3.71.34,7.41.69,11.12,1.03,4.38.41,8.76.81,13.14,1.22,4.98.46,9.96.93,14.94,1.39,5.51.51,11.02,1.02,16.53,1.54,5.97.55,11.94,1.11,17.91,1.66,6.36.59,12.72,1.18,19.08,1.77l20.03,1.86c6.92.64,13.85,1.29,20.77,1.93l21.3,1.98c7.21.67,14.41,1.34,21.62,2.01s14.48,1.35,21.73,2.02c7.21.67,14.41,1.34,21.62,2.01s14.2,1.32,21.3,1.98,13.85,1.29,20.77,1.93l20.02,1.86c6.36.59,12.71,1.18,19.07,1.77,5.97.55,11.93,1.11,17.9,1.66,5.51.51,11.01,1.02,16.52,1.53,4.98.46,9.95.92,14.93,1.39,4.37.41,8.75.81,13.12,1.22l11.1,1.03,8.87.82c2.14.2,4.29.4,6.43.6l3.77.35c.31.03.65.1.97.09Z"/>
    <path class="cls-7" d="M650.27,996.14c-.73.02-1.46.04-2.19.05-2.12.05-4.24.1-6.36.16-3.41.08-6.81.17-10.22.25l-13.76.34-16.98.42c-6.63.16-13.26.32-19.88.49-7.49.18-14.98.37-22.47.55-8.25.2-16.5.4-24.74.61-8.9.22-17.8.44-26.7.65-9.45.23-18.89.46-28.34.69-9.89.24-19.77.48-29.66.73s-20.44.5-30.66.75c-10.45.26-20.9.51-31.35.77-10.57.26-21.15.52-31.72.78-10.59.26-21.18.52-31.78.78-10.51.26-21.01.51-31.52.77-10.31.25-20.62.51-30.94.76-10.01.25-20.03.49-30.04.74s-19.22.47-28.83.71c-9.1.22-18.2.45-27.3.67-8.49.21-16.97.42-25.46.62-7.77.19-15.53.38-23.3.57-6.94.17-13.88.34-20.82.51-6.01.15-12.02.29-18.02.44-8.33.2-16.67.16-25,.48-4.26.16-8.53.38-12.77.85-3.95.44-7.82,1.41-11.81,1.41-3.36,0-6.61-.44-9.72-1.29-16.09-4.28-27.94-18.94-27.94-36.37s12.31-32.66,28.86-36.61c2.81-.68,5.77-1.05,8.8-1.05,3.03,0,5.97.43,8.93,1.07,5.62,1.21,11.37,2.73,17.16,3.42,6.08.73,12.23.94,18.33,1.51,5.34.5,10.68.99,16.01,1.49,6.31.59,12.61,1.17,18.92,1.76l21.52,2c7.94.74,15.87,1.47,23.81,2.21,8.6.8,17.2,1.6,25.79,2.4,9.16.85,18.32,1.7,27.47,2.55,9.62.89,19.23,1.79,28.85,2.68,9.97.93,19.94,1.85,29.92,2.78s20.45,1.9,30.68,2.85c10.38.96,20.76,1.93,31.14,2.89,10.43.97,20.86,1.94,31.29,2.91,10.38.96,20.76,1.93,31.13,2.89,10.22.95,20.45,1.9,30.67,2.85s19.94,1.85,29.91,2.78c9.61.89,19.22,1.79,28.84,2.68,9.15.85,18.31,1.7,27.46,2.55,8.59.8,17.18,1.6,25.78,2.39,7.93.74,15.86,1.47,23.79,2.21,7.16.67,14.33,1.33,21.49,2,6.3.59,12.6,1.17,18.89,1.76,5.33.5,10.66.99,15.99,1.49,4.26.4,8.52.79,12.78,1.19,3.09.29,6.17.57,9.26.86,1.81.17,3.62.34,5.44.5.45.04.94.14,1.39.13Z"/>
    <path class="cls-8" d="M1181.27,40.61c-.51.01-1.01.02-1.52.04l-4.4.11-7.06.17-9.51.23-11.73.29c-4.58.11-9.16.22-13.74.34-5.18.13-10.35.25-15.53.38-5.7.14-11.4.28-17.09.42-6.15.15-12.3.3-18.45.45-6.53.16-13.05.32-19.58.48-6.83.17-13.66.33-20.49.5s-14.12.35-21.18.52c-7.22.18-14.44.35-21.66.53-7.31.18-14.61.36-21.92.54-7.32.18-14.64.36-21.95.54s-14.52.36-21.77.53-14.25.35-21.37.52c-6.92.17-13.84.34-20.76.51s-13.28.33-19.92.49c-6.29.15-12.58.31-18.86.46-5.86.14-11.73.29-17.59.43-5.37.13-10.73.26-16.1.39-4.79.12-9.59.24-14.38.35-4.15.1-8.3.2-12.45.31-5.76.14-11.52.11-17.27.33-2.94.11-5.89.26-8.82.58-2.73.3-5.4.97-8.16.97-2.32,0-4.57-.3-6.71-.89-11.12-2.96-19.3-13.08-19.3-25.13s8.5-22.57,19.94-25.29C753.88.25,755.92,0,758.02,0c2.1,0,4.13.3,6.17.74,3.88.83,7.86,1.88,11.85,2.37,4.2.51,8.45.65,12.66,1.04,3.69.34,7.38.69,11.06,1.03,4.36.4,8.71.81,13.07,1.21l14.86,1.38c5.48.51,10.97,1.02,16.45,1.53,5.94.55,11.88,1.1,17.82,1.66,6.33.59,12.65,1.18,18.98,1.76,6.64.62,13.29,1.23,19.93,1.85l20.67,1.92c7.07.66,14.13,1.31,21.2,1.97,7.17.67,14.34,1.33,21.51,2s14.41,1.34,21.62,2.01c7.17.67,14.34,1.33,21.51,2,7.06.66,14.13,1.31,21.19,1.97s13.78,1.28,20.66,1.92c6.64.62,13.28,1.23,19.92,1.85s12.65,1.17,18.97,1.76c5.94.55,11.87,1.1,17.81,1.65,5.48.51,10.96,1.02,16.44,1.53l14.85,1.38c4.35.4,8.7.81,13.05,1.21,3.68.34,7.36.68,11.05,1.03l8.83.82c2.13.2,4.26.4,6.4.59l3.76.35c.31.03.65.1.96.09Z"/>
    <path class="cls-9" d="M691.27,707.81c-.37,0-.75.02-1.12.03l-3.25.08-5.22.13-7.03.17-8.68.21-10.16.25-11.48.28c-4.21.1-8.43.21-12.64.31-4.55.11-9.09.22-13.64.33-4.83.12-9.65.24-14.48.35-5.05.12-10.1.25-15.15.37l-15.67.38c-5.34.13-10.68.26-16.02.39-5.4.13-10.81.26-16.21.4-5.41.13-10.82.27-16.24.4-5.37.13-10.74.26-16.1.39l-15.81.39-15.35.38-14.73.36-13.95.34-13.01.32c-3.97.1-7.94.19-11.9.29-3.55.09-7.09.17-10.64.26-3.07.08-6.14.15-9.21.23-4.26.1-8.52.08-12.78.24-2.18.08-4.36.19-6.52.43-2.02.22-4,.72-6.04.72-1.72,0-3.38-.23-4.97-.66-8.22-2.19-14.28-9.68-14.28-18.58s6.29-16.69,14.75-18.71c1.44-.35,2.95-.54,4.5-.54,1.55,0,3.05.22,4.56.54,2.87.62,5.81,1.39,8.77,1.75,3.11.38,6.25.48,9.37.77l8.18.76c3.22.3,6.44.6,9.67.9l10.99,1.02c4.05.38,8.11.75,12.16,1.13,4.39.41,8.79.82,13.18,1.22l14.04,1.3c4.91.46,9.83.91,14.74,1.37l15.29,1.42,15.68,1.46c5.3.49,10.61.99,15.91,1.48s10.66.99,15.99,1.49c5.3.49,10.61.99,15.91,1.48s10.45.97,15.67,1.46,10.19.95,15.28,1.42l14.73,1.37c4.68.43,9.35.87,14.03,1.3,4.39.41,8.78.82,13.17,1.22,4.05.38,8.1.75,12.16,1.13l10.98,1.02c3.22.3,6.44.6,9.65.9l8.17.76c2.18.2,4.35.4,6.53.61l4.73.44,2.78.26c.23.02.48.07.71.07Z"/>
    <path class="cls-6" d="M1248.27,1012.81c-.37,0-.75.02-1.12.03l-3.25.08-5.22.13-7.03.17-8.68.21-10.16.25-11.48.28c-4.21.1-8.43.21-12.64.31-4.55.11-9.09.22-13.64.33-4.83.12-9.65.24-14.48.35-5.05.12-10.1.25-15.15.37-5.22.13-10.45.26-15.67.38-5.34.13-10.68.26-16.02.39-5.4.13-10.81.26-16.21.4-5.41.13-10.82.27-16.24.4-5.37.13-10.74.26-16.1.39s-10.54.26-15.81.39l-15.35.38c-4.91.12-9.82.24-14.73.36-4.65.11-9.3.23-13.95.34-4.34.11-8.67.21-13.01.32-3.97.1-7.94.19-11.9.29-3.55.09-7.09.17-10.64.26-3.07.08-6.14.15-9.21.23-4.26.1-8.52.08-12.78.24-2.18.08-4.36.19-6.52.43-2.02.22-4,.72-6.04.72-1.72,0-3.38-.23-4.97-.66-8.22-2.19-14.28-9.68-14.28-18.58s6.29-16.69,14.75-18.71c1.44-.35,2.95-.54,4.5-.54,1.55,0,3.05.22,4.56.54,2.87.62,5.81,1.39,8.77,1.75,3.11.38,6.25.48,9.37.77l8.18.76c3.22.3,6.44.6,9.67.9l10.99,1.02c4.05.38,8.11.75,12.16,1.13,4.39.41,8.79.82,13.18,1.22l14.04,1.3c4.91.46,9.83.91,14.74,1.37l15.29,1.42c5.23.49,10.45.97,15.68,1.46,5.3.49,10.61.99,15.91,1.48s10.66.99,15.99,1.49l15.91,1.48c5.22.49,10.45.97,15.67,1.46l15.28,1.42,14.73,1.37c4.68.43,9.35.87,14.03,1.3,4.39.41,8.78.82,13.17,1.22,4.05.38,8.1.75,12.16,1.13l10.98,1.02,9.65.9,8.17.76c2.18.2,4.35.4,6.53.61l4.73.44,2.78.26c.23.02.48.07.71.07Z"/>
    <circle class="cls-5" cx="288.27" cy="227.17" r="10"/>
    <circle class="cls-5" cx="891.27" cy="882.17" r="10"/>
    <circle class="cls-5" cx="916.27" cy="345.17" r="15"/>
    <circle class="cls-5" cx="278.27" cy="1053.17" r="15"/>
    <circle class="cls-5" cx="767.27" cy="156.17" r="15"/>
    <circle class="cls-5" cx="236.77" cy="636.67" r="3.5"/>
    <circle class="cls-5" cx="697.77" cy="773.67" r="3.5"/>
    <circle class="cls-5" cx="142.77" cy="60.67" r="3.5"/>
    <circle class="cls-5" cx="650.77" cy="1052.67" r="3.5"/>
    <circle class="cls-5" cx="646.77" cy="75.67" r="3.5"/>
  </g>
  <g id="Ebene_8" data-name="Ebene 8">
    <path class="cls-5" d="M713.42,418.28h.01c.09,9.09,7.44,16.44,16.53,16.53h0c-9.09.1-16.44,7.45-16.53,16.54h-.01c-.09-9.09-7.44-16.44-16.53-16.53h0c9.09-.1,16.44-7.45,16.53-16.54Z"/>
    <path class="cls-5" d="M923.08,97.96h0c.04,4.5,3.69,8.14,8.19,8.19h0c-4.5.05-8.14,3.69-8.19,8.2h0c-.04-4.5-3.69-8.14-8.19-8.19h0c4.5-.05,8.14-3.69,8.19-8.2Z"/>
    <path class="cls-5" d="M166.42,789.28h.01c.09,9.09,7.44,16.44,16.53,16.53h0c-9.09.1-16.44,7.45-16.53,16.54h-.01c-.09-9.09-7.44-16.44-16.53-16.53h0c9.09-.1,16.44-7.45,16.53-16.54Z"/>
    <path class="cls-5" d="M774.08,996.28h0c.04,4.5,3.69,8.14,8.19,8.19h0c-4.5.05-8.14,3.69-8.19,8.2h0c-.04-4.5-3.69-8.14-8.19-8.19h0c4.5-.05,8.14-3.69,8.19-8.2Z"/>
    <path class="cls-5" d="M167.08,282.28h0c.04,4.5,3.69,8.14,8.19,8.19h0c-4.5.05-8.14,3.69-8.19,8.2h0c-.04-4.5-3.69-8.14-8.19-8.19h0c4.5-.05,8.14-3.69,8.19-8.2Z"/>
  </g>
</svg>