<?xml version="1.0" encoding="UTF-8"?>
<svg id="Ebene_2" data-name="Ebene 2" xmlns="http://www.w3.org/2000/svg" viewBox="0 0 2193.19 1077">
  <defs>
    <style>
      .cls-1 {
        fill: #f2d0b4;
        stroke-width: 0px;
      }
    </style>
  </defs>
  <g id="Ebene_8" data-name="Ebene 8">
    <g>
      <circle class="cls-1" cx="42.69" cy="714.28" r="7.7"/>
      <circle class="cls-1" cx="190.67" cy="947.86" r="4.81"/>
      <circle class="cls-1" cx="166.61" cy="792.87" r="5.78"/>
      <circle class="cls-1" cx="76" cy="820.26" r="3.85"/>
      <circle class="cls-1" cx="133.85" cy="892" r="3.85"/>
      <circle class="cls-1" cx="218.59" cy="1020.07" r="3.85"/>
      <ellipse class="cls-1" cx="210.89" cy="1058.58" rx="3.85" ry="5.78"/>
      <path class="cls-1" d="M89.5,207.17h.01c.09,9.52,7.8,17.23,17.32,17.32h0c-9.52.11-17.23,7.81-17.32,17.34h-.01c-.09-9.52-7.8-17.23-17.32-17.32h0c9.52-.11,17.23-7.81,17.32-17.34Z"/>
      <path class="cls-1" d="M72.18,139.78h0c.05,5.29,4.33,9.57,9.62,9.62h0c-5.29.06-9.57,4.34-9.62,9.63h0c-.05-5.29-4.33-9.57-9.62-9.62h0c5.29-.06,9.57-4.34,9.62-9.63Z"/>
      <circle class="cls-1" cx="112.62" cy="149.41" r="5.78"/>
      <circle class="cls-1" cx="161.71" cy="121.49" r="4.81"/>
      <circle class="cls-1" cx="185.78" cy="276.48" r="5.78"/>
      <circle class="cls-1" cx="49.08" cy="320.77" r="5.78"/>
      <circle class="cls-1" cx="16.35" cy="249.53" r="3.85"/>
      <circle class="cls-1" cx="99.14" cy="297.66" r="3.85"/>
      <circle class="cls-1" cx="71.8" cy="401.23" r="3.85"/>
      <circle class="cls-1" cx="12.26" cy="395.83" r="3.85"/>
      <circle class="cls-1" cx="124.41" cy="350.76" r="3.85"/>
      <circle class="cls-1" cx="218.54" cy="177.36" r="3.85"/>
      <circle class="cls-1" cx="33.67" cy="99.35" r="3.85"/>
      <circle class="cls-1" cx="25.97" cy="22.33" r="5.78"/>
      <circle class="cls-1" cx="133.8" cy="49.28" r="3.85"/>
      <ellipse class="cls-1" cx="141.5" cy="10.78" rx="3.85" ry="5.78"/>
      <path class="cls-1" d="M190.72,482h.01c-6.57,6.91-6.41,17.8.35,24.5h-.01c-6.9-6.56-17.79-6.4-24.49.36h-.01c6.57-6.91,6.41-17.8-.35-24.5h.01c6.9,6.56,17.79,6.4,24.49-.36Z"/>
      <path class="cls-1" d="M225.26,421.59h0c-3.65,3.84-3.56,9.89.2,13.61h0c-3.83-3.64-9.88-3.56-13.61.2h0c3.65-3.84,3.56-9.89-.2-13.61h0c3.83,3.64,9.88,3.56,13.61-.2Z"/>
      <circle class="cls-1" cx="211.47" cy="598.8" r="5.78"/>
      <circle class="cls-1" cx="141.24" cy="705.71" r="5.78"/>
      <circle class="cls-1" cx="82.56" cy="535.29" r="5.78"/>
      <circle class="cls-1" cx="108.74" cy="461.39" r="3.85"/>
      <circle class="cls-1" cx="134.57" cy="553.61" r="3.85"/>
      <circle class="cls-1" cx="42.79" cy="608.83" r="3.85"/>
      <circle class="cls-1" cx="3.85" cy="563.47" r="3.85"/>
      <circle class="cls-1" cx="115.69" cy="609.31" r="3.85"/>
      <circle class="cls-1" cx="146.46" cy="1008.8" r="7.7"/>
      <circle class="cls-1" cx="40.19" cy="958.25" r="4.81"/>
      <circle class="cls-1" cx="42.01" cy="1037.92" r="3.85"/>
    </g>
    <g>
      <circle class="cls-1" cx="2031.91" cy="700.35" r="7.35"/>
      <path class="cls-1" d="M2076.57,216.53h.01c.09,9.09,7.44,16.44,16.53,16.53h0c-9.09.1-16.44,7.45-16.53,16.54h-.01c-.09-9.09-7.44-16.44-16.53-16.53h0c9.09-.1,16.44-7.45,16.53-16.54Z"/>
      <path class="cls-1" d="M2060.04,152.24h0c.05,5.05,4.13,9.13,9.18,9.18h0c-5.05.06-9.13,4.14-9.18,9.19h0c-.05-5.05-4.13-9.13-9.18-9.18h0c5.05-.06,9.13-4.14,9.18-9.19Z"/>
      <circle class="cls-1" cx="2098.62" cy="161.42" r="5.51"/>
      <circle class="cls-1" cx="2038" cy="324.92" r="5.51"/>
      <circle class="cls-1" cx="2006.77" cy="256.95" r="3.67"/>
      <circle class="cls-1" cx="2085.76" cy="302.87" r="3.67"/>
      <circle class="cls-1" cx="2059.68" cy="401.68" r="3.67"/>
      <circle class="cls-1" cx="2002.88" cy="396.53" r="3.67"/>
      <circle class="cls-1" cx="2109.88" cy="353.53" r="3.67"/>
      <circle class="cls-1" cx="2023.3" cy="113.66" r="3.67"/>
      <circle class="cls-1" cx="2015.96" cy="40.18" r="5.51"/>
      <path class="cls-1" d="M2193.19,421.39s-.06-.06-.09-.09h.01s.05.03.07.05c0,.02,0,.03.01.04Z"/>
      <circle class="cls-1" cx="2032.01" cy="599.75" r="3.67"/>
      <circle class="cls-1" cx="1994.85" cy="556.47" r="3.67"/>
    </g>
    <g>
      <circle class="cls-1" cx="1346.91" cy="700.35" r="7.35"/>
      <circle class="cls-1" cx="1488.1" cy="923.21" r="4.59"/>
      <circle class="cls-1" cx="1465.13" cy="775.33" r="5.51"/>
      <circle class="cls-1" cx="1378.68" cy="801.47" r="3.67"/>
      <circle class="cls-1" cx="1433.88" cy="869.91" r="3.67"/>
      <circle class="cls-1" cx="1514.73" cy="992.1" r="3.67"/>
      <ellipse class="cls-1" cx="1507.38" cy="1028.84" rx="3.67" ry="5.51"/>
      <path class="cls-1" d="M1391.57,216.53h.01c.09,9.09,7.44,16.44,16.53,16.53h0c-9.09.1-16.44,7.45-16.53,16.54h-.01c-.09-9.09-7.44-16.44-16.53-16.53h0c9.09-.1,16.44-7.45,16.53-16.54Z"/>
      <path class="cls-1" d="M1375.04,152.24h0c.05,5.05,4.13,9.13,9.18,9.18h0c-5.05.06-9.13,4.14-9.18,9.19h0c-.05-5.05-4.13-9.13-9.18-9.18h0c5.05-.06,9.13-4.14,9.18-9.19Z"/>
      <circle class="cls-1" cx="1413.62" cy="161.42" r="5.51"/>
      <circle class="cls-1" cx="1460.47" cy="134.79" r="4.59"/>
      <circle class="cls-1" cx="1483.43" cy="282.67" r="5.51"/>
      <circle class="cls-1" cx="1353" cy="324.92" r="5.51"/>
      <circle class="cls-1" cx="1321.77" cy="256.95" r="3.67"/>
      <circle class="cls-1" cx="1400.76" cy="302.87" r="3.67"/>
      <circle class="cls-1" cx="1374.68" cy="401.68" r="3.67"/>
      <circle class="cls-1" cx="1317.88" cy="396.53" r="3.67"/>
      <circle class="cls-1" cx="1424.88" cy="353.53" r="3.67"/>
      <circle class="cls-1" cx="1514.68" cy="188.09" r="3.67"/>
      <circle class="cls-1" cx="1338.3" cy="113.66" r="3.67"/>
      <circle class="cls-1" cx="1330.96" cy="40.18" r="5.51"/>
      <circle class="cls-1" cx="1433.83" cy="65.9" r="3.67"/>
      <ellipse class="cls-1" cx="1441.18" cy="29.16" rx="3.67" ry="5.51"/>
      <path class="cls-1" d="M1488.14,478.74h0c-6.27,6.59-6.12,16.98.34,23.38h0c-6.58-6.26-16.97-6.11-23.37.35h0c6.27-6.59,6.12-16.98-.34-23.38h0c6.58,6.26,16.97,6.11,23.37-.35Z"/>
      <path class="cls-1" d="M1521.09,421.11h0c-3.48,3.66-3.4,9.43.19,12.99h0c-3.65-3.48-9.43-3.39-12.98.19h0c3.48-3.66,3.4-9.43-.19-12.99h0c3.65,3.48,9.43,3.39,12.98-.19Z"/>
      <circle class="cls-1" cx="1507.93" cy="590.18" r="5.51"/>
      <circle class="cls-1" cx="1440.93" cy="692.18" r="5.51"/>
      <circle class="cls-1" cx="1384.95" cy="529.59" r="5.51"/>
      <circle class="cls-1" cx="1409.92" cy="459.08" r="3.67"/>
      <circle class="cls-1" cx="1434.57" cy="547.06" r="3.67"/>
      <circle class="cls-1" cx="1347.01" cy="599.75" r="3.67"/>
      <circle class="cls-1" cx="1309.85" cy="556.47" r="3.67"/>
      <circle class="cls-1" cx="1416.56" cy="600.2" r="3.67"/>
      <circle class="cls-1" cx="1445.91" cy="981.35" r="7.35"/>
      <circle class="cls-1" cx="1344.52" cy="933.12" r="4.59"/>
      <circle class="cls-1" cx="1346.26" cy="1009.13" r="3.67"/>
    </g>
    <g>
      <circle class="cls-1" cx="457.91" cy="700.35" r="7.35"/>
      <circle class="cls-1" cx="599.1" cy="923.21" r="4.59"/>
      <circle class="cls-1" cx="576.13" cy="775.33" r="5.51"/>
      <circle class="cls-1" cx="489.68" cy="801.47" r="3.67"/>
      <circle class="cls-1" cx="544.88" cy="869.91" r="3.67"/>
      <circle class="cls-1" cx="625.73" cy="992.1" r="3.67"/>
      <ellipse class="cls-1" cx="618.38" cy="1028.84" rx="3.67" ry="5.51"/>
      <path class="cls-1" d="M502.57,216.53h.01c.09,9.09,7.44,16.44,16.53,16.53h0c-9.09.1-16.44,7.45-16.53,16.54h-.01c-.09-9.09-7.44-16.44-16.53-16.53h0c9.09-.1,16.44-7.45,16.53-16.54Z"/>
      <path class="cls-1" d="M486.04,152.24h0c.05,5.05,4.13,9.13,9.18,9.18h0c-5.05.06-9.13,4.14-9.18,9.19h0c-.05-5.05-4.13-9.13-9.18-9.18h0c5.05-.06,9.13-4.14,9.18-9.19Z"/>
      <circle class="cls-1" cx="524.62" cy="161.42" r="5.51"/>
      <circle class="cls-1" cx="571.47" cy="134.79" r="4.59"/>
      <circle class="cls-1" cx="594.43" cy="282.67" r="5.51"/>
      <circle class="cls-1" cx="464" cy="324.92" r="5.51"/>
      <circle class="cls-1" cx="432.77" cy="256.95" r="3.67"/>
      <circle class="cls-1" cx="511.76" cy="302.87" r="3.67"/>
      <circle class="cls-1" cx="485.68" cy="401.68" r="3.67"/>
      <circle class="cls-1" cx="428.88" cy="396.53" r="3.67"/>
      <circle class="cls-1" cx="535.88" cy="353.53" r="3.67"/>
      <circle class="cls-1" cx="625.68" cy="188.09" r="3.67"/>
      <circle class="cls-1" cx="449.3" cy="113.66" r="3.67"/>
      <circle class="cls-1" cx="441.96" cy="40.18" r="5.51"/>
      <circle class="cls-1" cx="544.83" cy="65.9" r="3.67"/>
      <ellipse class="cls-1" cx="552.18" cy="29.16" rx="3.67" ry="5.51"/>
      <path class="cls-1" d="M599.14,478.74h0c-6.27,6.59-6.12,16.98.34,23.38h0c-6.58-6.26-16.97-6.11-23.37.35h0c6.27-6.59,6.12-16.98-.34-23.38h0c6.58,6.26,16.97,6.11,23.37-.35Z"/>
      <path class="cls-1" d="M632.09,421.11h0c-3.48,3.66-3.4,9.43.19,12.99h0c-3.65-3.48-9.43-3.39-12.98.19h0c3.48-3.66,3.4-9.43-.19-12.99h0c3.65,3.48,9.43,3.39,12.98-.19Z"/>
      <circle class="cls-1" cx="618.93" cy="590.18" r="5.51"/>
      <circle class="cls-1" cx="551.93" cy="692.18" r="5.51"/>
      <circle class="cls-1" cx="495.95" cy="529.59" r="5.51"/>
      <circle class="cls-1" cx="520.92" cy="459.08" r="3.67"/>
      <circle class="cls-1" cx="545.57" cy="547.06" r="3.67"/>
      <circle class="cls-1" cx="458.01" cy="599.75" r="3.67"/>
      <circle class="cls-1" cx="420.85" cy="556.47" r="3.67"/>
      <circle class="cls-1" cx="527.56" cy="600.2" r="3.67"/>
      <circle class="cls-1" cx="556.91" cy="981.35" r="7.35"/>
      <circle class="cls-1" cx="455.52" cy="933.12" r="4.59"/>
      <circle class="cls-1" cx="457.26" cy="1009.13" r="3.67"/>
    </g>
    <circle class="cls-1" cx="258.79" cy="393.22" r="8.13"/>
    <circle class="cls-1" cx="415.02" cy="146.62" r="5.08"/>
    <circle class="cls-1" cx="389.61" cy="310.25" r="6.1"/>
    <circle class="cls-1" cx="293.95" cy="281.34" r="4.07"/>
    <circle class="cls-1" cx="355.02" cy="205.6" r="4.07"/>
    <circle class="cls-1" cx="444.49" cy="70.4" r="4.07"/>
    <ellipse class="cls-1" cx="436.36" cy="29.75" rx="4.07" ry="6.1"/>
    <path class="cls-1" d="M308.21,928.57h.02c.1-10.05,8.23-18.19,18.29-18.29v-.02c-10.05-.1-18.19-8.23-18.29-18.29h-.02c-.1,10.05-8.23,18.19-18.29,18.29v.02c10.05.1,18.19,8.23,18.29,18.29Z"/>
    <path class="cls-1" d="M289.92,999.71h0c.06-5.59,4.57-10.1,10.16-10.16h0c-5.59-.06-10.1-4.58-10.16-10.17h0c-.06,5.59-4.57,10.1-10.16,10.16h0c5.59.06,10.1,4.58,10.16,10.17Z"/>
    <circle class="cls-1" cx="332.61" cy="989.55" r="6.1"/>
    <circle class="cls-1" cx="384.44" cy="1019.02" r="5.08"/>
    <circle class="cls-1" cx="409.85" cy="855.4" r="6.1"/>
    <circle class="cls-1" cx="265.53" cy="808.64" r="6.1"/>
    <circle class="cls-1" cx="230.98" cy="883.85" r="4.07"/>
    <circle class="cls-1" cx="318.38" cy="833.04" r="4.07"/>
    <circle class="cls-1" cx="289.52" cy="723.71" r="4.07"/>
    <circle class="cls-1" cx="226.67" cy="729.4" r="4.07"/>
    <circle class="cls-1" cx="345.06" cy="776.98" r="4.07"/>
    <circle class="cls-1" cx="444.44" cy="960.05" r="4.07"/>
    <circle class="cls-1" cx="249.27" cy="1042.4" r="4.07"/>
    <path class="cls-1" d="M415.07,638.44h.01c-6.94-7.29-6.77-18.79.37-25.87h-.01c-7.28,6.92-18.78,6.76-25.86-.38h-.01c6.94,7.29,6.77,18.79-.37,25.87h.01c7.28-6.92,18.78-6.76,25.86.38Z"/>
    <path class="cls-1" d="M451.53,702.21h0c-3.85-4.05-3.76-10.44.21-14.37h0c-4.04,3.85-10.43,3.76-14.37-.21h0c3.85,4.05,3.76,10.44-.21,14.37h0c4.04-3.85,10.43-3.76,14.37.21Z"/>
    <circle class="cls-1" cx="436.97" cy="515.13" r="6.1"/>
    <circle class="cls-1" cx="362.83" cy="402.26" r="6.1"/>
    <circle class="cls-1" cx="300.88" cy="582.17" r="6.1"/>
    <circle class="cls-1" cx="328.51" cy="660.19" r="4.07"/>
    <circle class="cls-1" cx="355.78" cy="562.84" r="4.07"/>
    <circle class="cls-1" cx="258.9" cy="504.54" r="4.07"/>
    <circle class="cls-1" cx="217.79" cy="552.42" r="4.07"/>
    <circle class="cls-1" cx="335.86" cy="504.04" r="4.07"/>
    <circle class="cls-1" cx="368.34" cy="82.29" r="8.13"/>
    <circle class="cls-1" cx="256.15" cy="135.66" r="5.08"/>
    <circle class="cls-1" cx="258.07" cy="51.55" r="4.07"/>
    <circle class="cls-1" cx="672.45" cy="334.92" r="8.06"/>
    <circle class="cls-1" cx="827.28" cy="90.52" r="5.04"/>
    <circle class="cls-1" cx="802.1" cy="252.69" r="6.04"/>
    <circle class="cls-1" cx="707.3" cy="224.03" r="4.03"/>
    <circle class="cls-1" cx="767.82" cy="148.98" r="4.03"/>
    <circle class="cls-1" cx="856.49" cy="14.98" r="4.03"/>
    <path class="cls-1" d="M721.43,865.48h.02c.1-9.96,8.16-18.02,18.12-18.12v-.02c-9.96-.1-18.02-8.16-18.12-18.12h-.02c-.1,9.96-8.16,18.02-18.12,18.12v.02c9.96.1,18.02,8.16,18.12,18.12Z"/>
    <path class="cls-1" d="M703.3,935.99h0c.05-5.54,4.53-10.01,10.07-10.07h0c-5.54-.06-10.01-4.54-10.07-10.08h0c-.05,5.54-4.53,10.01-10.07,10.07h0c5.54.06,10.01,4.54,10.07,10.08Z"/>
    <circle class="cls-1" cx="745.61" cy="925.91" r="6.04"/>
    <circle class="cls-1" cx="679.13" cy="746.62" r="6.04"/>
    <circle class="cls-1" cx="644.89" cy="821.16" r="4.03"/>
    <circle class="cls-1" cx="731.51" cy="770.8" r="4.03"/>
    <circle class="cls-1" cx="702.91" cy="662.45" r="4.03"/>
    <circle class="cls-1" cx="640.62" cy="668.09" r="4.03"/>
    <circle class="cls-1" cx="757.95" cy="715.24" r="4.03"/>
    <circle class="cls-1" cx="663.02" cy="978.29" r="4.03"/>
    <circle class="cls-1" cx="654.96" cy="1058.87" r="6.04"/>
    <circle class="cls-1" cx="767.77" cy="1030.67" r="4.03"/>
    <ellipse class="cls-1" cx="775.83" cy="1070.96" rx="4.03" ry="6.04"/>
    <circle class="cls-1" cx="849.03" cy="455.73" r="6.04"/>
    <circle class="cls-1" cx="775.56" cy="343.88" r="6.04"/>
    <circle class="cls-1" cx="741.55" cy="599.5" r="4.03"/>
    <circle class="cls-1" cx="672.56" cy="445.24" r="4.03"/>
    <circle class="cls-1" cx="631.81" cy="492.7" r="4.03"/>
    <circle class="cls-1" cx="748.83" cy="444.74" r="4.03"/>
    <circle class="cls-1" cx="781.02" cy="26.77" r="8.06"/>
    <circle class="cls-1" cx="669.83" cy="79.66" r="5.04"/>
    <circle class="cls-1" cx="1070.45" cy="334.92" r="8.06"/>
    <circle class="cls-1" cx="1225.28" cy="90.52" r="5.04"/>
    <circle class="cls-1" cx="1200.1" cy="252.69" r="6.04"/>
    <circle class="cls-1" cx="1105.3" cy="224.03" r="4.03"/>
    <circle class="cls-1" cx="1165.82" cy="148.98" r="4.03"/>
    <circle class="cls-1" cx="1254.49" cy="14.98" r="4.03"/>
    <circle class="cls-1" cx="1143.61" cy="925.91" r="6.04"/>
    <circle class="cls-1" cx="1194.98" cy="955.12" r="5.04"/>
    <circle class="cls-1" cx="1220.16" cy="792.96" r="6.04"/>
    <circle class="cls-1" cx="1100.91" cy="662.45" r="4.03"/>
    <circle class="cls-1" cx="1038.62" cy="668.09" r="4.03"/>
    <circle class="cls-1" cx="1254.44" cy="896.67" r="4.03"/>
    <circle class="cls-1" cx="1052.96" cy="1058.87" r="6.04"/>
    <circle class="cls-1" cx="1165.77" cy="1030.67" r="4.03"/>
    <ellipse class="cls-1" cx="1173.83" cy="1070.96" rx="4.03" ry="6.04"/>
    <circle class="cls-1" cx="1247.03" cy="455.73" r="6.04"/>
    <circle class="cls-1" cx="1173.56" cy="343.88" r="6.04"/>
    <circle class="cls-1" cx="1112.17" cy="522.18" r="6.04"/>
    <circle class="cls-1" cx="1139.55" cy="599.5" r="4.03"/>
    <circle class="cls-1" cx="1166.58" cy="503.01" r="4.03"/>
    <circle class="cls-1" cx="1070.56" cy="445.24" r="4.03"/>
    <circle class="cls-1" cx="1029.81" cy="492.7" r="4.03"/>
    <circle class="cls-1" cx="1146.83" cy="444.74" r="4.03"/>
    <circle class="cls-1" cx="1179.02" cy="26.77" r="8.06"/>
    <circle class="cls-1" cx="1067.83" cy="79.66" r="5.04"/>
    <circle class="cls-1" cx="1794.45" cy="240.92" r="8.06"/>
    <path class="cls-1" d="M1952.92,0c-.17.18-.36.35-.56.5-.85.67-1.92,1.06-3.08,1.06s-2.23-.39-3.08-1.06c-.2-.15-.39-.32-.56-.5h7.28Z"/>
    <circle class="cls-1" cx="1924.1" cy="158.69" r="6.04"/>
    <circle class="cls-1" cx="1829.3" cy="130.03" r="4.03"/>
    <circle class="cls-1" cx="1889.82" cy="54.98" r="4.03"/>
    <path class="cls-1" d="M1843.43,771.48h.02c.1-9.96,8.16-18.02,18.12-18.12v-.02c-9.96-.1-18.02-8.16-18.12-18.12h-.02c-.1,9.96-8.16,18.02-18.12,18.12v.02c9.96.1,18.02,8.16,18.12,18.12Z"/>
    <path class="cls-1" d="M1825.3,841.99h0c.05-5.54,4.53-10.01,10.07-10.07h0c-5.54-.06-10.01-4.54-10.07-10.08h0c-.05,5.54-4.53,10.01-10.07,10.07h0c5.54.06,10.01,4.54,10.07,10.08Z"/>
    <circle class="cls-1" cx="1867.61" cy="831.91" r="6.04"/>
    <circle class="cls-1" cx="1918.98" cy="861.12" r="5.04"/>
    <circle class="cls-1" cx="1944.16" cy="698.96" r="6.04"/>
    <circle class="cls-1" cx="1801.13" cy="652.62" r="6.04"/>
    <circle class="cls-1" cx="1766.89" cy="727.16" r="4.03"/>
    <circle class="cls-1" cx="1853.51" cy="676.8" r="4.03"/>
    <circle class="cls-1" cx="1824.91" cy="568.45" r="4.03"/>
    <circle class="cls-1" cx="1762.62" cy="574.09" r="4.03"/>
    <circle class="cls-1" cx="1879.95" cy="621.24" r="4.03"/>
    <circle class="cls-1" cx="1978.44" cy="802.67" r="4.03"/>
    <circle class="cls-1" cx="1785.02" cy="884.29" r="4.03"/>
    <circle class="cls-1" cx="1776.96" cy="964.87" r="6.04"/>
    <path class="cls-1" d="M1949.33,483.94h.01c-6.87-7.23-6.71-18.62.37-25.64h-.01c-7.21,6.86-18.61,6.7-25.63-.38h-.01c6.87,7.23,6.71,18.62-.37,25.64h.01c7.21-6.86,18.61-6.7,25.63.38Z"/>
    <path class="cls-1" d="M1985.47,547.14h0c-3.82-4.01-3.73-10.35.2-14.24h0c-4.01,3.81-10.34,3.72-14.24-.21h0c3.82,4.01,3.73,10.35-.2,14.24h0c4.01-3.81,10.34-3.72,14.24.21Z"/>
    <circle class="cls-1" cx="1971.03" cy="361.73" r="6.04"/>
    <circle class="cls-1" cx="1897.56" cy="249.88" r="6.04"/>
    <circle class="cls-1" cx="1836.17" cy="428.18" r="6.04"/>
    <circle class="cls-1" cx="1863.55" cy="505.5" r="4.03"/>
    <circle class="cls-1" cx="1890.58" cy="409.01" r="4.03"/>
    <circle class="cls-1" cx="1794.56" cy="351.24" r="4.03"/>
    <circle class="cls-1" cx="1753.81" cy="398.7" r="4.03"/>
    <circle class="cls-1" cx="1870.83" cy="350.74" r="4.03"/>
    <circle class="cls-1" cx="1602.45" cy="319.92" r="8.06"/>
    <circle class="cls-1" cx="1757.28" cy="75.52" r="5.04"/>
    <circle class="cls-1" cx="1732.1" cy="237.69" r="6.04"/>
    <circle class="cls-1" cx="1637.3" cy="209.03" r="4.03"/>
    <circle class="cls-1" cx="1697.82" cy="133.98" r="4.03"/>
    <path class="cls-1" d="M1790.52,0c0,.17-.01.34-.04.5-.06.54-.24,1.05-.51,1.5-.69,1.2-1.99,2.01-3.48,2.01s-2.79-.81-3.48-2.01c-.27-.45-.45-.96-.51-1.5-.03-.16-.04-.33-.04-.5h8.06Z"/>
    <path class="cls-1" d="M1651.43,850.48h.02c.1-9.96,8.16-18.02,18.12-18.12v-.02c-9.96-.1-18.02-8.16-18.12-18.12h-.02c-.1,9.96-8.16,18.02-18.12,18.12v.02c9.96.1,18.02,8.16,18.12,18.12Z"/>
    <path class="cls-1" d="M1633.3,920.99h0c.05-5.54,4.53-10.01,10.07-10.07h0c-5.54-.06-10.01-4.54-10.07-10.08h0c-.05,5.54-4.53,10.01-10.07,10.07h0c5.54.06,10.01,4.54,10.07,10.08Z"/>
    <circle class="cls-1" cx="1675.61" cy="910.91" r="6.04"/>
    <circle class="cls-1" cx="1726.98" cy="940.12" r="5.04"/>
    <circle class="cls-1" cx="1752.16" cy="777.96" r="6.04"/>
    <circle class="cls-1" cx="1609.13" cy="731.62" r="6.04"/>
    <circle class="cls-1" cx="1574.89" cy="806.16" r="4.03"/>
    <circle class="cls-1" cx="1661.51" cy="755.8" r="4.03"/>
    <circle class="cls-1" cx="1632.91" cy="647.45" r="4.03"/>
    <circle class="cls-1" cx="1570.62" cy="653.09" r="4.03"/>
    <circle class="cls-1" cx="1687.95" cy="700.24" r="4.03"/>
    <circle class="cls-1" cx="1786.44" cy="881.67" r="4.03"/>
    <circle class="cls-1" cx="1593.02" cy="963.29" r="4.03"/>
    <circle class="cls-1" cx="1584.96" cy="1043.87" r="6.04"/>
    <circle class="cls-1" cx="1697.77" cy="1015.67" r="4.03"/>
    <ellipse class="cls-1" cx="1705.83" cy="1055.96" rx="4.03" ry="6.04"/>
    <path class="cls-1" d="M1757.33,562.94h.01c-6.87-7.23-6.71-18.62.37-25.64h-.01c-7.21,6.86-18.61,6.7-25.63-.38h-.01c6.87,7.23,6.71,18.62-.37,25.64h.01c7.21-6.86,18.61-6.7,25.63.38Z"/>
    <path class="cls-1" d="M1793.47,626.14h0c-3.82-4.01-3.73-10.35.2-14.24h0c-4.01,3.81-10.34,3.72-14.24-.21h0c3.82,4.01,3.73,10.35-.2,14.24h0c4.01-3.81,10.34-3.72,14.24.21Z"/>
    <circle class="cls-1" cx="1779.03" cy="440.73" r="6.04"/>
    <circle class="cls-1" cx="1705.56" cy="328.88" r="6.04"/>
    <circle class="cls-1" cx="1644.17" cy="507.18" r="6.04"/>
    <circle class="cls-1" cx="1671.55" cy="584.5" r="4.03"/>
    <circle class="cls-1" cx="1698.58" cy="488.01" r="4.03"/>
    <circle class="cls-1" cx="1602.56" cy="430.24" r="4.03"/>
    <circle class="cls-1" cx="1561.81" cy="477.7" r="4.03"/>
    <circle class="cls-1" cx="1678.83" cy="429.74" r="4.03"/>
    <circle class="cls-1" cx="1711.02" cy="11.77" r="8.06"/>
    <circle class="cls-1" cx="1599.83" cy="64.66" r="5.04"/>
    <circle class="cls-1" cx="1018.47" cy="338" r="8.06"/>
    <circle class="cls-1" cx="873.55" cy="87.61" r="5.04"/>
    <circle class="cls-1" cx="892.22" cy="250.65" r="6.04"/>
    <circle class="cls-1" cx="988.09" cy="225.81" r="4.03"/>
    <path class="cls-1" d="M847.3,12.97c2.22.09,4.03.16,4.03.16,0,0-1.8-.07-4.03-.16l-4.03-.16,4.03.16Z"/>
    <circle class="cls-1" cx="847.38" cy="10.96" r="4.03"/>
    <circle class="cls-1" cx="995.32" cy="749.11" r="6.04"/>
    <circle class="cls-1" cx="974.93" cy="664.05" r="4.03"/>
    <circle class="cls-1" cx="1036.95" cy="672.18" r="4.03"/>
    <circle class="cls-1" cx="1002.15" cy="981.24" r="4.03"/>
    <path class="cls-1" d="M895.47,1027.37l-4.03-.16,4.03.16c2.22.09,4.03.16,4.03.16,0,0-1.8-.07-4.03-.16Z"/>
    <path class="cls-1" d="M853.99,574.63h-.01c7.16-6.94,7.45-18.34.66-25.63h.01c6.93,7.15,18.33,7.44,25.62.65h.01c-7.16,6.94-7.45,18.34-.66,25.63h-.01c-6.93-7.15-18.33-7.44-25.62-.65Z"/>
    <circle class="cls-1" cx="837.2" cy="451.65" r="6.04"/>
    <circle class="cls-1" cx="915.09" cy="342.83" r="6.04"/>
    <circle class="cls-1" cx="969.29" cy="523.44" r="6.04"/>
    <circle class="cls-1" cx="938.84" cy="599.61" r="4.03"/>
    <circle class="cls-1" cx="915.7" cy="502.12" r="4.03"/>
    <circle class="cls-1" cx="1013.95" cy="448.23" r="4.03"/>
    <circle class="cls-1" cx="1052.76" cy="497.28" r="4.03"/>
    <circle class="cls-1" cx="937.76" cy="444.68" r="4.03"/>
    <circle class="cls-1" cx="922.32" cy="25.75" r="8.06"/>
    <circle class="cls-1" cx="1031.3" cy="83.05" r="5.04"/>
  </g>
</svg>