<?xml version="1.0" encoding="UTF-8"?>
<svg id="Ebene_2" data-name="Ebene 2" xmlns="http://www.w3.org/2000/svg" viewBox="0 0 494.85 1080">
  <defs>
    <style>
      .cls-1 {
        fill: #f2d0b4;
        stroke-width: 0px;
      }
    </style>
  </defs>
  <g id="Ebene_11" data-name="Ebene 11">
    <path class="cls-1" d="M259.59,0c10.75,18.01,25.87,33.11,43.89,43.84-2.29,4.78-4.12,9.87-5.42,15.23-7.89,32.45,5.77,65.1,31.81,82.88-3.22,6.84-5.02,14.48-5.02,22.55,0,27.07,20.29,49.39,46.49,52.6-13.57,20.1-21.49,44.32-21.49,70.4,0,38.53,17.29,73.02,44.54,96.13-2.29,6.53-3.54,13.55-3.54,20.87v.13c-9-2.05-18.38-3.13-28-3.13-69.59,0-126,56.41-126,126,0,45.04,23.63,84.55,59.16,106.83-17.85,15.22-29.16,37.88-29.16,63.17,0,9.1,1.46,17.86,4.18,26.05-3.45-.69-7.02-1.05-10.68-1.05-30.1,0-54.5,24.4-54.5,54.5,0,20.2,10.99,37.84,27.32,47.25-41.87,17.55-72.25,57.06-76.74,104.13-12.47-15.19-31.39-24.88-52.58-24.88-37.56,0-68,30.44-68,68,0,17.93,6.94,34.24,18.29,46.38-12.77,2.61-24.23,8.81-33.29,17.49-11.93,11.4-19.71,27.11-20.85,44.63h494.85V0h-235.26ZM392.92,420.8h.01s.05.03.07.05c0,.02,0,.03.01.04-.03-.03-.06-.06-.09-.09Z"/>
  </g>
</svg>