<?xml version="1.0" encoding="UTF-8"?>
<svg id="Ebene_2" data-name="Ebene 2" xmlns="http://www.w3.org/2000/svg" viewBox="0 0 1740.57 1081.85">
  <defs>
    <style>
      .cls-1 {
        fill: #000;
      }

      .cls-1, .cls-2, .cls-3, .cls-4, .cls-5, .cls-6, .cls-7, .cls-8, .cls-9, .cls-10 {
        stroke-width: 0px;
      }

      .cls-2 {
        fill: #1d2f3b;
      }

      .cls-3 {
        fill: #c83837;
      }

      .cls-4 {
        fill: #4ea2ac;
      }

      .cls-5 {
        fill: #f2d0b4;
      }

      .cls-6 {
        fill: #192a33;
      }

      .cls-11 {
        stroke: #000;
      }

      .cls-11, .cls-9 {
        fill: #fff;
      }

      .cls-11, .cls-12 {
        stroke-miterlimit: 10;
        stroke-width: 3.65px;
      }

      .cls-7 {
        fill: #182830;
      }

      .cls-8, .cls-12 {
        fill: #4dad6e;
      }

      .cls-12 {
        stroke: #192a33;
      }

      .cls-10 {
        fill: #f37633;
      }
    </style>
  </defs>
  <g id="Ebene_8" data-name="Ebene 8">
    <path class="cls-5" d="M1119.51,1080h-592.16l-94.94-218.87-7.03-16.2-3.42-7.89-2.22-5.12h0s-1.32-3.04-1.32-3.04l-.33-.76-2.14-4.93-.28-.66-2.26-5.21-4.58-10.55-1.46-3.36-1.59-3.67-5.35-12.33-.26-.61-29.35-67.65-.98-2.27-6.81-15.7-.87-2-11.55-26.62-2.4-5.54-1.06-2.44-.86-1.97-65.12-150.14-.95-2.19-1.05-2.42h0s-.83-1.89-.83-1.89c0,0,.01,0,0-.01l-7.15-16.5-5.6-12.89-1.04-2.4-.58-1.35-10.1-23.28-1.89-4.35-3.78-8.72-3.04-7.01-8.22-18.95-13.62-31.4-29.95-69.03-8.93-20.6-1.46-3.35-3.83-8.84,11.06-8.47,21.94-16.79,25.07-19.19,48.06-36.8,11.71-8.97s.04-.03.06-.04l26.27-20.11,13.07,15.08,4.62,5.33,3.81,4.4,11.3,13.03,9.39,10.84,2.02,2.32,36.27,41.86,23.17,26.73,3.44,3.97,10.75,12.41,4.36,5.03,4.58,5.27,6.14,7.09,5.25,6.05h.01s1.14,1.33,1.14,1.33l9.53,11,.96,1.1,4.81,5.56,4.08,4.7,4.87,5.62,1.93,2.23,1.36,1.57,112.7,130.03,516.63,590.53Z"/>
    <g>
      <path class="cls-11" d="M426.99,824.44c.41,4.18.83,7.59.8,10.63-.02-2.99-.44-6.36-.85-10.46-.35-3.64-.69-7.85-.73-12.88,0-.38,0-.76,0-1.15,0-.49,0-1,.01-1.51.02-1.53.08-3.14.16-4.82.01-.23.02-.46.04-.68.05,1.22.26,2.46.59,3.78,1.45,5.79,1.34,11.5-.02,17.1Z"/>
      <path class="cls-11" d="M427.42,798.08c-.39.95-.66,1.87-.81,2.78.36-4.66.94-9.07,1.61-13,.07.64.19,1.28.35,1.94.63,2.54-.11,5.75-1.15,8.28Z"/>
      <path class="cls-11" d="M432.37,772.17c-.04.13-.08.26-.13.39-.3.86-.59,1.73-.99,2.55-.06.12-.12.24-.18.36.48-1.5.92-2.62,1.29-3.3Z"/>
      <path class="cls-9" d="M255.36,809.99v.23c-.03,6.39-.56,11.47-.99,15.72-.03-.09-.05-.16-.08-.25-2.09-7.05-1.8-14.18.18-21.29.32-1.14.24-2.62-.21-3.71-2.18-5.23-2.64-10.52-1.47-16.06.02-.09.03-.16.04-.25h0c-.23-1.19-.47-2.3-.71-3.36h0s-.01-.02-.01-.04c0-.01-.01-.02-.02-.03-1.47-3.18-2.77-6.4-3.9-9.66-.39,1.82.17,8.41-.91,17.74-2.14,18.47-7.52,20.17-8.51,33.44-.09,1.15-.13,2.29-.14,3.41,0-1.31.04-2.66.14-4.02,1-13.27,6.37-14.97,8.51-33.44,1.01-8.71.59-15.03.84-17.31h0c.07-.6.18-.91.37-.93.75-.08,2.41,4.47,3.91,11.52,0,0,0,0,0,.01h0c.15.72.3,1.45.45,2.21h0c1.05,5.45,1.96,12.08,2.32,19.1.1,1.92.15,3.73.16,5.45,0,.51.01,1.02.01,1.51Z"/>
      <path class="cls-9" d="M281.38,870.07h0s0-.01,0-.01c-.79-1.66-1.55-3.33-2.29-5.03-1.21-2.78-3-5.5-5.12-7.67-.95-.99-1.89-1.98-2.81-2.99h0c-5.17-3.16-9.76-2.57-14.14-8.78-2.54-3.61-3.26-7-3.23-11.13.04,3.85.81,7.1,3.23,10.52,4.07,5.77,8.32,5.67,13.05,8.15,1.85.97,3.78,2.34,5.8,4.61,3.46,3.9,4.99,7.95,5.67,12.59h0c.42,2.86.51,5.92.54,9.31-.04-3.5-.17-6.66-.68-9.59Z"/>
      <path class="cls-11" d="M252.12,781s-.01-.02-.02-.03c-1.47-3.18-2.77-6.4-3.9-9.66t0,0c.07-.32.16-.49.3-.5.71-.07,2.21,3.9,3.62,10.19Z"/>
      <path class="cls-11" d="M255.36,809.99v.23c0,6.45-.5,11.58-.95,15.88h0c-.32,3.18-.61,5.9-.63,8.36-.02-2.5.26-5.27.59-8.51h0c-.03-.09-.05-.17-.08-.26-2.09-7.05-1.8-14.18.18-21.29.32-1.14.24-2.62-.21-3.71-2.18-5.23-2.64-10.52-1.47-16.06.02-.09.03-.16.04-.25,1.06,5.47,1.98,12.16,2.35,19.25.08,1.69.14,3.3.16,4.84,0,.51.01,1.02.01,1.51Z"/>
      <path class="cls-11" d="M272.16,916.92c-.02-2.3-.19-4.77-.55-7.48-2.05-15.12-8.9-28.22-9.73-29.79-6.2-11.66-9.76-12-15.2-23.1-2.61-5.34-8.16-16.66-8.04-30.64.05,13.7,5.47,24.77,8.04,30.03,5.44,11.11,9,11.44,15.2,23.1.83,1.57,7.68,14.68,9.73,29.79.4,2.95.57,5.62.55,8.09Z"/>
      <path class="cls-11" d="M281.38,870.05c-.79-1.66-1.55-3.33-2.29-5.03-1.21-2.78-3-5.5-5.12-7.67-.95-.99-1.89-1.98-2.81-2.99,1.51.92,3.08,2.16,4.7,3.99,3.23,3.64,4.78,7.42,5.52,11.69Z"/>
      <path class="cls-12" d="M442.8,823.1c-.99-13.27-6.37-14.97-8.51-33.44-1.27-10.97-.28-18.15-1.22-18.24-.19-.02-.42.24-.7.75-.05.13-.09.26-.14.39-.3.86-.59,1.73-.98,2.55l-.18.36h0c-.92,2.92-1.97,7.23-2.86,12.39.08.64.2,1.29.36,1.94.62,2.54-.11,5.75-1.15,8.28-.39.96-.66,1.88-.82,2.78-.06.89-.13,1.78-.18,2.69v.02c.05,1.22.26,2.46.59,3.77,1.45,5.79,1.34,11.51-.02,17.1.41,4.18.83,7.59.8,10.63.03,3.63-.53,6.72-2.41,9.86-.25.42-.52.85-.82,1.27-5.66,8.03-11.67,4.69-18.85,12.77-5.56,6.26-6.12,12.94-6.21,21.79-.01.59-.01,1.19-.02,1.8,0,.78,0,1.58-.01,2.4v1c0,.32,0,.63,0,.95,0,.3-.01.61-.01.92-.06,4.57-.26,9.69-1.04,15.52-2.93,22.11-9.51,19.83-15.8,46.82-.47,2.01-.99,4.21-1.5,6.54-.32,1.44-.64,2.94-.96,4.47-.26,1.27-.51,2.56-.75,3.88-.04-.02-.08-.03-.11-.04-.68-.21-1.35-.42-2.02-.63-1.68-.53-3.33-1.05-4.98-1.57-.83-.26-1.65-.52-2.47-.78s-1.64-.52-2.46-.78c-.66-.2-1.32-.41-1.97-.62-.66-.2-1.32-.41-1.98-.62.63-.61,1.1-1.05,1.55-1.48-1.59-2.22-3.1-4.32-4.7-6.53-.57-.08-1.14-.15-1.72-.23-.8,1.5-1.53,2.85-2.26,4.2-.18-.06-.35-.11-.52-.17.1-1.12.2-2.23.3-3.34.03-.32.06-.64.09-.96.64-7.3,1.28-14.59,1.93-21.88-.2-.06-.38-.11-.58-.16-1.51,5.56-3.02,11.11-4.48,16.48-3.41-8.66-3.66-6.83-6.34-5.57-1.27-3.06-2.24-6.95-6.14-7.09-4.17-.15-5,4.04-6.43,6.84-5.89-1.95-4.31,4.16-6.35,5.71-1.51-5.48-3.04-11.03-4.58-16.58-.27.07-.54.14-.82.2.53,4.31,1.14,8.6,1.55,12.92.3,3.15.49,6.31.69,9.48.03.6.07,1.18.11,1.77h0c.04.62.08,1.23.12,1.84-.18.04-.36.08-.54.12-.6-1.11-1.2-2.22-1.86-3.43-.88.12-1.75.25-2.61.39-1.63,2.03-3.13,3.9-4.64,5.77.81.65,1.46,1.16,2.07,1.64-5.05,1.64-9.92,3.22-14.91,4.84-.01,0-.03.01-.05.02,0,0-.03,0-.05.02-.25-1.4-.52-2.77-.79-4.11-.24-1.15-.47-2.28-.71-3.38-.61-2.79-1.22-5.42-1.78-7.79-6.29-26.99-12.87-24.71-15.81-46.81-.73-5.57-.95-10.49-1.02-14.91-.03-1.47-.03-2.89-.04-4.26-.01-.8-.01-1.59-.01-2.36,0-.53,0-1.05,0-1.57,0-.45,0-.89-.02-1.33v-.12c0-.06,0-.11-.01-.17,0-.32,0-.63-.03-.94-.02-.83-.06-1.65-.11-2.44-.02-.39-.05-.78-.09-1.16-.02-.22-.04-.44-.06-.65-.02-.28-.05-.55-.09-.82-.07-.66-.17-1.31-.28-1.95v-.02c-.79-1.66-1.55-3.32-2.29-5.02-1.21-2.79-3.01-5.5-5.12-7.67-.96-.99-1.89-1.98-2.81-2.99h-.01c-5.17-3.16-9.76-2.57-14.14-8.78-2.54-3.6-3.26-7-3.23-11.12-.02-2.51.26-5.27.59-8.52-.03-.09-.05-.17-.08-.25-2.09-7.05-1.8-14.19.18-21.29.32-1.14.24-2.62-.21-3.71-2.18-5.23-2.64-10.52-1.47-16.06.02-.09.03-.16.04-.25h0c-.23-1.18-.47-2.3-.7-3.36-.01-.01-.02-.02-.02-.03s-.01-.02-.01-.03c-1.47-3.18-2.78-6.4-3.91-9.66-.01.06-.02.12-.03.18-.02.11-.04.23-.05.36-.01.11-.02.23-.03.36-.01.12-.02.24-.02.37-.01.18-.01.38-.02.59-.02.83-.02,1.87-.04,3.09,0,.35,0,.72-.01,1.1,0,.19,0,.39-.01.58-.01.74-.03,1.53-.06,2.37-.01.28-.02.56-.03.85-.04,1.02-.1,2.09-.18,3.23-.02.31-.04.62-.07.94-.01.12-.02.23-.03.35-.02.27-.04.54-.07.82-.03.32-.06.64-.09.97-.05.51-.11,1.04-.17,1.58-2.14,18.47-7.51,20.17-8.51,33.44-.09,1.15-.13,2.29-.14,3.41.05,13.7,5.47,24.77,8.04,30.03,5.44,11.11,9.01,11.44,15.2,23.1.84,1.57,7.68,14.68,9.73,29.8.09.66.17,1.3.23,1.92.03.31.06.62.09.93.03.3.06.61.08.91.02.3.04.59.06.89.05.88.08,1.74.09,2.57.01.3.01.58.01.87.11,18-9.44,25.41-10.89,52.71-.17,3.16-.35,6.52-.4,9.9-.01.48-.01.96-.01,1.45v.16c.02,4.16.28,8.3,1.05,12.13h0c.27,1.37.6,2.68,1.01,3.94v.02h0c.07.26.16.51.25.76.06.17.12.33.18.49.05.14.11.29.16.42t.01.03c.34.87.73,1.7,1.15,2.5.1.19.2.37.31.56.89.79,1.71,1.46,2.4,1.99,3.38,2.61,8.38,6.49,13.48,7.41.02,0,.03,0,.05,0h.02c.07,0,.13.01.2.01h.12s.02.01.02.01c.1.01.19.01.29.01.08.01.16.02.25.02.3.01.6.01.91.01.27,0,.55,0,.82-.01.07,0,.13,0,.21-.01.03,0,.07,0,.11-.01h.16s.06,0,.09-.01c.09,0,.18-.01.27-.02.13,0,.27,0,.4-.03h.04c.23-.02.46-.04.68-.07.01.01.02,0,.02,0,.03-.01.07-.02.1-.02.71-.19,1.28-.43,1.82-.58h.01s0-.01,0-.02c.1-.1.19-.19.29-.29.08-.1.17-.2.26-.3.17-.2.34-.41.52-.63.1-.12.2-.24.29-.38.46-.6.9-1.24,1.34-1.87.2-.28.4-.57.6-.85.08-.1.15-.2.23-.31.02-.02.03-.05.05-.07.15-.21.31-.42.48-.63,1.04.76,2.09,1.74,3.12,2.86.12.13.23.26.34.38,3.19,3.59,5.97,8.47,6.64,12.44-1.66-1.95-2.93-3.43-4.2-4.91,1.1,8.89,4.15,16.64,10.7,22.75-2.21-1.15-4.41-2.29-6.83-3.55-.02.73,0,1.43.06,2.13.38,5.34,2.71,9.75,5.76,14-1.66-.91-3.32-1.81-4.98-2.73-.33.23-.66.46-.99.68,1.63,4.12,3.27,8.24,4.83,12.18-1.14-.67-2.57-1.5-4.04-2.36-1.83,5.56,1.28,9.48,4.92,14.06-2.28-1.14-3.66-1.82-5.51-2.74.15,2.97.28,5.44.4,7.85,7.94,1.31,12.74.9,12.64-.85,1.86.51,3.77,1.44,5.69,1.51,10.63.35,21.27.44,31.91.71,4.86.13,9.71.55,14.02-2.4.08-.05.31.12.55.22-.82.67-1.58,1.32-2.9,2.42,0,.01-.03.02-.04.03h15.36v-.03c.23-3.07.44-6.02.69-9.49-2.09.97-3.56,1.65-5.65,2.62,3.24-4.3,6.65-7.85,5.02-13.44-1.58.72-3.01,1.36-4.42,2,2.73-4.02,5.51-7.69,4.01-13.01-1.8,1.01-3.4,1.91-4.99,2.81,2.83-4.04,5.14-8.09,5.66-13.05.08-.74.12-1.51.11-2.29-2.46,1.02-4.63,1.92-6.8,2.83,8.34-5.68,8.62-14.87,10.41-23.42-1.23,1.55-2.46,3.11-3.7,4.66,1.09-4.71,3.09-8.7,6-11.94.11-.12.22-.23.33-.35,1.48-1.59,3.19-2.99,5.12-4.2,1.36,2.76,2.57,5.2,3.77,7.64.7,0,1.64-.01,2.96-.09,1.35-.09,3.37-.22,5.47-.61.78-.15,3.79-.75,7.3-2.43,1.41-.68,2.67-1.43,3.79-2.18,1.42-1.54,2.56-3.33,3.45-5.29,1.74-3.79,2.6-8.25,2.96-12.92.17-2.05.23-4.14.24-6.24,0-.48-.01-.97-.01-1.45-.04-3.4-.23-6.76-.4-9.92-1.45-27.3-11-34.72-10.89-52.71,0-2.47.16-5.15.56-8.1,2.05-15.11,8.89-28.22,9.73-29.79,5.2-9.8,8.55-11.6,12.71-18.51.8-1.32,1.62-2.82,2.49-4.59,2.57-5.26,7.99-16.33,8.04-30.03-.01-1.12-.06-2.26-.14-3.41ZM309.85,973c2.53-1.12,5.2-2.02,7.57-3.42,2.41-1.43,4.52-3.35,6.09-4.54.1,6.33-6.92,11.12-13.66,7.96ZM341.74,1064.64c-.2,1.64-.4,3.19-.59,4.73-.21.01-.42.01-.62.01,0-2.01.17-4.04-.06-6.02-.19-1.69.97-3.85-.68-5.19.42-3.03.85-6.13,1.28-9.24.15-.02.3-.05.45-.08.41,5.43.81,10.86,1.21,16.13-.15-.06-.52-.18-.99-.34ZM346.78,1035.56c-2.17-1.33-4.33-2.66-6.38-3.92-1.84,1.39-3.8,2.85-5.75,4.32-.27-.19-.55-.38-.82-.56,7.4-6.49,4.98-15.7,6.99-23.67.33.01.65.01.98.03,0,3.99.33,8.01-.09,11.95-.45,4.31,1.02,7.44,4.28,10.01.44.34.79.83,1.18,1.25-.13.2-.26.4-.39.59ZM340.96,994.57c-2.24-2.62-4.4-5.14-6.56-7.66.11-.19.23-.38.34-.57,2.1,1.23,4.19,2.46,6.5,3.83,1.72-.95,3.77-2.08,5.82-3.21.17.21.33.42.49.63-2.14,2.27-4.28,4.53-6.59,6.98ZM349.59,950.99c-.03,1.21-.1,2.42-.21,3.61-.03.24-.05.48-.07.73-.03.28-.07.56-.1.83-.06.46-.13.91-.2,1.36-.03.18-.06.35-.09.53-.03.18-.07.36-.11.54-.06.35-.14.7-.22,1.05-.04.18-.08.36-.13.53-.04.18-.08.35-.13.53-.03.13-.07.26-.11.38-.05.2-.11.39-.17.58-.02.08-.05.16-.07.24-.04.12-.08.24-.12.36-.08.25-.17.52-.26.77-.09.26-.19.52-.29.77-.05.14-.11.29-.17.43-.15.36-.31.73-.48,1.09-.08.17-.16.33-.24.5-.08.17-.16.33-.25.49-.26.5-.53.99-.83,1.48-2.9,4.79-7.07,4.78-9.91-.04-.36-.62-.7-1.25-1.01-1.89-.13-.24-.24-.49-.35-.74-.27-.6-.52-1.21-.75-1.83-.07-.2-.14-.41-.22-.62-.1-.29-.2-.58-.29-.88-.1-.34-.21-.68-.3-1.03-.2-.74-.37-1.49-.52-2.23-.06-.3-.12-.6-.16-.9-.05-.27-.1-.54-.13-.81-.17-1.15-.29-2.3-.37-3.46-.02-.36-.04-.73-.05-1.09-.02-.36-.03-.72-.04-1.08,0-.25,0-.5,0-.76-.01-.23-.01-.47-.01-.71,0-.92.02-1.84.06-2.77.4,1.38.78,2.77,1.15,4.15.48,1.69.95,3.38,1.47,5.07.17.56.35,1.11.53,1.67.81,2.48,1.76,4.95,2.97,7.27,2.06,3.95,4,4,6-.04,1.65-3.32,2.76-6.92,3.95-10.45.42-1.21.76-2.45,1.12-3.68.34-1.15.69-2.31,1.13-3.43.02,1.17.02,2.33-.01,3.48ZM379.08,966.23c.02-.09.03-.18.05-.27.05-.08.1-.15.14-.22-.05.29-.1.59-.15.88-.12.68-.24,1.37-.35,2.07-.04.01-.07.03-.1.04.11-.74.23-1.49.36-2.22h0c.02-.11.03-.19.05-.28ZM361.52,973.13c-2.98-1.66-4.46-4.46-4.3-8.42,0-.03,0-.04,0-.07,0,0,0-.01,0-.02t0-.02s0-.01,0-.02c.02-.52.07-1.06.15-1.62,2.58,5.62,6.46,8.82,12.41,9.63.65.1,1.33.16,2.03.19-3.91,2.4-7.12,2.11-10.29.35Z"/>
      <path class="cls-8" d="M284.22,786.41c-3.7.36-7.4.67-11.09,1.1-5.27.61-7.94-1.63-7.25-6.81,1.09-8.22-1.24-15.83-3.4-23.54-1.97-7.04-3.5-14.19-2.11-21.57.44-2.35,1.15-4.64,1.57-7.01-2.78,4.48-4.11,9.5-3.79,14.63.44,7.04,1.41,14.08,2.62,21.03,1,5.78,1.23,11.42-.21,17.14-1.17,4.66-2.1,9.38-3.22,14.48-1.39-3.62-1.33-7.07-.24-10.24,2.84-8.25.05-19.82-3.36-26.82.4,2.69.96,5.36,1.15,8.06.2,2.81.04,5.64.04,8.84-.41-.45-.7-.64-.81-.91-11.38-28.06-7.61-55.18,15.13-77.22,18.04-17.48,39.83-27.51,64.71-30.55,12.19-1.49,23.99,1.13,35.48,5.07,16.12,5.52,30.67,13.77,42.72,25.91,20.98,21.13,25.91,45.86,15.81,73.73-.48,1.31-1.03,2.59-1.55,3.89-.34-.05-.69-.1-1.03-.15.6-5.98,1.2-11.97,1.84-18.35-3.32,9.34-6.17,18.25-3.54,28.06.88,3.3.59,6.91.83,10.38-.39.05-.78.09-1.17.14-.24-1.58-.36-3.2-.75-4.74-5.99-23.47-3.03-17.94-.21-39.43,1.11-8.47.65-16.78-4-24.42-.16.15-.36.29-.34.32,4.41,9.4,3.24,18.93.71,28.5-1.96,7.41-4.58,14.67-3.93,22.59.68,8.35-1.07,9.77-9.41,8.7-2.89-.37-5.82-.51-8.77-.5,6.15.86,11.91,2.65,16.82,6.53,10,7.9,13.18,21.95,7.86,35.07-5,12.35-12.86,22.57-23.12,31.1-4.78,3.97-9,8.61-13.47,12.94.2.22.41.44.61.65,3.71-2.86,7.42-5.73,11.14-8.59.19.21.38.41.58.62-5.31,12.21-12.37,23.26-22.07,32.59,4.1-6.55,8.19-13.1,12.29-19.65-.21-.13-.42-.26-.62-.4-3.93,5.19-7.85,10.38-11.78,15.58-.24-.17-.48-.34-.72-.51,1.37-2.27,2.74-4.54,4.11-6.81l-.37-.29c-1.58,1.7-3.15,3.41-5.13,5.54v-3.57c-5.17,12.64-8.47,25.2-17.44,34.96,2.25-5.09,4.5-10.19,6.75-15.28-.09-.04-.18-.07-.28-.11-3.89,6.29-7.78,12.58-11.67,18.88-.32-.19-.65-.38-.97-.57,1.06-2.09,2.13-4.19,3.19-6.28-.15-.09-.3-.18-.45-.27-1.86,2.16-3.6,4.43-5.61,6.45-3.35,3.37-8.17,3.36-11.62.09-1.24-1.18-2.35-2.52-3.43-3.85-1.01-1.24-1.9-2.58-3.26-3.66,1.29,2.57,2.57,5.14,3.86,7.71-5.15-4.59-8.08-10.75-11.46-16.59-.23.11-.46.22-.7.33,2.04,4.49,4.07,8.99,6.11,13.48-9.13-9.8-12.43-22.52-17.58-35.08v3.41c-1.84-1.97-3.33-3.56-4.82-5.16-.14.08-.28.15-.42.23,1.22,2.12,2.44,4.24,3.66,6.37-.25.17-.5.34-.74.51-4.1-5.52-8.2-11.04-12.31-16.57-.18.11-.37.21-.56.32,4.37,7.07,8.75,14.15,12.82,20.73-5.85-3.76-19.57-24.05-21.39-33.23,3.73,2.93,7.45,5.87,11.51,9.07-3.55-5.55-7.95-9.85-12.79-13.69-10.36-8.24-18.13-18.41-23.3-30.59-2.65-6.24-3.38-12.75-2.24-19.35,2.14-12.31,11.99-21.11,24.89-22.57.58-.07,1.17-.11,1.75-.16-.02-.21-.04-.42-.06-.63ZM298.27,858.15c9.8,2.56,18.99,1.34,28.13-3.69-.23,1.9-.37,3.14-.52,4.38,1.18-1.54,2.09-3.21,2.65-4.99,3.93-12.53-1.37-30.34-11.94-38.92-14.48-11.75-30.8-12.62-47.88-7.11-1.79.58-3.76,2.37-4.48,4.09-1.75,4.18-1.03,8.46,1.36,13.19-.94-7.15-.44-9.33,2.25-10.89-.75,12.35,4.13,22.3,12.97,30.49,8.85,8.19,19.35,12.09,31.55,11.25-.01.33-.03.67-.04,1-4.62.39-9.23.78-14.05,1.18ZM382.22,857.78c-2.33,0-4.67.15-6.98-.04-2.27-.19-4.5-.75-6.75-1.15,12.16.2,22.61-3.62,31.47-11.79,8.92-8.23,13.84-18.23,13.48-30.79,1.03,1.39,1.87,2.82,2.14,4.35.3,1.71.07,3.51.07,5.42,4.57-8.12,1.9-15.33-6.8-17.02-6.5-1.26-13.29-2.25-19.84-1.77-19.9,1.48-38.43,14.83-37.8,42.5.09,3.97.89,7.93,3.77,11.56-.17-1.72-.3-2.97-.47-4.67,9.11,5.17,18.25,6.31,27.71,3.39ZM303.75,777.44c2.6.32,5.27.35,7.78,1.01,7.7,2.05,15.28,4.63,23.04,6.43,3.51.82,7.53,1.07,10.98.22,10.6-2.63,20.7-7.24,31.83-7.77-6.94-1.78-13.9-1.08-20.33,1.19-11.17,3.96-21.88,3.98-33.05.03-6.44-2.28-13.41-2.9-20.25-1.12ZM321.77,815.67c-.3-.77-.34-.96-.44-1.11-.29-.41-.6-.81-.93-1.2-9.08-10.51-20.74-15.06-34.44-14.78-6.24.13-12.3,1.1-17.73,4.44-1.31.81-2.41,1.94-3.98,3.24,21.22-7.71,40.24-6.42,57.52,9.4ZM416.12,806.16c-10-13.64-47.32-8.23-56.4,8.81,17.12-15.17,36.1-16.45,56.4-8.81ZM359.14,769.86c-2.93.41-5.92.53-8.76,1.27-6.62,1.72-13.14,1.72-19.76.03-2.89-.74-5.92-.87-8.89-1.28,18.97,6.77,18.63,6.97,37.42-.02ZM354.81,897.44c-.13-.73-.35-1.9-.62-3.36-2.61,2.49-3.31,2.17-6.36,1.8-4.6-.56-9.34-.8-13.93-.33-2.71.27-5.18,1.34-7.61-1.6-.19,1.67-.31,2.72-.39,3.43,3.73.34,7.2.75,10.69.94,2.54.14,5.1.08,7.64-.05,3.45-.18,6.89-.53,10.58-.82ZM350.03,696.41c1.49,4.88.13,7.58-3.67,8.07-4.26.55-8.51,1.18-12.78,1.73-.99.13-2.03.16-3.02.03-2.78-.36-3.9-1.88-3.28-4.65.32-1.4,1.05-2.71,1.68-4.26-2.84,2.22-4.03,5.22-3.07,7.67,1.13,2.89,3.67,3.17,6.27,3.2,1.01.01,2.03-.03,3.03-.18,3.76-.55,7.59-.88,11.24-1.87,1.84-.5,3.85-1.91,4.86-3.5,1.15-1.82.81-4.18-1.26-6.25ZM329.92,812.87c-1.77-12.11-11.93-22.01-23.5-22.28,11.99,3.82,18.92,11.84,23.5,22.28ZM261.24,824.98c2.71,12.62,10.16,22.1,20.17,29.85-8.11-9-15.57-18.43-20.17-29.85ZM373.86,790.39c-11.78,1.52-22.39,11.77-22.53,21.32q9.12-14.12,22.53-21.32ZM419.49,825.06c-4.8,11.24-12.21,20.71-20.2,29.79,9.8-7.86,17.25-17.3,20.2-29.79ZM381.7,687.47c-3.13.43-4.03,2.01-3.91,4.32.26,4.97,7.67,11,12.54,10.25,2.56-.4,3.1-1.67,1.79-4.21-.56,2.55-1.71,3.47-3.97,2.19-2.74-1.55-5.34-3.59-7.47-5.91-2.32-2.52-1.9-4.08,1.03-6.64ZM382.7,706.97c.13,4.37-4.47,8.84-10.03,9.86-1.4.26-3.19.21-4.35-.47-1.18-.69-1.81-2.33-2.58-3.41-.39,4.28,2.95,7.36,7.48,5.78,3.4-1.19,6.49-3.54,9.4-5.79,1.73-1.34,1.76-3.53.08-5.97ZM342.76,723.51c-.24.12-.47.24-.71.36.68,1.24,1.09,2.82,2.11,3.66,2.99,2.48,10.07,1.53,12.54-1.43,2.02-2.43,1.31-5.31-.88-6.29,0,1.3.59,3.24-.11,4.44-2.32,4.04-10.9,3.42-12.95-.74ZM336.52,868.94c-2.09,1.22-4.16,2.16-5.86,3.55-.64.52-.9,2.44-.44,3.11.48.69,2.14,1.06,3.1.82,2.26-.56,3.9-4.26,3.2-7.48ZM344.56,869.04c-.27.28-.53.57-.8.85-.13,2.74,1.1,4.96,3.46,6.31.82.47,2.31-.23,3.49-.4-.2-1.18.01-2.84-.69-3.45-1.58-1.38-3.62-2.24-5.47-3.3ZM299.15,699.68c.06,5.04-8.49,9.68-12.53,6.72,1.1,1.08,2.38,2.29,3.74,2.39,3.92.29,7.1-1.42,9.16-4.82.83-1.36,1.5-2.94-.37-4.29ZM349.13,903.7h-17.51c3.45,2.87,14.83,2.74,17.51,0ZM317,722.4c-2.82-.15-4.98.31-6.37-.51-1.36-.81-1.92-2.94-3.15-5.03,0,1.83-.65,4.03.15,4.92,1.22,1.36,3.39,2.21,5.28,2.52,1.12.18,2.47-1.09,4.09-1.89ZM403.44,716.7c-2.58-.16-4.42.18-5.76-.48-1.39-.68-2.31-2.34-3.69-3.85,0,.96-.51,2.76.1,3.32,1.55,1.4,3.51,2.63,5.51,3.14.97.25,2.39-1.27,3.84-2.13ZM350.79,866.3c-.27.19-.53.38-.8.57,2.63,4.44,5.25,8.88,8.28,14.01-.7-6.42-5.01-10.01-7.49-14.58ZM321.93,879.69c.31.25.61.5.92.75,2.62-4.42,5.24-8.84,7.87-13.27-.35-.2-.69-.4-1.04-.6-2.58,4.37-5.16,8.74-7.74,13.12ZM296.21,723.6c-.18-.19-.36-.37-.54-.56-3.32,2.14-5.47,1.28-6.96-2.59-.2,1.42-.44,3.33.37,4.07,1.07.96,2.99,1.36,4.51,1.3.9-.04,1.75-1.44,2.62-2.23ZM327.09,682.96c-2.73,4.03-8.87,5.5-11.17,2.66.07,2.42.78,3.07,3.23,2.97,5.27-.22,8.1-2.22,7.94-5.64ZM361.17,679.84c.58-1.02.93-1.62,1.4-2.45-2.72,1.26-3.12,2.6-1.17,3.85,1.83,1.16,3.93,1.99,6.02,2.63.86.26,1.99-.33,2.55-.45-2.87-1.17-5.71-2.32-8.8-3.58ZM294.59,687.33c2.37,1.52,4.85,1.1,7.14-1.23,1.57-1.59,1.62-2.08.45-3.88-.71,3.15-3.06,4.72-7.59,5.11ZM344.54,674.75c-1.43.75-2.56,1.7-3.82,1.91-1.35.22-2.81-.26-4.31-.44.62,2.72,2.92,2.39,4.9,1.98,1.81-.37,3.77-1.07,3.23-3.45ZM348.65,747.36c-.31,2.58.17,4.21,2.65,4.09,2.17-.1,3.51-1.23,3.16-3.79-2.85,3.19-3.71,3.2-5.81-.3ZM366.56,697.74c-1.03.72-1.87,1.74-2.81,1.84-.94.11-1.99-.7-3.1-1.14.21,2.34,1.66,2.99,3.54,2.67,1.75-.3,2.79-1.38,2.37-3.37ZM370.47,732.48c-.04,2.33,1.2,3.39,3.14,3.33,1.94-.06,3.18-1.12,2.81-3.46-2.61,2.65-3.24,2.67-5.96.14ZM330.6,734.98c-.45,2.74.67,3.96,2.42,3.96,1.04,0,2.09-1.16,3.14-1.8-.17-.29-.33-.58-.5-.86-2.02,1.93-3.61,1.41-5.06-1.3ZM358.11,899.59c1.28-3.52.77-4.96-1.92-6.19.62,1.99,1.23,3.97,1.92,6.19ZM336.81,911.53h7.49c-3.04-2.26-5.07-2.22-7.49,0ZM322.72,899.74c.74-2.47,1.34-4.45,2.12-7.04-2.59,2.07-3.57,3.94-2.12,7.04ZM305.02,736.68c-.03-.44-.07-.88-.1-1.32-2.23,1.56-3.37.65-4.29-1.45-.03,1.35.17,2.94.84,3.18,1,.36,2.35-.23,3.54-.42Z"/>
      <path class="cls-6" d="M298.27,858.15c4.81-.41,9.43-.79,14.05-1.18.01-.33.03-.67.04-1-12.2.84-22.7-3.06-31.55-11.25-8.84-8.19-13.72-18.14-12.97-30.49-2.7,1.56-3.19,3.74-2.25,10.89-2.39-4.74-3.11-9.01-1.36-13.19.72-1.72,2.69-3.51,4.48-4.09,17.08-5.52,33.4-4.65,47.88,7.11,10.57,8.58,15.87,26.39,11.94,38.92-.56,1.78-1.47,3.45-2.65,4.99.15-1.24.3-2.49.52-4.38-9.14,5.03-18.33,6.26-28.13,3.69ZM288.98,823.23c2.64-.61,4.48-.79,6.12-1.47,4.1-1.7,4.62-5.66,1.01-8.2-4.24-2.99-8.95-3.59-13.75-1.42-3.72,1.68-4.4,5.3-1.16,7.61,2.42,1.73,5.52,2.51,7.78,3.49ZM308.21,850.77c-12.41-3.42-22.51-9.18-30.78-19.04,3.31,9.79,19.59,20.1,30.78,19.04ZM308.87,818.88c-1.49-1.18-2.36-2.4-3.18-2.37-.88.03-1.72,1.24-2.58,1.93.78.89,1.43,2.22,2.39,2.52.66.2,1.77-1.03,3.38-2.09ZM319.73,849.91c-.03.16-.06.32-.09.47,1.57-.44,3.41-.52,4.62-1.43,1.03-.78,1.35-2.51,2.23-4.35-2.7,2.12-4.73,3.72-6.76,5.31Z"/>
      <path class="cls-6" d="M382.22,857.78c-9.46,2.92-18.6,1.77-27.71-3.39.17,1.7.3,2.95.47,4.67-2.88-3.63-3.68-7.58-3.77-11.56-.63-27.67,17.9-41.02,37.8-42.5,6.54-.49,13.34.5,19.84,1.77,8.7,1.69,11.37,8.89,6.8,17.02,0-1.91.23-3.71-.07-5.42-.27-1.53-1.11-2.96-2.14-4.35.36,12.56-4.56,22.56-13.48,30.79-8.86,8.17-19.31,11.99-31.47,11.79,2.25.4,4.49.95,6.75,1.15,2.31.2,4.65.04,6.98.04ZM371.8,828.17c5.51-.53,9.27-2.01,11.99-5.48,2.96-3.77,1.46-7.52-3.31-7.93-4.45-.38-8.31,1.3-11.38,4.55-1.56,1.65-3.12,3.8-1.6,5.9,1.13,1.57,3.35,2.34,4.3,2.96ZM403.54,832.16c-7.9,9.09-17.95,14.82-29.22,18.68,12.79-1.45,22.85-7.18,29.22-18.68ZM391.29,817.44c1.18-1.53,2.47-2.5,2.35-3.23-.16-.97-1.43-1.75-2.22-2.62-.76.79-2.01,1.51-2.12,2.38-.11.83.98,1.82,1.99,3.47ZM355.18,845.29c-.25,3.71,2.68,5.9,5.71,4.42-1.79-1.38-3.76-2.91-5.71-4.42Z"/>
      <path class="cls-6" d="M303.75,777.44c6.84-1.79,13.81-1.16,20.25,1.12,11.17,3.95,21.88,3.92,33.05-.03,6.42-2.28,13.39-2.98,20.33-1.19-11.14.53-21.24,5.15-31.83,7.77-3.45.86-7.47.6-10.98-.22-7.76-1.8-15.33-4.37-23.04-6.43-2.51-.67-5.18-.69-7.78-1.01Z"/>
      <path class="cls-2" d="M321.77,815.67c-17.29-15.83-36.31-17.11-57.52-9.4,1.57-1.29,2.67-2.43,3.98-3.24,5.43-3.34,11.49-4.32,17.73-4.44,13.7-.28,25.36,4.27,34.44,14.78.33.38.64.79.93,1.2.1.15.14.34.44,1.11Z"/>
      <path class="cls-2" d="M416.12,806.16c-20.3-7.64-39.28-6.36-56.4,8.81,9.08-17.03,46.4-22.45,56.4-8.81Z"/>
      <path class="cls-6" d="M359.14,769.86c-18.79,6.99-18.45,6.8-37.42.02,2.97.41,6.01.54,8.89,1.28,6.62,1.69,13.14,1.7,19.76-.03,2.84-.74,5.84-.87,8.76-1.27Z"/>
      <path class="cls-1" d="M354.81,897.44c-3.69.3-7.14.64-10.58.82-2.54.14-5.1.19-7.64.05-3.49-.19-6.96-.6-10.69-.94.08-.71.2-1.76.39-3.43,2.43,2.94,4.89,1.88,7.61,1.6,4.59-.47,9.33-.23,13.93.33,3.05.37,3.75.69,6.36-1.8.27,1.46.49,2.63.62,3.36Z"/>
      <path class="cls-2" d="M350.03,696.41c2.07,2.07,2.41,4.43,1.26,6.25-1.01,1.59-3.02,3-4.86,3.5-3.65.99-7.48,1.31-11.24,1.87-1,.15-2.02.19-3.03.18-2.61-.03-5.15-.31-6.27-3.2-.95-2.45.23-5.44,3.07-7.67-.62,1.55-1.36,2.86-1.68,4.26-.63,2.77.49,4.29,3.28,4.65.99.13,2.03.09,3.02-.03,4.26-.54,8.51-1.17,12.78-1.73,3.8-.49,5.16-3.19,3.67-8.07Z"/>
      <path class="cls-6" d="M329.92,812.87c-4.58-10.44-11.52-18.47-23.5-22.28,11.57.27,21.73,10.17,23.5,22.28Z"/>
      <path class="cls-2" d="M261.24,824.98c4.6,11.42,12.06,20.85,20.17,29.85-10.01-7.75-17.46-17.23-20.17-29.85Z"/>
      <path class="cls-6" d="M373.86,790.39q-13.41,7.2-22.53,21.32c.14-9.56,10.75-19.8,22.53-21.32Z"/>
      <path class="cls-2" d="M419.49,825.06c-2.95,12.49-10.4,21.93-20.2,29.79,7.99-9.08,15.4-18.55,20.2-29.79Z"/>
      <path class="cls-2" d="M381.7,687.47c-2.93,2.56-3.35,4.12-1.03,6.64,2.13,2.32,4.73,4.36,7.47,5.91,2.26,1.28,3.41.36,3.97-2.19,1.31,2.54.77,3.81-1.79,4.21-4.86.76-12.28-5.28-12.54-10.25-.12-2.3.78-3.88,3.91-4.32Z"/>
      <path class="cls-2" d="M382.7,706.97c1.67,2.44,1.65,4.64-.08,5.97-2.91,2.25-6,4.6-9.4,5.79-4.53,1.58-7.87-1.49-7.48-5.78.77,1.08,1.4,2.72,2.58,3.41,1.16.68,2.95.72,4.35.47,5.56-1.02,10.16-5.49,10.03-9.86Z"/>
      <path class="cls-2" d="M342.76,723.51c2.05,4.16,10.63,4.77,12.95.74.69-1.21.11-3.15.11-4.44,2.18.98,2.89,3.87.88,6.29-2.46,2.97-9.54,3.91-12.54,1.43-1.02-.84-1.42-2.42-2.11-3.66.24-.12.47-.24.71-.36Z"/>
      <path class="cls-2" d="M336.52,868.94c.7,3.22-.94,6.92-3.2,7.48-.96.24-2.62-.13-3.1-.82-.46-.66-.2-2.58.44-3.11,1.7-1.4,3.77-2.34,5.86-3.55Z"/>
      <path class="cls-2" d="M344.56,869.04c1.85,1.07,3.88,1.93,5.47,3.3.7.61.49,2.27.69,3.45-1.18.17-2.66.87-3.49.4-2.36-1.34-3.59-3.57-3.46-6.31.27-.28.53-.57.8-.85Z"/>
      <path class="cls-2" d="M299.15,699.68c1.87,1.35,1.19,2.93.37,4.29-2.06,3.4-5.24,5.1-9.16,4.82-1.36-.1-2.64-1.31-3.74-2.39,4.04,2.96,12.6-1.68,12.53-6.72Z"/>
      <path class="cls-1" d="M349.13,903.7c-2.67,2.74-14.06,2.87-17.51,0h17.51Z"/>
      <path class="cls-2" d="M317,722.4c-1.62.8-2.98,2.08-4.09,1.89-1.89-.31-4.05-1.16-5.28-2.52-.8-.89-.15-3.09-.15-4.92,1.23,2.09,1.8,4.22,3.15,5.03,1.39.83,3.55.36,6.37.51Z"/>
      <path class="cls-2" d="M403.44,716.7c-1.45.86-2.87,2.38-3.84,2.13-2-.51-3.96-1.74-5.51-3.14-.61-.55-.1-2.36-.1-3.32,1.38,1.51,2.3,3.17,3.69,3.85,1.35.66,3.19.32,5.76.48Z"/>
      <path class="cls-2" d="M350.79,866.3c2.48,4.57,6.79,8.15,7.49,14.58-3.03-5.13-5.66-9.57-8.28-14.01.27-.19.53-.38.8-.57Z"/>
      <path class="cls-2" d="M321.93,879.69c2.58-4.37,5.16-8.74,7.74-13.12.35.2.69.4,1.04.6-2.62,4.42-5.24,8.84-7.87,13.27-.31-.25-.61-.5-.92-.75Z"/>
      <path class="cls-2" d="M296.21,723.6c-.87.79-1.72,2.19-2.62,2.23-1.52.06-3.44-.34-4.51-1.3-.81-.74-.57-2.65-.37-4.07,1.5,3.87,3.64,4.73,6.96,2.59.18.19.36.37.54.56Z"/>
      <path class="cls-2" d="M327.09,682.96c.15,3.41-2.67,5.42-7.94,5.64-2.45.1-3.15-.55-3.23-2.97,2.3,2.83,8.45,1.37,11.17-2.66Z"/>
      <path class="cls-2" d="M361.17,679.84c3.09,1.26,5.93,2.41,8.8,3.58-.56.11-1.69.71-2.55.45-2.08-.64-4.19-1.46-6.02-2.63-1.96-1.25-1.55-2.59,1.17-3.85-.47.83-.82,1.43-1.4,2.45Z"/>
      <path class="cls-2" d="M294.59,687.33c4.54-.39,6.88-1.96,7.59-5.11,1.17,1.8,1.11,2.29-.45,3.88-2.29,2.33-4.76,2.75-7.14,1.23Z"/>
      <path class="cls-2" d="M344.54,674.75c.55,2.38-1.42,3.08-3.23,3.45-1.99.41-4.29.74-4.9-1.98,1.5.18,2.96.66,4.31.44,1.26-.21,2.39-1.16,3.82-1.91Z"/>
      <path class="cls-2" d="M348.65,747.36c2.1,3.5,2.95,3.49,5.81.3.35,2.56-.99,3.69-3.16,3.79-2.48.12-2.96-1.51-2.65-4.09Z"/>
      <path class="cls-2" d="M366.56,697.74c.42,1.99-.62,3.07-2.37,3.37-1.88.33-3.33-.33-3.54-2.67,1.11.45,2.16,1.25,3.1,1.14.94-.11,1.78-1.13,2.81-1.84Z"/>
      <path class="cls-2" d="M370.47,732.48c2.72,2.54,3.35,2.52,5.96-.14.37,2.34-.87,3.4-2.81,3.46-1.95.06-3.18-1-3.14-3.33Z"/>
      <path class="cls-2" d="M330.6,734.98c1.46,2.71,3.05,3.23,5.06,1.3.17.29.33.58.5.86-1.05.64-2.09,1.8-3.14,1.8-1.75,0-2.87-1.22-2.42-3.96Z"/>
      <path class="cls-2" d="M358.11,899.59c-.69-2.22-1.31-4.21-1.92-6.19,2.7,1.23,3.2,2.67,1.92,6.19Z"/>
      <path class="cls-2" d="M322.72,899.74c-1.45-3.1-.48-4.98,2.12-7.04-.78,2.6-1.37,4.58-2.12,7.04Z"/>
      <path class="cls-2" d="M305.02,736.68c-1.2.19-2.54.78-3.54.42-.68-.24-.87-1.83-.84-3.18.92,2.09,2.06,3.01,4.29,1.45.03.44.07.88.1,1.32Z"/>
      <path class="cls-6" d="M347.17,1034.97c-.13.19-.26.4-.4.59-2.16-1.33-4.33-2.66-6.38-3.92-1.84,1.39-3.79,2.85-5.75,4.31-.27-.19-.55-.37-.83-.56,7.4-6.48,4.98-15.69,7-23.67.33.01.65.02.97.03,0,3.99.33,8.01-.08,11.95-.46,4.31,1.02,7.44,4.27,10.01.44.35.79.83,1.19,1.25Z"/>
      <path class="cls-6" d="M342.73,1064.98c-.15-.05-.52-.18-.99-.34-.21,1.65-.4,3.19-.59,4.74-.21,0-.42.01-.63.01,0-2.01.17-4.04-.05-6.03-.19-1.68.97-3.85-.68-5.19.42-3.03.85-6.13,1.28-9.24.15-.02.3-.05.45-.09.41,5.44.81,10.87,1.2,16.13Z"/>
      <path class="cls-6" d="M396.23,958.57c-.15-.05-.52-.18-.99-.34-.21,1.65-.4,3.19-.59,4.74-.21,0-.42.01-.63.01,0-2.01.17-4.04-.05-6.03-.19-1.68.97-3.85-.68-5.19.42-3.03.85-6.13,1.28-9.24.15-.02.3-.05.45-.09.41,5.44.81,10.87,1.2,16.13Z"/>
      <path class="cls-6" d="M289.22,962.83c-.15-.05-.52-.18-.99-.34-.21,1.65-.4,3.19-.59,4.74-.21,0-.42.01-.63.01,0-2.01.17-4.04-.05-6.03-.19-1.68.97-3.85-.68-5.19.42-3.03.85-6.13,1.28-9.24.15-.02.3-.05.45-.09.41,5.44.81,10.87,1.2,16.13Z"/>
      <path class="cls-5" d="M288.98,823.23c-2.26-.97-5.36-1.75-7.78-3.49-3.23-2.31-2.56-5.93,1.16-7.61,4.8-2.16,9.51-1.57,13.75,1.42,3.61,2.54,3.09,6.5-1.01,8.2-1.64.68-3.48.86-6.12,1.47Z"/>
      <path class="cls-5" d="M308.21,850.77c-11.2,1.06-27.47-9.24-30.78-19.04,8.27,9.86,18.37,15.62,30.78,19.04Z"/>
      <path class="cls-5" d="M308.87,818.88c-1.61,1.05-2.71,2.29-3.38,2.09-.96-.29-1.61-1.63-2.39-2.52.86-.69,1.7-1.9,2.58-1.93.82-.03,1.69,1.19,3.18,2.37Z"/>
      <path class="cls-5" d="M319.73,849.91c2.03-1.59,4.06-3.19,6.76-5.31-.88,1.84-1.2,3.57-2.23,4.35-1.21.91-3.05.99-4.62,1.43.03-.16.06-.32.09-.47Z"/>
      <path class="cls-5" d="M371.8,828.17c-.95-.62-3.18-1.39-4.3-2.96-1.52-2.11.04-4.25,1.6-5.9,3.07-3.25,6.92-4.93,11.38-4.55,4.77.41,6.27,4.16,3.31,7.93-2.72,3.47-6.47,4.95-11.99,5.48Z"/>
      <path class="cls-5" d="M403.54,832.16c-6.37,11.5-16.43,17.23-29.22,18.68,11.26-3.86,21.32-9.59,29.22-18.68Z"/>
      <path class="cls-5" d="M391.29,817.44c-1.01-1.65-2.09-2.63-1.99-3.47.11-.87,1.37-1.59,2.12-2.38.79.86,2.06,1.65,2.22,2.62.12.73-1.17,1.7-2.35,3.23Z"/>
      <path class="cls-5" d="M355.18,845.29c1.95,1.51,3.93,3.04,5.71,4.42-3.03,1.48-5.97-.71-5.71-4.42Z"/>
      <ellipse class="cls-6" cx="340.35" cy="898.79" rx="15.5" ry="18.54"/>
      <path class="cls-6" d="M323.51,965.04c.09,6.33-6.93,11.13-13.66,7.96,2.52-1.12,5.2-2.02,7.57-3.42,2.41-1.43,4.52-3.35,6.09-4.54Z"/>
      <path class="cls-6" d="M347.55,987.59c-2.14,2.27-4.28,4.54-6.59,6.99-2.24-2.62-4.4-5.14-6.57-7.66.12-.19.23-.38.34-.58,2.1,1.23,4.19,2.47,6.5,3.83,1.72-.95,3.77-2.08,5.82-3.21.16.21.33.42.49.63Z"/>
      <path class="cls-5" d="M256.75,709.4c.49-.8,1.13-1.87,2.13-3.34,0,0,1.78-2.64,3.98-5.35,2.43-3,6.76-7.75,10.92-11.37,9.37-8.16,21.26-13.51,26.75-15.81,7.8-3.26,20.17-8.43,36.48-9.12,26.49-1.12,45.96,10.33,58.37,17.63,0,0,19.51,11.48,27.97,24.93,3.11,4.94,5.64,10.7,5.64,10.7,1.93,4.39,2.91,7.64,3.18,8.55,1.2,4.08,1.85,6.1,1.52,6.29-.87.5-7.44-10.72-14.9-20.37-4.54-5.87-12.4-16.03-24.32-24.32-3.59-2.49-19.6-13.19-43.17-15.2-16.32-1.39-28.72,2.03-36.48,4.26-6.09,1.74-19.64,5.74-33.44,15.81-8,5.83-18.38,15.38-18.85,15.81-6.27,5.78-11.7,11.36-12.16,10.94-.33-.29,2.2-3.19,6.38-10.03Z"/>
      <path class="cls-5" d="M320.59,948.96c-1.58,2.9-3.87,6.01-7.3,8.51-3.71,2.7-5.8,2.54-9.12,5.47-3.66,3.23-6.65,8.31-5.47,9.73.39.47,1.48.85,13.98-4.86,11.56-5.28,12.95-6.66,13.38-8.51.97-4.2-3.52-8.61-5.47-10.34Z"/>
      <path class="cls-5" d="M359.38,948.96c1.58,2.9,3.87,6.01,7.3,8.51,3.71,2.7,5.8,2.54,9.12,5.47,3.66,3.23,6.65,8.31,5.47,9.73-.39.47-1.48.85-13.98-4.86-11.56-5.28-12.95-6.66-13.38-8.51-.97-4.2,3.52-8.61,5.47-10.34Z"/>
      <path class="cls-6" d="M379.13,965.96c-.02.09-.03.18-.05.27-.02.09-.03.17-.05.27h0c-.13.74-.25,1.49-.36,2.23.03-.01.06-.03.1-.04.11-.7.23-1.39.35-2.07.05-.29.1-.59.15-.88-.04.07-.09.14-.14.22ZM421.71,702.39c-10.17-12.91-23.23-22.18-38.03-29.08-11.96-5.57-24.35-9.97-37.39-10.7-2.73-.16-5.48-.15-8.27.04-30.75,2.13-56.75,14.78-77.27,37.88-10.68,12.02-16.53,26.32-17.06,42.55-.31,9.73,1.36,19.04,4.44,28.04h0c.02.07.05.12.06.19,1.13,3.26,2.44,6.48,3.91,9.66,0,.01.01.02.01.03s.01.02.02.03c.09.22.19.45.28.69h0v.02c.26.71.45,1.48.45,2.19v.02c0,.15-.01.29-.03.43h0c-.01.1-.02.17-.04.26-1.17,5.54-.71,10.83,1.47,16.06.45,1.09.53,2.57.21,3.71-1.98,7.1-2.27,14.24-.18,21.29.03.08.05.16.08.25.01.06.03.11.04.16h0c3.13,10.29,8.68,19.08,15.65,27.03.36.41.72.82,1.09,1.23h.01c.92,1.01,1.85,2,2.81,2.99,2.11,2.17,3.91,4.88,5.12,7.67.74,1.7,1.5,3.36,2.29,5.02v.02c.05.09.1.18.14.28h0c6.63,13.78,15.27,26.09,27.23,35.97,3.9,3.22,6.09,7.27,7.05,11.97,1.38,6.73,2.28,13.57,3.54,20.32.85,4.61.02,8.22-3.23,12.08-.93,1.1-1.86,2.16-2.82,3.13-3.09,3.14-6.48,5.54-11.08,6.71-.22.06-.43.11-.65.17-.03.01-.07.01-.11.03.27,1.34.54,2.71.79,4.11.02-.01.04-.02.05-.02.02-.01.04-.02.05-.02,4.99-1.62,9.86-3.2,14.91-4.84-.61-.48-1.26-.99-2.07-1.64,1.51-1.87,3.01-3.74,4.64-5.77.54-.67,1.11-1.37,1.69-2.09.32.6.62,1.16.92,1.7.66,1.21,1.26,2.32,1.86,3.43.18-.04.36-.08.54-.12-.04-.61-.08-1.22-.12-1.83h0c-.04-.6-.08-1.18-.11-1.78-.2-3.17-.39-6.33-.69-9.48-.41-4.32-1.02-8.61-1.55-12.92.28-.06.55-.13.82-.2,1.54,5.55,3.07,11.1,4.58,16.58,2.04-1.55.46-7.66,6.35-5.71,1.43-2.8,2.26-6.99,6.43-6.84,3.9.14,4.87,4.03,6.14,7.09,2.68-1.26,2.93-3.09,6.34,5.57,1.46-5.37,2.97-10.92,4.48-16.48.2.05.38.1.58.16-.65,7.29-1.29,14.58-1.93,21.88-.03.32-.06.64-.09.96-.1,1.11-.2,2.22-.3,3.34.17.06.34.11.52.17.73-1.35,1.46-2.7,2.26-4.2.21-.4.44-.81.66-1.23.36.49.71.98,1.06,1.46,1.6,2.21,3.11,4.31,4.7,6.53-.45.43-.92.87-1.55,1.48.66.21,1.32.42,1.98.62.65.21,1.31.42,1.97.62.82.26,1.64.52,2.46.78s1.64.52,2.47.78c1.65.52,3.3,1.04,4.98,1.57.67.21,1.34.42,2.02.63.03.01.07.02.11.04.24-1.32.49-2.61.75-3.88-.04-.02-.07-.03-.11-.04-2.13-.68-4.26-1.4-6.3-2.3-2.07-.92-4.27-2.02-5.77-3.64-.67-.73-1.31-1.48-1.92-2.27-1.69-2.15-3.22-4.46-4.79-6.71-.41-.59-.55-1.55-.43-2.28,1.33-8.8,2.41-17.66,4.28-26.35.72-3.38,2.5-7.29,5.07-9.4,13.76-11.31,23.57-25.3,30.74-41.27.5-1.11.98-2.23,1.45-3.35.8-1.89,2.05-3.74,3.5-5.18.88-.87,1.74-1.75,2.57-2.64,5.34-5.67,9.92-11.85,13.52-18.71,1.06-2.01,2.03-4.08,2.92-6.22.85-2.05,1.55-4.12,2.06-6.21.02-.05.03-.11.05-.17,1.36-5.59,1.47-11.31.02-17.1-.33-1.31-.54-2.55-.59-3.77v-.02c-.01-.14-.01-.28-.01-.42,0-.58.03-1.17.11-1.75.02-.17.05-.35.08-.52.16-.9.43-1.82.82-2.78,1.04-2.53,1.77-5.74,1.15-8.28-.16-.65-.28-1.3-.36-1.94-.01-.12-.03-.23-.04-.35h0c-.38-3.99.8-7.51,2.42-11.03.16-.33.32-.67.48-1h0s.18-.37.18-.37c.39-.82.68-1.69.98-2.55.05-.13.09-.26.14-.39.14-.41.28-.81.41-1.21,8.24-24.65,5.4-47.67-11.07-68.57ZM432.67,751.68c-.08.89-.19,1.78-.31,2.68,0,.07-.02.15-.03.22-.02.11-.03.23-.05.34-.07.49-.15.98-.23,1.48-.02.12-.04.23-.06.35-.15.9-.32,1.8-.51,2.71-.29,1.37-.61,2.76-.98,4.16-.02.08-.04.16-.06.24-.04.15-.08.3-.12.45-.07.26-.14.52-.22.78-.13.49-.28.99-.43,1.48-.17.57-.34,1.14-.53,1.71-.36,1.15-.76,2.3-1.18,3.46-.48,1.31-1.04,2.59-1.55,3.88-.35-.05-.7-.09-1.04-.14.6-5.99,1.2-11.97,1.84-18.35-3.32,9.33-6.17,18.25-3.54,28.06.08.29.15.6.21.9,0,.05.02.09.03.14.05.28.1.56.14.85.07.42.12.85.15,1.28.06.64.1,1.3.12,1.95.02.44.03.88.04,1.32l.03,1.32c.01.22.01.44.02.66,0,.22.01.44.02.65.01.3.03.59.04.89,0,.14.01.28.02.42-.39.05-.77.09-1.16.14h0c-.03-.2-.06-.4-.08-.59-.03-.2-.06-.4-.08-.6-.05-.4-.1-.8-.15-1.19-.03-.2-.06-.4-.09-.6-.05-.36-.11-.72-.19-1.08-.01-.08-.03-.16-.05-.23-.03-.15-.06-.29-.1-.44-.15-.59-.3-1.17-.44-1.72,0-.04-.02-.07-.03-.11-.12-.52-.25-1.01-.37-1.49,0-.01,0-.03,0-.04-.08-.33-.16-.66-.24-.98-.12-.51-.24-1.01-.36-1.5-.06-.26-.12-.51-.18-.76-.11-.48-.22-.94-.32-1.39-.05-.22-.1-.44-.15-.66-.09-.43-.18-.85-.27-1.25-.04-.2-.08-.4-.12-.59-.08-.39-.15-.77-.22-1.13-.04-.18-.07-.36-.1-.54-.05-.26-.09-.52-.14-.77-.01-.08-.02-.17-.04-.25-.07-.46-.14-.89-.19-1.31-.06-.43-.11-.85-.15-1.25-.05-.4-.08-.78-.1-1.16-.01-.14-.02-.29-.03-.43,0-.18-.02-.35-.02-.52-.01-.17-.01-.34-.01-.5v-.18c0-.5.01-.98.04-1.45,0-.2.03-.4.05-.6.01-.2.03-.4.06-.61.02-.2.05-.41.07-.61.03-.2.06-.41.09-.62.03-.22.07-.43.1-.66.12-.67.25-1.38.4-2.13.03-.17.07-.35.11-.54.11-.55.23-1.13.35-1.74.08-.41.17-.84.26-1.28.04-.23.09-.46.13-.69.05-.23.09-.47.14-.71.04-.24.09-.49.14-.75.04-.25.09-.51.14-.78h0c.07-.41.14-.82.22-1.25.03-.21.07-.43.11-.65.03-.22.07-.45.11-.68.1-.61.2-1.25.3-1.93.15-1,.3-2.08.45-3.23.42-3.15.61-6.29.46-9.38-.02-.36-.04-.71-.07-1.07-.03-.36-.06-.72-.1-1.07-.15-1.43-.39-2.84-.72-4.24-.03-.11-.06-.23-.09-.34-.06-.27-.14-.54-.22-.81-.04-.17-.09-.33-.14-.49-.07-.25-.15-.5-.23-.75-.23-.71-.49-1.41-.77-2.11-.58-1.41-1.28-2.79-2.11-4.16-.1.09-.21.17-.27.24l-.04.04s-.04.03-.03.04c.27.57.51,1.14.74,1.7h0c.17.44.33.86.48,1.29.14.43.28.85.41,1.28.18.57.33,1.14.46,1.71.07.29.13.58.19.86.12.57.22,1.14.31,1.71.04.29.08.57.11.86.04.25.07.5.09.75,0,.04,0,.08,0,.12.03.28.05.57.07.85.42,5.76-.62,11.56-2.16,17.37-1.96,7.41-4.58,14.67-3.93,22.59.68,8.35-1.07,9.77-9.41,8.69-.63-.08-1.26-.15-1.9-.21-.1-.01-.2-.02-.3-.02-.04,0-.07-.01-.11-.01-.29-.03-.57-.06-.86-.07h-.03c-.33-.03-.67-.05-1.01-.07-.34-.02-.68-.03-1.02-.04l-.69-.03c-.18-.01-.36-.01-.54-.01-.05-.01-.1-.01-.15-.01-.72-.02-1.44-.03-2.16-.02.49.07.98.15,1.46.23.47.07.94.16,1.4.25.02,0,.03.01.05.01.01,0,.03.01.04.01.28.05.57.11.85.18.3.06.59.13.88.2.28.06.56.13.83.2.28.07.55.15.82.23.31.08.63.18.94.28.31.09.61.2.92.3.26.08.52.18.78.28.44.16.88.33,1.31.52.27.11.54.23.8.35.42.19.82.39,1.23.6.03.02.07.03.1.05.06.03.11.06.17.09.03.01.05.03.08.04.16.09.32.17.47.26.28.15.56.31.84.48.65.39,1.29.81,1.92,1.27.31.22.62.46.93.7.21.17.42.34.62.51.15.13.3.25.45.38l.16.15.18.16s.08.07.12.12c.26.23.51.47.75.71.07.08.15.15.23.23.08.07.15.15.21.22.19.19.36.38.53.57.12.13.23.25.34.38.08.09.16.18.24.27.05.06.1.12.15.19.04.05.09.1.13.15.13.15.25.31.37.47.17.2.32.41.47.62.19.25.36.5.54.75.04.06.08.12.11.18.14.2.27.4.4.61.08.12.15.24.23.36.01.02.03.04.03.06.07.1.13.2.19.3.07.13.15.25.21.38.1.17.2.34.29.51.05.09.1.17.14.26.13.25.26.5.38.75.17.35.34.7.49,1.06.12.27.22.53.33.8.08.17.14.35.21.53.13.32.24.65.35.97.06.15.11.3.15.45.05.17.1.33.15.5.09.27.17.55.24.83s.14.56.21.84c.07.31.14.62.2.93.02.1.04.21.06.32.02.1.04.2.06.31.06.31.11.61.15.91.03.17.05.33.07.5.05.31.08.62.11.94.05.43.08.87.11,1.31,0,.08,0,.16,0,.24.23,4.67-.57,9.56-2.51,14.34-.27.66-.54,1.31-.83,1.95-.03.06-.05.12-.08.18-.12.29-.24.56-.38.84-.03.07-.06.15-.1.22l-.18.39h0c-.14.32-.29.63-.44.94-.33.69-.68,1.38-1.03,2.06-.07.13-.14.27-.21.41-.26.49-.53.97-.81,1.46-.05.1-.11.21-.17.31-.02.05-.05.11-.09.17-.31.56-.64,1.11-.97,1.66-.06.1-.13.21-.19.31-.03.07-.08.14-.13.21-.36.6-.73,1.19-1.11,1.77-.03.05-.05.09-.09.13-.38.61-.79,1.19-1.21,1.79-.02.02-.03.05-.05.07-.07.11-.15.23-.24.35-.33.47-.66.94-1.01,1.39-.04.06-.09.11-.13.17,0,.02-.02.04-.04.06-.12.16-.24.33-.37.49-.29.39-.58.78-.9,1.16-.04.05-.08.1-.12.15-.02.03-.04.05-.06.08-.02.03-.05.06-.07.09-.08.1-.16.21-.25.31-.44.56-.89,1.1-1.36,1.64-.52.62-1.05,1.23-1.6,1.83-1.09,1.2-2.22,2.38-3.39,3.53-.94.92-1.91,1.83-2.9,2.72-.05.04-.1.09-.15.13-.34.31-.68.6-1.02.9-.48.41-.96.82-1.45,1.23-4.77,3.97-8.99,8.6-13.46,12.94.2.21.4.43.6.65h0c3.72-2.87,7.42-5.73,11.13-8.59.2.2.39.41.58.61-5.31,12.21-12.37,23.27-22.07,32.59,4.1-6.55,8.2-13.1,12.29-19.65-.2-.13-.42-.26-.62-.39-3.92,5.19-7.85,10.38-11.78,15.57-.24-.16-.48-.33-.72-.5,1.37-2.27,2.74-4.54,4.11-6.81-.12-.1-.25-.19-.37-.29-.59.64-1.18,1.28-1.8,1.94-.61.66-1.24,1.34-1.92,2.07-.45.49-.91.99-1.41,1.53v-3.57c-5.17,12.64-8.47,25.2-17.44,34.96,2.25-5.09,4.5-10.19,6.75-15.27-.05-.02-.09-.04-.13-.06-.04-.02-.09-.04-.14-.06h0c-3.88,6.29-7.77,12.59-11.66,18.88-.33-.19-.65-.38-.97-.57,1.06-2.09,2.13-4.19,3.19-6.28-.15-.09-.29-.17-.45-.26,0-.01,0-.01,0-.01-.7.81-1.38,1.64-2.06,2.46-.45.55-.91,1.1-1.38,1.64-.27.32-.55.63-.83.94-.16.19-.33.37-.5.55-.27.29-.55.58-.83.86h0c-.05.06-.1.11-.16.16-.05.05-.11.1-.16.15-.11.1-.22.2-.33.29-.17.14-.34.27-.51.39-.12.09-.24.17-.36.25-.17.11-.34.22-.52.31-.2.11-.4.22-.61.3-.08.05-.16.08-.24.11,0,0-.02.01-.03.01-.13.06-.26.1-.39.14-.15.06-.3.11-.45.14-.04.02-.09.03-.13.04-.13.04-.25.07-.38.09-.25.05-.51.09-.77.12-.25.03-.51.04-.77.04-2.04,0-4.1-.82-5.81-2.45-1.24-1.18-2.35-2.52-3.43-3.85-.38-.47-.74-.95-1.11-1.43-.25-.31-.51-.63-.78-.93-.14-.15-.28-.3-.43-.45-.29-.3-.6-.58-.94-.85,1.29,2.57,2.57,5.14,3.86,7.71-5.15-4.59-8.08-10.75-11.46-16.59-.23.11-.47.22-.7.33,2.04,4.5,4.07,8.99,6.11,13.48-9.12-9.79-12.43-22.52-17.58-35.08v3.4c-1.84-1.96-3.33-3.56-4.82-5.15h0c-.14.07-.27.15-.41.22h0c1.23,2.13,2.45,4.25,3.67,6.37-.25.17-.5.34-.75.51-4.1-5.52-8.2-11.04-12.3-16.56-.19.1-.38.21-.56.31.55.88,1.09,1.77,1.64,2.65,2.18,3.54,4.36,7.06,6.49,10.5,1.06,1.72,2.12,3.42,3.15,5.09.52.84,1.03,1.67,1.54,2.49-5.85-3.76-19.57-24.05-21.39-33.23.47.37.93.73,1.4,1.1.94.74,1.87,1.47,2.81,2.22.95.74,1.89,1.49,2.86,2.25.96.76,1.94,1.53,2.93,2.31.5.39,1,.79,1.51,1.19-3.55-5.55-7.95-9.84-12.79-13.69-.62-.49-1.23-.99-1.83-1.5-1.28-1.08-2.52-2.2-3.72-3.34-.47-.45-.93-.9-1.39-1.36-.11-.11-.23-.23-.34-.35-.43-.44-.85-.87-1.27-1.32l-.02-.02s-.02-.03-.04-.04c-.02-.03-.05-.05-.07-.08-.27-.29-.54-.59-.81-.89-.03-.02-.05-.05-.07-.07-.15-.16-.29-.32-.42-.48-.31-.34-.61-.68-.9-1.02-.81-.95-1.6-1.91-2.36-2.9-.29-.36-.57-.73-.83-1.1-.19-.24-.37-.48-.54-.72-.25-.34-.49-.68-.72-1.02-.05-.06-.09-.11-.12-.17-.25-.36-.51-.72-.75-1.09-.24-.36-.48-.73-.72-1.1-.17-.26-.34-.52-.51-.78-.03-.04-.05-.09-.08-.13h0c-.14-.21-.27-.42-.38-.62-.05-.08-.1-.15-.14-.23-.21-.33-.4-.66-.6-.99-.04-.07-.08-.14-.12-.21-.1-.16-.19-.31-.28-.47-.37-.65-.73-1.3-1.09-1.96-.27-.51-.54-1.03-.8-1.55-.18-.33-.34-.66-.5-1-.03-.05-.05-.11-.08-.16-.23-.46-.45-.92-.66-1.38-.03-.06-.05-.11-.08-.17-.03-.06-.06-.12-.09-.18-.33-.72-.65-1.46-.97-2.2-.15-.35-.29-.71-.43-1.06-.12-.3-.23-.61-.34-.91-.11-.31-.22-.63-.32-.94-.01-.02-.01-.04-.02-.06-.03-.1-.07-.21-.1-.31-.09-.28-.17-.55-.25-.83-.02-.06-.03-.11-.05-.17-.01-.03-.02-.07-.03-.1-.01-.05-.02-.09-.03-.14-.09-.35-.18-.71-.27-1.06t-.01-.02c-.02-.09-.04-.18-.06-.27-.06-.24-.11-.49-.16-.73-.06-.28-.11-.56-.16-.84-.06-.28-.1-.56-.14-.84-.03-.2-.07-.4-.09-.61,0-.04-.01-.08-.01-.12-.03-.15-.04-.3-.06-.45-.04-.3-.07-.61-.09-.91-.04-.35-.06-.69-.08-1.04-.01-.18-.02-.34-.03-.52h0c0-.07-.01-.13-.01-.19-.05-1.4-.01-2.81.11-4.23.09-1,.23-2,.4-3,.27-1.54.65-3.02,1.15-4.44.25-.71.53-1.41.83-2.09.31-.67.64-1.34.99-1.98.36-.65.74-1.27,1.15-1.88.41-.61.84-1.21,1.3-1.78.22-.28.45-.55.69-.83.17-.21.36-.42.55-.62.01,0,.02-.02.03-.03.13-.14.27-.29.41-.43.42-.44.86-.87,1.31-1.27.27-.25.55-.49.83-.72.19-.16.38-.32.58-.47.16-.13.33-.25.5-.38.22-.17.44-.33.67-.49.29-.21.6-.41.9-.6.63-.41,1.28-.79,1.94-1.15.29-.16.58-.31.88-.45.1-.06.19-.1.29-.15.07-.03.14-.06.21-.1.03-.02.07-.03.1-.04.1-.05.2-.09.3-.14.09-.05.19-.09.29-.13.19-.09.39-.17.59-.25.4-.17.81-.32,1.22-.47.26-.09.51-.18.77-.27.06-.02.12-.04.17-.06l.09-.03s.06-.02.09-.03c.2-.06.4-.12.6-.18.36-.11.73-.21,1.1-.31.37-.09.74-.18,1.12-.26.76-.16,1.52-.3,2.3-.41.31-.04.62-.08.94-.12.29-.03.58-.06.87-.09.29-.02.59-.05.88-.08-.03-.21-.04-.42-.06-.63-1.85.18-3.7.35-5.55.52-1.85.18-3.7.36-5.54.57-.76.09-1.47.12-2.12.09-.51-.02-.98-.08-1.41-.18-.19-.04-.37-.09-.55-.15-.05-.02-.11-.03-.16-.05-.12-.04-.23-.08-.34-.13-.15-.06-.3-.13-.44-.21-.17-.09-.33-.19-.48-.3-.09-.07-.17-.13-.25-.2l-.03-.03s-.07-.06-.1-.09-.06-.06-.09-.09c-.07-.06-.13-.13-.2-.2-.03-.04-.07-.09-.1-.13-.01,0-.02-.02-.02-.03-.06-.06-.11-.13-.15-.19-.01-.02-.02-.03-.03-.05-.03-.04-.07-.09-.1-.14-.07-.11-.14-.23-.2-.36-.01,0-.01-.01-.01-.01-.07-.14-.13-.28-.18-.43-.01-.03-.02-.06-.03-.09-.01-.01-.01-.02-.01-.03s-.01-.01-.01-.02c-.04-.07-.06-.16-.08-.24-.04-.1-.07-.21-.09-.32-.03-.11-.05-.22-.07-.34-.02-.1-.04-.2-.04-.31-.03-.12-.04-.25-.05-.38,0-.04-.01-.09,0-.14-.03-.38-.03-.77,0-1.19v-.06s.01-.07.01-.11c.02-.22.04-.46.07-.69,1.09-8.22-1.24-15.83-3.4-23.54-.54-1.93-1.05-3.87-1.47-5.82-.14-.65-.27-1.3-.39-1.96-.56-3-.87-6.02-.76-9.08.01-.19.01-.37.03-.56v-.02c.01-.38.04-.78.08-1.16.04-.49.09-.99.16-1.48.07-.49.15-.98.24-1.48.44-2.35,1.15-4.65,1.56-7.01-.31.5-.61,1.01-.88,1.53-.15.28-.29.56-.43.84-.1.21-.2.43-.3.64-.1.22-.2.44-.29.67-.07.16-.14.32-.2.49-.21.51-.4,1.02-.56,1.54-.05.16-.1.31-.14.47-.11.33-.2.65-.28.98-.09.35-.17.69-.24,1.04-.08.38-.15.77-.21,1.15-.02.11-.04.22-.05.33-.04.28-.08.56-.11.84-.04.36-.07.72-.09,1.08-.02.21-.03.42-.03.63-.03.57-.03,1.13-.01,1.7.01.23.01.46.03.7.11,1.76.26,3.52.43,5.28.09.88.18,1.76.28,2.64.2,1.75.43,3.51.67,5.26.25,1.75.52,3.5.8,5.24.14.87.29,1.74.44,2.61,1.01,5.79,1.24,11.42-.21,17.14-.59,2.33-1.11,4.67-1.63,7.08-.2.9-.39,1.81-.58,2.73-.19.92-.39,1.84-.6,2.78-.13.63-.27,1.26-.41,1.9-1.39-3.63-1.33-7.07-.24-10.24,2.84-8.25.05-19.82-3.36-26.82.4,2.69.95,5.35,1.15,8.05v.05c.04.52.06,1.05.08,1.58.06,2.29-.04,4.63-.04,7.21-.41-.44-.7-.63-.81-.91-4.43-10.92-6.56-21.69-6.17-32.08.01-.41.03-.83.06-1.24v-.12c.01-.14.02-.28.03-.42,0-.04.01-.07.01-.11.01-.19.02-.39.04-.59.01-.2.03-.39.05-.58v-.05c.01-.2.03-.39.05-.59.05-.53.11-1.06.17-1.58.02-.15.04-.3.06-.45.05-.39.1-.79.16-1.18.04-.23.07-.46.11-.68.04-.24.08-.48.12-.72s.08-.47.13-.71c.05-.27.1-.54.16-.81.09-.52.2-1.03.32-1.53v-.02c.01-.07.03-.13.05-.2.06-.29.14-.59.21-.87.07-.32.15-.64.24-.96.14-.53.28-1.05.43-1.57.1-.31.19-.62.29-.94.09-.31.19-.62.3-.93.1-.31.2-.63.31-.94.1-.31.22-.61.33-.92.23-.62.46-1.24.71-1.85.11-.28.22-.56.34-.84.14-.34.28-.67.43-1,.27-.61.55-1.22.83-1.82.02-.05.04-.09.07-.14.16-.35.33-.69.51-1.03.1-.21.22-.43.33-.64.3-.6.62-1.2.96-1.8.18-.32.36-.65.55-.97.31-.54.64-1.08.98-1.62.21-.37.44-.73.68-1.09.5-.78,1.01-1.54,1.55-2.31.09-.12.17-.25.26-.37.32-.44.64-.88.97-1.32.37-.5.75-1,1.14-1.49.35-.45.71-.89,1.08-1.34.18-.23.38-.47.59-.7.23-.29.48-.58.74-.87.61-.71,1.24-1.42,1.9-2.11.3-.33.6-.65.92-.97.68-.72,1.4-1.44,2.13-2.15,18.04-17.48,39.83-27.51,64.71-30.55.54-.07,1.09-.13,1.63-.18.16-.01.32-.03.48-.03.07-.01.14-.01.21-.02.41-.04.81-.07,1.22-.09.59-.04,1.17-.06,1.76-.08,1.8-.05,3.6-.02,5.38.09.53.02,1.05.06,1.57.1.12,0,.25.02.37.03.48.05.96.09,1.43.15.07,0,.15.01.22.02,1.35.15,2.69.34,4.03.56.9.15,1.79.31,2.68.49.05,0,.1.02.15.03.69.14,1.39.29,2.08.45,1.02.23,2.05.48,3.07.75l.69.18c.38.1.75.2,1.12.31.72.2,1.44.41,2.16.62.87.26,1.75.53,2.62.82.87.28,1.74.57,2.61.87,16.12,5.52,30.67,13.77,42.73,25.91.44.44.87.89,1.29,1.33.38.39.75.78,1.1,1.17.09.09.17.19.26.28.38.41.74.82,1.1,1.23.4.45.79.91,1.17,1.36,2.17,2.58,4.12,5.2,5.83,7.87.17.25.33.51.49.76.03.05.06.09.09.14.27.43.53.87.79,1.31,0,.01,0,.02.02.03.29.48.56.97.84,1.45,0,.03.03.05.04.08.08.14.16.29.24.43.2.36.39.72.58,1.09.16.3.31.6.46.9.24.48.47.96.7,1.43.09.2.18.39.27.58.26.55.5,1.11.74,1.67.02.05.05.11.07.17,0,.02.02.05.03.07.01.03.02.05.03.08.13.3.25.59.36.88.06.13.11.25.16.38.03.07.05.14.08.21.07.18.14.36.21.53.11.32.23.63.34.94.05.16.11.32.17.48s.11.32.16.47c.24.69.46,1.38.67,2.08.11.35.21.69.3,1.04.1.35.19.7.29,1.05h0c.08.3.16.6.23.9.07.29.14.59.21.89.13.56.25,1.13.36,1.7.01.03.01.05.02.08.03.17.07.33.1.5.1.55.2,1.11.29,1.66.2,1.29.37,2.58.49,3.88.02.27.05.55.07.83.03.27.05.54.06.82.02.22.03.44.05.66.02.4.04.8.05,1.2.12,2.97.02,6-.29,9.06ZM264.68,1001.43c-.42-.8-.81-1.63-1.15-2.5t-.01-.03c-.05-.13-.11-.28-.16-.42-.06-.16-.12-.32-.18-.49-.09-.25-.18-.5-.25-.75.03.3.06.6.1.9h0c.1.79.22,1.58.36,2.37.34.33.67.64.99.93.21.19.41.38.61.55-.11-.19-.21-.37-.31-.56ZM366.01,1077.36c-4.31,2.95-9.16,2.53-14.02,2.4-10.64-.27-21.28-.36-31.91-.71-1.92-.07-3.83-1-5.69-1.51.1,1.75-4.7,2.16-12.64.85-.12-2.41-.25-4.88-.4-7.85,1.85.92,3.23,1.6,5.51,2.74-3.64-4.58-6.75-8.5-4.92-14.06,1.47.86,2.9,1.69,4.04,2.36-1.56-3.94-3.2-8.06-4.83-12.18.33-.22.66-.45.99-.68,1.66.92,3.32,1.82,4.98,2.73-3.05-4.25-5.38-8.66-5.76-14-.06-.7-.08-1.4-.06-2.13,2.42,1.26,4.62,2.4,6.83,3.55-6.55-6.11-9.6-13.86-10.7-22.75,1.27,1.48,2.54,2.96,4.2,4.91-.67-3.97-3.45-8.85-6.64-12.44-.11-.12-.22-.25-.34-.38-1.03-1.12-2.08-2.1-3.12-2.86-.17.21-.33.42-.48.63-.02.02-.03.05-.05.07-.08.11-.15.21-.23.31-.2.28-.4.57-.6.85-.44.63-.88,1.27-1.34,1.87-.09.14-.19.26-.29.38-.18.22-.35.43-.52.63-.09.1-.18.2-.26.3-.1.1-.19.19-.29.29,0,.01,0,.01,0,.02.53-.15,1.04-.22,1.65-.07.05.01.11.02.17.04.25.07.49.17.72.3,2.43,1.34,3.71,5.47,4.75,8.82.35,1.14.53,1.71.61,2.43.12,1.15.02,2.23-.21,3.2.62,1.79,1.2,3.53,1.71,5.29.45,1.59.11,3.4.11,5.14,0,.2,0,.4.02.6.09,1.62.5,3.21.59,4.83.25,4.68.62,9.38.57,14.08-.08,7.44-.67,14.88-.64,22.32,0,.93.02,1.69.09,2.32h66.06c1.32-1.1,2.08-1.75,2.9-2.42-.24-.1-.47-.27-.55-.22ZM390.77,1003.73c-1.93,1.21-3.64,2.61-5.12,4.2-.11.12-.22.23-.33.35-2.91,3.24-4.91,7.23-6,11.94,1.24-1.55,2.47-3.11,3.7-4.66-1.79,8.55-2.07,17.74-10.41,23.42,2.17-.91,4.34-1.81,6.8-2.83.01.78-.03,1.55-.11,2.29-.52,4.96-2.83,9.01-5.66,13.05,1.59-.9,3.19-1.8,4.99-2.81,1.5,5.32-1.28,8.99-4.01,13.01,1.41-.64,2.84-1.28,4.42-2,1.63,5.59-1.78,9.14-5.02,13.44,2.09-.97,3.56-1.65,5.65-2.62-.25,3.47-.46,6.42-.69,9.49h4.08c.26-6.7.38-13.39.51-20.1.02-.79-.33-1.59-.42-2.39-.11-.88-.17-1.76-.15-2.65.2-5.94.41-11.89.61-17.83.02-.47.03-.94.05-1.41.01-.4-.2-.83-.12-1.2.56-2.51,1.12-5.03,1.7-7.57.3-2.82.91-5.26,1.62-7.37,1.38-4.02,2.34-6.84,4.81-7.87,0-.01.04-.02.06-.03.43-.18.74-.22,1.19-.22.39-.02.87.01,1.62.01-1.2-2.44-2.41-4.88-3.77-7.64ZM417.52,1001.37c0-.2-.01-.4-.01-.6-.89,1.96-2.03,3.75-3.45,5.29.44-.3.85-.59,1.23-.89.87-.64,1.62-1.27,2.25-1.83,0-.66-.02-1.32-.02-1.97Z"/>
      <path class="cls-6" d="M371.81,971.57c-3.9,2.4-7.12,2.11-10.29.35-3.4-1.9-4.85-5.28-4.15-10.17,2.86,6.23,7.33,9.49,14.44,9.82Z"/>
    </g>
    <g>
      <g>
        <path class="cls-4" d="M527.53,170.49c-18.24,1.61-36.49,3.1-54.71,4.98-2.75.28-5.3,2.47-10.22,4.91,15.62,2.09,28.92,3.87,43.06,5.77-10.02,12-17.72,14.95-29.27,10.11-30.78-12.92-55.94.31-81.38,19.12,9.51,2.15,19.02,4.3,29.15,6.59-.07.19-.65,1.69-1.22,3.21,2.67-1.2,5.33-2.41,8.14-3.69,1.82,2.03,3.62,4.05,5.62,6.28-5.68,3.7-11.67,7.6-17.65,11.5.33.51.65,1.02.98,1.53,18.59-10.11,37.04-20.48,55.79-30.28,50.25-26.26,100.51-52.6,155.06-69.11,11-3.33,22.79-4.94,34.3-5.47,10.06-.46,12.91,4.37,9.3,13.82-2.56,6.7-6.64,12.81-12.09,18.12,2.96-8.15,5.93-16.31,8.89-24.46-.71-1.11-1.42-2.22-2.12-3.34-11.92,2.24-24.48,2.81-35.65,7.04-31.55,11.97-63.32,23.84-93.55,38.71-41.76,20.55-82.88,42.63-123.01,66.2-45.68,26.82-91.26,54.15-134.55,84.6-60.5,42.55-119.72,87.07-177.71,133-28.08,22.24-52.41,49.3-77.71,74.89-6.84,6.92-11.06,16.44-18.21,27.42,11.36,1.2,19.24,2.04,27.13,2.87.14.58.27,1.15.41,1.73-4.4.71-8.78,1.84-13.2,2.06-16.77.83-21.64-5.74-13.13-19.97,7.65-12.79,16.44-25.43,26.97-35.87,28.72-28.5,58.63-55.81,85.71-81.36-4.67,3.34-12.14,8.69-20.26,14.49,5.58-15.09,11-29.77,16.43-44.45-23.81,17.28-43.1,37.31-52.94,65.28-3.65,10.37-10.33,19.68-15.62,29.47-1.8-.83-3.6-1.65-5.41-2.48,3.89-9.02,7.78-18.04,11.67-27.06-.91-.58-1.82-1.17-2.73-1.75-14.44,23.37-28.89,46.74-43.33,70.11-.66-.2-1.32-.39-1.98-.59,1.6-4.49,2.89-9.12,4.86-13.44,16.76-36.8,42.62-67.14,69.96-96.16,22.35-23.72,46.02-46.2,69.9-70.01-8.53,6.56-16.28,12.52-24.03,18.47-.74-.39-1.47-.77-2.21-1.16,5.19-13.32,10.37-26.65,15.56-39.97-1.12-.72-2.24-1.44-3.36-2.16-7.43,8.47-16.15,16.16-21.97,25.62-7.22,11.75-11.84,25.08-17.95,37.55-4.28,8.72-9.18,17.13-13.81,25.68-1.57-.71-3.14-1.42-4.71-2.13,3.52-8.92,7.04-17.84,10.56-26.77-.74-.46-1.48-.91-2.21-1.37-13.46,22.89-26.91,45.79-40.37,68.68-1.01-.53-2.01-1.05-3.02-1.58,3.56-8,6.68-16.22,10.74-23.96,29.04-55.35,69.99-101.01,116.38-142.16,43.49-38.57,90.86-71.69,142.18-98.95,69.21-36.77,141.33-64.69,220.62-69.66,7.39-.46,14.83-.26,22.24-.37.19,1,.37,2,.56,3-4.96,1-9.91,2.74-14.9,2.88-37.9,1.08-74.49,9.15-110.57,20.09-1.36.41-2.59,1.29-3.88,1.95-.19,1.18-.37,2.35-.56,3.53,6.7-.03,13.4-.06,20.1-.08-.27,1.16-.55,2.32-.82,3.48-18.35,1.26-36.71,2.53-55.06,3.79.02,1.05.04,2.11.07,3.16,13.32,1.99,26.64,3.98,39.96,5.97-8.75,7.64-16.31,14.69-28.63,9-26.72-12.34-50.38-2.79-74,13.43,9.74-1.46,16.58,5.58,26.01,3.97,3.5-.6,8.08,5.18,12.67,8.4-5,3.68-9.5,6.99-15.24,11.21,94.83-43.46,185.63-94.42,291.92-97.58.32,1.15.65,2.3.97,3.45-23.87,3.58-48.04,5.84-71.54,11.11-23.94,5.36-47.22,13.68-70.79,20.7.14,1.07.28,2.15.41,3.22,7.88,1.25,15.75,2.5,23.63,3.75-.22.49-.44.98-.66,1.47Z"/>
        <path class="cls-4" d="M234.8,418.89c-7.45,5.97-17.02,13.21-25.99,21.13-2.41,2.12-4.79,7.05-3.88,9.39.96,2.46,5.75,4.05,9.13,4.8,4.12.91,8.53.54,13.53.75-7.66,10.12-24.38,12.26-42.64,5.91-7.5,8.62-15.27,17.54-23.04,26.47.59,1.16,1.18,2.33,1.78,3.49,14.12-3.32,28.25-6.64,42.32-9.95-3.24,10.25-34.13,18.57-52.46,13.65,3.01-15.4,14.64-24.9,24.69-34.97,11.47-11.49,23.6-22.52,36.51-32.34,31.98-24.33,64.48-47.97,97.03-71.52,3.23-2.34,8.27-3.03,12.46-3,9.89.08,16.09-4.47,20.51-12.96,2.12-4.07,4.77-8.8,8.5-10.95,38.04-21.98,76.04-44.08,114.75-64.83,15.89-8.52,33.33-14.33,50.41-20.38,7.45-2.64,15.77-2.8,24.27-4.19-2.14,17.99-21.47,43.45-33.67,45.04,9.26-12.33,18.15-24.17,28.05-37.36-10.88-1.13-15.4,1.62-18.88,9.73-4.58,10.68-11.68,20.27-17.69,30.33-1.1-.59-2.21-1.17-3.31-1.76,3.97-9.6,7.93-19.2,12.93-31.3-25.36,6.36-46.02,13.49-47.85,43.39-.95-.81-1.9-1.61-2.85-2.42.8-6.33,1.6-12.65,2.4-18.98-.93-.32-1.87-.64-2.8-.97-7.93,10.59-3.2,28.27-18.74,36.72.95-9.5,1.74-17.4,2.84-28.42-13.6,7.61-24.71,13.82-35.82,20.04.24.45.47.9.71,1.34,1.37-.27,2.74-.54,5.68-1.13-2.03,2.67-3.34,4.39-4.96,6.53,2.42-.57,4.18-.99,7.22-1.71-3.58,6.5-6.66,12.1-9.41,17.09-.09.01,1.7-.21,3.5-.42.26.52.51,1.03.77,1.55-5.5,3.58-11.06,7.09-16.5,10.77-43.26,29.26-86.25,58.93-129.99,87.45-6.91,4.51-17.12,4.17-25.91,5.21-.69.08-2.18-6.68-3.59-11.2Z"/>
        <path class="cls-4" d="M266.24,438.73c-9.44,8.24-18.85,16.46-30.69,26.8,9.39,3.2,16.12,5.49,25.62,8.72-8.86,6.16-16.59,5.62-23.23,2.55-9.92-4.6-14.56-.68-18.68,10.44,9.1,2.46,17.96,4.86,26.82,7.26-5.71,5.69-22.2,3.84-29.62-3.34-7.45-7.21-1.33-13.11,3.26-17.17,24.11-21.34,47.65-43.58,73.46-62.71,59.51-44.11,121.67-84.19,190.19-113.33,6.51-2.77,13.52-4.43,20.4-6.2,6.47-1.67,10.93,1.41,10.59,7.85-.43,8.08-2.35,16.11-4.1,24.05-.27,1.21-3.1,1.85-5.45,3.13q4.06-25.01-.87-29.5c-2.69,10.03-5.3,19.78-7.91,29.53-1.3-.27-2.59-.54-3.89-.81-.16-7.53-.32-15.06-.48-22.64-19.68.17-26.61,11.72-29.86,27.98-.32-5.14-.65-10.29-.97-15.43-1.32-.13-2.63-.26-3.95-.39-.85,5.29-1.11,10.77-2.72,15.82-1.6,5.01-4.57,9.57-6.94,14.34-.96-.44-1.93-.89-2.89-1.33-.47-6.12-.94-12.25-1.61-21.08-9.84,5.72-18.02,9.99-25.53,15.22-1.65,1.15-1.87,6.01-1.09,8.67,2.69,9.2-.2,14.51-8.38,19.9-38.21,25.21-76.06,50.99-113.66,77.11-13.12,9.11-15.66,9.33-27.82-5.44Z"/>
        <path class="cls-4" d="M390.01,158.16c-14.11.93-28.22,1.86-42.32,2.78-.05,1.19-.1,2.38-.15,3.57,2.8,1.27,5.6,2.54,11.23,5.1-10.43.17-17.98.29-25.53.41-.17.85-.33,1.7-.5,2.55,5.14-.16,10.29-.33,15.43-.49.04,1.85.08,3.71.12,5.56-5.56,1.6-11.97,5.83-16.53,4.35-18.89-6.12-32.63,2.28-46.81,13.89,3.68,1.84,6.87,3.43,13.05,6.52-36.57,23.82-71.61,46.64-107.1,69.76-.61-2.94-1.34-6.46-2.12-10.25-9.1,1.83-10.4,8.58-9.63,15.38,1.04,9.15-3.94,13.52-12.07,18.51-.67-5.41-1.18-9.53-1.81-14.61-14.01,10.42-20.1,25.14-25.46,40.61-3.01-12.54.9-23.38,8.73-31.65,13.62-14.37,27.06-29.75,43.3-40.64,42.98-28.81,87.11-55.93,131.47-82.59,11.31-6.79,24.87-10.7,37.92-13.43,9.27-1.93,19.42.36,29.18.76-.14,1.3-.27,2.6-.41,3.9Z"/>
        <path class="cls-4" d="M197.6,235.46c-1.14-2.2-2.74-5.28-4.16-8.02-16.05,1.24-5.93,19.23-16.41,25.55-1.65-2.8-2.98-5.06-5.5-9.32-6.61,11.39-12.42,21.39-18.23,31.39-2.43-11.19,2.03-20.19,8.75-27.27,11.06-11.65,22.43-23.36,35.27-32.89,32.27-23.96,65.43-46.75,103.09-61.82,13.31-5.33,26.98-8.38,41.53-2.08-15.36,2.85-30.73,5.71-47.33,8.79,2.63,4.04,3.54,5.44,4.82,7.4-5.54.32-10.58.6-15.63.89-.12.54-.24,1.08-.37,1.62,3.58,1.05,7.16,2.11,10.75,3.16.22.77.44,1.54.66,2.3-3.35,1.24-7.53,4.43-9.91,3.42-16.57-7.1-27.99,2.3-40.41,11.71,4.48,1.38,8.5,2.62,15.24,4.69-21.27,13.85-41.04,26.73-62.15,40.48Z"/>
        <path class="cls-4" d="M241.74,156.37c-8.39,6.51-16.96,12.81-25.06,19.66-2.05,1.74-4.22,5.71-3.6,7.87,5.21,18.16-11.66,17.97-20.12,27.18-1.66-5.96-2.71-9.72-3.76-13.49-.77-.1-1.54-.2-2.31-.29-1.1,7.09-2.19,14.18-3.29,21.27-.76.15-1.51.3-2.27.45-1.26-2.59-2.51-5.18-4.8-9.91-4.73,10.12-8.88,19.02-13.96,29.89-2.92-19.02,12.2-43.46,38.78-62.66,30.12-21.75,61.15-42.13,100.95-34.33.28,1.38.56,2.77.84,4.15-12.68.53-25.37,1.05-35.03,1.45-4.16,7.36-5.79,14.34-9.63,15.91-4.04,1.65-10.2-1.87-15.43-3.13-.43-1.34-.86-2.68-1.3-4.02Z"/>
        <path class="cls-4" d="M272.97,512.87c-6.1.21-23.07-1.53-25.54-10.28-1.23-4.38,1.66-8.71,6.41-14.94,18.78-24.63,27.86-31.6,27.86-31.6,85.76-65.86,138.6-92.97,138.6-92.97,26.48-12.28,39.02-18.27,45.55-21.46,4.69-2.29,9.51-4.32,14.17-6.68,6.91-3.49,8.72-4.75,12.57-5.5,2.75-.53,8.93-1.72,14.37,1.4,7.14,4.09,9.77,13.74,8.53,21.36-1.83,11.19-12.16,19.5-15.2,17.98-2.22-1.11.54-6.95-2.7-10.35-3.8-3.98-12.68-1.35-16.26-.17-50.19,16.45-104.41,54.55-104.41,54.55-103.81,72.95-61.31,48.5-70,53.67-8.59,5.11-26.8,15.14-27.2,28.48-.12,4,1.23,12.73-3.29,15.6-1.19.76-2.41.87-3.45.9Z"/>
      </g>
      <path class="cls-1" d="M498.49,357.23c-62.06,14.3-195.61,101.51-218.39,144.36-.99-.36-1.99-.71-2.98-1.07,2.05-4.68,3-10.47,6.36-13.84,11.35-11.39,22.82-22.9,35.57-32.63,47.53-36.26,97.36-68.94,152.12-93.47,5.43-2.43,11.3-4.2,17.16-5.21,3.19-.55,6.76,1.16,10.17,1.86Z"/>
      <path class="cls-1" d="M275.12,479.13c8.81-11.73,18.12-22.44,32.17-26.91-9.74,10.38-18.44,22.05-32.17,26.91Z"/>
      <path class="cls-1" d="M422.08,374.34c9.54-6.21,19.08-12.43,28.62-18.64.85,1.32,1.7,2.64,2.54,3.97-7.62,9.21-20.47,10.28-29.09,17.92-.69-1.08-1.38-2.16-2.08-3.24Z"/>
      <path class="cls-1" d="M263.74,486.47c12.79,2.12,6.29,10.29,8.16,18.69-5.54-2.71-11.77-4.09-12.06-6.26-.53-3.97,2.46-8.41,3.9-12.43Z"/>
      <path class="cls-1" d="M474.95,346.88c5.15-2.69,10.3-5.38,16.11-8.42q1.27,10.4-13.9,12.13c-.74-1.24-1.47-2.48-2.21-3.72Z"/>
      <path class="cls-5" d="M203.24,423.76c-14.18-6.61-46.67,15.34-47.06,30.07-5.14-8.15-.32-17.47,14.15-27.34,14.98-10.23,26.92-11.21,32.91-2.72Z"/>
      <path class="cls-5" d="M67.37,551.42c-4.92-11.69,3.37-24.42,18.71-31.85,16.16-7.82,22.96-7.68,27.45.58-15.72-4.91-43.35,12.85-46.17,31.27Z"/>
      <path class="cls-5" d="M351.28,320.77c-18.77-4.66-44.72,12.4-47.27,29.35-5.05-7.78-2.14-14.58,10.56-24.71,14.33-11.42,27.74-13.73,36.7-4.64Z"/>
      <path class="cls-5" d="M456.73,258.82c-2.43-12.81,4.74-23.35,19.08-31.1,14.64-7.91,21.73-8.31,28.8-1.64-19.02-1.23-42.11,13.76-47.89,32.73Z"/>
      <path class="cls-5" d="M582.6,215.92c-5.62-9.48-4-13.42,9.09-25.15,13.12-11.75,27.27-14.74,34.52-9.2-8.03,3.16-17.73,5.75-26.12,10.63-8.5,4.94-18.19,10.15-17.49,23.72Z"/>
      <path class="cls-4" d="M558.04,149.13c12.82-1.81,25.63-3.63,38.45-5.44.19,1.55.38,3.09.57,4.64-12.93,1.38-25.86,2.75-38.79,4.13-.08-1.11-.15-2.22-.23-3.33Z"/>
      <path class="cls-4" d="M512.41,149.83c-11.86.62-23.72,1.25-35.58,1.87-.08-.95-.16-1.9-.24-2.85,11.86-1.27,23.73-2.53,35.59-3.8.08,1.59.16,3.19.23,4.78Z"/>
      <path class="cls-5" d="M162.14,517.42c2.93-12.61,12.53-18.75,23.63-15.39-7.51,4.89-15.41,10.04-23.63,15.39Z"/>
      <path class="cls-5" d="M562.19,256.6c-7.23,4.71-14.79,9.64-22.03,14.35,1.25-11.27,10.45-17.29,22.03-14.35Z"/>
      <path class="cls-10" d="M244.35,146.65c-4.7-4.58-32.19,8.51-49.13,32-14.46,20.04-11.07,33.55-18.93,74.23-3.62,18.74-12.38,62.54-34.88,103.46-17.6,32-27.48,28.1-45.04,58.94-23.84,41.89-32.13,91.35-21.98,96.4,9.11,4.54,21.62-32.45,72.64-66.15,23.9-15.79,41.08-20.82,43.55-36.44,2.91-18.44-18.48-27.7-14.51-47.07,3.46-16.88,20.8-59.91,25.83-76.03,7.45-23.86,37.91-25.5,38.63-44,.33-8.65-6.31-8.63-9.76-23.25-3.26-13.82-.18-25.95,3.55-39.99,5.89-22.15,12.83-29.39,10.04-32.11Z"/>
      <path class="cls-10" d="M172.8,462.38c-.66-4.14,1.83-7.4,12.08-18.64,30.38-33.28,35.12-33.78,37.88-32.75,5.7,2.14,2.66,10.71,12.31,18.9,4.96,4.21,13.84,8.8,19.95,5.84,2.95-1.43,3.71-3.87,5.67-3.69,2.9.26,1.84,7.15,6.73,14.46,1.59,2.38,3.44,5.14,6.81,6.33,4.38,1.54,6.98-1.77,11.91-2.37,10.03-1.22,22.08,9.21,21.1,15.86-.32,2.19-1.93,3.05-8.22,8.04-9.78,7.77-10.82,9.62-13.89,11.74-5.05,3.49-11.3,4.74-39.42,1.46-20.26-2.37-30.63-3.62-42.46-7.33-15.05-4.72-29.07-9.12-30.46-17.84Z"/>
      <path class="cls-3" d="M209.11,166.91c-25.2,18.84-23.96,16.25-29,21.58-5.85,6.18-12.43,13.14-16.52,24.22-4.92,13.31-.38,16.69-6.59,31.2-3.1,7.25-5.87,10.22-7.07,18.06-.84,5.46-.06,7.71-1.4,14.37-.26,1.31-.89,4.2-4.52,13.71-5.99,15.67-7.43,16.07-7.73,21.18-.45,7.7,2.7,9.05,1.72,15.03-1.49,9.1-10.2,14.63-13.31,16.75-9.17,6.24-21.54,23.18-46.27,57.05-14.4,19.72-25.97,35.84-33.79,59.69-2.82,8.61-2.28,9.47-5.18,16.83-9.64,24.47-19.96,26.09-29.92,49.09-.69,1.6-6.6,15.6-7.25,34.32-.4,11.61,1.57,15.1,2.95,16.92,6.55,8.63,23.43,4.55,33.75,2.24,25.42-5.71,44.79-19.39,43.7-21.74-1.23-2.66-27.45,12.26-35.07,4-7.33-7.94,7.18-32.32,9.14-35.56,25.94-42.85,63.45-38.11,69.52-66.81,2.16-10.23,2.89-36.85-1.94-52.56-.68-2.21-3.12-9.57.17-16.26,2.28-4.64,6.32-6.92,8.22-8.04,9.79-5.8,17.2-14.9,25.88-22.24,25.93-21.93,7.23-66.13,34.05-84.08,9.05-6.06,17.93-5.53,20.79-13.54,3.23-9.05-6.57-13.98-7.21-27.6-.72-15.39,11.37-18.26,16.7-40.48,3.33-13.9,2.97-31.04-2.77-33.18-2.25-.84-4.47.94-11.01,5.82Z"/>
      <path class="cls-3" d="M165.9,464.19c-6.75,15.78-21.73,16.95-21.53,24.79.15,5.89,8.78,11.88,16.75,13.31,14.63,2.63,19.92-11.35,36.39-10.24,10.92.73,10.3,6.99,24.3,8.39,12.09,1.21,15.21-3.19,24.39.26,5.57,2.09,6.76,4.59,16.17,8.3,6.59,2.6,9.94,3.88,12.48,2.64,5.21-2.55,2.11-10.67,8.96-19.29,4.42-5.56,8.31-5.47,8.22-8.04-.16-4.37-11.48-5.73-36.13-14.15-12.59-4.3-12.92-5.07-16.83-5.18-13.44-.41-16.36,8.41-29.49,8.44-12.19.03-23.11-7.54-24.3-8.39-7.06-5.01-10.42-10.67-14.28-9.53-2.79.82-3.26,4.41-5.1,8.7Z"/>
      <path class="cls-1" d="M503.96,368.3c2.96-7.84,5.43-12.82,6.7-18.08,3.48-14.39-2.44-21.37-16.47-17.3-16.09,4.67-32.23,10.42-47,18.23-59.9,31.71-116.68,68.33-168.41,112.33-8.49,7.22-16.05,15.87-22.62,24.9-7.34,10.08-3.77,17.89,8.5,20.48,5.93,1.25,12.16,1.09,19.34,1.66-8.48,6.94-20.59,5.96-30.35-.29-13.36-8.56-27.35-11.44-42.49-3.62-51.34,26.53-102.19,54.26-157.8,71.21-11.37,3.47-23.46,5.42-35.34,6.09-12.3.69-16.7-4.37-17.78-16.73-1.72-19.71,5.7-37.17,15.61-53.18,11.32-18.28,19.8-37.58,27.91-57.41,18.6-45.47,49.01-83.21,81.58-119.38,3.56-3.96,4.88-10.23,6.38-15.66,1.28-4.64.13-10.18,2.1-14.35,6.71-14.23,11.45-28.84,13.83-44.46,1.71-11.22,5.59-22.09,7.93-33.23,4.43-21.05,17.49-36.43,33.1-49.72,21.3-18.12,44.61-33.15,71.7-41.43,17.41-5.32,34.6-6.43,51.54,2.14,2.76,1.4,6.45,1.04,9.72,1.35,20.63,2.01,42.04,1.26,61.65,6.84,15.26,4.34,27.64,3.33,41.86-1.48,37.86-12.81,76.76-22.11,116.9-21.94,28.11.12,55.99-.1,84.04-2.81,13.63-1.31,28.45,2.07,41.71,6.43,15.4,5.06,18.48,14.23,9.73,28.17-9.11,14.51-19.15,29.2-31.68,40.63-38.52,35.12-78.36,68.77-117.84,102.83-6.5,5.61-14.35,27.49-12,35.85,3.45,12.3-.26,24.18-12.06,31.92ZM527.53,170.49c.22-.49.44-.98.66-1.47-7.88-1.25-15.75-2.5-23.63-3.75-.14-1.07-.28-2.15-.41-3.22,23.57-7.02,46.85-15.34,70.79-20.7,23.5-5.26,47.66-7.53,71.54-11.11-.32-1.15-.65-2.3-.97-3.45-106.29,3.16-197.09,54.12-291.92,97.58,5.74-4.22,10.24-7.53,15.24-11.21-4.59-3.22-9.17-9-12.67-8.4-9.43,1.61-16.27-5.43-26.01-3.97,23.62-16.22,47.28-25.78,74-13.43,12.32,5.69,19.88-1.36,28.63-9-13.32-1.99-26.64-3.98-39.96-5.97-.02-1.05-.04-2.11-.07-3.16,18.35-1.26,36.71-2.53,55.06-3.79.27-1.16.55-2.32.82-3.48-6.7.03-13.4.06-20.1.08.19-1.18.37-2.35.56-3.53,1.29-.66,2.51-1.54,3.88-1.95,36.08-10.94,72.67-19.01,110.57-20.09,4.99-.14,9.93-1.88,14.9-2.88-.19-1-.37-2-.56-3-7.41.11-14.85-.09-22.24.37-79.29,4.97-151.42,32.89-220.62,69.66-51.31,27.27-98.69,60.38-142.18,98.95-46.39,41.15-87.35,86.81-116.38,142.16-4.06,7.74-7.18,15.96-10.74,23.96,1.01.53,2.01,1.05,3.02,1.58,13.46-22.89,26.91-45.79,40.37-68.68.74.46,1.48.91,2.21,1.37-3.52,8.92-7.04,17.84-10.56,26.77,1.57.71,3.14,1.42,4.71,2.13,4.62-8.55,9.53-16.96,13.81-25.68,6.12-12.46,10.73-25.79,17.95-37.55,5.81-9.47,14.53-17.15,21.97-25.62,1.12.72,2.24,1.44,3.36,2.16-5.19,13.32-10.37,26.65-15.56,39.97.74.39,1.47.77,2.21,1.16,7.75-5.96,15.5-11.92,24.03-18.47-23.87,23.81-47.55,46.29-69.9,70.01-27.34,29.02-53.2,59.35-69.96,96.16-1.97,4.32-3.25,8.95-4.86,13.44.66.2,1.32.39,1.98.59,14.44-23.37,28.89-46.74,43.33-70.11.91.58,1.82,1.17,2.73,1.75-3.89,9.02-7.78,18.04-11.67,27.06,1.8.83,3.6,1.65,5.41,2.48,5.3-9.79,11.97-19.1,15.62-29.47,9.84-27.98,29.13-48.01,52.94-65.28-5.43,14.68-10.85,29.36-16.43,44.45,8.12-5.81,15.59-11.16,20.26-14.49-27.08,25.55-56.99,52.86-85.71,81.36-10.53,10.45-19.32,23.08-26.97,35.87-8.52,14.23-3.64,20.81,13.13,19.97,4.42-.22,8.8-1.35,13.2-2.06-.14-.58-.27-1.15-.41-1.73-7.89-.83-15.78-1.67-27.13-2.87,7.15-10.98,11.36-20.5,18.21-27.42,25.31-25.59,49.63-52.65,77.71-74.89,57.98-45.93,117.21-90.44,177.71-133,43.28-30.44,88.87-57.78,134.55-84.6,40.13-23.57,81.25-45.65,123.01-66.2,30.23-14.87,62-26.74,93.55-38.71,11.17-4.24,23.73-4.8,35.65-7.04.71,1.11,1.42,2.22,2.12,3.34-2.96,8.15-5.93,16.31-8.89,24.46,5.45-5.31,9.53-11.42,12.09-18.12,3.62-9.45.76-14.28-9.3-13.82-11.51.52-23.3,2.14-34.3,5.47-54.55,16.5-104.82,42.84-155.06,69.11-18.75,9.8-37.2,20.17-55.79,30.28-.33-.51-.65-1.02-.98-1.53,5.99-3.9,11.97-7.8,17.65-11.5-2-2.23-3.8-4.25-5.62-6.28-2.8,1.27-5.47,2.48-8.14,3.68.58-1.51,1.16-3.02,1.23-3.2-10.12-2.29-19.63-4.44-29.15-6.59,25.43-18.81,50.6-32.04,81.38-19.12,11.54,4.85,19.25,1.89,29.27-10.11-14.14-1.89-27.43-3.67-43.06-5.77,4.93-2.44,7.47-4.63,10.22-4.91,18.21-1.89,36.47-3.37,54.71-4.98ZM234.8,418.89c1.41,4.51,2.91,11.28,3.59,11.2,8.79-1.04,18.99-.7,25.91-5.21,43.74-28.53,86.73-58.19,129.99-87.45,5.44-3.68,11-7.18,16.5-10.77-.26-.52-.51-1.03-.77-1.55-1.79.22-3.59.44-3.5.42,2.75-4.99,5.83-10.59,9.41-17.09-3.04.72-4.8,1.14-7.22,1.71,1.63-2.14,2.93-3.86,4.96-6.53-2.94.58-4.31.86-5.68,1.13-.24-.45-.47-.9-.71-1.34,11.11-6.22,22.22-12.43,35.82-20.04-1.1,11.02-1.89,18.93-2.84,28.42,15.54-8.45,10.81-26.13,18.74-36.72.93.32,1.87.64,2.8.97-.8,6.33-1.6,12.65-2.4,18.98.95.81,1.9,1.61,2.85,2.42,1.83-29.9,22.48-37.03,47.85-43.39-4.99,12.09-8.96,21.69-12.93,31.3,1.1.59,2.21,1.17,3.31,1.76,6.02-10.06,13.12-19.65,17.69-30.33,3.48-8.11,8-10.86,18.88-9.73-9.9,13.18-18.79,25.02-28.05,37.36,12.19-1.59,31.52-27.05,33.67-45.04-8.5,1.38-16.82,1.55-24.27,4.19-17.08,6.06-34.51,11.87-50.41,20.38-38.71,20.75-76.71,42.86-114.75,64.83-3.73,2.15-6.38,6.88-8.5,10.95-4.42,8.48-10.62,13.04-20.51,12.96-4.19-.03-9.23.66-12.46,3-32.55,23.55-65.06,47.2-97.03,71.52-12.91,9.82-25.04,20.85-36.51,32.34-10.05,10.08-21.68,19.57-24.69,34.97,18.33,4.93,49.22-3.4,52.46-13.65-14.08,3.31-28.2,6.63-42.32,9.95-.59-1.16-1.18-2.33-1.78-3.49,7.77-8.93,15.54-17.85,23.04-26.47,18.26,6.35,34.98,4.21,42.64-5.91-5.01-.21-9.41.15-13.53-.75-3.39-.75-8.17-2.33-9.13-4.8-.92-2.35,1.47-7.27,3.88-9.39,8.97-7.92,18.55-15.16,25.99-21.13ZM266.24,438.73c12.15,14.77,14.7,14.55,27.82,5.44,37.61-26.11,75.45-51.9,113.66-77.11,8.18-5.39,11.07-10.7,8.38-19.9-.78-2.66-.55-7.52,1.09-8.67,7.51-5.23,15.68-9.5,25.53-15.22.68,8.83,1.14,14.96,1.61,21.08.96.44,1.93.89,2.89,1.33,2.37-4.76,5.34-9.33,6.94-14.34,1.61-5.05,1.87-10.53,2.72-15.82,1.32.13,2.63.26,3.95.39.32,5.14.65,10.29.97,15.43,3.25-16.26,10.18-27.82,29.86-27.98.16,7.58.32,15.11.48,22.64,1.3.27,2.59.54,3.89.81,2.61-9.75,5.22-19.5,7.91-29.53q4.93,4.49.87,29.5c2.34-1.28,5.18-1.92,5.45-3.13,1.75-7.94,3.67-15.97,4.1-24.05.34-6.44-4.12-9.52-10.59-7.85-6.88,1.77-13.89,3.44-20.4,6.2-68.53,29.14-130.68,69.22-190.19,113.33-25.81,19.13-49.35,41.37-73.46,62.71-4.59,4.06-10.71,9.96-3.26,17.17,7.42,7.18,23.91,9.02,29.62,3.34-8.86-2.4-17.73-4.8-26.82-7.26,4.12-11.12,8.76-15.03,18.68-10.44,6.64,3.08,14.36,3.61,23.23-2.55-9.5-3.24-16.23-5.53-25.62-8.72,11.84-10.34,21.25-18.56,30.69-26.8ZM390.01,158.16c.14-1.3.27-2.6.41-3.9-9.76-.4-19.91-2.69-29.18-.76-13.05,2.72-26.61,6.63-37.92,13.43-44.36,26.66-88.5,53.78-131.47,82.59-16.24,10.89-29.68,26.27-43.3,40.64-7.83,8.26-11.74,19.1-8.73,31.65,5.36-15.47,11.45-30.19,25.46-40.61.63,5.08,1.14,9.2,1.81,14.61,8.13-4.99,13.11-9.36,12.07-18.51-.77-6.79.52-13.55,9.63-15.38.79,3.8,1.52,7.31,2.12,10.25,35.49-23.11,70.52-45.94,107.1-69.76-6.17-3.09-9.37-4.68-13.05-6.52,14.18-11.61,27.92-20,46.81-13.89,4.56,1.48,10.97-2.75,16.53-4.35-.04-1.85-.08-3.71-.12-5.56-5.14.16-10.29.33-15.43.49.17-.85.33-1.7.5-2.55,7.55-.12,15.1-.24,25.53-.41-5.63-2.55-8.43-3.82-11.23-5.1.05-1.19.1-2.38.15-3.57,14.11-.93,28.22-1.86,42.32-2.78ZM197.6,235.46c21.11-13.75,40.88-26.63,62.15-40.48-6.74-2.07-10.76-3.31-15.24-4.69,12.42-9.41,23.84-18.8,40.41-11.71,2.38,1.02,6.56-2.17,9.91-3.42-.22-.77-.44-1.54-.66-2.3-3.58-1.05-7.16-2.11-10.75-3.16.12-.54.24-1.08.37-1.62,5.05-.29,10.09-.58,15.63-.89-1.28-1.96-2.19-3.36-4.82-7.4,16.6-3.08,31.97-5.94,47.33-8.79-14.55-6.3-28.21-3.25-41.53,2.08-37.66,15.06-70.81,37.86-103.09,61.82-12.84,9.53-24.21,21.24-35.27,32.89-6.72,7.08-11.19,16.08-8.75,27.27,5.81-10,11.62-20.01,18.23-31.39,2.51,4.26,3.85,6.53,5.5,9.32,10.48-6.32.36-24.31,16.41-25.55,1.42,2.74,3.02,5.82,4.16,8.02ZM241.74,156.37c.43,1.34.86,2.68,1.3,4.02,5.23,1.26,11.38,4.78,15.43,3.13,3.84-1.57,5.47-8.54,9.63-15.91,9.66-.4,22.35-.93,35.03-1.45-.28-1.38-.56-2.77-.84-4.15-39.8-7.8-70.82,12.57-100.95,34.33-26.58,19.19-41.7,43.64-38.78,62.66,5.07-10.87,9.23-19.76,13.96-29.89,2.29,4.73,3.55,7.32,4.8,9.91.76-.15,1.51-.3,2.27-.45,1.1-7.09,2.19-14.18,3.29-21.27.77.1,1.54.2,2.31.29,1.05,3.77,2.1,7.53,3.76,13.49,8.46-9.21,25.33-9.02,20.12-27.18-.62-2.16,1.54-6.13,3.6-7.87,8.1-6.86,16.66-13.16,25.06-19.66ZM203.24,423.76c-5.99-8.49-17.93-7.5-32.91,2.72-14.47,9.88-19.29,19.19-14.15,27.34.39-14.73,32.88-36.68,47.06-30.07ZM67.37,551.42c2.82-18.42,30.44-36.18,46.17-31.27-4.49-8.26-11.29-8.4-27.45-.58-15.34,7.43-23.63,20.16-18.71,31.85ZM351.28,320.77c-8.97-9.09-22.37-6.78-36.7,4.64-12.7,10.13-15.61,16.93-10.56,24.71,2.55-16.95,28.5-34.01,47.27-29.35ZM456.73,258.82c5.78-18.97,28.87-33.96,47.89-32.73-7.07-6.67-14.16-6.27-28.8,1.64-14.34,7.74-21.52,18.29-19.08,31.1ZM582.6,215.92c-.7-13.57,8.99-18.78,17.49-23.72,8.38-4.87,18.09-7.47,26.12-10.63-7.24-5.54-21.39-2.55-34.52,9.2-13.09,11.72-14.71,15.66-9.09,25.15ZM558.04,149.13c.08,1.11.15,2.22.23,3.33,12.93-1.38,25.86-2.75,38.79-4.13-.19-1.55-.38-3.09-.57-4.64-12.82,1.81-25.63,3.63-38.45,5.44ZM512.41,149.83c-.08-1.59-.16-3.19-.23-4.78-11.86,1.27-23.73,2.53-35.59,3.8.08.95.16,1.9.24,2.85,11.86-.62,23.72-1.25,35.58-1.87ZM162.14,517.42c8.22-5.35,16.12-10.5,23.63-15.39-11.1-3.36-20.7,2.78-23.63,15.39ZM562.19,256.6c-11.58-2.94-20.78,3.08-22.03,14.35,7.24-4.71,14.8-9.64,22.03-14.35Z"/>
    </g>
    <path class="cls-2" d="M478.57,441.5c1.86-1.45,51.27,58.68,150,179,117.87,143.63,176.8,215.45,175,217-2.66,2.29-97.58-98.52-195-220-70.09-87.4-132.38-174.14-130-176Z"/>
    <path class="cls-2" d="M678.17,1080h-1.92c-5.11-6.28-17.44-24.77-34.29-51.85-29.09-46.75-71.63-119.09-113.71-198.33-33.44-62.95-63.82-125.05-80.8-162.25-1.06-2.32-2.07-4.55-3.02-6.67-7.79-17.32-11.93-27.79-11.06-28.24,2.1-1.08,39.42,67.21,113.97,203.84,80.84,148.18,124.96,229.05,130.83,243.5Z"/>
  </g>
  <g id="Ebene_11" data-name="Ebene 11">
    <path class="cls-7" d="M1505.31,0c10.75,18.01,25.87,33.11,43.89,43.84-2.29,4.78-4.12,9.87-5.42,15.23-7.89,32.45,5.77,65.1,31.81,82.88-3.22,6.84-5.02,14.48-5.02,22.55,0,27.07,20.29,49.39,46.49,52.6-13.57,20.1-21.49,44.32-21.49,70.4,0,38.53,17.29,73.02,44.54,96.13-2.29,6.53-3.54,13.55-3.54,20.87v.13c-9-2.05-18.38-3.13-28-3.13-69.59,0-126,56.41-126,126,0,45.04,23.63,84.55,59.16,106.83-17.85,15.22-29.16,37.88-29.16,63.17,0,9.1,1.46,17.86,4.18,26.05-3.45-.69-7.02-1.05-10.68-1.05-30.1,0-54.5,24.4-54.5,54.5,0,20.2,10.99,37.84,27.32,47.25-41.87,17.55-72.25,57.06-76.74,104.13-12.47-15.19-31.39-24.88-52.58-24.88-37.56,0-68,30.44-68,68,0,17.93,6.94,34.24,18.29,46.38-12.77,2.61-24.23,8.81-33.29,17.49-11.93,11.4-19.71,27.11-20.85,44.63h494.85V0h-235.26ZM1638.64,420.8h.01s.05.03.07.05c0,.02,0,.03.01.04-.03-.03-.06-.06-.09-.09Z"/>
  </g>
</svg>